<svg width="25" height="25" viewBox="0 0 25 25" fill="none" xmlns="http://www.w3.org/2000/svg">
<path d="M23.5099 14.9862C23.3751 15.1433 23.1833 15.2404 22.9769 15.2562C22.7704 15.272 22.5661 15.2052 22.4089 15.0705L20.712 13.6122C20.4389 13.3943 20.0999 13.2757 19.7506 13.2757C19.4012 13.2757 19.0622 13.3943 18.7891 13.6122L14.4547 17.3309C13.8984 17.7924 13.1984 18.045 12.4756 18.045C11.7528 18.045 11.0527 17.7924 10.4964 17.3309L10.1495 17.033C9.89545 16.8318 9.58473 16.7151 9.26098 16.6994C8.93722 16.6837 8.61668 16.7698 8.34432 16.9455L3.21516 20.3914C3.08705 20.4784 2.93568 20.5249 2.78078 20.5247C2.61314 20.525 2.44985 20.4714 2.31503 20.3718C2.1802 20.2722 2.081 20.1318 2.03207 19.9715C1.98314 19.8111 1.98708 19.6393 2.04331 19.4814C2.09954 19.3235 2.20507 19.1878 2.34432 19.0945L7.47557 15.6507C8.03112 15.2832 8.69016 15.1041 9.35532 15.1399C10.0205 15.1758 10.6565 15.4246 11.1693 15.8497L11.5162 16.1476C11.7891 16.365 12.1277 16.4833 12.4766 16.4833C12.8255 16.4833 13.1641 16.365 13.437 16.1476L17.7724 12.4289C18.3288 11.9674 19.0288 11.7148 19.7516 11.7148C20.4744 11.7148 21.1745 11.9674 21.7308 12.4289L23.4277 13.8872C23.5838 14.0223 23.6802 14.2138 23.6956 14.4197C23.711 14.6256 23.6443 14.8293 23.5099 14.9862Z" fill="#0076E2"/>
<path d="M15.6257 1.30078H9.37565C3.71628 1.30078 1.30273 3.71536 1.30273 9.3737V15.6237C1.30273 21.282 3.71628 23.6966 9.37565 23.6966H15.6257C21.285 23.6966 23.6986 21.282 23.6986 15.6237V9.3737C23.6986 3.71536 21.285 1.30078 15.6257 1.30078ZM22.1361 15.6237C22.1361 20.4299 20.4319 22.1341 15.6257 22.1341H9.37565C4.5694 22.1341 2.86523 20.4299 2.86523 15.6237V9.3737C2.86523 4.56745 4.5694 2.86328 9.37565 2.86328H15.6257C20.4319 2.86328 22.1361 4.56745 22.1361 9.3737V15.6237ZM9.37565 5.46745C8.80909 5.46745 8.25525 5.63545 7.78417 5.95022C7.3131 6.26498 6.94594 6.71237 6.72912 7.2358C6.51231 7.75924 6.45558 8.33521 6.56611 8.89088C6.67664 9.44656 6.94947 9.95698 7.35008 10.3576C7.7507 10.7582 8.26112 11.031 8.8168 11.1416C9.37247 11.2521 9.94845 11.1954 10.4719 10.9786C10.9953 10.7617 11.4427 10.3946 11.7575 9.92351C12.0722 9.45243 12.2402 8.89859 12.2402 8.33203C12.2402 7.5723 11.9384 6.84368 11.4012 6.30647C10.864 5.76925 10.1354 5.46745 9.37565 5.46745ZM9.37565 9.63412C9.11812 9.63412 8.86638 9.55775 8.65225 9.41467C8.43813 9.2716 8.27123 9.06824 8.17268 8.83032C8.07413 8.59239 8.04835 8.33059 8.09859 8.07801C8.14883 7.82543 8.27284 7.59342 8.45494 7.41132C8.63704 7.22922 8.86905 7.10521 9.12163 7.05497C9.37421 7.00473 9.63601 7.03051 9.87394 7.12906C10.1119 7.22761 10.3152 7.39451 10.4583 7.60863C10.6014 7.82276 10.6777 8.0745 10.6777 8.33203C10.6777 8.50302 10.6441 8.67234 10.5786 8.83032C10.5132 8.98829 10.4173 9.13183 10.2964 9.25274C10.1755 9.37365 10.0319 9.46956 9.87394 9.535C9.71596 9.60044 9.54664 9.63412 9.37565 9.63412Z" fill="#202838"/>
</svg>
