<svg width="25" height="25" viewBox="0 0 25 25" fill="none" xmlns="http://www.w3.org/2000/svg">
<path d="M18.2283 1.75176H7.81166C7.01294 1.70529 6.21343 1.82837 5.46569 2.11294C4.71794 2.3975 4.03888 2.8371 3.47314 3.40283C2.90741 3.96856 2.46782 4.64762 2.18325 5.39537C1.89869 6.14312 1.7756 6.94263 1.82208 7.74135V13.9913C1.81869 14.497 1.87109 15.0014 1.97833 15.4955C2.00916 15.6328 2.0765 15.7592 2.17324 15.8614C2.26998 15.9636 2.39252 16.0378 2.52792 16.0761C2.66332 16.1144 2.80655 16.1154 2.94249 16.079C3.07842 16.0427 3.20201 15.9703 3.3002 15.8695C3.61511 15.544 3.99249 15.2855 4.40972 15.1093C4.82695 14.9332 5.27545 14.8431 5.72833 14.8445C6.62458 14.8491 7.48282 15.2071 8.11667 15.8408C8.75052 16.4745 9.10882 17.3326 9.11374 18.2288C9.11212 18.4882 9.07711 18.7462 9.00958 18.9966C8.97857 19.1123 8.97462 19.2337 8.99804 19.3513C9.02146 19.4688 9.07162 19.5794 9.14463 19.6745C9.21765 19.7696 9.31156 19.8466 9.4191 19.8995C9.52663 19.9525 9.64491 19.98 9.76478 19.9799H11.7356L16.1752 22.9413C16.4485 23.1235 16.7661 23.2279 17.0942 23.2435C17.4222 23.2591 17.7484 23.1853 18.0377 23.0299C18.3301 22.8743 18.5746 22.642 18.7449 22.3579C18.9153 22.0738 19.0049 21.7486 19.0044 21.4174V19.9413C20.337 19.8307 21.5894 19.259 22.546 18.3247C23.0992 17.7503 23.5317 17.071 23.818 16.3267C24.1042 15.5824 24.2384 14.7884 24.2127 13.9913V7.74135C24.2591 6.94309 24.1361 6.14405 23.8519 5.39668C23.5676 4.64932 23.1285 3.97053 22.5634 3.40488C21.9982 2.83923 21.3198 2.39952 20.5727 2.11461C19.8256 1.82971 19.0266 1.70605 18.2283 1.75176ZM22.6554 13.9913C22.6796 14.583 22.5852 15.1735 22.3777 15.7281C22.1702 16.2827 21.8537 16.7901 21.4471 17.2205C21.0175 17.6247 20.5115 17.939 19.9587 18.1449C19.406 18.3508 18.8177 18.4441 18.2283 18.4195C18.0211 18.4195 17.8224 18.5018 17.6759 18.6483C17.5294 18.7948 17.4471 18.9935 17.4471 19.2007V21.4195C17.4476 21.4678 17.4346 21.5154 17.4095 21.5568C17.3845 21.5982 17.3485 21.6318 17.3054 21.6538C17.2659 21.677 17.2205 21.6883 17.1747 21.6865C17.1289 21.6846 17.0846 21.6697 17.0471 21.6434L12.4117 18.5507C12.2833 18.4652 12.1326 18.4195 11.9783 18.4195H10.6721V18.2309C10.6708 17.3754 10.4481 16.5348 10.0256 15.7909C9.60303 15.047 8.9951 14.4252 8.26094 13.9859C7.52679 13.5467 6.69142 13.305 5.83615 13.2844C4.98088 13.2638 4.13485 13.465 3.38041 13.8684V7.74135C3.33895 7.14894 3.42518 6.55454 3.63327 5.99834C3.84136 5.44214 4.16645 4.93711 4.58657 4.51739C5.00668 4.09767 5.51202 3.77305 6.06842 3.56549C6.62481 3.35792 7.21929 3.27225 7.81166 3.31426H18.2283C18.8204 3.27288 19.4144 3.35901 19.9703 3.56686C20.5261 3.7747 21.031 4.09941 21.4506 4.51906C21.8703 4.93871 22.195 5.44352 22.4028 5.99941C22.6107 6.5553 22.6968 7.14932 22.6554 7.74135V13.9913Z" fill="#202838"/>
<path d="M5.72922 23.1782C4.8762 23.1776 4.03789 22.956 3.29599 22.5351C2.55409 22.1141 1.93391 21.5081 1.49588 20.7761C1.026 20.0099 0.778577 19.1281 0.781298 18.2292C0.777995 17.4868 0.943582 16.7534 1.26553 16.0844C1.58748 15.4154 2.05737 14.8284 2.63963 14.3678C3.36693 13.7848 4.24419 13.4193 5.17026 13.3133C6.09633 13.2073 7.03349 13.3653 7.87367 13.7689C8.71384 14.1726 9.42282 14.8055 9.91885 15.5947C10.4149 16.3838 10.6777 17.2971 10.6771 18.2292C10.6789 19.1316 10.4297 20.0167 9.95734 20.7855C9.69755 21.2285 9.36351 21.6235 8.96984 21.9532C8.07759 22.7471 6.92351 23.1834 5.72922 23.1782ZM5.72922 14.8449C4.83195 14.8463 3.97181 15.2032 3.33725 15.8376C2.70269 16.472 2.34545 17.332 2.3438 18.2292C2.34233 18.8422 2.51149 19.4434 2.83234 19.9657C3.1318 20.4673 3.55597 20.8829 4.0636 21.172C4.57122 21.4611 5.14503 21.614 5.72922 21.6157C6.54669 21.6195 7.33652 21.32 7.94588 20.7751C8.21205 20.5504 8.43879 20.2828 8.61672 19.9834C8.9425 19.4563 9.11493 18.8489 9.11463 18.2292C9.11325 17.3319 8.7561 16.4717 8.12148 15.8373C7.48686 15.2029 6.62657 14.846 5.72922 14.8449ZM5.66151 19.8313L7.88338 17.7782C8.02348 17.6349 8.10317 17.4433 8.10597 17.2429C8.10877 17.0426 8.03447 16.8488 7.89844 16.7017C7.7624 16.5545 7.57503 16.4653 7.37506 16.4524C7.17509 16.4395 6.97781 16.5039 6.82401 16.6324L5.15213 18.174L4.65734 17.6782C4.58477 17.6056 4.49862 17.5481 4.4038 17.5088C4.30899 17.4695 4.20736 17.4493 4.10474 17.4493C4.00211 17.4493 3.90048 17.4695 3.80567 17.5088C3.71085 17.5481 3.6247 17.6056 3.55213 17.6782C3.47956 17.7508 3.422 17.8369 3.38272 17.9317C3.34345 18.0266 3.32324 18.1282 3.32324 18.2308C3.32324 18.3334 3.34345 18.4351 3.38272 18.5299C3.422 18.6247 3.47956 18.7108 3.55213 18.7834L4.57922 19.8095C4.72187 19.9522 4.91421 20.0341 5.11596 20.0382C5.3177 20.0423 5.5132 19.9682 5.66151 19.8313Z" fill="#0076E2"/>
</svg>
