<svg width="25" height="25" viewBox="0 0 25 25" fill="none" xmlns="http://www.w3.org/2000/svg">
<path d="M15.6257 1.30469H9.37565C3.71732 1.30469 1.30273 3.71927 1.30273 9.3776V15.6276C1.30273 21.2859 3.71732 23.7005 9.37565 23.7005H15.6257C21.284 23.7005 23.6986 21.2859 23.6986 15.6276V9.3776C23.6986 3.71927 21.284 1.30469 15.6257 1.30469ZM9.37565 2.86719H15.6257C20.4319 2.86719 22.1361 4.57135 22.1361 9.3776V12.763H18.9965C18.4642 12.7617 17.9422 12.9093 17.4894 13.1891C17.0365 13.4689 16.671 13.8697 16.434 14.3464L15.5027 16.2099C15.3956 16.4269 15.2296 16.6095 15.0237 16.7368C14.8177 16.864 14.5802 16.9309 14.3382 16.9297H10.6632C10.419 16.9416 10.177 16.8791 9.96908 16.7506C9.76116 16.6221 9.5971 16.4336 9.49857 16.2099L8.56732 14.3484C8.33025 13.8722 7.9648 13.4717 7.51219 13.1921C7.05959 12.9125 6.53785 12.765 6.00586 12.7661H2.86523V9.3776C2.86523 4.57135 4.5694 2.86719 9.37565 2.86719ZM15.6257 22.138H9.37565C4.5694 22.138 2.86523 20.4339 2.86523 15.6276V14.3266H6.00482C6.24688 14.3254 6.48441 14.3922 6.69032 14.5195C6.89623 14.6467 7.06223 14.8293 7.1694 15.0464L8.10065 16.9068C8.32745 17.3914 8.69068 17.7993 9.14584 18.0805C9.60099 18.3617 10.1283 18.5041 10.6632 18.4901H14.3382C14.8704 18.4914 15.3925 18.3438 15.8453 18.064C16.2981 17.7842 16.6637 17.3834 16.9007 16.9068L17.8319 15.0432C17.9391 14.8262 18.1051 14.6436 18.311 14.5163C18.5169 14.3891 18.7544 14.3222 18.9965 14.3234H22.1361V15.6276C22.1361 20.4339 20.4319 22.138 15.6257 22.138Z" fill="#202838"/>
<path d="M16.4971 7.35699L12.0179 11.8362C11.9454 11.9088 11.8592 11.9663 11.7644 12.0056C11.6696 12.0449 11.568 12.0652 11.4653 12.0652C11.3627 12.0652 11.2611 12.0449 11.1662 12.0056C11.0714 11.9663 10.9853 11.9088 10.9127 11.8362L9.23877 10.1507C9.16412 10.0787 9.10456 9.99253 9.06357 9.89723C9.02258 9.80193 9.00098 9.69943 9.00003 9.5957C8.99908 9.49196 9.0188 9.38908 9.05804 9.29305C9.09727 9.19702 9.15524 9.10976 9.22856 9.03638C9.30188 8.96299 9.38908 8.90494 9.48507 8.86561C9.58107 8.82628 9.68393 8.80647 9.78767 8.80732C9.8914 8.80817 9.99393 8.82967 10.0893 8.87057C10.1846 8.91147 10.2708 8.97095 10.3429 9.04553L11.469 10.1716L15.3929 6.24866C15.4645 6.1719 15.5507 6.11033 15.6465 6.06763C15.7424 6.02493 15.8458 6.00197 15.9507 6.00012C16.0556 5.99827 16.1598 6.01757 16.2571 6.05686C16.3544 6.09615 16.4427 6.15464 16.5169 6.22882C16.5911 6.30301 16.6496 6.39138 16.6889 6.48866C16.7282 6.58594 16.7475 6.69013 16.7456 6.79503C16.7438 6.89993 16.7208 7.00338 16.6781 7.09922C16.6354 7.19505 16.5739 7.2813 16.4971 7.35282V7.35699Z" fill="#0076E2"/>
</svg>
