<svg width="25" height="25" viewBox="0 0 25 25" fill="none" xmlns="http://www.w3.org/2000/svg">
<path d="M17.7083 22.3958H7.29165C3.4854 22.3958 1.30206 20.2083 1.30206 16.4063V9.11458C1.30206 5.3125 3.4854 3.125 7.29165 3.125H14.5833C14.7905 3.125 14.9892 3.20731 15.1357 3.35382C15.2823 3.50034 15.3646 3.69905 15.3646 3.90625C15.3646 4.11345 15.2823 4.31216 15.1357 4.45868C14.9892 4.60519 14.7905 4.6875 14.5833 4.6875H7.29165C4.31248 4.6875 2.86456 6.13646 2.86456 9.11458V16.4063C2.86456 19.3844 4.31248 20.8333 7.29165 20.8333H17.7083C20.6875 20.8333 22.1354 19.3844 22.1354 16.4063V11.1979C22.1354 10.9907 22.2177 10.792 22.3642 10.6455C22.5107 10.499 22.7094 10.4167 22.9166 10.4167C23.1238 10.4167 23.3226 10.499 23.4691 10.6455C23.6156 10.792 23.6979 10.9907 23.6979 11.1979V16.4063C23.6979 20.2083 21.5146 22.3958 17.7083 22.3958ZM14.9406 12.851L16.1656 11.8708C16.3275 11.7414 16.4313 11.553 16.4543 11.347C16.4773 11.141 16.4174 10.9343 16.288 10.7724C16.1586 10.6105 15.9701 10.5067 15.7641 10.4837C15.5581 10.4608 15.3515 10.5206 15.1896 10.65L13.9646 11.6302C13.5391 11.9396 13.0266 12.1062 12.5005 12.1062C11.9744 12.1062 11.4619 11.9396 11.0364 11.6302L7.78019 9.02604C7.61758 8.90468 7.41419 8.85125 7.21293 8.87702C7.01167 8.90279 6.8283 9.00574 6.70152 9.16416C6.57474 9.32257 6.51446 9.52404 6.53341 9.72605C6.55237 9.92807 6.64907 10.1148 6.80311 10.2469L10.0604 12.851C10.7627 13.3829 11.6195 13.6708 12.5005 13.6708C13.3815 13.6708 14.2383 13.3829 14.9406 12.851Z" fill="#202838"/>
<path d="M22.4686 6.27998C22.3221 6.42628 22.1236 6.50846 21.9165 6.50846C21.7095 6.50846 21.5109 6.42628 21.3644 6.27998L20.6144 5.53102V9.89456C20.6144 10.1018 20.5321 10.3005 20.3856 10.447C20.2391 10.5935 20.0404 10.6758 19.8332 10.6758C19.626 10.6758 19.4273 10.5935 19.2808 10.447C19.1343 10.3005 19.0519 10.1018 19.0519 9.89456V5.53102L18.3019 6.27998C18.1538 6.41798 17.958 6.49311 17.7556 6.48954C17.5532 6.48597 17.3601 6.40397 17.2169 6.26084C17.0738 6.1177 16.9918 5.92459 16.9882 5.72219C16.9846 5.51979 17.0598 5.32391 17.1978 5.17581L19.2811 3.09248C19.2884 3.08519 19.2978 3.0831 19.3051 3.07581C19.371 3.01067 19.4488 2.9587 19.5342 2.92269H19.5551C19.6339 2.89488 19.7164 2.87908 19.7999 2.87581C19.8273 2.87473 19.8547 2.87473 19.8822 2.87581C19.9469 2.8805 20.0109 2.89274 20.0728 2.91227C20.0992 2.9206 20.1252 2.92998 20.1509 2.9404C20.2372 2.97648 20.3157 3.02882 20.3822 3.09456L22.4655 5.1779C22.6116 5.32388 22.6939 5.52177 22.6945 5.72829C22.6951 5.93482 22.6139 6.13317 22.4686 6.27998Z" fill="#0076E2"/>
</svg>
