<svg width="25" height="25" viewBox="0 0 25 25" fill="none" xmlns="http://www.w3.org/2000/svg">
<path d="M17.708 22.3958H7.29134C3.48509 22.3958 1.30176 20.2083 1.30176 16.4063V9.11458C1.30176 5.3125 3.48509 3.125 7.29134 3.125H14.583C14.7902 3.125 14.9889 3.20731 15.1354 3.35382C15.2819 3.50034 15.3643 3.69905 15.3643 3.90625C15.3643 4.11345 15.2819 4.31216 15.1354 4.45868C14.9889 4.60519 14.7902 4.6875 14.583 4.6875H7.29134C4.31217 4.6875 2.86426 6.13646 2.86426 9.11458V16.4063C2.86426 19.3844 4.31217 20.8333 7.29134 20.8333H17.708C20.6872 20.8333 22.1351 19.3844 22.1351 16.4063V11.1979C22.1351 10.9907 22.2174 10.792 22.3639 10.6455C22.5104 10.499 22.7091 10.4167 22.9163 10.4167C23.1235 10.4167 23.3223 10.499 23.4688 10.6455C23.6153 10.792 23.6976 10.9907 23.6976 11.1979V16.4063C23.6976 20.2083 21.5143 22.3958 17.708 22.3958ZM14.9403 12.851L16.1653 11.8708C16.3272 11.7414 16.431 11.553 16.454 11.347C16.4769 11.141 16.4171 10.9343 16.2877 10.7724C16.1583 10.6105 15.9698 10.5067 15.7638 10.4837C15.5578 10.4608 15.3512 10.5206 15.1893 10.65L13.9643 11.6302C13.5388 11.9396 13.0262 12.1062 12.5002 12.1062C11.9741 12.1062 11.4616 11.9396 11.0361 11.6302L7.77988 9.02604C7.61728 8.90468 7.41388 8.85125 7.21263 8.87702C7.01137 8.90279 6.828 9.00574 6.70121 9.16416C6.57443 9.32257 6.51416 9.52404 6.53311 9.72605C6.55206 9.92807 6.64876 10.1148 6.8028 10.2469L10.0601 12.851C10.7624 13.3829 11.6192 13.6708 12.5002 13.6708C13.3812 13.6708 14.238 13.3829 14.9403 12.851Z" fill="#202838"/>
<path d="M22.4688 6.28193C22.3223 6.42824 22.1237 6.51041 21.9167 6.51041C21.7097 6.51041 21.5111 6.42824 21.3646 6.28193L20.6146 5.53297V9.89652C20.6146 10.1037 20.5323 10.3024 20.3858 10.4489C20.2393 10.5955 20.0406 10.6778 19.8334 10.6778C19.6262 10.6778 19.4275 10.5955 19.2809 10.4489C19.1344 10.3024 19.0521 10.1037 19.0521 9.89652V5.53297L18.3021 6.28193C18.154 6.41993 17.9581 6.49506 17.7557 6.49149C17.5534 6.48792 17.3602 6.40593 17.2171 6.26279C17.074 6.11965 16.992 5.92654 16.9884 5.72414C16.9848 5.52175 17.06 5.32586 17.198 5.17777L19.2813 3.09443C19.2886 3.08714 19.298 3.08506 19.3053 3.07777C19.3712 3.01262 19.449 2.96065 19.5344 2.92464H19.5553C19.634 2.89683 19.7166 2.88103 19.8 2.87777C19.8275 2.87668 19.8549 2.87668 19.8823 2.87777C19.9471 2.88245 20.0111 2.89469 20.073 2.91422C20.0993 2.92256 20.1254 2.93193 20.1511 2.94235C20.2373 2.97844 20.3158 3.03078 20.3823 3.09652L22.4657 5.17985C22.6118 5.32583 22.6941 5.52372 22.6947 5.73025C22.6953 5.93677 22.614 6.13512 22.4688 6.28193Z" fill="#0076E2"/>
</svg>
