<svg width="25" height="25" viewBox="0 0 25 25" fill="none" xmlns="http://www.w3.org/2000/svg">
<path d="M15.6257 1.30078H9.37565C3.71732 1.30078 1.30273 3.71536 1.30273 9.3737V15.6237C1.30273 21.282 3.71732 23.6966 9.37565 23.6966H15.6257C21.284 23.6966 23.6986 21.282 23.6986 15.6237V9.3737C23.6986 3.71536 21.284 1.30078 15.6257 1.30078ZM9.37565 2.86328H15.6257C20.4319 2.86328 22.1361 4.56745 22.1361 9.3737V12.7591H18.9965C18.4642 12.7578 17.9422 12.9054 17.4894 13.1852C17.0365 13.465 16.671 13.8658 16.434 14.3424L15.5027 16.206C15.3956 16.423 15.2296 16.6056 15.0237 16.7329C14.8177 16.8601 14.5802 16.927 14.3382 16.9258H10.6632C10.419 16.9377 10.177 16.8752 9.96908 16.7467C9.76116 16.6182 9.5971 16.4297 9.49857 16.206L8.56732 14.3445C8.33025 13.8683 7.9648 13.4678 7.51219 13.1882C7.05959 12.9086 6.53785 12.7611 6.00586 12.7622H2.86523V9.3737C2.86523 4.56745 4.5694 2.86328 9.37565 2.86328ZM15.6257 22.1341H9.37565C4.5694 22.1341 2.86523 20.4299 2.86523 15.6237V14.3227H6.00482C6.24688 14.3215 6.48441 14.3883 6.69032 14.5156C6.89623 14.6428 7.06223 14.8254 7.1694 15.0424L8.10065 16.9029C8.32745 17.3874 8.69068 17.7953 9.14584 18.0766C9.60099 18.3578 10.1283 18.5002 10.6632 18.4862H14.3382C14.8704 18.4875 15.3925 18.3399 15.8453 18.0601C16.2981 17.7803 16.6637 17.3795 16.9007 16.9029L17.8319 15.0393C17.9391 14.8223 18.1051 14.6397 18.311 14.5124C18.5169 14.3852 18.7544 14.3183 18.9965 14.3195H22.1361V15.6237C22.1361 20.4299 20.4319 22.1341 15.6257 22.1341Z" fill="#202838"/>
<path d="M14.235 8.07031H10.7663C10.5591 8.07031 10.3604 7.988 10.2138 7.84149C10.0673 7.69498 9.98503 7.49626 9.98503 7.28906C9.98503 7.08186 10.0673 6.88315 10.2138 6.73664C10.3604 6.59012 10.5591 6.50781 10.7663 6.50781H14.235C14.4422 6.50781 14.6409 6.59012 14.7875 6.73664C14.934 6.88315 15.0163 7.08186 15.0163 7.28906C15.0163 7.49626 14.934 7.69498 14.7875 7.84149C14.6409 7.988 14.4422 8.07031 14.235 8.07031ZM15.8861 10.4141C15.8861 10.2069 15.8038 10.0081 15.6572 9.86164C15.5107 9.71512 15.312 9.63281 15.1048 9.63281H9.89648C9.68928 9.63281 9.49057 9.71512 9.34406 9.86164C9.19754 10.0081 9.11523 10.2069 9.11523 10.4141C9.11523 10.6213 9.19754 10.82 9.34406 10.9665C9.49057 11.113 9.68928 11.1953 9.89648 11.1953H15.1048C15.312 11.1953 15.5107 11.113 15.6572 10.9665C15.8038 10.82 15.8861 10.6213 15.8861 10.4141Z" fill="#0076E2"/>
</svg>
