<svg width="25" height="25" viewBox="0 0 25 25" fill="none" xmlns="http://www.w3.org/2000/svg">
<path d="M18.0906 13.2812C18.2792 13.9464 18.702 14.5209 19.281 14.8988C19.86 15.2767 20.5562 15.4324 21.241 15.3372C21.9258 15.242 22.5531 14.9024 23.0071 14.3809C23.4611 13.8594 23.7112 13.1913 23.7112 12.4999C23.7112 11.8085 23.4611 11.1404 23.0071 10.619C22.5531 10.0975 21.9258 9.75781 21.241 9.66262C20.5562 9.56743 19.86 9.72314 19.281 10.101C18.702 10.4789 18.2792 11.0535 18.0906 11.7187H12.2396V7.29159C12.2396 5.64888 12.9406 4.94784 14.5833 4.94784H18.0906C18.2792 5.61305 18.702 6.1876 19.281 6.56549C19.86 6.94337 20.5562 7.09909 21.241 7.0039C21.9258 6.90871 22.5531 6.56904 23.0071 6.04756C23.4611 5.52609 23.7112 4.85801 23.7112 4.16659C23.7112 3.47518 23.4611 2.80709 23.0071 2.28562C22.5531 1.76415 21.9258 1.42448 21.241 1.32929C20.5562 1.2341 19.86 1.38981 19.281 1.7677C18.702 2.14558 18.2792 2.72014 18.0906 3.38534H14.5833C14.0556 3.32417 13.5208 3.38313 13.019 3.55781C12.5173 3.73249 12.0615 4.01836 11.6858 4.39405C11.3101 4.76974 11.0242 5.22552 10.8495 5.72728C10.6749 6.22905 10.6159 6.76382 10.6771 7.29159V11.7187H6.25C6.0428 11.7187 5.84409 11.801 5.69757 11.9475C5.55106 12.094 5.46875 12.2927 5.46875 12.4999C5.46875 12.7071 5.55106 12.9058 5.69757 13.0524C5.84409 13.1989 6.0428 13.2812 6.25 13.2812H10.6771V17.7083C10.6159 18.236 10.6749 18.7708 10.8495 19.2726C11.0242 19.7743 11.3101 20.2301 11.6858 20.6058C12.0615 20.9815 12.5173 21.2674 13.019 21.442C13.5208 21.6167 14.0556 21.6757 14.5833 21.6145H18.0906C18.2792 22.2797 18.702 22.8543 19.281 23.2322C19.86 23.61 20.5562 23.7658 21.241 23.6706C21.9258 23.5754 22.5531 23.2357 23.0071 22.7142C23.4611 22.1928 23.7112 21.5247 23.7112 20.8333C23.7112 20.1418 23.4611 19.4738 23.0071 18.9523C22.5531 18.4308 21.9258 18.0911 21.241 17.996C20.5562 17.9008 19.86 18.0565 19.281 18.4344C18.702 18.8122 18.2792 19.3868 18.0906 20.052H14.5833C12.9406 20.052 12.2396 19.351 12.2396 17.7083V13.2812H18.0906ZM20.8333 11.1978C21.0909 11.1978 21.3426 11.2742 21.5567 11.4173C21.7709 11.5604 21.9377 11.7637 22.0363 12.0016C22.1349 12.2396 22.1606 12.5014 22.1104 12.7539C22.0602 13.0065 21.9361 13.2385 21.754 13.4206C21.5719 13.6027 21.3399 13.7267 21.0874 13.777C20.8348 13.8272 20.573 13.8014 20.335 13.7029C20.0971 13.6043 19.8938 13.4375 19.7507 13.2233C19.6076 13.0092 19.5312 12.7575 19.5312 12.4999C19.5312 12.1546 19.6684 11.8234 19.9126 11.5792C20.1568 11.335 20.488 11.1978 20.8333 11.1978ZM20.8333 2.86451C21.0909 2.86451 21.3426 2.94087 21.5567 3.08395C21.7709 3.22702 21.9377 3.43038 22.0363 3.66831C22.1349 3.90623 22.1606 4.16804 22.1104 4.42062C22.0602 4.6732 21.9361 4.9052 21.754 5.0873C21.5719 5.2694 21.3399 5.39341 21.0874 5.44366C20.8348 5.4939 20.573 5.46811 20.335 5.36956C20.0971 5.27101 19.8938 5.10412 19.7507 4.88999C19.6076 4.67586 19.5312 4.42412 19.5312 4.16659C19.5312 3.82126 19.6684 3.49007 19.9126 3.24588C20.1568 3.00169 20.488 2.86451 20.8333 2.86451ZM20.8333 19.5312C21.0909 19.5312 21.3426 19.6075 21.5567 19.7506C21.7709 19.8937 21.9377 20.097 22.0363 20.335C22.1349 20.5729 22.1606 20.8347 22.1104 21.0873C22.0602 21.3399 21.9361 21.5719 21.754 21.754C21.5719 21.9361 21.3399 22.0601 21.0874 22.1103C20.8348 22.1606 20.573 22.1348 20.335 22.0362C20.0971 21.9377 19.8938 21.7708 19.7507 21.5567C19.6076 21.3425 19.5312 21.0908 19.5312 20.8333C19.5312 20.4879 19.6684 20.1567 19.9126 19.9125C20.1568 19.6684 20.488 19.5312 20.8333 19.5312Z" fill="#202838"/>
<path d="M4.16665 9.63525C3.60009 9.63525 3.04625 9.80326 2.57517 10.118C2.10409 10.4328 1.73693 10.8802 1.52012 11.4036C1.3033 11.927 1.24658 12.503 1.35711 13.0587C1.46764 13.6144 1.74046 14.1248 2.14108 14.5254C2.5417 14.926 3.05212 15.1988 3.6078 15.3094C4.16347 15.4199 4.73944 15.3632 5.26288 15.1464C5.78631 14.9296 6.2337 14.5624 6.54846 14.0913C6.86323 13.6202 7.03123 13.0664 7.03123 12.4998C7.03123 11.7401 6.72943 11.0115 6.19221 10.4743C5.655 9.93706 4.92638 9.63525 4.16665 9.63525ZM4.16665 13.8019C3.90912 13.8019 3.65738 13.7256 3.44325 13.5825C3.22912 13.4394 3.06223 13.236 2.96368 12.9981C2.86513 12.7602 2.83934 12.4984 2.88958 12.2458C2.93982 11.9932 3.06384 11.7612 3.24594 11.5791C3.42804 11.397 3.66004 11.273 3.91262 11.2228C4.1652 11.1725 4.42701 11.1983 4.66493 11.2969C4.90286 11.3954 5.10622 11.5623 5.24929 11.7764C5.39237 11.9906 5.46873 12.2423 5.46873 12.4998C5.46873 12.8452 5.33155 13.1764 5.08736 13.4205C4.84317 13.6647 4.51198 13.8019 4.16665 13.8019Z" fill="#0076E2"/>
</svg>
