<svg width="25" height="25" viewBox="0 0 25 25" fill="none" xmlns="http://www.w3.org/2000/svg">
<path d="M17.7083 2.8645H7.29168C3.48543 2.8645 1.30209 5.052 1.30209 8.85409V16.1458C1.30209 19.952 3.48959 22.1353 7.29168 22.1353H17.7083C21.5146 22.1353 23.6979 19.9478 23.6979 16.1458V8.85409C23.6979 5.04784 21.5146 2.8645 17.7083 2.8645ZM22.1354 16.1458C22.1354 19.1239 20.6865 20.5728 17.7083 20.5728H7.29168C4.31355 20.5728 2.86459 19.1239 2.86459 16.1458V8.85409C2.86459 5.87492 4.31355 4.427 7.29168 4.427H17.7083C20.6865 4.427 22.1354 5.87492 22.1354 8.85409V16.1458Z" fill="#202838"/>
<path d="M12.5 13.4115C11.6171 13.4204 10.757 13.1308 10.0594 12.5896L6.80314 9.98542C6.72037 9.92222 6.65107 9.8431 6.59931 9.75272C6.54756 9.66233 6.5144 9.56252 6.50179 9.45914C6.48917 9.35575 6.49735 9.25089 6.52585 9.15072C6.55435 9.05055 6.60259 8.95708 6.66774 8.87582C6.73288 8.79457 6.81362 8.72715 6.9052 8.67755C6.99677 8.62795 7.09735 8.59716 7.201 8.58699C7.30465 8.57682 7.40929 8.58747 7.50876 8.61833C7.60823 8.64919 7.70053 8.69963 7.78023 8.76667L11.0365 11.3708C11.4619 11.68 11.9742 11.8465 12.5 11.8465C13.0259 11.8465 13.5382 11.68 13.9636 11.3708L17.2198 8.76667C17.2995 8.69963 17.3918 8.64919 17.4913 8.61833C17.5907 8.58747 17.6954 8.57682 17.799 8.58699C17.9027 8.59716 18.0033 8.62795 18.0948 8.67755C18.1864 8.72715 18.2672 8.79457 18.3323 8.87582C18.3974 8.95708 18.4457 9.05055 18.4742 9.15072C18.5027 9.25089 18.5109 9.35575 18.4983 9.45914C18.4856 9.56252 18.4525 9.66233 18.4007 9.75272C18.349 9.8431 18.2797 9.92222 18.1969 9.98542L14.9406 12.5896C14.243 13.1308 13.3829 13.4204 12.5 13.4115Z" fill="#0076E2"/>
</svg>
