<svg width="25" height="25" viewBox="0 0 25 25" fill="none" xmlns="http://www.w3.org/2000/svg">
<path d="M15.6257 1.30273H9.37565C3.71732 1.30273 1.30273 3.71732 1.30273 9.37565V15.6257C1.30273 21.284 3.71732 23.6986 9.37565 23.6986H15.6257C21.284 23.6986 23.6986 21.284 23.6986 15.6257V9.37565C23.6986 3.71732 21.284 1.30273 15.6257 1.30273ZM22.1361 15.6257C22.1361 20.4319 20.4319 22.1361 15.6257 22.1361H9.37565C4.5694 22.1361 2.86523 20.4319 2.86523 15.6257V9.37565C2.86523 4.5694 4.5694 2.86523 9.37565 2.86523H15.6257C20.4319 2.86523 22.1361 4.5694 22.1361 9.37565V15.6257Z" fill="#202838"/>
<path d="M10.5494 9.90204L7.95565 12.501L10.5494 15.1052C10.6918 15.2524 10.7706 15.4498 10.7689 15.6546C10.7673 15.8594 10.6852 16.0554 10.5404 16.2003C10.3956 16.3453 10.1997 16.4275 9.99487 16.4294C9.79002 16.4313 9.59264 16.3526 9.44523 16.2104L6.85044 13.6104C6.55719 13.3156 6.39258 12.9168 6.39258 12.501C6.39258 12.0852 6.55719 11.6864 6.85044 11.3916L9.44523 8.79683C9.51733 8.72225 9.60357 8.66277 9.6989 8.62187C9.79424 8.58098 9.89676 8.55947 10.0005 8.55862C10.1042 8.55777 10.2071 8.57758 10.3031 8.61691C10.3991 8.65624 10.4863 8.71429 10.5596 8.78768C10.6329 8.86106 10.6909 8.94832 10.7301 9.04435C10.7694 9.14038 10.7891 9.24326 10.7881 9.347C10.7872 9.45073 10.7656 9.55324 10.7246 9.64853C10.6836 9.74383 10.624 9.83001 10.5494 9.90204ZM18.1536 11.3916L15.5556 8.79683C15.4835 8.72225 15.3973 8.66277 15.302 8.62187C15.2066 8.58098 15.1041 8.55947 15.0004 8.55862C14.8966 8.55777 14.7938 8.57758 14.6978 8.61691C14.6018 8.65624 14.5146 8.71429 14.4413 8.78768C14.368 8.86106 14.31 8.94832 14.2707 9.04435C14.2315 9.14038 14.2118 9.24326 14.2127 9.347C14.2137 9.45073 14.2353 9.55324 14.2763 9.64853C14.3173 9.74383 14.3768 9.83001 14.4515 9.90204L17.0452 12.5062L14.4515 15.1052C14.3091 15.2524 14.2303 15.4498 14.2319 15.6546C14.2336 15.8594 14.3157 16.0554 14.4605 16.2003C14.6053 16.3453 14.8012 16.4275 15.006 16.4294C15.2108 16.4313 15.4082 16.3526 15.5556 16.2104L18.1504 13.6156C18.4453 13.3206 18.6109 12.9206 18.6109 12.5036C18.6109 12.0866 18.4453 11.6866 18.1504 11.3916H18.1536Z" fill="#0076E2"/>
</svg>
