<svg width="25" height="25" viewBox="0 0 25 25" fill="none" xmlns="http://www.w3.org/2000/svg">
<path d="M8.33301 16.4049C8.54021 16.4049 8.73892 16.4873 8.88544 16.6338C9.03195 16.7803 9.11426 16.979 9.11426 17.1862C9.11426 17.3934 9.03195 17.5921 8.88544 17.7386C8.73892 17.8851 8.54021 17.9674 8.33301 17.9674H6.24967C6.04247 17.9674 5.84376 17.8851 5.69725 17.7386C5.55073 17.5921 5.46842 17.3934 5.46842 17.1862C5.46842 16.979 5.55073 16.7803 5.69725 16.6338C5.84376 16.4873 6.04247 16.4049 6.24967 16.4049H8.33301ZM15.1038 16.4049H10.9372C10.73 16.4049 10.5313 16.4873 10.3847 16.6338C10.2382 16.7803 10.1559 16.979 10.1559 17.1862C10.1559 17.3934 10.2382 17.5921 10.3847 17.7386C10.5313 17.8851 10.73 17.9674 10.9372 17.9674H15.1038C15.311 17.9674 15.5098 17.8851 15.6563 17.7386C15.8028 17.5921 15.8851 17.3934 15.8851 17.1862C15.8851 16.979 15.8028 16.7803 15.6563 16.6338C15.5098 16.4873 15.311 16.4049 15.1038 16.4049ZM22.9163 13.8299C22.7091 13.8299 22.5104 13.9123 22.3639 14.0588C22.2174 14.2053 22.1351 14.404 22.1351 14.6112V16.7768C22.1351 20.006 21.5601 20.5716 18.2872 20.5716H6.71217C3.43717 20.5716 2.86426 19.9987 2.86426 16.7768V9.63412H15.1038C15.311 9.63412 15.5098 9.5518 15.6563 9.40529C15.8028 9.25878 15.8851 9.06007 15.8851 8.85287C15.8851 8.64566 15.8028 8.44695 15.6563 8.30044C15.5098 8.15392 15.311 8.07162 15.1038 8.07162H2.86634C2.88509 4.98099 3.49134 4.42578 6.71217 4.42578H15.1038C15.311 4.42578 15.5098 4.34347 15.6563 4.19696C15.8028 4.05045 15.8851 3.85173 15.8851 3.64453C15.8851 3.43733 15.8028 3.23862 15.6563 3.0921C15.5098 2.94559 15.311 2.86328 15.1038 2.86328H6.71217C2.56634 2.86328 1.30176 4.11328 1.30176 8.22057V16.7768C1.30176 20.882 2.56634 22.1341 6.71217 22.1341H18.2872C22.433 22.1341 23.6976 20.8841 23.6976 16.7768V14.6112C23.6976 14.404 23.6153 14.2053 23.4688 14.0588C23.3223 13.9123 23.1235 13.8299 22.9163 13.8299Z" fill="#202838"/>
<path d="M23.4688 6.27998C23.3223 6.42628 23.1237 6.50846 22.9167 6.50846C22.7097 6.50846 22.5111 6.42628 22.3646 6.27998L21.6146 5.53102V9.89456C21.6146 10.1018 21.5323 10.3005 21.3858 10.447C21.2393 10.5935 21.0406 10.6758 20.8334 10.6758C20.6262 10.6758 20.4275 10.5935 20.2809 10.447C20.1344 10.3005 20.0521 10.1018 20.0521 9.89456V5.53102L19.3021 6.27998C19.154 6.41798 18.9581 6.49311 18.7557 6.48954C18.5534 6.48597 18.3602 6.40397 18.2171 6.26084C18.074 6.1177 17.992 5.92459 17.9884 5.72219C17.9848 5.51979 18.06 5.32391 18.198 5.17581L20.2813 3.09248C20.2886 3.08519 20.298 3.0831 20.3053 3.07581C20.3712 3.01067 20.449 2.9587 20.5344 2.92269H20.5553C20.634 2.89488 20.7166 2.87908 20.8 2.87581C20.8275 2.87473 20.8549 2.87473 20.8823 2.87581C20.9471 2.8805 21.0111 2.89274 21.073 2.91227C21.0993 2.9206 21.1254 2.92998 21.1511 2.9404C21.2373 2.97648 21.3158 3.02882 21.3823 3.09456L23.4657 5.1779C23.6118 5.32388 23.6941 5.52177 23.6947 5.72829C23.6953 5.93482 23.614 6.13317 23.4688 6.27998Z" fill="#0076E2"/>
</svg>
