<svg width="25" height="25" viewBox="0 0 25 25" fill="none" xmlns="http://www.w3.org/2000/svg">
<g clip-path="url(#clip0_39_3470)">
<path d="M17.1921 0.00532587H8.33793C7.64545 -0.026714 6.95391 0.0860742 6.3075 0.336481C5.66109 0.586889 5.07403 0.969406 4.58385 1.45958C4.09367 1.94976 3.71116 2.53682 3.46075 3.18323C3.21034 3.82964 3.09755 4.52118 3.12959 5.21366V8.09908C3.13168 8.20747 3.15589 8.31429 3.20074 8.41299C3.24559 8.51169 3.31013 8.60018 3.39041 8.67305C3.47068 8.74591 3.565 8.8016 3.66757 8.83671C3.77014 8.87181 3.8788 8.88559 3.98689 8.8772C4.0973 8.86887 4.20876 8.85949 4.32751 8.85949H11.4004C11.7705 8.82961 12.1427 8.88051 12.4911 9.00867C12.8396 9.13682 13.1561 9.33918 13.4186 9.60172C13.6812 9.86426 13.8835 10.1807 14.0117 10.5292C14.1398 10.8777 14.1907 11.2498 14.1608 11.6199V15.8595C14.1638 16.1407 14.1287 16.421 14.0567 16.6928C14.0104 16.8528 14.0165 17.0234 14.074 17.1797C14.1316 17.3359 14.2375 17.4698 14.3765 17.5616L15.3786 18.223C15.6524 18.408 15.9751 18.5073 16.3056 18.5085C16.7481 18.5068 17.1718 18.33 17.4842 18.0166C17.7965 17.7033 17.972 17.279 17.9723 16.8366V15.6876C19.0933 15.571 20.142 15.0792 20.9483 14.2918C21.4287 13.7923 21.8046 13.2019 22.054 12.5553C22.3033 11.9087 22.4211 11.2189 22.4004 10.5262V5.21366C22.4325 4.52118 22.3197 3.82964 22.0693 3.18323C21.8189 2.53682 21.4363 1.94976 20.9462 1.45958C20.456 0.969406 19.8689 0.586889 19.2225 0.336481C18.5761 0.0860742 17.8846 -0.026714 17.1921 0.00532587ZM20.8379 10.5262C20.8599 11.0127 20.7836 11.4986 20.6135 11.955C20.4435 12.4114 20.1833 12.8288 19.8483 13.1824C19.495 13.5163 19.0781 13.7756 18.6225 13.9451C18.1669 14.1146 17.6819 14.1907 17.1963 14.1689C16.9891 14.1689 16.7903 14.2512 16.6438 14.3977C16.4973 14.5442 16.415 14.7429 16.415 14.9501V16.8387C16.4156 16.8587 16.4105 16.8785 16.4001 16.8957C16.3898 16.9129 16.3747 16.9267 16.3567 16.9355L15.6817 16.5512C15.7123 16.3219 15.7276 16.0908 15.7275 15.8595V11.6199C15.7542 11.0451 15.6607 10.4711 15.4529 9.93452C15.2451 9.39795 14.9276 8.91064 14.5207 8.50377C14.1139 8.0969 13.6266 7.77941 13.09 7.57161C12.5534 7.36382 11.9794 7.27028 11.4046 7.29699H4.69209V5.21366C4.65813 4.72613 4.72915 4.237 4.90036 3.77926C5.07157 3.32153 5.33899 2.90585 5.68455 2.56028C6.03012 2.21472 6.4458 1.94731 6.90353 1.7761C7.36127 1.60489 7.8504 1.53387 8.33793 1.56783H17.1921C17.6796 1.53387 18.1688 1.60489 18.6265 1.7761C19.0842 1.94731 19.4999 2.21472 19.8455 2.56028C20.191 2.90585 20.4584 3.32153 20.6297 3.77926C20.8009 4.237 20.8719 4.72613 20.8379 5.21366V10.5262Z" fill="#202838"/>
<path d="M11.4004 7.29694H4.32748C4.16707 7.29694 4.01498 7.30735 3.8379 7.3209C2.76348 7.39331 1.76027 7.88405 1.04358 8.68779C0.326901 9.49152 -0.046126 10.5442 0.00456566 11.6199V15.8594C-0.013285 16.4347 0.0844597 17.0076 0.292013 17.5444C0.499566 18.0812 0.812708 18.5709 1.2129 18.9844C1.84971 19.6024 2.66717 20.0009 3.54623 20.1219V20.9105C3.54568 21.1057 3.58363 21.2992 3.65791 21.4797C3.73218 21.6603 3.84132 21.8244 3.97909 21.9628C4.11686 22.1011 4.28055 22.211 4.4608 22.286C4.64105 22.361 4.83432 22.3998 5.02957 22.4001C5.32413 22.3999 5.61176 22.3106 5.85457 22.1438L8.80665 20.1824H11.4004C12.3401 20.2352 13.2688 19.9592 14.0272 19.4019C14.7856 18.8446 15.3264 18.0407 15.5567 17.1282C15.6713 16.7151 15.7274 16.2881 15.7233 15.8594V11.6199C15.75 11.0451 15.6565 10.471 15.4487 9.93447C15.2409 9.39789 14.9234 8.91059 14.5165 8.50372C14.1097 8.09684 13.6224 7.77936 13.0858 7.57156C12.5492 7.36376 11.9752 7.27023 11.4004 7.29694ZM14.1608 15.8594C14.1639 16.1504 14.1264 16.4403 14.0494 16.7209C13.9079 17.3019 13.5629 17.813 13.0769 18.1614C12.5909 18.5098 11.9961 18.6725 11.4004 18.6199H8.56707C8.41319 18.6201 8.2628 18.6657 8.13478 18.7511L5.11394 20.7646V19.4011C5.11394 19.1939 5.03163 18.9952 4.88512 18.8487C4.73861 18.7022 4.53989 18.6199 4.33269 18.6199C3.96539 18.6366 3.59843 18.5798 3.25337 18.4528C2.90832 18.3258 2.59211 18.1312 2.32332 17.8803C2.06994 17.6104 1.87299 17.2926 1.74403 16.9456C1.61506 16.5986 1.55667 16.2293 1.57227 15.8594V11.6199C1.543 11.2796 1.58295 10.937 1.68973 10.6126C1.79651 10.2883 1.96789 9.98889 2.19354 9.73258C2.41919 9.47627 2.69442 9.26833 3.00264 9.12131C3.31085 8.97428 3.64566 8.89123 3.98686 8.87715C4.09727 8.86881 4.20873 8.85944 4.32748 8.85944H11.4004C11.7705 8.82956 12.1426 8.88046 12.4911 9.00861C12.8396 9.13677 13.156 9.33912 13.4186 9.60167C13.6811 9.86421 13.8835 10.1807 14.0116 10.5291C14.1398 10.8776 14.1907 11.2498 14.1608 11.6199V15.8594Z" fill="#0076E2"/>
</g>
<defs>
<clipPath id="clip0_39_3470">
<rect width="25" height="25" fill="white"/>
</clipPath>
</defs>
</svg>
