<svg width="25" height="25" viewBox="0 0 25 25" fill="none" xmlns="http://www.w3.org/2000/svg">
<path d="M4.50846 9.40238L10.6543 12.1357C11.1565 12.3439 11.6962 12.4463 12.2397 12.4368C12.7836 12.4465 13.3236 12.344 13.8262 12.1357L19.9782 9.40238C21.5345 8.70967 21.7668 7.76384 21.7668 7.26072C21.7668 6.75759 21.5397 5.80655 19.9835 5.11801L13.8314 2.38467C12.8123 1.98278 11.6786 1.98278 10.6595 2.38467L4.51366 5.11801C2.95116 5.80655 2.71887 6.75759 2.71887 7.26488C2.71887 7.77217 2.95116 8.70967 4.50846 9.40238ZM5.14283 6.54717L11.2887 3.8128C11.9038 3.59165 12.5767 3.59165 13.1918 3.8128L19.3428 6.54717C19.9751 6.82738 20.2043 7.12738 20.2043 7.26072C20.2043 7.39405 19.9751 7.69301 19.3428 7.97426L13.1918 10.7076C12.5767 10.9287 11.9038 10.9287 11.2887 10.7076L5.14283 7.97426C4.51054 7.69301 4.28137 7.39405 4.28137 7.26072C4.28137 7.12738 4.51054 6.82738 5.14283 6.54717Z" fill="#0076E2"/>
<path d="M3 11.519C3 11.3118 3.07902 11.1131 3.21967 10.9666C3.36032 10.8201 3.55109 10.7378 3.75 10.7378C3.94891 10.7378 4.13968 10.8201 4.28033 10.9666C4.42098 11.1131 4.5 11.3118 4.5 11.519C4.52359 11.8359 4.62286 12.1416 4.78878 12.4083C4.9547 12.675 5.182 12.8943 5.45 13.0461L12.239 16.1888C12.3989 16.2629 12.572 16.3012 12.747 16.3012C12.922 16.3012 13.0951 16.2629 13.255 16.1888L20.05 13.0461C20.3186 12.8946 20.5465 12.6755 20.7129 12.4088C20.8794 12.1421 20.9791 11.8362 21.003 11.519C21.003 11.3118 21.082 11.1131 21.2227 10.9666C21.3633 10.8201 21.5541 10.7378 21.753 10.7378C21.9519 10.7378 22.1427 10.8201 22.2833 10.9666C22.424 11.1131 22.503 11.3118 22.503 11.519C22.4772 12.1383 22.2925 12.7391 21.9682 13.2588C21.6439 13.7785 21.1918 14.1982 20.659 14.4743L13.87 17.618C13.518 17.7796 13.1376 17.863 12.753 17.863C12.3684 17.863 11.988 17.7796 11.636 17.618L4.844 14.4743C4.31119 14.1982 3.85912 13.7785 3.53482 13.2588C3.21052 12.7391 3.02584 12.1383 3 11.519ZM22.5 16.7274C22.4993 17.3528 22.3248 17.9647 21.9976 18.4891C21.6704 19.0135 21.2044 19.428 20.656 19.6826L13.867 22.8263C13.515 22.9879 13.1346 23.0713 12.75 23.0713C12.3654 23.0713 11.985 22.9879 11.633 22.8263L4.844 19.6826C4.29558 19.428 3.82963 19.0135 3.50242 18.4891C3.1752 17.9647 3.00071 17.3528 3 16.7274C3 16.5202 3.07902 16.3215 3.21967 16.1749C3.36032 16.0284 3.55109 15.9461 3.75 15.9461C3.94891 15.9461 4.13968 16.0284 4.28033 16.1749C4.42098 16.3215 4.5 16.5202 4.5 16.7274C4.50048 17.0502 4.59037 17.3659 4.75888 17.6368C4.9274 17.9077 5.16737 18.1221 5.45 18.2545L12.239 21.3972C12.3989 21.4713 12.572 21.5095 12.747 21.5095C12.922 21.5095 13.0951 21.4713 13.255 21.3972L20.05 18.2545C20.3332 18.1226 20.5738 17.9083 20.7429 17.6374C20.9119 17.3665 21.0023 17.0505 21.003 16.7274C21.003 16.5202 21.082 16.3215 21.2227 16.1749C21.3633 16.0284 21.5541 15.9461 21.753 15.9461C21.9519 15.9461 22.1427 16.0284 22.2833 16.1749C22.424 16.3215 22.503 16.5202 22.503 16.7274H22.5Z" fill="#202838"/>
</svg>
