<svg width="25" height="25" viewBox="0 0 25 25" fill="none" xmlns="http://www.w3.org/2000/svg">
<path d="M16.6135 15.7604C16.5311 15.7904 16.4439 15.8052 16.3562 15.8042C16.1945 15.8044 16.0367 15.7544 15.9046 15.6611C15.7725 15.5678 15.6727 15.4358 15.6187 15.2833C15.4165 14.7021 15.0375 14.1988 14.5348 13.8439C14.0321 13.4889 13.431 13.3002 12.8156 13.3042L10.6719 13.3125C10.0466 13.3203 9.43274 13.1447 8.90625 12.8073V15C8.90625 15.2072 8.82394 15.4059 8.67743 15.5524C8.53091 15.6989 8.3322 15.7813 8.125 15.7813C7.9178 15.7813 7.71909 15.6989 7.57257 15.5524C7.42606 15.4059 7.34375 15.2072 7.34375 15V10.625C7.34375 10.4178 7.42606 10.2191 7.57257 10.0726C7.71909 9.92606 7.9178 9.84375 8.125 9.84375C8.15104 9.84375 8.17292 9.85625 8.19792 9.85833C8.3709 9.85412 8.54028 9.90824 8.67878 10.012C8.81728 10.1157 8.91685 10.263 8.96146 10.4302C9.05875 10.8061 9.27827 11.1389 9.58547 11.3763C9.89266 11.6137 10.2701 11.7423 10.6583 11.7417H10.6656L12.8094 11.7333H12.8271C13.7657 11.7329 14.6811 12.0246 15.4464 12.568C16.2117 13.1113 16.7889 13.8794 17.0979 14.7656C17.1316 14.8627 17.1458 14.9655 17.1396 15.0681C17.1335 15.1707 17.1072 15.2711 17.0622 15.3635C17.0172 15.456 16.9544 15.5386 16.8774 15.6067C16.8004 15.6748 16.7108 15.727 16.6135 15.7604Z" fill="#0076E2"/>
<path d="M8.2819 5.4694C7.72564 5.4694 7.18187 5.63435 6.71936 5.94339C6.25685 6.25243 5.89636 6.69169 5.68349 7.2056C5.47062 7.71952 5.41492 8.28502 5.52344 8.83059C5.63196 9.37616 5.89983 9.8773 6.29316 10.2706C6.6865 10.664 7.18764 10.9318 7.73321 11.0404C8.27878 11.1489 8.84428 11.0932 9.3582 10.8803C9.87212 10.6674 10.3114 10.307 10.6204 9.84444C10.9295 9.38193 11.0944 8.83816 11.0944 8.2819C11.0944 7.53598 10.7981 6.82061 10.2706 6.29316C9.74319 5.76572 9.02782 5.4694 8.2819 5.4694ZM8.2819 9.5319C8.03467 9.5319 7.793 9.45859 7.58744 9.32124C7.38188 9.18389 7.22166 8.98866 7.12705 8.76026C7.03244 8.53185 7.00769 8.28052 7.05592 8.03804C7.10415 7.79556 7.2232 7.57283 7.39802 7.39802C7.57283 7.2232 7.79556 7.10415 8.03804 7.05592C8.28052 7.00769 8.53185 7.03244 8.76026 7.12705C8.98866 7.22166 9.18389 7.38188 9.32124 7.58744C9.45859 7.793 9.5319 8.03467 9.5319 8.2819C9.5319 8.61342 9.40021 8.93136 9.16578 9.16578C8.93136 9.40021 8.61342 9.5319 8.2819 9.5319ZM8.12565 14.2194C7.6003 14.2194 7.08674 14.3752 6.64992 14.6671C6.2131 14.9589 5.87264 15.3738 5.6716 15.8591C5.47055 16.3445 5.41795 16.8786 5.52044 17.3939C5.62293 17.9091 5.87592 18.3824 6.2474 18.7539C6.61888 19.1254 7.09218 19.3784 7.60744 19.4809C8.1227 19.5834 8.65679 19.5308 9.14215 19.3297C9.62752 19.1287 10.0424 18.7882 10.3342 18.3514C10.6261 17.9146 10.7819 17.401 10.7819 16.8757C10.7811 16.1714 10.501 15.4963 10.003 14.9983C9.50503 14.5003 8.82988 14.2202 8.12565 14.2194ZM8.12565 17.9694C7.90933 17.9694 7.69786 17.9053 7.518 17.7851C7.33813 17.6649 7.19794 17.4941 7.11516 17.2942C7.03237 17.0944 7.01072 16.8744 7.05292 16.6623C7.09512 16.4501 7.19929 16.2552 7.35225 16.1023C7.50522 15.9493 7.7001 15.8451 7.91227 15.8029C8.12444 15.7607 8.34435 15.7824 8.54421 15.8652C8.74407 15.9479 8.91489 16.0881 9.03507 16.268C9.15525 16.4479 9.2194 16.6593 9.2194 16.8757C9.2194 17.1657 9.10417 17.4439 8.89905 17.6491C8.69393 17.8542 8.41573 17.9694 8.12565 17.9694ZM16.8757 14.2194C16.3503 14.2194 15.8367 14.3752 15.3999 14.6671C14.9631 14.9589 14.6226 15.3738 14.4216 15.8591C14.2206 16.3445 14.1679 16.8786 14.2704 17.3939C14.3729 17.9091 14.6259 18.3824 14.9974 18.7539C15.3689 19.1254 15.8422 19.3784 16.3574 19.4809C16.8727 19.5834 17.4068 19.5308 17.8922 19.3297C18.3775 19.1287 18.7924 18.7882 19.0842 18.3514C19.3761 17.9146 19.5319 17.401 19.5319 16.8757C19.5311 16.1714 19.251 15.4963 18.753 14.9983C18.255 14.5003 17.5799 14.2202 16.8757 14.2194ZM16.8757 17.9694C16.6593 17.9694 16.4479 17.9053 16.268 17.7851C16.0881 17.6649 15.9479 17.4941 15.8652 17.2942C15.7824 17.0944 15.7607 16.8744 15.8029 16.6623C15.8451 16.4501 15.9493 16.2552 16.1023 16.1023C16.2552 15.9493 16.4501 15.8451 16.6623 15.8029C16.8744 15.7607 17.0944 15.7824 17.2942 15.8652C17.4941 15.9479 17.6649 16.0881 17.7851 16.268C17.9053 16.4479 17.9694 16.6593 17.9694 16.8757C17.9694 17.1657 17.8542 17.4439 17.6491 17.6491C17.4439 17.8542 17.1657 17.9694 16.8757 17.9694ZM15.6257 1.30273H9.37565C3.71732 1.30273 1.30273 3.71732 1.30273 9.37565V15.6257C1.30273 21.284 3.71732 23.6986 9.37565 23.6986H15.6257C21.284 23.6986 23.6986 21.284 23.6986 15.6257V9.37565C23.6986 3.71732 21.284 1.30273 15.6257 1.30273ZM22.1361 15.6257C22.1361 20.4319 20.4319 22.1361 15.6257 22.1361H9.37565C4.5694 22.1361 2.86523 20.4319 2.86523 15.6257V9.37565C2.86523 4.5694 4.5694 2.86523 9.37565 2.86523H15.6257C20.4319 2.86523 22.1361 4.5694 22.1361 9.37565V15.6257Z" fill="#202838"/>
</svg>
