<svg width="25" height="25" viewBox="0 0 25 25" fill="none" xmlns="http://www.w3.org/2000/svg">
<path d="M21.6301 18.4943C20.4642 19.5567 18.9439 20.1459 17.3666 20.1464H17.3176C17.1061 20.1464 16.9026 20.0649 16.7496 19.9188C16.5966 19.7728 16.5056 19.5734 16.4957 19.362C16.4926 19.2594 16.5104 19.1573 16.5481 19.0618C16.5857 18.9663 16.6425 18.8795 16.7148 18.8067C16.7871 18.7339 16.8735 18.6766 16.9688 18.6383C17.064 18.5999 17.166 18.5815 17.2687 18.5839C18.4939 18.6023 19.6805 18.1556 20.5895 17.3339C21.2564 16.731 21.7335 15.9472 21.9628 15.0779C22.1922 14.2087 22.1638 13.2915 21.8812 12.4381C21.641 11.5768 21.1558 10.8038 20.4845 10.2132C19.8132 9.62252 18.9848 9.23961 18.0999 9.111C17.9331 9.08996 17.7775 9.01565 17.6562 8.89911C17.535 8.78256 17.4546 8.63001 17.427 8.46412C17.3314 7.3725 16.9209 6.33213 16.2452 5.46946C15.5694 4.6068 14.6577 3.95898 13.6207 3.60475C12.557 3.29177 11.428 3.27447 10.3551 3.5547C9.28226 3.83494 8.30599 4.40214 7.53116 5.19537C6.79351 6.01243 6.30931 7.02631 6.1375 8.11359C5.96569 9.20087 6.11367 10.3146 6.56345 11.3193C6.61119 11.4326 6.63009 11.5559 6.61846 11.6782C6.60682 11.8006 6.56501 11.9181 6.49677 12.0203C6.42853 12.1225 6.336 12.2062 6.22746 12.2638C6.11893 12.3215 5.99779 12.3513 5.87491 12.3506C5.85928 12.3506 5.84574 12.362 5.83011 12.3631C5.43281 12.3728 5.04136 12.4611 4.67844 12.6231C4.31552 12.7851 3.98833 13.0174 3.71582 13.3067C3.4433 13.596 3.23087 13.9364 3.09081 14.3084C2.95076 14.6803 2.88587 15.0763 2.89991 15.4735C2.88559 15.8708 2.95027 16.2671 3.0902 16.6393C3.23012 17.0114 3.44251 17.3521 3.71505 17.6416C3.9876 17.9311 4.31488 18.1637 4.67794 18.3258C5.041 18.4879 5.43263 18.5763 5.83011 18.586H7.77491C7.98211 18.586 8.18082 18.6683 8.32733 18.8148C8.47385 18.9613 8.55616 19.16 8.55616 19.3672C8.55616 19.5744 8.47385 19.7732 8.32733 19.9197C8.18082 20.0662 7.98211 20.1485 7.77491 20.1485H5.77074C4.56377 20.1139 3.41957 19.6029 2.5881 18.7274C1.75663 17.8518 1.30549 16.6827 1.33324 15.4756C1.31004 14.4367 1.64382 13.4212 2.27887 12.5987C2.91393 11.7761 3.81186 11.1963 4.82282 10.9558C4.46592 9.77711 4.4239 8.52552 4.70096 7.32556C4.97801 6.1256 5.56448 5.01911 6.40199 4.11621C7.37915 3.11568 8.61043 2.40027 9.96355 2.0468C11.3167 1.69333 12.7405 1.71516 14.0822 2.10996C15.3078 2.51356 16.4003 3.24334 17.2425 4.22095C18.0847 5.19856 18.6447 6.38708 18.8624 7.65892C19.9312 7.912 20.913 8.44596 21.7063 9.20558C22.4997 9.96521 23.0757 10.9229 23.3749 11.9797C23.7508 13.1175 23.7859 14.3403 23.4759 15.4977C23.1659 16.6552 22.5243 17.6968 21.6301 18.4943Z" fill="#202838"/>
<path d="M12.5016 11.2305C10.9135 11.2321 9.39101 11.8637 8.26811 12.9866C7.1452 14.1095 6.51363 15.632 6.51197 17.2201C6.50389 18.0736 6.69019 18.9179 7.05676 19.6888C7.15137 19.9 7.25994 20.1046 7.38176 20.3013C7.90846 21.188 8.65644 21.9227 9.55243 22.4334C10.4484 22.9441 11.4617 23.2133 12.493 23.2147C13.5243 23.216 14.5383 22.9495 15.4357 22.4412C16.333 21.9328 17.0829 21.2001 17.612 20.3148C17.732 20.121 17.8392 19.9196 17.9328 19.7117C18.3063 18.9364 18.497 18.0858 18.4901 17.2253C18.4898 15.6365 17.859 14.1128 16.7362 12.9888C15.6133 11.8648 14.0903 11.2324 12.5016 11.2305ZM16.5172 19.0482C16.4483 19.2036 16.3685 19.3539 16.2786 19.4982C15.8886 20.1544 15.3343 20.6976 14.6703 21.0743C14.0064 21.451 13.2557 21.6482 12.4923 21.6464C11.729 21.6446 10.9792 21.4439 10.3171 21.0641C9.65488 20.6843 9.10311 20.1385 8.71614 19.4805C8.62477 19.3333 8.54401 19.1798 8.47447 19.0211C8.20555 18.4576 8.06841 17.8403 8.07343 17.2159C8.07343 16.0417 8.53985 14.9157 9.37009 14.0855C10.2003 13.2552 11.3264 12.7888 12.5005 12.7888C13.6746 12.7888 14.8007 13.2552 15.6309 14.0855C16.4612 14.9157 16.9276 16.0417 16.9276 17.2159C16.9317 17.85 16.792 18.4767 16.5172 19.0482ZM14.6995 15.6638C14.7691 15.7392 14.8232 15.8275 14.8587 15.9238C14.8942 16.0201 14.9104 16.1224 14.9063 16.2249C14.9023 16.3275 14.878 16.4282 14.835 16.5214C14.792 16.6146 14.7311 16.6984 14.6557 16.768L12.4328 18.8201C12.2845 18.9569 12.089 19.031 11.8873 19.0269C11.6855 19.0229 11.4932 18.9409 11.3505 18.7982L10.3234 17.7721C10.1812 17.6247 10.1025 17.4273 10.1044 17.2225C10.1063 17.0177 10.1885 16.8217 10.3335 16.677C10.4784 16.5322 10.6744 16.4501 10.8792 16.4484C11.0841 16.4467 11.2814 16.5256 11.4286 16.668L11.9234 17.1628L13.5963 15.6201C13.7485 15.4797 13.9501 15.4055 14.157 15.4137C14.3638 15.4219 14.5589 15.5119 14.6995 15.6638Z" fill="#0076E2"/>
</svg>
