<svg width="25" height="25" viewBox="0 0 25 25" fill="none" xmlns="http://www.w3.org/2000/svg">
<path d="M17.9167 8.07292H21.6667C22.2051 8.07209 22.7213 7.85782 23.1021 7.47706C23.4828 7.09631 23.6971 6.58013 23.6979 6.04167V4.375C23.6971 3.83653 23.4828 3.32036 23.1021 2.9396C22.7213 2.55885 22.2051 2.34458 21.6667 2.34375H17.9167C17.3782 2.34458 16.862 2.55885 16.4813 2.9396C16.1005 3.32036 15.8862 3.83653 15.8854 4.375V4.42708H9.375C9.1678 4.42708 8.96909 4.50939 8.82257 4.65591C8.67606 4.80242 8.59375 5.00113 8.59375 5.20833C8.59375 5.41553 8.67606 5.61425 8.82257 5.76076C8.96909 5.90727 9.1678 5.98958 9.375 5.98958H12.2396V18.75C12.2396 19.5097 12.5414 20.2384 13.0786 20.7756C13.6158 21.3128 14.3444 21.6146 15.1042 21.6146H15.8854V21.6667C15.8862 22.2051 16.1005 22.7213 16.4813 23.1021C16.862 23.4828 17.3782 23.6971 17.9167 23.6979H21.6667C22.2051 23.6971 22.7213 23.4828 23.1021 23.1021C23.4828 22.7213 23.6971 22.2051 23.6979 21.6667V20C23.6971 19.4615 23.4828 18.9454 23.1021 18.5646C22.7213 18.1838 22.2051 17.9696 21.6667 17.9688H17.9167C17.3782 17.9696 16.862 18.1838 16.4813 18.5646C16.1005 18.9454 15.8862 19.4615 15.8854 20V20.0521H15.1042C14.7588 20.0521 14.4276 19.9149 14.1835 19.6707C13.9393 19.4265 13.8021 19.0953 13.8021 18.75V13.8021H15.8854V13.8542C15.8862 14.3926 16.1005 14.9088 16.4813 15.2896C16.862 15.6703 17.3782 15.8846 17.9167 15.8854H21.6667C22.2051 15.8846 22.7213 15.6703 23.1021 15.2896C23.4828 14.9088 23.6971 14.3926 23.6979 13.8542V12.1875C23.6971 11.649 23.4828 11.1329 23.1021 10.7521C22.7213 10.3713 22.2051 10.1571 21.6667 10.1563H17.9167C17.3782 10.1571 16.862 10.3713 16.4813 10.7521C16.1005 11.1329 15.8862 11.649 15.8854 12.1875V12.2396H13.8021V5.98958H15.8854V6.04167C15.8862 6.58013 16.1005 7.09631 16.4813 7.47706C16.862 7.85782 17.3782 8.07209 17.9167 8.07292ZM17.4479 20C17.4495 19.8762 17.4994 19.7579 17.587 19.6703C17.6746 19.5828 17.7929 19.5329 17.9167 19.5313H21.6667C21.7905 19.5329 21.9088 19.5828 21.9963 19.6703C22.0839 19.7579 22.1338 19.8762 22.1354 20V21.6667C22.1338 21.7905 22.0839 21.9088 21.9963 21.9963C21.9088 22.0839 21.7905 22.1338 21.6667 22.1354H17.9167C17.7929 22.1338 17.6746 22.0839 17.587 21.9963C17.4994 21.9088 17.4495 21.7905 17.4479 21.6667V20ZM17.4479 12.1875C17.4495 12.0637 17.4994 11.9454 17.587 11.8578C17.6746 11.7703 17.7929 11.7204 17.9167 11.7188H21.6667C21.7905 11.7204 21.9088 11.7703 21.9963 11.8578C22.0839 11.9454 22.1338 12.0637 22.1354 12.1875V13.8542C22.1338 13.978 22.0839 14.0963 21.9963 14.1838C21.9088 14.2714 21.7905 14.3213 21.6667 14.3229H17.9167C17.7929 14.3213 17.6746 14.2714 17.587 14.1838C17.4994 14.0963 17.4495 13.978 17.4479 13.8542V12.1875ZM17.4479 4.375C17.4495 4.25118 17.4994 4.13289 17.587 4.04533C17.6746 3.95777 17.7929 3.90787 17.9167 3.90625H21.6667C21.7905 3.90787 21.9088 3.95777 21.9963 4.04533C22.0839 4.13289 22.1338 4.25118 22.1354 4.375V6.04167C22.1338 6.16548 22.0839 6.28377 21.9963 6.37133C21.9088 6.45889 21.7905 6.5088 21.6667 6.51042H17.9167C17.7929 6.5088 17.6746 6.45889 17.587 6.37133C17.4994 6.28377 17.4495 6.16548 17.4479 6.04167V4.375Z" fill="#202838"/>
<path d="M7.29171 1.302H4.16671C3.40697 1.302 2.67835 1.60381 2.14114 2.14102C1.60393 2.67823 1.30212 3.40685 1.30212 4.16659V6.24992C1.30212 7.00965 1.60393 7.73827 2.14114 8.27549C2.67835 8.8127 3.40697 9.1145 4.16671 9.1145H7.29171C8.05144 9.1145 8.78006 8.8127 9.31727 8.27549C9.85449 7.73827 10.1563 7.00965 10.1563 6.24992V4.16659C10.1563 3.40685 9.85449 2.67823 9.31727 2.14102C8.78006 1.60381 8.05144 1.302 7.29171 1.302ZM8.59379 6.24992C8.59379 6.59525 8.45661 6.92644 8.21242 7.17063C7.96823 7.41482 7.63704 7.552 7.29171 7.552H4.16671C3.82137 7.552 3.49018 7.41482 3.246 7.17063C3.00181 6.92644 2.86462 6.59525 2.86462 6.24992V4.16659C2.86462 3.82125 3.00181 3.49006 3.246 3.24587C3.49018 3.00169 3.82137 2.8645 4.16671 2.8645H7.29171C7.63704 2.8645 7.96823 3.00169 8.21242 3.24587C8.45661 3.49006 8.59379 3.82125 8.59379 4.16659V6.24992Z" fill="#0076E2"/>
</svg>
