<svg width="25" height="25" viewBox="0 0 25 25" fill="none" xmlns="http://www.w3.org/2000/svg">
<path d="M7.29232 1.30078H5.20898C4.68121 1.23961 4.14644 1.29857 3.64467 1.47325C3.1429 1.64792 2.68713 1.9338 2.31144 2.30949C1.93575 2.68518 1.64988 3.14095 1.4752 3.64272C1.30052 4.14449 1.24156 4.67926 1.30273 5.20703V7.29036C1.24156 7.81813 1.30052 8.3529 1.4752 8.85467C1.64988 9.35644 1.93575 9.81221 2.31144 10.1879C2.68713 10.5636 3.1429 10.8495 3.64467 11.0241C4.14644 11.1988 4.68121 11.2578 5.20898 11.1966H7.29232C7.82009 11.2578 8.35486 11.1988 8.85662 11.0241C9.35839 10.8495 9.81417 10.5636 10.1899 10.1879C10.5655 9.81221 10.8514 9.35644 11.0261 8.85467C11.2008 8.3529 11.2597 7.81813 11.1986 7.29036V5.20703C11.2597 4.67926 11.2008 4.14449 11.0261 3.64272C10.8514 3.14095 10.5655 2.68518 10.1899 2.30949C9.81417 1.9338 9.35839 1.64792 8.85662 1.47325C8.35486 1.29857 7.82009 1.23961 7.29232 1.30078ZM9.63607 7.29036C9.63607 8.93307 8.93502 9.63411 7.29232 9.63411H5.20898C3.56627 9.63411 2.86523 8.93307 2.86523 7.29036V5.20703C2.86523 3.56432 3.56627 2.86328 5.20898 2.86328H7.29232C8.93502 2.86328 9.63607 3.56432 9.63607 5.20703V7.29036ZM19.7923 1.30078H17.709C17.1812 1.23961 16.6464 1.29857 16.1447 1.47325C15.6429 1.64792 15.1871 1.9338 14.8114 2.30949C14.4358 2.68518 14.1499 3.14095 13.9752 3.64272C13.8005 4.14449 13.7416 4.67926 13.8027 5.20703V7.29036C13.7416 7.81813 13.8005 8.3529 13.9752 8.85467C14.1499 9.35644 14.4358 9.81221 14.8114 10.1879C15.1871 10.5636 15.6429 10.8495 16.1447 11.0241C16.6464 11.1988 17.1812 11.2578 17.709 11.1966H19.7923C20.3201 11.2578 20.8549 11.1988 21.3566 11.0241C21.8584 10.8495 22.3142 10.5636 22.6899 10.1879C23.0655 9.81221 23.3514 9.35644 23.5261 8.85467C23.7008 8.3529 23.7597 7.81813 23.6986 7.29036V5.20703C23.7597 4.67926 23.7008 4.14449 23.5261 3.64272C23.3514 3.14095 23.0655 2.68518 22.6899 2.30949C22.3142 1.9338 21.8584 1.64792 21.3566 1.47325C20.8549 1.29857 20.3201 1.23961 19.7923 1.30078ZM22.1361 7.29036C22.1361 8.93307 21.435 9.63411 19.7923 9.63411H17.709C16.0663 9.63411 15.3652 8.93307 15.3652 7.29036V5.20703C15.3652 3.56432 16.0663 2.86328 17.709 2.86328H19.7923C21.435 2.86328 22.1361 3.56432 22.1361 5.20703V7.29036ZM19.7923 13.8008H17.709C17.1812 13.7396 16.6464 13.7986 16.1447 13.9732C15.6429 14.1479 15.1871 14.4338 14.8114 14.8095C14.4358 15.1852 14.1499 15.641 13.9752 16.1427C13.8005 16.6445 13.7416 17.1793 13.8027 17.707V19.7904C13.7416 20.3181 13.8005 20.8529 13.9752 21.3547C14.1499 21.8564 14.4358 22.3122 14.8114 22.6879C15.1871 23.0636 15.6429 23.3495 16.1447 23.5241C16.6464 23.6988 17.1812 23.7578 17.709 23.6966H19.7923C20.3201 23.7578 20.8549 23.6988 21.3566 23.5241C21.8584 23.3495 22.3142 23.0636 22.6899 22.6879C23.0655 22.3122 23.3514 21.8564 23.5261 21.3547C23.7008 20.8529 23.7597 20.3181 23.6986 19.7904V17.707C23.7597 17.1793 23.7008 16.6445 23.5261 16.1427C23.3514 15.641 23.0655 15.1852 22.6899 14.8095C22.3142 14.4338 21.8584 14.1479 21.3566 13.9732C20.8549 13.7986 20.3201 13.7396 19.7923 13.8008ZM22.1361 19.7904C22.1361 21.4331 21.435 22.1341 19.7923 22.1341H17.709C16.0663 22.1341 15.3652 21.4331 15.3652 19.7904V17.707C15.3652 16.0643 16.0663 15.3633 17.709 15.3633H19.7923C21.435 15.3633 22.1361 16.0643 22.1361 17.707V19.7904Z" fill="#202838"/>
<path d="M7.29231 13.8008H5.20898C4.68121 13.7396 4.14644 13.7986 3.64467 13.9732C3.1429 14.1479 2.68713 14.4338 2.31144 14.8095C1.93575 15.1852 1.64988 15.641 1.4752 16.1427C1.30052 16.6445 1.24156 17.1793 1.30273 17.707V19.7904C1.24156 20.3181 1.30052 20.8529 1.4752 21.3547C1.64988 21.8564 1.93575 22.3122 2.31144 22.6879C2.68713 23.0636 3.1429 23.3495 3.64467 23.5241C4.14644 23.6988 4.68121 23.7578 5.20898 23.6966H7.29231C7.82009 23.7578 8.35486 23.6988 8.85662 23.5241C9.35839 23.3495 9.81417 23.0636 10.1899 22.6879C10.5655 22.3122 10.8514 21.8564 11.0261 21.3547C11.2008 20.8529 11.2597 20.3181 11.1986 19.7904V17.707C11.2597 17.1793 11.2008 16.6445 11.0261 16.1427C10.8514 15.641 10.5655 15.1852 10.1899 14.8095C9.81417 14.4338 9.35839 14.1479 8.85662 13.9732C8.35486 13.7986 7.82009 13.7396 7.29231 13.8008ZM9.63606 19.7904C9.63606 21.4331 8.93502 22.1341 7.29231 22.1341H5.20898C3.56627 22.1341 2.86523 21.4331 2.86523 19.7904V17.707C2.86523 16.0643 3.56627 15.3633 5.20898 15.3633H7.29231C8.93502 15.3633 9.63606 16.0643 9.63606 17.707V19.7904Z" fill="#0076E2"/>
</svg>
