<svg width="25" height="25" viewBox="0 0 25 25" fill="none" xmlns="http://www.w3.org/2000/svg">
<path d="M19.549 3.54112L14.3458 1.59425C13.146 1.20556 11.854 1.20556 10.6542 1.59425L5.45104 3.54112C4.6809 3.86426 4.01904 4.4006 3.54332 5.08706C3.0676 5.77352 2.79779 6.58155 2.76562 7.41612V15.1557C2.8044 15.9672 3.01225 16.7616 3.37585 17.4881C3.73944 18.2145 4.25078 18.8571 4.87708 19.3745L9.35625 22.7192C10.2726 23.3739 11.3739 23.7191 12.5 23.7047C13.6274 23.7191 14.7299 23.3732 15.6469 22.7172L20.126 19.3724C20.7516 18.8557 21.2625 18.2141 21.626 17.4888C21.9896 16.7635 22.1979 15.9703 22.2375 15.1599V7.42029C22.2059 6.58465 21.9359 5.77548 21.4596 5.08818C20.9832 4.40087 20.3203 3.86409 19.549 3.54112ZM20.6719 15.1557C20.6334 15.7242 20.4823 16.2794 20.2275 16.789C19.9727 17.2986 19.6192 17.7526 19.1875 18.1245L14.7083 21.4682C14.0543 21.9071 13.2845 22.1414 12.4969 22.1414C11.7093 22.1414 10.9394 21.9071 10.2854 21.4682L5.8125 18.1245C5.38177 17.7535 5.02882 17.3009 4.77404 16.7928C4.51926 16.2847 4.3677 15.7311 4.32813 15.164V7.42029C4.3619 6.90519 4.53473 6.4089 4.82823 5.98425C5.12172 5.5596 5.52488 5.2225 5.99479 5.00883L11.1969 3.05779C12.0428 2.79905 12.9468 2.79905 13.7927 3.05779L19 5.00883C19.4709 5.22177 19.8751 5.55855 20.1696 5.98326C20.464 6.40796 20.6376 6.90464 20.6719 7.42029V15.1557Z" fill="#202838"/>
<path d="M12.4283 12.1564H12.5241C13.2503 12.1437 13.9421 11.8447 14.4489 11.3245C14.9557 10.8043 15.2366 10.1049 15.2302 9.37865C15.2239 8.65237 14.931 7.95799 14.4152 7.44666C13.8994 6.93533 13.2025 6.64844 12.4762 6.64844C11.7499 6.64844 11.053 6.93533 10.5372 7.44666C10.0214 7.95799 9.72843 8.65237 9.72211 9.37865C9.71579 10.1049 9.99661 10.8043 10.5034 11.3245C11.0103 11.8447 11.7021 12.1437 12.4283 12.1564ZM12.4283 8.4949C12.6997 8.49665 12.96 8.60325 13.1546 8.79241C13.3493 8.98158 13.4634 9.23867 13.4729 9.50995C13.4824 9.78123 13.3868 10.0457 13.2059 10.2481C13.025 10.4505 12.7729 10.5751 12.5022 10.5959C12.4632 10.5904 12.4235 10.5904 12.3845 10.5959C12.1122 10.5878 11.854 10.4733 11.6651 10.277C11.4763 10.0808 11.3718 9.81831 11.3741 9.54594C11.3752 9.26626 11.4873 8.99846 11.6857 8.80138C11.8842 8.6043 12.1527 8.49407 12.4324 8.4949H12.4283ZM15.0001 13.6449C14.2463 13.188 13.3816 12.9464 12.5001 12.9464C11.6186 12.9464 10.754 13.188 10.0001 13.6449C9.67669 13.8402 9.40709 14.113 9.21574 14.4388C9.02439 14.7646 8.91734 15.1329 8.9043 15.5105C8.91846 15.8862 9.02608 16.2524 9.21743 16.5759C9.40877 16.8995 9.67779 17.1702 10.0001 17.3636C10.7471 17.8367 11.616 18.0815 12.5001 18.0678C13.3843 18.0811 14.2532 17.8361 15.0001 17.3626C15.3236 17.1673 15.5932 16.8945 15.7845 16.5687C15.9759 16.2429 16.0829 15.8746 16.096 15.497C16.0816 15.1215 15.9739 14.7555 15.7826 14.4322C15.5913 14.1088 15.3223 13.8382 15.0001 13.6449ZM14.1314 16.0699C13.6344 16.3566 13.0707 16.5075 12.497 16.5075C11.9233 16.5075 11.3596 16.3566 10.8626 16.0699C10.7564 16.0147 10.6647 15.9351 10.595 15.8377C10.5253 15.7403 10.4796 15.6279 10.4616 15.5095C10.4791 15.3905 10.5246 15.2774 10.5943 15.1795C10.664 15.0815 10.756 15.0015 10.8626 14.9459C11.3605 14.6609 11.9243 14.5109 12.498 14.5109C13.0718 14.5109 13.6356 14.6609 14.1335 14.9459C14.2396 15.0011 14.3312 15.0805 14.4009 15.1777C14.4706 15.2748 14.5164 15.3871 14.5345 15.5053C14.5164 15.6235 14.4706 15.7358 14.4009 15.833C14.3312 15.9302 14.2396 16.0096 14.1335 16.0647L14.1314 16.0699Z" fill="#0076E2"/>
</svg>
