<svg width="25" height="25" viewBox="0 0 25 25" fill="none" xmlns="http://www.w3.org/2000/svg">
<path d="M19.549 3.54308L14.3458 1.5962C13.146 1.20752 11.854 1.20752 10.6542 1.5962L5.45104 3.54308C4.6809 3.86622 4.01904 4.40256 3.54332 5.08902C3.0676 5.77547 2.79779 6.58351 2.76562 7.41808V15.1577C2.8044 15.9691 3.01225 16.7635 3.37585 17.49C3.73944 18.2165 4.25078 18.859 4.87708 19.3764L9.35625 22.7212C10.2726 23.3758 11.3739 23.721 12.5 23.7066C13.6274 23.7211 14.7299 23.3751 15.6469 22.7191L20.126 19.3743C20.7516 18.8576 21.2625 18.2161 21.626 17.4908C21.9896 16.7654 22.1979 15.9722 22.2375 15.1618V7.42224C22.2059 6.5866 21.9359 5.77743 21.4596 5.09013C20.9832 4.40283 20.3203 3.86605 19.549 3.54308ZM20.6719 15.1577C20.6334 15.7261 20.4823 16.2813 20.2275 16.791C19.9727 17.3006 19.6192 17.7545 19.1875 18.1264L14.7083 21.4702C14.0543 21.909 13.2845 22.1434 12.4969 22.1434C11.7093 22.1434 10.9394 21.909 10.2854 21.4702L5.8125 18.1264C5.38177 17.7555 5.02882 17.3029 4.77404 16.7948C4.51926 16.2866 4.3677 15.733 4.32813 15.166V7.42224C4.3619 6.90715 4.53473 6.41085 4.82823 5.9862C5.12172 5.56155 5.52488 5.22445 5.99479 5.01078L11.1969 3.05974C12.0428 2.801 12.9468 2.801 13.7927 3.05974L19 5.01078C19.4709 5.22372 19.8751 5.56051 20.1696 5.98521C20.464 6.40991 20.6376 6.90659 20.6719 7.42224V15.1577Z" fill="#202838"/>
<path d="M12.4263 12.1603H12.5221C13.2483 12.1476 13.9401 11.8487 14.447 11.3284C14.9538 10.8082 15.2346 10.1088 15.2283 9.38255C15.222 8.65628 14.929 7.9619 14.4132 7.45057C13.8974 6.93924 13.2005 6.65234 12.4742 6.65234C11.7479 6.65234 11.051 6.93924 10.5352 7.45057C10.0194 7.9619 9.72647 8.65628 9.72016 9.38255C9.71384 10.1088 9.99466 10.8082 10.5015 11.3284C11.0083 11.8487 11.7001 12.1476 12.4263 12.1603ZM12.4263 8.4988C12.6977 8.50055 12.958 8.60715 13.1527 8.79632C13.3474 8.98548 13.4614 9.24257 13.4709 9.51385C13.4805 9.78513 13.3848 10.0496 13.2039 10.252C13.023 10.4544 12.7709 10.579 12.5003 10.5998C12.4612 10.5943 12.4216 10.5943 12.3826 10.5998C12.1103 10.5917 11.8521 10.4772 11.6632 10.2809C11.4743 10.0847 11.3698 9.82222 11.3721 9.54984C11.3732 9.27017 11.4853 9.00237 11.6838 8.80529C11.8822 8.60821 12.1508 8.49797 12.4305 8.4988H12.4263ZM14.9982 13.6488C14.2443 13.1919 13.3797 12.9503 12.4982 12.9503C11.6167 12.9503 10.752 13.1919 9.99818 13.6488C9.67474 13.8441 9.40513 14.1169 9.21378 14.4427C9.02243 14.7685 8.91539 15.1368 8.90234 15.5144C8.91651 15.8901 9.02413 16.2563 9.21547 16.5798C9.40682 16.9034 9.67583 17.1741 9.99818 17.3676C10.7452 17.8406 11.6141 18.0854 12.4982 18.0717C13.3824 18.0851 14.2513 17.84 14.9982 17.3665C15.3216 17.1712 15.5912 16.8984 15.7826 16.5726C15.9739 16.2468 16.081 15.8785 16.094 15.5009C16.0797 15.1254 15.972 14.7594 15.7806 14.4361C15.5893 14.1127 15.3204 13.8421 14.9982 13.6488ZM14.1294 16.0738C13.6324 16.3605 13.0688 16.5114 12.4951 16.5114C11.9213 16.5114 11.3577 16.3605 10.8607 16.0738C10.7544 16.0186 10.6627 15.939 10.593 15.8416C10.5233 15.7442 10.4776 15.6318 10.4596 15.5134C10.4772 15.3944 10.5227 15.2813 10.5924 15.1834C10.6621 15.0854 10.754 15.0054 10.8607 14.9498C11.3586 14.6648 11.9224 14.5148 12.4961 14.5148C13.0698 14.5148 13.6336 14.6648 14.1315 14.9498C14.2376 15.005 14.3293 15.0844 14.3989 15.1816C14.4686 15.2788 14.5144 15.391 14.5326 15.5092C14.5144 15.6274 14.4686 15.7397 14.3989 15.8369C14.3293 15.9341 14.2376 16.0135 14.1315 16.0686L14.1294 16.0738Z" fill="#0076E2"/>
</svg>
