<svg width="25" height="25" viewBox="0 0 25 25" fill="none" xmlns="http://www.w3.org/2000/svg">
<path d="M21.9073 3.06262C21.1973 2.42978 20.3679 1.94527 19.4679 1.63758C18.5679 1.3299 17.6155 1.20525 16.6667 1.27095H8.33334C3.73334 1.27095 1.30209 3.7022 1.30209 8.3022V13.5105C1.30209 16.2835 1.88334 18.0845 3.13126 19.1772C4.50626 20.3793 6.5323 20.5418 8.33334 20.5418H8.85418C8.93059 20.5603 9.00182 20.5959 9.06251 20.646L10.625 22.7293C10.8378 23.0307 11.1183 23.2781 11.4438 23.4518C11.7694 23.6254 12.1311 23.7205 12.5 23.7293C12.8689 23.7205 13.2306 23.6254 13.5562 23.4518C13.8818 23.2781 14.1622 23.0307 14.375 22.7293L15.9375 20.646C15.9618 20.6136 15.9932 20.5874 16.0294 20.5693C16.0655 20.5512 16.1054 20.5418 16.1458 20.5418H16.6667C21.2667 20.5418 23.6979 18.1105 23.6979 13.5105V8.3022C23.7636 7.3536 23.6391 6.40143 23.3316 5.50164C23.0241 4.60185 22.5398 3.77261 21.9073 3.06262ZM22.1354 13.5105C22.1354 17.2418 20.3979 18.9793 16.6667 18.9793H16.1458C15.863 18.9801 15.5842 19.0463 15.3312 19.1728C15.0782 19.2993 14.8579 19.4826 14.6875 19.7085L13.125 21.7918C13.0646 21.9051 12.9745 21.9998 12.8644 22.0658C12.7544 22.1319 12.6284 22.1668 12.5 22.1668C12.3716 22.1668 12.2457 22.1319 12.1356 22.0658C12.0255 21.9998 11.9354 21.9051 11.875 21.7918L10.3125 19.7085C10.1356 19.4898 9.91393 19.3116 9.66237 19.1858C9.41082 19.06 9.13523 18.9896 8.85418 18.9793H8.33334C6.19272 18.9793 4.9448 18.6866 4.16043 18.0012C3.27605 17.2272 2.86459 15.8001 2.86459 13.5105V8.3022C2.86459 4.57095 4.60209 2.83345 8.33334 2.83345H16.6667C17.4098 2.77271 18.1576 2.85921 18.8673 3.08801C19.5769 3.31681 20.2344 3.68341 20.8021 4.16679C21.2855 4.73448 21.6521 5.39199 21.8809 6.10162C22.1097 6.81126 22.1962 7.55907 22.1354 8.3022V13.5105Z" fill="#202838"/>
<path d="M12.5 12.4688C12.224 12.4681 11.9595 12.3579 11.7647 12.1624C11.5699 11.9668 11.4606 11.7019 11.461 11.4259C11.4613 11.1498 11.5712 10.8852 11.7665 10.6901C11.9618 10.4951 12.2266 10.3855 12.5026 10.3855C12.7787 10.3855 13.0434 10.4951 13.2387 10.6901C13.434 10.8852 13.5439 11.1498 13.5443 11.4259C13.5446 11.7019 13.4354 11.9668 13.2406 12.1624C13.0458 12.3579 12.7813 12.4681 12.5052 12.4688H12.5ZM17.7084 11.4272C17.7084 11.2211 17.6473 11.0197 17.5328 10.8484C17.4183 10.6771 17.2557 10.5436 17.0653 10.4648C16.875 10.3859 16.6655 10.3653 16.4635 10.4055C16.2614 10.4457 16.0758 10.5449 15.9301 10.6906C15.7844 10.8363 15.6852 11.0219 15.645 11.2239C15.6048 11.426 15.6255 11.6355 15.7043 11.8258C15.7832 12.0161 15.9167 12.1788 16.088 12.2933C16.2593 12.4077 16.4607 12.4688 16.6667 12.4688C16.943 12.4688 17.2079 12.3591 17.4033 12.1637C17.5986 11.9684 17.7084 11.7034 17.7084 11.4272ZM9.37502 11.4272C9.37502 11.2211 9.31393 11.0197 9.19947 10.8484C9.08501 10.6771 8.92232 10.5436 8.73198 10.4648C8.54164 10.3859 8.3322 10.3653 8.13014 10.4055C7.92807 10.4457 7.74246 10.5449 7.59678 10.6906C7.45111 10.8363 7.3519 11.0219 7.3117 11.2239C7.27151 11.426 7.29214 11.6355 7.37098 11.8258C7.44982 12.0161 7.58333 12.1788 7.75464 12.2933C7.92594 12.4077 8.12733 12.4688 8.33335 12.4688C8.60962 12.4688 8.87457 12.3591 9.06992 12.1637C9.26527 11.9684 9.37502 11.7034 9.37502 11.4272Z" fill="#0076E2"/>
</svg>
