<svg width="25" height="25" viewBox="0 0 25 25" fill="none" xmlns="http://www.w3.org/2000/svg">
<path d="M19.549 3.54105L14.3406 1.59C13.1414 1.20177 11.8503 1.20177 10.651 1.59L5.45104 3.54105C4.6809 3.86419 4.01904 4.40052 3.54332 5.08698C3.0676 5.77344 2.79779 6.58148 2.76562 7.41605V15.1556C2.8044 15.9671 3.01225 16.7615 3.37585 17.488C3.73944 18.2145 4.25078 18.857 4.87708 19.3744L9.35625 22.7192C10.2726 23.3738 11.3739 23.719 12.5 23.7046C13.6276 23.7195 14.7304 23.3731 15.6469 22.716L20.126 19.3723C20.7516 18.8556 21.2625 18.2141 21.626 17.4887C21.9896 16.7634 22.1979 15.9702 22.2375 15.1598V7.42021C22.2059 6.58457 21.9359 5.7754 21.4596 5.0881C20.9832 4.4008 20.3203 3.86402 19.549 3.54105ZM20.6719 15.1556C20.6334 15.7241 20.4823 16.2793 20.2275 16.7889C19.9727 17.2986 19.6192 17.7525 19.1875 18.1244L14.7083 21.4681C14.0538 21.9057 13.2842 22.1392 12.4969 22.1392C11.7096 22.1392 10.9399 21.9057 10.2854 21.4681L5.8125 18.1244C5.38177 17.7535 5.02882 17.3009 4.77404 16.7927C4.51926 16.2846 4.3677 15.731 4.32813 15.164V7.42021C4.36247 6.90445 4.53624 6.40769 4.83088 5.98298C5.12552 5.55827 5.52997 5.22154 6.00104 5.00875L11.2021 3.05771C12.0477 2.79918 12.9513 2.79918 13.7969 3.05771L18.999 5.00875C19.47 5.22154 19.8745 5.55827 20.1691 5.98298C20.4638 6.40769 20.6375 6.90445 20.6719 7.42021V15.1556Z" fill="#202838"/>
<path d="M16.1299 10.1226L11.6507 14.6018C11.5782 14.6744 11.492 14.732 11.3972 14.7713C11.3024 14.8106 11.2008 14.8308 11.0981 14.8308C10.9955 14.8308 10.8939 14.8106 10.7991 14.7713C10.7042 14.732 10.6181 14.6744 10.5455 14.6018L8.87158 12.9164C8.79693 12.8443 8.73737 12.7582 8.69638 12.6629C8.65539 12.5676 8.6338 12.4651 8.63285 12.3613C8.6319 12.2576 8.65161 12.1547 8.69085 12.0587C8.73009 11.9626 8.78806 11.8754 8.86137 11.802C8.93469 11.7286 9.02189 11.6706 9.11789 11.6312C9.21388 11.5919 9.31675 11.5721 9.42048 11.5729C9.52421 11.5738 9.62674 11.5953 9.72207 11.6362C9.81741 11.6771 9.90364 11.7366 9.97575 11.8112L11.1018 12.9372L15.0257 9.01428C15.0973 8.93752 15.1835 8.87596 15.2794 8.83326C15.3752 8.79056 15.4786 8.7676 15.5835 8.76575C15.6884 8.7639 15.7926 8.78319 15.8899 8.82249C15.9872 8.86178 16.0756 8.92026 16.1497 8.99445C16.2239 9.06863 16.2824 9.157 16.3217 9.25428C16.361 9.35156 16.3803 9.45576 16.3784 9.56066C16.3766 9.66556 16.3536 9.76901 16.3109 9.86484C16.2682 9.96067 16.2067 10.0469 16.1299 10.1184V10.1226Z" fill="#0076E2"/>
</svg>
