<svg width="25" height="25" viewBox="0 0 25 25" fill="none" xmlns="http://www.w3.org/2000/svg">
<path d="M21.2892 12.0723C21.1881 11.9999 21.0712 11.9526 20.9482 11.9345C20.8251 11.9164 20.6996 11.9279 20.5819 11.9681C20.2435 12.0809 19.8886 12.1369 19.5319 12.1337H16.8236C16.6693 12.1337 16.5186 12.1794 16.3902 12.265L13.5423 14.166V12.916C13.5423 12.7088 13.46 12.5101 13.3135 12.3636C13.167 12.2171 12.9683 12.1348 12.7611 12.1348C12.413 12.1513 12.0652 12.098 11.738 11.9782C11.4108 11.8583 11.1109 11.6743 10.8559 11.4368C10.6181 11.1818 10.4338 10.8817 10.3138 10.5543C10.1938 10.227 10.1404 9.87889 10.1569 9.5306V5.4681C10.1542 5.11164 10.2105 4.7572 10.3236 4.41914C10.3639 4.30148 10.3755 4.17589 10.3575 4.05283C10.3394 3.92977 10.2923 3.81279 10.22 3.71162C10.1476 3.61045 10.0522 3.52801 9.94157 3.47116C9.83095 3.41431 9.70836 3.38469 9.58398 3.38477H6.77148C3.29544 3.38477 1.30273 5.37852 1.30273 8.85352V14.4785C1.30273 17.9535 3.29544 19.9473 6.77148 19.9473H10.6777V22.1348H7.70898C7.50178 22.1348 7.30307 22.2171 7.15656 22.3636C7.01004 22.5101 6.92773 22.7088 6.92773 22.916C6.92773 23.1232 7.01004 23.3219 7.15656 23.4684C7.30307 23.615 7.50178 23.6973 7.70898 23.6973H15.209C15.4162 23.6973 15.6149 23.615 15.7614 23.4684C15.9079 23.3219 15.9902 23.1232 15.9902 22.916C15.9902 22.7088 15.9079 22.5101 15.7614 22.3636C15.6149 22.2171 15.4162 22.1348 15.209 22.1348H12.2402V19.9473H16.1465C19.6225 19.9473 21.6152 17.9535 21.6152 14.4785V12.7077C21.6153 12.5835 21.5858 12.461 21.5291 12.3505C21.4724 12.24 21.3901 12.1446 21.2892 12.0723ZM20.0527 14.4785C20.0527 17.1066 18.7746 18.3848 16.1465 18.3848H6.77148C4.14336 18.3848 2.86523 17.1066 2.86523 14.4785V8.85352C2.86523 6.22539 4.14336 4.94727 6.77148 4.94727H8.62044C8.60307 5.12033 8.59438 5.29416 8.5944 5.4681V9.5306C8.57947 10.0839 8.67382 10.6346 8.87204 11.1514C9.07027 11.6681 9.36849 12.1407 9.74961 12.5421C10.3588 13.1333 11.1395 13.5165 11.9798 13.6368V14.366C11.9801 14.6298 12.0518 14.8886 12.1875 15.1148C12.3232 15.341 12.5177 15.5262 12.7503 15.6506C12.9829 15.775 13.2449 15.834 13.5083 15.8213C13.7718 15.8087 14.0269 15.7247 14.2465 15.5785L17.059 13.7035H19.5319C19.7058 13.7035 19.8797 13.6948 20.0527 13.6775V14.4785Z" fill="#202838"/>
<path d="M16.0817 8.33358C15.9273 8.33317 15.7765 8.287 15.6483 8.20091C15.5201 8.11481 15.4203 7.99266 15.3614 7.84986C15.3026 7.70707 15.2875 7.55006 15.3178 7.39865C15.3482 7.24724 15.4228 7.10823 15.5321 6.99917C15.6415 6.89012 15.7807 6.81592 15.9322 6.78595C16.0837 6.75597 16.2406 6.77156 16.3833 6.83075C16.5259 6.88995 16.6478 6.99008 16.7336 7.11851C16.8193 7.24694 16.8651 7.39791 16.8651 7.55233C16.8651 7.65546 16.8447 7.75756 16.805 7.85276C16.7654 7.94795 16.7073 8.03435 16.634 8.10698C16.5608 8.17961 16.474 8.23703 16.3785 8.27592C16.283 8.31481 16.1807 8.33441 16.0776 8.33358H16.0817ZM19.7932 7.55233C19.7934 7.39761 19.7477 7.2463 19.6619 7.11754C19.5761 6.98878 19.4541 6.88835 19.3112 6.82895C19.1684 6.76955 19.0111 6.75385 18.8593 6.78383C18.7075 6.81381 18.568 6.88813 18.4585 6.99739C18.3489 7.10665 18.2742 7.24594 18.2439 7.39765C18.2135 7.54936 18.2287 7.70668 18.2878 7.8497C18.3468 7.99272 18.4469 8.11504 18.5754 8.20117C18.704 8.2873 18.8551 8.33338 19.0099 8.33358C19.1126 8.33386 19.2145 8.31385 19.3095 8.27471C19.4045 8.23558 19.4909 8.17807 19.5636 8.1055C19.6364 8.03293 19.6941 7.94671 19.7335 7.85179C19.7729 7.75687 19.7932 7.65511 19.7932 7.55233ZM13.9307 7.55233C13.9309 7.39761 13.8852 7.2463 13.7994 7.11754C13.7136 6.98878 13.5916 6.88835 13.4487 6.82895C13.3059 6.76955 13.1486 6.75385 12.9968 6.78383C12.845 6.81381 12.7055 6.88813 12.596 6.99739C12.4864 7.10665 12.4117 7.24594 12.3814 7.39765C12.351 7.54936 12.3662 7.70668 12.4253 7.8497C12.4843 7.99272 12.5844 8.11504 12.7129 8.20117C12.8415 8.2873 12.9926 8.33338 13.1474 8.33358C13.3546 8.33358 13.5533 8.25127 13.6998 8.10476C13.8463 7.95825 13.9286 7.75953 13.9286 7.55233H13.9307ZM14.2494 15.5732L17.0619 13.6982H19.5328C20.064 13.701 20.5921 13.6155 21.0953 13.445C21.8925 13.1595 22.5763 12.6245 23.0455 11.9195C23.5146 11.2146 23.7439 10.3771 23.6994 9.5315V5.469C23.7251 4.91501 23.6349 4.36176 23.4346 3.84462C23.2343 3.32748 22.9283 2.85782 22.5361 2.46567C22.144 2.07352 21.6743 1.76751 21.1572 1.56719C20.64 1.36688 20.0868 1.27667 19.5328 1.30233H12.7619C11.9149 1.25769 11.0761 1.48777 10.3704 1.95831C9.66467 2.42886 9.12976 3.11471 8.84528 3.91379C8.67673 4.41485 8.59225 4.94036 8.59528 5.469V9.5315C8.58035 10.0848 8.6747 10.6355 8.87292 11.1523C9.07115 11.669 9.36937 12.1416 9.75049 12.543C10.3597 13.1342 11.1404 13.5174 11.9807 13.6378V14.3669C11.9819 14.6283 12.0533 14.8845 12.1874 15.1088C12.3216 15.3331 12.5135 15.5172 12.7432 15.6419C12.9759 15.7693 13.2389 15.8308 13.504 15.8198C13.769 15.8088 14.026 15.7257 14.2474 15.5794L14.2494 15.5732ZM19.5328 2.86483C19.882 2.83651 20.2331 2.88443 20.5619 3.00529C20.8907 3.12614 21.1893 3.31703 21.437 3.56475C21.6847 3.81246 21.8756 4.11106 21.9965 4.43987C22.1174 4.76868 22.1653 5.11983 22.1369 5.469V9.5315C22.1772 10.0515 22.0473 10.5705 21.767 11.0103C21.4867 11.4501 21.0711 11.7869 20.5828 11.97C20.2443 12.0829 19.8895 12.1388 19.5328 12.1357H16.8244C16.6702 12.1357 16.5194 12.1814 16.3911 12.2669L13.5432 14.1669V12.9169C13.5432 12.7097 13.4609 12.511 13.3144 12.3645C13.1679 12.218 12.9691 12.1357 12.7619 12.1357C12.4139 12.1522 12.0661 12.0989 11.7389 11.9791C11.4117 11.8592 11.1118 11.6752 10.8567 11.4378C10.619 11.1827 10.4347 10.8826 10.3147 10.5552C10.1946 10.2279 10.1413 9.8798 10.1578 9.5315V5.469C10.1549 5.11516 10.2101 4.76325 10.3213 4.42733C10.5031 3.93708 10.8397 3.51939 11.28 3.23747C11.7204 2.95555 12.2406 2.82474 12.7619 2.86483H19.5328Z" fill="#0076E2"/>
</svg>
