<svg width="25" height="25" viewBox="0 0 25 25" fill="none" xmlns="http://www.w3.org/2000/svg">
<path d="M14.459 2.96289L14.7744 3.27148L15.1982 3.14551L17.8213 2.36035L18.666 4.96582L18.8027 5.38574L19.2363 5.4707L21.9238 5.99512L21.4619 8.69434L21.3867 9.12988L21.7314 9.40625L23.8672 11.1191L22.2041 13.2949L21.9355 13.6455L22.1123 14.0508L23.2061 16.5596L20.7227 17.7129L20.3223 17.8994L20.29 18.3398L20.0928 21.0713L17.3584 20.9375L16.917 20.916L16.6846 21.291L15.2402 23.6182L12.8809 22.2285L12.5 22.0049L12.1191 22.2285L9.75879 23.6182L8.31543 21.291L8.08301 20.916L7.6416 20.9375L4.90625 21.0713L4.70996 18.3398L4.67773 17.8994L4.27734 17.7129L1.79297 16.5596L2.8877 14.0508L3.06445 13.6455L2.7959 13.2949L1.13184 11.1191L3.26855 9.40625L3.61328 9.12988L3.53809 8.69434L3.0752 5.99512L5.76367 5.4707L6.19727 5.38574L6.33398 4.96582L7.17773 2.36035L9.80176 3.14551L10.2256 3.27148L10.541 2.96289L12.5 1.04785L14.459 2.96289Z" stroke="#202838" stroke-width="1.5"/>
<path d="M10.8782 15.9531L7.08984 12.398L8.03693 11.5093L10.8782 14.1756L16.9761 8.45312L17.9232 9.3419L10.8782 15.9531Z" fill="#0076E2"/>
</svg>
