<svg width="25" height="25" viewBox="0 0 25 25" fill="none" xmlns="http://www.w3.org/2000/svg">
<path d="M12.5007 13.2812C11.8311 13.2812 11.1765 13.4798 10.6198 13.8518C10.0631 14.2238 9.62917 14.7525 9.37294 15.3711C9.1167 15.9897 9.04966 16.6704 9.18029 17.3271C9.31091 17.9838 9.63334 18.5871 10.1068 19.0605C10.5803 19.534 11.1835 19.8564 11.8402 19.987C12.4969 20.1177 13.1776 20.0506 13.7962 19.7944C14.4148 19.5382 14.9435 19.1042 15.3155 18.5475C15.6875 17.9908 15.8861 17.3362 15.8861 16.6667C15.885 15.7691 15.5279 14.9087 14.8933 14.274C14.2586 13.6394 13.3982 13.2824 12.5007 13.2812ZM12.5007 18.4896C12.1401 18.4896 11.7877 18.3827 11.4879 18.1824C11.1881 17.9821 10.9545 17.6974 10.8165 17.3643C10.6785 17.0312 10.6424 16.6646 10.7128 16.311C10.7831 15.9574 10.9567 15.6326 11.2117 15.3777C11.4666 15.1227 11.7914 14.9491 12.145 14.8788C12.4986 14.8084 12.8652 14.8445 13.1983 14.9825C13.5313 15.1205 13.816 15.3541 14.0164 15.6539C14.2167 15.9537 14.3236 16.3061 14.3236 16.6667C14.3236 17.1501 14.1315 17.6138 13.7896 17.9557C13.4478 18.2975 12.9841 18.4896 12.5007 18.4896Z" fill="#0076E2"/>
<path d="M19.5319 9.73815V8.33398C19.5319 5.31315 18.8027 1.30273 12.5007 1.30273C6.19857 1.30273 5.4694 5.31315 5.4694 8.33398V9.73815C2.32773 10.1236 1.30273 11.7173 1.30273 15.6257V17.709C1.30273 22.2996 2.70273 23.6986 7.29232 23.6986H17.709C22.2986 23.6986 23.6986 22.2996 23.6986 17.709V15.6257C23.6986 11.7132 22.6736 10.1236 19.5319 9.73815ZM7.0319 8.33398C7.0319 5.05169 7.96211 2.86523 12.5007 2.86523C17.0392 2.86523 17.9694 5.05273 17.9694 8.33398V9.64128C17.8809 9.64128 17.7996 9.63607 17.709 9.63607H7.29232C7.20169 9.63607 7.12044 9.63607 7.0319 9.64128V8.33398ZM22.1361 17.709C22.1361 21.4329 21.4329 22.1361 17.709 22.1361H7.29232C3.56836 22.1361 2.86523 21.4329 2.86523 17.709V15.6257C2.86523 11.9017 3.56836 11.1986 7.29232 11.1986H17.709C21.4329 11.1986 22.1361 11.9017 22.1361 15.6257V17.709Z" fill="#202838"/>
</svg>
