<svg width="25" height="25" viewBox="0 0 25 25" fill="none" xmlns="http://www.w3.org/2000/svg">
<path d="M11.4582 13.7253C11.4582 14.0015 11.3485 14.2665 11.1531 14.4618C10.9578 14.6572 10.6928 14.7669 10.4165 14.7669C10.2105 14.7669 10.0091 14.7058 9.83782 14.5914C9.66652 14.4769 9.533 14.3142 9.45416 14.1239C9.37532 13.9336 9.35469 13.7241 9.39489 13.522C9.43508 13.32 9.53429 13.1344 9.67997 12.9887C9.82565 12.843 10.0113 12.7438 10.2133 12.7036C10.4154 12.6634 10.6248 12.684 10.8152 12.7629C11.0055 12.8417 11.1682 12.9752 11.2827 13.1465C11.3971 13.3178 11.4582 13.5192 11.4582 13.7253ZM13.7499 12.6836C13.4736 12.6836 13.2087 12.7933 13.0133 12.9887C12.818 13.184 12.7082 13.449 12.7082 13.7253C12.7082 14.0015 12.818 14.2665 13.0133 14.4618C13.2087 14.6572 13.4736 14.7669 13.7499 14.7669C14.0261 14.7669 14.2911 14.6572 14.4864 14.4618C14.6818 14.2665 14.7915 14.0015 14.7915 13.7253C14.7915 13.449 14.6818 13.184 14.4864 12.9887C14.2911 12.7933 14.0261 12.6836 13.7499 12.6836ZM7.09049 12.6836C6.81423 12.6836 6.54928 12.7933 6.35392 12.9887C6.15857 13.184 6.04883 13.449 6.04883 13.7253C6.04883 14.0015 6.15857 14.2665 6.35392 14.4618C6.54928 14.6572 6.81423 14.7669 7.09049 14.7669C7.36676 14.7669 7.63171 14.6572 7.82706 14.4618C8.02241 14.2665 8.13216 14.0015 8.13216 13.7253C8.13216 13.449 8.02241 13.184 7.82706 12.9887C7.63171 12.7933 7.36676 12.6836 7.09049 12.6836Z" fill="#0076E2"/>
<path d="M17.9167 1.28516H11.25C7.26875 1.28516 5.95833 3.49141 5.60625 5.57891C3.52292 5.93099 1.3125 7.24557 1.3125 11.2227V15.3893C1.3125 20.1956 3.51979 21.1602 7.08333 21.1602H7.46875C7.49375 21.1602 7.54271 21.1883 7.54167 21.1831L8.79167 22.8497C8.9708 23.1164 9.21276 23.3348 9.49623 23.4859C9.77971 23.6369 10.096 23.7159 10.4172 23.7159C10.7384 23.7159 11.0547 23.6369 11.3381 23.4859C11.6216 23.3348 11.8636 23.1164 12.0427 22.8497L13.3344 21.1612H13.751C17.7469 21.1612 19.0531 18.9404 19.3969 16.8674C21.4802 16.5154 23.6885 15.2008 23.6885 11.2247V7.05807C23.6875 3.27995 21.6927 1.28516 17.9167 1.28516ZM13.75 19.5966H13.3333C13.0827 19.5975 12.8357 19.6564 12.6117 19.7686C12.3876 19.8808 12.1925 20.0434 12.0417 20.2435L10.7917 21.9102C10.7574 21.9803 10.7042 22.0395 10.638 22.0808C10.5718 22.1222 10.4953 22.1441 10.4172 22.1441C10.3391 22.1441 10.2626 22.1222 10.1964 22.0808C10.1302 22.0395 10.0769 21.9803 10.0427 21.9102L8.79271 20.2435C8.63667 20.0488 8.44033 19.8902 8.21719 19.7785C7.99405 19.6668 7.74939 19.6048 7.5 19.5966H7.08333C3.97708 19.5966 2.875 18.9612 2.875 15.3883V11.2216C2.875 8.58099 3.98542 7.25599 6.4 7.0487C6.62678 7.02227 6.85505 7.01079 7.08333 7.01432H13.75C16.6604 7.01432 17.9583 8.31224 17.9583 11.2227V15.3893C17.9592 15.6284 17.9463 15.8673 17.9198 16.1049C17.7167 18.4872 16.3917 19.5966 13.75 19.5966ZM22.125 11.2227C22.125 13.5143 21.2917 14.8102 19.5208 15.2497V11.2227C19.5208 7.44662 17.526 5.45182 13.75 5.45182H7.22292C7.6625 3.68099 8.9625 2.84766 11.25 2.84766H17.9167C20.8271 2.84766 22.125 4.14557 22.125 7.05599V11.2227Z" fill="#202838"/>
</svg>
