<svg width="25" height="25" viewBox="0 0 25 25" fill="none" xmlns="http://www.w3.org/2000/svg">
<path d="M15.6247 1.30273H9.37467C3.71634 1.30273 1.30176 3.71732 1.30176 9.37565V15.6257C1.30176 21.284 3.71634 23.6986 9.37467 23.6986H15.6247C21.283 23.6986 23.6976 21.284 23.6976 15.6257V9.37565C23.6976 3.71732 21.283 1.30273 15.6247 1.30273ZM9.37467 2.86523H15.6247C20.4309 2.86523 22.1351 4.5694 22.1351 9.37565V12.7611H18.9955C18.4632 12.7598 17.9412 12.9074 17.4884 13.1872C17.0356 13.467 16.67 13.8678 16.433 14.3444L15.5018 16.2079C15.3946 16.425 15.2286 16.6076 15.0227 16.7348C14.8168 16.8621 14.5792 16.9289 14.3372 16.9277H10.6622C10.418 16.9396 10.176 16.8772 9.96811 16.7487C9.76019 16.6202 9.59613 16.4316 9.49759 16.2079L8.56634 14.3465C8.32928 13.8702 7.96382 13.4697 7.51122 13.1901C7.05861 12.9105 6.53688 12.763 6.00488 12.7642H2.86426V9.37565C2.86426 4.5694 4.56842 2.86523 9.37467 2.86523ZM15.6247 22.1361H9.37467C4.56842 22.1361 2.86426 20.4319 2.86426 15.6257V14.3246H6.00384C6.2459 14.3234 6.48343 14.3903 6.68934 14.5175C6.89525 14.6448 7.06126 14.8274 7.16843 15.0444L8.09968 16.9048C8.32648 17.3894 8.68971 17.7973 9.14486 18.0785C9.60002 18.3598 10.1273 18.5021 10.6622 18.4882H14.3372C14.8695 18.4894 15.3915 18.3418 15.8443 18.0621C16.2971 17.7823 16.6627 17.3814 16.8997 16.9048L17.8309 15.0413C17.9381 14.8242 18.1041 14.6417 18.31 14.5144C18.5159 14.3871 18.7534 14.3203 18.9955 14.3215H22.1351V15.6257C22.1351 20.4319 20.4309 22.1361 15.6247 22.1361Z" fill="#202838"/>
<path d="M15.4805 9.40498C15.334 9.55128 15.1355 9.63346 14.9284 9.63346C14.7214 9.63346 14.5228 9.55128 14.3763 9.40498L13.6263 8.65602V13.0196C13.6263 13.2268 13.544 13.4255 13.3975 13.572C13.251 13.7185 13.0523 13.8008 12.8451 13.8008C12.6379 13.8008 12.4392 13.7185 12.2927 13.572C12.1462 13.4255 12.0638 13.2268 12.0638 13.0196V8.65602L11.3138 9.40498C11.1657 9.54298 10.9699 9.61811 10.7675 9.61454C10.5651 9.61097 10.372 9.52897 10.2288 9.38584C10.0857 9.2427 10.0037 9.04959 10.0001 8.84719C9.99655 8.64479 10.0717 8.44891 10.2097 8.30081L12.293 6.21748C12.3003 6.21019 12.3097 6.2081 12.317 6.20081C12.3829 6.13567 12.4607 6.0837 12.5461 6.04769H12.567C12.6458 6.01988 12.7283 6.00408 12.8118 6.00081C12.8392 5.99973 12.8666 5.99973 12.8941 6.00081C12.9588 6.0055 13.0228 6.01774 13.0847 6.03727C13.1111 6.0456 13.1371 6.05498 13.1628 6.0654C13.2491 6.10148 13.3276 6.15382 13.3941 6.21956L15.4774 8.3029C15.6235 8.44888 15.7058 8.64677 15.7064 8.85329C15.707 9.05982 15.6258 9.25817 15.4805 9.40498Z" fill="#0076E2"/>
</svg>
