<svg width="25" height="25" viewBox="0 0 25 25" fill="none" xmlns="http://www.w3.org/2000/svg">
<path d="M7.29171 10.4027C7.49891 10.4027 7.69762 10.485 7.84414 10.6316C7.99065 10.7781 8.07296 10.9768 8.07296 11.184V14.5257C8.07296 14.7329 7.99065 14.9316 7.84414 15.0781C7.69762 15.2246 7.49891 15.3069 7.29171 15.3069C7.08451 15.3069 6.88579 15.2246 6.73928 15.0781C6.59277 14.9316 6.51046 14.7329 6.51046 14.5257V11.184C6.51046 10.9768 6.59277 10.7781 6.73928 10.6316C6.88579 10.485 7.08451 10.4027 7.29171 10.4027ZM11.7188 9.37565V16.334C11.7188 16.5412 11.8011 16.7399 11.9476 16.8864C12.0941 17.0329 12.2928 17.1152 12.5 17.1152C12.7072 17.1152 12.906 17.0329 13.0525 16.8864C13.199 16.7399 13.2813 16.5412 13.2813 16.334V9.37565C13.2813 9.16845 13.199 8.96974 13.0525 8.82323C12.906 8.67671 12.7072 8.5944 12.5 8.5944C12.2928 8.5944 12.0941 8.67671 11.9476 8.82323C11.8011 8.96974 11.7188 9.16845 11.7188 9.37565ZM17.7084 10.4027C17.5012 10.4027 17.3025 10.485 17.1559 10.6316C17.0094 10.7781 16.9271 10.9768 16.9271 11.184V14.5257C16.9271 14.7329 17.0094 14.9316 17.1559 15.0781C17.3025 15.2246 17.5012 15.3069 17.7084 15.3069C17.9156 15.3069 18.1143 15.2246 18.2608 15.0781C18.4073 14.9316 18.4896 14.7329 18.4896 14.5257V11.184C18.4896 10.9768 18.4073 10.7781 18.2608 10.6316C18.1143 10.485 17.9156 10.4027 17.7084 10.4027ZM15.625 1.30273H9.37504C3.71567 1.30273 1.30212 3.71732 1.30212 9.37565V15.6257C1.30212 21.284 3.71567 23.6986 9.37504 23.6986H13.5417C13.7489 23.6986 13.9476 23.6163 14.0941 23.4697C14.2406 23.3232 14.323 23.1245 14.323 22.9173C14.323 22.7101 14.2406 22.5114 14.0941 22.3649C13.9476 22.2184 13.7489 22.1361 13.5417 22.1361H9.37504C4.56879 22.1361 2.86462 20.4319 2.86462 15.6257V9.37565C2.86462 4.5694 4.56879 2.86523 9.37504 2.86523H15.625C20.4313 2.86523 22.1355 4.5694 22.1355 9.37565V13.5423C22.1355 13.7495 22.2178 13.9482 22.3643 14.0947C22.5108 14.2413 22.7095 14.3236 22.9167 14.3236C23.1239 14.3236 23.3226 14.2413 23.4691 14.0947C23.6157 13.9482 23.698 13.7495 23.698 13.5423V9.37565C23.698 3.71732 21.2844 1.30273 15.625 1.30273Z" fill="#202838"/>
<path d="M22.4688 18.2164L18.9052 22.383C18.8354 22.465 18.7494 22.5316 18.6526 22.5788C18.5558 22.6259 18.4503 22.6526 18.3427 22.657H18.3115C18.1054 22.6568 17.9077 22.5752 17.7615 22.4299L16.1167 20.7976C15.9736 20.6509 15.8939 20.4539 15.8948 20.2489C15.8956 20.044 15.977 19.8476 16.1213 19.7021C16.2655 19.5566 16.4612 19.4736 16.6661 19.471C16.871 19.4684 17.0688 19.5464 17.2167 19.6882L18.2646 20.7299L21.2854 17.2028C21.4218 17.0519 21.6117 16.9601 21.8148 16.9469C22.0178 16.9338 22.2179 17.0004 22.3726 17.1326C22.5273 17.2647 22.6243 17.452 22.6431 17.6546C22.6618 17.8572 22.6008 18.0591 22.4729 18.2174L22.4688 18.2164Z" fill="#0076E2"/>
</svg>
