<svg width="25" height="25" viewBox="0 0 25 25" fill="none" xmlns="http://www.w3.org/2000/svg">
<path d="M20.573 6.25065V12.5007C20.573 12.7079 20.4906 12.9066 20.3441 13.0531C20.1976 13.1996 19.9989 13.2819 19.7917 13.2819C19.5845 13.2819 19.3858 13.1996 19.2393 13.0531C19.0928 12.9066 19.0105 12.7079 19.0105 12.5007V6.25065C19.0105 3.92669 19.0105 2.86523 15.625 2.86523H9.37504C5.98962 2.86523 5.98962 3.92669 5.98962 6.25065V12.5007C5.98962 12.7079 5.90731 12.9066 5.7608 13.0531C5.61429 13.1996 5.41557 13.2819 5.20837 13.2819C5.00117 13.2819 4.80246 13.1996 4.65595 13.0531C4.50943 12.9066 4.42712 12.7079 4.42712 12.5007V6.25065C4.42712 3.93086 4.42712 1.30273 9.37504 1.30273H15.625C20.573 1.30273 20.573 3.93086 20.573 6.25065Z" fill="#0076E2"/>
<path d="M17.7083 11.7186C16.8548 11.6584 16.0122 11.9393 15.3656 12.4999C15.329 12.5274 15.2942 12.5573 15.2615 12.5895L14.2042 13.7134C13.9812 13.9399 13.7155 14.1197 13.4224 14.2424C13.1292 14.3652 12.8146 14.4284 12.4969 14.4284C12.1791 14.4284 11.8645 14.3652 11.5714 14.2424C11.2783 14.1197 11.0125 13.9399 10.7896 13.7134L9.73542 12.5895C9.7027 12.5573 9.66791 12.5274 9.63125 12.4999C8.98549 11.9401 8.14418 11.6592 7.29167 11.7186C2.34375 11.7186 2.34375 14.3467 2.34375 16.6665V17.7082C2.34375 20.5207 2.34375 23.6978 8.33333 23.6978H16.6667C20.6406 23.6978 22.6562 21.6822 22.6562 17.7082V16.6665C22.6562 14.3467 22.6562 11.7186 17.7083 11.7186ZM21.0938 17.7082C21.0938 20.8113 19.7698 22.1353 16.6667 22.1353H8.33333C3.90625 22.1353 3.90625 20.5624 3.90625 17.7082V16.6665C3.90625 14.3426 3.90625 13.2811 7.29167 13.2811C7.53501 13.2499 7.78224 13.2721 8.01611 13.3463C8.24998 13.4204 8.46488 13.5446 8.64583 13.7103L9.65833 14.7842C10.0235 15.1721 10.4642 15.4811 10.9533 15.6923C11.4423 15.9035 11.9694 16.0125 12.5021 16.0125C13.0348 16.0125 13.5619 15.9035 14.0509 15.6923C14.5399 15.4811 14.9806 15.1721 15.3458 14.7842L16.3583 13.7103C16.5388 13.5452 16.753 13.4213 16.9861 13.3472C17.2192 13.2731 17.4657 13.2505 17.7083 13.2811C21.0938 13.2811 21.0938 14.3426 21.0938 16.6665V17.7082ZM14.4625 8.83008C14.6697 8.83008 14.8684 8.91239 15.0149 9.0589C15.1614 9.20541 15.2437 9.40413 15.2437 9.61133C15.2437 9.81853 15.1614 10.0172 15.0149 10.1638C14.8684 10.3103 14.6697 10.3926 14.4625 10.3926H10.9937C10.7865 10.3926 10.5878 10.3103 10.4413 10.1638C10.2948 10.0172 10.2125 9.81853 10.2125 9.61133C10.2125 9.40413 10.2948 9.20541 10.4413 9.0589C10.5878 8.91239 10.7865 8.83008 10.9937 8.83008H14.4625ZM9.34792 6.48633C9.34792 6.27913 9.43023 6.08041 9.57674 5.9339C9.72325 5.78739 9.92197 5.70508 10.1292 5.70508H15.3375C15.5447 5.70508 15.7434 5.78739 15.8899 5.9339C16.0364 6.08041 16.1187 6.27913 16.1187 6.48633C16.1187 6.69353 16.0364 6.89224 15.8899 7.03875C15.7434 7.18527 15.5447 7.26758 15.3375 7.26758H10.1292C9.92197 7.26758 9.72325 7.18527 9.57674 7.03875C9.43023 6.89224 9.34792 6.69353 9.34792 6.48633Z" fill="#202838"/>
</svg>
