<svg width="25" height="25" viewBox="0 0 25 25" fill="none" xmlns="http://www.w3.org/2000/svg">
<path d="M23.6979 13.543C23.6979 13.7502 23.6156 13.9489 23.4691 14.0954C23.3226 14.2419 23.1238 14.3242 22.9166 14.3242H2.08331C1.87611 14.3242 1.6774 14.2419 1.53089 14.0954C1.38437 13.9489 1.30206 13.7502 1.30206 13.543C1.30206 13.3358 1.38437 13.1371 1.53089 12.9905C1.6774 12.844 1.87611 12.7617 2.08331 12.7617H22.9166C23.1238 12.7617 23.3226 12.844 23.4691 12.9905C23.6156 13.1371 23.6979 13.3358 23.6979 13.543Z" fill="#0076E2"/>
<path d="M18.2875 1.30273H6.71248C2.56665 1.30273 1.30206 2.56732 1.30206 6.71315V13.3111C1.30206 17.4569 2.56665 18.7215 6.71248 18.7215H11.7187V22.1361H7.81248C7.60528 22.1361 7.40657 22.2184 7.26005 22.3649C7.11354 22.5114 7.03123 22.7101 7.03123 22.9173C7.03123 23.1245 7.11354 23.3232 7.26005 23.4697C7.40657 23.6163 7.60528 23.6986 7.81248 23.6986H17.1875C17.3947 23.6986 17.5934 23.6163 17.7399 23.4697C17.8864 23.3232 17.9687 23.1245 17.9687 22.9173C17.9687 22.7101 17.8864 22.5114 17.7399 22.3649C17.5934 22.2184 17.3947 22.1361 17.1875 22.1361H13.2812V18.7215H18.2875C22.4333 18.7215 23.6979 17.4569 23.6979 13.3111V6.71315C23.6979 2.56732 22.4333 1.30273 18.2875 1.30273ZM22.1354 13.3111C22.1354 16.584 21.5594 17.159 18.2875 17.159H6.71248C3.4406 17.159 2.86456 16.584 2.86456 13.3111V6.71315C2.86456 3.43815 3.43748 2.86523 6.71248 2.86523H18.2875C21.5594 2.86523 22.1354 3.44023 22.1354 6.71315V13.3111Z" fill="#202838"/>
</svg>
