<svg width="25" height="25" viewBox="0 0 25 25" fill="none" xmlns="http://www.w3.org/2000/svg">
<path d="M8.88546 9.61454L7.35525 11.1458L8.88546 12.677C8.96222 12.7486 9.02378 12.8348 9.06648 12.9306C9.10918 13.0265 9.13214 13.1299 9.134 13.2348C9.13585 13.3397 9.11655 13.4439 9.07726 13.5412C9.03796 13.6385 8.97948 13.7269 8.90529 13.801C8.83111 13.8752 8.74274 13.9337 8.64546 13.973C8.54818 14.0123 8.44398 14.0316 8.33908 14.0297C8.23419 14.0279 8.13073 14.0049 8.0349 13.9622C7.93907 13.9195 7.85282 13.858 7.78129 13.7812L5.69796 11.6979C5.55166 11.5514 5.46948 11.3528 5.46948 11.1458C5.46948 10.9388 5.55166 10.7402 5.69796 10.5937L7.78129 8.51037C7.85282 8.43362 7.93907 8.37205 8.0349 8.32935C8.13073 8.28665 8.23419 8.26369 8.33908 8.26184C8.44398 8.25999 8.54818 8.27929 8.64546 8.31858C8.74274 8.35787 8.83111 8.41636 8.90529 8.49054C8.97948 8.56473 9.03796 8.6531 9.07726 8.75038C9.11655 8.84765 9.13585 8.95185 9.134 9.05675C9.13214 9.16165 9.10918 9.2651 9.06648 9.36093C9.02378 9.45677 8.96222 9.54302 8.88546 9.61454ZM19.3021 10.5937L17.2188 8.51037C17.1473 8.43362 17.061 8.37205 16.9652 8.32935C16.8694 8.28665 16.7659 8.26369 16.661 8.26184C16.5561 8.25999 16.4519 8.27929 16.3546 8.31858C16.2574 8.35787 16.169 8.41636 16.0948 8.49054C16.0206 8.56473 15.9621 8.6531 15.9228 8.75038C15.8835 8.84765 15.8642 8.95185 15.8661 9.05675C15.8679 9.16165 15.8909 9.2651 15.9336 9.36093C15.9763 9.45677 16.0379 9.54302 16.1146 9.61454L17.6448 11.1458L16.1146 12.677C16.0379 12.7486 15.9763 12.8348 15.9336 12.9306C15.8909 13.0265 15.8679 13.1299 15.8661 13.2348C15.8642 13.3397 15.8835 13.4439 15.9228 13.5412C15.9621 13.6385 16.0206 13.7269 16.0948 13.801C16.169 13.8752 16.2574 13.9337 16.3546 13.973C16.4519 14.0123 16.5561 14.0316 16.661 14.0297C16.7659 14.0279 16.8694 14.0049 16.9652 13.9622C17.061 13.9195 17.1473 13.858 17.2188 13.7812L19.3021 11.6979C19.4484 11.5514 19.5306 11.3528 19.5306 11.1458C19.5306 10.9388 19.4484 10.7402 19.3021 10.5937Z" fill="#0076E2"/>
<path d="M21.9073 3.06262C21.1973 2.42978 20.3679 1.94527 19.4679 1.63758C18.568 1.3299 17.6156 1.20525 16.6667 1.27095H8.33337C3.73337 1.27095 1.30212 3.7022 1.30212 8.3022V13.5105C1.30212 16.2835 1.88337 18.0845 3.13129 19.1772C4.50629 20.3793 6.53233 20.5418 8.33337 20.5418H8.85421C8.93062 20.5603 9.00185 20.5959 9.06254 20.646L10.625 22.7293C10.8379 23.0307 11.1183 23.2781 11.4439 23.4518C11.7695 23.6254 12.1312 23.7205 12.5 23.7293C12.8689 23.7205 13.2306 23.6254 13.5562 23.4518C13.8818 23.2781 14.1622 23.0307 14.375 22.7293L15.9375 20.646C15.9618 20.6136 15.9933 20.5874 16.0294 20.5693C16.0656 20.5512 16.1054 20.5418 16.1459 20.5418H16.6667C21.2667 20.5418 23.698 18.1105 23.698 13.5105V8.3022C23.7637 7.3536 23.6391 6.40143 23.3316 5.50164C23.0241 4.60185 22.5399 3.77261 21.9073 3.06262ZM22.1355 13.5105C22.1355 17.2418 20.398 18.9793 16.6667 18.9793H16.1459C15.863 18.9801 15.5842 19.0463 15.3312 19.1728C15.0782 19.2993 14.8579 19.4826 14.6875 19.7085L13.125 21.7918C13.0646 21.9051 12.9746 21.9998 12.8645 22.0658C12.7544 22.1319 12.6284 22.1668 12.5 22.1668C12.3717 22.1668 12.2457 22.1319 12.1356 22.0658C12.0255 21.9998 11.9355 21.9051 11.875 21.7918L10.3125 19.7085C10.1356 19.4898 9.91396 19.3116 9.66241 19.1858C9.41085 19.06 9.13527 18.9896 8.85421 18.9793H8.33337C6.19275 18.9793 4.94483 18.6866 4.16046 18.0012C3.27608 17.2272 2.86462 15.8001 2.86462 13.5105V8.3022C2.86462 4.57095 4.60212 2.83345 8.33337 2.83345H16.6667C17.4098 2.77271 18.1576 2.85921 18.8673 3.08801C19.5769 3.31681 20.2344 3.68341 20.8021 4.16679C21.2855 4.73448 21.6521 5.39199 21.8809 6.10162C22.1097 6.81126 22.1962 7.55907 22.1355 8.3022V13.5105ZM14.2594 9.02304L12.1761 13.8845C12.1377 13.9816 12.0801 14.0701 12.0069 14.1446C11.9337 14.2192 11.8463 14.2783 11.7499 14.3184C11.6534 14.3586 11.5499 14.379 11.4454 14.3784C11.341 14.3779 11.2377 14.3564 11.1416 14.3152C11.0456 14.274 10.9588 14.214 10.8864 14.1387C10.814 14.0634 10.7574 13.9743 10.7201 13.8768C10.6827 13.7792 10.6652 13.6751 10.6688 13.5707C10.6723 13.4663 10.6968 13.3637 10.7407 13.2689L12.824 8.40741C12.8624 8.31026 12.9199 8.2218 12.9931 8.14727C13.0664 8.07274 13.1538 8.01364 13.2502 7.97349C13.3467 7.93333 13.4502 7.91293 13.5547 7.91348C13.6591 7.91404 13.7624 7.93554 13.8584 7.97672C13.9545 8.0179 14.0412 8.07792 14.1136 8.15322C14.1861 8.22853 14.2426 8.3176 14.28 8.41515C14.3174 8.51271 14.3348 8.61677 14.3313 8.72118C14.3278 8.82559 14.3033 8.92824 14.2594 9.02304Z" fill="#202838"/>
</svg>
