<svg width="25" height="25" viewBox="0 0 25 25" fill="none" xmlns="http://www.w3.org/2000/svg">
<path d="M22.9864 7.49935C22.5903 6.20591 21.883 5.02937 20.9264 4.07284C19.9699 3.11631 18.7934 2.409 17.4999 2.01289C15.5353 1.43685 14.1937 1.49206 13.2739 2.18373C12.8219 2.62077 12.4758 3.15535 12.2621 3.74661C12.0483 4.33786 11.9726 4.97016 12.0406 5.59519V8.58998C12.0406 11.49 13.3541 12.965 15.9468 12.965H19.4041C20.029 13.0318 20.661 12.955 21.2517 12.7403C21.8424 12.5257 22.3762 12.1789 22.8124 11.7264C23.5051 10.8046 23.5603 9.46289 22.9864 7.49935ZM21.5624 10.7889C21.2499 11.1983 20.5489 11.3983 19.3999 11.3983H15.9447C14.4978 11.3983 13.601 10.9285 13.601 8.58581V5.59519C13.601 4.44935 13.7999 3.74102 14.2093 3.43373C14.5012 3.24728 14.845 3.15896 15.1906 3.18164C15.8252 3.20621 16.4536 3.31731 17.0583 3.51185C18.0991 3.83806 19.0455 4.41125 19.8168 5.18252C20.588 5.95378 21.1612 6.90021 21.4874 7.94102C21.8989 9.35039 21.9249 10.3119 21.5624 10.7889Z" fill="#0076E2"/>
<path d="M21.9187 15.1485C21.4551 17.474 20.1979 19.5662 18.3623 21.0672C16.5266 22.5683 14.2264 23.385 11.8552 23.3776C11.292 23.3784 10.7298 23.3334 10.1739 23.2433C7.81186 22.8499 5.66204 21.642 4.09748 19.8293C2.53291 18.0165 1.65233 15.7132 1.60853 13.319C1.56473 10.9248 2.36046 8.59083 3.85767 6.72203C5.35488 4.85323 7.45908 3.56755 9.80517 3.08805C10.0082 3.04661 10.2194 3.08753 10.3923 3.20181C10.5652 3.31609 10.6856 3.49437 10.727 3.69743C10.7685 3.90048 10.7276 4.11168 10.6133 4.28457C10.499 4.45745 10.3207 4.57786 10.1177 4.6193C8.57955 4.9355 7.15587 5.66263 5.99803 6.72338C4.84018 7.78413 3.99144 9.13883 3.54207 10.6434C3.0927 12.1481 3.05949 13.7463 3.44597 15.2683C3.83245 16.7903 4.62418 18.1791 5.73696 19.287C6.84974 20.3949 8.24198 21.1806 9.76564 21.5604C11.2893 21.9402 12.8874 21.9 14.39 21.4441C15.8927 20.9881 17.2437 20.1335 18.2993 18.971C19.355 17.8085 20.0759 16.3817 20.3854 14.8422C20.426 14.639 20.5457 14.4603 20.7181 14.3453C20.8904 14.2304 21.1015 14.1886 21.3046 14.2292C21.5078 14.2698 21.6866 14.3895 21.8015 14.5619C21.9165 14.7343 21.9593 14.9453 21.9187 15.1485Z" fill="#202838"/>
</svg>
