<svg width="15" height="15" viewBox="0 0 15 15" fill="none" xmlns="http://www.w3.org/2000/svg">
<path d="M2.5 5H12.5M2.5 5V10.5001C2.5 11.2002 2.5 11.55 2.63624 11.8174C2.75608 12.0526 2.94717 12.2441 3.18237 12.3639C3.4495 12.5 3.79937 12.5 4.49807 12.5H10.5019C11.2006 12.5 11.55 12.5 11.8171 12.3639C12.0523 12.2441 12.244 12.0526 12.3639 11.8174C12.5 11.5503 12.5 11.2009 12.5 10.5022V5M2.5 5V4.50012C2.5 3.80006 2.5 3.44976 2.63624 3.18237C2.75608 2.94717 2.94717 2.75608 3.18237 2.63624C3.44976 2.5 3.80006 2.5 4.50012 2.5H5M12.5 5V4.49807C12.5 3.79937 12.5 3.4495 12.3639 3.18237C12.244 2.94717 12.0523 2.75608 11.8171 2.63624C11.5497 2.5 11.2002 2.5 10.5001 2.5H10M10 1.25V2.5M10 2.5H5M5 1.25V2.5" stroke="#202838" stroke-opacity="0.6" stroke-linecap="round" stroke-linejoin="round"/>
</svg>
