<svg width="120" height="37" viewBox="0 0 120 37" fill="none" xmlns="http://www.w3.org/2000/svg">
<path d="M24.43 0L12.21 12.21H24.43V36.64L36.64 24.46V0H24.43Z" fill="#EA5616"/>
<path d="M12.21 36.64L24.43 24.43H12.21V0L0 12.18V36.64H12.21ZM48.86 30.53H55.27V11.6H65V30.53H71.41V6.11001H48.86V30.53ZM111.15 15.25H105.67V11.6H117.87V6.10001H99.25V30.53H111.45C116.34 30.53 120 28.08 120 22.89C120 17.7 116.34 15.25 111.14 15.25H111.15ZM110.53 25.32H105.66V20.46H110.53C112.04 20.46 113.53 21.06 113.53 22.89C113.53 24.72 112 25.32 110.53 25.32ZM87.14 25.32C82.86 25.32 80.45 22.18 80.45 18.32C80.45 15.21 82.2 11.32 87.01 11.32C88.088 11.3293 89.151 11.575 90.124 12.0398C91.096 12.5046 91.955 13.1771 92.64 14.01L96.54 10.11C95.338 8.67181 93.834 7.51521 92.135 6.72211C90.437 5.92891 88.585 5.51861 86.71 5.52001C85.021 5.47541 83.341 5.77671 81.773 6.40541C80.205 7.03401 78.782 7.97671 77.591 9.17561C76.401 10.3744 75.468 11.8041 74.851 13.3766C74.233 14.9492 73.944 16.6315 74 18.32C73.979 21.0131 74.813 23.6434 76.383 25.8319C77.952 28.0205 80.176 29.6545 82.733 30.4985C85.291 31.3425 88.05 31.3529 90.614 30.5283C93.178 29.7037 95.414 28.0866 97 25.91L93.08 21.99C92.458 23.0219 91.577 23.8736 90.524 24.4611C89.472 25.0486 88.285 25.3515 87.08 25.34" fill="white"/>
</svg>
