<svg width="157" height="47" viewBox="0 0 157 47" fill="none" xmlns="http://www.w3.org/2000/svg">
<path d="M38.4907 39.9766L33.953 32.5643L29.5093 39.9766H24.1888L31.024 28.8124L24.0581 18.4475H29.6157L34.0783 25.3677L38.3344 18.4475H43.6544L36.801 29.1506L43.8422 39.9766H38.4907Z" fill="white"/>
<path d="M61.1353 32.6565C61.1353 37.3927 57.5052 40.3452 52.7482 40.3452C48.5546 40.3452 45.0238 38.0695 44.6797 33.1177H49.2174C49.5303 35.2706 51.2829 36.1933 53.1921 36.1933C55.5704 36.1933 56.5976 34.6247 56.5976 32.5948C56.5976 30.4726 55.0016 29.1503 52.7795 29.1503C50.9332 29.1503 49.7127 30.0114 49.1494 30.9341H44.8118L46.3114 18.4472H60.5777L60.1026 22.6301H49.8975L49.4924 26.7623C49.4924 26.7623 50.5647 25.5211 53.8123 25.5211C57.7243 25.5211 61.1353 28.1046 61.1353 32.6565Z" fill="white"/>
<path d="M45.217 15.7664C42.8001 6.50613 35.1299 0.000171661 19.2151 0.000171661H0L2.60842 17.3335C4.57062 32.974 10.6575 38.0059 21.4291 39.8584C21.4799 39.8662 21.8196 39.9138 21.8248 39.5213C21.8265 39.3802 21.7351 39.2583 21.6106 39.2066C14.3297 36.1936 13.4987 26.3144 11.9439 16.3997L10.74 8.49925H21.7093C31.8228 8.49925 39.6297 8.34228 44.5742 16.0135C44.6483 16.122 44.7622 16.2014 44.8977 16.2014C45.0891 16.2014 45.2305 16.0489 45.2305 15.8608C45.2305 15.828 45.2257 15.7964 45.217 15.7664Z" fill="#55B435"/>
<path d="M64.9414 29.1957C64.9414 22.5078 69.8822 17.6827 76.7496 17.6827C81.3486 17.6827 85.5125 20.309 86.7244 23.9125L84.1453 24.7677C83.2131 22.0802 80.1368 20.1258 76.7496 20.1258C71.498 20.1258 67.7692 23.882 67.7692 29.1957C67.7692 34.4483 71.5291 38.2961 76.7496 38.2961C81.4729 38.2961 85.2017 34.9675 85.3261 30.631L74.4502 30.6005V28.1268H88.1849C88.651 35.4561 83.8656 40.7393 76.7496 40.7393C69.8822 40.7393 64.9414 35.8836 64.9414 29.1957Z" fill="white"/>
<path d="M91.5845 24.5538H94.1015V26.6304H94.3812C95.096 25.2256 96.836 24.2484 98.5762 24.2484C99.291 24.2484 100.037 24.4011 100.503 24.6453V26.9968C99.6949 26.6609 98.7628 26.5387 98.1723 26.5387C95.8106 26.5387 94.1638 28.6152 94.1638 31.6691V39.9756H91.5845V24.5538Z" fill="white"/>
<path d="M116.217 32.2495C116.217 28.768 113.762 26.2334 110.375 26.2334C106.957 26.2334 104.533 28.768 104.533 32.2495C104.533 35.7614 106.957 38.296 110.375 38.296C113.762 38.296 116.217 35.7614 116.217 32.2495ZM101.954 32.2495C101.954 27.3939 105.434 23.9431 110.375 23.9431C115.285 23.9431 118.796 27.3939 118.796 32.2495C118.796 37.1356 115.285 40.5864 110.375 40.5864C105.434 40.5864 101.954 37.1356 101.954 32.2495Z" fill="white"/>
<path d="M136.143 39.9756H133.563V37.8686H133.253C132.165 39.548 130.394 40.5254 128.343 40.5254C124.334 40.5254 121.817 37.6853 121.817 33.7457V24.5538H124.397V33.7457C124.397 36.3721 125.95 38.235 128.654 38.235C131.295 38.235 133.563 36.2499 133.563 33.5321V24.5538H136.143V39.9756Z" fill="white"/>
<path d="M142.768 32.2495C142.768 35.6392 145.223 38.296 148.61 38.296C151.966 38.296 154.421 35.6392 154.421 32.2495C154.421 28.7987 151.966 26.2334 148.61 26.2334C145.223 26.2334 142.768 28.8597 142.768 32.2495ZM157 32.2495C157 37.0746 153.488 40.5865 148.92 40.5865C146.403 40.5865 144.29 39.5176 143.141 37.6854H142.861V46.9995H140.282V24.5539H142.861V26.9054H143.141C144.29 25.0425 146.31 23.9431 148.889 23.9431C153.457 23.9431 157 27.4245 157 32.2495Z" fill="white"/>
</svg>
