<svg width="157" height="47" viewBox="0 0 157 47" fill="none" xmlns="http://www.w3.org/2000/svg">
<g clip-path="url(#clip0_247_10171)">
<path d="M38.4905 39.9766L33.9528 32.5643L29.509 39.9766H24.1886L31.0238 28.8124L24.0579 18.4475H29.6155L34.0781 25.3677L38.3342 18.4475H43.6542L36.8008 29.1506L43.842 39.9766H38.4905Z" fill="#202838"/>
<path d="M61.1351 32.6569C61.1351 37.3932 57.5049 40.3457 52.7479 40.3457C48.5543 40.3457 45.0236 38.07 44.6794 33.1182H49.2171C49.5301 35.2711 51.2826 36.1938 53.1918 36.1938C55.5701 36.1938 56.5974 34.6252 56.5974 32.5953C56.5974 30.4731 55.0014 29.1507 52.7793 29.1507C50.9329 29.1507 49.7124 30.0118 49.1491 30.9346H44.8115L46.3111 18.4477H60.5775L60.1024 22.6306H49.8973L49.4922 26.7628C49.4922 26.7628 50.5644 25.5216 53.8121 25.5216C57.7241 25.5216 61.1351 28.1051 61.1351 32.6569Z" fill="#202838"/>
<path d="M45.217 15.7674C42.8001 6.5071 35.1299 0.00114822 19.2151 0.00114822H0L2.60842 17.3344C4.57062 32.9749 10.6575 38.0069 21.4291 39.8594C21.4799 39.8671 21.8196 39.9147 21.8248 39.5223C21.8265 39.3812 21.7351 39.2593 21.6106 39.2076C14.3297 36.1946 13.4987 26.3154 11.9439 16.4007L10.74 8.50023H21.7093C31.8228 8.50023 39.6297 8.34326 44.5742 16.0145C44.6483 16.1229 44.7622 16.2024 44.8977 16.2024C45.0891 16.2024 45.2305 16.0499 45.2305 15.8618C45.2305 15.829 45.2257 15.7974 45.217 15.7674Z" fill="#55B435"/>
<path d="M64.9412 29.1967C64.9412 22.5087 69.882 17.6837 76.7493 17.6837C81.3483 17.6837 85.5123 20.31 86.7242 23.9135L84.1451 24.7687C83.2128 22.0812 80.1365 20.1268 76.7493 20.1268C71.4978 20.1268 67.7689 23.883 67.7689 29.1967C67.7689 34.4493 71.5288 38.2971 76.7493 38.2971C81.4727 38.2971 85.2015 34.9684 85.3258 30.6319L74.4499 30.6014V28.1278H88.1847C88.6508 35.4571 83.8654 40.7402 76.7493 40.7402C69.882 40.7402 64.9412 35.8846 64.9412 29.1967Z" fill="#202838"/>
<path d="M91.5846 24.5548H94.1016V26.6313H94.3813C95.0961 25.2266 96.8361 24.2494 98.5763 24.2494C99.2911 24.2494 100.037 24.4021 100.503 24.6463V26.9977C99.695 26.6618 98.7629 26.5396 98.1724 26.5396C95.8108 26.5396 94.1639 28.6162 94.1639 31.6701V39.9766H91.5846V24.5548Z" fill="#202838"/>
<path d="M116.217 32.2509C116.217 28.7695 113.762 26.2348 110.375 26.2348C106.957 26.2348 104.533 28.7695 104.533 32.2509C104.533 35.7628 106.957 38.2975 110.375 38.2975C113.762 38.2975 116.217 35.7628 116.217 32.2509ZM101.954 32.2509C101.954 27.3954 105.435 23.9445 110.375 23.9445C115.285 23.9445 118.796 27.3954 118.796 32.2509C118.796 37.1371 115.285 40.5879 110.375 40.5879C105.435 40.5879 101.954 37.1371 101.954 32.2509Z" fill="#202838"/>
<path d="M136.143 39.9756H133.563V37.8686H133.253C132.165 39.548 130.394 40.5254 128.343 40.5254C124.334 40.5254 121.817 37.6853 121.817 33.7457V24.5538H124.397V33.7457C124.397 36.3721 125.95 38.235 128.654 38.235C131.295 38.235 133.563 36.2499 133.563 33.5321V24.5538H136.143V39.9756Z" fill="#202838"/>
<path d="M142.768 32.25C142.768 35.6397 145.223 38.2965 148.61 38.2965C151.966 38.2965 154.421 35.6397 154.421 32.25C154.421 28.7992 151.966 26.2339 148.61 26.2339C145.223 26.2339 142.768 28.8602 142.768 32.25ZM157 32.25C157 37.0751 153.488 40.5869 148.92 40.5869C146.403 40.5869 144.29 39.5181 143.141 37.6859H142.861V47H140.282V24.5544H142.861V26.9058H143.141C144.29 25.043 146.31 23.9436 148.889 23.9436C153.457 23.9436 157 27.4249 157 32.25Z" fill="#202838"/>
</g>
<defs>
<clipPath id="clip0_247_10171">
<rect width="157" height="47" fill="white"/>
</clipPath>
</defs>
</svg>
