<svg width="216" height="42" viewBox="0 0 216 42" fill="none" xmlns="http://www.w3.org/2000/svg">
<g clip-path="url(#clip0_4101_4679)">
<path d="M1.16523 7.79785C1.16523 7.79785 -0.307136 14.3256 3.60348 16.2918C7.51409 18.2581 13.7922 17.0166 14.8526 15.4869C15.913 13.9572 16.1567 12.9012 16.1567 12.9012V7.79826" fill="#73C167"/>
<path d="M15.8379 7.79785C15.8379 7.79785 14.366 14.3256 18.2762 16.2918C22.1864 18.2581 28.4657 17.0166 29.5253 15.4869C30.5849 13.9572 30.8277 12.9012 30.8277 12.9012V7.79826" fill="#6D2968"/>
<path d="M30.837 7.79785C30.837 7.79785 29.365 14.3256 33.2752 16.2918C37.1854 18.2581 43.4647 17.0166 44.5243 15.4869C45.5839 13.9572 45.8284 12.9012 45.8284 12.9012V7.79826" fill="#F58021"/>
<path d="M46.6963 7.8481C46.6859 7.74217 46.6544 7.63932 46.6035 7.5455C46.5527 7.45167 46.4835 7.36873 46.4001 7.30146C46.3166 7.23418 46.2205 7.18391 46.1172 7.15355C46.014 7.12319 45.9057 7.11334 45.7986 7.12456C45.6914 7.13579 45.5876 7.16787 45.4931 7.21895C45.3986 7.27003 45.3153 7.33911 45.248 7.42218C45.1807 7.50526 45.1307 7.60069 45.1009 7.70296C45.0711 7.80524 45.0621 7.91234 45.0744 8.01807C45.0744 8.02876 45.0769 8.03988 45.0786 8.05099C45.2831 9.63991 45.2868 10.9609 45.0881 11.9774C44.8857 13.0186 44.4759 13.9198 43.8703 14.6552L43.8286 14.7096C42.9123 15.7902 41.6061 16.4458 40.0446 16.6059C39.7968 16.6318 38.5535 16.694 38.2953 16.694H38.0204C37.7143 16.694 36.7075 16.6269 36.4181 16.5915C33.8016 16.2738 32.0101 14.5914 31.5033 11.9774C30.7398 8.05428 33.1855 1.14262 33.2109 1.07184C33.2755 0.872287 33.2588 0.655747 33.1644 0.468166C33.07 0.280585 32.9053 0.136726 32.7054 0.067116C32.5054 -0.00249367 32.2858 0.00762431 32.0933 0.095323C31.9007 0.183022 31.7503 0.341399 31.674 0.536847C31.5666 0.836853 29.0554 7.92959 29.9026 12.2823C29.948 12.5153 30.0038 12.742 30.0667 12.9651C29.317 15.033 27.5939 16.3709 25.2923 16.6067C25.0424 16.6326 23.8007 16.6948 23.5429 16.6948H23.268C22.9611 16.6948 21.9552 16.6277 21.6649 16.5923C19.0496 16.2746 17.2578 14.5923 16.7501 11.9782C15.9862 8.0551 18.4328 1.14344 18.4577 1.07266C18.5223 0.87311 18.5056 0.65657 18.4112 0.468989C18.3168 0.281408 18.1521 0.137549 17.9522 0.0679391C17.7522 -0.00167061 17.5326 0.00844737 17.3401 0.096146C17.1475 0.183845 16.9971 0.342222 16.9208 0.53767C16.8134 0.837676 14.3022 7.93041 15.1498 12.2832C15.1952 12.5161 15.2515 12.7429 15.3135 12.9659C14.5638 15.0338 12.8403 16.3717 10.5395 16.6075C10.2896 16.6335 9.04754 16.6956 8.79014 16.6956H8.51482C8.20827 16.6956 7.20198 16.6285 6.91251 16.5931C4.29558 16.2754 2.50458 14.5931 1.99769 11.979C1.22548 8.05428 3.67081 1.14262 3.69622 1.07307C3.76314 0.872853 3.74793 0.654687 3.65384 0.46543C3.55975 0.276174 3.3943 0.130923 3.19301 0.0608761C2.99173 -0.00917123 2.77066 0.00157183 2.57731 0.0907978C2.38395 0.180024 2.23372 0.340616 2.15888 0.538081C2.05184 0.83603 -0.459301 7.92876 0.388297 12.2815C1.02931 15.5783 3.39133 17.7878 6.70509 18.1886C6.92709 18.2162 7.44481 18.2549 7.88881 18.2796V24.7879C7.88614 24.8939 7.90466 24.9993 7.94329 25.0982C7.98192 25.197 8.03991 25.2874 8.11393 25.3641C8.18796 25.4408 8.27658 25.5023 8.3747 25.5451C8.47282 25.5879 8.57852 25.6112 8.68576 25.6135C8.79299 25.6159 8.89964 25.5974 8.99961 25.559C9.09958 25.5206 9.1909 25.4631 9.26834 25.3897C9.34579 25.3164 9.40783 25.2287 9.45091 25.1317C9.494 25.0346 9.51729 24.9301 9.51944 24.8242C9.51944 24.8122 9.51944 24.7999 9.51944 24.7879V18.28C9.98677 18.2578 10.5191 18.2265 10.7019 18.2076C13.1056 17.9606 15.0132 16.7783 16.1603 14.9215C17.2828 16.7322 19.1362 17.9072 21.4608 18.1899C21.6828 18.2174 22.2009 18.2561 22.6445 18.2808V24.7879C22.6445 24.8937 22.6656 24.9984 22.7066 25.0961C22.7475 25.1939 22.8076 25.2826 22.8832 25.3574C22.9589 25.4322 23.0488 25.4915 23.1477 25.532C23.2466 25.5725 23.3526 25.5933 23.4596 25.5933C23.5667 25.5933 23.6727 25.5725 23.7715 25.532C23.8704 25.4915 23.9603 25.4322 24.036 25.3574C24.1117 25.2826 24.1717 25.1939 24.2127 25.0961C24.2536 24.9984 24.2747 24.8937 24.2747 24.7879V18.28C24.7425 18.2578 25.2743 18.2265 25.4572 18.2076C27.8605 17.9606 29.7718 16.7816 30.9189 14.9264C32.0414 16.7372 33.894 17.9072 36.2165 18.1899C36.4389 18.2174 36.9566 18.2561 37.3998 18.2808V24.7879C37.3998 25.0015 37.4857 25.2064 37.6385 25.3574C37.7914 25.5085 37.9987 25.5933 38.2149 25.5933C38.4311 25.5933 38.6384 25.5085 38.7913 25.3574C38.9441 25.2064 39.03 25.0015 39.03 24.7879V18.28C39.4977 18.2578 40.0296 18.2265 40.2129 18.2076C42.2163 18.0018 43.9061 17.1413 45.0998 15.7174L45.1481 15.654C45.9174 14.7133 46.436 13.5787 46.6892 12.2819C46.92 11.098 46.9225 9.60699 46.6963 7.8481Z" fill="white"/>
<path d="M206.632 14.9478H200.692V19.6393H206.677C208.73 19.6393 209.237 18.4685 209.237 17.2878C209.237 16.1195 208.596 14.9474 206.634 14.9474L206.632 14.9478ZM207.227 24.7834H194.667V1.55127H213.383V6.64849H200.692V10.1646H206.812C206.812 10.1646 210.572 10.2119 212.406 11.251C214.24 12.2902 215.213 14.2141 215.213 18.1516C215.213 22.7039 211.24 24.7846 207.227 24.7846V24.7834Z" fill="white"/>
<path d="M73.5943 14.9478H67.6544V19.6393H73.6359C75.6897 19.6393 76.1966 18.4685 76.1966 17.2878C76.1966 16.1195 75.5552 14.9474 73.5943 14.9474V14.9478ZM67.6544 10.1646H73.7746C75.0091 10.1646 75.5552 9.21809 75.5552 8.40902C75.5552 7.59995 75.0521 6.64849 73.73 6.64849H67.6544V10.1646ZM74.1861 24.7846H61.6279V1.55127H74.1445C77.8835 1.55127 81.2172 3.8435 81.2172 7.82012C81.2172 9.94073 80.3538 11.4251 79.0289 12.4206C80.5354 13.2313 82.1773 14.9017 82.1773 18.1516C82.1756 22.7039 78.2017 24.7846 74.1861 24.7846Z" fill="white"/>
<path d="M86.3633 1.55225H92.294V16.348L101.383 1.55225H107.68V24.784H101.75V9.98328L92.6597 24.784H86.3633V1.55225Z" fill="white"/>
<path d="M118.38 24.7846H112.361V1.55127H118.38V9.62632H127.652V1.55127H133.672V24.7846H127.652V14.9001H118.38V24.7846Z" fill="white"/>
<path d="M161.261 1.55217V24.7839H155.233V6.82881H148.387L147.38 16.6615C146.784 22.346 143.951 24.8707 138.155 24.8707V19.6854C140.209 19.5496 141.307 18.6912 141.536 16.301L143.088 1.55176L161.261 1.55217Z" fill="white"/>
<path d="M177.906 6.55562C174.57 6.55562 171.882 9.44292 171.882 13.2315C171.882 16.9352 174.57 19.7748 177.906 19.7748C181.243 19.7748 183.929 16.8427 183.929 13.2315C183.929 9.53592 181.238 6.55562 177.906 6.55562ZM189.961 24.7864H184.201V22.3C182.379 24.193 179.864 25.2766 176.995 25.2766C170.876 25.2766 165.805 20.0439 165.805 13.1911C165.805 6.28442 170.876 1.05469 176.995 1.05469C179.865 1.05469 182.381 2.13454 184.201 4.03458V1.54894H189.961V24.7864Z" fill="white"/>
<path d="M67.8738 38.7586C67.6455 38.8353 67.412 38.896 67.1749 38.9401C66.9334 38.985 66.6897 39.0179 66.4448 39.0384C66.3598 39.045 66.2765 39.0502 66.1949 39.0541C66.1116 39.0574 66.0345 39.059 65.9567 39.059C64.9123 39.059 64.009 38.7535 63.2468 38.1425C62.4846 37.5316 62.1035 36.6185 62.1035 35.4034C62.1035 34.2571 62.4723 33.3457 63.2098 32.6692C63.9473 31.9926 64.9547 31.6543 66.232 31.6543C66.4531 31.6534 66.6741 31.6655 66.8938 31.6906C67.0948 31.7147 67.2906 31.7475 67.4811 31.7889C67.5448 31.8099 67.6098 31.8301 67.6773 31.8461C67.7447 31.8622 67.8093 31.8823 67.873 31.9029L67.8093 33.1457C67.5776 33.0517 67.3363 32.9828 67.0896 32.94C66.8413 32.8978 66.5897 32.877 66.3378 32.8778C65.5828 32.8778 64.953 33.0935 64.4485 33.5248C63.9439 33.956 63.6915 34.5758 63.6913 35.384C63.6913 36.2123 63.9134 36.8112 64.3577 37.1808C64.8019 37.5503 65.2923 37.7661 65.8288 37.8281C65.8996 37.8347 65.9683 37.8401 66.037 37.8434C66.1058 37.8466 66.1695 37.8487 66.2328 37.8487C66.4961 37.8514 66.7588 37.8253 67.0163 37.7709C67.2222 37.7274 67.4241 37.6668 67.6198 37.5899C67.648 37.5826 67.6758 37.574 67.7031 37.5639C67.7291 37.5548 67.754 37.5426 67.7772 37.5277L67.8738 38.7586Z" fill="white"/>
<path d="M70.8275 31.7368L72.299 34.8233L72.6164 35.5896H72.6485L72.9659 34.8126L74.3737 31.7368H75.856L72.8917 37.9098C72.6732 38.3655 72.4157 38.671 72.1191 38.8263C71.8155 38.9832 71.4771 39.0632 71.1345 39.0592C70.9587 39.0605 70.7832 39.0449 70.6105 39.0127C70.473 38.9867 70.3369 38.9539 70.2028 38.9143C70.1674 38.9003 70.134 38.8884 70.1024 38.8781C70.0715 38.8683 70.0414 38.8562 70.0124 38.8419L70.1815 37.7439C70.2382 37.7715 70.2927 37.7958 70.3456 37.8164C70.3958 37.8364 70.4471 37.8538 70.4993 37.8682C70.5485 37.8752 70.5997 37.8822 70.653 37.8888C70.7073 37.8959 70.7619 37.8995 70.8167 37.8995C70.9754 37.9001 71.1331 37.8738 71.2828 37.8217C71.431 37.7699 71.5545 37.6335 71.653 37.4126L71.865 36.9258L69.1465 31.7368H70.8275Z" fill="white"/>
<path d="M83.3824 31.7368V38.9863H81.8792V32.9278H78.9465V38.9863H77.4434V31.7368H83.3824Z" fill="white"/>
<path d="M90.0305 31.7368V33.0212H87.1087V34.6574H89.766V35.8484H87.1087V37.7003H90.0305V38.9847H85.6055V31.7368H90.0305Z" fill="white"/>
<path d="M94.2333 31.7368C95.0385 31.7368 95.6402 31.8732 96.0384 32.1459C96.4366 32.4186 96.7136 32.7172 96.8693 33.0418C96.9496 33.2077 97.0066 33.3837 97.0389 33.5648C97.0645 33.7103 97.0784 33.8575 97.0805 34.0052V34.1188C97.0527 34.6573 96.8287 35.1492 96.4083 35.5945C95.9879 36.0398 95.3544 36.2626 94.5077 36.2628H93.5443V38.9863H92.042V31.7368H94.2333ZM94.2333 35.1233C94.6498 35.1233 94.9639 35.0077 95.1758 34.7764C95.3833 34.5557 95.4969 34.2647 95.4932 33.9636C95.4935 33.6882 95.3939 33.4217 95.2125 33.2126C95.0253 32.9884 94.6989 32.8763 94.2333 32.8763H93.5452V35.1233H94.2333Z" fill="white"/>
<path d="M102.639 38.9863L100.839 33.8081L100.5 32.7726H100.468L100.489 33.8912V38.9863H98.9854V31.7368H101.526L103.008 35.9521L103.337 37.2361H103.368L103.697 35.9521L105.178 31.7368H107.719V38.9863H106.216V33.8912L106.237 32.7726H106.205L105.866 33.8081L104.066 38.9863H102.639Z" fill="white"/>
<path d="M114.03 31.7368L116.973 38.9863H115.279L114.654 37.3604H111.595L110.97 38.9863H109.361L112.315 31.7368H114.03ZM114.209 36.1591L113.119 33.1961H113.098L112.071 36.1591H114.209Z" fill="white"/>
<path d="M120.805 31.7368C121.61 31.7368 122.212 31.8732 122.609 32.1459C123.007 32.4186 123.285 32.7172 123.442 33.0418C123.523 33.2078 123.579 33.3837 123.612 33.5648C123.637 33.7103 123.651 33.8575 123.653 34.0052V34.1188C123.625 34.6573 123.401 35.1492 122.981 35.5945C122.561 36.0398 121.927 36.2626 121.081 36.2628H120.117V38.9863H118.614V31.7368H120.805ZM120.805 35.1233C121.221 35.1233 121.535 35.0077 121.747 34.7764C121.954 34.5558 122.068 34.2648 122.065 33.9636C122.065 33.6882 121.965 33.4217 121.784 33.2126C121.597 32.9884 121.27 32.8763 120.805 32.8763H120.117V35.1233H120.805Z" fill="white"/>
<path d="M127.061 31.7368V34.8336H127.092L129.771 31.7368H131.56L128.469 35.0212L131.751 38.9876H129.845L127.092 35.3838H127.061V38.9876H125.558V31.7368H127.061Z" fill="white"/>
<path d="M137.733 31.7368V33.0212H134.811V34.6574H137.468V35.8484H134.811V37.7003H137.733V38.9847H133.308V31.7368H137.733Z" fill="white"/>
<path d="M144.942 31.7368V33.0212H142.803V38.9884H141.3V33.0212H139.162V31.7368H144.942Z" fill="white"/>
<path d="M152.542 31.7368V34.6587H155.549V31.7368H157.052V38.9863H155.549V35.8484H152.542V38.9863H151.039V31.7368H152.542Z" fill="white"/>
<path d="M163.361 31.7368L166.304 38.9863H164.61L163.985 37.3604H160.926L160.301 38.9863H158.692L161.646 31.7368H163.361ZM163.541 36.1591L162.45 33.1961H162.429L161.402 36.1591H163.541Z" fill="white"/>
<path d="M173.884 31.7368V38.9863H172.381V32.9278H169.448V38.9863H167.945V31.7368H173.884Z" fill="white"/>
<path d="M177.61 31.7368V35.4653L177.579 37.2258H177.61L178.14 36.1694L180.733 31.7368H182.533V38.9863H181.03V35.2476L181.063 33.4986H181.031L180.521 34.5953L177.907 38.9863H176.106V31.7368H177.61Z" fill="white"/>
<path d="M189.954 31.7368V33.0212H187.816V38.9884H186.311V33.0212H184.172V31.7368H189.954Z" fill="white"/>
<path d="M193.1 31.7368V34.8336H193.132L195.807 31.7368H197.598L194.506 35.0212L197.788 38.9876H195.882L193.129 35.3838H193.1V38.9876H191.597V31.7368H193.1Z" fill="white"/>
<path d="M205.298 32.6023C205.992 33.2333 206.339 34.1532 206.339 35.362C206.339 36.5708 205.992 37.4891 205.298 38.1168C204.603 38.7451 203.74 39.0592 202.71 39.0592C201.679 39.0592 200.817 38.7451 200.121 38.1168C199.427 37.4888 199.08 36.5705 199.08 35.362C199.08 34.1535 199.427 33.2336 200.121 32.6023C200.816 31.9713 201.678 31.6558 202.71 31.6558C203.741 31.6558 204.604 31.9713 205.298 32.6023ZM202.36 32.7171C202.23 32.7351 202.102 32.7681 201.979 32.8155C201.647 32.9397 201.346 33.1899 201.074 33.5661C200.802 33.9422 200.666 34.5411 200.667 35.3628C200.667 36.1859 200.802 36.7848 201.074 37.1596C201.345 37.5343 201.647 37.7847 201.979 37.9106C202.102 37.9577 202.23 37.9907 202.36 38.009C202.592 38.0435 202.827 38.0435 203.059 38.009C203.189 37.9907 203.317 37.9577 203.44 37.9106C203.772 37.7863 204.073 37.536 204.345 37.1596C204.617 36.7832 204.753 36.1842 204.753 35.3628C204.753 34.5414 204.617 33.9425 204.345 33.5661C204.073 33.1897 203.772 32.9395 203.44 32.8155C203.317 32.7681 203.189 32.7351 203.059 32.7171C202.827 32.6825 202.592 32.6825 202.36 32.7171Z" fill="white"/>
<path d="M210.735 31.7368C210.86 31.7368 211.026 31.7459 211.227 31.7627C211.436 31.7814 211.643 31.8179 211.846 31.8718C212.192 31.9725 212.511 32.1495 212.778 32.3895C213.06 32.6381 213.201 33.0178 213.201 33.5286C213.201 33.9292 213.122 34.2447 212.963 34.4751C212.827 34.6836 212.649 34.8617 212.439 34.9978C212.365 35.0442 212.287 35.0841 212.206 35.1171C212.128 35.148 212.058 35.1739 211.994 35.1949V35.2155C212.412 35.272 212.8 35.4643 213.095 35.762C213.399 36.0613 213.551 36.456 213.551 36.946C213.55 37.0622 213.541 37.1783 213.524 37.2933C213.504 37.4224 213.47 37.549 213.424 37.6711C213.289 38.0025 213.017 38.3043 212.608 38.5765C212.199 38.8486 211.543 38.985 210.639 38.9855H208.3V31.7368H210.735ZM209.802 34.678H210.533C210.857 34.678 211.099 34.6245 211.258 34.5175C211.397 34.4316 211.511 34.3122 211.591 34.1706C211.631 34.1035 211.657 34.0299 211.671 33.9533C211.68 33.8951 211.685 33.8362 211.686 33.7772C211.686 33.7199 211.68 33.6628 211.671 33.6064C211.66 33.5402 211.64 33.4757 211.612 33.4146C211.556 33.2768 211.443 33.1525 211.274 33.0418C211.104 32.9311 210.836 32.8772 210.469 32.8772H209.803L209.802 34.678ZM209.802 37.8468H210.639C211.076 37.8468 211.406 37.7519 211.628 37.562C211.736 37.473 211.822 37.3611 211.879 37.2347C211.937 37.1083 211.965 36.9706 211.961 36.832C211.961 36.542 211.889 36.3279 211.744 36.1896C211.609 36.0578 211.444 35.9591 211.262 35.9015C211.144 35.8619 211.022 35.8375 210.898 35.8291C210.781 35.8219 210.694 35.8184 210.638 35.8184H209.802V37.8468Z" fill="white"/>
</g>
<defs>
<clipPath id="clip0_4101_4679">
<rect width="215" height="42" fill="white" transform="translate(0.213867)"/>
</clipPath>
</defs>
</svg>
