<svg width="128" height="23" viewBox="0 0 128 23" fill="none" xmlns="http://www.w3.org/2000/svg">
<path d="M119.946 17.4461C119.913 17.7047 119.814 18.3849 118.918 18.4732H111.047C110.151 18.3849 109.987 17.7047 109.954 17.4461V5.43237C109.987 5.17319 110.111 4.62226 111.007 4.5339H118.922C119.818 4.62226 119.913 5.17319 119.946 5.43237V17.4461ZM122.672 0.00743928H107.228C104.908 0.192527 102.948 1.35608 102.686 3.9591V18.8329C102.948 21.4359 104.908 22.8149 107.228 23H122.672C124.992 22.8149 126.952 21.4359 127.214 18.8329V3.9591C126.952 1.35608 124.992 0.192527 122.672 0.00743928ZM60.1709 4.5339H53.2665V0.00743928H74.3427V4.5339H67.4383V23H60.1709V4.5339ZM51.0865 4.5339V0.00743928H32.1906V23L51.3377 22.995L51.3446 18.4735H39.4766L39.4777 13.549H51.0864V9.03371H39.4777V4.53391L51.0865 4.5339ZM93.2383 8.09771C93.2383 8.59531 93.1132 9.03184 92.2098 9.03184H83.7905V4.51871H92.2207C93.2461 4.51871 93.2383 5.18218 93.2383 5.59638V8.09771ZM95.2515 14.0618C97.5186 13.8823 99.7789 12.3566 99.7789 9.85094V4.17457C99.5158 1.58364 97.5497 0.184468 95.2189 0H76.5227L76.5233 23H83.7905V14.0618H86.6829L91.4067 23H99.7645L94.1392 14.0618H95.2515ZM17.1471 23L22.0162 8.5578V23H29.2838V0.00743928H19.4728L14.7488 11.504L10.0248 0.00743928H0.213867V23H7.48141V8.5578L12.3866 23H17.1471Z" fill="white"/>
</svg>
