<svg width="320" height="47" viewBox="0 0 320 47" fill="none" xmlns="http://www.w3.org/2000/svg">
<path fill-rule="evenodd" clip-rule="evenodd" d="M119.243 37.1811C123.009 37.1811 126.024 36.1202 128.391 33.9963C130.7 32.0845 132.215 29.6423 133.039 26.6697C133.836 23.8031 133.676 21.3598 132.456 19.343C131.238 17.3252 128.812 16.2643 125.046 16.2643C121.279 16.2643 118.265 17.3252 115.926 19.343C113.588 21.3598 112.072 23.8031 111.278 26.6697C110.453 29.6434 110.613 32.0845 111.86 33.9963C113.051 36.1191 115.477 37.1811 119.243 37.1811ZM120.656 32.0845C119.506 32.0845 118.682 31.6601 118.349 30.5982C117.986 29.6434 118.026 28.3682 118.498 26.6697C118.94 25.0762 119.608 23.8031 120.53 22.7401C121.422 21.7852 122.481 21.3598 123.633 21.3598C124.784 21.3598 125.607 21.7842 125.97 22.7401C126.304 23.8031 126.263 25.0762 125.822 26.6697C125.35 28.3692 124.682 29.6434 123.79 30.5982C122.867 31.6591 121.808 32.0845 120.656 32.0845ZM306.431 31.0766C305.383 31.0766 304.769 30.6523 304.482 29.8025C304.09 28.9538 304.07 27.8918 304.454 26.5105C304.838 25.1292 305.475 23.9633 306.308 23.2185C307.068 22.3687 307.992 22.0505 308.964 21.9454C311.161 21.9454 311.87 23.5379 311.12 26.6166C310.737 27.9968 310.128 29.0588 309.369 29.9086C308.402 30.7594 307.476 31.0766 306.431 31.0766ZM299.84 16.7428L292.504 43.1826H300.037L302.453 34.4747C303.237 36.1732 304.676 37.023 306.558 37.023C308.86 37.023 311.158 36.2793 313.513 34.5797C314.684 33.6552 315.699 32.5438 316.519 31.2888C317.367 30.1208 318.047 28.4212 318.681 26.5105C319.447 23.75 319.392 21.3078 318.487 19.29C317.583 17.2722 315.679 16.2102 312.75 16.2102C311.599 16.2102 310.465 16.5285 309.167 17.06C307.869 17.5904 306.766 18.5463 305.815 19.7144H305.709L306.534 16.7417L299.84 16.7428ZM293.632 28.418C294.634 24.8067 294.621 21.8341 293.253 19.604C291.989 17.373 289.487 16.206 285.931 16.206C282.897 16.206 280.121 17.1608 277.602 19.0725C274.979 20.9843 273.226 23.5326 272.284 26.9306C271.399 30.1155 271.739 32.6648 273.359 34.3623C274.847 36.1679 277.122 37.0166 280.261 37.0166C282.563 37.0166 284.772 36.5923 287.026 35.6364C289.279 34.6816 291.11 32.982 292.521 30.5398H285.302C284.946 31.0713 284.41 31.4957 283.798 31.814C283.291 32.1322 282.634 32.2383 282.006 32.2383C280.959 32.2383 280.212 31.9201 279.685 31.1764C279.158 30.4337 279.081 29.584 279.404 28.4159H293.632V28.418ZM280.494 24.4884C281.113 22.2584 282.588 21.0893 284.919 20.9843C285.83 21.0904 286.58 21.4086 286.926 22.0462C287.377 22.6828 287.559 23.5326 287.294 24.4884H280.494ZM254.971 36.5742L258.889 22.4515H252.401L253.992 16.7173H274.497L272.909 22.4515H266.421L262.503 36.5742H254.971ZM251.416 24.2561C251.793 21.3895 251.232 19.2645 249.598 17.9915C247.934 16.8223 245.809 16.1858 243.298 16.1858C240.055 16.1858 237.308 17.0356 234.79 18.9473C232.302 20.753 230.519 23.4074 229.576 26.8044C228.662 30.0964 229.001 32.6447 230.594 34.4503C232.111 36.1488 234.356 37.1047 237.495 37.1047C240.11 37.1047 242.694 36.4671 244.93 35.1929C246.101 34.5267 247.154 33.6652 248.044 32.6447C248.966 31.5838 249.633 30.3096 250.255 28.8222H242.721C242.411 29.5924 241.933 30.2817 241.325 30.839C240.73 31.4766 239.909 31.7949 238.968 31.7949C237.817 31.7949 237.098 31.3716 236.839 30.4146C236.552 29.5649 236.562 28.3968 237.004 26.8044C237.152 26.2739 237.433 25.6363 237.715 24.9987C237.996 24.3611 238.278 23.7246 238.634 23.1941C238.991 22.6626 239.527 22.2383 240.034 21.9189C240.54 21.6007 241.123 21.3885 241.855 21.3885C242.691 21.3885 243.23 21.7067 243.502 22.2372C243.906 22.6616 243.911 23.4063 243.779 24.255H251.416V24.2561ZM214.84 32.6425C213.166 32.6425 212.477 32.111 212.772 31.0501C212.949 30.4125 213.305 29.881 213.812 29.5627C214.319 29.2445 214.797 29.0323 215.453 28.9262C216.035 28.714 216.797 28.6079 217.455 28.5018C218.246 28.2886 218.933 28.0764 219.724 27.8642C219.445 29.2445 218.941 30.3064 218.154 31.2623C217.26 32.2182 216.2 32.6425 214.84 32.6425ZM225.812 36.465L225.901 36.1467C225.495 35.7223 225.403 35.298 225.417 34.8726C225.4 34.5543 225.413 34.1299 225.561 33.5984L228.124 24.3601C228.449 23.1909 228.743 22.13 228.828 21.0681C228.985 20.1917 228.828 19.2872 228.384 18.5187C227.963 17.7761 227.168 17.2446 225.926 16.8202C224.684 16.3959 222.963 16.1826 220.663 16.1826C217.106 16.1826 214.208 16.8202 212.24 17.8811C210.241 19.0502 209.038 20.7487 208.449 22.8716H215.876C216.321 22.0229 216.783 21.4914 217.394 21.172C218.081 20.9609 218.529 20.8538 219.052 20.8538C219.575 20.8538 220.069 20.9609 220.638 21.172C221.103 21.3853 221.298 21.8096 221.197 22.5533C220.856 23.4021 219.977 23.9346 218.559 24.1468C217.9 24.2529 217.139 24.359 216.377 24.4651C215.511 24.5701 214.645 24.6762 213.645 24.8895C212.807 24.8895 211.912 25.1016 211.091 25.4199C210.195 25.6321 209.24 26.0575 208.495 26.4808C207.749 26.9041 207.049 27.5428 206.425 28.2865C205.8 29.0302 205.326 29.986 205.002 31.153C204.472 33.0648 204.791 34.5511 205.887 35.507C206.847 36.5689 208.299 36.9933 210.077 36.9933C211.542 36.9933 212.826 36.8872 213.991 36.4618C215.259 36.0374 216.512 35.2948 217.823 34.3389L217.652 36.4618H225.812V36.465ZM160.872 36.5742L164.791 22.4515H158.199L159.79 16.7173H180.4L178.809 22.4515H172.218L168.3 36.5742H160.872ZM144.375 31.0766C143.33 31.0766 142.716 30.6523 142.427 29.8025C142.035 28.9538 142.015 27.8918 142.399 26.5105C142.781 25.1303 143.42 23.9633 144.254 23.2185C145.013 22.3687 145.938 22.0505 146.909 21.9454C149.106 21.9454 149.815 23.5379 149.064 26.6166C148.682 27.9968 148.073 29.0588 147.314 29.9086C146.348 30.7594 145.422 31.0766 144.375 31.0766ZM137.787 16.7428L130.451 43.1826H137.985L140.4 34.4747C141.184 36.1732 142.622 37.023 144.506 37.023C146.808 37.023 149.106 36.2793 151.46 34.5797C152.631 33.6552 153.646 32.5438 154.465 31.2888C155.313 30.1208 155.994 28.4212 156.629 26.5105C157.395 23.75 157.34 21.3078 156.436 19.29C155.531 17.2722 153.627 16.2102 150.698 16.2102C149.547 16.2102 148.413 16.5285 147.115 17.06C145.817 17.5904 144.714 18.5463 143.762 19.7144H143.657L144.482 16.7417L137.787 16.7428ZM85.0665 36.5742H92.4953L96.4119 22.4515H102.376L98.4575 36.5742H105.991L111.499 16.7173H90.5751L85.0665 36.5742ZM86.1818 24.2561C86.5592 21.3895 85.9968 19.2645 84.3631 17.9915C82.7 16.8223 80.575 16.1858 78.0632 16.1858C74.8197 16.1858 72.0748 17.0356 69.5557 18.9473C67.0679 20.753 65.2847 23.4074 64.3419 26.8044C63.4293 30.0964 63.768 32.6447 65.3589 34.4503C66.8756 36.1488 69.1219 37.1047 72.2598 37.1047C74.8751 37.1047 77.459 36.4671 79.6949 35.1929C80.866 34.5264 81.9186 33.665 82.8087 32.6447C83.7307 31.5838 84.3986 30.3096 85.0205 28.8222H77.4872C77.1773 29.5926 76.6999 30.282 76.0907 30.839C75.496 31.4766 74.6755 31.7949 73.7337 31.7949C72.5828 31.7949 71.8637 31.3716 71.6055 30.4146C71.318 29.5649 71.3285 28.3968 71.7706 26.8044C71.918 26.2739 72.1992 25.6363 72.4814 24.9987C72.7626 24.3611 73.0438 23.7246 73.4002 23.1941C73.7567 22.6626 74.2929 22.2383 74.7998 21.9189C75.3068 21.6007 75.889 21.3885 76.6217 21.3885C77.458 21.3885 77.9973 21.7067 78.2691 22.2372C78.6736 22.6616 78.6768 23.4063 78.5461 24.255H86.1818V24.2561Z" fill="#202838"/>
<path fill-rule="evenodd" clip-rule="evenodd" d="M183.421 11.3418L188.876 35.1826L208.756 11.1826L192.909 21.6362L183.421 11.3418Z" fill="#CC2229"/>
<path fill-rule="evenodd" clip-rule="evenodd" d="M182.94 17.1826L177.341 36.1826H187.032L182.94 17.1826ZM206.729 17.1826L191.764 36.1826H201.132L206.729 17.1826Z" fill="#202838"/>
<path fill-rule="evenodd" clip-rule="evenodd" d="M57.7765 7.48633L39.8452 27.536L0 7.65476L37.6656 15.4849L57.7765 7.48633Z" fill="#CC2229"/>
<path fill-rule="evenodd" clip-rule="evenodd" d="M3.58496 47.0002L24.5984 23.5036L71.295 46.8033L27.1525 37.6257L3.58496 47.0002ZM36.4861 0.202933C33.0387 0.477906 30.4527 3.47623 30.7326 6.87738C31.0125 10.2785 34.0534 12.8274 37.5007 12.5514C40.9501 12.2764 43.5351 9.27807 43.2552 5.87794C42.9763 2.47679 39.9355 -0.0720406 36.4861 0.202933Z" fill="#202838"/>
</svg>
