<svg width="200" height="50" viewBox="0 0 200 50" fill="none" xmlns="http://www.w3.org/2000/svg">
<path d="M48.5383 40.735C45.8033 38.8041 44.5937 36.8018 45.6288 34.9901C45.6288 34.9901 50.2144 28.542 47.0723 15.0976C47.0723 15.0976 55.7543 11.2955 57.1978 3.59595L50.7853 6.64716C51.0987 6.00355 51.3551 5.33609 51.5415 4.6448C51.7041 4.14421 51.8786 3.53634 51.9831 3L50.4245 3.75088L36.7485 10.1751C36.6784 10.2109 36.6203 10.2586 36.5977 10.3301C35.8641 11.9391 35.6196 13.8461 35.6659 15.8604C34.4207 15.4433 33.1173 15.2048 31.7439 15.2048C29.7188 15.2048 27.81 15.7174 26.1113 16.5875C26.0995 16.5517 26.0876 16.5041 26.065 16.4683C25.9594 16.361 25.7968 16.3372 25.6686 16.4206L24.0399 17.4575L23.6316 14.1798C23.6209 14.0249 23.4808 13.9057 23.3301 13.8938C23.1663 13.8938 23.038 14.013 23.0155 14.1679L22.5264 17.4337L20.9085 16.361C20.7803 16.2776 20.6177 16.2894 20.5132 16.3967C20.4087 16.5041 20.385 16.6708 20.4669 16.802L21.4795 18.4706L18.278 18.8759C18.1154 18.8998 17.999 19.0308 17.999 19.1977C17.999 19.3645 18.1154 19.4957 18.2673 19.5195L21.4557 20.0201L20.3969 21.6649C20.315 21.784 20.3268 21.9628 20.4313 22.0701C20.455 22.094 20.5013 22.1059 20.5357 22.1179C19.5814 23.9414 19.0353 26.0272 19.0353 28.2321C19.0353 35.4072 24.7379 41.2475 31.7439 41.2475C33.4782 41.2475 35.1305 40.89 36.644 40.2464C36.7485 40.3298 36.8423 40.4013 36.9586 40.4847C41.8932 44.1677 45.4306 42.7374 48.213 43.9769C50.5052 45.0019 51.5059 46.9328 51.5059 46.9328L55.708 45.4906C54.0782 42.5228 50.6453 42.2248 48.5383 40.735ZM37.1212 10.7115L51.018 4.2038C50.8079 5.0262 50.5052 5.83668 50.1218 6.6114L40.3797 11.2359C40.3096 11.2717 40.2515 11.3193 40.2289 11.3908C38.5647 15.1095 38.4483 20.0916 38.3546 24.4777C38.3201 25.9676 38.2845 27.374 38.1919 28.5898C38.1219 27.7197 37.983 26.7542 37.7848 25.7411C37.7029 25.3478 37.6222 24.9426 37.5403 24.5373C36.5859 19.7936 35.5033 14.4063 37.1212 10.7115ZM32.3956 32.2369C32.1047 31.9389 31.8258 31.1523 30.8132 30.8782C30.3123 30.7351 29.8232 30.7947 29.4636 30.8782C29.1027 30.9616 28.5673 30.89 28.1709 30.7113C28.0082 30.6517 27.81 30.5444 27.81 30.5444C27.5429 30.4252 27.2521 30.306 26.9494 30.3417C26.4947 30.4013 25.8324 30.8424 25.8324 30.8424L27.8919 31.8197C27.8919 31.8197 28.2991 32.0104 28.5899 32.3918C29.4517 33.5598 30.1615 33.9294 30.6269 34.1558C32.3149 35.5741 32.8965 37.1117 35.6196 39.424C34.41 39.865 33.0947 40.1272 31.732 40.1272C25.3196 40.1272 20.106 34.7875 20.106 28.2321C20.106 25.5504 20.9785 23.0833 22.4338 21.0928C22.422 21.0928 22.4101 21.0928 22.3982 21.0928L22.422 21.069L22.8173 24.3585C22.841 24.5134 22.9692 24.6446 23.1318 24.6446C23.2826 24.6446 23.4227 24.5254 23.4464 24.3704L23.9461 21.1047L25.5404 22.1893C25.6686 22.2728 25.8324 22.2608 25.9368 22.1536C26.0413 22.0463 26.065 21.8794 25.9831 21.7483L24.9706 20.0797L28.1827 19.6744C28.3335 19.6506 28.4617 19.5195 28.4617 19.3526C28.4617 19.1857 28.3454 19.0547 28.1946 19.0308L25.005 18.5184C26.9031 17.1477 29.2072 16.3253 31.7095 16.3253C33.1054 16.3253 34.4444 16.5994 35.6778 17.0642C35.8523 19.5671 36.3876 22.2012 36.8767 24.6803C36.9586 25.0856 37.0393 25.4789 37.1212 25.8841C37.691 28.7804 37.983 32.0104 37.0168 32.8566C35.1198 33.9055 32.8965 32.7494 32.3956 32.2369Z" fill="#202838"/>
<path fill-rule="evenodd" clip-rule="evenodd" d="M59.305 30.0196C61.0499 31.8432 63.2614 32.749 65.9263 32.749C67.5562 32.749 69.0459 32.3676 70.3849 31.5809C71.7346 30.8062 72.7934 29.7574 73.5496 28.4463L70.5356 26.6585C70.1166 27.457 69.4887 28.0888 68.6732 28.5416C67.8588 29.0065 66.9389 29.233 65.9263 29.233C64.2039 29.233 62.8198 28.6847 61.7598 27.5762C60.7009 26.4797 60.1774 25.0494 60.1774 23.2974C60.1774 21.5214 60.7009 20.0911 61.7598 18.9828C62.808 17.8743 64.2039 17.326 65.9263 17.326C66.9389 17.326 67.847 17.5644 68.6613 18.0174C69.4649 18.4702 70.0929 19.1138 70.5356 19.9244L73.5496 18.1365C72.7934 16.8134 71.7346 15.7766 70.373 15.0019C69.0115 14.2271 67.5324 13.8457 65.9263 13.8457C63.2495 13.8457 61.0499 14.7515 59.305 16.5632C57.5707 18.3629 56.697 20.6156 56.697 23.2974C56.697 25.9553 57.5588 28.2079 59.305 30.0196ZM169.696 44.4414C170.464 45.2399 171.43 45.6452 172.605 45.6452C173.316 45.6452 173.956 45.5022 174.55 45.1565C175.143 44.8109 175.609 44.358 175.946 43.7739L174.62 42.9873C174.433 43.3329 174.165 43.607 173.804 43.8097C173.443 44.0123 173.036 44.1077 172.595 44.1077C171.837 44.1077 171.221 43.8693 170.756 43.3807C170.289 42.892 170.057 42.2722 170.057 41.4974C170.057 40.7227 170.289 40.091 170.756 39.6024C171.221 39.1137 171.837 38.8753 172.595 38.8753C173.048 38.8753 173.443 38.9707 173.804 39.1733C174.165 39.364 174.433 39.65 174.63 40.0077L175.957 39.221C175.632 38.637 175.155 38.184 174.562 37.8383C173.968 37.4928 173.316 37.3259 172.605 37.3259C171.43 37.3259 170.464 37.7192 169.696 38.5178C168.928 39.3163 168.544 40.3056 168.544 41.4855C168.544 42.6536 168.928 43.6429 169.696 44.4414ZM134.874 37.4815H136.41L134.07 43.2741C133.442 44.8235 132.418 45.5625 130.986 45.479V44.0011C131.405 44.0369 131.742 43.9773 131.999 43.8224C132.255 43.6673 132.464 43.4171 132.638 43.0596L130.078 37.4696H131.615L133.326 41.3313L134.874 37.4815ZM123.595 38.9949V37.4932H119.162V45.4907H120.698V38.9949H123.595ZM129.159 38.256C128.646 37.7434 128.018 37.4812 127.262 37.4812H124.353V45.4787H125.889V42.8447H127.262C128.018 42.8447 128.646 42.5825 129.159 42.07C129.671 41.5574 129.927 40.9138 129.927 40.163C129.927 39.4121 129.671 38.7685 129.159 38.256ZM128.077 41.033C127.856 41.2595 127.588 41.3787 127.262 41.3787H125.889V38.9592H127.262C127.588 38.9592 127.856 39.0784 128.077 39.3048C128.297 39.5313 128.403 39.8292 128.403 40.1749C128.403 40.5087 128.297 40.8066 128.077 41.033ZM142.986 45.4787V37.4812H137.155V45.4787H138.691V38.983H141.45V45.4787H142.986ZM150.166 37.4812V45.4787H148.63V38.983H145.872V45.4787H144.336V37.4812H150.166ZM156.114 44.0366L156.58 45.4787H158.267L155.52 37.4812H153.611L150.876 45.4787H152.541L153.006 44.0366H156.114ZM155.626 42.5706H153.483L154.555 39.3048L155.626 42.5706ZM167.59 37.4812V45.4787H166.053V38.983H163.295V45.4787H161.759V37.4812H167.59ZM179.775 40.5087C180.531 40.5087 181.16 40.735 181.637 41.1999C182.126 41.6647 182.359 42.2606 182.359 42.9877C182.359 43.7268 182.115 44.3227 181.637 44.7875C181.148 45.2524 180.531 45.4787 179.775 45.4787H176.784V37.4812H181.696V38.9949H178.321V40.5205H179.775V40.5087ZM179.775 44.0009C180.078 44.0009 180.334 43.9055 180.531 43.7266C180.729 43.5479 180.834 43.2976 180.834 42.9758C180.834 42.654 180.729 42.4037 180.531 42.2369C180.334 42.0581 180.078 41.9747 179.775 41.9747H178.321V44.0009H179.775ZM92.7297 14.2155V32.3916H89.2623V20.604L84.2684 29.0425H83.8612L78.8685 20.6278V32.3916H75.3655V14.2155H78.9623L84.0595 22.8089L89.1341 14.2155H92.7297ZM109.012 32.3916V14.2155H95.7567V32.3797H99.2596V17.6361H105.521V32.3916H109.012ZM125.959 21.0927C127.681 21.0927 129.089 21.617 130.194 22.6659C131.289 23.7147 131.848 25.0734 131.848 26.7302C131.848 28.4107 131.301 29.7695 130.194 30.8184C129.101 31.8672 127.681 32.3916 125.959 32.3916H119.162V14.2155H130.322V17.6481H122.665V21.1045H125.959V21.0927ZM125.959 29.0425C126.657 29.0425 127.227 28.8398 127.681 28.4346C128.135 28.0293 128.367 27.4573 128.367 26.7302C128.367 26.0031 128.135 25.443 127.681 25.0377C127.227 24.6444 126.645 24.4418 125.959 24.4418H122.665V29.0425H125.959ZM143.987 29.1139L145.057 32.3916H148.851L142.613 14.2155H138.272L132.057 32.3916H135.84L136.911 29.1139H143.987ZM142.904 25.7648H138.039L140.472 18.3393L142.904 25.7648ZM160.467 14.2155H163.935V32.3916H160.467V24.8589H153.88V32.3916H150.377V14.2155H153.88V21.4382H160.467V14.2155ZM176.796 32.3916H180.823L174.002 23.0473L180.567 14.2155H176.539L170.453 22.2369V14.2155H166.949V32.3916H170.453V23.8697L176.796 32.3916Z" fill="#202838"/>
<path d="M182.999 35.6934H59.1647L58.0002 34.1797H181.824L182.999 35.6934Z" fill="#202838"/>
</svg>
