<svg width="200" height="50" viewBox="0 0 200 50" fill="none" xmlns="http://www.w3.org/2000/svg">
<path d="M0 40.64H21.79V45.16H0V40.64ZM157.58 26.13L164.45 18.55H159.33L153.7 24.85V18.55H149.62V34.48H153.72V27.77L159.74 34.48H165L157.58 26.13ZM24.19 27.18C24.08 30.18 23.7 30.75 22.04 30.75V34.49H22.66C26.83 34.49 27.82 32.34 27.97 27.55L28.15 22.25H32V34.48H36.08V18.55H24.47L24.19 27.18ZM6.48 29.92H15.08L16.51 34.48H21.28L14.85 15.32C14.23 13.47 13.51 12 11.05 12C8.59 12 7.84 13.47 7.18 15.32L0.440001 34.48H4.92L6.48 29.92ZM10.84 17H10.95L13.83 26.08H7.77L10.84 17ZM106.15 20.81H101.6V16.31H112.16V12.31H97.32V34.48H106.15C111.04 34.48 113.85 32.04 113.85 27.58C113.85 23.35 111 20.81 106.15 20.81ZM105.94 30.47H101.6V24.71H105.94C108.2 24.71 109.47 25.71 109.47 27.59C109.47 29.47 108.2 30.47 105.94 30.47ZM65.59 18.18V12.28H61.52V18.18C59.3829 18.2505 57.3611 19.1663 55.8986 20.7262C54.4362 22.2862 53.6526 24.3628 53.72 26.5C53.6472 28.6416 54.428 30.7244 55.8908 32.2903C57.3535 33.8563 59.3784 34.777 61.52 34.85V40.85H65.6V34.85C66.6608 34.8151 67.7044 34.5714 68.6708 34.1326C69.6373 33.6939 70.5077 33.0688 71.2323 32.2932C71.9568 31.5175 72.5212 30.6066 72.8932 29.6125C73.2652 28.6184 73.4374 27.5607 73.4 26.5C73.4428 25.4386 73.2737 24.3793 72.9028 23.384C72.5318 22.3886 71.9663 21.4771 71.2393 20.7026C70.5123 19.9282 69.6383 19.3062 68.6684 18.8731C67.6984 18.44 66.652 18.2044 65.59 18.18ZM61.53 31C60.4502 30.8814 59.4603 30.3431 58.7738 29.5013C58.0872 28.6595 57.759 27.5816 57.86 26.5C57.772 25.4211 58.1049 24.35 58.7891 23.5112C59.4732 22.6723 60.4555 22.1308 61.53 22V31ZM65.61 31V22C66.6845 22.1308 67.6668 22.6723 68.3509 23.5112C69.0351 24.35 69.368 25.4211 69.28 26.5C69.3757 27.5805 69.0456 28.6556 68.36 29.4963C67.6745 30.3369 66.6877 30.8765 65.61 31ZM88.69 29.59V24.22C88.69 20.3 86.2 17.85 82.02 17.85C77.84 17.85 75.4 20.45 75.2 23.16H79.33C79.47 22.58 80.09 21.55 82.01 21.55C82.369 21.5038 82.733 21.5416 83.074 21.6606C83.416 21.7796 83.725 21.9763 83.977 22.2354C84.229 22.4944 84.418 22.8086 84.528 23.153C84.638 23.4975 84.666 23.8628 84.61 24.22H80.61C76.99 24.22 74.84 26.13 74.84 29.29C74.8118 30.0441 74.9422 30.7957 75.2228 31.4962C75.5035 32.1967 75.9281 32.8304 76.4692 33.3564C77.0102 33.8824 77.6557 34.2889 78.3639 34.5497C79.072 34.8104 79.827 34.9195 80.58 34.87C81.4301 34.9147 82.278 34.7492 83.049 34.3882C83.82 34.0271 84.49 33.4817 85 32.8C85.332 33.3615 85.816 33.8173 86.397 34.1146C86.977 34.412 87.63 34.5387 88.28 34.48H89.69V30.8C89 30.8 88.69 30.47 88.69 29.59ZM84.61 28.59C84.627 28.9839 84.56 29.3769 84.413 29.743C84.267 30.1091 84.045 30.4401 83.762 30.7141C83.478 30.9881 83.14 31.1989 82.769 31.3327C82.398 31.4664 82.003 31.52 81.61 31.49C80.14 31.49 78.98 30.96 78.98 29.37C78.98 27.78 80.27 27.55 81.36 27.55H84.61V28.59ZM46.24 23.39H43.31V18.55H39.23V34.48H46.31C50.74 34.48 52.31 31.6 52.31 28.88C52.33 25.37 50.13 23.39 46.24 23.39ZM45.94 31H43.31V27H45.94C47.35 27 48.2 27.64 48.2 29C48.2 30.36 47.39 31 45.94 31ZM129.42 29.59V24.22C129.42 20.3 126.93 17.85 122.75 17.85C118.57 17.85 116.13 20.45 115.93 23.16H120.06C120.2 22.58 120.82 21.55 122.74 21.55C123.099 21.5038 123.463 21.5416 123.804 21.6606C124.146 21.7796 124.455 21.9763 124.707 22.2354C124.959 22.4944 125.148 22.8086 125.258 23.153C125.368 23.4975 125.396 23.8628 125.34 24.22H121.34C117.72 24.22 115.57 26.13 115.57 29.29C115.542 30.0441 115.672 30.7957 115.953 31.4962C116.233 32.1967 116.658 32.8304 117.199 33.3564C117.74 33.8824 118.386 34.2889 119.094 34.5497C119.802 34.8104 120.557 34.9195 121.31 34.87C122.168 34.9231 123.026 34.7617 123.807 34.4004C124.587 34.039 125.265 33.489 125.78 32.8C126.107 33.3517 126.582 33.8012 127.151 34.098C127.72 34.3948 128.36 34.5271 129 34.48H130.41V30.8C129.7 30.8 129.42 30.47 129.42 29.59ZM125.36 28.59C125.375 28.9835 125.307 29.3757 125.16 29.7411C125.013 30.1065 124.791 30.4368 124.508 30.7105C124.225 30.9841 123.887 31.195 123.517 31.3294C123.147 31.4637 122.753 31.5184 122.36 31.49C120.89 31.49 119.73 30.96 119.73 29.37C119.73 27.78 121.02 27.55 122.11 27.55H125.36V28.59ZM142.45 24.48H136.82V18.55H132.74V34.49H136.82V28.21H142.45V34.48H146.53V18.55H142.45V24.48Z" fill="#202838"/>
<rect y="40" width="22" height="6" fill="#EF3124"/>
</svg>
