<svg width="166" height="44" viewBox="0 0 166 44" fill="none" xmlns="http://www.w3.org/2000/svg">
<path d="M31.1369 37.7686C28.4019 35.8378 27.1923 33.8355 28.2274 32.0238C28.2274 32.0238 32.813 25.5757 29.6709 12.1313C29.6709 12.1313 38.353 8.32919 39.7964 0.629638L33.384 3.68086C33.6974 3.03724 33.9538 2.36978 34.1401 1.67849C34.3028 1.1779 34.4773 0.570036 34.5817 0.0336914L33.0231 0.784572L19.3471 7.20883C19.2771 7.24458 19.2189 7.29226 19.1964 7.36376C18.4628 8.97282 18.2182 10.8798 18.2645 12.8941C17.0193 12.477 15.7159 12.2385 14.3425 12.2385C12.3174 12.2385 10.4086 12.7511 8.70996 13.6212C8.69809 13.5853 8.68622 13.5377 8.66366 13.502C8.55801 13.3947 8.39539 13.3708 8.26719 13.4543L6.63856 14.4912L6.2302 11.2135C6.21952 11.0586 6.07945 10.9394 5.9287 10.9275C5.76488 10.9275 5.63668 11.0467 5.61413 11.2016L5.12506 14.4674L3.50712 13.3947C3.37892 13.3113 3.21628 13.3231 3.11182 13.4304C3.00736 13.5377 2.98362 13.7045 3.06553 13.8357L4.0781 15.5043L0.876614 15.9096C0.713988 15.9334 0.597656 16.0645 0.597656 16.2314C0.597656 16.3982 0.713985 16.5293 0.865927 16.5532L4.05435 17.0538L2.9955 18.6986C2.9136 18.8177 2.92546 18.9965 3.02992 19.1038C3.05366 19.1277 3.09995 19.1396 3.13438 19.1515C2.17999 20.9751 1.63395 23.0609 1.63395 25.2658C1.63395 32.4409 7.33653 38.2812 14.3425 38.2812C16.0768 38.2812 17.7292 37.9237 19.2427 37.2801C19.3471 37.3635 19.4409 37.435 19.5572 37.5184C24.4918 41.2014 28.0292 39.7711 30.8117 41.0106C33.1038 42.0356 34.1045 43.9665 34.1045 43.9665L38.3067 42.5243C36.6769 39.5565 33.2439 39.2585 31.1369 37.7686ZM19.7198 7.74517L33.6166 1.23749C33.4065 2.05989 33.1038 2.87037 32.7204 3.64509L22.9783 8.2696C22.9083 8.30536 22.8501 8.35303 22.8276 8.42452C21.1633 12.1432 21.047 17.1252 20.9532 21.5114C20.9188 23.0013 20.8832 24.4077 20.7906 25.6235C20.7205 24.7533 20.5816 23.7879 20.3834 22.7748C20.3015 22.3815 20.2208 21.9762 20.1389 21.571C19.1845 16.8273 18.1019 11.44 19.7198 7.74517ZM14.9942 29.2706C14.7034 28.9726 14.4244 28.1859 13.4119 27.9119C12.9109 27.7688 12.4219 27.8284 12.0622 27.9119C11.7013 27.9953 11.166 27.9237 10.7695 27.745C10.6069 27.6854 10.4086 27.5781 10.4086 27.5781C10.1415 27.4589 9.85071 27.3397 9.54801 27.3754C9.09337 27.435 8.431 27.8761 8.431 27.8761L10.4905 28.8534C10.4905 28.8534 10.8977 29.0441 11.1885 29.4255C12.0503 30.5935 12.7602 30.963 13.2255 31.1895C14.9135 32.6078 15.4951 34.1454 18.2182 36.4577C17.0086 36.8987 15.6934 37.1609 14.3306 37.1609C7.9182 37.1609 2.70466 31.8212 2.70466 25.2658C2.70466 22.5841 3.57714 20.117 5.03247 18.1265C5.0206 18.1265 5.00873 18.1265 4.99686 18.1265L5.0206 18.1027L5.4159 21.3922C5.43964 21.5471 5.56784 21.6783 5.73047 21.6783C5.88122 21.6783 6.02129 21.5591 6.04504 21.4041L6.54477 18.1384L8.13898 19.223C8.26718 19.3065 8.431 19.2945 8.53546 19.1873C8.63992 19.08 8.66366 18.9131 8.58175 18.782L7.5692 17.1134L10.7814 16.7081C10.9321 16.6843 11.0603 16.5532 11.0603 16.3863C11.0603 16.2194 10.944 16.0884 10.7932 16.0645L7.60362 15.552C9.50171 14.1814 11.8058 13.359 14.3081 13.359C15.7041 13.359 17.0431 13.6331 18.2764 14.0979C18.4509 16.6008 18.9863 19.2349 19.4753 21.714C19.5572 22.1193 19.6379 22.5126 19.7198 22.9178C20.2896 25.8141 20.5816 29.0441 19.6154 29.8903C17.7185 30.9392 15.4951 29.7831 14.9942 29.2706Z" fill="white"/>
<path fill-rule="evenodd" clip-rule="evenodd" d="M41.9038 27.0533C43.6488 28.8769 45.8603 29.7827 48.5252 29.7827C50.155 29.7827 51.6448 29.4013 52.9838 28.6146C54.3334 27.8398 55.3923 26.7911 56.1484 25.48L53.1345 23.6922C52.7155 24.4907 52.0875 25.1225 51.272 25.5753C50.4577 26.0402 49.5378 26.2667 48.5252 26.2667C46.8028 26.2667 45.4187 25.7184 44.3587 24.6099C43.2998 23.5134 42.7763 22.0831 42.7763 20.331C42.7763 18.5551 43.2998 17.1248 44.3587 16.0165C45.4068 14.908 46.8028 14.3597 48.5252 14.3597C49.5378 14.3597 50.4459 14.5981 51.2602 15.051C52.0638 15.5039 52.6917 16.1475 53.1345 16.958L56.1484 15.1702C55.3923 13.8471 54.3334 12.8103 52.9719 12.0356C51.6104 11.2608 50.1313 10.8794 48.5252 10.8794C45.8484 10.8794 43.6488 11.7852 41.9038 13.5969C40.1696 15.3966 39.2959 17.6493 39.2959 20.331C39.2959 22.989 40.1577 25.2416 41.9038 27.0533ZM152.295 41.4751C153.063 42.2736 154.029 42.6789 155.204 42.6789C155.915 42.6789 156.555 42.5359 157.148 42.1902C157.742 41.8446 158.207 41.3917 158.545 40.8076L157.219 40.021C157.032 40.3666 156.764 40.6407 156.403 40.8434C156.042 41.046 155.635 41.1414 155.193 41.1414C154.436 41.1414 153.82 40.903 153.355 40.4144C152.888 39.9257 152.656 39.3059 152.656 38.5311C152.656 37.7564 152.888 37.1247 153.355 36.6361C153.82 36.1474 154.436 35.909 155.193 35.909C155.647 35.909 156.042 36.0044 156.403 36.207C156.764 36.3977 157.032 36.6837 157.229 37.0414L158.556 36.2547C158.231 35.6707 157.754 35.2177 157.16 34.872C156.567 34.5265 155.915 34.3596 155.204 34.3596C154.029 34.3596 153.063 34.7528 152.295 35.5515C151.527 36.35 151.143 37.3393 151.143 38.5192C151.143 39.6873 151.527 40.6766 152.295 41.4751ZM117.472 34.5152H119.009L116.669 40.3078C116.041 41.8572 115.017 42.5962 113.585 42.5127V41.0348C114.004 41.0706 114.341 41.011 114.597 40.8561C114.854 40.701 115.063 40.4508 115.237 40.0933L112.677 34.5033H114.214L115.925 38.365L117.472 34.5152ZM106.194 36.0286V34.5269H101.761V42.5244H103.297V36.0286H106.194ZM111.758 35.2897C111.245 34.7771 110.617 34.5149 109.861 34.5149H106.952V42.5124H108.488V39.8784H109.861C110.617 39.8784 111.245 39.6161 111.758 39.1037C112.27 38.5911 112.526 37.9475 112.526 37.1967C112.526 36.4458 112.27 35.8021 111.758 35.2897ZM110.675 38.0667C110.455 38.2932 110.186 38.4124 109.861 38.4124H108.488V35.9929H109.861C110.186 35.9929 110.455 36.1121 110.675 36.3385C110.896 36.5649 111.002 36.8629 111.002 37.2086C111.002 37.5424 110.896 37.8403 110.675 38.0667ZM125.585 42.5124V34.5149H119.754V42.5124H121.29V36.0166H124.049V42.5124H125.585ZM132.765 34.5149V42.5124H131.229V36.0166H128.471V42.5124H126.934V34.5149H132.765ZM138.712 41.0703L139.179 42.5124H140.866L138.119 34.5149H136.21L133.475 42.5124H135.139L135.605 41.0703H138.712ZM138.225 39.6043H136.082L137.154 36.3385L138.225 39.6043ZM150.189 34.5149V42.5124H148.652V36.0166H145.894V42.5124H144.358V34.5149H150.189ZM162.374 37.5424C163.13 37.5424 163.759 37.7687 164.236 38.2336C164.725 38.6984 164.958 39.2943 164.958 40.0214C164.958 40.7605 164.713 41.3564 164.236 41.8212C163.747 42.2861 163.13 42.5124 162.374 42.5124H159.382V34.5149H164.294V36.0286H160.92V37.5542H162.374V37.5424ZM162.374 41.0345C162.676 41.0345 162.933 40.9392 163.13 40.7603C163.328 40.5816 163.433 40.3313 163.433 40.0095C163.433 39.6877 163.328 39.4374 163.13 39.2706C162.933 39.0918 162.676 39.0084 162.374 39.0084H160.92V41.0345H162.374ZM75.3286 11.2492V29.4253H71.8612V17.6377L66.8673 26.0762H66.4601L61.4674 17.6615V29.4253H57.9644V11.2492H61.5612L66.6584 19.8426L71.733 11.2492H75.3286ZM91.6113 29.4253V11.2492H78.3555V29.4134H81.8585V14.6698H88.1202V29.4253H91.6113ZM108.558 18.1264C110.28 18.1264 111.688 18.6507 112.793 19.6996C113.888 20.7484 114.447 22.1071 114.447 23.7639C114.447 25.4444 113.899 26.8032 112.793 27.8521C111.7 28.9009 110.28 29.4253 108.558 29.4253H101.761V11.2492H112.921V14.6818H105.264V18.1382H108.558V18.1264ZM108.558 26.0762C109.256 26.0762 109.825 25.8735 110.28 25.4683C110.734 25.063 110.966 24.491 110.966 23.7639C110.966 23.0368 110.734 22.4767 110.28 22.0714C109.825 21.6781 109.244 21.4755 108.558 21.4755H105.264V26.0762H108.558ZM126.585 26.1476L127.656 29.4253H131.45L125.212 11.2492H120.871L114.656 29.4253H118.439L119.509 26.1476H126.585ZM125.503 22.7985H120.638L123.071 15.373L125.503 22.7985ZM143.065 11.2492H146.534V29.4253H143.065V21.8926H136.478V29.4253H132.976V11.2492H136.478V18.4719H143.065V11.2492ZM159.394 29.4253H163.422L156.601 20.081L163.166 11.2492H159.138L153.052 19.2706V11.2492H149.548V29.4253H153.052V20.9034L159.394 29.4253Z" fill="white"/>
<path d="M165.597 32.7271H41.7631L40.5986 31.2134H164.422L165.597 32.7271Z" fill="white"/>
</svg>
