<svg width="201" height="50" viewBox="0 0 201 50" fill="none" xmlns="http://www.w3.org/2000/svg">
<path fill-rule="evenodd" clip-rule="evenodd" d="M18.6906 28.0637L23.553 23.3003V20.055L18.6906 24.8074V28.0637ZM18.6906 15.9846L23.553 11.1991V8.1518L18.6906 12.8933V15.9736V15.9846ZM18.6906 19.978L23.553 15.2145V12.1562L18.6906 16.9086V19.978ZM17.3044 8.1848L16.6444 7.56874V0H15.9183V6.84267L15.2802 6.21561V0H14.5431V5.50054L13.8941 4.86247V0H13.168V7.2167L18.0525 11.9802V0H17.3154V8.1848H17.3044ZM18.6906 23.9713L23.553 19.2079V16.1496L18.6906 20.902V23.9713ZM13.157 23.3003L18.0415 28.0637V24.8074L13.157 20.055V23.3003ZM22.827 4.86247L22.1779 5.50054V0H21.4518V6.22661L20.7918 6.84267V0H20.0657V7.55774L19.4276 8.1848V0H18.6906V11.9912L23.553 7.2167V0H22.827V4.86247ZM13.157 11.1991L18.0415 15.9846V12.9043L13.157 8.14079V11.1881V11.1991ZM13.157 15.2145L18.0415 19.978V16.8976L13.157 12.1672V15.2145ZM13.157 19.2079L18.0415 23.9713V20.902L13.157 16.1606V19.2079ZM42.1668 21.7271H30.3297C30.588 21.3272 30.7256 20.8611 30.7257 20.385C30.7197 18.9948 29.5527 17.8377 28.1625 17.8437C26.7807 17.8497 25.6272 19.0032 25.6212 20.385C25.6212 20.935 25.7972 21.4411 26.0943 21.8591C25.8728 22.0065 25.7334 22.2642 25.7312 22.5302C25.7312 22.8162 25.8853 23.0693 26.0943 23.2123C25.7878 23.6428 25.6225 24.1579 25.6212 24.6864C25.6212 26.0705 26.7783 27.2277 28.1625 27.2277C29.5527 27.2337 30.7197 26.0766 30.7257 24.6864C30.7257 24.1914 30.5827 23.7293 30.3297 23.3443H39.1415V23.8833H38.2615V24.6314H39.1415V25.4015H38.2615V26.8316H39.1415V26.1936H40.4287V26.8316H41.2978V25.4015H40.4287V24.6314H41.2978V23.8833H40.4287V23.3333H42.1668C42.5024 23.3333 42.7829 23.0528 42.7829 22.7172V22.3432C42.7771 22.01 42.5 21.7329 42.1668 21.7271ZM29.4826 24.6974C29.4826 25.4164 28.8815 26.0175 28.1625 26.0175C27.4434 26.0175 26.8423 25.4164 26.8423 24.6974C26.8423 24.1923 27.1858 23.768 27.4364 23.3553C27.1983 23.1519 27.0584 22.8433 27.0624 22.5302C27.0624 22.2002 27.2054 21.9141 27.4254 21.7161C27.1885 21.3015 26.8454 20.8722 26.8533 20.374C26.8533 19.655 27.4544 19.0539 28.1735 19.0539C28.8925 19.0539 29.4936 19.655 29.4936 20.374C29.4936 20.913 28.8775 22.1892 28.8775 22.1892V22.8712C28.8665 22.8822 29.4826 24.1584 29.4826 24.6974ZM8.73458 20.176V23.3553C8.73458 26.3806 10.0547 28.3388 10.8248 29.0868L15.8633 34.0373C17.2714 35.4125 17.5134 35.8635 17.8325 36.6446V33.1242C17.8325 30.2592 16.5003 29.0038 15.6429 28.1959C14.1452 26.7845 12.6759 25.3384 11.2208 23.8833C10.1201 22.8534 9.26962 21.5853 8.73458 20.176ZM11.2208 31.7381C10.1972 30.8104 9.35751 29.6983 8.74558 28.4598V31.199C8.7127 33.3098 9.45212 35.3598 10.8248 36.9636L15.8633 41.8811C17.2221 43.2081 17.4951 43.8692 17.7992 44.6059L17.8325 44.6864V40.979C17.8325 38.1088 16.4956 36.8519 15.645 36.0523L15.6445 36.0518L15.6432 36.0506C14.1483 34.6448 12.6728 33.19 11.2208 31.7381ZM25.4572 5.8744C25.1086 5.8744 24.7599 5.87461 24.4112 5.8964V7.37055C32.8085 6.72655 40.9378 11.5068 44.4572 19.1581C45.6105 21.6653 46.2417 24.3809 46.3127 27.1397C46.455 32.6746 44.2766 38.1335 40.3627 42.0497C36.4489 45.9659 30.9913 48.1476 25.4563 48.0085C20.0605 48.0144 14.8833 45.8772 11.0627 42.067C7.24217 38.2568 5.09106 33.0853 5.08232 27.6895C5.08232 21.4519 7.88759 15.8854 12.321 12.145V10.2528C9.61099 12.2805 7.41133 14.9125 5.8969 17.9394C4.38247 20.9664 3.59503 24.3049 3.59717 27.6895C3.59717 39.7357 13.3881 49.5047 25.4673 49.5047C31.257 49.5076 36.8108 47.2112 40.9078 43.1204C45.0048 39.0296 47.3096 33.4792 47.3154 27.6895C47.3154 15.6437 37.525 5.8749 25.4572 5.8744ZM41.8809 37.6565C41.5839 38.1516 41.2538 38.6356 40.9238 39.0866V34.7302H41.8809V37.6565ZM43.8101 33.3699C43.7796 33.4703 43.7488 33.5716 43.7181 33.6741C43.19 33.1351 42.2439 33.1461 41.3969 33.1681H40.9238V32.398H44.0921C44.0077 32.7186 43.9104 33.0394 43.8101 33.3699ZM21.7489 32.277H22.607V32.288V40.9788H21.7489V32.277ZM19.7686 30.615H22.6069C23.344 30.615 23.861 30.769 24.1471 31.055C24.4441 31.33 24.5871 31.8471 24.5871 32.5732V40.7139C24.5871 41.44 24.4551 41.9461 24.1471 42.2321C23.707 42.6831 22.871 42.6831 22.1889 42.6831L21.7488 42.6721V46.5225L22.6069 46.6765V43.5082C23.9271 43.5082 24.7741 43.0682 25.1812 42.1661V46.8855H25.4672L26.0173 46.8745V32.7162C26.0173 31.9681 26.1603 31.44 26.4573 31.143C26.7323 30.846 27.2494 30.703 27.9644 30.703C28.0656 30.703 28.1732 30.7009 28.285 30.6987C28.9878 30.6852 29.8566 30.6685 30.3407 31.143C30.6267 31.44 30.7587 31.9791 30.7587 32.7162V36.8966H28.8115V32.4301H27.9644V46.7205C28.2505 46.6875 28.5145 46.6435 28.8115 46.5885V37.7327H30.7587V46.1375C31.1548 46.0275 31.5508 45.9064 31.9468 45.7634V38.0627C31.9468 37.1826 32.1559 36.5225 33.0469 36.2255L32.0568 30.868H34.037L34.3671 36.7095H34.6091L34.9391 30.868H37.0073L35.8962 36.2255C36.8203 36.5555 37.0073 37.1166 37.0073 38.0517V43.0352C37.5844 42.6024 38.1355 42.1359 38.6575 41.638V30.824H44.4331L44.5431 30.0319H31.0227L31.2098 31.011C30.7917 30.2189 29.9776 29.8229 28.7895 29.8229H27.9424C26.5123 29.8229 25.6322 30.3949 25.3022 31.528C25.0052 30.3399 24.0921 29.7459 22.5959 29.7459H18.8996V45.7194C19.1856 45.8184 19.4716 45.9174 19.7576 45.9945V30.626L19.7686 30.615ZM37.6894 36.7536L36.7543 35.8735L37.6894 31.066V36.7536ZM34.1767 44.7944C34.1263 44.8203 34.076 44.8463 34.026 44.8722V44.8612V37.8205H34.9061V44.3991C34.6774 44.5364 34.4258 44.666 34.1767 44.7944Z" fill="white"/>
<path fill-rule="evenodd" clip-rule="evenodd" d="M166.733 19.0103L166.487 17.1445C165.693 17.3238 164.879 17.4068 164.076 17.5318C162.398 17.7824 160.75 18.4637 159.746 19.8904C158.69 21.4307 158.513 23.4085 158.513 25.2237C158.513 28.1901 159.651 31.0499 162.931 31.0499C165.606 31.0499 167.244 28.8459 167.244 26.3502C167.244 23.8893 165.898 21.8266 163.266 21.8266C162.404 21.8266 161.541 22.1 160.819 22.5659C160.984 21.4628 161.359 20.7001 161.946 20.2072C162.596 19.6353 163.501 19.4247 164.34 19.3271C165.141 19.2413 165.943 19.1685 166.733 19.0103ZM160.749 24.4316C161.28 23.8737 162.127 23.6396 162.879 23.6396C164.409 23.6396 165.079 24.9753 165.079 26.3502C165.079 27.7044 164.495 29.2017 162.931 29.2017C161.668 29.2017 161.001 28.2086 160.819 27.0543C160.689 26.2321 160.62 25.2675 160.749 24.4316ZM172.692 29.3071C173.349 29.3071 173.847 29.2719 174.188 29.2015V26.8429C173.56 26.6545 172.861 26.6452 172.216 26.7373C171.542 26.8384 170.931 27.2223 170.931 27.9694C170.931 29.0104 171.78 29.3071 172.692 29.3071ZM172.516 21.3688C174.855 21.3688 176.247 22.6601 176.247 25.0123V30.5921C174.579 30.9495 172.685 31.2269 171.002 30.8385C169.593 30.5134 168.802 29.4568 168.802 28.0222C168.802 26.5845 169.785 25.5936 171.16 25.3116C172.155 25.0878 173.198 25.1091 174.188 25.3468C174.188 24.0743 173.722 23.1641 172.304 23.1641C171.517 23.1641 170.691 23.2452 169.946 23.5162L169.682 21.7912C170.577 21.4797 171.573 21.3688 172.516 21.3688ZM184.453 30.8033H186.583V21.5976H184.453V25.1884H180.985V21.5976H178.855V30.8033H180.985V26.9485H184.453V30.8033ZM191.419 25.294V21.5976H189.289V30.8033H191.419V26.6669C192.878 27.7475 194.165 29.2748 195.133 30.8033H197.597C196.555 28.9387 195.044 27.1585 193.408 25.7868C194.758 24.4374 196.1 23.055 197.333 21.5976H194.834C193.756 22.8771 192.602 24.1114 191.419 25.294ZM149.624 21.8799C150.549 21.5244 151.614 21.387 152.599 21.387C154.237 21.387 156.366 21.9764 156.366 23.9745C156.366 24.8555 155.818 25.6125 155.028 25.9811C156.067 26.3735 156.665 27.2284 156.665 28.3397C156.665 30.4182 154.428 31.0328 152.687 31.0328C151.605 31.0328 150.395 30.9176 149.396 30.4695L149.765 28.7446C150.652 29.1178 151.626 29.255 152.582 29.255C153.872 29.255 154.518 28.8795 154.518 28.1285C154.518 27.1307 153.491 26.8788 152.652 26.8788H150.892V25.2946H152.634C153.344 25.2946 154.218 25.0796 154.218 24.2209C154.218 23.3672 153.181 23.1472 152.511 23.1472C151.703 23.1472 150.758 23.2733 150.012 23.6049L149.624 21.8799ZM148.093 26.1916C148.093 23.6024 146.388 21.3688 143.675 21.3688C140.957 21.3688 139.257 23.6036 139.257 26.1916C139.257 28.7854 140.944 31.0497 143.675 31.0497C146.42 31.0497 148.093 28.7977 148.093 26.1916ZM145.91 26.1916C145.91 27.5903 145.305 29.2015 143.675 29.2015C142.031 29.2015 141.44 27.6015 141.44 26.1916C141.44 24.7893 142.048 23.217 143.675 23.217C145.287 23.217 145.91 24.8004 145.91 26.1916ZM134.069 24.6075L136.023 21.5976H138.259L135.231 25.9452C136.414 27.4787 137.608 29.0718 138.487 30.8033H136.182C135.606 29.5878 134.796 28.4318 133.999 27.3534C133.164 28.4266 132.447 29.5997 131.816 30.8033H129.634C130.488 29.0952 131.648 27.5147 132.82 26.0156L129.775 21.5976H132.116L134.069 24.6075ZM124.004 24.8715C123.664 24.9067 123.406 24.9478 123.23 24.9947V21.5976H121.1V30.5745C122.332 30.8588 123.585 30.9969 124.849 30.9969C126.853 30.9969 128.827 30.1958 128.827 27.9166C128.827 25.2625 126.17 24.6474 124.004 24.8715ZM123.898 29.3072C123.605 29.2837 123.382 29.2602 123.23 29.2367V26.6141C123.406 26.5672 123.629 26.5378 123.898 26.5261C124.915 26.4377 126.697 26.4539 126.697 27.8814C126.697 29.412 125.016 29.3501 123.898 29.3072ZM113.913 23.3578C113.877 24.9685 113.861 26.6371 113.28 28.163C112.645 29.8292 111.169 30.8077 109.425 30.9793L109.126 29.2015C110.549 28.9224 111.336 27.9763 111.59 26.5789C111.766 25.7504 111.832 24.8896 111.854 24.0442C111.875 23.2288 111.872 22.4132 111.872 21.5976H118.384V30.8033H116.254V23.3578H113.913ZM99.739 26.2444C99.739 29.1098 101.587 31.0321 104.474 31.0321C105.432 31.0321 106.577 30.9222 107.449 30.4865L107.167 28.7439C106.414 29.0665 105.55 29.1839 104.738 29.1839C103.236 29.1839 102.064 28.4367 101.939 26.8605H108.012C108.038 26.5998 108.047 26.3304 108.047 26.0684C108.047 23.5227 106.77 21.3688 104.016 21.3688C101.323 21.3688 99.739 23.7448 99.739 26.2444ZM105.917 25.294H101.957C102.104 24.1683 102.798 23.1465 104.034 23.1465C105.229 23.1465 105.917 24.1778 105.917 25.294ZM91.4367 26.2092C91.4367 23.5538 93.2565 21.3688 95.9955 21.3688C96.8639 21.3688 97.6853 21.5272 98.4597 21.844L98.0021 23.5866C97.4277 23.3404 96.7955 23.217 96.1715 23.217C94.4277 23.217 93.6193 24.6012 93.6193 26.2092C93.6193 27.9534 94.4845 29.1839 96.3123 29.1839C96.9834 29.1839 97.6782 29.0692 98.3013 28.8143L98.6006 30.5745C97.8524 30.9486 96.8881 31.0321 96.0659 31.0321C93.1853 31.0321 91.4367 29.0285 91.4367 26.2092ZM83.1343 26.2092C83.1343 29.0285 84.883 31.0321 87.7635 31.0321C88.5858 31.0321 89.55 30.9486 90.2982 30.5745L89.999 28.8143C89.3759 29.0692 88.681 29.1839 88.01 29.1839C86.1822 29.1839 85.3169 27.9534 85.3169 26.2092C85.3169 24.6012 86.1253 23.217 87.8692 23.217C88.4931 23.217 89.1253 23.3404 89.6997 23.5866L90.1574 21.844C89.3829 21.5272 88.5615 21.3688 87.6931 21.3688C84.9541 21.3688 83.1343 23.5538 83.1343 26.2092ZM81.4506 26.1916C81.4506 28.7977 79.7774 31.0497 77.0325 31.0497C74.302 31.0497 72.6145 28.7854 72.6145 26.1916C72.6145 23.6036 74.315 21.3688 77.0325 21.3688C79.7453 21.3688 81.4506 23.6024 81.4506 26.1916ZM79.268 26.1916C79.268 24.8005 78.6449 23.217 77.0325 23.217C75.4054 23.217 74.7971 24.7893 74.7971 26.1916C74.7971 27.6015 75.3882 29.2015 77.0325 29.2015C78.6621 29.2015 79.268 27.5903 79.268 26.1916ZM69.7796 19.4502C68.8408 18.8048 67.4855 18.4821 65.7136 18.4821C64.5685 18.4821 63.3834 18.5268 62.2637 18.7813V30.8033H64.4815V26.5084H65.5904C66.4822 26.5084 67.2743 26.4322 67.9666 26.2796C69.9202 25.8492 71.2053 24.5336 71.2053 22.4777C71.2053 21.1047 70.7301 20.0956 69.7796 19.4502ZM64.4815 20.4535C64.8453 20.4183 65.3088 20.4007 65.872 20.4007C67.2667 20.4007 68.8819 20.7746 68.8819 22.4601C68.8819 24.3376 67.082 24.6075 65.5552 24.6075H64.4815V20.4535Z" fill="white"/>
</svg>
