<svg width="172" height="36" viewBox="0 0 172 36" fill="none" xmlns="http://www.w3.org/2000/svg">
<path fill-rule="evenodd" clip-rule="evenodd" d="M18.6099 0C8.67386 0 0.597656 8.0732 0.597656 18.0098C0.597656 27.9258 8.67386 36 18.6099 36C28.5235 36 36.5977 27.9258 36.5977 18.0098C36.5977 8.0732 28.5235 0 18.6099 0ZM18.6099 35.0996C9.17386 35.0996 1.49756 27.4297 1.49756 18.0098C1.49756 8.5703 9.17086 0.90039 18.6099 0.90039C28.0298 0.90039 35.6978 8.5742 35.6978 18.0098C35.6978 27.4277 28.0269 35.0996 18.6099 35.0996ZM71.4888 14.8281C71.4888 15.9727 70.4258 16.3486 69.8438 16.3486H68.3047V19.6777H69.7618C70.9898 19.6777 71.5498 20.2607 71.5498 21.1357C71.5498 21.7578 71.0938 22.6143 69.9278 22.6143C69.2408 22.6143 68.5546 22.5742 67.5347 22.1338L67.4717 25.3643C67.8052 25.5459 68.1216 25.6904 68.439 25.8037C69.1719 26.0645 69.9122 26.1602 70.8848 26.1738C73.5077 26.1738 75.5467 24.5508 75.5467 21.6143C75.5467 19.2393 74.1307 18.2227 73.0707 17.8857V17.7412C74.1717 17.2812 75.2977 16.0977 75.2977 14.1396C75.2977 12.1211 73.9867 10.0596 71.0289 10.0596C70.4161 10.0527 69.8047 10.0947 69.2002 10.1836C68.7588 10.249 68.3208 10.3389 67.8887 10.4541L67.9297 13.8291C68.7007 13.4541 69.4908 13.3906 69.9058 13.3906C70.2618 13.3906 71.4888 13.4756 71.4888 14.8281ZM105.243 26.0498C109.509 26.0498 110.943 22.0498 110.943 18.0742C110.943 14.0996 109.509 10.1006 105.243 10.1006C100.977 10.1006 99.5427 14.0996 99.5427 18.0742C99.5427 22.0498 100.977 26.0488 105.243 26.0498ZM105.243 22.2793C103.971 22.2793 103.329 20.8027 103.329 18.0742C103.329 15.3457 103.971 13.8682 105.243 13.8682C106.514 13.8682 107.156 15.3457 107.156 18.0742C107.156 20.8027 106.514 22.2793 105.243 22.2793ZM115.732 10.3301H112.673V25.8613H116.272V16.3877L118.434 19.0938L120.598 16.3877V25.8613H124.201V10.3291H121.163L118.434 13.9941L115.732 10.3301ZM126.635 25.8613H130.921C131.857 25.8613 135.75 25.4648 135.77 20.7578C135.77 16.8076 132.754 16.1182 130.797 16.1182H130.152V14.0576H134.917V10.3301H126.635V25.8613ZM130.152 22.7383V19.2197H130.672C130.893 19.2197 131.291 19.2256 131.63 19.4385C131.96 19.6465 132.234 20.0518 132.234 20.8428C132.234 22.4697 131.108 22.7383 130.672 22.7383H130.152ZM148.715 10.3301H152.232V15.9307H154.75V10.3301H158.265V25.8623H154.75V19.6367H152.232V25.8623H148.715V10.3301ZM160.637 10.3301H164.176L164.155 15.9102H164.924L166.943 10.3301H170.772L168.024 17.7021L171.168 25.8623H167.025L164.988 19.6152H164.155L164.176 25.8613H160.637V10.3301ZM140.121 25.8818H136.458L139.558 10.3516H144.095L147.175 25.8818H143.513L143.075 23.1963H140.559L140.121 25.8818ZM142.492 19.7812L141.826 15.0547L141.139 19.7812H142.492ZM92.7137 25.8613H89.1137V10.3291H93.9227C97.3127 10.3291 98.5827 13.4932 98.5827 15.4912C98.5827 17.5342 97.4787 20.7412 93.9227 20.7412H92.7137V25.8613ZM93.5677 13.7441H92.7137L92.7147 17.3242H93.5677C94.0257 17.3242 94.9007 17.2002 94.9007 15.5342C94.9007 14.2441 94.3797 13.7441 93.5677 13.7441ZM77.2317 10.3301H87.0537V25.8604H83.4527V14.0771H80.8327V25.8613H77.2317V10.3301ZM55.6958 25.8613H59.336L59.795 23.1738H62.313L62.7491 25.8613H66.3887L63.3086 10.3291H58.774L55.6958 25.8613ZM61.042 15.0137L61.73 19.7607H60.355L61.042 15.0137ZM56.1084 10.3301H48.7247V25.8604H52.3848V14.2002H56.1084V10.3301ZM23.7173 6.6934C20.8687 5.4229 15.5606 5.2969 11.2124 7.2334C11.7725 6.833 12.3721 6.4932 13.0025 6.2168C14.3716 5.5791 16.5796 4.9609 19.3316 4.9609C19.4615 4.9609 19.5914 4.9619 19.7217 4.9648C22.0748 5.0068 24.8643 5.8193 26.5694 7.5059C26.7403 7.7139 26.8687 7.9219 26.9581 8.1133C27.0206 8.2471 27.064 8.3721 27.0894 8.4844C28.4424 9.1719 29.2325 9.8164 29.6685 10.5664C29.8575 10.9609 29.9195 11.376 29.8345 11.8555C30.2784 12.1045 30.6631 12.4463 30.9624 12.8584C31.0581 13.0205 31.1431 13.1924 31.209 13.3652C31.2706 13.5254 31.315 13.6855 31.3355 13.8379C31.3965 14.251 31.4375 14.7295 31.0005 15.293C31.4585 15.5225 31.8316 16.165 31.8765 16.4385C32.1055 17.4551 31.4375 18.4551 30.5855 19.2275C29.5855 20.1006 27.3794 21.1416 25.5894 21.6006C22.0557 22.4951 18.9107 22.8711 16.4156 23.3301C17.5386 23.5996 19.0567 23.9551 21.5347 23.9551C26.8384 23.9551 31.5215 21.4541 31.5215 21.4541C31.5215 21.4541 31.4185 21.7686 31.3125 22.0605C27.9424 24.0996 22.5957 24.9521 20.3047 24.8477C17.9947 24.7422 16.0396 24.3896 14.1246 23.8057C13.5396 23.9707 12.9634 24.165 12.3985 24.3896C15.3135 25.7217 17.5176 26.0146 19.9947 26.2002C22.5313 26.3896 26.7373 25.7832 30.2715 24.4961C30.1055 24.6641 30.0225 24.9121 29.8575 25.0576C28.6514 25.6953 26.5518 26.333 24.712 26.7119C23.7886 26.9023 22.9307 27.0283 22.2837 27.0557C20.3677 27.1396 18.0376 27.0557 15.9976 26.6797C14.2496 26.3281 12.8116 25.7832 11.3145 25.1201C11.0464 25.3252 10.9214 25.5781 10.8565 25.8701C16.7076 28.9297 22.1563 28.9902 28.3814 27.0557L27.8174 27.5977C20.9707 30.3877 15.6226 29.3037 11.4795 27.3047L11.3047 27.2295C11.2124 27.1895 11.1211 27.1465 11.0464 27.0967C11.4424 27.7637 14.6026 30.0742 18.1407 30.3662C20.5777 30.5742 23.5523 30.1572 25.3204 29.4512L24.2803 29.9912C23.4263 30.4082 21.1587 31.3682 17.9937 31.1582C13.7706 30.8652 11.3975 28.9912 10.3355 28.0146C9.83646 27.5537 9.60936 27.0352 9.46236 26.3896C8.77006 26.0283 8.26266 25.6553 7.84716 25.1777C7.68796 24.9941 7.54195 24.7959 7.40425 24.5771C7.11226 24.1406 7.17236 23.6211 7.23436 23.1807L7.36426 22.8105C6.90336 22.4736 6.42525 22.1201 6.23825 21.7686C5.81935 21.0186 6.07325 20.3721 6.36325 19.8721C6.11225 19.5811 5.88236 19.29 5.78276 18.999C5.65626 18.666 5.63675 18.3291 5.67435 17.9561C5.75925 17.333 6.09226 16.752 6.52925 16.25C7.44336 15.1875 8.90336 14.3555 11.3765 13.5439C13.8135 12.7295 14.7925 12.6045 16.6236 12.1865C17.4375 11.998 18.3121 11.8574 19.2007 11.7139C20.6514 11.4805 22.1402 11.2402 23.4683 10.7754C17.4956 9.7354 11.2955 10.6914 6.23825 14.165L6.57035 13.1875C11.1065 10.2324 16.1226 8.4844 24.6123 9.9629C25.0704 9.6914 25.3404 9.4199 25.4673 8.8799C23.3433 8.1104 21.0347 7.8398 18.0596 7.8799C15.3946 7.9648 10.5855 8.96 8.00925 10.4854L8.79636 9.5049C10.5855 8.4395 15.2676 7.0469 18.7876 6.9844C21.2618 6.9229 22.5313 7.0674 25.4873 7.8594C25.233 7.3965 24.6929 7.1465 23.897 6.7764L23.7173 6.6934ZM28.2535 11.0254C28.1724 10.4424 27.5064 9.8799 26.9224 9.5049C26.8394 9.7969 26.5303 10.1504 26.3204 10.3799C26.9654 10.5479 27.6314 10.7939 28.2535 11.0254ZM25.4053 11.2109C24.9864 11.5449 24.5103 11.835 23.8003 12.1084C24.4302 12.2188 24.9751 12.3662 25.4991 12.5225C25.9468 12.6553 26.3794 12.7939 26.8384 12.9189C26.8487 12.9238 26.8604 12.9258 26.8716 12.9248C27.0884 12.9248 27.8013 12.2656 27.9244 12.085C27.2124 11.7725 26.3384 11.459 25.4053 11.2109ZM29.8575 14.2715C30.1265 13.751 29.9605 13.418 29.4004 12.9385C29.1705 13.2119 28.9205 13.4385 28.6504 13.6465C29.0865 13.8545 29.4844 14.002 29.8575 14.2715ZM20.4947 13.1699C17.7476 13.5029 14.7076 14.083 12.1075 14.8545L11.9688 14.8965C10.6783 15.2891 5.79835 16.7695 7.28025 18.8105C7.29545 18.8105 8.22066 17.5342 11.7105 16.5195C13.9913 15.8496 16.3296 15.4238 18.7046 14.9912C20.8379 14.6025 23.001 14.208 25.1773 13.627C23.3868 13.1504 22.3843 12.9385 20.4947 13.1699ZM23.4698 15.6885C21.9927 16.0625 18.4117 16.583 14.5635 17.415C13.3555 17.6855 10.0455 18.4551 8.42236 19.8301C8.63326 20.0039 8.80906 20.1152 8.98586 20.2129C9.19236 20.3271 9.40086 20.4229 9.66946 20.5801C10.3355 20.1416 11.2525 19.7256 12.6075 19.3701C14.9546 18.7471 16.7276 18.4785 18.8497 18.127C20.9517 17.8086 24.9253 16.9766 27.1094 16.1855C27.6231 16.0117 28.104 15.7949 28.5098 15.543C28.6817 15.4365 28.8404 15.3242 28.9825 15.2061C28.8365 15.042 27.4214 14.3555 27.3794 14.4189C26.5083 14.834 25.2593 15.249 23.4698 15.6885ZM18.3477 19.875C16.7559 20.1387 15.2222 20.3926 13.6036 20.79C12.8755 20.9746 12.1265 21.2051 11.4424 21.4951C12.1265 21.8496 12.8765 22.1631 13.6246 22.4551C15.1226 22.0176 15.8335 21.8301 17.9937 21.4766C18.8267 21.3281 21.3658 20.8711 23.1963 20.5C26.5083 19.7891 31.3565 18.248 30.0665 16.25C30.002 16.3047 29.9375 16.3545 29.8731 16.4043C29.7915 16.4688 29.7105 16.5332 29.6294 16.6045C28.6504 17.3496 27.0894 17.9561 24.9473 18.5195C22.462 19.1924 20.3584 19.541 18.3477 19.875ZM8.34866 21.5967C8.41116 21.5488 8.47216 21.501 8.52736 21.4541C8.25926 21.3154 8.05806 21.1943 7.85356 21.0654L7.54836 20.8701C7.47506 21.0371 7.49906 21.21 7.57666 21.3672C7.67576 21.5674 7.86276 21.7432 8.04836 21.8496C8.13815 21.7598 8.24516 21.6768 8.34866 21.5967ZM11.9175 23.0576C11.3145 22.7871 10.6705 22.5186 10.0455 22.2266C9.75436 22.4141 9.48536 22.5996 9.27636 22.7871C9.77536 23.0791 10.2554 23.3477 10.7554 23.6221C11.1231 23.3955 11.5123 23.2061 11.9175 23.0576ZM9.48536 24.9951C9.54545 24.7852 9.65136 24.6201 9.79736 24.4121C9.44146 24.2217 9.08836 24.0361 8.73536 23.8057C8.71236 24.2031 8.96436 24.5566 9.48536 24.9951Z" fill="white"/>
<mask id="mask0_4101_4642" style="mask-type:alpha" maskUnits="userSpaceOnUse" x="0" y="0" width="37" height="36">
<path fill-rule="evenodd" clip-rule="evenodd" d="M18.6099 0C8.67386 0 0.597656 8.0732 0.597656 18.0098C0.597656 27.9258 8.67386 36 18.6099 36C28.5235 36 36.5977 27.9258 36.5977 18.0098C36.5977 8.0732 28.5235 0 18.6099 0ZM18.6099 35.0996C9.17386 35.0996 1.49756 27.4297 1.49756 18.0098C1.49756 8.5703 9.17086 0.90039 18.6099 0.90039C28.0298 0.90039 35.6978 8.5742 35.6978 18.0098C35.6978 27.4277 28.0269 35.0996 18.6099 35.0996ZM23.7173 6.6934C20.8687 5.4229 15.5606 5.2969 11.2124 7.2334C11.7725 6.833 12.3721 6.4932 13.0025 6.2168C14.3716 5.5791 16.5796 4.9609 19.3316 4.9609C19.4615 4.9609 19.5914 4.9619 19.7217 4.9648C22.0748 5.0068 24.8643 5.8193 26.5694 7.5059C26.7403 7.7139 26.8687 7.9219 26.9581 8.1133C27.0206 8.2471 27.064 8.3721 27.0894 8.4844C28.4424 9.1719 29.2325 9.8164 29.6685 10.5664C29.8575 10.9609 29.9195 11.376 29.8345 11.8555C30.2784 12.1045 30.6631 12.4463 30.9624 12.8584C31.0581 13.0205 31.1431 13.1924 31.209 13.3652C31.2706 13.5254 31.315 13.6855 31.3355 13.8379C31.3965 14.251 31.4375 14.7295 31.0005 15.293C31.4585 15.5225 31.8316 16.165 31.8765 16.4385C32.1055 17.4551 31.4375 18.4551 30.5855 19.2275C29.5855 20.1006 27.3794 21.1416 25.5894 21.6006C22.0557 22.4951 18.9107 22.8711 16.4156 23.3301C17.5386 23.5996 19.0567 23.9551 21.5347 23.9551C26.8384 23.9551 31.5215 21.4541 31.5215 21.4541C31.5215 21.4541 31.4185 21.7686 31.3125 22.0605C27.9424 24.0996 22.5957 24.9521 20.3047 24.8477C17.9947 24.7422 16.0396 24.3896 14.1246 23.8057C13.5396 23.9707 12.9634 24.165 12.3985 24.3896C15.3135 25.7217 17.5176 26.0146 19.9947 26.2002C22.5313 26.3896 26.7373 25.7832 30.2715 24.4961C30.1055 24.6641 30.0225 24.9121 29.8575 25.0576C28.6514 25.6953 26.5518 26.333 24.712 26.7119C23.7886 26.9023 22.9307 27.0283 22.2837 27.0557C20.3677 27.1396 18.0376 27.0557 15.9976 26.6797C14.2496 26.3281 12.8116 25.7832 11.3145 25.1201C11.0464 25.3252 10.9214 25.5781 10.8565 25.8701C16.7076 28.9297 22.1563 28.9902 28.3814 27.0557L27.8174 27.5977C20.9707 30.3877 15.6226 29.3037 11.4795 27.3047L11.3047 27.2295C11.2124 27.1895 11.1211 27.1465 11.0464 27.0967C11.4424 27.7637 14.6026 30.0742 18.1407 30.3662C20.5777 30.5742 23.5523 30.1572 25.3204 29.4512L24.2803 29.9912C23.4263 30.4082 21.1587 31.3682 17.9937 31.1582C13.7706 30.8652 11.3975 28.9912 10.3355 28.0146C9.83646 27.5537 9.60936 27.0352 9.46236 26.3896C8.77006 26.0283 8.26266 25.6553 7.84716 25.1777C7.68796 24.9941 7.54195 24.7959 7.40425 24.5771C7.11226 24.1406 7.17236 23.6211 7.23436 23.1807L7.36426 22.8105C6.90336 22.4736 6.42525 22.1201 6.23825 21.7686C5.81935 21.0186 6.07325 20.3721 6.36325 19.8721C6.11225 19.5811 5.88236 19.29 5.78276 18.999C5.65626 18.666 5.63675 18.3291 5.67435 17.9561C5.75925 17.333 6.09226 16.752 6.52925 16.25C7.44336 15.1875 8.90336 14.3555 11.3765 13.5439C13.8135 12.7295 14.7925 12.6045 16.6236 12.1865C17.4375 11.998 18.3121 11.8574 19.2007 11.7139C20.6514 11.4805 22.1402 11.2402 23.4683 10.7754C17.4956 9.7354 11.2955 10.6914 6.23825 14.165L6.57035 13.1875C11.1065 10.2324 16.1226 8.4844 24.6123 9.9629C25.0704 9.6914 25.3404 9.4199 25.4673 8.8799C23.3433 8.1104 21.0347 7.8398 18.0596 7.8799C15.3946 7.9648 10.5855 8.96 8.00925 10.4854L8.79636 9.5049C10.5855 8.4395 15.2676 7.0469 18.7876 6.9844C21.2618 6.9229 22.5313 7.0674 25.4873 7.8594C25.233 7.3965 24.6929 7.1465 23.897 6.7764L23.7173 6.6934ZM28.2535 11.0254C28.1724 10.4424 27.5064 9.8799 26.9224 9.5049C26.8394 9.7969 26.5303 10.1504 26.3204 10.3799C26.9654 10.5479 27.6314 10.7939 28.2535 11.0254ZM25.4053 11.2109C24.9864 11.5449 24.5103 11.835 23.8003 12.1084C24.4302 12.2188 24.9751 12.3662 25.4991 12.5225C25.9468 12.6553 26.3794 12.7939 26.8384 12.9189C26.8487 12.9238 26.8604 12.9258 26.8716 12.9248C27.0884 12.9248 27.8013 12.2656 27.9244 12.085C27.2124 11.7725 26.3384 11.459 25.4053 11.2109ZM29.8575 14.2715C30.1265 13.751 29.9605 13.418 29.4004 12.9385C29.1705 13.2119 28.9205 13.4385 28.6504 13.6465C29.0865 13.8545 29.4844 14.002 29.8575 14.2715ZM20.4947 13.1699C17.7476 13.5029 14.7076 14.083 12.1075 14.8545L11.9688 14.8965C10.6783 15.2891 5.79835 16.7695 7.28025 18.8105C7.29545 18.8105 8.22066 17.5342 11.7105 16.5195C13.9913 15.8496 16.3296 15.4238 18.7046 14.9912C20.8379 14.6025 23.001 14.208 25.1773 13.627C23.3868 13.1504 22.3843 12.9385 20.4947 13.1699ZM23.4698 15.6885C21.9927 16.0625 18.4117 16.583 14.5635 17.415C13.3555 17.6855 10.0455 18.4551 8.42236 19.8301C8.63326 20.0039 8.80906 20.1152 8.98586 20.2129C9.19236 20.3271 9.40086 20.4229 9.66946 20.5801C10.3355 20.1416 11.2525 19.7256 12.6075 19.3701C14.9546 18.7471 16.7276 18.4785 18.8497 18.127C20.9517 17.8086 24.9253 16.9766 27.1094 16.1855C27.6231 16.0117 28.104 15.7949 28.5098 15.543C28.6817 15.4365 28.8404 15.3242 28.9825 15.2061C28.8365 15.042 27.4214 14.3555 27.3794 14.4189C26.5083 14.834 25.2593 15.249 23.4698 15.6885ZM18.3477 19.875C16.7559 20.1387 15.2222 20.3926 13.6036 20.79C12.8755 20.9746 12.1265 21.2051 11.4424 21.4951C12.1265 21.8496 12.8765 22.1631 13.6246 22.4551C15.1226 22.0176 15.8335 21.8301 17.9937 21.4766C18.8267 21.3281 21.3658 20.8711 23.1963 20.5C26.5083 19.7891 31.3565 18.248 30.0665 16.25C30.002 16.3047 29.9375 16.3545 29.8731 16.4043C29.7915 16.4688 29.7105 16.5332 29.6294 16.6045C28.6504 17.3496 27.0894 17.9561 24.9473 18.5195C22.462 19.1924 20.3584 19.541 18.3477 19.875ZM8.34866 21.5967C8.41116 21.5488 8.47216 21.501 8.52736 21.4541C8.25926 21.3154 8.05806 21.1943 7.85356 21.0654L7.54836 20.8701C7.47506 21.0371 7.49906 21.21 7.57666 21.3672C7.67576 21.5674 7.86276 21.7432 8.04836 21.8496C8.13815 21.7598 8.24516 21.6768 8.34866 21.5967ZM11.9175 23.0576C11.3145 22.7871 10.6705 22.5186 10.0455 22.2266C9.75436 22.4141 9.48536 22.5996 9.27636 22.7871C9.77536 23.0791 10.2554 23.3477 10.7554 23.6221C11.1231 23.3955 11.5123 23.2061 11.9175 23.0576ZM9.48536 24.9951C9.54545 24.7852 9.65136 24.6201 9.79736 24.4121C9.44146 24.2217 9.08836 24.0361 8.73536 23.8057C8.71236 24.2031 8.96436 24.5566 9.48536 24.9951Z" fill="white"/>
</mask>
<g mask="url(#mask0_4101_4642)">
<path d="M36.5977 -5H0.597656V43H36.5977V-5Z" fill="white"/>
</g>
</svg>
