<svg width="154" height="43" viewBox="0 0 154 43" fill="none" xmlns="http://www.w3.org/2000/svg">
<path d="M120.135 4.41992C118.71 4.41992 118.146 4.9764 117.642 6.20653C116.929 8.31532 116.247 10.307 116.098 10.717C115.891 10.2191 114.288 7.11448 113.101 4.44921H108.797C110.845 8.75465 113.902 14.9931 114.139 15.4911C113.961 15.9597 113.635 16.8676 112.091 16.8383L110.489 16.809L110.103 19.6208C111.023 19.8844 112.002 19.9722 113.071 19.9722C114.881 19.9722 116.276 19.1521 116.989 17.6877L122.509 4.44921H120.135V4.41992Z" fill="white"/>
<path d="M103.604 9.92619C103.604 9.92619 101.645 9.92619 101.26 9.92619V7.5831H106.187C107.344 7.52452 107.997 6.90946 107.997 5.7672V4.41992H99.5678C97.8166 4.44921 97.0449 5.53289 97.0449 6.7923V19.7672H103.901C108.086 19.7672 109.6 17.1312 109.6 14.8467C109.6 12.3864 107.76 9.92619 103.604 9.92619ZM102.447 16.604C102.447 16.604 101.616 16.604 101.26 16.604V13.0894C101.616 13.0894 102.951 13.0894 102.951 13.0894C104.406 13.0894 105.177 13.8509 105.177 14.8174C105.177 15.5789 104.91 16.604 102.447 16.604Z" fill="white"/>
<path d="M142.159 13.7615C142.337 13.2929 143.761 9.54395 144.088 8.75316C144.414 9.54395 145.987 13.2929 146.195 13.7615H142.159ZM132.216 11.9163C132.69 11.477 133.225 10.6862 133.581 9.86613L134.145 8.60671C134.531 7.72805 135.302 7.6109 136.015 7.6109H136.104L136.519 4.5063L136.252 4.47701C135.718 4.38914 135.273 4.33057 134.827 4.33057C133.017 4.33057 131.622 5.15065 130.91 6.61509L129.93 8.636C129.396 9.71969 128.773 10.1883 127.763 10.1883C127.763 10.1883 127.17 10.1883 126.903 10.1883C126.903 9.80755 126.903 4.35985 126.903 4.35985H125.241C123.519 4.38914 122.747 5.44354 122.718 6.67366V19.7657H126.903C126.903 19.7657 126.903 13.8201 126.903 13.4101C127.14 13.4101 127.526 13.4101 127.526 13.4101C128.891 13.4101 130.019 14.3766 130.91 16.3096L132.512 19.7657H139.784C139.784 19.7657 140.823 17.0711 140.912 16.8076H147.382C147.471 17.0419 148.629 19.7657 148.629 19.7657H153.17L146.254 4.41843H143.375C141.891 4.41843 141.357 5.00421 140.853 6.29291L136.193 17.7155L135.095 15.5189C134.234 13.6737 133.254 12.5021 132.216 11.9163Z" fill="white"/>
<path d="M93.3641 11.5375C94.4326 11.0396 95.7088 9.86807 95.7088 8.14003C95.7088 5.47476 92.5627 4.27393 89.4166 4.27393C87.9622 4.27393 86.2704 4.53752 84.3115 5.06472L84.6677 8.31576C84.6677 8.31576 86.686 7.72999 87.7841 7.64213C90.0695 7.43711 91.0787 8.14003 91.0787 8.96012C91.0787 9.34087 91.0787 10.4538 88.0216 10.4538H86.5672V13.5877H87.7841C90.2476 13.5877 91.1677 13.9685 91.1677 14.9936C91.1677 16.0187 90.1289 16.5752 88.0513 16.5459C86.9234 16.5459 85.7065 16.3994 84.638 16.1651C84.6677 16.3409 84.9348 17.2195 85.3207 18.0396C85.5878 18.5961 86.2111 19.7091 87.428 19.8262C87.428 19.8262 88.3184 19.9141 89.001 19.9141C93.3047 19.7969 95.7385 18.2446 95.7385 15.3158C95.7979 13.3241 94.6403 12.2697 93.3641 11.5375Z" fill="white"/>
<path d="M78.108 4.41992H75.1993C73.8043 4.41992 73.2404 4.9764 72.7655 6.11866L67.1855 19.7672H71.6376C71.6376 19.7672 72.6764 17.0726 72.7655 16.809H79.2359C79.3249 17.0433 80.4824 19.7672 80.4824 19.7672H85.0236L78.108 4.41992ZM73.923 13.763C74.1011 13.2944 75.5258 9.54544 75.8523 8.75464C76.1788 9.54544 77.7518 13.2944 77.9596 13.763H73.923Z" fill="white"/>
<path d="M115.061 22.5464C113.636 22.5464 113.072 23.1029 112.567 24.333C111.855 26.4418 111.172 28.4334 111.024 28.8435C110.816 28.3456 109.214 25.2409 108.026 22.5757H103.723C105.771 26.8811 108.828 33.1196 109.065 33.6175C108.887 34.0861 108.561 34.9941 107.017 34.9648L105.414 34.9355L105.029 37.7472C105.949 38.0108 106.928 38.0987 107.997 38.0987C109.807 38.0987 111.202 37.2786 111.914 35.8142L117.435 22.5757H115.061V22.5464Z" fill="white"/>
<path d="M85.0816 29.3999C86.1798 28.7263 86.8327 27.6426 86.8327 26.4711C86.8327 24.5673 85.2003 22.5171 81.609 22.5171H77.3646C75.7322 22.5464 74.9308 23.5129 74.8418 24.6845V37.8351H82.4103C87.5747 37.8351 87.9606 34.3204 87.9606 33.2368C87.9606 31.4501 86.8921 30.0443 85.0816 29.3999ZM79.0268 25.6803C79.3532 25.6803 80.7779 25.6803 80.7779 25.6803C82.0542 25.6803 82.4994 26.4125 82.4994 27.0568C82.4994 27.7012 82.0542 28.4627 80.7779 28.4627C80.7779 28.4627 79.3532 28.4627 79.0268 28.4627V25.6803ZM80.956 34.7305C80.956 34.7305 79.3829 34.7305 79.0564 34.7305V31.6259C79.4126 31.6259 81.4902 31.6259 81.4902 31.6259C82.4994 31.6259 83.5679 32.0066 83.5679 33.0903C83.5679 34.1154 83.1227 34.7305 80.956 34.7305Z" fill="white"/>
<path d="M139.664 22.5464H136.755C135.36 22.5464 134.796 23.1029 134.321 24.2451L128.741 37.8937H133.193C133.193 37.8937 134.232 35.1991 134.321 34.9355H140.792C140.881 35.1698 142.038 37.8937 142.038 37.8937H146.579L139.664 22.5464ZM135.479 31.9188C135.657 31.4501 137.081 27.7012 137.408 26.9104C137.734 27.7012 139.307 31.4501 139.515 31.9188H135.479Z" fill="white"/>
<path d="M102.623 25.7979L103.039 22.6933L102.772 22.664C102.237 22.5762 101.792 22.5176 101.347 22.5176C99.5365 22.5176 98.1415 23.3377 97.4291 24.8021L96.4497 26.8523C95.9154 27.936 95.2921 28.4046 94.283 28.4046C94.283 28.4046 93.6894 28.4046 93.4223 28.4046C93.4223 28.0239 93.4223 22.5762 93.4223 22.5762H91.7602C90.0387 22.6054 89.2373 23.6598 89.2373 24.9193V37.9234H93.4223C93.4223 37.9234 93.4223 31.9778 93.4223 31.5678C93.6597 31.5678 94.0456 31.5678 94.0456 31.5678C95.4109 31.5678 96.5387 32.5343 97.4291 34.4674L99.0319 37.9234H103.692L101.584 33.6766C100.694 31.8607 99.7145 30.6598 98.646 30.1034C99.1209 29.664 99.6552 28.8732 100.011 28.0531L100.575 26.7937C100.961 25.9151 101.733 25.7979 102.445 25.7979H102.623Z" fill="white"/>
<path d="M128.506 35.9928C128.951 34.9384 129.159 33.7375 129.159 33.7375C128.031 34.1769 126.666 34.7626 124.736 34.7041C121.798 34.7041 120.255 32.6831 120.255 30.2229C120.255 27.8212 121.857 25.7124 124.647 25.7124C126.161 25.7124 127.526 26.1225 129.189 27.089L129.337 27.1769V23.3693C127.556 22.6664 126.072 22.3442 124.647 22.3442C122.303 22.3442 120.166 23.1643 118.593 24.6288C117.049 26.0932 116.188 28.1727 116.188 30.4279C116.188 32.2145 116.93 34.089 118.207 35.4949C119.275 36.6957 121.264 38.1015 124.529 38.1015C125.241 38.1015 125.746 38.0723 126.369 37.9551C127.467 37.6915 128.12 36.9007 128.506 35.9928Z" fill="white"/>
<path d="M54.9684 21.2017C54.9684 32.8 42.651 42.2017 27.4842 42.2017C12.3174 42.2017 0 32.8 0 21.2017C0.0296806 9.60333 12.3174 0.20166 27.4842 0.20166C42.6807 0.20166 54.9684 9.60333 54.9684 21.2017Z" fill="#8BB920"/>
<path d="M51.9114 21.142C51.8817 11.2131 40.9593 3.21729 27.4843 3.21729C23.8336 3.21729 20.361 3.83235 17.2445 4.88674C14.603 4.56457 12.0207 5.58967 12.0207 5.58967C12.0207 5.58967 13.9203 8.60641 16.74 9.71938C18.7285 10.4809 20.9843 9.83653 21.3701 9.48507C21.3701 9.48507 20.5984 7.93277 18.1053 6.8198C17.1258 6.40975 15.7902 6.029 14.3061 5.79469C15.3153 5.88256 16.1463 5.7654 18.1646 6.40975C20.9843 7.28842 21.7263 8.95787 21.7263 8.95787C21.8747 7.40557 20.8359 6.2926 19.797 5.70683C22.2012 5.09176 24.7834 4.7403 27.4843 4.7403C40.1282 4.71101 50.368 12.0625 50.3977 21.142C50.3977 23.9537 49.4182 26.5897 47.6967 28.9035C47.667 28.8742 46.5392 27.7319 45.1739 26.7361C45.7972 23.075 43.0666 19.6775 40.0985 18.0081C41.4638 13.7319 37.2789 9.36791 29.7103 9.22147C28.5825 9.22147 27.0391 9.28005 26.03 9.36791L26.4455 6.73193H25.8519C23.7446 6.76122 22.9729 8.07921 22.7354 8.60641L21.934 10.1587C17.2148 11.4474 14.6326 13.6441 14.3952 13.8491C13.8609 14.3177 13.95 14.5227 14.9294 14.1127C16.6509 13.4098 18.6692 12.7654 20.8062 12.2968L14.4546 23.8365C11.0116 23.4558 7.44995 23.8365 5.66912 26.1211C4.98647 24.5688 4.6303 22.9286 4.6303 21.2298C4.6303 15.9579 8.04356 11.2717 13.3861 8.25494C12.0207 7.37628 10.8038 8.07921 10.418 8.3721C10.418 8.3721 10.418 8.3721 10.3883 8.3721C5.87688 11.6524 3.08691 16.1922 3.08691 21.2298C3.08691 23.5729 3.7102 25.8282 4.83806 27.8784C4.68966 28.5813 4.7787 29.4307 5.43167 30.2215C6.29241 31.3052 8.01388 31.7738 10.0322 31.1001C12.7628 30.1629 14.8404 27.234 15.4934 26.1503C13.5345 25.8282 12.7628 26.5311 12.466 26.9119C11.6646 27.9662 10.4774 29.1378 9.26046 29.665C6.73762 30.7194 5.10519 28.4934 7.09378 26.6775C8.42941 25.4474 11.1303 25.1838 13.5345 25.506H13.5938C16.6509 25.916 18.9957 26.824 19.5002 27.029C19.0253 29.7529 18.6989 31.4809 18.6989 31.4809H19.5893C22.5277 31.4809 22.7948 29.3135 22.7948 29.3135L22.9432 28.552C25.6441 29.87 28.256 31.2466 28.3747 31.3344C29.0574 31.7152 30.0665 31.6859 30.2149 30.6901L31.3428 23.0165C34.3405 22.8407 37.2492 21.6985 38.8223 20.029C40.1876 21.0834 41.4341 22.7529 41.6716 24.8031C40.0095 24.1001 38.1099 23.6608 36.1807 23.9537C31.6989 24.6273 30.1259 29.1964 32.5893 31.7738C34.4295 33.7068 37.1008 33.9119 39.9501 32.8575C41.4638 32.301 42.9478 31.188 43.957 29.6357C43.7492 29.4307 43.3337 29.0499 42.8885 28.757C41.6419 27.9955 40.6921 28.8449 40.425 29.1671C39.6236 30.1629 38.5254 30.8658 37.3976 31.1587C32.1738 32.4181 31.6989 25.6817 37.0414 25.4767C38.7332 25.4181 40.2172 26.1211 41.5232 27.0583C42.8885 28.0541 44.7287 29.9286 45.6488 30.5437C47.6374 31.8909 49.5369 31.3052 49.5369 31.3052C49.5369 31.3052 49.2104 30.778 48.6465 30.075C50.7538 27.439 51.9114 24.393 51.9114 21.142ZM19.8564 24.9495C18.8473 24.6273 16.9477 24.2466 16.5619 24.1587L21.5779 15.0206C21.0436 18.0667 20.3907 21.8156 19.8564 24.9495ZM31.6099 21.4056L32.0848 18.301C28.6122 18.3303 28.1373 20.6734 28.0779 21.0248C26.4158 20.234 27.8405 18.5353 30.1555 18.096C32.7377 17.6273 35.1715 18.1838 36.6556 18.7696C35.7948 20.2926 33.9843 21.2006 31.6099 21.4056ZM37.2492 16.9537C35.9432 16.6022 34.1921 16.3093 32.3519 16.3679L32.9752 12.2675C29.2948 11.6524 29.087 14.1127 29.087 14.1127C28.9683 14.9913 28.8199 15.9872 28.6418 17.0708C25.2286 18.3888 24.9021 21.4056 27.8108 22.5771C27.514 24.5688 27.0688 27.6148 27.0391 27.6148C26.0893 27.2047 24.1601 26.4432 23.329 26.1211L25.6441 11.5353C35.6168 10.4809 37.5757 15.0206 37.2492 16.9537ZM44.2538 32.3596C40.0985 35.5813 34.0734 37.6022 27.514 37.6315C20.9843 37.6315 15.1075 35.6692 10.9226 32.5353C10.507 32.2131 9.46823 31.5395 8.16228 32.1545C12.644 36.4014 19.6486 39.1252 27.514 39.1252C35.409 39.1252 42.4433 36.3428 46.8954 32.0374C45.6488 31.4516 44.5506 32.1545 44.2538 32.3596Z" fill="white"/>
</svg>
