<svg width="167" height="39" viewBox="0 0 167 39" fill="none" xmlns="http://www.w3.org/2000/svg">
<path fill-rule="evenodd" clip-rule="evenodd" d="M29.8384 11.6202C30.0386 12.6201 30.2728 13.389 30.5471 13.9298C30.8179 14.4626 31.2794 14.7297 31.9289 14.7297L30.2067 18.9629C29.5284 20.6182 28.8095 23.133 28.0311 26.4893C27.2654 29.8597 27.0222 32.2549 27.3038 33.6901C27.5816 35.1065 28.2346 36.0327 29.2525 36.4769C30.266 36.9103 31.2385 37.1307 32.179 37.1307C33.6129 37.1307 35.2645 36.9695 37.1322 36.6295C38.9946 36.2982 40.3981 35.9509 41.3427 35.591C41.7862 35.4256 42.0622 35.1597 42.1958 34.8098C42.3181 34.4637 42.2735 33.7417 42.0593 32.6497C41.9443 32.0717 41.6888 31.7825 41.2717 31.7825C40.6976 31.7825 40.038 31.9103 39.3013 32.17C38.5619 32.423 37.8131 32.6294 37.056 32.7802C36.2955 32.9438 35.0985 33.0188 33.4598 33.0188C33.0438 33.0188 32.768 32.9699 32.6284 32.8716C32.4931 32.7802 32.3984 32.6081 32.3489 32.361C32.218 31.698 32.3489 30.5423 32.7371 28.8851C33.1177 27.2236 33.5108 25.8561 33.9011 24.7698L37.2343 24.6859C38.6487 24.6512 39.5912 24.613 40.0684 24.555C40.5461 24.5003 40.8506 24.3834 40.9786 24.2043C41.1061 24.0175 41.1523 23.6857 41.1016 23.2006C41.064 22.751 41.059 22.4182 41.0757 22.1974C41.0807 22.1418 41.093 22.0627 41.1124 21.9717C41.1283 21.8642 41.136 21.7767 41.1203 21.6978C40.9949 21.0651 40.1563 20.7455 38.6091 20.7455C37.4131 20.7455 36.0897 20.8275 34.6347 21.0018C35.0432 19.6469 35.6194 18.0266 36.3667 16.1431C36.7312 15.1942 37.0301 14.5603 37.2547 14.2319C37.4785 13.8987 37.7943 13.6983 38.2029 13.6106C38.6122 13.526 39.3988 13.4859 40.5765 13.4859C40.8978 13.4859 41.9349 13.555 43.7007 13.6983C43.7658 13.6983 43.8875 13.7084 44.0675 13.7215C44.2418 13.7351 44.3771 13.7423 44.458 13.7423C44.9734 13.7423 45.1955 13.5762 45.1279 13.2393C45.0828 13.0148 44.862 12.5722 44.4658 11.9179C43.7596 10.7441 43.1655 10.0036 42.6711 9.68282C42.1775 9.36323 41.4658 9.2041 40.5379 9.2041C38.4765 9.2041 36.1321 9.36323 33.5039 9.68282C30.8688 10.0038 29.6495 10.6451 29.8384 11.6202Z" fill="white"/>
<path fill-rule="evenodd" clip-rule="evenodd" d="M127.954 34.5836C128.392 33.9099 128.758 33.3835 129.048 33.0081C129.352 32.6217 129.929 31.8918 130.764 30.8106C131.605 29.7339 132.434 28.6703 133.252 27.633C134.064 26.5968 134.845 25.633 135.579 24.7312C136.325 23.835 137.151 22.861 138.062 21.8125L136.958 26.6331C136.558 28.4405 136.3 29.6412 136.187 30.2334C136.079 30.8236 136.003 31.4258 135.962 32.0314C135.922 32.6451 135.945 33.1875 136.038 33.6638C136.157 34.2773 136.503 34.8468 137.054 35.3635C137.612 35.8908 138.215 36.3041 138.877 36.6178C139.54 36.9308 140.044 37.0865 140.398 37.0865C140.873 37.0865 141.179 36.6878 141.301 35.8833C141.421 35.0808 141.564 33.4158 141.712 30.887C141.874 28.3672 142.129 25.9021 142.492 23.5029C142.85 21.0985 143.445 18.6043 144.287 16.0211C146.052 14.5017 146.862 13.3767 146.719 12.6393C146.626 12.1686 146.313 11.5982 145.782 10.9242C145.243 10.2516 144.724 9.91582 144.222 9.91582C143.742 9.91582 142.773 10.6219 141.301 12.0402C139.829 13.461 138.21 15.1517 136.433 17.1228C134.666 19.0974 133.045 20.9512 131.572 22.6942C130.094 24.4291 129.202 25.5249 128.879 25.9624C129.384 23.5868 129.838 21.6338 130.241 20.1099C130.652 18.5901 131.077 17.1209 131.512 15.6888C131.954 14.2608 132.222 13.3279 132.338 12.8908C132.445 12.4498 132.472 12.0927 132.42 11.8213C132.376 11.598 132.114 11.2664 131.646 10.8287C131.179 10.3893 130.672 9.99247 130.129 9.63589C129.59 9.28051 129.213 9.09863 128.996 9.09863C128.614 9.09863 128.267 9.46784 127.953 10.199C127.637 10.9322 127.304 12.0128 126.971 13.4409C126.631 14.8633 126.45 15.6093 126.433 15.6698C124.61 22.6139 123.48 27.2896 123.038 29.6917C122.598 32.0911 122.418 33.5162 122.505 33.9813C122.578 34.3193 123.038 34.8021 123.905 35.4052C124.762 36.0073 125.468 36.3095 126.022 36.3095C126.382 36.3095 126.681 36.1926 126.927 35.954C127.166 35.7156 127.508 35.2606 127.954 34.5836Z" fill="white"/>
<path fill-rule="evenodd" clip-rule="evenodd" d="M164.624 12.2055C164.149 11.7844 163.649 11.3975 163.113 11.0471C162.577 10.6962 162.243 10.5209 162.105 10.5209C161.678 10.5209 161.173 11.1829 160.602 12.4891C160.031 13.8031 159.506 15.2221 159.037 16.7507C158.563 18.2798 158.232 19.3954 158.058 20.0831L156.741 20.474C156.313 20.6191 155.69 20.7567 154.874 20.9097C154.068 21.0642 153.478 21.1408 153.123 21.1408C152.615 21.1408 152.299 20.822 152.179 20.2047C152.101 19.806 152.213 19.0604 152.498 17.9684C152.794 16.8709 153.105 15.9088 153.427 15.0721C153.685 14.4748 153.903 13.9521 154.102 13.5331C154.287 13.1034 154.426 12.7752 154.499 12.5366C154.578 12.2985 154.596 12.0754 154.559 11.8863C154.522 11.6997 154.285 11.3733 153.838 10.9104C153.4 10.4519 152.932 10.0276 152.432 9.6526C151.939 9.2793 151.584 9.08984 151.374 9.08984C151.019 9.08984 150.474 9.90703 149.738 11.5325C148.996 13.1577 148.362 14.9122 147.84 16.809C147.307 18.6976 147.135 20.0693 147.297 20.9022C147.472 21.7983 147.994 22.7461 148.857 23.7667C149.727 24.7862 150.571 25.2949 151.389 25.2949C151.828 25.2949 152.747 25.1087 154.151 24.7423C155.55 24.38 156.619 24.0706 157.365 23.8188C157.235 24.2472 156.988 25.2724 156.627 26.8785C156.262 28.485 155.956 29.9949 155.713 31.3979C155.462 32.8039 155.378 33.7244 155.462 34.1515C155.585 34.7724 156.156 35.3147 157.167 35.7846C157.679 36.0236 158.175 36.2987 158.641 36.6065C159.117 36.9083 159.417 37.0642 159.55 37.0642C159.946 37.0642 160.23 36.7933 160.381 36.2605C160.531 35.7136 160.642 34.8446 160.715 33.6535C160.786 32.46 160.825 31.8156 160.838 31.7002C161.174 29.0159 161.482 26.8979 161.755 25.3387C162.028 23.7827 162.332 22.4254 162.675 21.2504C163.015 20.0831 163.538 18.4866 164.238 16.4737C164.48 15.7604 164.751 15.0799 165.029 14.4382C165.312 13.8029 165.44 13.4168 165.418 13.2847C165.356 12.996 165.093 12.6332 164.624 12.2055Z" fill="white"/>
<path fill-rule="evenodd" clip-rule="evenodd" d="M28.0547 7.06946C28.0815 7.00701 28.1103 6.91656 28.1345 6.87222C28.7221 5.19602 29.6494 6.34137 30.1552 6.25403C30.9524 6.00639 31.4085 5.29348 31.5766 4.28566C31.6805 3.68225 31.7417 2.44394 31.4196 1.92904C31.2257 1.61819 30.542 1.09804 29.3388 0.866757C26.6897 0.352443 22.0143 0.359251 17.97 0.838357C14.9658 1.20153 11.0258 2.05529 5.79669 3.98571C4.00961 4.64554 1.21571 4.99917 0.388215 7.14727C-0.282106 8.882 -0.0276721 9.81668 0.718512 10.2561C2.36318 11.2215 6.39911 9.7875 8.22256 9.20861C8.27295 9.24926 8.32624 9.28992 8.40269 9.34925C7.73354 13.1341 6.25517 17.6849 5.8031 21.8748C4.87563 24.6105 3.08935 31.3997 4.58016 34.0852C7.65611 35.9585 9.53325 30.6479 9.30098 30.4688C10.0799 28.1294 12.5182 17.8811 12.8065 15.1086C12.8753 14.4107 12.9341 13.8509 13.042 13.1267C13.25 11.7185 13.2758 10.3174 13.5134 8.99445C13.5785 8.62563 13.7902 8.32101 14.0922 8.07495C15.4311 6.97707 18.5727 6.96052 19.1074 6.96052C19.5235 6.85976 20.6811 6.68255 21.6035 6.38689C22.011 6.25772 22.0144 6.84673 21.9043 7.5297C21.7937 8.20818 21.5724 8.98141 21.5225 9.22086C21.406 9.78944 21.2927 10.2763 21.1585 10.8758C20.9908 11.6269 20.6439 13.1593 19.8488 16.5788C18.0478 24.8316 16.6553 32.172 18.1885 36.156C18.5569 36.695 19.8058 37.2712 20.1669 37.1104C21.0913 36.9393 21.7561 36.5368 22.236 35.9905C23.0754 35.0348 23.3374 33.6339 23.4075 32.2499C23.534 29.7152 23.8921 25.8337 24.4716 22.0032C24.8563 19.4612 26.0712 13.8046 27.0672 10.1244C27.4464 8.72698 27.807 7.63357 28.0547 7.06946Z" fill="white"/>
<path fill-rule="evenodd" clip-rule="evenodd" d="M52.9109 37.1223C53.2483 37.1223 53.4733 36.8684 53.5822 36.3628C53.6837 35.8572 53.9183 34.3751 54.2757 31.9231C54.6344 29.4793 55.1216 26.8463 55.7393 24.0195C56.3565 21.1986 57.2569 17.8548 58.4482 13.9784C58.8993 13.8543 59.7554 13.765 61.0037 13.6957C62.2533 13.6304 63.1747 13.5096 63.7674 13.3388C64.3573 13.1573 64.5932 12.7828 64.4771 12.2086C64.3992 11.8019 64.1606 11.3445 63.7634 10.8619C63.3645 10.3706 62.8232 9.95333 62.1306 9.61156C61.4446 9.26297 60.671 9.08984 59.8161 9.08984C59.5942 9.08984 59.2542 9.11572 58.7987 9.17096C58.295 9.22523 57.5245 9.27756 56.4953 9.33727C55.4547 9.39077 54.6815 9.44465 54.1693 9.49037C51.2271 9.71133 49.1661 9.9578 47.9748 10.2319C46.7866 10.5003 46.2514 10.9594 46.3787 11.6118C46.7639 13.5642 47.5723 14.537 48.8171 14.537C49.0108 14.537 50.3982 14.4294 52.9767 14.2157C52.674 15.3669 52.2414 17.0798 51.677 19.3649C51.1207 21.6587 50.6199 23.7957 50.1807 25.7842C49.7283 27.7707 49.3588 29.6164 49.0614 31.3144C48.7549 33.0208 48.653 34.0983 48.7438 34.5594C48.8305 34.9957 49.1455 35.4013 49.6918 35.8034C50.2427 36.1935 50.8459 36.5106 51.5102 36.7559C52.1761 37.0018 52.6475 37.1223 52.9109 37.1223Z" fill="white"/>
<path fill-rule="evenodd" clip-rule="evenodd" d="M97.0374 22.5046C96.7207 24.362 96.197 26.0894 95.4757 27.7126C94.7451 29.3357 93.9454 30.6374 93.0745 31.6238C92.2 32.6168 91.4062 33.1138 90.6966 33.1138C90.3942 33.1138 90.0748 32.8919 89.7305 32.4438C89.3922 31.9964 89.145 31.3885 88.9905 30.6272C88.6381 28.8219 88.6177 26.9273 88.9312 24.9761C89.2427 23.0172 89.7602 21.2274 90.4768 19.5887C91.202 17.9621 91.9974 16.6468 92.8645 15.6442C93.7321 14.6425 94.4932 14.1435 95.1545 14.1435C95.9893 14.1435 96.6141 15.2093 97.037 17.3465C97.3484 18.9355 97.3489 20.6546 97.0374 22.5046ZM100.835 14.0842C100.367 13.0211 99.8879 12.2034 99.4153 11.6286C98.941 11.0611 98.5723 10.7738 98.3312 10.7738C98.1931 10.7738 97.901 10.8845 97.4645 11.1191C97.0276 11.3447 96.7105 11.5258 96.5295 11.6533C95.9991 11.0333 95.3783 10.4513 94.667 9.90354C93.9627 9.35946 93.3845 9.08984 92.9549 9.08984C92.2936 9.08984 91.3435 9.66407 90.1219 10.818C88.9005 11.9728 87.7236 13.5308 86.5851 15.4805C85.4514 17.4408 84.6139 19.6833 84.0707 22.2158C83.5242 24.7519 83.5179 27.3476 84.0415 29.9949C84.3494 31.5775 84.9378 32.9063 85.7854 33.9806C86.6358 35.0577 87.5833 35.8451 88.6179 36.3532C89.6527 36.8684 90.6058 37.1225 91.4755 37.1225C93.5244 37.1225 95.4933 36.2054 97.381 34.3747C99.2633 32.5385 100.654 30.1172 101.55 27.1167C102.448 24.123 102.586 21.0097 101.952 17.7908C101.675 16.3898 101.305 15.1513 100.835 14.0842ZM117.066 17.3204C116.471 18.1168 115.661 18.8566 114.632 19.5466C113.608 20.2446 112.533 20.7909 111.405 21.1823C112.019 17.7725 112.258 15.6898 112.112 14.9434C112.029 14.5242 111.746 14.1106 111.272 13.7021C112.234 13.4073 113.31 13.2629 114.498 13.2629C115.438 13.2629 116.191 13.4382 116.76 13.8093C117.322 14.1744 117.655 14.6306 117.761 15.1782C117.889 15.8181 117.654 16.5318 117.066 17.3204ZM115.049 29.0459C114.397 29.9623 113.474 30.7141 112.289 31.3007C111.1 31.8991 109.855 32.1889 108.558 32.1889C109.108 30.325 109.535 28.8867 109.844 27.893C110.144 26.8912 110.41 25.907 110.622 24.9071C111.438 24.6684 112.189 24.5463 112.877 24.5463C114.575 24.5463 115.54 25.1536 115.777 26.3441C115.947 27.224 115.709 28.1277 115.049 29.0459ZM121.217 19.4597C122.123 18.0371 122.429 16.5517 122.123 15.0169C121.782 13.267 120.785 11.8456 119.13 10.7458C117.485 9.64442 115.458 9.09004 113.067 9.09004C112.025 9.09004 110.599 9.25072 108.806 9.57052C107.084 9.86831 105.807 10.1706 104.967 10.4711C104.134 10.774 103.781 11.2479 103.912 11.8987C104.047 12.584 104.381 13.267 104.924 13.9575C105.463 14.6407 106.177 15.0591 107.071 15.2184C106.703 18.4103 106.262 21.1237 105.728 23.3646C105.195 25.6097 104.689 27.3588 104.204 28.6205C103.72 29.873 103.318 30.9644 102.998 31.8776C102.674 32.7863 102.577 33.5731 102.709 34.2401C102.746 34.4263 103.017 34.76 103.526 35.2345C104.036 35.7011 104.582 36.1365 105.161 36.53C105.742 36.9202 106.16 37.1227 106.422 37.1227C106.809 37.1227 107.099 36.949 107.301 36.6048C107.507 36.2551 107.728 35.632 107.965 34.7154C109.354 36.3263 110.702 37.1227 112.017 37.1227C113.267 37.1227 114.625 36.5401 116.083 35.355C117.538 34.1712 118.711 32.7558 119.594 31.1174C120.477 29.468 120.797 28.0108 120.547 26.7532C120.416 26.0863 120.101 25.3866 119.606 24.6684C119.112 23.9422 118.406 23.3091 117.486 22.7505C119.062 21.9693 120.305 20.8796 121.217 19.4597ZM77.503 18.2606C76.7308 19.2683 75.7178 20.2166 74.4734 21.112C73.2151 21.9987 72.0431 22.6167 70.9405 22.9477C71.086 21.7986 71.3808 20.159 71.8319 18.0186C72.0978 16.7452 72.3035 15.8996 72.4531 15.4733C72.5876 15.0418 72.817 14.7403 73.1199 14.5649C73.4293 14.3849 73.9532 14.2711 74.7047 14.2168C74.8995 14.1921 75.1986 14.1746 75.5992 14.1746C77.3026 14.1746 78.2505 14.6845 78.4524 15.7075C78.5927 16.4066 78.2754 17.2613 77.503 18.2606ZM81.8227 12.4253C80.9994 11.4698 79.8907 10.6713 78.4689 10.037C77.0605 9.40302 75.4464 9.09004 73.6225 9.09004C72.5784 9.09004 71.4802 9.20325 70.3195 9.43006C69.1555 9.64891 68.1882 9.98562 67.4099 10.4204C66.6305 10.8604 66.295 11.3605 66.4058 11.9365C66.7597 13.7134 67.4064 14.8245 68.3614 15.2554C67.4776 18.9793 66.768 21.8599 66.2493 23.8919C65.732 25.9295 65.1913 27.978 64.6375 30.0565C64.0804 32.1227 63.7552 33.418 63.657 33.9188C63.5679 34.4256 63.5477 34.8435 63.609 35.1629C63.7065 35.6525 63.9125 35.9721 64.2378 36.1272C64.5532 36.2835 65.0895 36.4403 65.8322 36.6042C66.208 36.6906 66.6117 36.7972 67.0256 36.9294C67.4373 37.0559 67.7233 37.1221 67.8803 37.1221C68.3389 37.1221 68.685 36.868 68.9077 36.3693C69.1227 35.8702 69.3081 35.1012 69.4594 34.0737C69.607 33.0433 69.8022 31.6614 70.0536 29.9348C70.3038 28.2132 70.6364 26.537 71.0318 24.9066C72.2404 26.6969 73.236 27.5914 74.0181 27.5914C74.9394 27.5914 76.2182 26.8244 77.8391 25.2887C79.4669 23.7531 80.848 22.0096 81.9863 20.0555C83.1232 18.102 83.5749 16.5202 83.3307 15.2945C83.1493 14.3478 82.6424 13.3903 81.8227 12.4253Z" fill="white"/>
</svg>
