<svg width="320" height="47" viewBox="0 0 320 47" fill="none" xmlns="http://www.w3.org/2000/svg">
<path fill-rule="evenodd" clip-rule="evenodd" d="M119.243 36.9985C123.009 36.9985 126.024 35.9376 128.391 33.8136C130.7 31.9019 132.215 29.4597 133.039 26.487C133.836 23.6205 133.676 21.1772 132.456 19.1604C131.238 17.1426 128.812 16.0817 125.046 16.0817C121.279 16.0817 118.265 17.1426 115.926 19.1604C113.588 21.1772 112.072 23.6205 111.278 26.487C110.453 29.4607 110.613 31.9019 111.86 33.8136C113.051 35.9365 115.477 36.9985 119.243 36.9985ZM120.656 31.9019C119.506 31.9019 118.682 31.4775 118.349 30.4156C117.986 29.4607 118.026 28.1855 118.498 26.487C118.94 24.8936 119.608 23.6205 120.53 22.5574C121.422 21.6026 122.481 21.1772 123.633 21.1772C124.784 21.1772 125.607 21.6016 125.97 22.5574C126.304 23.6205 126.263 24.8936 125.822 26.487C125.35 28.1866 124.682 29.4607 123.79 30.4156C122.867 31.4765 121.808 31.9019 120.656 31.9019ZM306.431 30.894C305.383 30.894 304.769 30.4697 304.482 29.6199C304.09 28.7712 304.07 27.7092 304.454 26.3279C304.838 24.9466 305.475 23.7807 306.308 23.0359C307.068 22.1861 307.992 21.8679 308.964 21.7628C311.161 21.7628 311.87 23.3552 311.12 26.434C310.737 27.8142 310.128 28.8762 309.369 29.726C308.402 30.5768 307.476 30.894 306.431 30.894ZM299.84 16.5602L292.504 43H300.037L302.453 34.2921C303.237 35.9906 304.676 36.8404 306.558 36.8404C308.86 36.8404 311.158 36.0967 313.513 34.3971C314.684 33.4726 315.699 32.3611 316.519 31.1062C317.367 29.9382 318.047 28.2386 318.681 26.3279C319.447 23.5674 319.392 21.1252 318.487 19.1074C317.583 17.0895 315.679 16.0276 312.75 16.0276C311.599 16.0276 310.465 16.3459 309.167 16.8774C307.869 17.4078 306.766 18.3637 305.815 19.5317H305.709L306.534 16.5591L299.84 16.5602ZM293.632 28.2354C294.634 24.6241 294.621 21.6514 293.253 19.4214C291.989 17.1903 289.487 16.0233 285.931 16.0233C282.897 16.0233 280.121 16.9782 277.602 18.8899C274.979 20.8016 273.226 23.3499 272.284 26.748C271.399 29.9328 271.739 32.4822 273.359 34.1796C274.847 35.9853 277.122 36.834 280.261 36.834C282.563 36.834 284.772 36.4097 287.026 35.4538C289.279 34.499 291.11 32.7994 292.521 30.3572H285.302C284.946 30.8887 284.41 31.3131 283.798 31.6314C283.291 31.9496 282.634 32.0557 282.006 32.0557C280.959 32.0557 280.212 31.7374 279.685 30.9938C279.158 30.2511 279.081 29.4013 279.404 28.2333H293.632V28.2354ZM280.494 24.3058C281.113 22.0758 282.588 20.9067 284.919 20.8016C285.83 20.9077 286.58 21.226 286.926 21.8636C287.377 22.5002 287.559 23.3499 287.294 24.3058H280.494ZM254.971 36.3916L258.889 22.2689H252.401L253.992 16.5347H274.497L272.909 22.2689H266.421L262.503 36.3916H254.971ZM251.416 24.0735C251.793 21.2069 251.232 19.0819 249.598 17.8088C247.934 16.6397 245.809 16.0032 243.298 16.0032C240.055 16.0032 237.308 16.853 234.79 18.7647C232.302 20.5704 230.519 23.2248 229.576 26.6218C228.662 29.9138 229.001 32.462 230.594 34.2677C232.111 35.9662 234.356 36.9221 237.495 36.9221C240.11 36.9221 242.694 36.2845 244.93 35.0103C246.101 34.344 247.154 33.4826 248.044 32.462C248.966 31.4011 249.633 30.127 250.255 28.6396H242.721C242.411 29.4098 241.933 30.0991 241.325 30.6564C240.73 31.294 239.909 31.6123 238.968 31.6123C237.817 31.6123 237.098 31.189 236.839 30.232C236.552 29.3822 236.562 28.2142 237.004 26.6218C237.152 26.0913 237.433 25.4537 237.715 24.8161C237.996 24.1785 238.278 23.542 238.634 23.0115C238.991 22.48 239.527 22.0556 240.034 21.7363C240.54 21.418 241.123 21.2059 241.855 21.2059C242.691 21.2059 243.23 21.5241 243.502 22.0546C243.906 22.4789 243.911 23.2237 243.779 24.0724H251.416V24.0735ZM214.84 32.4599C213.166 32.4599 212.477 31.9284 212.772 30.8675C212.949 30.2299 213.305 29.6984 213.812 29.3801C214.319 29.0618 214.797 28.8497 215.453 28.7436C216.035 28.5314 216.797 28.4253 217.455 28.3192C218.246 28.106 218.933 27.8938 219.724 27.6816C219.445 29.0618 218.941 30.1238 218.154 31.0797C217.26 32.0356 216.2 32.4599 214.84 32.4599ZM225.812 36.2824L225.901 35.9641C225.495 35.5397 225.403 35.1154 225.417 34.6899C225.4 34.3717 225.413 33.9473 225.561 33.4158L228.124 24.1774C228.449 23.0083 228.743 21.9474 228.828 20.8855C228.985 20.0091 228.828 19.1046 228.384 18.3361C227.963 17.5935 227.168 17.062 225.926 16.6376C224.684 16.2132 222.963 16 220.663 16C217.106 16 214.208 16.6376 212.24 17.6985C210.241 18.8676 209.038 20.5661 208.449 22.689H215.876C216.321 21.8403 216.783 21.3088 217.394 20.9894C218.081 20.7783 218.529 20.6712 219.052 20.6712C219.575 20.6712 220.069 20.7783 220.638 20.9894C221.103 21.2027 221.298 21.627 221.197 22.3707C220.856 23.2194 219.977 23.752 218.559 23.9642C217.9 24.0703 217.139 24.1764 216.377 24.2825C215.511 24.3875 214.645 24.4936 213.645 24.7068C212.807 24.7068 211.912 24.919 211.091 25.2373C210.195 25.4495 209.24 25.8749 208.495 26.2982C207.749 26.7215 207.049 27.3602 206.425 28.1039C205.8 28.8475 205.326 29.8034 205.002 30.9704C204.472 32.8822 204.791 34.3685 205.887 35.3244C206.847 36.3863 208.299 36.8107 210.077 36.8107C211.542 36.8107 212.826 36.7046 213.991 36.2792C215.259 35.8548 216.512 35.1122 217.823 34.1563L217.652 36.2792H225.812V36.2824ZM160.872 36.3916L164.791 22.2689H158.199L159.79 16.5347H180.4L178.809 22.2689H172.218L168.3 36.3916H160.872ZM144.375 30.894C143.33 30.894 142.716 30.4697 142.427 29.6199C142.035 28.7712 142.015 27.7092 142.399 26.3279C142.781 24.9477 143.42 23.7807 144.254 23.0359C145.013 22.1861 145.938 21.8679 146.909 21.7628C149.106 21.7628 149.815 23.3552 149.064 26.434C148.682 27.8142 148.073 28.8762 147.314 29.726C146.348 30.5768 145.422 30.894 144.375 30.894ZM137.787 16.5602L130.451 43H137.985L140.4 34.2921C141.184 35.9906 142.622 36.8404 144.506 36.8404C146.808 36.8404 149.106 36.0967 151.46 34.3971C152.631 33.4726 153.646 32.3611 154.465 31.1062C155.313 29.9382 155.994 28.2386 156.629 26.3279C157.395 23.5674 157.34 21.1252 156.436 19.1074C155.531 17.0895 153.627 16.0276 150.698 16.0276C149.547 16.0276 148.413 16.3459 147.115 16.8774C145.817 17.4078 144.714 18.3637 143.762 19.5317H143.657L144.482 16.5591L137.787 16.5602ZM85.0665 36.3916H92.4953L96.4119 22.2689H102.376L98.4575 36.3916H105.991L111.499 16.5347H90.5751L85.0665 36.3916ZM86.1818 24.0735C86.5592 21.2069 85.9968 19.0819 84.3631 17.8088C82.7 16.6397 80.575 16.0032 78.0632 16.0032C74.8197 16.0032 72.0748 16.853 69.5557 18.7647C67.0679 20.5704 65.2847 23.2248 64.3419 26.6218C63.4293 29.9138 63.768 32.462 65.3589 34.2677C66.8756 35.9662 69.1219 36.9221 72.2598 36.9221C74.8751 36.9221 77.459 36.2845 79.6949 35.0103C80.866 34.3438 81.9186 33.4824 82.8087 32.462C83.7307 31.4011 84.3986 30.127 85.0205 28.6396H77.4872C77.1773 29.41 76.6999 30.0994 76.0907 30.6564C75.496 31.294 74.6755 31.6123 73.7337 31.6123C72.5828 31.6123 71.8637 31.189 71.6055 30.232C71.318 29.3822 71.3285 28.2142 71.7706 26.6218C71.918 26.0913 72.1992 25.4537 72.4814 24.8161C72.7626 24.1785 73.0438 23.542 73.4002 23.0115C73.7567 22.48 74.2929 22.0556 74.7998 21.7363C75.3068 21.418 75.889 21.2059 76.6217 21.2059C77.458 21.2059 77.9973 21.5241 78.2691 22.0546C78.6736 22.4789 78.6768 23.2237 78.5461 24.0724H86.1818V24.0735Z" fill="white"/>
<path fill-rule="evenodd" clip-rule="evenodd" d="M183.422 11.1592L188.876 35L208.756 11L192.91 21.4536L183.422 11.1592Z" fill="#CC2229"/>
<path fill-rule="evenodd" clip-rule="evenodd" d="M182.94 17L177.342 36H187.033L182.94 17ZM206.73 17L191.765 36H201.132L206.73 17Z" fill="white"/>
<path fill-rule="evenodd" clip-rule="evenodd" d="M57.7765 7.30371L39.8452 27.3534L0 7.47214L37.6656 15.3023L57.7765 7.30371Z" fill="#CC2229"/>
<path fill-rule="evenodd" clip-rule="evenodd" d="M3.58496 46.8175L24.5984 23.321L71.295 46.6207L27.1525 37.4431L3.58496 46.8175ZM36.4861 0.0203156C33.0387 0.295289 30.4527 3.29362 30.7326 6.69476C31.0125 10.0959 34.0534 12.6447 37.5007 12.3688C40.9501 12.0938 43.5351 9.09545 43.2552 5.69532C42.9763 2.29417 39.9355 -0.254658 36.4861 0.0203156Z" fill="white"/>
</svg>
