<svg width="147" height="34" viewBox="0 0 147 34" fill="none" xmlns="http://www.w3.org/2000/svg">
<path d="M82.5539 -0.00341797L64.1938 2.39509V7.82827L82.5539 6.18981V-0.00341797Z" fill="#E4003A"/>
<path fill-rule="evenodd" clip-rule="evenodd" d="M79.0784 12.4478L64.1941 2.40088V7.82123L68.8351 10.9649L69.7482 11.4976C68.0809 11.5177 67.2823 11.8563 66.4802 12.3406C64.1885 13.7223 62.9988 16.1522 62.9988 19.7378C62.9988 25.7796 66.3337 28.6402 72.6866 28.6402C79.0398 28.6402 82.3913 25.7796 82.3913 19.7378C82.3913 16.2409 81.2572 13.8499 79.0784 12.4478ZM72.6866 24.2223C69.5371 24.2223 68.546 23.0758 68.546 19.7841C68.546 16.4925 69.5297 15.3459 72.6866 15.3459C75.8438 15.3459 76.8108 16.4701 76.8108 19.7841C76.8108 23.0978 75.8604 24.2223 72.6866 24.2223ZM26.4566 19.7841C26.4566 23.0814 27.4404 24.2223 30.5973 24.2223C33.7541 24.2223 34.7215 23.0758 34.7215 19.7841C34.7215 16.4925 33.7689 15.3459 30.5973 15.3459C27.4253 15.3459 26.4566 16.4701 26.4566 19.7841ZM20.9095 19.7361C20.9095 13.6943 24.2668 10.9297 30.5973 10.9297C36.9279 10.9297 40.2998 13.6943 40.2998 19.7361C40.2998 25.7776 36.9649 28.6385 30.5973 28.6385C24.2296 28.6385 20.9095 25.7776 20.9095 19.7361ZM5.31908 13.5224C5.92309 12.7566 8.35954 10.9074 11.3571 10.9074C16.3462 10.9074 19.0975 13.5964 19.0975 19.7046C19.0975 25.8124 16.3426 28.5274 11.3403 28.5274C8.32583 28.5274 5.90632 26.7114 5.28587 25.9292V34.003H0V11.3033H5.31908V13.5224ZM5.32286 19.6914C5.32286 22.9851 6.31404 24.1296 9.4635 24.1296V24.1224C12.6351 24.1224 13.5857 23.0015 13.5857 19.6914C13.5857 16.3813 12.6204 15.2532 9.4635 15.2532C6.30664 15.2532 5.32286 16.3978 5.32286 19.6914ZM118.763 11.3105V17.4743H111.745V11.3105H106.426V27.9911H111.745V21.7422H118.763V27.9911H124.084V11.3105H118.763ZM91.979 28.5274C86.973 28.5274 84.2216 25.8069 84.2216 19.7046C84.2216 13.6128 86.971 10.9074 91.9605 10.9074C94.956 10.9074 97.3925 12.7566 98.0001 13.5112V11.2921H103.319V27.9927H98.0315V25.9292C97.4109 26.7114 94.9914 28.5274 91.979 28.5274ZM93.8557 15.242C90.6821 15.242 89.7315 16.3665 89.7315 19.6802C89.7295 22.9775 90.7007 24.1188 93.8557 24.1188C97.0109 24.1188 97.9944 22.9906 97.9944 19.6802C97.9944 16.3702 97.0295 15.242 93.8557 15.242ZM55.7346 21.8273C55.3194 23.5713 54.2079 24.222 51.7993 24.222C48.6498 24.222 47.6603 23.0755 47.6603 19.7838C47.6603 16.4921 48.6498 15.3456 51.7993 15.3456C54.2079 15.3456 55.3194 15.9947 55.7362 17.7498L61.2833 17.3299C60.455 12.9657 57.2073 10.937 51.7993 10.937C45.4686 10.937 42.1135 13.7016 42.1135 19.7434C42.1135 25.7848 45.4481 28.6458 51.7993 28.6458C57.2035 28.6458 60.4181 26.5746 61.2665 22.2528L55.7346 21.8273ZM138.179 19.2311L146.598 27.9891H139.76L132.427 20.3092V20.7124V22.1565V27.9891H127.202V11.3105H132.427V18.556L139.565 11.3105H146.146L138.179 19.2311Z" fill="white"/>
</svg>
