<svg width="200" height="50" viewBox="0 0 200 50" fill="none" xmlns="http://www.w3.org/2000/svg">
<path fill-rule="evenodd" clip-rule="evenodd" d="M46.0122 7C36.0762 7 28 15.0732 28 25.0098C28 34.9258 36.0762 43 46.0122 43C55.9258 43 64 34.9258 64 25.0098C64 15.0732 55.9258 7 46.0122 7ZM46.0122 42.0996C36.5762 42.0996 28.8999 34.4297 28.8999 25.0098C28.8999 15.5703 36.5732 7.90039 46.0122 7.90039C55.4321 7.90039 63.1001 15.5742 63.1001 25.0098C63.1001 34.4277 55.4292 42.0996 46.0122 42.0996ZM98.8911 21.8281C98.8911 22.9727 97.8281 23.3486 97.2461 23.3486H95.707V26.6777H97.1641C98.3921 26.6777 98.9521 27.2607 98.9521 28.1357C98.9521 28.7578 98.4961 29.6143 97.3301 29.6143C96.6431 29.6143 95.957 29.5742 94.937 29.1338L94.874 32.3643C95.2075 32.5459 95.5239 32.6904 95.8413 32.8037C96.5742 33.0645 97.3145 33.1602 98.2871 33.1738C100.91 33.1738 102.949 31.5508 102.949 28.6143C102.949 26.2393 101.533 25.2227 100.473 24.8857V24.7412C101.574 24.2812 102.7 23.0977 102.7 21.1396C102.7 19.1211 101.389 17.0596 98.4312 17.0596C97.8184 17.0527 97.207 17.0947 96.6025 17.1836C96.1611 17.249 95.7231 17.3389 95.291 17.4541L95.332 20.8291C96.103 20.4541 96.8931 20.3906 97.3081 20.3906C97.6641 20.3906 98.8911 20.4756 98.8911 21.8281ZM132.645 33.0498C136.911 33.0498 138.345 29.0498 138.345 25.0742C138.345 21.0996 136.911 17.1006 132.645 17.1006C128.379 17.1006 126.945 21.0996 126.945 25.0742C126.945 29.0498 128.379 33.0488 132.645 33.0498ZM132.645 29.2793C131.373 29.2793 130.731 27.8027 130.731 25.0742C130.731 22.3457 131.373 20.8682 132.645 20.8682C133.916 20.8682 134.558 22.3457 134.558 25.0742C134.558 27.8027 133.916 29.2793 132.645 29.2793ZM143.134 17.3301H140.075V32.8613H143.674V23.3877L145.836 26.0938L148 23.3877V32.8613H151.603V17.3291H148.565L145.836 20.9941L143.134 17.3301ZM154.037 32.8613H158.323C159.259 32.8613 163.152 32.4648 163.172 27.7578C163.172 23.8076 160.156 23.1182 158.199 23.1182H157.554V21.0576H162.319V17.3301H154.037V32.8613ZM157.554 29.7383V26.2197H158.074C158.295 26.2197 158.693 26.2256 159.032 26.4385C159.362 26.6465 159.636 27.0518 159.636 27.8428C159.636 29.4697 158.51 29.7383 158.074 29.7383H157.554ZM176.117 17.3301H179.634V22.9307H182.152V17.3301H185.667V32.8623H182.152V26.6367H179.634V32.8623H176.117V17.3301ZM188.039 17.3301H191.578L191.557 22.9102H192.326L194.345 17.3301H198.174L195.426 24.7021L198.57 32.8623H194.427L192.39 26.6152H191.557L191.578 32.8613H188.039V17.3301ZM167.523 32.8818H163.86L166.96 17.3516H171.497L174.577 32.8818H170.915L170.477 30.1963H167.961L167.523 32.8818ZM169.894 26.7812L169.228 22.0547L168.541 26.7812H169.894ZM120.116 32.8613H116.516V17.3291H121.325C124.715 17.3291 125.985 20.4932 125.985 22.4912C125.985 24.5342 124.881 27.7412 121.325 27.7412H120.116V32.8613ZM120.97 20.7441H120.116L120.117 24.3242H120.97C121.428 24.3242 122.303 24.2002 122.303 22.5342C122.303 21.2441 121.782 20.7441 120.97 20.7441ZM104.634 17.3301H114.456V32.8604H110.855V21.0771H108.235V32.8613H104.634V17.3301ZM83.0981 32.8613H86.7383L87.1973 30.1738H89.7153L90.1514 32.8613H93.791L90.7109 17.3291H86.1763L83.0981 32.8613ZM88.4443 22.0137L89.1323 26.7607H87.7573L88.4443 22.0137ZM83.5107 17.3301H76.127V32.8604H79.7871V21.2002H83.5107V17.3301ZM51.1196 13.6934C48.271 12.4229 42.9629 12.2969 38.6147 14.2334C39.1748 13.833 39.7744 13.4932 40.4048 13.2168C41.7739 12.5791 43.9819 11.9609 46.7339 11.9609C46.8638 11.9609 46.9937 11.9619 47.124 11.9648C49.4771 12.0068 52.2666 12.8193 53.9717 14.5059C54.1426 14.7139 54.271 14.9219 54.3604 15.1133C54.4229 15.2471 54.4663 15.3721 54.4917 15.4844C55.8447 16.1719 56.6348 16.8164 57.0708 17.5664C57.2598 17.9609 57.3218 18.376 57.2368 18.8555C57.6807 19.1045 58.0654 19.4463 58.3647 19.8584C58.4604 20.0205 58.5454 20.1924 58.6113 20.3652C58.6729 20.5254 58.7173 20.6855 58.7378 20.8379C58.7988 21.251 58.8398 21.7295 58.4028 22.293C58.8608 22.5225 59.2339 23.165 59.2788 23.4385C59.5078 24.4551 58.8398 25.4551 57.9878 26.2275C56.9878 27.1006 54.7817 28.1416 52.9917 28.6006C49.458 29.4951 46.313 29.8711 43.8179 30.3301C44.9409 30.5996 46.459 30.9551 48.937 30.9551C54.2407 30.9551 58.9238 28.4541 58.9238 28.4541C58.9238 28.4541 58.8208 28.7686 58.7148 29.0605C55.3447 31.0996 49.998 31.9521 47.707 31.8477C45.397 31.7422 43.4419 31.3896 41.5269 30.8057C40.9419 30.9707 40.3657 31.165 39.8008 31.3896C42.7158 32.7217 44.9199 33.0146 47.397 33.2002C49.9336 33.3896 54.1396 32.7832 57.6738 31.4961C57.5078 31.6641 57.4248 31.9121 57.2598 32.0576C56.0537 32.6953 53.9541 33.333 52.1143 33.7119C51.1909 33.9023 50.333 34.0283 49.686 34.0557C47.77 34.1396 45.4399 34.0557 43.3999 33.6797C41.6519 33.3281 40.2139 32.7832 38.7168 32.1201C38.4487 32.3252 38.3237 32.5781 38.2588 32.8701C44.1099 35.9297 49.5586 35.9902 55.7837 34.0557L55.2197 34.5977C48.373 37.3877 43.0249 36.3037 38.8818 34.3047L38.707 34.2295C38.6147 34.1895 38.5234 34.1465 38.4487 34.0967C38.8447 34.7637 42.0049 37.0742 45.543 37.3662C47.98 37.5742 50.9546 37.1572 52.7227 36.4512L51.6826 36.9912C50.8286 37.4082 48.561 38.3682 45.396 38.1582C41.1729 37.8652 38.7998 35.9912 37.7378 35.0146C37.2388 34.5537 37.0117 34.0352 36.8647 33.3896C36.1724 33.0283 35.665 32.6553 35.2495 32.1777C35.0903 31.9941 34.9443 31.7959 34.8066 31.5771C34.5146 31.1406 34.5747 30.6211 34.6367 30.1807L34.7666 29.8105C34.3057 29.4736 33.8276 29.1201 33.6406 28.7686C33.2217 28.0186 33.4756 27.3721 33.7656 26.8721C33.5146 26.5811 33.2847 26.29 33.1851 25.999C33.0586 25.666 33.0391 25.3291 33.0767 24.9561C33.1616 24.333 33.4946 23.752 33.9316 23.25C34.8457 22.1875 36.3057 21.3555 38.7788 20.5439C41.2158 19.7295 42.1948 19.6045 44.0259 19.1865C44.8398 18.998 45.7144 18.8574 46.603 18.7139C48.0537 18.4805 49.5425 18.2402 50.8706 17.7754C44.8979 16.7354 38.6978 17.6914 33.6406 21.165L33.9727 20.1875C38.5088 17.2324 43.5249 15.4844 52.0146 16.9629C52.4727 16.6914 52.7427 16.4199 52.8696 15.8799C50.7456 15.1104 48.437 14.8398 45.4619 14.8799C42.7969 14.9648 37.9878 15.96 35.4116 17.4854L36.1987 16.5049C37.9878 15.4395 42.6699 14.0469 46.1899 13.9844C48.6641 13.9229 49.9336 14.0674 52.8896 14.8594C52.6353 14.3965 52.0952 14.1465 51.2993 13.7764L51.1196 13.6934ZM55.6558 18.0254C55.5747 17.4424 54.9087 16.8799 54.3247 16.5049C54.2417 16.7969 53.9326 17.1504 53.7227 17.3799C54.3677 17.5479 55.0337 17.7939 55.6558 18.0254ZM52.8076 18.2109C52.3887 18.5449 51.9126 18.835 51.2026 19.1084C51.8325 19.2188 52.3774 19.3662 52.9014 19.5225C53.3491 19.6553 53.7817 19.7939 54.2407 19.9189C54.251 19.9238 54.2627 19.9258 54.2739 19.9248C54.4907 19.9248 55.2036 19.2656 55.3267 19.085C54.6147 18.7725 53.7407 18.459 52.8076 18.2109ZM57.2598 21.2715C57.5288 20.751 57.3628 20.418 56.8027 19.9385C56.5728 20.2119 56.3228 20.4385 56.0527 20.6465C56.4888 20.8545 56.8867 21.002 57.2598 21.2715ZM47.897 20.1699C45.1499 20.5029 42.1099 21.083 39.5098 21.8545L39.3711 21.8965C38.0806 22.2891 33.2007 23.7695 34.6826 25.8105C34.6978 25.8105 35.623 24.5342 39.1128 23.5195C41.3936 22.8496 43.7319 22.4238 46.1069 21.9912C48.2402 21.6025 50.4033 21.208 52.5796 20.627C50.7891 20.1504 49.7866 19.9385 47.897 20.1699ZM50.8721 22.6885C49.395 23.0625 45.814 23.583 41.9658 24.415C40.7578 24.6855 37.4478 25.4551 35.8247 26.8301C36.0356 27.0039 36.2114 27.1152 36.3882 27.2129C36.5947 27.3271 36.8032 27.4229 37.0718 27.5801C37.7378 27.1416 38.6548 26.7256 40.0098 26.3701C42.3569 25.7471 44.1299 25.4785 46.252 25.127C48.354 24.8086 52.3276 23.9766 54.5117 23.1855C55.0254 23.0117 55.5063 22.7949 55.9121 22.543C56.084 22.4365 56.2427 22.3242 56.3848 22.2061C56.2388 22.042 54.8237 21.3555 54.7817 21.4189C53.9106 21.834 52.6616 22.249 50.8721 22.6885ZM45.75 26.875C44.1582 27.1387 42.6245 27.3926 41.0059 27.79C40.2778 27.9746 39.5288 28.2051 38.8447 28.4951C39.5288 28.8496 40.2788 29.1631 41.0269 29.4551C42.5249 29.0176 43.2358 28.8301 45.396 28.4766C46.229 28.3281 48.7681 27.8711 50.5986 27.5C53.9106 26.7891 58.7588 25.248 57.4688 23.25C57.4043 23.3047 57.3398 23.3545 57.2754 23.4043C57.1938 23.4688 57.1128 23.5332 57.0317 23.6045C56.0527 24.3496 54.4917 24.9561 52.3496 25.5195C49.8643 26.1924 47.7607 26.541 45.75 26.875ZM35.751 28.5967C35.8135 28.5488 35.8745 28.501 35.9297 28.4541C35.6616 28.3154 35.4604 28.1943 35.2559 28.0654L34.9507 27.8701C34.8774 28.0371 34.9014 28.21 34.979 28.3672C35.0781 28.5674 35.2651 28.7432 35.4507 28.8496C35.5405 28.7598 35.6475 28.6768 35.751 28.5967ZM39.3198 30.0576C38.7168 29.7871 38.0728 29.5186 37.4478 29.2266C37.1567 29.4141 36.8877 29.5996 36.6787 29.7871C37.1777 30.0791 37.6577 30.3477 38.1577 30.6221C38.5254 30.3955 38.9146 30.2061 39.3198 30.0576ZM36.8877 31.9951C36.9478 31.7852 37.0537 31.6201 37.1997 31.4121C36.8438 31.2217 36.4907 31.0361 36.1377 30.8057C36.1147 31.2031 36.3667 31.5566 36.8877 31.9951Z" fill="#202838"/>
<mask id="mask0_247_10164" style="mask-type:alpha" maskUnits="userSpaceOnUse" x="28" y="7" width="36" height="36">
<path fill-rule="evenodd" clip-rule="evenodd" d="M46.0122 7C36.0762 7 28 15.0732 28 25.0098C28 34.9258 36.0762 43 46.0122 43C55.9258 43 64 34.9258 64 25.0098C64 15.0732 55.9258 7 46.0122 7ZM46.0122 42.0996C36.5762 42.0996 28.8999 34.4297 28.8999 25.0098C28.8999 15.5703 36.5732 7.90039 46.0122 7.90039C55.4321 7.90039 63.1001 15.5742 63.1001 25.0098C63.1001 34.4277 55.4292 42.0996 46.0122 42.0996ZM51.1196 13.6934C48.271 12.4229 42.9629 12.2969 38.6147 14.2334C39.1748 13.833 39.7744 13.4932 40.4048 13.2168C41.7739 12.5791 43.9819 11.9609 46.7339 11.9609C46.8638 11.9609 46.9937 11.9619 47.124 11.9648C49.4771 12.0068 52.2666 12.8193 53.9717 14.5059C54.1426 14.7139 54.271 14.9219 54.3604 15.1133C54.4229 15.2471 54.4663 15.3721 54.4917 15.4844C55.8447 16.1719 56.6348 16.8164 57.0708 17.5664C57.2598 17.9609 57.3218 18.376 57.2368 18.8555C57.6807 19.1045 58.0654 19.4463 58.3647 19.8584C58.4604 20.0205 58.5454 20.1924 58.6113 20.3652C58.6729 20.5254 58.7173 20.6855 58.7378 20.8379C58.7988 21.251 58.8398 21.7295 58.4028 22.293C58.8608 22.5225 59.2339 23.165 59.2788 23.4385C59.5078 24.4551 58.8398 25.4551 57.9878 26.2275C56.9878 27.1006 54.7817 28.1416 52.9917 28.6006C49.458 29.4951 46.313 29.8711 43.8179 30.3301C44.9409 30.5996 46.459 30.9551 48.937 30.9551C54.2407 30.9551 58.9238 28.4541 58.9238 28.4541C58.9238 28.4541 58.8208 28.7686 58.7148 29.0605C55.3447 31.0996 49.998 31.9521 47.707 31.8477C45.397 31.7422 43.4419 31.3896 41.5269 30.8057C40.9419 30.9707 40.3657 31.165 39.8008 31.3896C42.7158 32.7217 44.9199 33.0146 47.397 33.2002C49.9336 33.3896 54.1396 32.7832 57.6738 31.4961C57.5078 31.6641 57.4248 31.9121 57.2598 32.0576C56.0537 32.6953 53.9541 33.333 52.1143 33.7119C51.1909 33.9023 50.333 34.0283 49.686 34.0557C47.77 34.1396 45.4399 34.0557 43.3999 33.6797C41.6519 33.3281 40.2139 32.7832 38.7168 32.1201C38.4487 32.3252 38.3237 32.5781 38.2588 32.8701C44.1099 35.9297 49.5586 35.9902 55.7837 34.0557L55.2197 34.5977C48.373 37.3877 43.0249 36.3037 38.8818 34.3047L38.707 34.2295C38.6147 34.1895 38.5234 34.1465 38.4487 34.0967C38.8447 34.7637 42.0049 37.0742 45.543 37.3662C47.98 37.5742 50.9546 37.1572 52.7227 36.4512L51.6826 36.9912C50.8286 37.4082 48.561 38.3682 45.396 38.1582C41.1729 37.8652 38.7998 35.9912 37.7378 35.0146C37.2388 34.5537 37.0117 34.0352 36.8647 33.3896C36.1724 33.0283 35.665 32.6553 35.2495 32.1777C35.0903 31.9941 34.9443 31.7959 34.8066 31.5771C34.5146 31.1406 34.5747 30.6211 34.6367 30.1807L34.7666 29.8105C34.3057 29.4736 33.8276 29.1201 33.6406 28.7686C33.2217 28.0186 33.4756 27.3721 33.7656 26.8721C33.5146 26.5811 33.2847 26.29 33.1851 25.999C33.0586 25.666 33.0391 25.3291 33.0767 24.9561C33.1616 24.333 33.4946 23.752 33.9316 23.25C34.8457 22.1875 36.3057 21.3555 38.7788 20.5439C41.2158 19.7295 42.1948 19.6045 44.0259 19.1865C44.8398 18.998 45.7144 18.8574 46.603 18.7139C48.0537 18.4805 49.5425 18.2402 50.8706 17.7754C44.8979 16.7354 38.6978 17.6914 33.6406 21.165L33.9727 20.1875C38.5088 17.2324 43.5249 15.4844 52.0146 16.9629C52.4727 16.6914 52.7427 16.4199 52.8696 15.8799C50.7456 15.1104 48.437 14.8398 45.4619 14.8799C42.7969 14.9648 37.9878 15.96 35.4116 17.4854L36.1987 16.5049C37.9878 15.4395 42.6699 14.0469 46.1899 13.9844C48.6641 13.9229 49.9336 14.0674 52.8896 14.8594C52.6353 14.3965 52.0952 14.1465 51.2993 13.7764L51.1196 13.6934ZM55.6558 18.0254C55.5747 17.4424 54.9087 16.8799 54.3247 16.5049C54.2417 16.7969 53.9326 17.1504 53.7227 17.3799C54.3677 17.5479 55.0337 17.7939 55.6558 18.0254ZM52.8076 18.2109C52.3887 18.5449 51.9126 18.835 51.2026 19.1084C51.8325 19.2188 52.3774 19.3662 52.9014 19.5225C53.3491 19.6553 53.7817 19.7939 54.2407 19.9189C54.251 19.9238 54.2627 19.9258 54.2739 19.9248C54.4907 19.9248 55.2036 19.2656 55.3267 19.085C54.6147 18.7725 53.7407 18.459 52.8076 18.2109ZM57.2598 21.2715C57.5288 20.751 57.3628 20.418 56.8027 19.9385C56.5728 20.2119 56.3228 20.4385 56.0527 20.6465C56.4888 20.8545 56.8867 21.002 57.2598 21.2715ZM47.897 20.1699C45.1499 20.5029 42.1099 21.083 39.5098 21.8545L39.3711 21.8965C38.0806 22.2891 33.2007 23.7695 34.6826 25.8105C34.6978 25.8105 35.623 24.5342 39.1128 23.5195C41.3936 22.8496 43.7319 22.4238 46.1069 21.9912C48.2402 21.6025 50.4033 21.208 52.5796 20.627C50.7891 20.1504 49.7866 19.9385 47.897 20.1699ZM50.8721 22.6885C49.395 23.0625 45.814 23.583 41.9658 24.415C40.7578 24.6855 37.4478 25.4551 35.8247 26.8301C36.0356 27.0039 36.2114 27.1152 36.3882 27.2129C36.5947 27.3271 36.8032 27.4229 37.0718 27.5801C37.7378 27.1416 38.6548 26.7256 40.0098 26.3701C42.3569 25.7471 44.1299 25.4785 46.252 25.127C48.354 24.8086 52.3276 23.9766 54.5117 23.1855C55.0254 23.0117 55.5063 22.7949 55.9121 22.543C56.084 22.4365 56.2427 22.3242 56.3848 22.2061C56.2388 22.042 54.8237 21.3555 54.7817 21.4189C53.9106 21.834 52.6616 22.249 50.8721 22.6885ZM45.75 26.875C44.1582 27.1387 42.6245 27.3926 41.0059 27.79C40.2778 27.9746 39.5288 28.2051 38.8447 28.4951C39.5288 28.8496 40.2788 29.1631 41.0269 29.4551C42.5249 29.0176 43.2358 28.8301 45.396 28.4766C46.229 28.3281 48.7681 27.8711 50.5986 27.5C53.9106 26.7891 58.7588 25.248 57.4688 23.25C57.4043 23.3047 57.3398 23.3545 57.2754 23.4043C57.1938 23.4688 57.1128 23.5332 57.0317 23.6045C56.0527 24.3496 54.4917 24.9561 52.3496 25.5195C49.8643 26.1924 47.7607 26.541 45.75 26.875ZM35.751 28.5967C35.8135 28.5488 35.8745 28.501 35.9297 28.4541C35.6616 28.3154 35.4604 28.1943 35.2559 28.0654L34.9507 27.8701C34.8774 28.0371 34.9014 28.21 34.979 28.3672C35.0781 28.5674 35.2651 28.7432 35.4507 28.8496C35.5405 28.7598 35.6475 28.6768 35.751 28.5967ZM39.3198 30.0576C38.7168 29.7871 38.0728 29.5186 37.4478 29.2266C37.1567 29.4141 36.8877 29.5996 36.6787 29.7871C37.1777 30.0791 37.6577 30.3477 38.1577 30.6221C38.5254 30.3955 38.9146 30.2061 39.3198 30.0576ZM36.8877 31.9951C36.9478 31.7852 37.0537 31.6201 37.1997 31.4121C36.8438 31.2217 36.4907 31.0361 36.1377 30.8057C36.1147 31.2031 36.3667 31.5566 36.8877 31.9951Z" fill="white"/>
</mask>
<g mask="url(#mask0_247_10164)">
<path d="M64 2H28V50H64V2Z" fill="#202838"/>
</g>
</svg>
