<svg width="127" height="23" viewBox="0 0 127 23" fill="none" xmlns="http://www.w3.org/2000/svg">
<path d="M119.733 17.4461C119.699 17.7047 119.6 18.3849 118.704 18.4732H110.833C109.937 18.3849 109.773 17.7047 109.74 17.4461V5.43237C109.773 5.17319 109.897 4.62226 110.793 4.5339H118.708C119.604 4.62226 119.699 5.17319 119.733 5.43237V17.4461ZM122.458 0.00743928H107.014C104.694 0.192527 102.734 1.35608 102.472 3.9591V18.8329C102.734 21.4359 104.694 22.8149 107.014 23H122.458C124.778 22.8149 126.738 21.4359 127 18.8329V3.9591C126.738 1.35608 124.778 0.192527 122.458 0.00743928ZM59.957 4.5339H53.0526V0.00743928H74.1288V4.5339H67.2245V23H59.957V4.5339ZM50.8726 4.5339V0.00743928H31.9767V23L51.1238 22.995L51.1307 18.4735H39.2627L39.2639 13.549H50.8725V9.03371H39.2639V4.53391L50.8726 4.5339ZM93.0244 8.09771C93.0244 8.59531 92.8993 9.03184 91.9959 9.03184H83.5766V4.51871H92.0069C93.0323 4.51871 93.0244 5.18218 93.0244 5.59638V8.09771ZM95.0376 14.0618C97.3048 13.8823 99.565 12.3566 99.565 9.85094V4.17457C99.3019 1.58364 97.3358 0.184468 95.005 0H76.3088L76.3094 23H83.5766V14.0618H86.469L91.1928 23H99.5506L93.9253 14.0618H95.0376ZM16.9332 23L21.8024 8.5578V23H29.0699V0.00743928H19.259L14.535 11.504L9.81095 0.00743928H0V23H7.26755V8.5578L12.1727 23H16.9332Z" fill="#202838"/>
</svg>
