<svg width="107" height="24" viewBox="0 0 107 24" fill="none" xmlns="http://www.w3.org/2000/svg">
<path d="M44.666 17.337H35.442L47.218 1.96021C47.4746 1.62257 47.4033 1.13018 47.0612 0.876945C46.9328 0.778466 46.7618 0.722191 46.5907 0.722191H29.554C28.0571 0.722191 26.831 1.93208 26.831 3.40926C26.831 4.88644 28.0571 6.09633 29.554 6.09633H37.2098L25.3911 21.4872C25.1202 21.8248 25.1915 22.3031 25.5336 22.5704C25.6762 22.683 25.8473 22.7393 26.0184 22.7252H44.6518C46.1487 22.6549 47.3035 21.3887 47.2322 19.8974C47.161 18.5187 46.0489 17.4214 44.6518 17.3511V17.337H44.666ZM104.202 0.722191C102.705 0.722191 101.479 1.93208 101.479 3.40926V12.4271L86.7659 0.905081C86.438 0.637781 85.939 0.679987 85.6681 1.01763C85.5541 1.15831 85.4971 1.32713 85.4971 1.51002V20.0381C85.4971 21.5153 86.7231 22.7252 88.2201 22.7252C89.717 22.7252 90.9431 21.5294 90.9431 20.0381V11.0203L105.656 22.5564C105.998 22.8237 106.497 22.7674 106.768 22.4298C106.882 22.2891 106.939 22.1203 106.939 21.9514V3.40926C106.925 1.91801 105.713 0.722191 104.202 0.722191ZM65.2669 17.8435C59.0367 17.8435 54.3891 14.6077 54.3891 11.7096C54.3891 8.81153 59.051 5.5758 65.2669 5.5758C71.497 5.5758 76.1447 8.81153 76.1447 11.7096C76.1447 14.6077 71.5113 17.8435 65.2669 17.8435ZM65.2669 0.20166C56.2567 0.20166 48.943 5.3507 48.943 11.7096C48.943 18.0686 56.2567 23.2176 65.2669 23.2176C74.2771 23.2176 81.5907 18.0686 81.5907 11.7096C81.5907 5.3507 74.2771 0.20166 65.2669 0.20166ZM11.6762 17.8575C8.24034 17.8575 5.44603 15.1142 5.44603 11.7237C5.44603 8.3332 8.22608 5.5758 11.6619 5.5758C15.0978 5.5758 17.8921 8.31914 17.8921 11.7096V11.7237C17.8921 15.1001 15.112 17.8435 11.6762 17.8575ZM11.6762 0.20166C5.23218 0.20166 0.0142566 5.3507 0 11.7096C0 18.0686 5.21793 23.2176 11.6619 23.2317C18.1059 23.2317 23.3239 18.0826 23.3381 11.7237V11.7096C23.3239 5.3507 18.1059 0.20166 11.6762 0.20166Z" fill="white"/>
</svg>
