<svg width="200" height="50" viewBox="0 0 200 50" fill="none" xmlns="http://www.w3.org/2000/svg">
<path d="M108.956 6.49609L90.5959 8.8946V14.3278L108.956 12.6893V6.49609Z" fill="#E4003A"/>
<path fill-rule="evenodd" clip-rule="evenodd" d="M105.48 18.9474L90.5959 8.90039V14.3207L95.237 17.4644L96.1501 17.9971C94.4827 18.0172 93.6842 18.3558 92.8821 18.8402C90.5903 20.2218 89.4007 22.6517 89.4007 26.2373C89.4007 32.2791 92.7356 35.1397 99.0884 35.1397C105.442 35.1397 108.793 32.2791 108.793 26.2373C108.793 22.7404 107.659 20.3494 105.48 18.9474ZM99.0884 30.7219C95.939 30.7219 94.9478 29.5753 94.9478 26.2836C94.9478 22.992 95.9316 21.8454 99.0884 21.8454C102.246 21.8454 103.213 22.9696 103.213 26.2836C103.213 29.5973 102.262 30.7219 99.0884 30.7219ZM52.8585 26.2836C52.8585 29.5809 53.8423 30.7219 56.9991 30.7219C60.156 30.7219 61.1233 29.5753 61.1233 26.2836C61.1233 22.992 60.1708 21.8454 56.9991 21.8454C53.8271 21.8454 52.8585 22.9696 52.8585 26.2836ZM47.3114 26.2356C47.3114 20.1939 50.6686 17.4293 56.9991 17.4293C63.3298 17.4293 66.7017 20.1939 66.7017 26.2356C66.7017 32.2771 63.3668 35.138 56.9991 35.138C50.6315 35.138 47.3114 32.2771 47.3114 26.2356ZM31.7209 20.0219C32.3249 19.2561 34.7614 17.4069 37.7589 17.4069C42.7481 17.4069 45.4993 20.0959 45.4993 26.2041C45.4993 32.312 42.7444 35.0269 37.7422 35.0269C34.7277 35.0269 32.3082 33.2109 31.6877 32.4287V40.5025H26.4019V17.8028H31.7209V20.0219ZM31.7247 26.1909C31.7247 29.4846 32.7159 30.6291 35.8654 30.6291V30.6219C39.037 30.6219 39.9876 29.501 39.9876 26.1909C39.9876 22.8808 39.0222 21.7527 35.8654 21.7527C32.7085 21.7527 31.7247 22.8973 31.7247 26.1909ZM145.165 17.81V23.9738H138.147V17.81H132.828V34.4906H138.147V28.2417H145.165V34.4906H150.486V17.81H145.165ZM118.381 35.0269C113.375 35.0269 110.623 32.3064 110.623 26.2041C110.623 20.1123 113.373 17.4069 118.362 17.4069C121.358 17.4069 123.794 19.2561 124.402 20.0107V17.7916H129.721V34.4923H124.433V32.4287C123.813 33.2109 121.393 35.0269 118.381 35.0269ZM120.258 21.7415C117.084 21.7415 116.133 22.866 116.133 26.1797C116.131 29.477 117.103 30.6183 120.258 30.6183C123.413 30.6183 124.396 29.4902 124.396 26.1797C124.396 22.8697 123.431 21.7415 120.258 21.7415ZM82.1364 28.3268C81.7213 30.0708 80.6098 30.7215 78.2011 30.7215C75.0517 30.7215 74.0621 29.575 74.0621 26.2833C74.0621 22.9917 75.0517 21.8451 78.2011 21.8451C80.6098 21.8451 81.7213 22.4942 82.1381 24.2493L87.6852 23.8294C86.8569 19.4652 83.6091 17.4365 78.2011 17.4365C71.8705 17.4365 68.5153 20.2011 68.5153 26.2429C68.5153 32.2843 71.8499 35.1453 78.2011 35.1453C83.6054 35.1453 86.8199 33.0741 87.6684 28.7523L82.1364 28.3268ZM164.581 25.7306L173 34.4886H166.162L158.829 26.8087V27.2119V28.656V34.4886H153.604V17.81H158.829V25.0556L165.967 17.81H172.548L164.581 25.7306Z" fill="#202838"/>
</svg>
