<svg width="35" height="35" viewBox="0 0 35 35" fill="none" xmlns="http://www.w3.org/2000/svg">
<circle cx="17.5" cy="17.5" r="17.5" fill="white"/>
<path fill-rule="evenodd" clip-rule="evenodd" d="M13.4501 12.4892C13.743 12.1963 14.2179 12.1963 14.5108 12.4892L17.9609 15.9393L21.411 12.4892C21.7039 12.1963 22.1788 12.1963 22.4717 12.4892C22.7646 12.7821 22.7646 13.257 22.4717 13.5499L19.0216 17L22.4717 20.4501C22.7646 20.743 22.7646 21.2179 22.4717 21.5108C22.1788 21.8037 21.7039 21.8037 21.411 21.5108L17.9609 18.0607L14.5108 21.5108C14.2179 21.8037 13.743 21.8037 13.4501 21.5108C13.1572 21.2179 13.1572 20.743 13.4501 20.4501L16.9002 17L13.4501 13.5499C13.1572 13.257 13.1572 12.7821 13.4501 12.4892Z" fill="#202838"/>
</svg>
