<svg width="229" height="35" viewBox="0 0 229 35" fill="none" xmlns="http://www.w3.org/2000/svg">
<g clip-path="url(#clip0_209_9747)">
<path d="M68.6653 34.998L130.167 29.7109H63.333L68.6653 34.998Z" fill="#655CAC"/>
<path d="M69.5239 8.15697V8.97036C68.3038 8.15696 67.1741 7.70508 65.6377 7.70508C60.9381 7.70508 57.4133 11.998 57.4133 17.2399C57.4133 22.4818 60.9832 26.7747 65.6377 26.7747C67.1741 26.7747 68.2586 26.3228 69.5239 25.5094V26.3228H73.6361V8.20216H69.5239V8.15697ZM65.6377 22.3914C63.3331 22.3914 61.6159 20.132 61.6159 17.2399C61.6159 14.3478 63.2879 12.0884 65.6377 12.0884C67.9423 12.0884 69.5691 14.3478 69.5691 17.2399C69.5691 20.0868 67.9423 22.3914 65.6377 22.3914Z" fill="#655CAC"/>
<path d="M102.512 8.15625V18.8208C102.512 20.8091 101.156 22.5263 99.1224 22.5263C97.1341 22.5263 95.7333 20.8543 95.7333 18.8208V8.15625H91.6211V18.8208C91.6211 23.2041 94.6035 26.7288 98.9868 26.7288C101.02 26.7288 102.466 25.5991 102.466 25.5991V26.2769H106.579V8.15625H102.512Z" fill="#655CAC"/>
<path d="M140.877 26.2776V15.6131C140.877 13.6248 142.232 11.9076 144.266 11.9076C146.254 11.9076 147.655 13.5796 147.655 15.6131V26.2776H151.767V15.6131C151.767 11.2298 148.785 7.70508 144.402 7.70508C142.368 7.70508 140.922 8.8348 140.922 8.8348V8.15697H136.81V26.2776H140.877Z" fill="#655CAC"/>
<path d="M45.5286 26.2765V19.2271H48.5563L53.8434 26.2765H59.2208L52.8492 17.781C54.8375 16.335 56.148 14.0304 56.148 11.4094C56.148 7.11651 52.6233 3.5918 48.3303 3.5918H41.2357V26.2313H45.5286V26.2765ZM45.5286 7.92991H48.3303C50.2735 7.92991 51.8551 9.51151 51.8551 11.4546C51.8551 13.3977 50.2735 14.9794 48.3303 14.9794H45.5286V7.92991Z" fill="#655CAC"/>
<path d="M117.695 21.9853C117.333 22.2564 116.836 22.4372 116.339 22.4372C115.662 22.4372 114.396 21.9401 114.396 20.2229V12.4505H117.921V8.15754H114.396V3.63867H110.284V8.15754H108.115V12.4505H110.284V20.2681C110.284 24.3351 113.357 26.7301 116.385 26.7301C117.514 26.7301 119.096 26.3686 120.406 25.6004L117.695 21.9853Z" fill="#655CAC"/>
<path d="M85.1591 8.15659L80.2336 14.483V2.14648H75.9858V26.2773H80.2336V18.8663L86.2889 26.2773H92.073L83.8487 16.6521L90.9433 8.15659H85.1591Z" fill="#655CAC"/>
<path d="M127.23 7.70508C122.485 7.70508 119.051 11.9076 119.051 17.2399C119.051 22.8433 123.344 26.7747 127.637 26.7747C129.806 26.7747 132.607 26.0517 134.912 22.7077L131.297 20.629C128.495 24.7864 123.795 22.6625 123.253 18.5052H135.093C136.132 11.998 131.884 7.70508 127.23 7.70508ZM130.8 14.8901H123.389C124.247 10.6423 130.032 10.3712 130.8 14.8901Z" fill="#655CAC"/>
<path d="M164.962 24.7414L158.32 8.20237C158.229 7.97642 158.139 7.75048 158.094 7.52454C158.048 7.29859 158.003 7.02746 158.003 6.80151C158.003 6.0785 158.229 5.53623 158.726 5.03916C159.223 4.58727 159.811 4.36133 160.579 4.36133C161.121 4.36133 161.573 4.54207 161.89 4.85839C162.251 5.17471 162.567 5.71698 162.838 6.48519L167.357 18.6409L171.695 6.66594C171.967 5.80736 172.328 5.2199 172.69 4.85839C173.051 4.54207 173.548 4.36133 174.136 4.36133C174.904 4.36133 175.491 4.54208 175.898 4.94878C176.305 5.35547 176.531 5.89774 176.531 6.62076C176.531 6.8919 176.485 7.16302 176.44 7.47935C176.395 7.75048 176.305 8.0668 176.214 8.33793L169.798 24.5607C169.526 25.2837 169.165 25.826 168.803 26.1423C168.397 26.4586 167.9 26.6393 167.312 26.6393C166.725 26.6393 166.273 26.5038 165.911 26.1875C165.595 25.8711 165.279 25.4192 164.962 24.7414Z" fill="#655CAC"/>
<path d="M182.45 23.296C182.45 24.4258 182.27 25.2391 181.908 25.7814C181.547 26.3237 180.959 26.5948 180.236 26.5948C179.468 26.5948 178.88 26.3237 178.519 25.7814C178.157 25.2391 177.977 24.4258 177.977 23.296V14.1679C177.977 13.0382 178.157 12.2248 178.519 11.6825C178.88 11.1403 179.468 10.8691 180.236 10.8691C181.004 10.8691 181.547 11.1403 181.908 11.6825C182.27 12.2248 182.45 13.0382 182.45 14.1679V23.296Z" fill="#655CAC"/>
<path d="M189.319 11.0041C189.861 10.5522 190.449 10.1907 191.081 9.96472C191.714 9.73878 192.392 9.60321 193.115 9.60321C195.194 9.60321 196.956 10.4166 198.402 12.0886C199.848 13.7154 200.526 15.7941 200.526 18.2794C200.526 20.6293 199.803 22.6176 198.312 24.2444C196.866 25.8711 195.103 26.7297 193.115 26.7297C192.302 26.7297 191.579 26.5942 190.901 26.323C190.223 26.0519 189.681 25.6452 189.184 25.1029C188.867 25.6 188.551 26.0067 188.144 26.2778C187.783 26.549 187.331 26.6845 186.879 26.6845C186.065 26.6845 185.478 26.4134 185.071 25.826C184.665 25.2385 184.484 24.3799 184.484 23.1598V7.88604C184.484 6.71113 184.665 5.80736 185.071 5.21991C185.478 4.63246 186.065 4.36133 186.879 4.36133C187.692 4.36133 188.325 4.63246 188.686 5.21991C189.093 5.80736 189.274 6.66595 189.274 7.88604V11.0041H189.319ZM188.958 18.1891C188.958 19.4995 189.274 20.5841 189.907 21.3523C190.539 22.1657 191.398 22.5724 192.392 22.5724C193.386 22.5724 194.245 22.1657 194.877 21.3523C195.51 20.5389 195.871 19.4995 195.871 18.1891C195.871 16.8786 195.555 15.7941 194.922 14.9807C194.29 14.1673 193.431 13.7606 192.437 13.7606C191.398 13.7606 190.584 14.1673 189.952 14.9807C189.274 15.7941 188.958 16.8786 188.958 18.1891Z" fill="#655CAC"/>
<path d="M205.949 19.5442C206.039 20.448 206.717 21.171 207.349 21.6681C207.982 22.1652 208.841 22.4363 209.88 22.4363C210.784 22.4363 211.778 22.1652 212.908 21.6681C214.037 21.1258 214.715 20.8999 214.941 20.8999C215.529 20.8999 215.98 21.0806 216.342 21.4422C216.703 21.8037 216.884 22.2555 216.884 22.7978C216.884 23.8372 216.161 24.7409 214.715 25.5995C213.269 26.4129 211.552 26.8648 209.609 26.8648C207.214 26.8648 205.226 26.0514 203.644 24.4246C202.062 22.7978 201.249 20.7643 201.249 18.3241C201.249 15.8839 202.017 13.8053 203.554 12.1785C205.09 10.5517 207.033 9.73828 209.338 9.73828C211.552 9.73828 213.45 10.5065 214.941 12.0429C216.432 13.5793 217.201 15.4772 217.201 17.6915C217.201 18.4145 217.02 18.9116 216.703 19.2279C216.387 19.499 215.754 19.6798 214.806 19.6798H205.949V19.5442ZM205.768 16.6973H212.862C212.817 15.7936 212.456 14.8898 211.778 14.2572C211.1 13.6697 210.332 13.3534 209.428 13.3534C208.524 13.3534 207.666 13.6245 207.033 14.212C206.355 14.7994 205.949 15.7484 205.768 16.6973Z" fill="#655CAC"/>
<path d="M218.556 23.0687V13.3531C218.556 12.1782 218.737 11.2744 219.144 10.7322C219.55 10.1447 220.138 9.87357 220.951 9.87357C221.448 9.87357 221.855 10.0091 222.262 10.2351C222.623 10.5062 222.985 10.8677 223.256 11.41C223.753 10.8677 224.295 10.461 224.837 10.1899C225.38 9.91877 225.967 9.7832 226.509 9.7832C227.187 9.7832 227.729 10.0091 228.227 10.5062C228.724 10.9581 228.95 11.5456 228.95 12.1782C228.95 13.1272 228.046 13.9406 226.283 14.6184C225.651 14.8443 225.154 15.0251 224.837 15.2058C224.25 15.477 223.843 15.7933 223.617 16.1548C223.437 16.5163 223.301 17.149 223.301 18.0527V23.0687C223.301 24.2436 223.12 25.1474 222.713 25.7348C222.307 26.3223 221.719 26.5934 220.906 26.5934C220.093 26.5934 219.505 26.3223 219.098 25.7348C218.782 25.1474 218.556 24.2436 218.556 23.0687Z" fill="#655CAC"/>
<path d="M177.796 6.8468C177.796 6.16895 178.067 5.58146 178.564 5.08436C179.061 4.58727 179.649 4.36133 180.372 4.36133C181.05 4.36133 181.637 4.58727 182.134 5.08436C182.631 5.58146 182.857 6.16895 182.857 6.8468C182.857 7.52466 182.631 8.15732 182.134 8.60923C181.637 9.10632 181.05 9.33228 180.372 9.33228C179.649 9.33228 179.061 9.10632 178.564 8.60923C178.022 8.15732 177.796 7.56985 177.796 6.8468Z" fill="#655CAC"/>
<path d="M28.9896 3.36604C28.131 2.59783 24.6967 0.0672701 16.9694 0.0220814C16.9694 0.0220814 7.88647 -0.520189 3.45798 3.54679C0.972597 6.03217 0.114009 9.60209 0.0236317 14.0758C-0.0667457 18.5494 -0.2023 26.9094 7.88648 29.214V32.6935C7.88648 32.6935 7.84129 34.0944 8.74506 34.3655C9.87478 34.727 10.5074 33.6425 11.5919 32.5128C12.1794 31.8801 12.9928 30.9763 13.5802 30.2533C19.0933 30.7052 23.341 29.6659 23.8381 29.4851C24.9678 29.1236 31.249 28.3102 32.2884 19.9503C33.3729 11.2741 31.8365 5.80623 28.9896 3.36604ZM29.9386 19.2725C29.08 26.2767 23.9737 26.7286 23.0247 26.9997C22.618 27.1353 18.9125 28.0391 14.2129 27.7679C14.2129 27.7679 10.7334 31.9705 9.60364 33.1002C9.42289 33.281 9.24213 33.3261 9.10656 33.3261C8.92581 33.281 8.88062 33.055 8.88062 32.7387C8.88062 32.2868 8.92581 26.9545 8.92581 26.9545C2.10232 25.0566 2.50901 17.9168 2.5542 14.1661C2.64458 10.4155 3.32242 7.38783 5.4011 5.30915C9.15176 1.92 16.879 2.41708 16.879 2.41708C23.3862 2.46227 26.5042 4.40538 27.2272 5.08321C29.577 7.16189 30.7971 12.0875 29.9386 19.2725Z" fill="#665CA7"/>
<path d="M20.1326 13.895C20.0423 12.1778 19.1836 11.274 17.5116 11.1836" stroke="#665CA7" stroke-width="1.92693" stroke-linecap="round" stroke-linejoin="round"/>
<path d="M22.3922 14.6184C22.4374 13.0367 21.9403 11.681 20.9913 10.6416C19.9971 9.55703 18.6414 8.96956 16.9242 8.83398" stroke="#665CA7" stroke-width="1.92693" stroke-linecap="round" stroke-linejoin="round"/>
<path d="M24.6517 15.5217C24.6517 12.765 23.7931 10.5959 22.1663 9.01423C20.5394 7.43256 18.5058 6.61914 16.0656 6.61914" stroke="#665CA7" stroke-width="1.92693" stroke-linecap="round" stroke-linejoin="round"/>
<path d="M17.602 19.7244C17.602 19.7244 18.2346 19.7696 18.551 19.3629L19.1836 18.5495C19.4999 18.1428 20.223 17.8717 20.9912 18.2784C21.3979 18.5043 22.1209 18.9562 22.5728 19.3177C23.0698 19.6792 24.064 20.4926 24.064 20.4926C24.5611 20.8993 24.6514 21.4868 24.3351 22.1194C24.0188 22.7069 23.5669 23.2492 22.9795 23.7462C22.5276 24.1529 22.0757 24.3337 21.6238 24.4241H21.443C21.2623 24.4241 21.0363 24.3789 20.8556 24.3337C20.1778 24.1529 19.048 23.6559 17.1049 22.6165C15.8848 21.9387 14.8455 21.2157 13.9869 20.5378C13.535 20.1763 13.0379 19.7696 12.5861 19.2725L12.4053 19.0918C11.9082 18.5947 11.5015 18.1428 11.14 17.6909C10.4622 16.8324 9.73916 15.793 9.06133 14.5729C8.02199 12.675 7.52492 11.5453 7.34417 10.8223C7.29898 10.6415 7.25378 10.4608 7.25378 10.2348V10.054C7.29897 9.60216 7.52492 9.15027 7.93161 8.69838C8.42869 8.15612 8.97096 7.70423 9.55841 7.34272C10.1911 7.0264 10.7785 7.11678 11.1852 7.61386C11.1852 7.61386 11.9986 8.60802 12.3601 9.10509C12.6764 9.55698 13.1283 10.28 13.3994 10.6867C13.8061 11.4097 13.535 12.1779 13.1735 12.4942L12.3601 13.1269C11.9534 13.4432 11.9986 14.0758 11.9986 14.0758C11.9986 14.0758 13.1283 18.5495 17.602 19.7244Z" fill="#665CA7"/>
</g>
<defs>
<clipPath id="clip0_209_9747">
<rect width="229.003" height="35" fill="white"/>
</clipPath>
</defs>
</svg>
