<svg width="194" height="35" viewBox="0 0 194 35" fill="none" xmlns="http://www.w3.org/2000/svg">
<g clip-path="url(#clip0_209_9733)">
<path d="M19.2818 0.445312V18.1362C19.2818 18.9635 18.6454 19.5362 17.8818 19.5362H15.7818C15.6545 19.5362 15.5909 19.6635 15.5909 19.7271V34.5544C16.1 34.5544 16.6091 34.6817 17.1818 34.6817C26.6636 34.6817 34.3636 26.9817 34.3636 17.4999C34.3636 8.78168 27.8091 1.46349 19.2818 0.445312ZM18.9 26.918C17.6909 26.918 16.8 25.8999 16.8 24.818C16.8 23.6089 17.8182 22.718 18.9 22.718C20.1091 22.718 21 23.7362 21 24.818C21.1272 25.9635 20.1091 26.918 18.9 26.918ZM23.9272 26.918C22.7182 26.918 21.8272 25.8999 21.8272 24.818C21.8272 23.6089 22.8454 22.718 23.9272 22.718C25.1363 22.718 26.0272 23.7362 26.0272 24.818C26.0272 25.8999 25.2 26.918 23.9272 26.918ZM29.0182 26.918C27.8091 26.918 26.9182 25.8999 26.9182 24.818C26.9182 23.6089 27.9363 22.718 29.0182 22.718C30.2272 22.718 31.1182 23.7362 31.1182 24.818C31.1182 25.8999 30.2272 26.918 29.0182 26.918Z" fill="#00B956"/>
<path d="M17.1818 0.380859C7.7 0.380859 0 8.08086 0 17.5627C0 25.899 5.79091 32.7081 13.5545 34.299V18.8354C13.5545 18.1354 14.1909 17.5627 14.8273 17.4354H16.9273C17.0545 17.4354 17.1182 17.3081 17.1182 17.2445L17.1818 0.380859ZM13.8727 14.5081C12.6636 14.5081 11.7727 13.49 11.7727 12.4081C11.7727 11.199 12.7909 10.3081 13.8727 10.3081C15.0818 10.3081 15.9727 11.3263 15.9727 12.4081C15.9727 13.49 15.0182 14.5081 13.8727 14.5081Z" fill="#00B956"/>
<path d="M189.191 9.73537V16.2263H180.536V9.73537H176.145V26.9172H180.536V19.9808H189.191V26.9172H193.455V9.73537H189.191ZM117.664 11.7081C116.964 10.1808 115.564 9.35355 114.164 9.35355C112.764 9.35355 111.3 10.1808 110.664 11.7081L103.727 26.9808H108.309L109.836 23.3536H118.745L120.273 26.9808H124.855L117.664 11.7081ZM111.045 19.9172L113.655 13.6172C113.782 13.4263 113.845 13.4263 113.973 13.4263C114.1 13.4263 114.291 13.4263 114.291 13.6172L116.9 19.9172H111.045ZM66.5 6.68082C64.4636 6.68082 63.1909 7.76264 62.2364 9.92628L56.7 22.8445L51.1 9.86264C50.2091 7.76264 48.8727 6.61719 46.8364 6.61719C44.9273 6.61719 43.0182 7.88992 43.0182 10.8808V26.8536H47.2818V11.4536L52.9455 24.2445C53.6455 26.0899 54.9818 27.1717 56.7 27.1717C58.5455 27.1717 59.7546 26.0899 60.4546 24.2445L66.1182 11.4536V27.0445H70.3818V11.0717C70.3182 8.08082 68.4091 6.68082 66.5 6.68082ZM77.8909 23.2899C77.7 23.2899 77.4455 23.099 77.4455 22.8445V19.7899H88.1364V16.2899H77.4455V13.6808C77.4455 13.4899 77.6364 13.2354 77.8909 13.2354H88.5182V9.6081H75.7909C74.2636 9.6081 73.2455 10.8172 73.2455 12.1536V24.1808C73.2455 25.4536 74.3273 26.7263 75.7909 26.7263H88.5182V23.099H77.8909V23.2899ZM95.7091 26.9172V13.8081C95.7091 13.6172 95.9 13.3626 96.1546 13.3626H106.782V9.73537H94.0546C92.5273 9.73537 91.5091 10.9445 91.5091 12.2808V26.8536L95.7091 26.9172ZM173.345 18.3899C173.345 12.4081 170.736 9.6081 164.245 9.6081H162.718C156.227 9.6081 153.618 12.4717 153.618 18.3899C153.618 24.2445 156.227 27.1717 162.718 27.1717H164.118C170.736 27.0445 173.345 24.2445 173.345 18.3899ZM164.118 23.5445H162.718C159.218 23.5445 157.755 21.9536 157.755 18.3899C157.755 14.9536 158.964 13.2354 162.718 13.2354H164.118C167.745 13.2354 169.082 14.9536 169.082 18.3899C169.082 21.8899 167.745 23.5445 164.118 23.5445ZM141.718 7.06264H133.191C126.827 7.06264 124.282 10.3081 124.282 15.8445C124.282 16.7354 124.409 17.5626 124.473 18.2626C125.173 22.2081 127.527 24.6263 133.445 24.6263H135.355V26.8536H139.618V24.6263H141.464C147.445 24.6263 149.8 22.2081 150.436 18.2626C150.564 17.5626 150.627 16.7354 150.627 15.8445C150.564 10.3081 147.955 7.06264 141.718 7.06264ZM135.227 21.0626H133.318C130.391 21.0626 129.373 19.9808 128.736 18.199C128.545 17.5626 128.545 16.6717 128.545 15.7808C128.545 12.1536 130.264 10.6263 132.682 10.6263H135.291V21.0626H135.227ZM146.173 18.3899C145.536 20.1081 144.455 21.2536 141.591 21.2536H139.682V10.7536H142.291C144.709 10.7536 146.427 12.2808 146.427 15.9081C146.364 16.8626 146.364 17.6263 146.173 18.3899Z" fill="#00B956"/>
</g>
<defs>
<clipPath id="clip0_209_9733">
<rect width="193.455" height="35" fill="white"/>
</clipPath>
</defs>
</svg>
