<svg width="44" height="35" viewBox="0 0 44 35" fill="none" xmlns="http://www.w3.org/2000/svg">
<g clip-path="url(#clip0_209_9741)">
<path d="M0.25 0C14.6875 0 29.125 0 44 0C44 11.55 44 23.1 44 35C29.5625 35 15.125 35 0.25 35C0.25 23.45 0.25 11.9 0.25 0Z" fill="black"/>
<path d="M9.78752 4.46289C11.5778 4.46289 13.368 4.46289 15.2125 4.46289C15.2125 6.51302 15.2125 8.56314 15.2125 10.6754C17.0028 10.6754 18.793 10.6754 20.6375 10.6754C20.6375 12.4656 20.6375 14.2559 20.6375 16.1004C18.8473 16.1004 17.057 16.1004 15.2125 16.1004C15.2125 19.1323 15.2125 22.1641 15.2125 25.2879C17.6958 25.2879 20.179 25.2879 22.7375 25.2879C22.7375 27.107 22.7375 28.9261 22.7375 30.8004C21.4219 30.8112 21.4219 30.8112 20.0797 30.8223C19.8063 30.8255 19.5328 30.8286 19.2511 30.8319C16.8533 30.8482 14.7412 30.4729 12.85 28.8754C12.7809 28.819 12.7117 28.7626 12.6405 28.7045C11.1503 27.4372 10.0538 25.5793 9.78752 23.6254C9.74054 22.9975 9.75424 22.3664 9.75772 21.7372C9.75779 21.5482 9.75775 21.3593 9.7576 21.1703C9.75753 20.6604 9.75907 20.1505 9.7609 19.6406C9.76255 19.1066 9.7627 18.5725 9.76301 18.0385C9.76382 17.0286 9.76598 16.0187 9.76861 15.0088C9.77155 13.8585 9.77299 12.7082 9.77431 11.5579C9.77705 9.19289 9.78186 6.8279 9.78752 4.46289Z" fill="#FEFEFE"/>
<path d="M35.5891 9.09422C37.558 10.6056 38.9137 12.5905 39.2531 15.0934C39.2629 15.2245 39.2699 15.3558 39.275 15.4872C39.2795 15.5819 39.284 15.6767 39.2887 15.7743C39.3105 16.6397 39.2012 17.4448 39.0125 18.2872C38.9912 18.3834 38.9699 18.4796 38.9479 18.5787C38.3916 20.6747 36.8298 22.4858 34.9861 23.5656C34.9 23.6139 34.8138 23.6623 34.725 23.7122C34.6641 23.747 34.6032 23.7819 34.5404 23.8178C33.481 24.386 32.3103 24.7054 31.1108 24.6946C31.0347 24.6946 30.9586 24.6946 30.8802 24.6946C30.6322 24.6945 30.3841 24.6932 30.136 24.6918C29.9627 24.6915 29.7893 24.6912 29.616 24.691C29.1623 24.6904 28.7086 24.6886 28.2549 24.6867C27.7092 24.6846 27.1635 24.6838 26.6178 24.6828C25.791 24.6811 24.9643 24.6777 24.1375 24.6747C24.1375 22.8556 24.1375 21.0364 24.1375 19.1622C24.6526 19.1589 25.1678 19.1556 25.6985 19.1523C26.0259 19.1496 26.3533 19.1469 26.6806 19.1439C27.1997 19.1392 27.7187 19.1347 28.2377 19.1319C28.6564 19.1296 29.0751 19.126 29.4938 19.1217C29.6531 19.1202 29.8124 19.1192 29.9718 19.1186C30.1958 19.1178 30.4199 19.1153 30.6439 19.1125C30.7415 19.1127 30.7415 19.1127 30.8411 19.1129C31.6844 19.098 32.3805 18.7986 32.975 18.1997C33.6065 17.3469 33.7774 16.5404 33.675 15.4872C33.4605 14.6863 33.0704 14.052 32.3844 13.5841C31.6686 13.1733 30.9077 13.0166 30.0875 13.1247C29.2793 13.3437 28.5816 13.7619 28.1136 14.4679C27.8288 15.0004 27.712 15.5056 27.55 16.0997C25.7598 16.0997 23.9695 16.0997 22.125 16.0997C22.125 14.8638 22.125 14.8638 22.2617 14.2841C22.2771 14.2177 22.2925 14.1513 22.3083 14.0829C22.8472 11.9042 24.2637 10.0325 26.15 8.83719C29.0934 7.07387 32.7606 7.10559 35.5891 9.09422Z" fill="#FDFDFD"/>
<path d="M24.1375 25.2871C28.9885 25.2871 33.8395 25.2871 38.8375 25.2871C38.8375 27.1062 38.8375 28.9254 38.8375 30.7996C33.9865 30.7996 29.1355 30.7996 24.1375 30.7996C24.1375 28.9805 24.1375 27.1614 24.1375 25.2871Z" fill="#FCFCFC"/>
<path d="M2.875 10.6758C4.66525 10.6758 6.4555 10.6758 8.3 10.6758C8.3 12.466 8.3 14.2563 8.3 16.1008C6.50975 16.1008 4.7195 16.1008 2.875 16.1008C2.875 14.3105 2.875 12.5203 2.875 10.6758Z" fill="#FF3495"/>
</g>
<defs>
<clipPath id="clip0_209_9741">
<rect width="43.75" height="35" fill="white" transform="translate(0.25)"/>
</clipPath>
</defs>
</svg>
