<svg width="152" height="35" viewBox="0 0 152 35" fill="none" xmlns="http://www.w3.org/2000/svg">
<path d="M147.744 21.2903C147.65 21.7642 147.488 22.1779 147.26 22.5332C147.03 22.8886 146.73 23.1779 146.359 23.3976C145.989 23.6189 145.527 23.7301 144.975 23.7301C144.438 23.7301 143.98 23.6189 143.602 23.3976C143.222 23.1779 142.919 22.8886 142.689 22.5332C142.462 22.1779 142.295 21.7642 142.192 21.2903C142.09 20.8173 142.039 20.335 142.039 19.8471C142.039 19.3401 142.087 18.851 142.181 18.3784C142.276 17.9046 142.438 17.4865 142.666 17.1216C142.895 16.7594 143.195 16.4636 143.566 16.2351C143.936 16.0062 144.398 15.8903 144.951 15.8903C145.488 15.8903 145.941 16.0062 146.311 16.2351C146.683 16.4636 146.986 16.7626 147.223 17.1341C147.461 17.5054 147.631 17.9283 147.733 18.4012C147.837 18.8752 147.887 19.3571 147.887 19.8472C147.887 20.3351 147.839 20.8173 147.744 21.2903ZM150.917 17.4419C150.696 16.6455 150.357 15.9464 149.899 15.3463C149.441 14.7467 148.866 14.2646 148.171 13.9021C147.476 13.5383 146.647 13.3577 145.684 13.3577C144.927 13.3577 144.232 13.5069 143.602 13.807C142.97 14.1072 142.449 14.5888 142.039 15.2519H141.993V13.6883H138.796V30.219H142.157V24.417H142.205C142.615 25.0175 143.141 25.4707 143.779 25.7776C144.418 26.0855 145.117 26.2403 145.875 26.2403C146.774 26.2403 147.559 26.0653 148.231 25.7189C148.9 25.3721 149.462 24.9057 149.911 24.3213C150.362 23.7368 150.696 23.0667 150.917 22.3089C151.139 21.5507 151.249 20.7615 151.249 19.9407C151.249 19.0724 151.139 18.24 150.917 17.4419ZM134.346 21.2903C134.25 21.7643 134.088 22.178 133.86 22.5333C133.631 22.8887 133.331 23.178 132.959 23.3976C132.589 23.619 132.127 23.7302 131.575 23.7302C131.037 23.7302 130.582 23.619 130.203 23.3976C129.823 23.178 129.52 22.8887 129.291 22.5333C129.062 22.178 128.896 21.7643 128.793 21.2903C128.69 20.8174 128.64 20.3351 128.64 19.8472C128.64 19.3402 128.686 18.8511 128.781 18.3785C128.877 17.9047 129.037 17.4866 129.267 17.1216C129.495 16.7595 129.795 16.4636 130.167 16.2352C130.538 16.0063 130.998 15.8904 131.551 15.8904C132.087 15.8904 132.543 16.0063 132.912 16.2352C133.283 16.4637 133.588 16.7627 133.824 17.1342C134.06 17.5055 134.23 17.9283 134.333 18.4013C134.436 18.8753 134.486 19.3572 134.486 19.8472C134.486 20.3352 134.44 20.8174 134.346 21.2903ZM136.499 15.3465C136.042 14.7469 135.465 14.2648 134.771 13.9023C134.076 13.5385 133.248 13.3579 132.286 13.3579C131.527 13.3579 130.833 13.5071 130.203 13.8072C129.569 14.1074 129.05 14.589 128.64 15.2521H128.592V13.6885H125.395V30.2191H128.759V24.4172H128.804C129.214 25.0177 129.741 25.4708 130.38 25.7778C131.018 26.0856 131.717 26.2405 132.475 26.2405C133.375 26.2405 134.159 26.0655 134.83 25.7191C135.501 25.3723 136.061 24.9059 136.511 24.3214C136.961 23.737 137.295 23.0668 137.518 22.309C137.737 21.5509 137.849 20.7616 137.849 19.9409C137.849 19.0726 137.737 18.2402 137.518 17.4421C137.295 16.6457 136.957 15.9466 136.499 15.3465ZM114.388 19.3963L116.59 13.1914H116.637L118.768 19.3963H114.388ZM114.743 9.0236L108.351 25.9318H112.092L113.417 22.1663H119.739L121.016 25.9318H124.876L118.555 9.0236H114.743ZM108.066 20.5684C107.845 20.1817 107.553 19.8581 107.19 19.5968C106.827 19.3371 106.412 19.1274 105.947 18.9688C105.481 18.8118 105.004 18.6786 104.514 18.5677C104.041 18.4567 103.576 18.354 103.119 18.2591C102.661 18.1639 102.254 18.0575 101.898 17.9399C101.544 17.8211 101.257 17.6682 101.035 17.4771C100.814 17.2882 100.704 17.0439 100.704 16.7435C100.704 16.4909 100.766 16.2898 100.893 16.1395C101.02 15.9903 101.174 15.8754 101.355 15.7957C101.537 15.7174 101.737 15.6664 101.958 15.6419C102.179 15.6186 102.385 15.6075 102.574 15.6075C103.174 15.6075 103.695 15.7216 104.137 15.9504C104.578 16.1794 104.823 16.6175 104.87 17.2644H108.066C108.003 16.5071 107.81 15.8798 107.486 15.3812C107.163 14.8846 106.756 14.4857 106.267 14.1862C105.779 13.8862 105.222 13.6734 104.597 13.5468C103.974 13.4203 103.331 13.3579 102.67 13.3579C102.006 13.3579 101.358 13.4171 100.728 13.5342C100.096 13.6533 99.5277 13.8594 99.0234 14.1508C98.5177 14.4427 98.1119 14.8407 97.8034 15.3464C97.4952 15.8515 97.3414 16.4996 97.3414 17.2883C97.3414 17.8251 97.4529 18.2798 97.6741 18.6505C97.893 19.022 98.1865 19.3286 98.5482 19.5736C98.9123 19.8183 99.3268 20.0164 99.7922 20.1652C100.258 20.3168 100.735 20.4461 101.224 20.557C102.424 20.81 103.36 21.0617 104.03 21.3152C104.701 21.5672 105.036 21.946 105.036 22.4517C105.036 22.7516 104.966 22.9989 104.823 23.1967C104.681 23.3951 104.504 23.552 104.291 23.6705C104.077 23.7894 103.84 23.8767 103.581 23.9307C103.32 23.9864 103.071 24.0143 102.834 24.0143C102.503 24.0143 102.183 23.9745 101.876 23.8958C101.568 23.8167 101.296 23.6941 101.059 23.5283C100.823 23.3629 100.628 23.1501 100.479 22.8889C100.33 22.6282 100.253 22.3177 100.253 21.9536H97.0574C97.0897 22.7746 97.2746 23.4578 97.6148 24.0022C97.9527 24.5469 98.3864 24.9845 98.9161 25.3167C99.4446 25.6476 100.049 25.885 100.728 26.0276C101.406 26.1693 102.101 26.2405 102.81 26.2405C103.505 26.2405 104.187 26.1728 104.859 26.0398C105.529 25.9052 106.125 25.6722 106.646 25.34C107.168 25.0091 107.588 24.571 107.913 24.026C108.236 23.4806 108.397 22.8058 108.397 22.0005C108.397 21.4313 108.287 20.955 108.066 20.5684ZM94.1701 10.0183H90.8077V13.6883H88.7725V15.9378H90.8077V23.1613C90.8077 23.7778 90.9114 24.2746 91.1158 24.6531C91.3214 25.0315 91.6011 25.3253 91.9559 25.53C92.3111 25.7353 92.7218 25.8729 93.1875 25.944C93.6518 26.0146 94.1471 26.0504 94.6668 26.0504C94.9995 26.0504 95.3378 26.0419 95.6857 26.0276C96.0321 26.0114 96.3475 25.9807 96.6322 25.932V23.3267C96.4738 23.3588 96.3084 23.3835 96.1343 23.3978C95.9612 23.4139 95.7795 23.4223 95.5901 23.4223C95.0224 23.4223 94.6431 23.3267 94.4533 23.1374C94.2649 22.9485 94.17 22.5694 94.17 22.0006V15.9381H96.6323V13.6887H94.17L94.1701 10.0183ZM84.5344 21.1946C84.5344 21.3856 84.5151 21.6381 84.4751 21.9533C84.4359 22.2699 84.3292 22.5806 84.1558 22.8886C83.9821 23.1964 83.7129 23.4619 83.3509 23.6818C82.9881 23.9036 82.4751 24.014 81.8115 24.014C81.5438 24.014 81.283 23.9903 81.0305 23.942C80.7775 23.8955 80.5572 23.8118 80.3677 23.6938C80.1786 23.5755 80.0282 23.4135 79.9176 23.2082C79.8078 23.003 79.7519 22.7513 79.7519 22.4514C79.7519 22.1358 79.8078 21.8737 79.9176 21.6694C80.0282 21.4651 80.1744 21.2947 80.3563 21.1601C80.5369 21.0261 80.7504 20.9197 80.995 20.84C81.2395 20.7613 81.4877 20.6983 81.741 20.6509C82.0086 20.6045 82.2777 20.5637 82.5452 20.5323C82.8146 20.5015 83.0707 20.4609 83.3149 20.4143C83.5603 20.367 83.7884 20.3071 84.002 20.236C84.2151 20.1649 84.392 20.0675 84.5344 19.9405L84.5344 21.1946ZM87.8959 23.2082V16.8388C87.8959 16.0956 87.7309 15.5002 87.3984 15.051C87.0677 14.6006 86.6413 14.2497 86.1211 13.997C85.5994 13.7446 85.023 13.5745 84.392 13.4879C83.761 13.4011 83.1373 13.3579 82.5222 13.3579C81.8439 13.3579 81.1685 13.4244 80.4987 13.559C79.8262 13.693 79.2238 13.9185 78.6868 14.2335C78.1501 14.5493 77.7069 14.9682 77.3617 15.4886C77.0133 16.0096 76.8163 16.6649 76.7692 17.4545H80.1305C80.1936 16.791 80.4156 16.317 80.7945 16.0332C81.173 15.7489 81.6933 15.6076 82.3569 15.6076C82.6563 15.6076 82.936 15.6273 83.1971 15.6665C83.457 15.7063 83.6861 15.7841 83.8837 15.9032C84.0812 16.0216 84.2389 16.1869 84.3568 16.4007C84.4751 16.6136 84.5344 16.9023 84.5344 17.2645C84.5501 17.6129 84.4471 17.8758 84.2271 18.0576C84.0054 18.2402 83.706 18.3787 83.3271 18.4722C82.9482 18.5678 82.514 18.639 82.0246 18.6849C81.535 18.7333 81.0383 18.7976 80.5338 18.8754C80.0282 18.9546 79.5269 19.061 79.0308 19.1952C78.5337 19.3286 78.0905 19.5309 77.7043 19.7982C77.3173 20.0679 77.0019 20.4265 76.7565 20.8767C76.5123 21.3269 76.3903 21.8997 76.3903 22.5934C76.3903 23.2248 76.4966 23.7693 76.7097 24.2267C76.9227 24.6859 77.2185 25.0633 77.5977 25.3636C77.9768 25.6637 78.4184 25.8851 78.9234 26.0276C79.4277 26.1692 79.9726 26.2405 80.5572 26.2405C81.3147 26.2405 82.0568 26.1295 82.7816 25.9096C83.508 25.6869 84.1401 25.3015 84.6767 24.7481C84.6924 24.9533 84.7199 25.1553 84.7589 25.3521C84.7984 25.5486 84.8501 25.7432 84.9133 25.932H88.3227C88.165 25.6808 88.0537 25.3015 87.9913 24.7954C87.9273 24.2906 87.8959 23.7623 87.8959 23.2082ZM74.0464 14.7419C73.7154 14.3076 73.2614 13.9687 72.6861 13.7233C72.1093 13.4799 71.3714 13.3577 70.4723 13.3577C69.8408 13.3577 69.1939 13.5189 68.5303 13.8431C67.8677 14.1659 67.323 14.6835 66.8972 15.3944H66.8261V9.02344H63.4642V25.9316H66.8261V19.5142C66.8261 18.2672 67.031 17.3718 67.4417 16.8262C67.8517 16.2822 68.5146 16.0094 69.4305 16.0094C70.235 16.0094 70.7955 16.258 71.1112 16.756C71.427 17.2527 71.5847 18.007 71.5847 19.0169V25.9319H74.9467V18.4014C74.9467 17.6441 74.879 16.9537 74.7453 16.3289C74.611 15.7063 74.3782 15.1767 74.0464 14.7419ZM56.2911 20.6751H56.2444L53.3562 9.02374H49.8759L46.9399 20.5331H46.8928L44.2175 9.02374H40.5011L44.9754 25.9319H48.7399L51.5565 14.4226H51.604L54.4686 25.9319H58.1619L62.7076 9.02374H59.0619L56.2911 20.6751Z" fill="#72C648"/>
<path d="M9.62512 29.4456L10.1519 29.7578C12.3652 31.0713 14.9027 31.766 17.4904 31.7674H17.496C25.4431 31.7674 31.911 25.3009 31.914 17.3533C31.9153 13.5016 30.4171 9.88031 27.6949 7.15562C24.9725 4.43142 21.3529 2.93012 17.5012 2.92852C9.5481 2.92852 3.08014 9.39398 3.07714 17.3415C3.07609 20.065 3.83795 22.7174 5.28145 25.0121L5.62455 25.5575L4.16765 30.8764L9.62512 29.4456ZM0.00292969 34.9965L2.46391 26.0103C0.945947 23.3804 0.14739 20.397 0.148641 17.3407C0.152341 7.77905 7.9337 0 17.4964 0C22.1366 0.00200014 26.492 1.80793 29.7673 5.08586C33.0421 8.36374 34.8451 12.7209 34.8436 17.3547C34.8396 26.9159 27.0566 34.6965 17.4964 34.6965C17.4957 34.6965 17.4967 34.6965 17.4964 34.6965H17.489C14.5858 34.6955 11.7331 33.9672 9.19938 32.5853L0.00292969 34.9965Z" fill="#72C648"/>
<path d="M0.148396 17.3452C0.147346 20.4014 0.945903 23.3851 2.46386 26.0148L0.00268555 35.0004L9.19884 32.5892C11.7327 33.971 14.5852 34.6992 17.4884 34.7004H17.4958C27.056 34.7004 34.8391 26.9198 34.8431 17.3586C34.8447 12.7246 33.0416 8.3675 29.7667 5.08977C26.4913 1.81204 22.1362 0.00590639 17.4958 0.00390625C7.93366 0.00390625 0.152397 7.78351 0.148396 17.3452ZM5.62449 25.5617L5.28122 25.0165C3.83771 22.7215 3.07586 20.0691 3.07691 17.3459C3.08006 9.39888 9.54787 2.93292 17.5009 2.93292C21.3523 2.93442 24.972 4.43587 27.6947 7.16002C30.4171 9.88436 31.9151 13.506 31.914 17.3572C31.9105 25.3048 25.4425 31.7713 17.4955 31.7713H17.4898C14.9022 31.7698 12.3645 31.0752 10.1513 29.7619L9.62458 29.4496L4.16719 30.8804L5.62449 25.5617ZM17.4958 34.7004C17.4955 34.7004 17.4957 34.7004 17.4958 34.7004V34.7004Z" fill="#72C648"/>
<path fill-rule="evenodd" clip-rule="evenodd" d="M13.1604 10.093C12.8356 9.37119 12.4939 9.35674 12.185 9.34404C11.9323 9.33329 11.6432 9.33399 11.3544 9.33399C11.0653 9.33399 10.5957 9.44248 10.1986 9.87623C9.80117 10.31 8.6814 11.3585 8.6814 13.491C8.6814 15.6237 10.2348 17.6844 10.4512 17.9739C10.668 18.2629 13.4499 22.7791 17.8553 24.5164C21.5168 25.9602 22.2619 25.6731 23.0566 25.6007C23.8513 25.5285 25.6212 24.5525 25.9822 23.5403C26.3435 22.5283 26.3435 21.6608 26.2352 21.4797C26.1269 21.299 25.8378 21.1905 25.4043 20.9739C24.9707 20.7571 22.8398 19.7084 22.4426 19.5638C22.0451 19.4193 21.7562 19.3471 21.467 19.7811C21.1781 20.2145 20.348 21.1905 20.095 21.4797C19.8422 21.7693 19.5893 21.8055 19.1558 21.5887C18.7222 21.3712 17.3262 20.9139 15.6701 19.4375C14.3815 18.2886 13.5117 16.8698 13.2587 16.4358C13.0059 16.0024 13.2317 15.7676 13.4491 15.5515C13.6438 15.3573 13.8826 15.0454 14.0994 14.7924C14.3157 14.5393 14.3879 14.3587 14.5323 14.0695C14.677 13.7802 14.6047 13.5271 14.4964 13.3103C14.3879 13.0935 13.5458 10.9502 13.1604 10.093Z" fill="#72C648"/>
</svg>
