<svg width="262" height="262" viewBox="0 0 262 262" fill="none" xmlns="http://www.w3.org/2000/svg">
<path d="M261 131C261 105.683 253.607 80.9164 239.73 59.7414C225.852 38.5663 206.094 21.9043 182.88 11.8008L131 131H261Z" fill="url(#paint0_linear_356_40286)"/>
<path d="M261 131C261 105.683 253.607 80.9164 239.73 59.7414C225.852 38.5663 206.094 21.9043 182.88 11.8008L131 131H261Z" fill="url(#paint1_linear_356_40286)"/>
<path d="M261 131C261 105.683 253.607 80.9164 239.73 59.7414C225.852 38.5663 206.094 21.9043 182.88 11.8008L131 131H261Z" stroke="white" stroke-opacity="0.1"/>
<path d="M182.88 11.8007C156.408 0.279046 126.853 -2.10263 98.8778 5.03125C70.9022 12.1651 46.0973 28.4086 28.375 51.2L131 131L182.88 11.8007Z" fill="url(#paint2_linear_356_40286)"/>
<path d="M182.88 11.8007C156.408 0.279046 126.853 -2.10263 98.8778 5.03125C70.9022 12.1651 46.0973 28.4086 28.375 51.2L131 131L182.88 11.8007Z" fill="url(#paint3_linear_356_40286)"/>
<path d="M182.88 11.8007C156.408 0.279046 126.853 -2.10263 98.8778 5.03125C70.9022 12.1651 46.0973 28.4086 28.375 51.2L131 131L182.88 11.8007Z" stroke="white" stroke-opacity="0.1"/>
<path d="M28.3747 51.1992C10.3913 74.3264 0.746887 102.85 1.00505 132.145C1.26322 161.44 11.4089 189.789 29.797 212.596L131 130.999L28.3747 51.1992Z" fill="url(#paint4_linear_356_40286)" stroke="white" stroke-opacity="0.1"/>
<path d="M29.7969 212.596C47.0775 234.029 70.7164 249.423 97.3073 256.558C123.898 263.693 152.068 262.203 177.757 252.3L131 131L29.7969 212.596Z" fill="url(#paint5_linear_356_40286)" stroke="white" stroke-opacity="0.1"/>
<path d="M177.757 252.3C202.26 242.855 223.329 226.211 238.188 204.558C253.047 182.906 261 157.261 261 131H131L177.757 252.3Z" fill="url(#paint6_linear_356_40286)"/>
<path d="M177.757 252.3C202.26 242.855 223.329 226.211 238.188 204.558C253.047 182.906 261 157.261 261 131H131L177.757 252.3Z" fill="url(#paint7_linear_356_40286)"/>
<path d="M177.757 252.3C202.26 242.855 223.329 226.211 238.188 204.558C253.047 182.906 261 157.261 261 131H131L177.757 252.3Z" stroke="white" stroke-opacity="0.1"/>
<defs>
<linearGradient id="paint0_linear_356_40286" x1="196" y1="11.8008" x2="196" y2="131" gradientUnits="userSpaceOnUse">
<stop stop-color="#453FFA"/>
<stop offset="1" stop-color="#292594"/>
</linearGradient>
<linearGradient id="paint1_linear_356_40286" x1="196" y1="-52.4086" x2="196" y2="466.109" gradientUnits="userSpaceOnUse">
<stop stop-color="#180A91"/>
<stop offset="1" stop-color="#3BADFF"/>
</linearGradient>
<linearGradient id="paint2_linear_356_40286" x1="105.627" y1="1" x2="105.627" y2="131" gradientUnits="userSpaceOnUse">
<stop stop-color="#453FFA"/>
<stop offset="1" stop-color="#292594"/>
</linearGradient>
<linearGradient id="paint3_linear_356_40286" x1="109.919" y1="-62.255" x2="75.6791" y2="125.752" gradientUnits="userSpaceOnUse">
<stop stop-color="#2313B0"/>
<stop offset="1" stop-color="#3BCBFF"/>
</linearGradient>
<linearGradient id="paint4_linear_356_40286" x1="66" y1="51.1992" x2="66" y2="212.596" gradientUnits="userSpaceOnUse">
<stop stop-color="#453FFA"/>
<stop offset="1" stop-color="#292594"/>
</linearGradient>
<linearGradient id="paint5_linear_356_40286" x1="103.777" y1="131" x2="103.777" y2="261" gradientUnits="userSpaceOnUse">
<stop stop-color="#2746FF"/>
<stop offset="1" stop-color="#292594"/>
</linearGradient>
<linearGradient id="paint6_linear_356_40286" x1="196" y1="131" x2="196" y2="252.3" gradientUnits="userSpaceOnUse">
<stop stop-color="#453FFA"/>
<stop offset="1" stop-color="#292594"/>
</linearGradient>
<linearGradient id="paint7_linear_356_40286" x1="194.671" y1="130.584" x2="137.218" y2="216.764" gradientUnits="userSpaceOnUse">
<stop stop-color="#6260FF"/>
<stop offset="1" stop-color="#6823E0"/>
</linearGradient>
</defs>
</svg>
