<svg width="24" height="24" viewBox="0 0 24 24" fill="none" xmlns="http://www.w3.org/2000/svg">
<g clip-path="url(#clip0_33_1845)">
<path fill-rule="evenodd" clip-rule="evenodd" d="M12 0C18.6274 0 24 5.37258 24 12C24 18.6274 18.6274 24 12 24C5.37258 24 0 18.6274 0 12C0 5.37258 5.37258 0 12 0ZM6.25739 16.2846H17.7428C17.8066 16.2846 17.8699 16.2748 17.9307 16.2555L13.6489 12.2932L12.3815 13.2703C12.2722 13.3547 12.138 13.4004 11.9999 13.4004C11.8618 13.4004 11.7276 13.3547 11.6183 13.2703L10.3511 12.2933L6.06905 16.2556C6.12998 16.2749 6.19349 16.2847 6.25739 16.2847V16.2846ZM9.34748 11.5192L5.63264 8.65462V14.9568L9.34748 11.5192ZM12 11.9866L17.5389 7.71563H6.46106L12 11.9866ZM18.3675 14.9568V8.65462L14.6524 11.5192L18.3675 14.9568ZM6.25739 17.5344H17.7428C18.2398 17.5338 18.7162 17.3361 19.0676 16.9847C19.419 16.6333 19.6167 16.1568 19.6172 15.6598V8.34019C19.6166 7.84324 19.419 7.3668 19.0676 7.01539C18.7162 6.66398 18.2398 6.46628 17.7428 6.46566H6.25739C5.76041 6.46624 5.28396 6.66392 4.93254 7.01534C4.58112 7.36675 4.38344 7.84321 4.38286 8.34019V15.6598C4.38341 16.1568 4.58107 16.6333 4.9325 16.9847C5.28392 17.3362 5.7604 17.5338 6.25739 17.5344Z" fill="#FCC709"/>
</g>
<defs>
<clipPath id="clip0_33_1845">
<rect width="24" height="24" fill="white"/>
</clipPath>
</defs>
</svg>
