<svg width="30" height="30" viewBox="0 0 30 30" fill="none" xmlns="http://www.w3.org/2000/svg">
<g clip-path="url(#clip0_4027_6942)">
<path fill-rule="evenodd" clip-rule="evenodd" d="M15 0C23.2843 0 30 6.71572 30 15C30 23.2843 23.2843 30 15 30C6.71572 30 0 23.2843 0 15C0 6.71572 6.71572 0 15 0ZM7.82174 20.3558H22.1785C22.2582 20.3557 22.3374 20.3434 22.4134 20.3194L17.0611 15.3664L15.4768 16.5879C15.3402 16.6933 15.1725 16.7505 14.9999 16.7505C14.8273 16.7505 14.6595 16.6933 14.5229 16.5879L12.9388 15.3666L7.58631 20.3195C7.66248 20.3436 7.74187 20.3559 7.82174 20.3559V20.3558ZM11.6844 14.3989L7.0408 10.8183V18.696L11.6844 14.3989ZM15 14.9833L21.9237 9.64453H8.07633L15 14.9833ZM22.9594 18.696V10.8183L18.3155 14.3989L22.9594 18.696ZM7.82174 21.918H22.1785C22.7997 21.9173 23.3953 21.6701 23.8345 21.2309C24.2738 20.7916 24.5208 20.196 24.5215 19.5748V10.4252C24.5208 9.80405 24.2737 9.2085 23.8345 8.76924C23.3953 8.32997 22.7997 8.08285 22.1786 8.08207H7.82174C7.20052 8.0828 6.60495 8.3299 6.16568 8.76917C5.72641 9.20844 5.4793 9.80401 5.47857 10.4252V19.5748C5.47926 20.196 5.72634 20.7916 6.16562 21.2309C6.6049 21.6702 7.2005 21.9173 7.82174 21.918Z" fill="#202838"/>
</g>
<defs>
<clipPath id="clip0_4027_6942">
<rect width="30" height="30" fill="white"/>
</clipPath>
</defs>
</svg>
