<svg width="20" height="20" viewBox="0 0 20 20" fill="none" xmlns="http://www.w3.org/2000/svg">
<path fill-rule="evenodd" clip-rule="evenodd" d="M4.83243 9.83292C4.83243 9.41871 5.16822 9.08293 5.58243 9.08293L16.4384 9.08292L13.7188 6.36325C13.4259 6.07036 13.4259 5.59549 13.7188 5.30259C14.0117 5.0097 14.4865 5.0097 14.7794 5.30259L18.6096 9.13275C18.9891 9.51228 19.0013 10.1237 18.6373 10.5181L14.8002 14.675C14.5192 14.9793 14.0448 14.9983 13.7404 14.7174C13.436 14.4364 13.417 13.9619 13.698 13.6575L16.5361 10.5829H5.58243C5.16822 10.5829 4.83243 10.2471 4.83243 9.83292Z" fill="white"/>
<path fill-rule="evenodd" clip-rule="evenodd" d="M4.83243 9.83292C4.83243 9.41871 5.16822 9.08293 5.58243 9.08293L16.4384 9.08292L13.7188 6.36325C13.4259 6.07036 13.4259 5.59549 13.7188 5.30259C14.0117 5.0097 14.4865 5.0097 14.7794 5.30259L18.6096 9.13275C18.9891 9.51228 19.0013 10.1237 18.6373 10.5181L14.8002 14.675C14.5192 14.9793 14.0448 14.9983 13.7404 14.7174C13.436 14.4364 13.417 13.9619 13.698 13.6575L16.5361 10.5829H5.58243C5.16822 10.5829 4.83243 10.2471 4.83243 9.83292Z" fill="white"/>
<path d="M2.48938 2.73901C2.48938 2.33073 2.82036 1.99976 3.22864 1.99976C3.63692 1.99976 3.96789 2.33073 3.96789 2.73901V17.2605C3.96789 17.6688 3.63692 17.9998 3.22864 17.9998C2.82036 17.9998 2.48938 17.6688 2.48938 17.2605V2.73901Z" fill="white"/>
<path d="M2.48938 2.73901C2.48938 2.33073 2.82036 1.99976 3.22864 1.99976C3.63692 1.99976 3.96789 2.33073 3.96789 2.73901V17.2605C3.96789 17.6688 3.63692 17.9998 3.22864 17.9998C2.82036 17.9998 2.48938 17.6688 2.48938 17.2605V2.73901Z" fill="white"/>
<path d="M3.22781 3.47827C2.81953 3.47827 2.48938 3.14729 2.48938 2.73901C2.48938 2.33073 2.82036 1.99976 3.22864 1.99976L5.27359 1.99976C5.68187 1.99976 6.01285 2.33073 6.01285 2.73901C6.01285 3.14729 5.68187 3.47827 5.27359 3.47827L3.22781 3.47827Z" fill="white"/>
<path d="M3.22781 3.47827C2.81953 3.47827 2.48938 3.14729 2.48938 2.73901C2.48938 2.33073 2.82036 1.99976 3.22864 1.99976L5.27359 1.99976C5.68187 1.99976 6.01285 2.33073 6.01285 2.73901C6.01285 3.14729 5.68187 3.47827 5.27359 3.47827L3.22781 3.47827Z" fill="white"/>
<path d="M3.22864 17.9998C2.82036 17.9998 2.48938 17.6688 2.48938 17.2605C2.48938 16.8522 2.81953 16.5212 3.22781 16.5212H5.27359C5.68187 16.5212 6.01285 16.8522 6.01285 17.2605C6.01285 17.6688 5.68187 17.9998 5.27359 17.9998H3.22864Z" fill="white"/>
<path d="M3.22864 17.9998C2.82036 17.9998 2.48938 17.6688 2.48938 17.2605C2.48938 16.8522 2.81953 16.5212 3.22781 16.5212H5.27359C5.68187 16.5212 6.01285 16.8522 6.01285 17.2605C6.01285 17.6688 5.68187 17.9998 5.27359 17.9998H3.22864Z" fill="white"/>
</svg>
