<svg width="24" height="24" viewBox="0 0 24 24" fill="none" xmlns="http://www.w3.org/2000/svg">
<g clip-path="url(#clip0_984_15001)">
<path d="M12 24C18.6274 24 24 18.6274 24 12C24 5.37258 18.6274 0 12 0C5.37258 0 0 5.37258 0 12C0 18.6274 5.37258 24 12 24Z" fill="#0076E2"/>
<path d="M16.7301 18.32C15.4801 18.32 14.245 18.0477 13.025 17.5029C11.805 16.9581 10.6951 16.1855 9.69507 15.185C8.69507 14.1846 7.92265 13.0746 7.37785 11.855C6.83305 10.6354 6.56046 9.40042 6.56006 8.15002C6.56006 7.97002 6.62006 7.82002 6.74006 7.70002C6.86006 7.58002 7.01006 7.52002 7.19006 7.52002H9.62006C9.76006 7.52002 9.88507 7.56762 9.99507 7.66282C10.1051 7.75802 10.1701 7.87042 10.1901 8.00002L10.5801 10.1C10.6001 10.26 10.5951 10.395 10.5651 10.505C10.5351 10.615 10.4801 10.71 10.4001 10.79L8.94505 12.26C9.14505 12.63 9.38246 12.9874 9.65726 13.3322C9.93206 13.677 10.2347 14.0096 10.5651 14.33C10.8751 14.64 11.2001 14.9276 11.5401 15.1928C11.8801 15.458 12.2401 15.7004 12.6201 15.92L14.0301 14.51C14.1201 14.42 14.2377 14.3526 14.3829 14.3078C14.5281 14.263 14.6705 14.2504 14.8101 14.27L16.8801 14.69C17.0201 14.73 17.1351 14.8026 17.225 14.9078C17.3151 15.013 17.3601 15.1304 17.3601 15.26V17.6901C17.3601 17.8701 17.3001 18.02 17.1801 18.14C17.0601 18.26 16.9101 18.32 16.7301 18.32Z" fill="white"/>
</g>
<defs>
<clipPath id="clip0_984_15001">
<rect width="24" height="24" fill="white"/>
</clipPath>
</defs>
</svg>
