<svg width="25" height="25" viewBox="0 0 25 25" fill="none" xmlns="http://www.w3.org/2000/svg">
<path d="M12.5 8.59375C11.7274 8.59375 10.9722 8.82285 10.3298 9.25207C9.68743 9.6813 9.18675 10.2914 8.8911 11.0051C8.59544 11.7189 8.51809 12.5043 8.66881 13.2621C8.81953 14.0198 9.19157 14.7158 9.73787 15.2621C10.2842 15.8084 10.9802 16.1805 11.7379 16.3312C12.4957 16.4819 13.2811 16.4046 13.9949 16.1089C14.7086 15.8132 15.3187 15.3126 15.7479 14.6702C16.1772 14.0278 16.4063 13.2726 16.4063 12.5C16.4049 11.4644 15.9929 10.4717 15.2606 9.73939C14.5284 9.00712 13.5356 8.59513 12.5 8.59375ZM12.5 14.8438C12.0365 14.8438 11.5833 14.7063 11.1979 14.4488C10.8125 14.1912 10.5121 13.8252 10.3347 13.3969C10.1573 12.9686 10.1109 12.4974 10.2013 12.0428C10.2917 11.5881 10.5149 11.1705 10.8427 10.8427C11.1705 10.5149 11.5881 10.2917 12.0428 10.2013C12.4974 10.1109 12.9687 10.1573 13.3969 10.3347C13.8252 10.5121 14.1912 10.8125 14.4488 11.1979C14.7063 11.5833 14.8438 12.0364 14.8438 12.5C14.8429 13.1213 14.5957 13.717 14.1564 14.1564C13.717 14.5957 13.1213 14.8429 12.5 14.8438Z" fill="#0076E2"/>
<path d="M20.9377 8.8254C20.7075 8.85551 20.4735 8.82732 20.2571 8.74341C20.0407 8.65951 19.8488 8.52257 19.6991 8.34519C19.6209 8.12634 19.599 7.89133 19.6354 7.66178C19.6718 7.43224 19.7653 7.21555 19.9075 7.03165C20.0886 6.71752 20.206 6.37079 20.2531 6.01125C20.3002 5.65172 20.276 5.28643 20.1819 4.93625C20.0878 4.58608 19.9256 4.25788 19.7046 3.9704C19.4836 3.68292 19.2081 3.4418 18.8939 3.26081L17.1043 2.23269C16.8199 2.06278 16.504 1.95212 16.1757 1.90737C15.8474 1.86262 15.5135 1.8847 15.1939 1.97227C14.5473 2.14205 13.9947 2.5617 13.6575 3.13894L13.5408 3.34102C12.9304 4.40144 12.0825 4.40144 11.47 3.34102L11.3491 3.13269C11.0104 2.5576 10.4575 2.1403 9.81162 1.97227C9.49366 1.88509 9.16141 1.86276 8.83465 1.9066C8.50788 1.95044 8.19327 2.05957 7.90954 2.22748L6.11162 3.26081C5.79742 3.4418 5.52195 3.68292 5.30095 3.9704C5.07996 4.25788 4.91777 4.58608 4.82364 4.93625C4.72952 5.28643 4.70531 5.65172 4.7524 6.01125C4.79949 6.37079 4.91695 6.71752 5.09808 7.03165C5.2402 7.21555 5.33376 7.43224 5.37017 7.66178C5.40658 7.89133 5.38465 8.12634 5.30641 8.34519C5.15622 8.52338 4.9635 8.6608 4.7461 8.74474C4.5287 8.82868 4.29363 8.85642 4.06266 8.8254C3.33128 8.8254 2.62978 9.11565 2.11223 9.63243C1.59467 10.1492 1.30335 10.8503 1.30225 11.5816V13.4171C1.30335 14.1484 1.59467 14.8495 2.11223 15.3663C2.62978 15.8831 3.33128 16.1733 4.06266 16.1733C4.29281 16.1432 4.52683 16.1714 4.74324 16.2553C4.95965 16.3392 5.15151 16.4761 5.3012 16.6535C5.37944 16.8724 5.40137 17.1074 5.36496 17.3369C5.32856 17.5665 5.23499 17.7832 5.09287 17.9671C4.91175 18.2812 4.79428 18.6279 4.74719 18.9875C4.70011 19.347 4.72431 19.7123 4.81844 20.0625C4.91256 20.4126 5.07475 20.7408 5.29574 21.0283C5.51674 21.3158 5.79221 21.5569 6.10641 21.7379L7.896 22.766C8.18068 22.9354 8.49652 23.0457 8.82473 23.0904C9.15294 23.1352 9.48679 23.1134 9.80641 23.0264C10.453 22.8567 11.0057 22.437 11.3429 21.8598L11.4595 21.6514C12.07 20.591 12.9179 20.59 13.5304 21.6514L13.6512 21.8598C13.8765 22.2396 14.1965 22.5544 14.58 22.7735C14.9634 22.9926 15.3971 23.1085 15.8387 23.1098C16.2785 23.1102 16.7103 22.9922 17.0887 22.7681L18.8866 21.7348C19.2008 21.5538 19.4763 21.3127 19.6973 21.0252C19.9183 20.7377 20.0805 20.4095 20.1746 20.0593C20.2687 19.7092 20.2929 19.3439 20.2458 18.9843C20.1988 18.6248 20.0813 18.2781 19.9002 17.9639C19.758 17.78 19.6645 17.5633 19.6281 17.3338C19.5917 17.1043 19.6136 16.8692 19.6918 16.6504C19.8419 16.4724 20.0345 16.335 20.2517 16.2511C20.4689 16.1672 20.7037 16.1393 20.9345 16.1702C21.6654 16.1694 22.3661 15.8787 22.883 15.3621C23.3998 14.8454 23.6907 14.1448 23.6918 13.4139V11.5816C23.6907 10.8513 23.4003 10.1512 22.8841 9.63463C22.3679 9.11804 21.668 8.82705 20.9377 8.8254ZM22.1366 13.4171C22.1355 13.7342 22.0087 14.038 21.7839 14.2618C21.5592 14.4856 21.2548 14.6111 20.9377 14.6108C20.4325 14.5723 19.9262 14.6689 19.4707 14.8908C19.0153 15.1127 18.6271 15.4518 18.346 15.8733C18.1225 16.3279 18.0239 16.8338 18.0606 17.339C18.0972 17.8443 18.2676 18.3307 18.5543 18.7483C18.7116 19.0236 18.7537 19.3499 18.6713 19.6561C18.589 19.9623 18.3889 20.2234 18.1147 20.3827L16.3075 21.4244C16.2007 21.4866 16.0827 21.5271 15.9602 21.5435C15.8378 21.5599 15.7133 21.552 15.5939 21.5202C15.3494 21.4559 15.1396 21.2985 15.0095 21.0816L14.8929 20.8806C14.6744 20.4219 14.3375 20.0299 13.9168 19.745C13.4962 19.46 13.0072 19.2925 12.5002 19.2598C11.9943 19.2929 11.5065 19.4601 11.0867 19.7442C10.6669 20.0283 10.3303 20.4191 10.1116 20.8764L9.99912 21.0712C9.86949 21.2917 9.65792 21.452 9.41058 21.5171C9.28924 21.549 9.16274 21.5562 9.03856 21.5383C8.91438 21.5204 8.79506 21.4777 8.68766 21.4129L6.88975 20.3785C6.61699 20.2193 6.41792 19.9591 6.33565 19.6541C6.25337 19.3492 6.29451 19.0242 6.45016 18.7494C6.7369 18.3317 6.90733 17.8453 6.94394 17.3401C6.98055 16.8348 6.88203 16.3289 6.6585 15.8744C6.3772 15.452 5.98839 15.1123 5.53212 14.8902C5.07584 14.6681 4.56861 14.5716 4.06266 14.6108C3.74568 14.6108 3.44161 14.4852 3.21708 14.2614C2.99254 14.0377 2.86585 13.734 2.86475 13.4171V11.5816C2.86585 11.2647 2.99254 10.961 3.21708 10.7373C3.44161 10.5135 3.74568 10.3879 4.06266 10.3879C4.568 10.4266 5.07453 10.3301 5.53019 10.1082C5.98585 9.88629 6.37422 9.54708 6.65537 9.1254C6.87956 8.67095 6.97871 8.16501 6.94265 7.65956C6.90658 7.15411 6.7366 6.66737 6.45016 6.24936C6.29288 5.97407 6.25082 5.64776 6.33317 5.34159C6.41552 5.03542 6.61559 4.77423 6.88975 4.61498L8.69704 3.57331C8.80335 3.51001 8.92138 3.46888 9.04401 3.45241C9.16664 3.43594 9.29133 3.44447 9.41058 3.47748C9.65514 3.54179 9.86487 3.69917 9.99496 3.91602L10.1116 4.11811C10.3299 4.57599 10.6663 4.96743 11.0861 5.25213C11.5059 5.53684 11.994 5.70451 12.5002 5.7379C13.0059 5.70491 13.4937 5.53786 13.9135 5.25391C14.3333 4.96997 14.6699 4.57938 14.8887 4.12227L15.0012 3.92748C15.1308 3.707 15.3424 3.54674 15.5897 3.48165C15.7111 3.44975 15.8376 3.44254 15.9618 3.46043C16.0859 3.47833 16.2053 3.52096 16.3127 3.58581L18.1106 4.62019C18.3833 4.7794 18.5824 5.03965 18.6647 5.34457C18.747 5.64949 18.7058 5.97455 18.5502 6.24936C18.2634 6.66697 18.093 7.15337 18.0564 7.65862C18.0198 8.16387 18.1183 8.66977 18.3418 9.12436C18.6231 9.54672 19.0119 9.88644 19.4682 10.1085C19.9245 10.3306 20.4317 10.4271 20.9377 10.3879C21.2541 10.3887 21.5574 10.5147 21.7812 10.7384C22.0051 10.9621 22.1314 11.2652 22.1325 11.5816L22.1366 13.4171Z" fill="#202838"/>
</svg>
