<svg width="151" height="150" viewBox="0 0 151 150" fill="none" xmlns="http://www.w3.org/2000/svg">
<g clip-path="url(#clip0_209_8599)">
<path d="M127.983 37.8959C127.018 36.9308 125.746 36.3328 124.387 36.2053C123.029 36.0778 121.668 36.4287 120.54 37.1975C111.772 43.1735 67.7967 73.2236 63.0705 77.9494C56.2168 84.8034 56.2168 95.955 63.0705 102.809C66.4974 106.236 70.9991 107.949 75.5003 107.949C80.0015 107.949 84.5029 106.236 87.9301 102.809C92.656 98.0828 122.706 54.1071 128.682 45.3397C129.451 44.2117 129.801 42.8508 129.674 41.4919C129.546 40.133 128.948 38.8612 127.983 37.8959ZM79.6432 94.5224C77.3589 96.8072 73.6414 96.8072 71.3571 94.5224C69.0726 92.2381 69.0723 88.5218 71.356 86.2372C73.1923 84.4226 85.6777 75.5181 101.039 64.8403C90.3617 80.2018 81.4572 92.6866 79.6432 94.5224Z" fill="#0076E2"/>
<path d="M27.5208 117.634L20.2874 121.163C14.9946 111.717 12.2188 101.174 12.2188 90.3809C12.2188 82.4733 13.6769 74.8998 16.3379 67.9151L24.6263 71.8907C25.4155 72.2709 26.2803 72.4684 27.1563 72.4685C29.3398 72.4685 31.436 71.2424 32.4436 69.1418C33.8428 66.2241 32.6123 62.724 29.6943 61.3245L21.5111 57.3993C31.6821 40.8114 49.2799 29.2465 69.6409 27.3686V36.1813C69.6409 39.4175 72.2642 42.0407 75.5003 42.0407C78.7364 42.0407 81.3597 39.4175 81.3597 36.1813V27.3642C88.3405 27.9996 95.0952 29.7773 101.507 32.6719C104.456 34.0034 107.927 32.6912 109.258 29.7425C110.59 26.7929 109.278 23.3227 106.329 21.9911C96.6122 17.6051 86.2399 15.3809 75.5 15.3809C55.4668 15.3809 36.6327 23.182 22.4668 37.3477C8.30147 51.5136 0.5 70.3477 0.5 90.3809C0.5 105.185 4.89395 119.582 13.2069 132.016C13.9944 133.194 15.1822 134.047 16.5501 134.416C17.9181 134.786 19.3736 134.647 20.6472 134.026L32.6589 128.167C35.5675 126.748 36.7751 123.24 35.3563 120.331C33.9374 117.423 30.4294 116.216 27.5208 117.634ZM143.889 59.5523C142.558 56.603 139.089 55.2905 136.138 56.6227C133.189 57.9542 131.877 61.4244 133.209 64.3737C136.907 72.5646 138.781 81.3147 138.781 90.3809C138.781 101.19 135.996 111.75 130.688 121.206L123.136 117.61C120.215 116.219 116.718 117.459 115.327 120.381C113.935 123.303 115.176 126.8 118.098 128.191L130.403 134.05C131.673 134.655 133.119 134.783 134.476 134.409C135.833 134.036 137.011 133.186 137.793 132.016C146.106 119.582 150.5 105.185 150.5 90.3809C150.5 79.6409 148.276 69.2687 143.889 59.5523Z" fill="white"/>
</g>
<defs>
<clipPath id="clip0_209_8599">
<rect width="150" height="150" fill="white" transform="translate(0.5)"/>
</clipPath>
</defs>
</svg>
