<svg width="151" height="150" viewBox="0 0 151 150" fill="none" xmlns="http://www.w3.org/2000/svg">
<g clip-path="url(#clip0_209_8607)">
<path d="M87.8038 1.03027C89.2404 -0.759971 91.8579 -0.964745 93.6661 0.34082L93.839 0.47168L93.8478 0.478516L93.8556 0.486328C95.3199 1.76758 95.6733 3.76569 95.1329 5.38672L95.131 5.39258L94.6583 5.22852L95.13 5.39258L76.1193 59.8682L126.191 60.0283H126.19C128.568 60.0286 130.569 62.0313 130.569 64.4092L130.566 64.584C130.523 65.4594 130.164 66.3023 129.661 66.9727L129.657 66.9785C115.422 85.42 100.378 103.537 85.3409 121.646L85.34 121.646C77.9026 130.539 70.467 139.428 62.7091 148.964L62.7101 148.965C61.2281 150.817 58.4831 150.978 56.671 149.528L56.6622 149.521L56.6544 149.514C55.1901 148.232 54.8367 146.234 55.3771 144.613L55.379 144.607L74.3898 90.1309L24.3195 89.9717V89.9707C21.9419 89.9701 20.1018 88.1306 20.1017 85.7529C20.1017 84.6644 20.4664 83.7521 21.0099 83.0273L21.0157 83.0195L21.0226 83.0117L65.6505 28.1963C72.928 19.1399 80.367 10.0839 87.8038 1.03027ZM72.4093 33.8398L72.4073 33.8418C65.7784 41.9258 59.1898 50.0099 52.6007 58.0947C46.2324 65.9086 39.8625 73.7225 33.4572 81.5371L80.2687 81.6953H80.2677C80.7383 81.6953 81.2994 81.6915 81.8693 81.8789H81.8702C84.2672 82.6167 85.3485 85.1872 84.6222 87.3662L84.6202 87.373L71.6349 124.515C72.5202 123.452 73.4132 122.389 74.3058 121.327C75.8017 119.548 77.2955 117.773 78.7482 115.997L78.7521 115.992L83.7765 109.989C95.2585 96.243 106.587 82.4684 117.564 68.4619L70.4025 68.3047V68.3037C69.932 68.3037 69.3714 68.3075 68.8019 68.1201V68.1211C66.4046 67.3835 65.3226 64.8129 66.049 62.6338L66.0519 62.626L79.005 25.7217L72.4093 33.8398Z" fill="#0076E2" stroke="#0076E2"/>
<path d="M103.382 14.8271C104.553 12.9364 107.182 12.2977 109.126 13.3584L110.159 13.9326C120.762 19.9483 129.356 28.6708 135.35 38.7666L135.922 39.749C141.75 49.9447 144.957 61.6336 144.798 73.6318C144.797 89.9158 139.096 105.059 129.489 116.947L129.49 116.948C119.879 129.002 106.359 137.634 90.564 141.217L90.563 141.216C88.2515 141.748 86.1195 140.375 85.4946 138.149L85.439 137.931C84.8883 135.544 86.3698 133.347 88.7241 132.804L88.73 132.803L90.0317 132.503C103.42 129.271 114.809 121.732 122.887 111.635L123.66 110.649C131.534 100.386 136.199 87.6136 136.199 73.7871C136.199 62.7175 133.311 52.1339 127.861 42.9971C122.408 33.856 114.55 26.1577 104.927 20.8652V20.8643C102.894 19.7539 102.179 17.0206 103.274 15.0137L103.382 14.8271ZM59.7847 6.68164C62.0046 6.13397 64.3595 7.60703 64.9067 9.95801L64.9526 10.167C65.3689 12.3297 63.9095 14.566 61.6235 15.0938V15.0928C47.8302 18.3006 36.1247 25.9992 27.9478 36.4209L27.9448 36.4238C19.6058 46.8477 14.7955 59.8357 14.7954 73.9482C14.7954 85.0133 17.8424 95.758 23.2935 104.897L23.8267 105.766C29.4013 114.681 37.0716 122.064 46.5464 127.19C48.6775 128.264 49.4104 130.709 48.4722 132.825L48.3755 133.029C47.2709 135.238 44.6956 135.952 42.5308 134.87L42.5239 134.867L42.5181 134.863C31.6294 129.024 22.8815 120.587 16.5718 110.442L15.9692 109.456C9.6163 98.8678 6.1958 86.6508 6.1958 73.9482C6.19589 57.8245 11.7337 42.8398 21.1802 30.9502L22.0767 29.8447C31.4534 18.5166 44.3203 10.1523 59.7847 6.68066V6.68164Z" fill="white" stroke="white"/>
</g>
<defs>
<clipPath id="clip0_209_8607">
<rect width="150" height="150" fill="white" transform="translate(0.5)"/>
</clipPath>
</defs>
</svg>
