<svg width="262" height="34" viewBox="0 0 262 34" fill="none" xmlns="http://www.w3.org/2000/svg">
<g clip-path="url(#clip0_2_6747)">
<path d="M170.769 12.9253H167.602C167.488 12.2998 167.238 11.7071 166.868 11.1896C166.537 10.791 166.116 10.4762 165.639 10.2708C165.163 10.0655 164.644 9.9754 164.126 10.0079C163.337 9.97612 162.557 10.1981 161.903 10.6412C161.249 11.0843 160.754 11.7252 160.491 12.4699C160.189 13.2162 160.008 14.0057 159.955 14.8088C159.955 15.1042 159.912 15.4243 159.912 15.7197C159.912 18.2596 160.61 19.9605 162.007 20.8222C162.614 21.1815 163.31 21.3647 164.015 21.3515C165.661 21.3515 166.764 20.6867 167.312 19.3511C167.466 18.9565 167.564 18.5421 167.602 18.1201H170.855C170.848 19.102 170.596 20.0666 170.122 20.9265C169.647 21.7863 168.965 22.5142 168.138 23.0441C166.869 23.8317 165.397 24.2298 163.905 24.1889C161.349 24.1889 159.411 23.239 158.088 21.3392C157.01 19.6636 156.474 17.6974 156.554 15.7074C156.554 12.6258 157.445 10.3259 159.228 8.80768C160.565 7.70217 162.262 7.12415 163.997 7.18277C166.388 7.18277 168.236 7.96855 169.543 9.54012C169.604 9.61398 169.66 9.68168 169.703 9.74323C170.356 10.68 170.726 11.7845 170.769 12.9253Z" fill="white"/>
<path d="M179.771 7.18299C180.802 7.14218 181.83 7.32145 182.786 7.70884C183.743 8.09623 184.605 8.68285 185.316 9.42956C186.813 11.0987 187.625 13.2701 187.59 15.5107V15.7999C187.617 17.6789 187.064 19.5206 186.007 21.0748C185.331 21.965 184.474 22.7013 183.492 23.2348C182.509 23.7683 181.424 24.0867 180.309 24.1688C179.194 24.2509 178.074 24.0948 177.024 23.711C175.974 23.3271 175.018 22.7243 174.219 21.9426C172.844 20.4303 172.047 18.4816 171.97 16.4401C171.97 16.1939 171.97 15.9415 171.97 15.6892C171.905 13.5522 172.599 11.4613 173.929 9.78654L174.244 9.42956C174.949 8.68009 175.808 8.09142 176.762 7.70372C177.716 7.31601 178.742 7.1384 179.771 7.18299ZM179.771 10.0327C179.029 10.0059 178.295 10.1879 177.652 10.558C177.01 10.928 176.484 11.4712 176.135 12.1254L175.735 12.9687C175.428 13.8423 175.278 14.7633 175.291 15.6892C175.291 17.827 175.907 19.4068 177.14 20.4285C177.888 21.0384 178.83 21.3614 179.796 21.3394C180.524 21.3604 181.245 21.1801 181.877 20.8185C182.51 20.4569 183.031 19.9279 183.382 19.2898C184.003 18.2248 184.312 17.0072 184.275 15.7753C184.275 13.4918 183.628 11.8485 182.334 10.8514C181.605 10.2998 180.71 10.0113 179.796 10.0327H179.771Z" fill="white"/>
<path d="M198.891 23.6779L192.36 12.4574V23.6779H189.02V7.44727H192.452L198.891 18.4647V7.44727H202.231V23.6779H198.891Z" fill="white"/>
<path d="M214.893 23.6779L208.362 12.4574V23.6779H205.016V7.44727H208.448L214.893 18.4647V7.44727H218.233V23.6779H214.893Z" fill="white"/>
<path d="M224.161 16.6859V20.9266H232.966V23.7087H220.821V7.44727H232.56V10.2293H224.161V13.9223H231.937V16.7043L224.161 16.6859Z" fill="white"/>
<path d="M248.229 12.9253H245.043C244.93 12.2987 244.678 11.7054 244.304 11.1896C243.969 10.7917 243.544 10.4791 243.064 10.2779C242.584 10.0767 242.063 9.99258 241.543 10.0325C240.755 10.0021 239.977 10.2247 239.324 10.6677C238.671 11.1107 238.177 11.7508 237.914 12.4945C237.613 13.2409 237.432 14.0303 237.378 14.8334C237.348 15.1361 237.334 15.4401 237.335 15.7443C237.335 18.2843 238.033 19.9851 239.43 20.8468C240.035 21.2059 240.729 21.3892 241.433 21.3761C243.084 21.3761 244.181 20.7114 244.735 19.3757C244.887 18.9803 244.984 18.5662 245.025 18.1447H248.321C248.312 19.1267 248.058 20.0909 247.582 20.9504C247.107 21.81 246.425 22.5379 245.598 23.0687C244.334 23.8419 242.871 24.2291 241.389 24.1828C238.834 24.1828 236.895 23.2328 235.573 21.333C234.493 19.6581 233.955 17.6919 234.032 15.7012C234.032 12.6196 234.924 10.3197 236.706 8.80152C238.045 7.69803 239.741 7.12028 241.476 7.17662C243.871 7.17662 245.719 7.9624 247.021 9.53396L247.182 9.73708C247.829 10.6776 248.193 11.7843 248.229 12.9253Z" fill="white"/>
<path d="M257.25 10.2293V23.6779H253.91V10.2293H248.98V7.44727H262V10.2293H257.25Z" fill="white"/>
<path d="M86.9866 12.1993H85.0333C85.0793 11.4666 84.8534 10.7426 84.3987 10.1658C83.944 9.58902 83.2925 9.19981 82.5686 9.07258C82.0417 8.94862 81.5017 8.88869 80.9604 8.89409C79.4076 8.89409 78.3272 9.35571 77.7193 10.2789L77.4482 10.8144C77.3573 11.082 77.3115 11.3628 77.3126 11.6453C77.3134 12.0401 77.4308 12.4258 77.65 12.7543C77.8692 13.0827 78.1805 13.3393 78.545 13.4918C79.0175 13.7237 79.5132 13.9053 80.0238 14.0335L84.1152 15.1229C85.9021 15.6153 87.0051 16.5878 87.4241 18.028C87.5316 18.4148 87.5855 18.8145 87.5843 19.2159C87.5958 20.4478 87.1222 21.6348 86.2657 22.5211C86.1092 22.6792 85.9446 22.8292 85.7728 22.9705C84.6883 23.7911 83.1601 24.2014 81.1884 24.2014C78.6702 24.2014 76.8443 23.4259 75.7105 21.8749C75.0373 20.8821 74.7004 19.7 74.7493 18.502H76.7149L76.7827 19.3513C76.889 19.9637 77.1595 20.5359 77.5652 21.007C78.3293 21.918 79.5801 22.3673 81.3239 22.3673C82.3684 22.438 83.4104 22.1981 84.3186 21.6779C84.6396 21.4569 84.9081 21.1681 85.105 20.832C85.302 20.496 85.4227 20.1207 85.4585 19.7329C85.4677 19.6285 85.4677 19.5235 85.4585 19.419C85.4585 18.2865 84.6369 17.4659 82.9938 16.9571L82.4577 16.8032L78.4094 15.7322C76.2774 15.1783 75.2114 13.9165 75.2114 11.9346C75.1649 11.1115 75.36 10.2928 75.7726 9.57886C76.1853 8.8649 76.7976 8.28679 77.5344 7.91545C78.6097 7.37821 79.8017 7.11597 81.0035 7.15224C83.6285 7.15224 85.4092 7.97289 86.3458 9.61421C86.7856 10.4037 87.0068 11.296 86.9866 12.1993Z" fill="white"/>
<path d="M99.0392 23.7027H96.8456L92.2181 10.0572V23.7027H90.2524V7.42285H93.1362L97.967 21.5793L102.705 7.42285H105.589V23.7027H103.624V10.0572L99.0392 23.7027Z" fill="white"/>
<path d="M117.801 18.8157H111.529L109.81 23.7027H107.591L113.377 7.42285H116.064L121.788 23.7027H119.477L117.801 18.8157ZM117.222 17.0738L114.714 9.68788L112.034 17.0738H117.222Z" fill="white"/>
<path d="M144.322 9.23223V23.7025H142.245V9.23223H136.878V7.38574H149.67V9.23223H144.322Z" fill="white"/>
<path d="M136.33 23.7395L132.442 16.4151C133.266 16.0699 133.962 15.4776 134.435 14.7202C134.907 13.9627 135.132 13.0775 135.079 12.1866C135.096 11.4524 134.966 10.7222 134.697 10.0385C133.995 8.28437 132.479 7.38574 130.045 7.38574H123.304V23.7025H125.387V16.7967H130.507L133.847 23.7395H136.33ZM125.387 14.9625V9.23223H129.7C129.917 9.23285 130.133 9.2493 130.347 9.28147L131.111 9.45996C131.663 9.63304 132.139 9.98913 132.461 10.4693C132.782 10.9495 132.93 11.5249 132.88 12.1004C132.89 12.5221 132.812 12.9414 132.652 13.3314C132.208 14.4311 131.224 14.983 129.7 14.9871L125.387 14.9625Z" fill="white"/>
<path d="M2.87765 29.9191H18.2205C19.1571 29.9191 18.9969 29.5252 18.4916 28.8727C18.2201 28.4996 18.0383 28.0689 17.9603 27.6142C17.8823 27.1595 17.9102 26.6929 18.0418 26.2507L21.1227 13.6577C21.1683 13.4708 21.171 13.276 21.1304 13.0879C21.0899 12.8998 21.0072 12.7233 20.8886 12.5717C20.77 12.4201 20.6186 12.2973 20.4457 12.2125C20.2729 12.1277 20.083 12.0831 19.8904 12.082H4.59063C4.30715 12.0843 4.03241 12.1804 3.80942 12.3552C3.58643 12.5301 3.42777 12.7738 3.35827 13.0484L0.110999 26.2507C-0.388107 28.2757 0.850415 29.9191 2.87765 29.9191Z" fill="#43AAE0"/>
<path d="M58.1366 0H32.4665C31.4099 0.0531396 30.3972 0.439076 29.5736 1.10249C28.7501 1.7659 28.158 2.67273 27.8821 3.69298L22.2872 26.2509C21.7819 28.2759 23.0204 29.9439 25.0538 29.9439H44.6176C44.92 29.9475 45.2168 30.0251 45.4822 30.17C45.7475 30.3149 45.9732 30.5226 46.1395 30.7748C46.7688 31.7605 47.6368 32.5718 48.6632 33.1334C49.6897 33.695 50.8414 33.9888 52.0118 33.9877C51.0704 33.0155 50.4287 31.7934 50.1632 30.4671C50.1016 30.1655 50.3296 29.907 50.7054 29.907C51.7618 29.8529 52.774 29.4666 53.5974 28.8034C54.4208 28.1401 55.0131 27.2338 55.2898 26.214L60.9032 3.69298C61.4085 1.64338 60.17 0 58.1366 0Z" fill="#4483C4"/>
<path d="M41.5925 17.123C42.787 17.123 43.7553 16.1558 43.7553 14.9626C43.7553 13.7695 42.787 12.8022 41.5925 12.8022C40.398 12.8022 39.4297 13.7695 39.4297 14.9626C39.4297 16.1558 40.398 17.123 41.5925 17.123Z" fill="white"/>
<path d="M34.7834 17.123C35.9779 17.123 36.9462 16.1558 36.9462 14.9626C36.9462 13.7695 35.9779 12.8022 34.7834 12.8022C33.5889 12.8022 32.6206 13.7695 32.6206 14.9626C32.6206 16.1558 33.5889 17.123 34.7834 17.123Z" fill="white"/>
<path d="M48.4074 17.123C49.6019 17.123 50.5702 16.1558 50.5702 14.9626C50.5702 13.7695 49.6019 12.8022 48.4074 12.8022C47.2129 12.8022 46.2446 13.7695 46.2446 14.9626C46.2446 16.1558 47.2129 17.123 48.4074 17.123Z" fill="white"/>
</g>
<defs>
<clipPath id="clip0_2_6747">
<rect width="262" height="34" fill="white"/>
</clipPath>
</defs>
</svg>
