<svg width="243" height="35" viewBox="0 0 243 35" fill="none" xmlns="http://www.w3.org/2000/svg">
<path d="M139.272 24.7503V8.49023H145.632C147.82 8.49023 149.419 8.99517 150.429 10.005C150.549 10.1253 150.657 10.2455 150.765 10.3597C152.088 11.9346 152.749 14.0205 152.749 16.6053C152.749 19.19 152.088 21.306 150.765 22.8508C149.785 24.041 148.247 24.6722 146.149 24.7443H139.278L139.272 24.7503ZM142.614 21.9612H145.626C148.138 21.9612 149.395 20.1819 149.395 16.6293C149.395 13.0767 148.138 11.2734 145.626 11.2734H142.614V21.9612Z" fill="#202838"/>
<path d="M157.786 17.7474V21.9612H166.598V24.7503H154.443V8.49023H166.201V11.2794H157.792V14.9582H165.576V17.7474H157.792H157.786Z" fill="#202838"/>
<path d="M171.702 8.49023V21.9612H179.486V24.7503H168.354V8.49023H171.702Z" fill="#202838"/>
<path d="M184.061 8.49023V24.7503H180.713V8.49023H184.061Z" fill="#202838"/>
<path d="M194.28 24.7503H191.449L185.961 8.49023H189.327L192.94 20.7349L196.486 8.49023H199.853L194.274 24.7503H194.28Z" fill="#202838"/>
<path d="M204.877 17.7474V21.9612H213.69V24.7503H201.535V8.49023H213.293V11.2794H204.883V14.9582H212.668V17.7474H204.883H204.877Z" fill="#202838"/>
<path d="M237.849 18.7272V24.7503H234.501V18.7272L229.103 8.49023H232.829L236.154 15.6735L239.255 8.49023H243L237.849 18.7272Z" fill="#202838"/>
<path d="M219.436 24.7803H216.034V8.53223H222.749C226.488 8.53223 228.628 10.5039 228.628 13.7138C228.628 15.7997 227.545 17.597 225.676 18.3304L229.096 24.7863H225.243L222.214 18.8413H219.43V24.7863L219.436 24.7803ZM219.436 16.3707H222.418C224.131 16.3707 225.135 15.3909 225.135 13.7799C225.135 12.169 224.077 11.1891 222.388 11.1891H219.436V16.3707Z" fill="#202838"/>
<path d="M72.7479 13.0727H70.8682C70.8567 11.492 70.0692 10.4975 68.523 10.0837C68.0689 9.96871 67.5573 9.91123 66.9882 9.91123C65.5109 9.91123 64.4762 10.3538 63.8957 11.2333L63.637 11.7449C63.5508 11.9863 63.5105 12.2508 63.5105 12.5324C63.5105 13.3314 63.8957 13.9292 64.6602 14.3259C65.0166 14.5098 65.4822 14.6822 66.0685 14.8374L69.9715 15.8836C71.6787 16.355 72.7307 17.2747 73.1273 18.6543C73.225 19.0107 73.2767 19.3843 73.2767 19.7867C73.2767 20.9823 72.8629 22.0285 72.0409 22.9252C71.8857 23.0804 71.7305 23.2241 71.5695 23.3505C70.5291 24.1495 69.0748 24.5462 67.1951 24.5462C64.7924 24.5462 63.0507 23.8047 61.97 22.3274C61.3722 21.5169 61.0675 20.442 61.0503 19.1084H62.93L62.9932 19.9189C63.0909 20.4994 63.3438 21.0283 63.7405 21.4996C64.4647 22.3676 65.6604 22.7987 67.3216 22.7987C68.5862 22.7987 69.5404 22.5803 70.1784 22.1377C70.805 21.6951 71.1671 21.08 71.2649 20.281C71.2764 20.1833 71.2879 20.0798 71.2879 19.9821C71.2879 18.9014 70.5061 18.1139 68.9426 17.6138L68.431 17.4644L64.5682 16.4412C62.5333 15.9181 61.5159 14.7052 61.5159 12.8141C61.5159 11.0494 62.2574 9.77328 63.7347 8.97427C64.6429 8.49142 65.7466 8.25 67.0399 8.25C69.5404 8.25 71.2419 9.0375 72.1386 10.6183C72.5352 11.3138 72.7364 12.13 72.7364 13.0727H72.7479Z" fill="#202838"/>
<path d="M84.245 24.0577H82.1527L77.7381 11.0265V24.0577H75.8584V8.50879H78.6118L83.2219 22.0516L87.7457 8.50879H90.4991V24.0577H88.6194V11.0265L84.245 24.0577Z" fill="#202838"/>
<path d="M102.139 19.3844H96.1437L94.4997 24.0577H92.3901L97.9372 8.50879H100.495L105.956 24.0577H103.737L102.139 19.3844ZM101.587 17.7232L99.196 10.6414L96.6381 17.7232H101.587Z" fill="#202838"/>
<path d="M127.436 10.2562V24.0577H125.453V10.2562H120.331V8.50879H132.535V10.2562H127.436Z" fill="#202838"/>
<path d="M119.815 24.086L116.107 17.0904C116.527 16.9065 116.924 16.6651 117.28 16.3432C118.177 15.5327 118.625 14.4347 118.625 13.0552C118.625 12.2734 118.504 11.5894 118.263 11.0031C117.596 9.32459 116.113 8.48535 113.82 8.48535H107.393V24.0573H109.376V17.4583H114.262L117.447 24.086H119.821H119.815ZM109.376 15.7051V10.2386H113.521C113.733 10.2386 113.94 10.2501 114.141 10.2788L114.866 10.4512C115.992 10.8479 116.556 11.6871 116.556 12.969C116.556 13.3943 116.487 13.7795 116.343 14.1243C115.918 15.1763 114.975 15.7051 113.526 15.7051H109.382H109.376Z" fill="#202838"/>
<path d="M47.9151 5.51287L18.1554 0.028304C16.8163 -0.217115 15.7759 1.1807 16.4002 2.39179L20.4816 10.3466C20.5403 10.4639 20.5989 10.576 20.647 10.6933C20.8497 11.1468 21.3299 11.4136 21.8207 11.3336L42.5692 8.08443L21.9594 14.5827C21.5699 14.7054 21.2872 15.0415 21.2072 15.4417C21.1165 15.9005 20.9884 16.3593 20.8177 16.8021L17.3391 25.7546C16.7523 27.2591 18.4702 28.6142 19.7987 27.6966L48.4379 7.95639C49.4303 7.27349 49.0995 5.73695 47.9151 5.51821V5.51287Z" fill="#4182C4"/>
<path d="M11.9028 4.30183L2.73692 3.5549C1.8246 3.48021 1.18438 4.43521 1.60586 5.25149L5.52722 12.8915C6.26881 14.332 6.35951 16.0179 5.78331 17.5331L0.0799954 32.509C-0.309473 33.528 0.800245 34.4723 1.74457 33.9228L10.729 28.673C11.7374 28.0807 12.5163 27.1631 12.9325 26.0694L16.6564 16.3113C17.3126 14.5881 17.2059 12.6674 16.363 11.0242L13.4446 5.33685C13.1459 4.74998 12.559 4.36052 11.9028 4.30716V4.30183Z" fill="#3FAAE0"/>
</svg>
