<svg width="40" height="40" viewBox="0 0 40 40" fill="none" xmlns="http://www.w3.org/2000/svg">
<path d="M20 35C17.9356 35 15.9911 34.6056 14.1667 33.8167C12.3422 33.0267 10.7533 31.9544 9.40001 30.6C8.04668 29.2456 6.97445 27.6567 6.18334 25.8333C5.39223 24.01 4.99779 22.0656 5.00001 20C5.00001 17.9289 5.39445 15.9828 6.18334 14.1617C6.97334 12.3394 8.04556 10.7522 9.40001 9.4C10.7545 8.04778 12.3433 6.97556 14.1667 6.18333C15.9911 5.39444 17.9356 5 20 5C22.0711 5 24.0172 5.39444 25.8383 6.18333C27.6606 6.97333 29.2483 8.04556 30.6017 9.4C31.955 10.7544 33.0267 12.3417 33.8167 14.1617C34.6056 15.9839 35 17.93 35 20C35 22.0644 34.6056 24.0089 33.8167 25.8333C33.0267 27.6578 31.9545 29.2467 30.6 30.6C29.2456 31.9533 27.6583 33.0256 25.8383 33.8167C24.0183 34.6078 22.0722 35.0022 20 35ZM20 33.3467C20.9778 32.09 21.7845 30.8561 22.42 29.645C23.0545 28.4339 23.5706 27.0783 23.9683 25.5783H16.0317C16.4728 27.1628 16.9995 28.5606 17.6117 29.7717C18.225 30.9828 19.0211 32.1744 20 33.3467ZM17.8783 33.0967C17.1006 32.18 16.3906 31.0467 15.7483 29.6967C15.1061 28.3478 14.6283 26.9744 14.315 25.5767H7.92334C8.8789 27.6489 10.2328 29.3489 11.985 30.6767C13.7383 32.0033 15.7028 32.81 17.8783 33.0967ZM22.1217 33.0967C24.2972 32.81 26.2617 32.0033 28.015 30.6767C29.7672 29.3489 31.1211 27.6489 32.0767 25.5767H25.6867C25.2645 26.9956 24.7328 28.3794 24.0917 29.7283C23.4495 31.0783 22.7928 32.2022 22.1217 33.0967ZM7.24334 23.9117H13.9683C13.8417 23.2272 13.7528 22.5606 13.7017 21.9117C13.6483 21.2639 13.6217 20.6267 13.6217 20C13.6217 19.3733 13.6478 18.7361 13.7 18.0883C13.7522 17.4406 13.8411 16.7739 13.9667 16.0883H7.24501C7.0639 16.6661 6.92223 17.2956 6.82001 17.9767C6.71779 18.6567 6.66668 19.3311 6.66668 20C6.66668 20.6689 6.71723 21.3439 6.81834 22.025C6.91945 22.7061 7.06112 23.3344 7.24334 23.91M15.635 23.91H24.365C24.4917 23.2267 24.5806 22.5711 24.6317 21.9433C24.685 21.3167 24.7117 20.6689 24.7117 20C24.7117 19.3311 24.6856 18.6833 24.6333 18.0567C24.5811 17.43 24.4922 16.7744 24.3667 16.09H15.6333C15.5078 16.7733 15.4189 17.4289 15.3667 18.0567C15.3145 18.6833 15.2883 19.3311 15.2883 20C15.2883 20.6689 15.3145 21.3167 15.3667 21.9433C15.4189 22.57 15.5095 23.2256 15.635 23.91ZM26.0333 23.91H32.7567C32.9378 23.3333 33.0795 22.705 33.1817 22.025C33.2828 21.3439 33.3333 20.6689 33.3333 20C33.3333 19.3311 33.2828 18.6561 33.1817 17.975C33.0806 17.2939 32.9389 16.6656 32.7567 16.09H26.0317C26.1583 16.7733 26.2472 17.4394 26.2983 18.0883C26.3517 18.7372 26.3783 19.3744 26.3783 20C26.3783 20.6256 26.3522 21.2628 26.3 21.9117C26.2478 22.5606 26.1589 23.2272 26.0333 23.9117M25.6867 14.4233H32.0767C31.1 12.3078 29.7622 10.6078 28.0633 9.32333C26.3645 8.03889 24.3839 7.22167 22.1217 6.87167C22.8995 7.895 23.5989 9.06556 24.22 10.3833C24.8411 11.7 25.33 13.0467 25.6867 14.4233ZM16.0317 14.4233H23.9683C23.5283 12.8589 22.9856 11.4444 22.34 10.18C21.6945 8.91556 20.9145 7.74 20 6.65333C19.0856 7.73889 18.3056 8.91444 17.66 10.18C17.0145 11.4456 16.4706 12.86 16.0317 14.4233ZM7.92501 14.4233H14.315C14.6717 13.0478 15.1606 11.7011 15.7817 10.3833C16.4028 9.06556 17.1022 7.895 17.88 6.87167C15.5978 7.22278 13.6122 8.045 11.9233 9.33833C10.2345 10.6339 8.90112 12.3283 7.92334 14.4217" fill="#202838" fill-opacity="0.8"/>
</svg>
