<svg width="232" height="38" viewBox="0 0 232 38" fill="none" xmlns="http://www.w3.org/2000/svg">
<path d="M65.7593 18.2889L63.6761 17.7159C60.9718 16.9856 59.8686 16.0539 59.8686 14.4931C59.8686 12.4724 61.662 11.0831 64.2416 11.0831C66.8353 11.0831 68.5595 12.4436 68.7807 14.6645H71.2638C71.1532 11.1979 68.2839 8.76257 64.3249 8.76257C60.1857 8.76257 57.2885 11.1691 57.2885 14.6074C57.2885 17.4149 58.9163 19.0911 62.586 20.0652L65.1388 20.7531C67.8148 21.4699 68.9877 22.5436 68.9877 24.2916C68.9877 26.3258 67.0287 27.8012 64.3385 27.8012C61.4959 27.8012 59.4546 26.3258 59.2203 24.0902H56.723C56.9573 27.7435 59.8822 30.1217 64.1037 30.1217C68.6843 30.1217 71.5536 27.7582 71.5536 23.9759C71.5536 21.0111 69.8844 19.3632 65.7593 18.2889Z" fill="#202838"/>
<path d="M83.4832 26.0107H83.3731L76.5029 8.76257H73.6194V29.4349H75.9369V13.5048H76.0333L82.3795 29.2912H84.4769L90.823 13.5048H90.9195V29.4349H93.237V8.76257H90.354L83.4832 26.0107Z" fill="#202838"/>
<path d="M105.59 18.2895L103.507 17.7165C100.802 16.9862 99.6994 16.0545 99.6994 14.4937C99.6994 12.473 101.493 11.0837 104.072 11.0837C106.666 11.0837 108.39 12.4442 108.612 14.6651H111.095C110.984 11.1985 108.114 8.76318 104.155 8.76318C100.016 8.76318 97.1188 11.1697 97.1188 14.608C97.1188 17.4155 98.7472 19.0917 102.417 20.0658L104.969 20.7537C107.646 21.4705 108.819 22.5442 108.819 24.2922C108.819 26.3264 106.86 27.8018 104.169 27.8018C101.327 27.8018 99.2854 26.3264 99.0511 24.0908H96.5539C96.7881 27.7441 99.7125 30.1223 103.935 30.1223C108.515 30.1223 111.384 27.7588 111.384 23.9765C111.384 21.0117 109.715 19.3638 105.59 18.2895Z" fill="#202838"/>
<path d="M119.478 12.331H125.3V29.436H129.466V12.331H135.302V8.76367H119.478V12.331Z" fill="#202838"/>
<path d="M145.408 18.7341H141.753V12.1443H145.368C147.437 12.1443 148.734 13.4335 148.734 15.4389C148.734 17.4873 147.506 18.7341 145.408 18.7341ZM153.01 15.3529C153.01 11.2703 150.389 8.76367 145.809 8.76367H137.586V29.4354H141.753V21.8715H145.161L148.871 29.4354H153.59L149.396 21.226C151.685 20.296 153.01 18.0032 153.01 15.3529Z" fill="#202838"/>
<path d="M161.167 21.1837L163.72 12.7174H163.816L166.368 21.1837H161.167ZM161.388 8.76318L154.477 29.4355H158.753L160.27 24.4212H167.265L168.783 29.4355H173.211L166.285 8.76318H161.388Z" fill="#202838"/>
<path d="M176.208 29.435H180.375V21.2974H188.474V17.8738H180.375V12.3299H189.246V8.76318H176.208V29.435Z" fill="#202838"/>
<path d="M190.689 29.4354H194.856V21.2979H202.955V17.8743H194.856V12.3304H203.727V8.76367H190.689V29.4354Z" fill="#202838"/>
<path d="M210.542 8.76257H206.376V29.4343H210.542V8.76257Z" fill="#202838"/>
<path d="M227.741 22.616C227.299 25.0655 225.521 26.5697 223.051 26.5697C219.864 26.5697 217.863 23.8475 217.863 19.4356C217.863 15.0809 219.891 12.3446 223.037 12.3446C225.465 12.3446 227.341 14.0061 227.728 16.5421H231.784C231.466 11.9147 227.824 8.76318 223.037 8.76318C217.27 8.76318 213.614 12.7887 213.614 19.4498C213.614 26.1256 217.243 30.1511 223.037 30.1511C227.92 30.1511 231.328 27.2287 231.797 22.616H227.741Z" fill="#202838"/>
<path d="M31.5448 18.9948H41.4391H43.5501C43.5501 19.4756 43.4248 19.9565 43.1731 20.3819L33.1693 37.2974C32.9111 37.7336 32.4529 38 31.9599 38H20.6518C19.6058 38 18.9652 36.8092 19.5121 35.8837L29.3836 19.1934C29.4196 19.1323 29.4359 19.0638 29.4359 18.9948L29.4364 18.9886L31.5448 18.9948Z" fill="#4382C3"/>
<path d="M31.5448 19.0053H41.4391H43.5501C43.5501 18.5245 43.4248 18.0436 43.1731 17.6182L33.1693 0.702715C32.9111 0.266562 32.4529 0.000118256 31.9599 0.000118256H20.6518C19.6058 0.000118256 18.9652 1.19091 19.5121 2.1164L29.3836 18.8068C29.4196 18.8679 29.4359 18.9363 29.4359 19.0053L29.4364 19.0115L31.5448 19.0053Z" fill="#43A9DF"/>
<path d="M12.2324 18.9948H22.1267H24.2377C24.2377 19.4756 24.1124 19.9565 23.8608 20.3819L13.8569 37.2974C13.5987 37.7336 13.1405 38 12.6475 38H1.33945C0.29347 38 -0.347193 36.8092 0.199768 35.8837L10.0712 19.1934C10.1072 19.1323 10.1235 19.0638 10.1235 18.9948L10.1241 18.9886L12.2324 18.9948Z" fill="#4382C3"/>
<path d="M12.2324 19.0053H22.1267H24.2377C24.2377 18.5245 24.1124 18.0436 23.8608 17.6182L13.8569 0.702715C13.5987 0.266562 13.1405 0.000118256 12.6475 0.000118256H1.33945C0.29347 0.000118256 -0.347193 1.19091 0.199768 2.1164L10.0712 18.8068C10.1072 18.8679 10.1235 18.9363 10.1235 19.0053L10.1241 19.0115L12.2324 19.0053Z" fill="#43A9DF"/>
</svg>
