<svg width="25" height="25" viewBox="0 0 25 25" fill="none" xmlns="http://www.w3.org/2000/svg">
<path d="M8.33301 16.4069C8.54021 16.4069 8.73892 16.4892 8.88544 16.6357C9.03195 16.7822 9.11426 16.981 9.11426 17.1882C9.11426 17.3954 9.03195 17.5941 8.88544 17.7406C8.73892 17.8871 8.54021 17.9694 8.33301 17.9694H6.24967C6.04247 17.9694 5.84376 17.8871 5.69725 17.7406C5.55073 17.5941 5.46842 17.3954 5.46842 17.1882C5.46842 16.981 5.55073 16.7822 5.69725 16.6357C5.84376 16.4892 6.04247 16.4069 6.24967 16.4069H8.33301ZM15.1038 16.4069H10.9372C10.73 16.4069 10.5313 16.4892 10.3847 16.6357C10.2382 16.7822 10.1559 16.981 10.1559 17.1882C10.1559 17.3954 10.2382 17.5941 10.3847 17.7406C10.5313 17.8871 10.73 17.9694 10.9372 17.9694H15.1038C15.311 17.9694 15.5098 17.8871 15.6563 17.7406C15.8028 17.5941 15.8851 17.3954 15.8851 17.1882C15.8851 16.981 15.8028 16.7822 15.6563 16.6357C15.5098 16.4892 15.311 16.4069 15.1038 16.4069ZM22.9163 13.8319C22.7091 13.8319 22.5104 13.9142 22.3639 14.0607C22.2174 14.2072 22.1351 14.406 22.1351 14.6132V16.7788C22.1351 20.0079 21.5591 20.5736 18.2872 20.5736H6.71217C3.43717 20.5736 2.86426 20.0007 2.86426 16.7788V9.63607H15.1038C15.311 9.63607 15.5098 9.55376 15.6563 9.40725C15.8028 9.26073 15.8851 9.06202 15.8851 8.85482C15.8851 8.64762 15.8028 8.4489 15.6563 8.30239C15.5098 8.15588 15.311 8.07357 15.1038 8.07357H2.86634C2.88509 4.98294 3.49134 4.42773 6.71217 4.42773H15.1038C15.311 4.42773 15.5098 4.34542 15.6563 4.19891C15.8028 4.0524 15.8851 3.85368 15.8851 3.64648C15.8851 3.43928 15.8028 3.24057 15.6563 3.09406C15.5098 2.94754 15.311 2.86523 15.1038 2.86523H6.71217C2.56634 2.86523 1.30176 4.11523 1.30176 8.22253V16.7788C1.30176 20.884 2.56634 22.1361 6.71217 22.1361H18.2872C22.433 22.1361 23.6976 20.8861 23.6976 16.7788V14.6132C23.6976 14.406 23.6153 14.2072 23.4688 14.0607C23.3223 13.9142 23.1235 13.8319 22.9163 13.8319Z" fill="#202838"/>
<path d="M23.4687 8.36523L21.3853 10.4486C21.239 10.5951 21.0404 10.6776 20.8332 10.6777C20.7312 10.6789 20.6301 10.6587 20.5364 10.6184C20.4509 10.5824 20.3732 10.5304 20.3072 10.4652C20.2999 10.4579 20.2905 10.4559 20.2832 10.4486L18.1999 8.36523C18.0619 8.21714 17.9868 8.02125 17.9904 7.81886C17.9939 7.61646 18.0759 7.42335 18.2191 7.28021C18.3622 7.13707 18.5553 7.05508 18.7577 7.05151C18.9601 7.04794 19.156 7.12307 19.3041 7.26107L20.0541 8.01003V3.64648C20.0541 3.43928 20.1364 3.24057 20.2829 3.09406C20.4294 2.94754 20.6281 2.86523 20.8353 2.86523C21.0425 2.86523 21.2412 2.94754 21.3878 3.09406C21.5343 3.24057 21.6166 3.43928 21.6166 3.64648V8.01003L22.3666 7.26107C22.5147 7.12307 22.7106 7.04794 22.913 7.05151C23.1154 7.05508 23.3085 7.13707 23.4516 7.28021C23.5947 7.42335 23.6767 7.61646 23.6803 7.81886C23.6839 8.02125 23.6087 8.21714 23.4707 8.36523H23.4687Z" fill="#0076E2"/>
</svg>
