<svg width="24" height="24" viewBox="0 0 24 24" fill="none" xmlns="http://www.w3.org/2000/svg">
<g clip-path="url(#clip0_33_1780)">
<path d="M12 24C18.6274 24 24 18.6274 24 12C24 5.37258 18.6274 0 12 0C5.37258 0 0 5.37258 0 12C0 18.6274 5.37258 24 12 24Z" fill="#F96600"/>
<path d="M11.2623 15.0654C10.0991 14.9441 9.05049 14.6564 8.15321 13.9554C8.0414 13.8682 7.92685 13.7836 7.82458 13.6827C7.43185 13.305 7.39231 12.8727 7.70321 12.4282C7.96912 12.0464 8.41503 11.9441 8.88003 12.1636C8.96932 12.2088 9.05503 12.2608 9.1364 12.3191C9.9679 12.8842 10.948 13.1907 11.9533 13.1999C12.9586 13.2091 13.9442 12.9207 14.7859 12.3709C14.9469 12.2407 15.1324 12.1442 15.3314 12.0873C15.5165 12.0325 15.7146 12.0416 15.894 12.1131C16.0733 12.1846 16.2233 12.3143 16.32 12.4814C16.5655 12.8823 16.5628 13.2723 16.26 13.5832C15.796 14.0525 15.2353 14.415 14.6169 14.6454C14.0148 14.8618 13.3882 15.0024 12.7514 15.0641C12.8469 15.1691 12.8878 15.2195 12.9532 15.2795C13.8164 16.1482 14.6837 17.0127 15.5441 17.8827C15.6812 18.0073 15.7742 18.1731 15.8091 18.355C15.844 18.5369 15.819 18.7253 15.7378 18.8918C15.655 19.0743 15.5204 19.2284 15.3506 19.3349C15.1809 19.4414 14.9835 19.4955 14.7832 19.4904C14.5489 19.4674 14.332 19.3563 14.1764 19.1795C13.5246 18.5236 12.8605 17.88 12.2223 17.2118C12.0369 17.0182 11.9496 17.055 11.7832 17.2227C11.1273 17.9045 10.4605 18.5632 9.79094 19.2232C9.66663 19.361 9.50005 19.4535 9.3174 19.4864C9.13475 19.5192 8.94637 19.4904 8.78185 19.4045C8.6036 19.3213 8.45319 19.1883 8.34869 19.0217C8.24419 18.855 8.19004 18.6617 8.19276 18.465C8.21259 18.2219 8.32601 17.9961 8.50912 17.835C9.36549 16.9814 10.2191 16.1273 11.07 15.2727C11.1273 15.2141 11.1819 15.1527 11.2623 15.0654Z" fill="white"/>
<path d="M11.97 12.0927C11.218 12.0883 10.4843 11.8607 9.86187 11.4387C9.23943 11.0167 8.75633 10.4194 8.47384 9.72247C8.19135 9.02555 8.12221 8.26043 8.27517 7.52416C8.42813 6.78788 8.79631 6.11362 9.33301 5.58689C9.86971 5.06016 10.5508 4.70468 11.2898 4.56555C12.0288 4.42641 12.7925 4.50989 13.484 4.80539C14.1755 5.10089 14.7636 5.5951 15.1739 6.22534C15.5841 6.85558 15.7979 7.59346 15.7882 8.34539C15.7746 9.34728 15.3657 10.3032 14.6505 11.005C13.9354 11.7069 12.972 12.0978 11.97 12.0927ZM13.8559 8.29221C13.8549 7.92465 13.7447 7.56567 13.5395 7.26073C13.3343 6.95579 13.0432 6.7186 12.7031 6.5792C12.363 6.43979 11.9892 6.40443 11.629 6.47759C11.2688 6.55076 10.9384 6.72916 10.6796 6.99021C10.4208 7.25127 10.2454 7.58323 10.1754 7.94407C10.1054 8.30491 10.1441 8.6784 10.2865 9.01726C10.4289 9.35611 10.6686 9.6451 10.9753 9.84762C11.2821 10.0501 11.642 10.1571 12.0096 10.1549C12.2533 10.1544 12.4945 10.1057 12.7193 10.0117C12.9441 9.91774 13.1482 9.78025 13.3198 9.60717C13.4913 9.43409 13.627 9.22883 13.719 9.00317C13.811 8.77751 13.8576 8.5359 13.8559 8.29221Z" fill="white"/>
</g>
<defs>
<clipPath id="clip0_33_1780">
<rect width="24" height="24" fill="white"/>
</clipPath>
</defs>
</svg>
