<svg width="25" height="25" viewBox="0 0 25 25" fill="none" xmlns="http://www.w3.org/2000/svg">
<path d="M19.549 3.54161L14.3458 1.59474C13.146 1.20605 11.854 1.20605 10.6542 1.59474L5.45104 3.54161C4.6809 3.86475 4.01904 4.40109 3.54332 5.08755C3.0676 5.77401 2.79779 6.58204 2.76562 7.41661V15.1562C2.8044 15.9677 3.01225 16.7621 3.37585 17.4885C3.73944 18.215 4.25078 18.8575 4.87708 19.3749L9.35625 22.7197C10.2726 23.3744 11.3739 23.7196 12.5 23.7052C13.6274 23.7196 14.7299 23.3737 15.6469 22.7177L20.126 19.3729C20.7516 18.8562 21.2625 18.2146 21.626 17.4893C21.9896 16.764 22.1979 15.9707 22.2375 15.1604V7.42078C22.2059 6.58514 21.9359 5.77597 21.4596 5.08866C20.9832 4.40136 20.3203 3.86458 19.549 3.54161ZM20.6719 15.1562C20.6334 15.7247 20.4823 16.2799 20.2275 16.7895C19.9727 17.2991 19.6192 17.7531 19.1875 18.1249L14.7083 21.4687C14.0543 21.9076 13.2845 22.1419 12.4969 22.1419C11.7093 22.1419 10.9394 21.9076 10.2854 21.4687L5.8125 18.1249C5.38177 17.754 5.02882 17.3014 4.77404 16.7933C4.51926 16.2852 4.3677 15.7316 4.32813 15.1645V7.42078C4.3619 6.90568 4.53473 6.40939 4.82823 5.98474C5.12172 5.56009 5.52488 5.22298 5.99479 5.00932L11.1969 3.05828C12.0428 2.79954 12.9468 2.79954 13.7927 3.05828L19 5.00932C19.4709 5.22225 19.8751 5.55904 20.1696 5.98374C20.464 6.40845 20.6376 6.90512 20.6719 7.42078V15.1562Z" fill="#202838"/>
<path d="M12.4281 12.1573H12.524C13.2502 12.1447 13.942 11.8457 14.4488 11.3255C14.9556 10.8053 15.2364 10.1059 15.2301 9.37962C15.2238 8.65335 14.9309 7.95897 14.4151 7.44764C13.8993 6.93631 13.2024 6.64941 12.476 6.64941C11.7497 6.64941 11.0529 6.93631 10.537 7.44764C10.0212 7.95897 9.72831 8.65335 9.72199 9.37962C9.71567 10.1059 9.99649 10.8053 10.5033 11.3255C11.0101 11.8457 11.7019 12.1447 12.4281 12.1573ZM12.4281 8.49587C12.6996 8.49762 12.9598 8.60422 13.1545 8.79339C13.3492 8.98255 13.4632 9.23964 13.4728 9.51092C13.4823 9.7822 13.3867 10.0467 13.2058 10.2491C13.0249 10.4514 12.7727 10.5761 12.5021 10.5969C12.4631 10.5913 12.4234 10.5913 12.3844 10.5969C12.1121 10.5888 11.8539 10.4743 11.665 10.278C11.4761 10.0817 11.3717 9.81929 11.374 9.54691C11.3751 9.26724 11.4872 8.99944 11.6856 8.80236C11.8841 8.60528 12.1526 8.49504 12.4323 8.49587H12.4281ZM15 13.6459C14.2462 13.1889 13.3815 12.9473 12.5 12.9473C11.6185 12.9473 10.7538 13.1889 10 13.6459C9.67657 13.8411 9.40697 14.114 9.21562 14.4398C9.02427 14.7656 8.91722 15.1339 8.90417 15.5115C8.91834 15.8871 9.02596 16.2533 9.2173 16.5769C9.40865 16.9005 9.67767 17.1712 10 17.3646C10.747 17.8377 11.6159 18.0824 12.5 18.0688C13.3842 18.0821 14.2531 17.837 15 17.3636C15.3234 17.1683 15.5931 16.8954 15.7844 16.5697C15.9758 16.2439 16.0828 15.8755 16.0958 15.498C16.0815 15.1225 15.9738 14.7565 15.7825 14.4331C15.5911 14.1098 15.3222 13.8392 15 13.6459ZM14.1313 16.0709C13.6343 16.3576 13.0706 16.5085 12.4969 16.5085C11.9231 16.5085 11.3595 16.3576 10.8625 16.0709C10.7563 16.0156 10.6645 15.9361 10.5949 15.8387C10.5252 15.7413 10.4795 15.6288 10.4615 15.5105C10.479 15.3915 10.5245 15.2784 10.5942 15.1804C10.6639 15.0825 10.7559 15.0025 10.8625 14.9469C11.3604 14.6619 11.9242 14.5119 12.4979 14.5119C13.0717 14.5119 13.6354 14.6619 14.1333 14.9469C14.2395 15.002 14.3311 15.0814 14.4008 15.1786C14.4705 15.2758 14.5162 15.3881 14.5344 15.5063C14.5162 15.6245 14.4705 15.7368 14.4008 15.8339C14.3311 15.9311 14.2395 16.0105 14.1333 16.0657L14.1313 16.0709Z" fill="#0076E2"/>
</svg>
