<svg width="25" height="25" viewBox="0 0 25 25" fill="none" xmlns="http://www.w3.org/2000/svg">
<path d="M19.549 3.54153L14.3406 1.59049C13.1414 1.20226 11.8503 1.20226 10.651 1.59049L5.45104 3.54153C4.6809 3.86467 4.01904 4.40101 3.54332 5.08747C3.0676 5.77393 2.79779 6.58196 2.76562 7.41653V15.1561C2.8044 15.9676 3.01225 16.762 3.37585 17.4885C3.73944 18.2149 4.25078 18.8575 4.87708 19.3749L9.35625 22.7197C10.2726 23.3743 11.3739 23.7195 12.5 23.7051C13.6276 23.72 14.7304 23.3736 15.6469 22.7165L20.126 19.3728C20.7516 18.8561 21.2625 18.2146 21.626 17.4892C21.9896 16.7639 22.1979 15.9707 22.2375 15.1603V7.4207C22.2059 6.58506 21.9359 5.77589 21.4596 5.08859C20.9832 4.40128 20.3203 3.86451 19.549 3.54153ZM20.6719 15.1561C20.6334 15.7246 20.4823 16.2798 20.2275 16.7894C19.9727 17.299 19.6192 17.753 19.1875 18.1249L14.7083 21.4686C14.0538 21.9062 13.2842 22.1397 12.4969 22.1397C11.7096 22.1397 10.9399 21.9062 10.2854 21.4686L5.8125 18.1249C5.38177 17.7539 5.02882 17.3013 4.77404 16.7932C4.51926 16.2851 4.3677 15.7315 4.32813 15.1644V7.4207C4.36247 6.90494 4.53624 6.40818 4.83088 5.98347C5.12552 5.55876 5.52997 5.22203 6.00104 5.00924L11.2021 3.0582C12.0477 2.79967 12.9513 2.79967 13.7969 3.0582L18.999 5.00924C19.47 5.22203 19.8745 5.55876 20.1691 5.98347C20.4638 6.40818 20.6375 6.90494 20.6719 7.4207V15.1561Z" fill="#202838"/>
<path d="M16.1292 10.1226L11.65 14.6018C11.5775 14.6744 11.4913 14.732 11.3965 14.7713C11.3017 14.8106 11.2 14.8308 11.0974 14.8308C10.9948 14.8308 10.8931 14.8106 10.7983 14.7713C10.7035 14.732 10.6174 14.6744 10.5448 14.6018L8.87085 12.9164C8.7962 12.8443 8.73664 12.7582 8.69565 12.6629C8.65466 12.5676 8.63306 12.4651 8.63211 12.3613C8.63116 12.2576 8.65088 12.1547 8.69012 12.0587C8.72935 11.9626 8.78732 11.8754 8.86064 11.802C8.93396 11.7286 9.02116 11.6706 9.11715 11.6312C9.21315 11.5919 9.31601 11.5721 9.41975 11.5729C9.52348 11.5738 9.62601 11.5953 9.72134 11.6362C9.81668 11.6771 9.90291 11.7366 9.97501 11.8112L11.1011 12.9372L15.025 9.01428C15.0965 8.93752 15.1828 8.87596 15.2786 8.83326C15.3745 8.79056 15.4779 8.7676 15.5828 8.76575C15.6877 8.7639 15.7919 8.78319 15.8892 8.82249C15.9865 8.86178 16.0748 8.92026 16.149 8.99445C16.2232 9.06863 16.2817 9.157 16.321 9.25428C16.3603 9.35156 16.3796 9.45576 16.3777 9.56066C16.3759 9.66556 16.3529 9.76901 16.3102 9.86484C16.2675 9.96067 16.2059 10.0469 16.1292 10.1184V10.1226Z" fill="#0076E2"/>
</svg>
