<svg width="25" height="25" viewBox="0 0 25 25" fill="none" xmlns="http://www.w3.org/2000/svg">
<path d="M22.5667 7.01148C22.5422 6.40131 22.3491 5.80986 22.0087 5.30287C21.6683 4.79588 21.194 4.3932 20.6385 4.1396L14.8354 1.76252C13.3396 1.14557 11.6604 1.14557 10.1646 1.76252L4.36145 4.13856C3.80631 4.39306 3.33233 4.79608 2.99188 5.30307C2.65143 5.81007 2.45777 6.40131 2.43228 7.01148V11.5802C2.49006 14.3195 3.42832 16.9673 5.10817 19.1317C6.78802 21.2962 9.12017 22.8622 11.7594 23.5979C12.2446 23.7305 12.7564 23.7305 13.2417 23.5979C15.8807 22.862 18.2126 21.2959 19.8922 19.1315C21.5719 16.967 22.51 14.3193 22.5677 11.5802L22.5667 7.01148ZM12.826 22.0917C12.6128 22.1492 12.3882 22.1492 12.175 22.0917C9.86328 21.4507 7.81944 20.0823 6.34612 18.1891C4.87279 16.2959 4.04832 13.9786 3.99478 11.5802V7.01148C4.01813 6.71136 4.11851 6.42234 4.2862 6.17235C4.4539 5.92235 4.68324 5.71985 4.95207 5.5844L10.7573 3.20835C11.8733 2.7471 13.1267 2.7471 14.2427 3.20835L20.0469 5.58544C20.3162 5.71998 20.546 5.92211 20.7138 6.17207C20.8816 6.42204 20.9816 6.71127 21.0042 7.01148V11.5802C20.9507 13.9783 20.1266 16.2954 18.6537 18.1886C17.1807 20.0818 15.1374 21.4503 12.826 22.0917Z" fill="#202838"/>
<path d="M15.3646 10.9374C15.367 10.404 15.2205 9.88041 14.9415 9.42574C14.6624 8.97107 14.2619 8.60336 13.7852 8.36403C13.3084 8.1247 12.7743 8.02326 12.2429 8.07113C11.7116 8.11901 11.2042 8.3143 10.7779 8.635C10.3516 8.95571 10.0233 9.38909 9.83006 9.88631C9.63678 10.3835 9.58619 10.9249 9.68398 11.4493C9.78178 11.9737 10.0241 12.4604 10.3836 12.8546C10.7431 13.2487 11.2055 13.5346 11.7187 13.6801V16.1458C11.7187 16.353 11.8011 16.5517 11.9476 16.6982C12.0941 16.8447 12.2928 16.927 12.5 16.927C12.7072 16.927 12.9059 16.8447 13.0524 16.6982C13.1989 16.5517 13.2812 16.353 13.2812 16.1458V13.6801C13.8794 13.5115 14.4063 13.1525 14.7822 12.6577C15.1581 12.1628 15.3625 11.5589 15.3646 10.9374ZM12.5 12.2395C12.2425 12.2395 11.9907 12.1631 11.7766 12.0201C11.5625 11.877 11.3956 11.6736 11.297 11.4357C11.1985 11.1978 11.1727 10.936 11.2229 10.6834C11.2732 10.4308 11.3972 10.1988 11.5793 10.0167C11.7614 9.83462 11.9934 9.71061 12.246 9.66036C12.4985 9.61012 12.7604 9.63591 12.9983 9.73446C13.2362 9.83301 13.4396 9.9999 13.5826 10.214C13.7257 10.4282 13.8021 10.6799 13.8021 10.9374C13.8021 11.2828 13.6649 11.614 13.4207 11.8581C13.1765 12.1023 12.8453 12.2395 12.5 12.2395Z" fill="#0076E2"/>
</svg>
