<svg width="25" height="25" viewBox="0 0 25 25" fill="none" xmlns="http://www.w3.org/2000/svg">
<path d="M12.5017 7.98438C11.6094 7.98438 10.7372 8.24897 9.99526 8.74469C9.25336 9.24042 8.67511 9.94501 8.33365 10.7694C7.99219 11.5937 7.90285 12.5008 8.07692 13.376C8.251 14.2511 8.68067 15.055 9.31161 15.6859C9.94255 16.3169 10.7464 16.7465 11.6216 16.9206C12.4967 17.0947 13.4038 17.0053 14.2282 16.6639C15.0525 16.3224 15.7571 15.7442 16.2528 15.0023C16.7486 14.2604 17.0132 13.3881 17.0132 12.4958C17.0118 11.2997 16.536 10.153 15.6903 9.30727C14.8445 8.46151 13.6978 7.98575 12.5017 7.98438ZM12.5017 15.4448C11.9184 15.4448 11.3483 15.2718 10.8633 14.9478C10.3784 14.6238 10.0004 14.1632 9.77721 13.6244C9.55401 13.0855 9.49561 12.4926 9.6094 11.9205C9.72319 11.3485 10.004 10.823 10.4165 10.4106C10.8289 9.99819 11.3543 9.71732 11.9264 9.60354C12.4984 9.48975 13.0914 9.54815 13.6302 9.77135C14.1691 9.99455 14.6296 10.3725 14.9537 10.8575C15.2777 11.3424 15.4507 11.9126 15.4507 12.4958C15.4498 13.2777 15.1389 14.0273 14.586 14.5801C14.0332 15.133 13.2836 15.444 12.5017 15.4448Z" fill="#0076E2"/>
<path d="M22.6519 9.37344C20.105 5.3901 16.4112 3.10365 12.5008 3.10156C8.59458 3.10156 4.89666 5.39323 2.35396 9.37552C1.81344 10.3283 1.5293 11.4051 1.5293 12.5005C1.5293 13.596 1.81344 14.6727 2.35396 15.6255C4.89666 19.6068 8.59041 21.8932 12.5008 21.8953C16.4071 21.8953 20.105 19.6036 22.6477 15.6214C23.1885 14.6691 23.4731 13.593 23.4739 12.4979C23.4746 11.4029 23.1914 10.3264 22.6519 9.37344ZM21.3342 14.7807C19.0831 18.3089 15.8644 20.3328 12.5008 20.3328C9.13729 20.3328 5.91854 18.3089 3.6675 14.7807C3.28604 14.0805 3.08617 13.2958 3.08617 12.4984C3.08617 11.701 3.28604 10.9164 3.6675 10.2161C5.91854 6.68802 9.13729 4.66406 12.5008 4.66406C15.8644 4.66406 19.0831 6.68802 21.3342 10.2161C21.7156 10.9164 21.9155 11.701 21.9155 12.4984C21.9155 13.2958 21.7156 14.0805 21.3342 14.7807Z" fill="#202838"/>
</svg>
