<svg width="25" height="25" viewBox="0 0 25 25" fill="none" xmlns="http://www.w3.org/2000/svg">
<g clip-path="url(#clip0_365_22976)">
<mask id="mask0_365_22976" style="mask-type:luminance" maskUnits="userSpaceOnUse" x="0" y="0" width="25" height="25">
<path d="M25 0H0V25H25V0Z" fill="white"/>
</mask>
<g mask="url(#mask0_365_22976)">
<path d="M19.9781 4.24704C18.4149 1.62736 15.5467 0 12.4929 0C10.9289 0 9.38867 0.425762 8.03867 1.23115C3.91571 3.69124 2.5628 9.04712 5.02289 13.1703L11.8667 24.6403C11.9322 24.75 12.025 24.8408 12.1361 24.9039C12.2472 24.9669 12.3727 25.0001 12.5004 25.0001C12.6282 25.0001 12.7538 24.9669 12.8648 24.9039C12.9759 24.8408 13.0687 24.75 13.1342 24.6403L19.9788 13.1688C21.6163 10.4106 21.6158 6.99199 19.9781 4.24704ZM18.7106 12.414L12.5006 22.8218L6.29042 12.414C4.24727 8.98975 5.37089 4.54177 8.79506 2.49862C9.91635 1.82961 11.195 1.47589 12.493 1.47589C15.0298 1.47589 17.4123 2.82753 18.7106 5.00327C20.0708 7.28301 20.0705 10.1231 18.7106 12.414Z" fill="#202838"/>
<path d="M12.4993 4.33594C10.1261 4.33594 8.19531 6.26673 8.19531 8.64002C8.19531 11.0133 10.1261 12.944 12.4993 12.944C14.8725 12.944 16.8033 11.0133 16.8033 8.64002C16.8033 6.26673 14.8725 4.33594 12.4993 4.33594ZM12.4993 11.468C10.9399 11.468 9.67134 10.1994 9.67134 8.64007C9.67134 7.08064 10.9399 5.81194 12.4993 5.81194C14.0587 5.81194 15.3274 7.08064 15.3274 8.64007C15.3274 10.1993 14.0587 11.468 12.4993 11.468Z" fill="#0076E2"/>
</g>
</g>
<defs>
<clipPath id="clip0_365_22976">
<rect width="25" height="25" fill="white"/>
</clipPath>
</defs>
</svg>
