<svg width="25" height="25" viewBox="0 0 25 25" fill="none" xmlns="http://www.w3.org/2000/svg">
<path d="M18.4896 1.3022H9.63541C8.94294 1.27016 8.25139 1.38295 7.60498 1.63336C6.95857 1.88376 6.37152 2.26628 5.88134 2.75646C5.39116 3.24664 5.00864 3.83369 4.75823 4.4801C4.50783 5.12651 4.39504 5.81806 4.42708 6.51053V9.39595C4.42917 9.50434 4.45338 9.61116 4.49823 9.70986C4.54308 9.80856 4.60762 9.89706 4.68789 9.96992C4.76817 10.0428 4.86248 10.0985 4.96505 10.1336C5.06762 10.1687 5.17628 10.1825 5.28437 10.1741C5.39479 10.1657 5.50625 10.1564 5.625 10.1564H12.6979C13.068 10.1265 13.4402 10.1774 13.7886 10.3055C14.1371 10.4337 14.4536 10.6361 14.7161 10.8986C14.9786 11.1611 15.181 11.4776 15.3092 11.8261C15.4373 12.1745 15.4882 12.5467 15.4583 12.9168V17.1564C15.4613 17.4376 15.4262 17.7179 15.3542 17.9897C15.3079 18.1497 15.314 18.3203 15.3715 18.4765C15.4291 18.6328 15.535 18.7666 15.674 18.8585L16.676 19.5199C16.9499 19.7049 17.2726 19.8042 17.6031 19.8053C18.0455 19.8037 18.4693 19.6268 18.7816 19.3135C19.094 19.0002 19.2695 18.5759 19.2698 18.1335V16.9845C20.3908 16.8679 21.4395 16.376 22.2458 15.5887C22.7262 15.0892 23.1021 14.4988 23.3514 13.8522C23.6008 13.2056 23.7186 12.5157 23.6979 11.823V6.51053C23.73 5.81806 23.6172 5.12651 23.3668 4.4801C23.1164 3.83369 22.7338 3.24664 22.2437 2.75646C21.7535 2.26628 21.1664 1.88376 20.52 1.63336C19.8736 1.38295 19.1821 1.27016 18.4896 1.3022ZM22.1354 11.823C22.1574 12.3096 22.081 12.7955 21.911 13.2519C21.741 13.7083 21.4808 14.1257 21.1458 14.4793C20.7925 14.8131 20.3756 15.0725 19.92 15.242C19.4644 15.4114 18.9794 15.4875 18.4937 15.4657C18.2865 15.4657 18.0878 15.5481 17.9413 15.6946C17.7948 15.8411 17.7125 16.0398 17.7125 16.247V18.1355C17.7131 18.1556 17.708 18.1754 17.6976 18.1926C17.6873 18.2098 17.6722 18.2236 17.6542 18.2324L16.9792 17.848C17.0098 17.6188 17.0251 17.3877 17.025 17.1564V12.9168C17.0517 12.342 16.9582 11.768 16.7504 11.2314C16.5426 10.6948 16.2251 10.2075 15.8182 9.80064C15.4113 9.39377 14.924 9.07629 14.3875 8.86849C13.8509 8.66069 13.2769 8.56716 12.7021 8.59387H5.98958V6.51053C5.95562 6.02301 6.02664 5.53387 6.19785 5.07614C6.36906 4.61841 6.63647 4.20273 6.98204 3.85716C7.32761 3.51159 7.74328 3.24418 8.20102 3.07297C8.65875 2.90176 9.14789 2.83074 9.63541 2.8647H18.4896C18.9771 2.83074 19.4662 2.90176 19.924 3.07297C20.3817 3.24418 20.7974 3.51159 21.143 3.85716C21.4885 4.20273 21.7559 4.61841 21.9271 5.07614C22.0984 5.53387 22.1694 6.02301 22.1354 6.51053V11.823Z" fill="#202838"/>
<path d="M12.6979 8.5943H5.62497C5.46455 8.5943 5.31247 8.60472 5.13538 8.61826C4.06096 8.69067 3.05775 9.18141 2.34107 9.98515C1.62439 10.7889 1.25136 11.8416 1.30205 12.9172V17.1568C1.2842 17.732 1.38195 18.305 1.5895 18.8418C1.79705 19.3785 2.11019 19.8682 2.51038 20.2818C3.1472 20.8998 3.96466 21.2983 4.84372 21.4193V22.2078C4.84317 22.4031 4.88112 22.5965 4.95539 22.7771C5.02967 22.9577 5.13881 23.1218 5.27658 23.2601C5.41434 23.3985 5.57803 23.5083 5.75828 23.5834C5.93853 23.6584 6.13181 23.6972 6.32705 23.6974C6.62162 23.6973 6.90924 23.608 7.15205 23.4412L10.1041 21.4797H12.6979C13.6375 21.5325 14.5663 21.2566 15.3247 20.6993C16.0831 20.142 16.6238 19.3381 16.8541 18.4256C16.9687 18.0125 17.0248 17.5854 17.0208 17.1568V12.9172C17.0475 12.3424 16.954 11.7684 16.7462 11.2318C16.5384 10.6953 16.2209 10.208 15.814 9.80108C15.4072 9.39421 14.9198 9.07672 14.3833 8.86892C13.8467 8.66113 13.2727 8.56759 12.6979 8.5943ZM15.4583 17.1568C15.4614 17.4477 15.4239 17.7377 15.3468 18.0183C15.2054 18.5993 14.8604 19.1104 14.3744 19.4588C13.8884 19.8072 13.2936 19.9698 12.6979 19.9172H9.86455C9.71067 19.9174 9.56029 19.9631 9.43226 20.0485L6.41143 22.062V20.6985C6.41143 20.4913 6.32912 20.2926 6.1826 20.146C6.03609 19.9995 5.83738 19.9172 5.63018 19.9172C5.26287 19.934 4.89592 19.8772 4.55086 19.7502C4.2058 19.6232 3.88959 19.4285 3.6208 19.1776C3.36742 18.9077 3.17048 18.59 3.04151 18.2429C2.91254 17.8959 2.85415 17.5267 2.86976 17.1568V12.9172C2.84048 12.577 2.88044 12.2344 2.98722 11.91C3.09399 11.5856 3.26537 11.2863 3.49102 11.0299C3.71667 10.7736 3.99191 10.5657 4.30012 10.4187C4.60834 10.2716 4.94315 10.1886 5.28434 10.1745C5.39476 10.1662 5.50622 10.1568 5.62497 10.1568H12.6979C13.068 10.1269 13.4401 10.1778 13.7886 10.306C14.1371 10.4341 14.4535 10.6365 14.7161 10.899C14.9786 11.1616 15.181 11.478 15.3091 11.8265C15.4373 12.175 15.4882 12.5471 15.4583 12.9172V17.1568Z" fill="#0076E2"/>
</svg>
