<svg width="25" height="25" viewBox="0 0 25 25" fill="none" xmlns="http://www.w3.org/2000/svg">
<path d="M15.625 1.30273H9.37504C3.71671 1.30273 1.30212 3.71732 1.30212 9.37565V15.6257C1.30212 21.284 3.71671 23.6986 9.37504 23.6986H15.625C21.2834 23.6986 23.698 21.284 23.698 15.6257V9.37565C23.698 3.71732 21.2834 1.30273 15.625 1.30273ZM9.37504 2.86523H15.625C20.4313 2.86523 22.1355 4.5694 22.1355 9.37565V12.7611H18.9959C18.4636 12.7598 17.9416 12.9074 17.4887 13.1872C17.0359 13.467 16.6704 13.8678 16.4334 14.3444L15.5021 16.2079C15.395 16.425 15.229 16.6076 15.023 16.7348C14.8171 16.8621 14.5796 16.9289 14.3375 16.9277H10.6625C10.4184 16.9396 10.1764 16.8772 9.96847 16.7487C9.76055 16.6202 9.59649 16.4316 9.49796 16.2079L8.56671 14.3465C8.32964 13.8702 7.96419 13.4697 7.51158 13.1901C7.05898 12.9105 6.53724 12.763 6.00525 12.7642H2.86462V9.37565C2.86462 4.5694 4.56879 2.86523 9.37504 2.86523ZM15.625 22.1361H9.37504C4.56879 22.1361 2.86462 20.4319 2.86462 15.6257V14.3246H6.00421C6.24627 14.3234 6.4838 14.3903 6.68971 14.5175C6.89562 14.6448 7.06162 14.8274 7.16879 15.0444L8.10004 16.9048C8.32684 17.3894 8.69007 17.7973 9.14523 18.0785C9.60038 18.3598 10.1277 18.5021 10.6625 18.4882H14.3375C14.8698 18.4894 15.3919 18.3418 15.8447 18.0621C16.2975 17.7823 16.663 17.3814 16.9 16.9048L17.8313 15.0413C17.9385 14.8242 18.1045 14.6417 18.3104 14.5144C18.5163 14.3871 18.7538 14.3203 18.9959 14.3215H22.1355V15.6257C22.1355 20.4319 20.4313 22.1361 15.625 22.1361Z" fill="#202838"/>
<path d="M16.497 7.35699L12.0178 11.8362C11.9453 11.9088 11.8591 11.9663 11.7643 12.0056C11.6695 12.0449 11.5678 12.0652 11.4652 12.0652C11.3626 12.0652 11.2609 12.0449 11.1661 12.0056C11.0713 11.9663 10.9852 11.9088 10.9126 11.8362L9.23865 10.1507C9.16399 10.0787 9.10444 9.99253 9.06345 9.89723C9.02246 9.80193 9.00086 9.69943 8.99991 9.5957C8.99896 9.49196 9.01868 9.38908 9.05792 9.29305C9.09715 9.19702 9.15512 9.10976 9.22844 9.03638C9.30176 8.96299 9.38896 8.90494 9.48495 8.86561C9.58095 8.82628 9.68381 8.80647 9.78755 8.80732C9.89128 8.80817 9.9938 8.82967 10.0891 8.87057C10.1845 8.91147 10.2707 8.97095 10.3428 9.04553L11.4689 10.1716L15.3928 6.24866C15.4643 6.1719 15.5506 6.11033 15.6464 6.06763C15.7423 6.02493 15.8457 6.00197 15.9506 6.00012C16.0555 5.99827 16.1597 6.01757 16.257 6.05686C16.3543 6.09615 16.4426 6.15464 16.5168 6.22882C16.591 6.30301 16.6495 6.39138 16.6888 6.48866C16.7281 6.58594 16.7474 6.69013 16.7455 6.79503C16.7437 6.89993 16.7207 7.00338 16.678 7.09922C16.6353 7.19505 16.5737 7.2813 16.497 7.35282V7.35699Z" fill="#0076E2"/>
</svg>
