<svg width="25" height="25" viewBox="0 0 25 25" fill="none" xmlns="http://www.w3.org/2000/svg">
<path d="M15.625 1.30273H9.37504C3.71567 1.30273 1.30212 3.71732 1.30212 9.37565V15.6257C1.30212 21.284 3.71567 23.6986 9.37504 23.6986H15.625C21.2844 23.6986 23.698 21.284 23.698 15.6257V9.37565C23.698 3.71732 21.2844 1.30273 15.625 1.30273ZM22.1355 15.6257C22.1355 20.4319 20.4313 22.1361 15.625 22.1361H9.37504C4.56879 22.1361 2.86462 20.4319 2.86462 15.6257V9.37565C2.86462 4.5694 4.56879 2.86523 9.37504 2.86523H15.625C20.4313 2.86523 22.1355 4.5694 22.1355 9.37565V15.6257Z" fill="#202838"/>
<path d="M12.524 11.5079H12.6198C13.346 11.4953 14.0378 11.1963 14.5446 10.6761C15.0514 10.1558 15.3323 9.45648 15.3259 8.73021C15.3196 8.00394 15.0267 7.30956 14.5109 6.79822C13.9951 6.28689 13.2982 6 12.5719 6C11.8456 6 11.1487 6.28689 10.6329 6.79822C10.1171 7.30956 9.82413 8.00394 9.81781 8.73021C9.81149 9.45648 10.0923 10.1558 10.5991 10.6761C11.106 11.1963 11.7978 11.4953 12.524 11.5079ZM12.524 7.84646C12.7954 7.84821 13.0557 7.95481 13.2503 8.14397C13.445 8.33314 13.5591 8.59023 13.5686 8.86151C13.5782 9.13279 13.4825 9.39726 13.3016 9.59965C13.1207 9.80203 12.8686 9.92667 12.5979 9.9475C12.5589 9.94193 12.5192 9.94193 12.4802 9.9475C12.2079 9.93934 11.9497 9.82486 11.7608 9.62859C11.572 9.43232 11.4675 9.16988 11.4698 8.8975C11.4709 8.61782 11.583 8.35002 11.7814 8.15294C11.9799 7.95586 12.2484 7.84563 12.5281 7.84646H12.524ZM15.0958 12.9965C14.342 12.5395 13.4773 12.2979 12.5958 12.2979C11.7143 12.2979 10.8497 12.5395 10.0958 12.9965C9.7724 13.1917 9.50279 13.4646 9.31144 13.7904C9.12009 14.1161 9.01304 14.4845 9 14.8621C9.01416 15.2377 9.12179 15.6039 9.31313 15.9275C9.50447 16.2511 9.77349 16.5218 10.0958 16.7152C10.8429 17.1883 11.7117 17.433 12.5958 17.4194C13.4801 17.4327 14.3489 17.1876 15.0958 16.7142C15.4193 16.5189 15.6889 16.246 15.8802 15.9203C16.0716 15.5945 16.1786 15.2261 16.1917 14.8485C16.1773 14.4731 16.0696 14.1071 15.8783 13.7837C15.687 13.4604 15.418 13.1898 15.0958 12.9965ZM14.2271 15.4215C13.7301 15.7081 13.1665 15.8591 12.5927 15.8591C12.019 15.8591 11.4553 15.7081 10.9583 15.4215C10.8521 15.3662 10.7604 15.2867 10.6907 15.1893C10.621 15.0919 10.5753 14.9794 10.5573 14.861C10.5748 14.7421 10.6203 14.629 10.69 14.531C10.7597 14.4331 10.8517 14.353 10.9583 14.2975C11.4562 14.0124 12.02 13.8625 12.5938 13.8625C13.1675 13.8625 13.7313 14.0124 14.2292 14.2975C14.3353 14.3526 14.4269 14.432 14.4966 14.5292C14.5663 14.6264 14.6121 14.7387 14.6302 14.8569C14.6121 14.9751 14.5663 15.0873 14.4966 15.1845C14.4269 15.2817 14.3353 15.3611 14.2292 15.4163L14.2271 15.4215Z" fill="#0076E2"/>
</svg>
