<svg width="25" height="25" viewBox="0 0 25 25" fill="none" xmlns="http://www.w3.org/2000/svg">
<path d="M16.6135 15.7604C16.5311 15.7904 16.4439 15.8052 16.3562 15.8042C16.1945 15.8044 16.0367 15.7544 15.9046 15.6611C15.7725 15.5678 15.6727 15.4358 15.6187 15.2833C15.4165 14.7021 15.0375 14.1988 14.5348 13.8439C14.0321 13.4889 13.431 13.3002 12.8156 13.3042L10.6719 13.3125C10.0466 13.3203 9.43274 13.1447 8.90625 12.8073V15C8.90625 15.2072 8.82394 15.4059 8.67743 15.5524C8.53091 15.6989 8.3322 15.7813 8.125 15.7813C7.9178 15.7813 7.71909 15.6989 7.57257 15.5524C7.42606 15.4059 7.34375 15.2072 7.34375 15V10.625C7.34375 10.4178 7.42606 10.2191 7.57257 10.0726C7.71909 9.92606 7.9178 9.84375 8.125 9.84375C8.15104 9.84375 8.17292 9.85625 8.19792 9.85833C8.3709 9.85412 8.54028 9.90824 8.67878 10.012C8.81728 10.1157 8.91685 10.263 8.96146 10.4302C9.05875 10.8061 9.27827 11.1389 9.58547 11.3763C9.89266 11.6137 10.2701 11.7423 10.6583 11.7417H10.6656L12.8094 11.7333H12.8271C13.7657 11.7329 14.6811 12.0246 15.4464 12.568C16.2117 13.1113 16.7889 13.8794 17.0979 14.7656C17.1316 14.8627 17.1458 14.9655 17.1396 15.0681C17.1335 15.1707 17.1072 15.2711 17.0622 15.3635C17.0172 15.456 16.9544 15.5386 16.8774 15.6067C16.8004 15.6748 16.7108 15.727 16.6135 15.7604Z" fill="#0076E2"/>
<path d="M8.28129 5.4694C7.72503 5.4694 7.18126 5.63435 6.71875 5.94339C6.25624 6.25243 5.89575 6.69169 5.68288 7.2056C5.47001 7.71952 5.41431 8.28502 5.52283 8.83059C5.63135 9.37616 5.89922 9.8773 6.29255 10.2706C6.68589 10.664 7.18703 10.9318 7.7326 11.0404C8.27817 11.1489 8.84367 11.0932 9.35759 10.8803C9.87151 10.6674 10.3108 10.307 10.6198 9.84444C10.9288 9.38193 11.0938 8.83816 11.0938 8.2819C11.0938 7.53598 10.7975 6.82061 10.27 6.29316C9.74258 5.76572 9.02721 5.4694 8.28129 5.4694ZM8.28129 9.5319C8.03406 9.5319 7.79239 9.45859 7.58683 9.32124C7.38127 9.18389 7.22105 8.98866 7.12644 8.76026C7.03183 8.53185 7.00708 8.28052 7.05531 8.03804C7.10354 7.79556 7.22259 7.57283 7.39741 7.39802C7.57222 7.2232 7.79495 7.10415 8.03743 7.05592C8.2799 7.00769 8.53124 7.03244 8.75964 7.12705C8.98805 7.22166 9.18328 7.38188 9.32063 7.58744C9.45798 7.793 9.53129 8.03467 9.53129 8.2819C9.53129 8.61342 9.3996 8.93136 9.16517 9.16578C8.93075 9.40021 8.61281 9.5319 8.28129 9.5319ZM8.12504 14.2194C7.59968 14.2194 7.08613 14.3752 6.64931 14.6671C6.21249 14.9589 5.87203 15.3738 5.67099 15.8591C5.46994 16.3445 5.41734 16.8786 5.51983 17.3939C5.62232 17.9091 5.87531 18.3824 6.24679 18.7539C6.61827 19.1254 7.09157 19.3784 7.60683 19.4809C8.12209 19.5834 8.65618 19.5308 9.14154 19.3297C9.62691 19.1287 10.0418 18.7882 10.3336 18.3514C10.6255 17.9146 10.7813 17.401 10.7813 16.8757C10.7805 16.1714 10.5003 15.4963 10.0024 14.9983C9.50442 14.5003 8.82927 14.2202 8.12504 14.2194ZM8.12504 17.9694C7.90872 17.9694 7.69725 17.9053 7.51739 17.7851C7.33752 17.6649 7.19733 17.4941 7.11455 17.2942C7.03176 17.0944 7.0101 16.8744 7.05231 16.6623C7.09451 16.4501 7.19868 16.2552 7.35164 16.1023C7.50461 15.9493 7.69949 15.8451 7.91166 15.8029C8.12383 15.7607 8.34374 15.7824 8.5436 15.8652C8.74346 15.9479 8.91428 16.0881 9.03446 16.268C9.15464 16.4479 9.21879 16.6593 9.21879 16.8757C9.21879 17.1657 9.10356 17.4439 8.89844 17.6491C8.69332 17.8542 8.41512 17.9694 8.12504 17.9694ZM16.875 14.2194C16.3497 14.2194 15.8361 14.3752 15.3993 14.6671C14.9625 14.9589 14.622 15.3738 14.421 15.8591C14.2199 16.3445 14.1673 16.8786 14.2698 17.3939C14.3723 17.9091 14.6253 18.3824 14.9968 18.7539C15.3683 19.1254 15.8416 19.3784 16.3568 19.4809C16.8721 19.5834 17.4062 19.5308 17.8915 19.3297C18.3769 19.1287 18.7918 18.7882 19.0836 18.3514C19.3755 17.9146 19.5313 17.401 19.5313 16.8757C19.5305 16.1714 19.2503 15.4963 18.7524 14.9983C18.2544 14.5003 17.5793 14.2202 16.875 14.2194ZM16.875 17.9694C16.6587 17.9694 16.4473 17.9053 16.2674 17.7851C16.0875 17.6649 15.9473 17.4941 15.8645 17.2942C15.7818 17.0944 15.7601 16.8744 15.8023 16.6623C15.8445 16.4501 15.9487 16.2552 16.1016 16.1023C16.2546 15.9493 16.4495 15.8451 16.6617 15.8029C16.8738 15.7607 17.0937 15.7824 17.2936 15.8652C17.4935 15.9479 17.6643 16.0881 17.7845 16.268C17.9046 16.4479 17.9688 16.6593 17.9688 16.8757C17.9688 17.1657 17.8536 17.4439 17.6484 17.6491C17.4433 17.8542 17.1651 17.9694 16.875 17.9694ZM15.625 1.30273H9.37504C3.71671 1.30273 1.30212 3.71732 1.30212 9.37565V15.6257C1.30212 21.284 3.71671 23.6986 9.37504 23.6986H15.625C21.2834 23.6986 23.698 21.284 23.698 15.6257V9.37565C23.698 3.71732 21.2834 1.30273 15.625 1.30273ZM22.1355 15.6257C22.1355 20.4319 20.4313 22.1361 15.625 22.1361H9.37504C4.56879 22.1361 2.86462 20.4319 2.86462 15.6257V9.37565C2.86462 4.5694 4.56879 2.86523 9.37504 2.86523H15.625C20.4313 2.86523 22.1355 4.5694 22.1355 9.37565V15.6257Z" fill="#202838"/>
</svg>
