<svg width="25" height="25" viewBox="0 0 25 25" fill="none" xmlns="http://www.w3.org/2000/svg">
<path d="M12.5 8.59375C11.7274 8.59375 10.9722 8.82285 10.3298 9.25207C9.68743 9.6813 9.18675 10.2914 8.8911 11.0051C8.59544 11.7189 8.51809 12.5043 8.66881 13.2621C8.81953 14.0198 9.19157 14.7158 9.73787 15.2621C10.2842 15.8084 10.9802 16.1805 11.7379 16.3312C12.4957 16.4819 13.2811 16.4046 13.9949 16.1089C14.7086 15.8132 15.3187 15.3126 15.7479 14.6702C16.1772 14.0278 16.4063 13.2726 16.4063 12.5C16.4049 11.4644 15.9929 10.4717 15.2606 9.73939C14.5284 9.00712 13.5356 8.59513 12.5 8.59375ZM12.5 14.8438C12.0365 14.8438 11.5833 14.7063 11.1979 14.4488C10.8125 14.1912 10.5121 13.8252 10.3347 13.3969C10.1573 12.9686 10.1109 12.4974 10.2013 12.0428C10.2917 11.5881 10.5149 11.1705 10.8427 10.8427C11.1705 10.5149 11.5881 10.2917 12.0428 10.2013C12.4974 10.1109 12.9687 10.1573 13.3969 10.3347C13.8252 10.5121 14.1912 10.8125 14.4488 11.1979C14.7063 11.5833 14.8438 12.0364 14.8438 12.5C14.8429 13.1213 14.5957 13.717 14.1564 14.1564C13.717 14.5957 13.1213 14.8429 12.5 14.8438Z" fill="#0076E2"/>
<path d="M20.9375 8.8254C20.7074 8.85551 20.4734 8.82732 20.257 8.74341C20.0406 8.65951 19.8487 8.52257 19.699 8.34519C19.6208 8.12634 19.5988 7.89133 19.6352 7.66178C19.6716 7.43224 19.7652 7.21555 19.9073 7.03165C20.0885 6.71752 20.2059 6.37079 20.253 6.01125C20.3001 5.65172 20.2759 5.28643 20.1818 4.93625C20.0876 4.58608 19.9255 4.25788 19.7045 3.9704C19.4835 3.68292 19.208 3.4418 18.8938 3.26081L17.1042 2.23269C16.8198 2.06278 16.5039 1.95212 16.1756 1.90737C15.8473 1.86262 15.5133 1.8847 15.1938 1.97227C14.5472 2.14205 13.9945 2.5617 13.6573 3.13894L13.5407 3.34102C12.9302 4.40144 12.0823 4.40144 11.4698 3.34102L11.349 3.13269C11.0103 2.5576 10.4574 2.1403 9.8115 1.97227C9.49354 1.88509 9.16129 1.86276 8.83453 1.9066C8.50776 1.95044 8.19315 2.05957 7.90942 2.22748L6.1115 3.26081C5.79729 3.4418 5.52183 3.68292 5.30083 3.9704C5.07984 4.25788 4.91764 4.58608 4.82352 4.93625C4.7294 5.28643 4.70519 5.65172 4.75228 6.01125C4.79937 6.37079 4.91683 6.71752 5.09796 7.03165C5.24007 7.21555 5.33364 7.43224 5.37005 7.66178C5.40646 7.89133 5.38453 8.12634 5.30629 8.34519C5.1561 8.52338 4.96338 8.6608 4.74598 8.74474C4.52858 8.82868 4.29351 8.85642 4.06254 8.8254C3.33115 8.8254 2.62966 9.11565 2.1121 9.63243C1.59454 10.1492 1.30323 10.8503 1.30212 11.5816V13.4171C1.30323 14.1484 1.59454 14.8495 2.1121 15.3663C2.62966 15.8831 3.33115 16.1733 4.06254 16.1733C4.29269 16.1432 4.52671 16.1714 4.74312 16.2553C4.95953 16.3392 5.15139 16.4761 5.30108 16.6535C5.37932 16.8724 5.40125 17.1074 5.36484 17.3369C5.32843 17.5665 5.23487 17.7832 5.09275 17.9671C4.91162 18.2812 4.79416 18.6279 4.74707 18.9875C4.69998 19.347 4.72419 19.7123 4.81831 20.0625C4.91244 20.4126 5.07463 20.7408 5.29562 21.0283C5.51662 21.3158 5.79209 21.5569 6.10629 21.7379L7.89587 22.766C8.18055 22.9354 8.4964 23.0457 8.82461 23.0904C9.15282 23.1352 9.48667 23.1134 9.80629 23.0264C10.4529 22.8567 11.0056 22.437 11.3427 21.8598L11.4594 21.6514C12.0698 20.591 12.9178 20.59 13.5303 21.6514L13.6511 21.8598C13.8764 22.2396 14.1964 22.5544 14.5798 22.7735C14.9633 22.9926 15.397 23.1085 15.8386 23.1098C16.2784 23.1102 16.7102 22.9922 17.0886 22.7681L18.8865 21.7348C19.2007 21.5538 19.4762 21.3127 19.6972 21.0252C19.9182 20.7377 20.0804 20.4095 20.1745 20.0593C20.2686 19.7092 20.2928 19.3439 20.2457 18.9843C20.1986 18.6248 20.0812 18.2781 19.9 17.9639C19.7579 17.78 19.6644 17.5633 19.628 17.3338C19.5915 17.1043 19.6135 16.8692 19.6917 16.6504C19.8418 16.4724 20.0343 16.335 20.2516 16.2511C20.4688 16.1672 20.7036 16.1393 20.9344 16.1702C21.6653 16.1694 22.366 15.8787 22.8828 15.3621C23.3997 14.8454 23.6906 14.1448 23.6917 13.4139V11.5816C23.6906 10.8513 23.4002 10.1512 22.8839 9.63463C22.3677 9.11804 21.6678 8.82705 20.9375 8.8254ZM22.1365 13.4171C22.1354 13.7342 22.0086 14.038 21.7838 14.2618C21.559 14.4856 21.2547 14.6111 20.9375 14.6108C20.4324 14.5723 19.9261 14.6689 19.4706 14.8908C19.0151 15.1127 18.6269 15.4518 18.3459 15.8733C18.1223 16.3279 18.0238 16.8338 18.0604 17.339C18.097 17.8443 18.2675 18.3307 18.5542 18.7483C18.7115 19.0236 18.7535 19.3499 18.6712 19.6561C18.5889 19.9623 18.3888 20.2234 18.1146 20.3827L16.3073 21.4244C16.2006 21.4866 16.0826 21.5271 15.9601 21.5435C15.8377 21.5599 15.7132 21.552 15.5938 21.5202C15.3492 21.4559 15.1395 21.2985 15.0094 21.0816L14.8927 20.8806C14.6743 20.4219 14.3373 20.0299 13.9167 19.745C13.4961 19.46 13.007 19.2925 12.5 19.2598C11.9942 19.2929 11.5063 19.4601 11.0865 19.7442C10.6667 20.0283 10.3302 20.4191 10.1115 20.8764L9.999 21.0712C9.86936 21.2917 9.6578 21.452 9.41046 21.5171C9.28912 21.549 9.16261 21.5562 9.03844 21.5383C8.91426 21.5204 8.79494 21.4777 8.68754 21.4129L6.88962 20.3785C6.61687 20.2193 6.4178 19.9591 6.33553 19.6541C6.25325 19.3492 6.29439 19.0242 6.45004 18.7494C6.73678 18.3317 6.9072 17.8453 6.94382 17.3401C6.98043 16.8348 6.88191 16.3289 6.65837 15.8744C6.37708 15.452 5.98827 15.1123 5.532 14.8902C5.07572 14.6681 4.56848 14.5716 4.06254 14.6108C3.74555 14.6108 3.44149 14.4852 3.21696 14.2614C2.99242 14.0377 2.86573 13.734 2.86462 13.4171V11.5816C2.86573 11.2647 2.99242 10.961 3.21696 10.7373C3.44149 10.5135 3.74555 10.3879 4.06254 10.3879C4.56788 10.4266 5.0744 10.3301 5.53007 10.1082C5.98573 9.88629 6.3741 9.54708 6.65525 9.1254C6.87943 8.67095 6.97859 8.16501 6.94252 7.65956C6.90646 7.15411 6.73648 6.66737 6.45004 6.24936C6.29276 5.97407 6.2507 5.64776 6.33305 5.34159C6.4154 5.03542 6.61547 4.77423 6.88962 4.61498L8.69692 3.57331C8.80323 3.51001 8.92125 3.46888 9.04388 3.45241C9.16652 3.43594 9.29121 3.44447 9.41046 3.47748C9.65502 3.54179 9.86474 3.69917 9.99483 3.91602L10.1115 4.11811C10.3298 4.57599 10.6661 4.96743 11.086 5.25213C11.5058 5.53684 11.9939 5.70451 12.5 5.7379C13.0058 5.70491 13.4936 5.53786 13.9134 5.25391C14.3331 4.96997 14.6697 4.57938 14.8886 4.12227L15.0011 3.92748C15.1307 3.707 15.3423 3.54674 15.5896 3.48165C15.711 3.44975 15.8375 3.44254 15.9616 3.46043C16.0858 3.47833 16.2051 3.52096 16.3125 3.58581L18.1105 4.62019C18.3832 4.7794 18.5823 5.03965 18.6646 5.34457C18.7468 5.64949 18.7057 5.97455 18.55 6.24936C18.2633 6.66697 18.0929 7.15337 18.0563 7.65862C18.0197 8.16387 18.1182 8.66977 18.3417 9.12436C18.623 9.54672 19.0118 9.88644 19.4681 10.1085C19.9244 10.3306 20.4316 10.4271 20.9375 10.3879C21.254 10.3887 21.5573 10.5147 21.7811 10.7384C22.005 10.9621 22.1312 11.2652 22.1323 11.5816L22.1365 13.4171Z" fill="#202838"/>
</svg>
