<svg width="25" height="25" viewBox="0 0 25 25" fill="none" xmlns="http://www.w3.org/2000/svg">
<path d="M15.625 1.30273H9.37504C3.71671 1.30273 1.30212 3.71732 1.30212 9.37565V15.6257C1.30212 21.284 3.71671 23.6986 9.37504 23.6986H15.625C21.2834 23.6986 23.698 21.284 23.698 15.6257V9.37565C23.698 3.71732 21.2834 1.30273 15.625 1.30273ZM22.1355 15.6257C22.1355 20.4319 20.4313 22.1361 15.625 22.1361H9.37504C4.56879 22.1361 2.86462 20.4319 2.86462 15.6257V9.37565C2.86462 4.5694 4.56879 2.86523 9.37504 2.86523H15.625C20.4313 2.86523 22.1355 4.5694 22.1355 9.37565V15.6257Z" fill="#202838"/>
<path d="M10.549 9.90204L7.95528 12.501L10.549 15.1052C10.6914 15.2524 10.7703 15.4498 10.7686 15.6546C10.7669 15.8594 10.6848 16.0554 10.54 16.2003C10.3952 16.3453 10.1993 16.4275 9.9945 16.4294C9.78966 16.4313 9.59227 16.3526 9.44486 16.2104L6.85007 13.6104C6.55683 13.3156 6.39221 12.9168 6.39221 12.501C6.39221 12.0852 6.55683 11.6864 6.85007 11.3916L9.44486 8.79683C9.51697 8.72225 9.6032 8.66277 9.69853 8.62187C9.79387 8.58098 9.89639 8.55947 10.0001 8.55862C10.1039 8.55777 10.2067 8.57758 10.3027 8.61691C10.3987 8.65624 10.4859 8.71429 10.5592 8.78768C10.6326 8.86106 10.6905 8.94832 10.7298 9.04435C10.769 9.14038 10.7887 9.24326 10.7878 9.347C10.7868 9.45073 10.7652 9.55324 10.7242 9.64853C10.6832 9.74383 10.6237 9.83001 10.549 9.90204ZM18.1532 11.3916L15.5553 8.79683C15.4832 8.72225 15.3969 8.66277 15.3016 8.62187C15.2063 8.58098 15.1037 8.55947 15 8.55862C14.8963 8.55777 14.7934 8.57758 14.6974 8.61691C14.6014 8.65624 14.5142 8.71429 14.4409 8.78768C14.3676 8.86106 14.3096 8.94832 14.2704 9.04435C14.2311 9.14038 14.2114 9.24326 14.2124 9.347C14.2133 9.45073 14.2349 9.55324 14.2759 9.64853C14.3169 9.74383 14.3765 9.83001 14.4511 9.90204L17.0449 12.5062L14.4511 15.1052C14.3087 15.2524 14.2299 15.4498 14.2316 15.6546C14.2333 15.8594 14.3153 16.0554 14.4601 16.2003C14.6049 16.3453 14.8008 16.4275 15.0056 16.4294C15.2105 16.4313 15.4079 16.3526 15.5553 16.2104L18.1501 13.6156C18.4449 13.3206 18.6105 12.9206 18.6105 12.5036C18.6105 12.0866 18.4449 11.6866 18.1501 11.3916H18.1532Z" fill="#0076E2"/>
</svg>
