<svg width="73" height="121" viewBox="0 0 73 121" fill="none" xmlns="http://www.w3.org/2000/svg">
<path d="M70.8862 25.0488H70.5504C69.7362 25.0488 69.0762 25.7089 69.0762 26.5231V37.7991C69.0762 38.6133 69.7362 39.2734 70.5504 39.2734H70.8862C71.7004 39.2734 72.3604 38.6133 72.3604 37.7991V26.5231C72.3604 25.7089 71.7004 25.0488 70.8862 25.0488Z" fill="#202838"/>
<path d="M70.8859 39.6385H70.5501C69.5357 39.6385 68.7109 38.8138 68.7109 37.7993V26.5306C68.7109 25.5161 69.5357 24.6914 70.5501 24.6914H70.8859C71.9003 24.6914 72.7251 25.5161 72.7251 26.5306V37.7993C72.7251 38.8138 71.9003 39.6385 70.8859 39.6385ZM70.5574 25.4139C69.9444 25.4139 69.4481 25.9102 69.4481 26.5233V37.792C69.4481 38.4051 69.9444 38.9014 70.5574 38.9014H70.8932C71.5062 38.9014 72.0025 38.4051 72.0025 37.792V26.5233C72.0025 25.9102 71.5062 25.4139 70.8932 25.4139H70.5574Z" fill="#202838"/>
<path d="M4.69566 110.542V10.4589C4.69566 4.88294 9.21337 0.365234 14.7893 0.365234H11.3518C5.74663 0.365234 1.20703 4.90483 1.20703 10.51V110.483C1.20703 116.089 5.74663 120.628 11.3518 120.628H14.7893C9.21337 120.628 4.69566 116.11 4.69566 110.534V110.542Z" fill="#202838"/>
<path d="M14.791 121H11.3534C5.55851 121 0.84375 116.285 0.84375 110.49V10.5097C0.84375 4.71476 5.55851 0 11.3534 0H14.791V0.729839C9.42666 0.729839 5.06222 5.09428 5.06222 10.4586V110.541C5.06222 115.906 9.42666 120.27 14.791 120.27V121ZM10.9301 0.737137C5.73367 0.963387 1.57359 5.26214 1.57359 10.5097V110.483C1.57359 115.731 5.73367 120.029 10.9301 120.256C7.06928 118.716 4.33238 114.942 4.33238 110.534V10.4586C4.33238 6.05766 7.06928 2.2771 10.9301 0.737137Z" fill="#202838"/>
<path d="M3.05457 30.4414C2.58017 30.4414 2.19336 30.0545 2.19336 29.5801V17.078C2.19336 16.6036 2.58017 16.2168 3.05457 16.2168C3.52896 16.2168 3.91578 16.6036 3.91578 17.078V29.5801C3.91578 30.0545 3.52896 30.4414 3.05457 30.4414Z" fill="#CACAE5"/>
<path d="M3.05425 30.806C2.3755 30.806 1.82812 30.2586 1.82812 29.5798V17.0777C1.82812 16.3989 2.3755 15.8516 3.05425 15.8516C3.733 15.8516 4.28038 16.3989 4.28038 17.0777V29.5798C4.28038 30.2586 3.733 30.806 3.05425 30.806ZM3.05425 16.5814C2.78421 16.5814 2.55796 16.8004 2.55796 17.0777V29.5798C2.55796 29.8499 2.77692 30.0761 3.05425 30.0761C3.33159 30.0761 3.55055 29.8572 3.55055 29.5798V17.0777C3.55055 16.8077 3.33159 16.5814 3.05425 16.5814Z" fill="#202838"/>
<path d="M3.05457 49.2714C2.58017 49.2714 2.19336 48.8846 2.19336 48.4102V35.9081C2.19336 35.4337 2.58017 35.0469 3.05457 35.0469C3.52896 35.0469 3.91578 35.4337 3.91578 35.9081V48.4102C3.91578 48.8846 3.52896 49.2714 3.05457 49.2714Z" fill="#CACAE5"/>
<path d="M3.05425 49.636C2.3755 49.636 1.82812 49.0887 1.82812 48.4099V35.9078C1.82812 35.229 2.3755 34.6816 3.05425 34.6816C3.733 34.6816 4.28038 35.229 4.28038 35.9078V48.4099C4.28038 49.0887 3.733 49.636 3.05425 49.636ZM3.05425 35.4188C2.78421 35.4188 2.55796 35.6377 2.55796 35.9151V48.4172C2.55796 48.6873 2.77692 48.9135 3.05425 48.9135C3.33159 48.9135 3.55055 48.6945 3.55055 48.4172V35.9151C3.55055 35.645 3.33159 35.4188 3.05425 35.4188Z" fill="#202838"/>
<path d="M60.4112 0.365234H14.789C9.21302 0.365234 4.69531 4.88294 4.69531 10.4589V110.542C4.69531 116.118 9.21302 120.635 14.789 120.635H60.4112C65.9872 120.635 70.5049 116.118 70.5049 110.542V10.4589C70.5049 4.88294 65.9872 0.365234 60.4112 0.365234Z" fill="#CACAE5"/>
<path d="M60.4129 121H14.7906C9.0249 121 4.33203 116.307 4.33203 110.541V10.4586C4.33203 4.69286 9.0249 0 14.7906 0H60.4129C66.1786 0 70.8715 4.69286 70.8715 10.4586V110.541C70.8715 116.307 66.1786 121 60.4129 121ZM14.7906 0.729839C9.42631 0.729839 5.06187 5.09428 5.06187 10.4586V110.541C5.06187 115.906 9.42631 120.27 14.7906 120.27H60.4129C65.7772 120.27 70.1416 115.906 70.1416 110.541V10.4586C70.1416 5.09428 65.7772 0.729839 60.4129 0.729839H14.7906Z" fill="#202838"/>
<path d="M37.5979 8.84626C36.6491 8.84626 35.8828 8.07993 35.8828 7.13114C35.8828 6.18235 36.6491 5.41602 37.5979 5.41602C38.5467 5.41602 39.3131 6.18235 39.3131 7.13114C39.3131 8.07993 38.5467 8.84626 37.5979 8.84626ZM37.5979 5.96339C36.9557 5.96339 36.4302 6.48888 36.4302 7.13114C36.4302 7.7734 36.9557 8.29888 37.5979 8.29888C38.2402 8.29888 38.7657 7.7734 38.7657 7.13114C38.7657 6.48888 38.2402 5.96339 37.5979 5.96339Z" fill="white"/>
<path d="M32.8846 8.05712H26.1555C25.6592 8.05712 25.2578 7.65571 25.2578 7.15942C25.2578 6.66313 25.6592 6.26172 26.1555 6.26172H32.8846C33.3809 6.26172 33.7823 6.66313 33.7823 7.15942C33.7823 7.65571 33.3809 8.05712 32.8846 8.05712ZM26.1555 6.8018C25.9585 6.8018 25.8052 6.96236 25.8052 7.15212C25.8052 7.34188 25.9658 7.50244 26.1555 7.50244H32.8846C33.0817 7.50244 33.235 7.34188 33.235 7.15212C33.235 6.96236 33.0744 6.8018 32.8846 6.8018H26.1555Z" fill="white"/>
<path d="M49.2049 8.05712H42.4758C41.9795 8.05712 41.5781 7.65571 41.5781 7.15942C41.5781 6.66313 41.9795 6.26172 42.4758 6.26172H49.2049C49.7012 6.26172 50.1026 6.66313 50.1026 7.15942C50.1026 7.65571 49.7012 8.05712 49.2049 8.05712ZM42.4758 6.8018C42.2788 6.8018 42.1255 6.96236 42.1255 7.15212C42.1255 7.34188 42.2861 7.50244 42.4758 7.50244H49.2049C49.402 7.50244 49.5553 7.34188 49.5553 7.15212C49.5553 6.96236 49.3947 6.8018 49.2049 6.8018H42.4758Z" fill="white"/>
<path d="M65.3747 11.7207H9.83398V110.453H65.3747V11.7207Z" fill="white"/>
<path d="M65.3671 110.825H9.83367C9.62931 110.825 9.46875 110.665 9.46875 110.46V11.7204C9.46875 11.516 9.62931 11.3555 9.83367 11.3555H65.3744C65.5788 11.3555 65.7393 11.516 65.7393 11.7204V110.453C65.7393 110.657 65.5788 110.818 65.3744 110.818L65.3671 110.825ZM10.1986 110.095H65.0095V12.0853H10.1986V110.088V110.095Z" fill="#202838"/>
<path d="M64.9946 12.0859H10.2129V19.6763H64.9946V12.0859Z" fill="#7FD6C3"/>
<path d="M51.5816 17.0694C50.9028 17.0694 50.3555 16.5221 50.3555 15.8433C50.3555 15.1646 50.9028 14.6172 51.5816 14.6172C52.2603 14.6172 52.8077 15.1646 52.8077 15.8433C52.8077 16.5221 52.2603 17.0694 51.5816 17.0694ZM51.5816 15.1646C51.2094 15.1646 50.9028 15.4711 50.9028 15.8433C50.9028 16.2155 51.2094 16.5221 51.5816 16.5221C51.9538 16.5221 52.2603 16.2155 52.2603 15.8433C52.2603 15.4711 51.9538 15.1646 51.5816 15.1646Z" fill="white"/>
<path d="M56.5386 17.0694C55.8599 17.0694 55.3125 16.5221 55.3125 15.8433C55.3125 15.1646 55.8599 14.6172 56.5386 14.6172C57.2174 14.6172 57.7648 15.1646 57.7648 15.8433C57.7648 16.5221 57.2174 17.0694 56.5386 17.0694ZM56.5386 15.1646C56.1664 15.1646 55.8599 15.4711 55.8599 15.8433C55.8599 16.2155 56.1664 16.5221 56.5386 16.5221C56.9108 16.5221 57.2174 16.2155 57.2174 15.8433C57.2174 15.4711 56.9108 15.1646 56.5386 15.1646Z" fill="white"/>
<path d="M61.5738 17.0694C60.895 17.0694 60.3477 16.5221 60.3477 15.8433C60.3477 15.1646 60.895 14.6172 61.5738 14.6172C62.2525 14.6172 62.7999 15.1646 62.7999 15.8433C62.7999 16.5221 62.2525 17.0694 61.5738 17.0694ZM61.5738 15.1646C61.2016 15.1646 60.895 15.4711 60.895 15.8433C60.895 16.2155 61.2016 16.5221 61.5738 16.5221C61.946 16.5221 62.2525 16.2155 62.2525 15.8433C62.2525 15.4711 61.946 15.1646 61.5738 15.1646Z" fill="white"/>
<path d="M35.8892 31.3451H19.0153C18.811 31.3451 18.6504 31.1845 18.6504 30.9802C18.6504 30.7758 18.811 30.6152 19.0153 30.6152H35.8892C36.0935 30.6152 36.2541 30.7758 36.2541 30.9802C36.2541 31.1845 36.0935 31.3451 35.8892 31.3451Z" fill="#8BBFEF" fill-opacity="0.2"/>
<path d="M46.1356 31.3451H40.1071C39.9028 31.3451 39.7422 31.1845 39.7422 30.9802C39.7422 30.7758 39.9028 30.6152 40.1071 30.6152H46.1356C46.3399 30.6152 46.5005 30.7758 46.5005 30.9802C46.5005 31.1845 46.3399 31.3451 46.1356 31.3451Z" fill="#7FD6C3"/>
<path d="M56.4855 31.3451H50.9606C50.7563 31.3451 50.5957 31.1845 50.5957 30.9802C50.5957 30.7758 50.7563 30.6152 50.9606 30.6152H56.4855C56.6899 30.6152 56.8504 30.7758 56.8504 30.9802C56.8504 31.1845 56.6899 31.3451 56.4855 31.3451Z" fill="#7FD6C3"/>
<path d="M56.4849 44.4095H39.611C39.4067 44.4095 39.2461 44.249 39.2461 44.0446C39.2461 43.8403 39.4067 43.6797 39.611 43.6797H56.4849C56.6892 43.6797 56.8498 43.8403 56.8498 44.0446C56.8498 44.249 56.6892 44.4095 56.4849 44.4095Z" fill="#8BBFEF" fill-opacity="0.2"/>
<path d="M35.3934 44.4095H29.3649C29.1606 44.4095 29 44.249 29 44.0446C29 43.8403 29.1606 43.6797 29.3649 43.6797H35.3934C35.5977 43.6797 35.7583 43.8403 35.7583 44.0446C35.7583 44.249 35.5977 44.4095 35.3934 44.4095Z" fill="#7FD6C3"/>
<path d="M24.5402 44.4095H19.0153C18.811 44.4095 18.6504 44.249 18.6504 44.0446C18.6504 43.8403 18.811 43.6797 19.0153 43.6797H24.5402C24.7445 43.6797 24.9051 43.8403 24.9051 44.0446C24.9051 44.249 24.7445 44.4095 24.5402 44.4095Z" fill="#7FD6C3"/>
<path d="M27.7004 37.8119H19.0153C18.811 37.8119 18.6504 37.6513 18.6504 37.447C18.6504 37.2426 18.811 37.082 19.0153 37.082H27.7004C27.9047 37.082 28.0653 37.2426 28.0653 37.447C28.0653 37.6513 27.9047 37.8119 27.7004 37.8119Z" fill="#8BBFEF" fill-opacity="0.2"/>
<path d="M46.137 37.8119H31.3942C31.1899 37.8119 31.0293 37.6513 31.0293 37.447C31.0293 37.2426 31.1899 37.082 31.3942 37.082H46.137C46.3413 37.082 46.5019 37.2426 46.5019 37.447C46.5019 37.6513 46.3413 37.8119 46.137 37.8119Z" fill="#7FD6C3"/>
<path d="M56.4855 37.8119H50.9606C50.7563 37.8119 50.5957 37.6513 50.5957 37.447C50.5957 37.2426 50.7563 37.082 50.9606 37.082H56.4855C56.6899 37.082 56.8504 37.2426 56.8504 37.447C56.8504 37.6513 56.6899 37.8119 56.4855 37.8119Z" fill="#8BBFEF" fill-opacity="0.2"/>
<path d="M35.8892 50.2201H19.0153C18.811 50.2201 18.6504 50.0595 18.6504 49.8552C18.6504 49.6508 18.811 49.4902 19.0153 49.4902H35.8892C36.0935 49.4902 36.2541 49.6508 36.2541 49.8552C36.2541 50.0595 36.0935 50.2201 35.8892 50.2201Z" fill="#8BBFEF" fill-opacity="0.2"/>
<path d="M46.1356 50.2201H40.1071C39.9028 50.2201 39.7422 50.0595 39.7422 49.8552C39.7422 49.6508 39.9028 49.4902 40.1071 49.4902H46.1356C46.3399 49.4902 46.5005 49.6508 46.5005 49.8552C46.5005 50.0595 46.3399 50.2201 46.1356 50.2201Z" fill="#7FD6C3"/>
<path d="M35.8892 71.1595H19.0153C18.811 71.1595 18.6504 70.999 18.6504 70.7946C18.6504 70.5903 18.811 70.4297 19.0153 70.4297H35.8892C36.0935 70.4297 36.2541 70.5903 36.2541 70.7946C36.2541 70.999 36.0935 71.1595 35.8892 71.1595Z" fill="#8BBFEF" fill-opacity="0.2"/>
<path d="M46.1356 71.1595H40.1071C39.9028 71.1595 39.7422 70.999 39.7422 70.7946C39.7422 70.5903 39.9028 70.4297 40.1071 70.4297H46.1356C46.3399 70.4297 46.5005 70.5903 46.5005 70.7946C46.5005 70.999 46.3399 71.1595 46.1356 71.1595Z" fill="#7FD6C3"/>
<path d="M56.4855 50.2201H50.9606C50.7563 50.2201 50.5957 50.0595 50.5957 49.8552C50.5957 49.6508 50.7563 49.4902 50.9606 49.4902H56.4855C56.6899 49.4902 56.8504 49.6508 56.8504 49.8552C56.8504 50.0595 56.6899 50.2201 56.4855 50.2201Z" fill="#7FD6C3"/>
<path d="M56.4849 63.2826H39.611C39.4067 63.2826 39.2461 63.122 39.2461 62.9177C39.2461 62.7133 39.4067 62.5527 39.611 62.5527H56.4849C56.6892 62.5527 56.8498 62.7133 56.8498 62.9177C56.8498 63.122 56.6892 63.2826 56.4849 63.2826Z" fill="#8BBFEF" fill-opacity="0.2"/>
<path d="M35.3934 63.2826H29.3649C29.1606 63.2826 29 63.122 29 62.9177C29 62.7133 29.1606 62.5527 29.3649 62.5527H35.3934C35.5977 62.5527 35.7583 62.7133 35.7583 62.9177C35.7583 63.122 35.5977 63.2826 35.3934 63.2826Z" fill="#7FD6C3"/>
<path d="M24.5402 63.2826H19.0153C18.811 63.2826 18.6504 63.122 18.6504 62.9177C18.6504 62.7133 18.811 62.5527 19.0153 62.5527H24.5402C24.7445 62.5527 24.9051 62.7133 24.9051 62.9177C24.9051 63.122 24.7445 63.2826 24.5402 63.2826Z" fill="#7FD6C3"/>
<path d="M35.3934 78.2377H29.3649C29.1606 78.2377 29 78.0771 29 77.8727C29 77.6684 29.1606 77.5078 29.3649 77.5078H35.3934C35.5977 77.5078 35.7583 77.6684 35.7583 77.8727C35.7583 78.0771 35.5977 78.2377 35.3934 78.2377Z" fill="#8BBFEF" fill-opacity="0.2"/>
<path d="M24.5402 78.2377H19.0153C18.811 78.2377 18.6504 78.0771 18.6504 77.8727C18.6504 77.6684 18.811 77.5078 19.0153 77.5078H24.5402C24.7445 77.5078 24.9051 77.6684 24.9051 77.8727C24.9051 78.0771 24.7445 78.2377 24.5402 78.2377Z" fill="#8BBFEF" fill-opacity="0.2"/>
<path d="M27.7004 56.6849H19.0153C18.811 56.6849 18.6504 56.5244 18.6504 56.32C18.6504 56.1156 18.811 55.9551 19.0153 55.9551H27.7004C27.9047 55.9551 28.0653 56.1156 28.0653 56.32C28.0653 56.5244 27.9047 56.6849 27.7004 56.6849Z" fill="#8BBFEF" fill-opacity="0.2"/>
<path d="M46.137 56.6849H31.3942C31.1899 56.6849 31.0293 56.5244 31.0293 56.32C31.0293 56.1156 31.1899 55.9551 31.3942 55.9551H46.137C46.3413 55.9551 46.5019 56.1156 46.5019 56.32C46.5019 56.5244 46.3413 56.6849 46.137 56.6849Z" fill="#7FD6C3"/>
<path d="M56.4855 56.6849H50.9606C50.7563 56.6849 50.5957 56.5244 50.5957 56.32C50.5957 56.1156 50.7563 55.9551 50.9606 55.9551H56.4855C56.6899 55.9551 56.8504 56.1156 56.8504 56.32C56.8504 56.5244 56.6899 56.6849 56.4855 56.6849Z" fill="#8BBFEF" fill-opacity="0.2"/>
<path d="M33.6487 85.1849H18.9059C18.7016 85.1849 18.541 85.0244 18.541 84.82C18.541 84.6156 18.7016 84.4551 18.9059 84.4551H33.6487C33.853 84.4551 34.0136 84.6156 34.0136 84.82C34.0136 85.0244 33.853 85.1849 33.6487 85.1849Z" fill="#7FD6C3"/>
<path d="M24.4601 91.6947H18.9352C18.7309 91.6947 18.5703 91.5341 18.5703 91.3298C18.5703 91.1254 18.7309 90.9648 18.9352 90.9648H24.4601C24.6645 90.9648 24.825 91.1254 24.825 91.3298C24.825 91.5341 24.6645 91.6947 24.4601 91.6947Z" fill="#8BBFEF" fill-opacity="0.2"/>
</svg>
