<svg width="110" height="107" viewBox="0 0 110 107" fill="none" xmlns="http://www.w3.org/2000/svg">
<path d="M80.7801 35.2107L73.141 31.7616C72.5138 31.4781 71.7788 31.755 71.4953 32.3822L69.2671 37.312C69.038 37.818 68.5042 38.1205 67.9571 38.0324C65.9167 37.7043 63.8748 37.6454 61.863 37.8376C61.3114 37.8924 60.7954 37.5538 60.5999 37.0386L58.6864 31.9779C58.4431 31.3348 57.7281 31.0112 57.085 31.2546L49.2442 34.218C48.6011 34.4613 48.2775 35.1763 48.5209 35.8194L50.4305 40.8844C50.626 41.3997 50.4588 41.9919 50.0119 42.3182C48.3727 43.5012 46.8798 44.9003 45.5647 46.4894C45.213 46.9165 44.6125 47.0433 44.1065 46.8143L39.1767 44.5861C38.5495 44.3026 37.8145 44.5795 37.531 45.2067L34.0819 52.8458C33.7983 53.473 34.0752 54.208 34.7025 54.4915L39.6323 56.7197C40.1382 56.9488 40.4408 57.4826 40.3526 58.0297C40.0245 60.0701 39.9656 62.1121 40.1579 64.1239C40.2127 64.6754 39.8741 65.1914 39.3589 65.387L34.2981 67.3004C33.655 67.5437 33.3315 68.2588 33.5748 68.9018L36.5383 76.7427C36.7816 77.3857 37.4966 77.7093 38.1397 77.466L43.2047 75.5563C43.7199 75.3608 44.3122 75.528 44.6385 75.9749C45.8214 77.6142 47.2206 79.107 48.8097 80.4222C49.2368 80.7738 49.3636 81.3743 49.1346 81.8803L46.9064 86.8101C46.6228 87.4373 46.8998 88.1723 47.527 88.4558L55.1661 91.905C55.7933 92.1885 56.5283 91.9116 56.8118 91.2844L59.04 86.3546C59.269 85.8486 59.8028 85.546 60.35 85.6342C62.3904 85.9623 64.4323 86.0212 66.4441 85.829C66.9956 85.7742 67.5117 86.1127 67.7072 86.6279L69.6207 91.6887C69.864 92.3318 70.579 92.6553 71.2221 92.412L79.0629 89.4486C79.706 89.2052 80.0295 88.4902 79.7862 87.8471L77.8766 82.7821C77.6811 82.2669 77.8483 81.6746 78.2952 81.3483C79.9344 80.1654 81.4272 78.7663 82.7424 77.1771C83.094 76.75 83.6946 76.6232 84.2006 76.8522L89.1304 79.0805C89.7576 79.364 90.4926 79.0871 90.7761 78.4599L94.2252 70.8207C94.5088 70.1935 94.2318 69.4585 93.6046 69.175L88.6748 66.9468C88.1689 66.7178 87.8663 66.184 87.9544 65.6368C88.2825 63.5964 88.3415 61.5545 88.1492 59.5427C88.0944 58.9912 88.433 58.4751 88.9482 58.2796L94.009 56.3661C94.652 56.1228 94.9756 55.4078 94.7322 54.7647L91.7688 46.9239C91.5255 46.2808 90.8105 45.9573 90.1674 46.2006L85.1024 48.1102C84.5871 48.3057 83.9949 48.1385 83.6686 47.6916C82.4856 46.0524 81.0865 44.5596 79.4974 43.2444C79.0703 42.8928 78.9435 42.2922 79.1725 41.7863L81.4007 36.8565C81.6842 36.2293 81.4073 35.4943 80.7801 35.2107ZM76.4316 67.4124C72.572 75.3718 62.5751 77.9809 55.3203 72.9204C49.6092 68.9411 47.6039 61.2474 50.6395 54.9847C54.4991 47.0254 64.496 44.4163 71.7508 49.4768C77.4619 53.456 79.4672 61.1498 76.4316 67.4124Z" fill="#CACAE5"/>
<path d="M78.6395 33.1131L71.0004 29.6639C70.3732 29.3804 69.6382 29.6573 69.3546 30.2845L67.1264 35.2143C66.8974 35.7203 66.3636 36.0228 65.8165 35.9347C63.776 35.6066 61.7341 35.5477 59.7223 35.7399C59.1708 35.7947 58.6547 35.4562 58.4592 34.9409L56.5458 29.8802C56.3025 29.2371 55.5874 28.9136 54.9444 29.1569L47.1035 32.1203C46.4605 32.3637 46.1369 33.0787 46.3802 33.7218L48.2898 38.7868C48.4854 39.302 48.3182 39.8943 47.8713 40.2206C46.232 41.4035 44.7392 42.8026 43.424 44.3918C43.0724 44.8189 42.4719 44.9457 41.9659 44.7166L37.0361 42.4884C36.4089 42.2049 35.6739 42.4818 35.3904 43.109L31.9412 50.7481C31.6577 51.3754 31.9346 52.1104 32.5618 52.3939L37.4916 54.6221C37.9976 54.8511 38.3001 55.3849 38.212 55.9321C37.8839 57.9725 37.825 60.0144 38.0172 62.0262C38.072 62.5777 37.7335 63.0938 37.2182 63.2893L32.1575 65.2028C31.5144 65.4461 31.1909 66.1611 31.4342 66.8042L34.3976 74.645C34.641 75.2881 35.356 75.6116 35.9991 75.3683L41.0641 73.4587C41.5793 73.2632 42.1716 73.4304 42.4979 73.8772C43.6808 75.5165 45.0799 77.0093 46.6691 78.3245C47.0962 78.6761 47.223 79.2767 46.9939 79.7826L44.7657 84.7124C44.4822 85.3396 44.7591 86.0746 45.3863 86.3582L53.0254 89.8073C53.6526 90.0908 54.3876 89.8139 54.6712 89.1867L56.8994 84.2569C57.1284 83.7509 57.6622 83.4484 58.2094 83.5365C60.2498 83.8646 62.2917 83.9235 64.3035 83.7313C64.855 83.6765 65.3711 84.0151 65.5666 84.5303L67.48 89.591C67.7234 90.2341 68.4384 90.5577 69.0815 90.3143L76.9223 87.3509C77.5654 87.1076 77.8889 86.3925 77.6456 85.7495L75.736 80.6844C75.5405 80.1692 75.7077 79.5769 76.1545 79.2506C77.7938 78.0677 79.2866 76.6686 80.6018 75.0795C80.9534 74.6524 81.554 74.5256 82.0599 74.7546L86.9897 76.9828C87.6169 77.2663 88.3519 76.9894 88.6355 76.3622L92.0846 68.7231C92.3681 68.0959 92.0912 67.3609 91.464 67.0773L86.5342 64.8491C86.0282 64.6201 85.7257 64.0863 85.8138 63.5392C86.1419 61.4987 86.2008 59.4568 86.0086 57.445C85.9538 56.8935 86.2924 56.3775 86.8076 56.1819L91.8683 54.2685C92.5114 54.0252 92.8349 53.3101 92.5916 52.6671L89.6282 44.8262C89.3849 44.1832 88.6698 43.8596 88.0268 44.1029L82.9617 46.0125C82.4465 46.2081 81.8542 46.0409 81.5279 45.594C80.345 43.9547 78.9459 42.4619 77.3568 41.1467C76.9297 40.7951 76.8029 40.1946 77.0319 39.6886L79.2601 34.7588C79.5436 34.1316 79.2667 33.3966 78.6395 33.1131ZM74.8871 65.8487C71.0275 73.8081 61.0306 76.4172 53.7758 71.3567C48.0647 67.3774 46.0594 59.6837 49.095 53.421C52.9546 45.4617 62.9515 42.8526 70.2063 47.9131C75.9174 51.8923 77.9227 59.5861 74.8871 65.8487Z" fill="#8BBFEF" fill-opacity="0.2"/>
<path d="M88.642 76.8581C88.208 77.3427 87.4915 77.5126 86.8686 77.2329L81.9388 75.0047C81.5498 74.8264 81.0823 74.9255 80.8229 75.2496C79.512 76.8426 77.9961 78.2675 76.3214 79.4727C75.98 79.7158 75.8501 80.1714 76.0026 80.5708L77.916 85.6315C78.0595 86.015 78.0498 86.4315 77.8786 86.8038C77.7075 87.1761 77.4051 87.4618 77.0216 87.6052L69.1808 90.5687C68.7972 90.7121 68.3808 90.7024 68.0085 90.5312C67.6362 90.3601 67.3505 90.0578 67.207 89.6742L65.2936 84.6135C65.1411 84.2141 64.7438 83.9587 64.3301 83.9978C62.2738 84.1965 60.1989 84.1313 58.1666 83.8027C57.7552 83.7357 57.3436 83.9622 57.1695 84.355L54.9413 89.2849C54.5922 90.0543 53.6815 90.398 52.9163 90.0527L45.2772 86.6036C44.5078 86.2545 44.1684 85.3476 44.5093 84.5786L46.7375 79.6488C46.9159 79.2598 46.813 78.7966 46.4927 78.5328C44.8997 77.2219 43.4787 75.7018 42.2696 74.0314C42.0227 73.6943 41.5752 73.564 41.1715 73.7126L36.1108 75.626C35.7272 75.7694 35.3108 75.7597 34.9385 75.5886C34.5662 75.4174 34.2805 75.1151 34.137 74.7316L31.1736 66.8908C31.0302 66.5072 31.0399 66.0908 31.2111 65.7185C31.3822 65.3462 31.6845 65.0604 32.0681 64.917L37.1288 63.0036C37.5282 62.8511 37.7836 62.4538 37.7445 62.0401C37.5457 59.9838 37.611 57.9089 37.9395 55.8766C38.0066 55.4652 37.7801 55.0536 37.3872 54.8795L32.4574 52.6513C32.0851 52.4801 31.7994 52.1778 31.656 51.7943C31.5125 51.4107 31.5222 50.9943 31.6934 50.622L35.1425 42.9829C35.4878 42.2177 36.3942 41.8702 37.1675 42.215L42.0973 44.4432C42.4863 44.6216 42.9453 44.5148 43.2133 44.1983C44.528 42.6011 46.04 41.1805 47.7148 39.9753C48.0518 39.7284 48.1822 39.2809 48.0335 38.8772L46.1239 33.8122C45.8276 33.0212 46.2235 32.139 47.0184 31.8384L54.8592 28.875C55.6502 28.5787 56.5323 28.9746 56.8329 29.7695L58.7464 34.8302C58.8988 35.2296 59.2962 35.485 59.7099 35.4459C61.7662 35.2471 63.8411 35.3124 65.8777 35.6448C66.2891 35.7118 66.7007 35.4853 66.8748 35.0925L69.103 30.1627C69.2741 29.7904 69.5764 29.5046 69.96 29.3612C70.3435 29.2178 70.7561 29.2318 71.1322 29.3987L78.7714 32.8478C79.5408 33.1969 79.884 34.0995 79.5392 34.8728L77.311 39.8026C77.1369 40.1954 77.2356 40.6548 77.5559 40.9185C79.1489 42.2294 80.5699 43.7496 81.779 45.42C82.0259 45.7571 82.4734 45.8874 82.877 45.7388L87.9421 43.8292C88.7331 43.5329 89.6152 43.9288 89.9158 44.7236L92.8792 52.5645C93.0227 52.948 93.0129 53.3644 92.8418 53.7367C92.6706 54.109 92.3683 54.3948 91.9848 54.5382L86.924 56.4516C86.5204 56.6002 86.2693 57.0014 86.3084 57.4151C86.5071 59.4714 86.4419 61.5463 86.1095 63.5829C86.0424 63.9943 86.2689 64.4059 86.6661 64.5839L91.5959 66.8121C92.3653 67.1612 92.7047 68.0681 92.3637 68.8371L88.9146 76.4762C88.8452 76.6227 88.7625 76.7496 88.6587 76.8653L88.642 76.8581ZM80.417 74.8397C80.8511 74.3551 81.5646 74.2058 82.1751 74.4821L87.1049 76.7103C87.5856 76.9244 88.153 76.7138 88.3671 76.2331L91.8162 68.594C92.0303 68.1133 91.8197 67.5459 91.3391 67.3318L86.4092 65.1036C85.782 64.8201 85.4193 64.155 85.5251 63.4846C85.8439 61.4977 85.9075 59.4677 85.7158 57.4641C85.65 56.7868 86.0593 56.1486 86.7023 55.9052L91.7631 53.9918C91.9987 53.9013 92.1887 53.7237 92.2943 53.4937C92.3999 53.2636 92.4099 53.0021 92.3152 52.7627L89.3518 44.9218C89.1657 44.4305 88.614 44.1836 88.1184 44.3658L83.0533 46.2755C82.4103 46.5188 81.681 46.3061 81.2838 45.7571C80.1013 44.126 78.7151 42.6447 77.1564 41.3646C76.6354 40.9366 76.4642 40.1957 76.7515 39.5642L78.9798 34.6344C79.1939 34.1538 78.9832 33.5864 78.5026 33.3722L70.8635 29.9231C70.6334 29.8175 70.3719 29.8074 70.1325 29.9022C69.8969 29.9926 69.7068 30.1702 69.6013 30.4003L67.3731 35.3301C67.0934 35.953 66.4245 36.3201 65.7541 36.2143C63.7629 35.8916 61.7372 35.8318 59.7335 36.0236C59.0562 36.0894 58.418 35.6801 58.1747 35.037L56.2613 29.9762C56.0752 29.485 55.5234 29.2381 55.0278 29.4203L47.187 32.3837C46.6957 32.5697 46.4407 33.122 46.631 33.6171L48.5445 38.6779C48.7878 39.3209 48.5751 40.0502 48.0262 40.4474C46.395 41.6299 44.9137 43.0161 43.6336 44.5748C43.2013 45.0919 42.4648 45.267 41.8333 44.9797L36.9035 42.7515C36.4228 42.5373 35.8554 42.748 35.6413 43.2286L32.1921 50.8677C32.0865 51.0978 32.0765 51.3593 32.1712 51.5987C32.2616 51.8343 32.4392 52.0244 32.6693 52.1299L37.5991 54.3581C38.2263 54.6417 38.5891 55.3067 38.4833 55.9771C38.1645 57.964 38.1008 59.994 38.2926 61.9977C38.3584 62.675 37.9534 63.317 37.306 63.5565L32.2453 65.47C32.0097 65.5604 31.8197 65.738 31.7141 65.9681C31.6085 66.1981 31.5984 66.4596 31.6931 66.6991L34.6566 74.5399C34.747 74.7755 34.9246 74.9655 35.159 75.0749C35.389 75.1805 35.6505 75.1906 35.89 75.0959L40.9507 73.1824C41.5938 72.9391 42.3231 73.1518 42.7203 73.7008C43.9027 75.3319 45.289 76.8132 46.8477 78.0933C47.3687 78.5213 47.536 79.2664 47.2525 79.8936L45.0243 84.8235C44.8102 85.3041 45.0208 85.8715 45.5015 86.0856L53.1406 89.5348C53.6213 89.7489 54.1887 89.5383 54.4028 89.0576L56.631 84.1278C56.9145 83.5006 57.5796 83.1378 58.25 83.2436C60.2369 83.5624 62.263 83.6304 64.2705 83.4343C64.9478 83.3685 65.586 83.7778 65.8294 84.4209L67.7428 89.4817C67.8332 89.7172 68.0109 89.9073 68.2452 90.0167C68.4753 90.1223 68.7368 90.1323 68.9762 90.0376L76.8171 87.0742C77.0569 86.9876 77.2427 86.8061 77.3483 86.5761C77.4538 86.346 77.4639 86.0845 77.3692 85.8451L75.4557 80.7843C75.2124 80.1413 75.4251 79.4119 75.9741 79.0148C77.6052 77.8323 79.0865 76.446 80.3667 74.8874C80.382 74.8702 80.3935 74.8574 80.4089 74.8402L80.417 74.8397ZM72.863 69.3799C70.9654 71.4985 68.477 73.0339 65.6752 73.763C61.5309 74.8432 57.1369 74.0533 53.6051 71.5933C47.7919 67.5381 45.7404 59.6716 48.8309 53.2958C50.7056 49.4251 54.1618 46.5847 58.298 45.505C62.4424 44.4248 66.8364 45.2146 70.3682 47.6747C76.1813 51.7299 78.2329 59.5964 75.1423 65.9722C74.5342 67.2207 73.7653 68.3639 72.8587 69.376L72.863 69.3799ZM51.5477 50.2799C50.6795 51.2492 49.9366 52.3461 49.3545 53.5483C46.3849 59.6769 48.3539 67.2299 53.942 71.1222C57.3298 73.4841 61.5551 74.2465 65.5386 73.2078C69.514 72.1696 72.8298 69.4429 74.6355 65.7269C77.605 59.5983 75.636 52.0453 70.0479 48.153C66.6601 45.7911 62.4348 45.0287 58.4513 46.0674C55.7581 46.7701 53.3685 48.2471 51.5477 50.2799Z" fill="#202838"/>
<path d="M41.7265 38.0863C41.6996 38.1163 41.6727 38.1463 41.6372 38.1687L39.1 40.2246C38.9399 40.3517 38.7393 40.4117 38.5304 40.3946C38.3254 40.3733 38.1402 40.2693 38.0093 40.1134L36.6796 38.4741C36.623 38.4079 36.5318 38.3803 36.4561 38.413C35.7037 38.7439 34.9134 38.979 34.1053 39.1131C34.0244 39.1257 33.9591 39.1986 33.9516 39.2847L33.7328 41.3843C33.7115 41.5894 33.6118 41.7783 33.4516 41.9054C33.2914 42.0325 33.0908 42.0924 32.8819 42.0754L29.6299 41.7365C29.4249 41.7151 29.2398 41.6111 29.1089 41.4552C28.9818 41.2951 28.9219 41.0945 28.9389 40.8856L29.1577 38.786C29.1652 38.6999 29.1158 38.617 29.0366 38.5847C28.2741 38.2882 27.5512 37.8958 26.8807 37.4189C26.813 37.3737 26.7193 37.3748 26.6488 37.4276L25.0095 38.7573C24.8493 38.8844 24.6487 38.9443 24.4437 38.923C24.2386 38.9017 24.0535 38.7977 23.9226 38.6418L21.8667 36.1046C21.7396 35.9444 21.6796 35.7439 21.701 35.5388C21.7223 35.3338 21.8263 35.1486 21.9822 35.0177L23.6215 33.688C23.6877 33.6314 23.7153 33.5402 23.6826 33.4645C23.3479 32.7164 23.1128 31.9261 22.9868 31.1175C22.9741 31.0367 22.9012 30.9714 22.8152 30.9639L20.7156 30.745C20.293 30.699 19.9827 30.3205 20.0288 29.898L20.3677 26.646C20.4138 26.2235 20.7922 25.9132 21.2147 25.9593L23.3144 26.1781C23.4004 26.1856 23.4833 26.1362 23.5118 26.0612C23.8083 25.2988 24.1964 24.572 24.6776 23.9054C24.7228 23.8377 24.7217 23.744 24.6689 23.6735L23.3392 22.0341C23.2121 21.874 23.1522 21.6734 23.1735 21.4684C23.1948 21.2633 23.295 21.0825 23.4547 20.9473L25.9919 18.8913C26.3238 18.6244 26.8118 18.675 27.0787 19.0069L28.4085 20.6462C28.4651 20.7124 28.5563 20.74 28.632 20.7073C29.3801 20.3726 30.1704 20.1375 30.979 20.0114C31.0598 19.9988 31.1251 19.9259 31.1326 19.8399L31.3515 17.7402C31.3728 17.5352 31.4725 17.3462 31.6327 17.2192C31.7928 17.0921 31.9973 17.0278 32.1985 17.0535L35.4505 17.3924C35.6555 17.4137 35.8363 17.5139 35.9715 17.6736C36.0986 17.8338 36.1585 18.0343 36.1372 18.2394L35.9184 20.339C35.9109 20.4251 35.9603 20.508 36.0352 20.5365C36.7977 20.8329 37.5206 21.2254 38.1911 21.7022C38.2588 21.7474 38.3525 21.7464 38.423 21.6936L40.0623 20.3638C40.3942 20.0969 40.8822 20.1475 41.1492 20.4794L43.2052 23.0166C43.3322 23.1767 43.3922 23.3773 43.3708 23.5823C43.3495 23.7874 43.2536 23.9721 43.0896 24.1034L41.4503 25.4331C41.3879 25.4855 41.3565 25.581 41.3892 25.6567C41.7239 26.4048 41.959 27.1951 42.0894 28.0075C42.102 28.0883 42.1749 28.1536 42.2609 28.1611L44.3606 28.38C44.7831 28.426 45.0934 28.8045 45.0473 29.227L44.7122 32.4747C44.6662 32.8972 44.2877 33.2075 43.8652 33.1614L41.7656 32.9426C41.6795 32.9351 41.5966 32.9845 41.5681 33.0595C41.2717 33.8219 40.8835 34.5487 40.4024 35.2153C40.3572 35.283 40.3583 35.3767 40.4111 35.4472L41.7408 37.0866C41.8678 37.2467 41.9278 37.4473 41.9065 37.6524C41.891 37.8163 41.8259 37.9667 41.7183 38.0868L41.7265 38.0863ZM33.5781 38.7956C33.6934 38.6669 33.8477 38.5809 34.0213 38.551C34.7811 38.4276 35.5231 38.2033 36.2319 37.8952C36.5423 37.7558 36.9182 37.8452 37.1371 38.1186L38.4668 39.758C38.5016 39.7968 38.544 39.8271 38.5971 39.8283C38.6463 39.8337 38.6985 39.8186 38.7417 39.7877L41.2788 37.7317C41.3177 37.697 41.348 37.6545 41.3491 37.6015C41.3546 37.5522 41.3395 37.5001 41.3086 37.4569L39.9788 35.8176C39.7561 35.5485 39.747 35.1617 39.948 34.8856C40.3988 34.2614 40.7691 33.5805 41.0434 32.86C41.1685 32.5392 41.492 32.342 41.8404 32.3758L43.9401 32.5946C44.0466 32.6051 44.1445 32.5304 44.1588 32.4195L44.4938 29.1718C44.5043 29.0652 44.4296 28.9674 44.3187 28.9531L42.219 28.7343C41.8745 28.6961 41.5952 28.4383 41.5358 28.0991C41.4125 27.3393 41.192 26.5931 40.88 25.8885C40.7445 25.5739 40.8382 25.2018 41.1034 24.9833L42.7428 23.6536C42.7859 23.6227 42.8119 23.5764 42.8131 23.5233C42.8185 23.4741 42.8034 23.4219 42.7725 23.3788L40.7165 20.8416C40.6466 20.7557 40.5237 20.7462 40.4417 20.8119L38.8024 22.1416C38.529 22.3605 38.1465 22.3734 37.8704 22.1725C37.2462 21.7216 36.5653 21.3513 35.8448 21.077C35.524 20.952 35.3268 20.6285 35.3606 20.28L35.5794 18.1804C35.5849 18.1311 35.5698 18.079 35.5389 18.0358C35.5041 17.997 35.4617 17.9667 35.4086 17.9655L32.1566 17.6266C32.1074 17.6212 32.0552 17.6363 32.012 17.6672C31.977 17.6976 31.9429 17.7444 31.9417 17.7974L31.7229 19.8971C31.6848 20.2417 31.427 20.5209 31.0877 20.5803C30.328 20.7037 29.5817 20.9242 28.8772 21.2361C28.5668 21.3755 28.1909 21.2861 27.972 21.0127L26.6422 19.3734C26.5723 19.2875 26.4494 19.278 26.3674 19.3437L23.8302 21.3996C23.7482 21.4653 23.7348 21.5924 23.8005 21.6744L25.1302 23.3138C25.3491 23.5871 25.362 23.9697 25.1611 24.2458C24.7103 24.87 24.34 25.5509 24.0657 26.2713C23.9406 26.5922 23.6171 26.7894 23.2687 26.7555L21.169 26.5367C21.0624 26.5263 20.9646 26.601 20.9503 26.7118L20.6114 29.9638C20.601 30.0704 20.6757 30.1682 20.7865 30.1825L22.8862 30.4014C23.2308 30.4395 23.51 30.6973 23.5656 31.0408C23.6889 31.8006 23.9132 32.5426 24.2252 33.2471C24.3607 33.5617 24.2713 33.9377 24.0018 34.1523L22.3625 35.482C22.3198 35.5211 22.2933 35.5592 22.2922 35.6123C22.2867 35.6615 22.3018 35.7137 22.3327 35.7568L24.3887 38.294C24.4234 38.3329 24.4659 38.3632 24.519 38.3643C24.5682 38.3698 24.6204 38.3547 24.6635 38.3238L26.3028 36.994C26.5762 36.7751 26.9588 36.7622 27.2349 36.9632C27.859 37.414 28.5399 37.7843 29.2604 38.0586C29.5813 38.1837 29.7785 38.5072 29.7446 38.8556L29.5258 40.9553C29.5204 41.0045 29.5355 41.0567 29.5664 41.0998C29.6011 41.1387 29.6436 41.169 29.6966 41.1701L32.9486 41.509C32.9979 41.5145 33.05 41.4994 33.0932 41.4685C33.1325 41.4418 33.1623 41.3913 33.1635 41.3382L33.3823 39.2385C33.4016 39.0703 33.4667 38.9199 33.5743 38.7998L33.5781 38.7956ZM36.9172 33.454C36.6829 33.7156 36.4228 33.9542 36.1375 34.1778C34.7684 35.2317 33.0164 35.6257 31.3332 35.2698C29.6501 34.9139 28.2126 33.835 27.3911 32.3186C26.0341 29.8123 26.7147 26.619 28.9719 24.8842C30.341 23.8303 32.093 23.4363 33.7761 23.7922C35.4593 24.1481 36.8968 25.227 37.7182 26.7434C38.9067 28.9287 38.5344 31.6484 36.9172 33.454ZM35.7901 33.7199C37.8244 32.1564 38.4406 29.2765 37.2156 27.0198C36.4715 25.65 35.1785 24.6773 33.6602 24.3531C32.1419 24.0289 30.5636 24.393 29.323 25.3379C27.2888 26.9013 26.6726 29.7812 27.8976 32.0379C28.6417 33.4078 29.9347 34.3804 31.453 34.7046C32.9713 35.0288 34.5496 34.6647 35.7901 33.7199Z" fill="#2AAFEB"/>
<path d="M57.4169 66.129L57.3767 66.1394C57.1488 66.2213 56.877 66.171 56.6925 66.0058C56.521 65.8521 56.4382 65.608 56.4933 65.3481L57.6198 60.9233C57.6499 60.8034 57.7019 60.7108 57.7749 60.6294C58.0284 60.3463 58.4645 60.3427 58.739 60.5886C58.9062 60.7384 58.9967 60.974 58.9412 61.2257L58.1238 64.451L61.2589 63.3326C61.4902 63.2383 61.7501 63.2934 61.9345 63.4585C62.209 63.7044 62.2447 64.1305 61.9988 64.405C61.9258 64.4865 61.8357 64.5526 61.7275 64.5871L57.4212 66.1329L57.4169 66.129Z" fill="#202838"/>
<path d="M63.8869 64.3275C63.8269 64.2738 63.7741 64.2033 63.7294 64.1323L58.9902 56.0304C58.8011 55.7065 58.8567 55.3079 59.0948 55.042C59.429 54.6689 59.9697 54.7125 60.3342 55.039C60.4028 55.1005 60.4599 55.1748 60.5046 55.2458L65.1752 63.2862C65.3566 63.6188 65.3087 64.0088 65.0705 64.2747C65.0168 64.3347 64.9625 64.3866 64.8835 64.4317C64.5548 64.6088 64.1528 64.5657 63.8869 64.3275Z" fill="#202838"/>
<path d="M63.1702 56.4964C62.926 56.5791 62.6819 56.5151 62.5146 56.3653C62.2402 56.1194 62.1921 55.6899 62.4494 55.4025C62.5224 55.321 62.6087 55.2592 62.7246 55.2161L66.9991 53.611C67.2514 53.5278 67.5117 53.5909 67.6833 53.7446C67.8548 53.8982 67.9428 54.1625 67.8826 54.4023L67.8728 54.4477L66.8165 58.889C66.7941 59.0003 66.7382 59.0971 66.6652 59.1786C66.4156 59.4574 65.9876 59.4605 65.7174 59.2185C65.533 59.0534 65.4455 58.7972 65.5181 58.5608L66.282 55.3262L63.1697 56.4882L63.1702 56.4964Z" fill="#202838"/>
<path d="M46.5483 71.442C46.5483 71.442 46.5215 71.472 46.5056 71.4811C46.3762 71.5738 46.1994 71.5468 46.1028 71.4217C41.7716 65.548 41.0135 57.5491 44.1705 51.0474C44.9868 49.3593 46.0269 47.8097 47.2519 46.4335C47.3595 46.3134 47.5383 46.3036 47.6584 46.4111C47.7785 46.5187 47.7883 46.6976 47.6808 46.8176C46.4861 48.1514 45.4806 49.6624 44.6859 51.3004C41.6248 57.6174 42.3618 65.381 46.5693 71.0821C46.653 71.1957 46.641 71.3472 46.5526 71.4459L46.5483 71.442Z" fill="white"/>
<path d="M76.7219 72.8328C74.152 75.702 70.7803 77.7834 66.982 78.7794C61.3707 80.246 55.4076 79.1715 50.6288 75.8341C50.5014 75.7433 50.4672 75.5657 50.5576 75.4303C50.6442 75.2991 50.826 75.2687 50.9614 75.3591C55.6043 78.598 61.3902 79.6374 66.8369 78.2165C72.2835 76.7956 76.8281 73.0594 79.296 67.9655C83.3643 59.5747 80.6667 49.228 73.018 43.8997C66.8147 39.5724 58.619 39.2731 52.1404 43.132C52.0062 43.2128 51.8285 43.1695 51.7434 43.0315C51.6627 42.8973 51.7059 42.7196 51.8439 42.6346C58.52 38.6588 66.9566 38.9653 73.3464 43.4209C81.2244 48.916 84.0041 59.5681 79.8153 68.2142C78.9951 69.9066 77.9468 71.4566 76.7214 72.8247L76.7219 72.8328Z" fill="white"/>
<path d="M74.2141 70.5857C72.0821 72.9659 69.2865 74.6977 66.1348 75.5153C61.476 76.7298 56.5301 75.8398 52.5658 73.0774C46.0277 68.5198 43.7227 59.6764 47.2016 52.5045C49.3148 48.1519 53.1922 44.9621 57.851 43.7476C62.5099 42.5331 67.4558 43.423 71.4162 46.1898C77.9543 50.7474 80.2593 59.5908 76.7843 66.7583C76.1033 68.1658 75.2363 69.453 74.2183 70.5895L74.2141 70.5857ZM50.0896 48.9696C49.0985 50.0761 48.2542 51.3294 47.5915 52.6992C44.208 59.6782 46.4513 68.2885 52.8157 72.7293C56.6785 75.4239 61.4925 76.2885 66.0307 75.1051C70.5608 73.9222 74.3409 70.8152 76.3991 66.5757C79.7826 59.5966 77.5393 50.9863 71.1749 46.5456C67.3121 43.8509 62.4981 42.9863 57.9637 44.1654C54.8967 44.9662 52.1678 46.6494 50.0935 48.9653L50.0896 48.9696Z" fill="white"/>
</svg>
