<svg width="128" height="98" viewBox="0 0 128 98" fill="none" xmlns="http://www.w3.org/2000/svg">
<g clip-path="url(#clip0_337_13569)">
<path d="M99.5847 28.707H4.21094V82.7278H99.5847V28.707Z" fill="white"/>
<path d="M99.5849 83.2375H4.21119C3.88183 83.2375 3.62305 83.0133 3.62305 82.7278V28.707C3.62305 28.4215 3.88183 28.1973 4.21119 28.1973H99.5849C99.9143 28.1973 100.173 28.4215 100.173 28.707V82.7278C100.173 83.0133 99.9143 83.2375 99.5849 83.2375ZM4.79934 82.2181H98.9968V29.2167H4.79934V82.2181Z" fill="#202838"/>
<path d="M115.335 0.509766H6.86947C3.66021 0.509766 1.05859 2.7645 1.05859 5.54586V25.7004C1.05859 28.4818 3.66021 30.7365 6.86947 30.7365H115.335C118.545 30.7365 121.146 28.4818 121.146 25.7004V5.54586C121.146 2.7645 118.545 0.509766 115.335 0.509766Z" fill="#202838"/>
<path d="M115.336 31.2462H6.86973C3.34086 31.2462 0.470703 28.7588 0.470703 25.7004V5.54582C0.470703 2.48747 3.34086 0 6.86973 0H115.336C118.864 0 121.735 2.48747 121.735 5.54582V25.7106C121.735 28.769 118.864 31.2564 115.336 31.2564V31.2462ZM6.86973 1.01945C3.98782 1.01945 1.64699 3.04816 1.64699 5.54582V25.7106C1.64699 28.2083 3.98782 30.237 6.86973 30.237H115.336C118.218 30.237 120.558 28.2083 120.558 25.7106V5.54582C120.558 3.04816 118.218 1.01945 115.336 1.01945H6.86973Z" fill="#202838"/>
<path d="M115.335 33.5293H6.86947C3.66021 33.5293 1.05859 35.784 1.05859 38.5654V58.72C1.05859 61.5013 3.66021 63.7561 6.86947 63.7561H115.335C118.545 63.7561 121.146 61.5013 121.146 58.72V38.5654C121.146 35.784 118.545 33.5293 115.335 33.5293Z" fill="#202838"/>
<path d="M115.336 64.256H6.86973C3.34086 64.256 0.470703 61.7685 0.470703 58.7204V38.5556C0.470703 35.4972 3.34086 33.0098 6.86973 33.0098H115.336C118.864 33.0098 121.735 35.4972 121.735 38.5556V58.7204C121.735 61.7787 118.864 64.256 115.336 64.256ZM6.86973 34.0394C3.98782 34.0394 1.64699 36.0681 1.64699 38.5658V58.7306C1.64699 61.2282 3.98782 63.2467 6.86973 63.2467H115.336C118.218 63.2467 120.558 61.218 120.558 58.7306V38.5658C120.558 36.0681 118.218 34.0394 115.336 34.0394H6.86973Z" fill="#202838"/>
<path d="M115.335 67.2734H6.86947C3.66021 67.2734 1.05859 69.5282 1.05859 72.3095V92.4641C1.05859 95.2455 3.66021 97.5002 6.86947 97.5002H115.335C118.545 97.5002 121.146 95.2455 121.146 92.4641V72.3095C121.146 69.5282 118.545 67.2734 115.335 67.2734Z" fill="#202838"/>
<path d="M115.336 98.0006H6.86973C3.34086 98.0006 0.470703 95.5131 0.470703 92.4547V72.29C0.470703 69.2316 3.34086 66.7441 6.86973 66.7441H115.336C118.864 66.7441 121.735 69.2316 121.735 72.29V92.4547C121.735 95.5131 118.864 98.0006 115.336 98.0006ZM6.86973 67.784C3.98782 67.784 1.64699 69.8127 1.64699 72.3104V92.4751C1.64699 94.9728 3.98782 97.0015 6.86973 97.0015H115.336C118.218 97.0015 120.558 94.9728 120.558 92.4751V72.3104C120.558 69.8127 118.218 67.784 115.336 67.784H6.86973Z" fill="#202838"/>
<path d="M25.7607 0.509766H121.134C124.146 0.509766 126.592 2.63023 126.592 5.24003V25.9961C126.592 28.6059 124.146 30.7263 121.134 30.7263H25.7607C22.7494 30.7263 20.3027 28.6059 20.3027 25.9961V5.24003C20.3027 2.63023 22.7494 0.509766 25.7607 0.509766Z" fill="white"/>
<path d="M121.146 31.2462H25.761C22.4203 31.2462 19.7148 28.8913 19.7148 26.0062V5.23999C19.7148 2.34474 22.4321 0 25.761 0H121.135C124.475 0 127.181 2.35494 127.181 5.23999V25.996C127.181 28.8913 124.464 31.236 121.135 31.236L121.146 31.2462ZM25.761 1.01945C23.0673 1.01945 20.8911 2.91563 20.8911 5.23999V25.996C20.8911 28.3204 23.079 30.2166 25.761 30.2166H121.135C123.828 30.2166 126.005 28.3204 126.005 25.996V5.23999C126.005 2.91563 123.817 1.01945 121.135 1.01945H25.761Z" fill="#202838"/>
<path d="M42.1457 15.619C42.1457 18.188 39.746 20.2575 36.7935 20.2575C33.841 20.2575 31.4414 18.1778 31.4414 15.619C31.4414 13.0602 33.841 10.9805 36.7935 10.9805C39.746 10.9805 42.1457 13.0602 42.1457 15.619Z" fill="white"/>
<path d="M36.7938 20.7769C33.5119 20.7769 30.8535 18.4628 30.8535 15.6287C30.8535 12.7946 33.5237 10.4805 36.7938 10.4805C40.0639 10.4805 42.7341 12.7946 42.7341 15.6287C42.7341 18.4628 40.0639 20.7769 36.7938 20.7769ZM36.7938 11.4897C34.1589 11.4897 32.0298 13.3451 32.0298 15.6185C32.0298 17.8919 34.1707 19.7473 36.7938 19.7473C39.4169 19.7473 41.5578 17.8919 41.5578 15.6185C41.5578 13.3451 39.4169 11.4897 36.7938 11.4897Z" fill="#202838"/>
<path d="M115.593 9.61328H54.0027C53.6064 9.61328 53.2852 9.8917 53.2852 10.2351V21.0108C53.2852 21.3542 53.6064 21.6326 54.0027 21.6326H115.593C115.99 21.6326 116.311 21.3542 116.311 21.0108V10.2351C116.311 9.8917 115.99 9.61328 115.593 9.61328Z" fill="white"/>
<path d="M115.594 22.1423H54.0029C53.2854 22.1423 52.6973 21.6326 52.6973 21.0107V10.2351C52.6973 9.61324 53.2854 9.10352 54.0029 9.10352H115.594C116.311 9.10352 116.899 9.61324 116.899 10.2351V21.0107C116.899 21.6326 116.311 22.1423 115.594 22.1423ZM54.0029 10.123C53.9324 10.123 53.8736 10.1739 53.8736 10.2351V21.0107C53.8736 21.0719 53.9324 21.1229 54.0029 21.1229H115.594C115.664 21.1229 115.723 21.0719 115.723 21.0107V10.2351C115.723 10.1739 115.664 10.123 115.594 10.123H54.0029Z" fill="#202838"/>
<path d="M80.176 14.0995H59.3792C59.0498 14.0995 58.791 13.8753 58.791 13.5898C58.791 13.3044 59.0498 13.0801 59.3792 13.0801H80.176C80.5054 13.0801 80.7641 13.3044 80.7641 13.5898C80.7641 13.8753 80.5054 14.0995 80.176 14.0995Z" fill="#7FD6C3"/>
<path d="M96.7736 14.0995H84.3049C83.9756 14.0995 83.7168 13.8753 83.7168 13.5898C83.7168 13.3044 83.9756 13.0801 84.3049 13.0801H96.7736C97.103 13.0801 97.3618 13.3044 97.3618 13.5898C97.3618 13.8753 97.103 14.0995 96.7736 14.0995Z" fill="#8BBFEF" fill-opacity="0.2"/>
<path d="M73.5529 18.0136H61.0842C60.7549 18.0136 60.4961 17.7893 60.4961 17.5039C60.4961 17.2184 60.7549 16.9941 61.0842 16.9941H73.5529C73.8823 16.9941 74.1411 17.2184 74.1411 17.5039C74.1411 17.7893 73.8823 18.0136 73.5529 18.0136Z" fill="#8BBFEF" fill-opacity="0.2"/>
<path d="M109.135 14.0995H101.819C101.489 14.0995 101.23 13.8753 101.23 13.5898C101.23 13.3044 101.489 13.0801 101.819 13.0801H109.135C109.465 13.0801 109.723 13.3044 109.723 13.5898C109.723 13.8753 109.465 14.0995 109.135 14.0995Z" fill="#7FD6C3"/>
<path d="M91.0687 18.3495H83.7522C83.4228 18.3495 83.1641 18.1253 83.1641 17.8398C83.1641 17.5544 83.4228 17.3301 83.7522 17.3301H91.0687C91.3981 17.3301 91.6569 17.5544 91.6569 17.8398C91.6569 18.1253 91.3981 18.3495 91.0687 18.3495Z" fill="#7FD6C3"/>
<path d="M25.7607 33.5293H121.134C124.146 33.5293 126.592 35.6498 126.592 38.2596V59.0156C126.592 61.6254 124.146 63.7459 121.134 63.7459H25.7607C22.7494 63.7459 20.3027 61.6254 20.3027 59.0156V38.2596C20.3027 35.6498 22.7494 33.5293 25.7607 33.5293Z" fill="white"/>
<path d="M121.146 64.2556H25.761C22.4203 64.2556 19.7148 61.9006 19.7148 59.0156V38.2595C19.7148 35.3643 22.4321 33.0195 25.761 33.0195H121.135C124.475 33.0195 127.181 35.3745 127.181 38.2595V59.0156C127.181 61.9108 124.464 64.2556 121.135 64.2556H121.146ZM25.761 34.039C23.0673 34.039 20.8911 35.9352 20.8911 38.2595V59.0156C20.8911 61.3399 23.079 63.2361 25.761 63.2361H121.135C123.828 63.2361 126.005 61.3399 126.005 59.0156V38.2595C126.005 35.9352 123.817 34.039 121.135 34.039H25.761Z" fill="#202838"/>
<path d="M42.1457 48.6385C42.1457 51.2075 39.746 53.277 36.7935 53.277C33.841 53.277 31.4414 51.1973 31.4414 48.6385C31.4414 46.0797 33.841 44 36.7935 44C39.746 44 42.1457 46.0797 42.1457 48.6385Z" fill="white"/>
<path d="M36.7938 53.7867C33.5119 53.7867 30.8535 51.4725 30.8535 48.6385C30.8535 45.8044 33.5237 43.4902 36.7938 43.4902C40.0639 43.4902 42.7341 45.8044 42.7341 48.6385C42.7341 51.4725 40.0639 53.7867 36.7938 53.7867ZM36.7938 44.4995C34.1589 44.4995 32.0298 46.3549 32.0298 48.6283C32.0298 50.9017 34.1707 52.7571 36.7938 52.7571C39.4169 52.7571 41.5578 50.9017 41.5578 48.6283C41.5578 46.3549 39.4169 44.4995 36.7938 44.4995Z" fill="#202838"/>
<path d="M115.593 42.6328H54.0027C53.6064 42.6328 53.2852 42.9112 53.2852 43.2547V54.0303C53.2852 54.3737 53.6064 54.6522 54.0027 54.6522H115.593C115.99 54.6522 116.311 54.3737 116.311 54.0303V43.2547C116.311 42.9112 115.99 42.6328 115.593 42.6328Z" fill="white"/>
<path d="M115.594 55.1521H54.0029C53.2854 55.1521 52.6973 54.6424 52.6973 54.0205V43.2449C52.6973 42.623 53.2854 42.1133 54.0029 42.1133H115.594C116.311 42.1133 116.899 42.623 116.899 43.2449V54.0205C116.899 54.6424 116.311 55.1521 115.594 55.1521ZM54.0029 43.1429C53.9324 43.1429 53.8736 43.1939 53.8736 43.2551V54.0307C53.8736 54.0919 53.9324 54.1428 54.0029 54.1428H115.594C115.664 54.1428 115.723 54.0919 115.723 54.0307V43.2551C115.723 43.1939 115.664 43.1429 115.594 43.1429H54.0029Z" fill="#202838"/>
<path d="M80.176 47.1093H59.3792C59.0498 47.1093 58.791 46.885 58.791 46.5996C58.791 46.3141 59.0498 46.0898 59.3792 46.0898H80.176C80.5054 46.0898 80.7641 46.3141 80.7641 46.5996C80.7641 46.885 80.5054 47.1093 80.176 47.1093Z" fill="#7FD6C3"/>
<path d="M96.7736 47.1093H84.3049C83.9756 47.1093 83.7168 46.885 83.7168 46.5996C83.7168 46.3141 83.9756 46.0898 84.3049 46.0898H96.7736C97.103 46.0898 97.3618 46.3141 97.3618 46.5996C97.3618 46.885 97.103 47.1093 96.7736 47.1093Z" fill="#8BBFEF" fill-opacity="0.2"/>
<path d="M73.5529 51.0234H61.0842C60.7549 51.0234 60.4961 50.7991 60.4961 50.5136C60.4961 50.2282 60.7549 50.0039 61.0842 50.0039H73.5529C73.8823 50.0039 74.1411 50.2282 74.1411 50.5136C74.1411 50.7991 73.8823 51.0234 73.5529 51.0234Z" fill="#8BBFEF" fill-opacity="0.2"/>
<path d="M109.135 47.1093H101.819C101.489 47.1093 101.23 46.885 101.23 46.5996C101.23 46.3141 101.489 46.0898 101.819 46.0898H109.135C109.465 46.0898 109.723 46.3141 109.723 46.5996C109.723 46.885 109.465 47.1093 109.135 47.1093Z" fill="#7FD6C3"/>
<path d="M91.0687 51.3593H83.7522C83.4228 51.3593 83.1641 51.135 83.1641 50.8496C83.1641 50.5641 83.4228 50.3398 83.7522 50.3398H91.0687C91.3981 50.3398 91.6569 50.5641 91.6569 50.8496C91.6569 51.135 91.3981 51.3593 91.0687 51.3593Z" fill="#7FD6C3"/>
<path d="M121.133 30.7363H25.7598V33.5296H121.133V30.7363Z" fill="#202838"/>
<path d="M121.146 34.0393H25.76C25.4307 34.0393 25.1719 33.815 25.1719 33.5296V30.7363C25.1719 30.4508 25.4307 30.2266 25.76 30.2266H121.134C121.463 30.2266 121.722 30.4508 121.722 30.7363V33.5296C121.722 33.815 121.463 34.0393 121.134 34.0393H121.146ZM26.3482 33.0199H120.546V31.246H26.3482V33.0199Z" fill="#202838"/>
<path d="M25.7607 67.2734H121.134C124.146 67.2734 126.592 69.3939 126.592 72.0037V92.7598C126.592 95.3696 124.146 97.49 121.134 97.49H25.7607C22.7494 97.49 20.3027 95.3696 20.3027 92.7598V72.0037C20.3027 69.3939 22.7494 67.2734 25.7607 67.2734Z" fill="white"/>
<path d="M121.146 97.9997H25.761C22.4203 97.9997 19.7148 95.6448 19.7148 92.7597V72.0037C19.7148 69.1084 22.4321 66.7637 25.761 66.7637H121.135C124.475 66.7637 127.181 69.1186 127.181 72.0037V92.7597C127.181 95.655 124.464 97.9997 121.135 97.9997H121.146ZM25.761 67.7831C23.0673 67.7831 20.8911 69.6793 20.8911 72.0037V92.7597C20.8911 95.0841 23.079 96.9803 25.761 96.9803H121.135C123.828 96.9803 126.005 95.0841 126.005 92.7597V72.0037C126.005 69.6793 123.817 67.7831 121.135 67.7831H25.761Z" fill="#202838"/>
<path d="M42.1457 82.3826C42.1457 84.9517 39.746 87.0212 36.7935 87.0212C33.841 87.0212 31.4414 84.9415 31.4414 82.3826C31.4414 79.8238 33.841 77.7441 36.7935 77.7441C39.746 77.7441 42.1457 79.8238 42.1457 82.3826Z" fill="white"/>
<path d="M36.7938 87.5308C33.5119 87.5308 30.8535 85.2167 30.8535 82.3826C30.8535 79.5485 33.5237 77.2344 36.7938 77.2344C40.0639 77.2344 42.7341 79.5485 42.7341 82.3826C42.7341 85.2167 40.0639 87.5308 36.7938 87.5308ZM36.7938 78.2538C34.1589 78.2538 32.0298 80.1092 32.0298 82.3826C32.0298 84.656 34.1707 86.5114 36.7938 86.5114C39.4169 86.5114 41.5578 84.656 41.5578 82.3826C41.5578 80.1092 39.4169 78.2538 36.7938 78.2538Z" fill="#202838"/>
<path d="M115.593 76.377H54.0027C53.6064 76.377 53.2852 76.6554 53.2852 76.9988V87.7744C53.2852 88.1179 53.6064 88.3963 54.0027 88.3963H115.593C115.99 88.3963 116.311 88.1179 116.311 87.7744V76.9988C116.311 76.6554 115.99 76.377 115.593 76.377Z" fill="white"/>
<path d="M115.594 88.8962H54.0029C53.2854 88.8962 52.6973 88.3865 52.6973 87.7646V76.989C52.6973 76.3671 53.2854 75.8574 54.0029 75.8574H115.594C116.311 75.8574 116.899 76.3671 116.899 76.989V87.7646C116.899 88.3865 116.311 88.8962 115.594 88.8962ZM54.0029 76.8871C53.9324 76.8871 53.8736 76.938 53.8736 76.9992V87.7748C53.8736 87.836 53.9324 87.887 54.0029 87.887H115.594C115.664 87.887 115.723 87.836 115.723 87.7748V76.9992C115.723 76.938 115.664 76.8871 115.594 76.8871H54.0029Z" fill="#202838"/>
<path d="M80.176 80.8534H59.3792C59.0498 80.8534 58.791 80.6292 58.791 80.3437C58.791 80.0583 59.0498 79.834 59.3792 79.834H80.176C80.5054 79.834 80.7641 80.0583 80.7641 80.3437C80.7641 80.6292 80.5054 80.8534 80.176 80.8534Z" fill="#7FD6C3"/>
<path d="M96.7736 80.8534H84.3049C83.9756 80.8534 83.7168 80.6292 83.7168 80.3437C83.7168 80.0583 83.9756 79.834 84.3049 79.834H96.7736C97.103 79.834 97.3618 80.0583 97.3618 80.3437C97.3618 80.6292 97.103 80.8534 96.7736 80.8534Z" fill="#8BBFEF" fill-opacity="0.2"/>
<path d="M73.5529 84.7675H61.0842C60.7549 84.7675 60.4961 84.5432 60.4961 84.2578C60.4961 83.9723 60.7549 83.748 61.0842 83.748H73.5529C73.8823 83.748 74.1411 83.9723 74.1411 84.2578C74.1411 84.5432 73.8823 84.7675 73.5529 84.7675Z" fill="#8BBFEF" fill-opacity="0.2"/>
<path d="M109.135 80.8534H101.819C101.489 80.8534 101.23 80.6292 101.23 80.3437C101.23 80.0583 101.489 79.834 101.819 79.834H109.135C109.465 79.834 109.723 80.0583 109.723 80.3437C109.723 80.6292 109.465 80.8534 109.135 80.8534Z" fill="#7FD6C3"/>
<path d="M91.0687 85.1034H83.7522C83.4228 85.1034 83.1641 84.8792 83.1641 84.5937C83.1641 84.3083 83.4228 84.084 83.7522 84.084H91.0687C91.3981 84.084 91.6569 84.3083 91.6569 84.5937C91.6569 84.8792 91.3981 85.1034 91.0687 85.1034Z" fill="#7FD6C3"/>
<path d="M121.133 64.4805H25.7598V67.2738H121.133V64.4805Z" fill="#202838"/>
<path d="M121.146 67.7835H25.76C25.4307 67.7835 25.1719 67.5592 25.1719 67.2737V64.4804C25.1719 64.195 25.4307 63.9707 25.76 63.9707H121.134C121.463 63.9707 121.722 64.195 121.722 64.4804V67.2737C121.722 67.5592 121.463 67.7835 121.134 67.7835H121.146ZM26.3482 66.764H120.546V64.9902H26.3482V66.764Z" fill="#202838"/>
</g>
<defs>
<clipPath id="clip0_337_13569">
<rect width="126.722" height="98" fill="white" transform="translate(0.470703)"/>
</clipPath>
</defs>
</svg>
