<svg width="139" height="27" viewBox="0 0 139 27" fill="none" xmlns="http://www.w3.org/2000/svg">
<path d="M138.355 4.35355C138.551 4.15829 138.551 3.84171 138.355 3.64645L135.173 0.464466C134.978 0.269204 134.661 0.269204 134.466 0.464466C134.271 0.659728 134.271 0.976311 134.466 1.17157L137.295 4L134.466 6.82843C134.271 7.02369 134.271 7.34027 134.466 7.53553C134.661 7.7308 134.978 7.7308 135.173 7.53553L138.355 4.35355ZM0.998047 4.5H138.002V3.5H0.998047V4.5Z" fill="#202838" fill-opacity="0.33"/>
<path d="M0.646713 22.1464C0.451447 22.3417 0.451447 22.6583 0.646713 22.8536L3.82869 26.0355C4.02396 26.2308 4.34053 26.2308 4.5358 26.0355C4.73105 25.8403 4.73105 25.5237 4.5358 25.3284L1.70737 22.5L4.5358 19.6716C4.73105 19.4763 4.73105 19.1597 4.5358 18.9645C4.34053 18.7692 4.02396 18.7692 3.82869 18.9645L0.646713 22.1464ZM138.004 22L1.00026 22V23L138.004 23V22Z" fill="#202838" fill-opacity="0.33"/>
</svg>
