<svg width="159" height="132" viewBox="0 0 159 132" fill="none" xmlns="http://www.w3.org/2000/svg">
<g clip-path="url(#clip0_337_13719)">
<path d="M87.1363 124.103L93.6816 100.047H61.6238L55.1465 124.114C55.2882 124.109 55.4298 124.103 55.5715 124.103H87.1363Z" fill="white"/>
<path d="M55.1803 124.398C55.0953 124.398 54.999 124.358 54.9423 124.29C54.8856 124.222 54.8516 124.126 54.8743 124.041L61.3516 99.9733C61.3856 99.8487 61.4989 99.7637 61.6236 99.7637H93.6814C93.7721 99.7637 93.8514 99.8033 93.9081 99.877C93.9591 99.945 93.9818 100.036 93.9534 100.121L87.4081 124.177C87.3741 124.301 87.2608 124.386 87.1361 124.386H55.5713C55.4466 124.386 55.322 124.386 55.1916 124.398H55.1803ZM61.8446 100.325L55.5203 123.814H86.9208L93.3131 100.325H61.8446Z" fill="#202838"/>
<path d="M107.712 125.849C107.604 125.787 107.491 125.724 107.378 125.662C105.604 124.687 103.416 124.104 101.042 124.104H55.5706C55.4289 124.104 55.2872 124.109 55.1456 124.115C51.9381 124.245 49.1103 125.849 47.9599 128.229L46.1465 132.003H111.69C111.69 129.515 110.137 127.294 107.712 125.849Z" fill="#202838"/>
<path d="M152.889 103.163H10.2736C7.57613 103.163 5.38867 100.873 5.38867 98.0511V5.54326C5.38867 2.7211 7.57613 0.431641 10.2736 0.431641H152.895C155.592 0.431641 157.78 2.7211 157.78 5.54326V98.0511C157.78 100.873 155.592 103.163 152.895 103.163H152.889Z" fill="white"/>
<path d="M152.889 103.446H10.2738C7.42328 103.446 5.10548 101.026 5.10548 98.0513V5.54341C5.09981 2.56824 7.42328 0.148438 10.2738 0.148438H152.895C155.745 0.148438 158.063 2.56824 158.063 5.54341V98.0513C158.063 101.026 155.745 103.446 152.895 103.446H152.889ZM10.2738 0.715136C7.73496 0.715136 5.67218 2.87992 5.67218 5.54341V98.0513C5.67218 100.715 7.73496 102.88 10.2738 102.88H152.895C155.434 102.88 157.496 100.715 157.496 98.0513V5.54341C157.496 2.87992 155.434 0.715136 152.895 0.715136H10.2738Z" fill="#202838"/>
<path d="M5.38916 98.0513V5.54345C5.38916 2.74396 7.53694 0.477169 10.2004 0.4375H5.16814C2.47066 0.4375 0.283203 2.72696 0.283203 5.56045V98.2497C0.283203 101.077 2.47066 103.373 5.16814 103.373H147.789C148.265 103.373 148.719 103.299 149.155 103.169H10.2741C7.57661 103.169 5.38916 100.879 5.38916 98.057V98.0513Z" fill="#202838"/>
<path d="M147.789 103.65H5.16829C2.3178 103.65 0 101.225 0 98.2439V5.56041C0 2.57957 2.3178 0.148438 5.16829 0.148438H10.2006V0.715136C7.7071 0.754805 5.67265 2.91959 5.67265 5.53774V98.0456C5.67265 100.709 7.73543 102.874 10.2742 102.874H151.053L149.234 103.429C148.758 103.577 148.271 103.65 147.789 103.65ZM5.16829 0.720803C2.62948 0.720803 0.566699 2.89126 0.566699 5.56041V98.2496C0.566699 100.919 2.62948 103.089 5.16829 103.089H8.41547C6.47736 102.307 5.10595 100.346 5.10595 98.0569V5.54341C5.10595 3.44662 6.27902 1.60485 7.97912 0.720803H5.17396H5.16829Z" fill="#202838"/>
<path d="M14.6895 28.4037V7.60023C14.6895 6.72185 15.4035 6.00781 16.2819 6.00781H147.745C148.623 6.00781 149.337 6.72185 149.337 7.60023V85.1303H14.6895V64.5704" fill="#CACAE5"/>
<path d="M149.343 85.4138H14.6896C14.5309 85.4138 14.4062 85.2891 14.4062 85.1304V64.5706C14.4062 64.4119 14.5309 64.2872 14.6896 64.2872C14.8483 64.2872 14.9729 64.4119 14.9729 64.5706V84.8471H149.054V7.60038C149.054 6.88067 148.464 6.29131 147.745 6.29131H16.282C15.5623 6.29131 14.9729 6.88067 14.9729 7.60038V28.3982C14.9729 28.5569 14.8483 28.6816 14.6896 28.6816C14.5309 28.6816 14.4062 28.5569 14.4062 28.3982V7.60038C14.4062 6.56332 15.2506 5.72461 16.282 5.72461H147.745C148.782 5.72461 149.621 6.56899 149.621 7.60038V85.1304C149.621 85.2891 149.496 85.4138 149.337 85.4138H149.343Z" fill="#202838"/>
<path d="M14.6896 53.7075C14.5309 53.7075 14.4062 53.5829 14.4062 53.4242V37.9591C14.4062 37.8005 14.5309 37.6758 14.6896 37.6758C14.8483 37.6758 14.9729 37.8005 14.9729 37.9591V53.4242C14.9729 53.5829 14.8483 53.7075 14.6896 53.7075Z" fill="#202838"/>
<path d="M152.368 102.648H10.8746C8.19975 102.648 6.0293 100.523 6.0293 97.9044V85.1367H157.213V97.9044C157.213 100.528 155.043 102.648 152.368 102.648Z" fill="#202838"/>
<path d="M152.368 102.931H10.8747C8.04689 102.931 5.74609 100.676 5.74609 97.8987V85.131C5.74609 84.9723 5.87077 84.8477 6.02944 84.8477H157.213C157.372 84.8477 157.497 84.9723 157.497 85.131V97.8987C157.497 100.67 155.196 102.931 152.368 102.931ZM6.31279 85.4144V97.8987C6.31279 100.358 8.35857 102.364 10.8747 102.364H152.362C154.879 102.364 156.924 100.364 156.924 97.8987V85.4144H6.31279Z" fill="white"/>
<path d="M85.3444 94.2894C85.3444 96.5675 83.497 98.4206 81.2132 98.4206C78.9294 98.4206 77.082 96.5732 77.082 94.2894C77.082 92.0056 78.9294 90.1582 81.2132 90.1582C83.497 90.1582 85.3444 92.0056 85.3444 94.2894Z" fill="white"/>
<path d="M81.2192 98.7041C78.7881 98.7041 76.8047 96.7263 76.8047 94.2895C76.8047 91.8528 78.7825 89.875 81.2192 89.875C83.656 89.875 85.6338 91.8528 85.6338 94.2895C85.6338 96.7263 83.656 98.7041 81.2192 98.7041ZM81.2192 90.4474C79.0998 90.4474 77.3714 92.1701 77.3714 94.2952C77.3714 96.4203 79.0941 98.143 81.2192 98.143C83.3443 98.143 85.0671 96.4203 85.0671 94.2952C85.0671 92.1701 83.3443 90.4474 81.2192 90.4474Z" fill="#202838"/>
<path d="M83.649 94.2883C83.649 95.6314 82.5609 96.7251 81.2122 96.7251C79.8634 96.7251 78.7754 95.6371 78.7754 94.2883C78.7754 92.9396 79.8634 91.8516 81.2122 91.8516C82.5609 91.8516 83.649 92.9396 83.649 94.2883Z" fill="#CACAE5"/>
<path d="M81.2182 97.0086C79.7221 97.0086 78.498 95.7902 78.498 94.2885C78.498 92.7867 79.7164 91.5684 81.2182 91.5684C82.7199 91.5684 83.9383 92.7867 83.9383 94.2885C83.9383 95.7902 82.7199 97.0086 81.2182 97.0086ZM81.2182 92.1351C80.0338 92.1351 79.0647 93.0984 79.0647 94.2885C79.0647 95.4785 80.0281 96.4419 81.2182 96.4419C82.4082 96.4419 83.3716 95.4785 83.3716 94.2885C83.3716 93.0984 82.4082 92.1351 81.2182 92.1351Z" fill="#202838"/>
<path d="M81.2194 4.12636C80.6924 4.12636 80.2617 3.69567 80.2617 3.16865C80.2617 2.64162 80.6924 2.21094 81.2194 2.21094C81.7465 2.21094 82.1771 2.64162 82.1771 3.16865C82.1771 3.69567 81.7465 4.12636 81.2194 4.12636Z" fill="#CACAE5"/>
<path d="M81.2196 4.40985C80.5339 4.40985 79.9785 3.85449 79.9785 3.16879C79.9785 2.48309 80.5339 1.92773 81.2196 1.92773C81.9053 1.92773 82.4606 2.48309 82.4606 3.16879C82.4606 3.85449 81.9053 4.40985 81.2196 4.40985ZM81.2196 2.49443C80.8456 2.49443 80.5452 2.79477 80.5452 3.16879C80.5452 3.54281 80.8456 3.84316 81.2196 3.84316C81.5936 3.84316 81.8939 3.54281 81.8939 3.16879C81.8939 2.79477 81.5936 2.49443 81.2196 2.49443Z" fill="#202838"/>
<path d="M33.508 39.9601C33.3493 39.9601 33.2246 39.8355 33.2246 39.6768V32.9728C33.2246 32.8141 33.3493 32.6895 33.508 32.6895C33.6666 32.6895 33.7913 32.8141 33.7913 32.9728V39.6768C33.7913 39.8355 33.6666 39.9601 33.508 39.9601Z" fill="#7FD6C3"/>
<path d="M57.3654 64.7065C57.2067 64.7065 57.082 64.5819 57.082 64.4232V55.9455C57.082 55.7868 57.2067 55.6621 57.3654 55.6621C57.5241 55.6621 57.6487 55.7868 57.6487 55.9455V64.4232C57.6487 64.5819 57.5241 64.7065 57.3654 64.7065Z" fill="#7FD6C3"/>
<path d="M80.1427 39.9601C79.984 39.9601 79.8594 39.8355 79.8594 39.6768V32.9728C79.8594 32.8141 79.984 32.6895 80.1427 32.6895C80.3014 32.6895 80.4261 32.8141 80.4261 32.9728V39.6768C80.4261 39.8355 80.3014 39.9601 80.1427 39.9601Z" fill="#7FD6C3"/>
<path d="M57.0724 39.9601C56.9137 39.9601 56.7891 39.8355 56.7891 39.6768V32.9728C56.7891 32.8141 56.9137 32.6895 57.0724 32.6895C57.2311 32.6895 57.3558 32.8141 57.3558 32.9728V39.6768C57.3558 39.8355 57.2311 39.9601 57.0724 39.9601Z" fill="#8BBFEF" fill-opacity="0.2"/>
<path d="M80.0802 64.8713C79.9215 64.8713 79.7969 64.7466 79.7969 64.588V55.8439C79.7969 55.6852 79.9215 55.5605 80.0802 55.5605C80.2389 55.5605 80.3636 55.6852 80.3636 55.8439V64.588C80.3636 64.7466 80.2389 64.8713 80.0802 64.8713Z" fill="#8BBFEF" fill-opacity="0.2"/>
<path d="M47.4092 71.1175H40.7052C40.5465 71.1175 40.4219 70.9928 40.4219 70.8341C40.4219 70.6755 40.5465 70.5508 40.7052 70.5508H47.4092C47.5679 70.5508 47.6925 70.6755 47.6925 70.8341C47.6925 70.9928 47.5679 71.1175 47.4092 71.1175Z" fill="#8BBFEF" fill-opacity="0.2"/>
<path d="M88.4546 16.8438H26.3507C26.0189 16.8438 25.75 17.1127 25.75 17.4444V32.2805C25.75 32.6122 26.0189 32.8812 26.3507 32.8812H88.4546C88.7863 32.8812 89.0553 32.6122 89.0553 32.2805V17.4444C89.0553 17.1127 88.7863 16.8438 88.4546 16.8438Z" fill="#8BBFEF" fill-opacity="0.2"/>
<path d="M88.4604 33.1646H26.3508C25.8635 33.1646 25.4668 32.768 25.4668 32.2806V17.4446C25.4668 16.9572 25.8635 16.5605 26.3508 16.5605H88.4547C88.9421 16.5605 89.3388 16.9572 89.3388 17.4446V32.2806C89.3388 32.768 88.9421 33.1646 88.4547 33.1646H88.4604ZM26.3508 17.1272C26.1752 17.1272 26.0335 17.2689 26.0335 17.4446V32.2806C26.0335 32.4563 26.1752 32.598 26.3508 32.598H88.4547C88.6304 32.598 88.7721 32.4563 88.7721 32.2806V17.4446C88.7721 17.2689 88.6304 17.1272 88.4547 17.1272H26.3508Z" fill="#202838"/>
<path d="M41.0459 39.7891H26.4933C26.1615 39.7891 25.8926 40.058 25.8926 40.3898V54.9424C25.8926 55.2742 26.1615 55.5431 26.4933 55.5431H41.0459C41.3777 55.5431 41.6466 55.2742 41.6466 54.9424V40.3898C41.6466 40.058 41.3777 39.7891 41.0459 39.7891Z" fill="white"/>
<path d="M41.0461 55.8325H26.4934C26.0061 55.8325 25.6094 55.4358 25.6094 54.9484V40.3958C25.6094 39.9084 26.0061 39.5117 26.4934 39.5117H41.0461C41.5334 39.5117 41.9301 39.9084 41.9301 40.3958V54.9484C41.9301 55.4358 41.5334 55.8325 41.0461 55.8325ZM26.4934 40.0727C26.3177 40.0727 26.1761 40.2144 26.1761 40.3901V54.9428C26.1761 55.1184 26.3177 55.2601 26.4934 55.2601H41.0461C41.2218 55.2601 41.3634 55.1184 41.3634 54.9428V40.3901C41.3634 40.2144 41.2218 40.0727 41.0461 40.0727H26.4934Z" fill="#202838"/>
<path d="M64.6827 39.7891H50.13C49.7982 39.7891 49.5293 40.058 49.5293 40.3898V54.9424C49.5293 55.2742 49.7982 55.5431 50.13 55.5431H64.6827C65.0144 55.5431 65.2834 55.2742 65.2834 54.9424V40.3898C65.2834 40.058 65.0144 39.7891 64.6827 39.7891Z" fill="#7FD6C3"/>
<path d="M64.6828 55.8325H50.1301C49.6428 55.8325 49.2461 55.4358 49.2461 54.9484V40.3958C49.2461 39.9084 49.6428 39.5117 50.1301 39.5117H64.6828C65.1702 39.5117 65.5668 39.9084 65.5668 40.3958V54.9484C65.5668 55.4358 65.1702 55.8325 64.6828 55.8325ZM50.1301 40.0727C49.9545 40.0727 49.8128 40.2144 49.8128 40.3901V54.9428C49.8128 55.1184 49.9545 55.2601 50.1301 55.2601H64.6828C64.8585 55.2601 65.0002 55.1184 65.0002 54.9428V40.3901C65.0002 40.2144 64.8585 40.0727 64.6828 40.0727H50.1301Z" fill="#202838"/>
<path d="M87.8252 39.7891H73.2726C72.9408 39.7891 72.6719 40.058 72.6719 40.3898V54.9424C72.6719 55.2742 72.9408 55.5431 73.2726 55.5431H87.8252C88.157 55.5431 88.4259 55.2742 88.4259 54.9424V40.3898C88.4259 40.058 88.157 39.7891 87.8252 39.7891Z" fill="white"/>
<path d="M87.8254 55.8325H73.2727C72.7854 55.8325 72.3887 55.4358 72.3887 54.9484V40.3958C72.3887 39.9084 72.7854 39.5117 73.2727 39.5117H87.8254C88.3127 39.5117 88.7094 39.9084 88.7094 40.3958V54.9484C88.7094 55.4358 88.3127 55.8325 87.8254 55.8325ZM73.2727 40.0727C73.097 40.0727 72.9554 40.2144 72.9554 40.3901V54.9428C72.9554 55.1184 73.097 55.2601 73.2727 55.2601H87.8254C88.0011 55.2601 88.1427 55.1184 88.1427 54.9428V40.3901C88.1427 40.2144 88.0011 40.0727 87.8254 40.0727H73.2727Z" fill="#202838"/>
<path d="M82.0286 64.832H53.6033C50.2638 64.832 47.5566 67.5392 47.5566 70.8786V70.8843C47.5566 74.2238 50.2638 76.9309 53.6033 76.9309H82.0286C85.368 76.9309 88.0752 74.2238 88.0752 70.8843V70.8786C88.0752 67.5392 85.368 64.832 82.0286 64.832Z" fill="white"/>
<path d="M82.023 77.2146H53.6034C50.1126 77.2146 47.2734 74.3755 47.2734 70.8846C47.2734 67.3938 50.1126 64.5547 53.6034 64.5547H82.023C85.5139 64.5547 88.353 67.3938 88.353 70.8846C88.353 74.3755 85.5139 77.2146 82.023 77.2146ZM53.6091 65.1157C50.4299 65.1157 47.8458 67.6998 47.8458 70.879C47.8458 74.0581 50.4299 76.6422 53.6091 76.6422H82.0287C85.2079 76.6422 87.792 74.0581 87.792 70.879C87.792 67.6998 85.2079 65.1157 82.0287 65.1157H53.6091Z" fill="#202838"/>
<path d="M115.242 52.4944H102.129C101.97 52.4944 101.846 52.3698 101.846 52.2111C101.846 52.0524 101.97 51.9277 102.129 51.9277H115.242C115.401 51.9277 115.526 52.0524 115.526 52.2111C115.526 52.3698 115.401 52.4944 115.242 52.4944Z" fill="white"/>
<path d="M136.567 52.4944H120.643C120.484 52.4944 120.359 52.3698 120.359 52.2111C120.359 52.0524 120.484 51.9277 120.643 51.9277H136.567C136.725 51.9277 136.85 52.0524 136.85 52.2111C136.85 52.3698 136.725 52.4944 136.567 52.4944Z" fill="white"/>
<path d="M126.06 73.5765H102.129C101.97 73.5765 101.846 73.4518 101.846 73.2931C101.846 73.1344 101.97 73.0098 102.129 73.0098H126.06C126.219 73.0098 126.344 73.1344 126.344 73.2931C126.344 73.4518 126.219 73.5765 126.06 73.5765Z" fill="white"/>
<path d="M139.791 59.7991H102.129C101.97 59.7991 101.846 59.6744 101.846 59.5158C101.846 59.3571 101.97 59.2324 102.129 59.2324H139.791C139.95 59.2324 140.075 59.3571 140.075 59.5158C140.075 59.6744 139.95 59.7991 139.791 59.7991Z" fill="white"/>
<path d="M114.064 66.7405H102.129C101.97 66.7405 101.846 66.6158 101.846 66.4572C101.846 66.2985 101.97 66.1738 102.129 66.1738H114.064C114.222 66.1738 114.347 66.2985 114.347 66.4572C114.347 66.6158 114.222 66.7405 114.064 66.7405Z" fill="white"/>
<path d="M139.463 66.7405H117.736C117.578 66.7405 117.453 66.6158 117.453 66.4572C117.453 66.2985 117.578 66.1738 117.736 66.1738H139.463C139.622 66.1738 139.747 66.2985 139.747 66.4572C139.747 66.6158 139.622 66.7405 139.463 66.7405Z" fill="white"/>
<path d="M141.334 21.2461L101.586 21.2461V17.3529C101.586 16.8656 101.977 16.4745 102.465 16.4745L140.201 16.4745C140.83 16.4745 141.334 16.9846 141.334 17.6079V21.2461Z" fill="#7FD6C3"/>
<path d="M106.811 19.8174C106.25 19.8174 105.797 19.3584 105.797 18.7974C105.797 18.2364 106.25 17.7773 106.811 17.7773C107.372 17.7773 107.826 18.2364 107.826 18.7974C107.826 19.3584 107.372 19.8174 106.811 19.8174ZM106.811 18.3497C106.562 18.3497 106.364 18.5537 106.364 18.8031C106.364 19.0524 106.568 19.2564 106.811 19.2564C107.055 19.2564 107.259 19.0524 107.259 18.8031C107.259 18.5537 107.055 18.3497 106.811 18.3497Z" fill="white"/>
<path d="M109.673 19.8174C109.112 19.8174 108.658 19.3584 108.658 18.7974C108.658 18.2364 109.112 17.7773 109.673 17.7773C110.234 17.7773 110.687 18.2364 110.687 18.7974C110.687 19.3584 110.234 19.8174 109.673 19.8174ZM109.673 18.3497C109.423 18.3497 109.225 18.5537 109.225 18.8031C109.225 19.0524 109.429 19.2564 109.673 19.2564C109.916 19.2564 110.12 19.0524 110.12 18.8031C110.12 18.5537 109.916 18.3497 109.673 18.3497Z" fill="white"/>
<path d="M103.966 19.8174C103.405 19.8174 102.951 19.3584 102.951 18.7974C102.951 18.2364 103.405 17.7773 103.966 17.7773C104.527 17.7773 104.98 18.2364 104.98 18.7974C104.98 19.3584 104.527 19.8174 103.966 19.8174ZM103.966 18.3497C103.716 18.3497 103.518 18.5537 103.518 18.8031C103.518 19.0524 103.722 19.2564 103.966 19.2564C104.209 19.2564 104.413 19.0524 104.413 18.8031C104.413 18.5537 104.209 18.3497 103.966 18.3497Z" fill="white"/>
<path d="M101.699 44.5996L141.192 44.5996C141.264 44.5996 141.322 44.5413 141.322 44.4693V21.3709C141.322 21.2989 141.264 21.2405 141.192 21.2405L101.699 21.2405C101.627 21.2405 101.569 21.2989 101.569 21.3709V44.4693C101.569 44.5413 101.627 44.5996 101.699 44.5996Z" fill="white"/>
<path d="M136.141 27.1917H118.274C118.115 27.1917 117.99 27.067 117.99 26.9083C117.99 26.7497 118.115 26.625 118.274 26.625H136.141C136.3 26.625 136.425 26.7497 136.425 26.9083C136.425 27.067 136.3 27.1917 136.141 27.1917Z" fill="#7FD6C3"/>
<path d="M124.547 29.9007H118.268C118.109 29.9007 117.984 29.776 117.984 29.6173C117.984 29.4587 118.109 29.334 118.268 29.334H124.547C124.705 29.334 124.83 29.4587 124.83 29.6173C124.83 29.776 124.705 29.9007 124.547 29.9007Z" fill="#8BBFEF" fill-opacity="0.2"/>
<path d="M134.753 29.9007H127.131C126.972 29.9007 126.848 29.776 126.848 29.6173C126.848 29.4587 126.972 29.334 127.131 29.334H134.753C134.912 29.334 135.036 29.4587 135.036 29.6173C135.036 29.776 134.912 29.9007 134.753 29.9007Z" fill="#7FD6C3"/>
<path d="M129.726 38.1292H118.274C118.115 38.1292 117.99 38.0045 117.99 37.8458C117.99 37.6872 118.115 37.5625 118.274 37.5625H129.726C129.885 37.5625 130.01 37.6872 130.01 37.8458C130.01 38.0045 129.885 38.1292 129.726 38.1292Z" fill="#8BBFEF" fill-opacity="0.2"/>
<path d="M136.3 32.7503H118.274C118.115 32.7503 117.99 32.6256 117.99 32.4669C117.99 32.3083 118.115 32.1836 118.274 32.1836H136.3C136.459 32.1836 136.583 32.3083 136.583 32.4669C136.583 32.6256 136.459 32.7503 136.3 32.7503Z" fill="#8BBFEF" fill-opacity="0.2"/>
<path d="M123.986 35.4593H118.274C118.115 35.4593 117.99 35.3346 117.99 35.1759C117.99 35.0173 118.115 34.8926 118.274 34.8926H123.986C124.145 34.8926 124.269 35.0173 124.269 35.1759C124.269 35.3346 124.145 35.4593 123.986 35.4593Z" fill="#7FD6C3"/>
<path d="M136.141 35.4593H125.742C125.584 35.4593 125.459 35.3346 125.459 35.1759C125.459 35.0173 125.584 34.8926 125.742 34.8926H136.141C136.3 34.8926 136.424 35.0173 136.424 35.1759C136.424 35.3346 136.3 35.4593 136.141 35.4593Z" fill="#8BBFEF" fill-opacity="0.2"/>
<path d="M106.016 31.9735C106.016 29.7634 107.614 27.9329 109.716 27.5589L109.541 26.5332C106.537 27.0432 104.514 29.8937 105.024 32.8972L106.084 32.7158C106.044 32.4721 106.016 32.2285 106.016 31.9735Z" fill="#8BBFEF" fill-opacity="0.2"/>
<path d="M110.503 36.4626C108.276 36.4626 106.44 34.8419 106.083 32.7168L105.023 32.8981C105.533 35.9016 108.384 37.9247 111.387 37.4147L111.217 36.4003C110.985 36.44 110.747 36.4626 110.509 36.4626H110.503Z" fill="#CACAE5"/>
<path d="M115.905 31.0503C115.395 28.0468 112.544 26.0237 109.541 26.5338L109.717 27.5595C109.972 27.5141 110.232 27.4858 110.504 27.4858C112.981 27.4858 114.993 29.4919 114.993 31.974C114.993 34.2124 113.355 36.0599 111.218 36.3999L111.388 37.4143C113.644 37.0346 115.344 35.3345 115.837 33.2434C115.922 32.8921 115.967 32.535 115.979 32.1667C115.99 31.7983 115.967 31.4243 115.905 31.0503Z" fill="#7FD6C3"/>
</g>
<defs>
<clipPath id="clip0_337_13719">
<rect width="158.064" height="131.854" fill="white" transform="translate(0 0.148438)"/>
</clipPath>
</defs>
</svg>
