<svg width="211" height="179" viewBox="0 0 211 179" fill="none" xmlns="http://www.w3.org/2000/svg">
<path d="M181.78 35.2107L174.141 31.7616C173.514 31.4781 172.779 31.755 172.495 32.3822L170.267 37.312C170.038 37.818 169.504 38.1205 168.957 38.0324C166.917 37.7043 164.875 37.6454 162.863 37.8376C162.311 37.8924 161.795 37.5538 161.6 37.0386L159.686 31.9779C159.443 31.3348 158.728 31.0112 158.085 31.2546L150.244 34.218C149.601 34.4613 149.278 35.1763 149.521 35.8194L151.43 40.8844C151.626 41.3997 151.459 41.9919 151.012 42.3182C149.373 43.5012 147.88 44.9003 146.565 46.4894C146.213 46.9165 145.612 47.0433 145.107 46.8143L140.177 44.5861C139.55 44.3026 138.815 44.5795 138.531 45.2067L135.082 52.8458C134.798 53.473 135.075 54.208 135.702 54.4915L140.632 56.7197C141.138 56.9488 141.441 57.4826 141.353 58.0297C141.025 60.0701 140.966 62.1121 141.158 64.1239C141.213 64.6754 140.874 65.1914 140.359 65.387L135.298 67.3004C134.655 67.5437 134.332 68.2588 134.575 68.9018L137.538 76.7427C137.782 77.3857 138.497 77.7093 139.14 77.466L144.205 75.5563C144.72 75.3608 145.312 75.528 145.639 75.9749C146.821 77.6142 148.221 79.107 149.81 80.4222C150.237 80.7738 150.364 81.3743 150.135 81.8803L147.906 86.8101C147.623 87.4373 147.9 88.1723 148.527 88.4558L156.166 91.905C156.793 92.1885 157.528 91.9116 157.812 91.2844L160.04 86.3546C160.269 85.8486 160.803 85.546 161.35 85.6342C163.39 85.9623 165.432 86.0212 167.444 85.829C167.996 85.7742 168.512 86.1127 168.707 86.6279L170.621 91.6887C170.864 92.3318 171.579 92.6553 172.222 92.412L180.063 89.4486C180.706 89.2052 181.03 88.4902 180.786 87.8471L178.877 82.7821C178.681 82.2669 178.848 81.6746 179.295 81.3483C180.934 80.1654 182.427 78.7663 183.742 77.1771C184.094 76.75 184.695 76.6232 185.201 76.8522L190.13 79.0805C190.758 79.364 191.493 79.0871 191.776 78.4599L195.225 70.8207C195.509 70.1935 195.232 69.4585 194.605 69.175L189.675 66.9468C189.169 66.7178 188.866 66.184 188.954 65.6368C189.283 63.5964 189.341 61.5545 189.149 59.5427C189.094 58.9912 189.433 58.4751 189.948 58.2796L195.009 56.3661C195.652 56.1228 195.976 55.4078 195.732 54.7647L192.769 46.9239C192.526 46.2808 191.81 45.9573 191.167 46.2006L186.102 48.1102C185.587 48.3057 184.995 48.1385 184.669 47.6916C183.486 46.0524 182.087 44.5596 180.497 43.2444C180.07 42.8928 179.943 42.2922 180.173 41.7863L182.401 36.8565C182.684 36.2293 182.407 35.4943 181.78 35.2107ZM177.432 67.4124C173.572 75.3718 163.575 77.9809 156.32 72.9204C150.609 68.9411 148.604 61.2474 151.639 54.9847C155.499 47.0254 165.496 44.4163 172.751 49.4768C178.462 53.456 180.467 61.1498 177.432 67.4124Z" fill="#CACAE5"/>
<path d="M179.639 33.1131L172 29.6639C171.373 29.3804 170.638 29.6573 170.355 30.2845L168.126 35.2143C167.897 35.7203 167.364 36.0228 166.816 35.9347C164.776 35.6066 162.734 35.5477 160.722 35.7399C160.171 35.7947 159.655 35.4562 159.459 34.9409L157.546 29.8802C157.302 29.2371 156.587 28.9136 155.944 29.1569L148.104 32.1203C147.46 32.3637 147.137 33.0787 147.38 33.7218L149.29 38.7868C149.485 39.302 149.318 39.8943 148.871 40.2206C147.232 41.4035 145.739 42.8026 144.424 44.3918C144.072 44.8189 143.472 44.9457 142.966 44.7166L138.036 42.4884C137.409 42.2049 136.674 42.4818 136.39 43.109L132.941 50.7481C132.658 51.3754 132.935 52.1104 133.562 52.3939L138.492 54.6221C138.998 54.8511 139.3 55.3849 139.212 55.9321C138.884 57.9725 138.825 60.0144 139.017 62.0262C139.072 62.5777 138.733 63.0938 138.218 63.2893L133.157 65.2028C132.514 65.4461 132.191 66.1611 132.434 66.8042L135.398 74.645C135.641 75.2881 136.356 75.6116 136.999 75.3683L142.064 73.4587C142.579 73.2632 143.172 73.4304 143.498 73.8772C144.681 75.5165 146.08 77.0093 147.669 78.3245C148.096 78.6761 148.223 79.2767 147.994 79.7826L145.766 84.7124C145.482 85.3396 145.759 86.0746 146.386 86.3582L154.025 89.8073C154.653 90.0908 155.388 89.8139 155.671 89.1867L157.899 84.2569C158.128 83.7509 158.662 83.4484 159.209 83.5365C161.25 83.8646 163.292 83.9235 165.304 83.7313C165.855 83.6765 166.371 84.0151 166.567 84.5303L168.48 89.591C168.723 90.2341 169.438 90.5577 170.081 90.3143L177.922 87.3509C178.565 87.1076 178.889 86.3925 178.646 85.7495L176.736 80.6844C176.54 80.1692 176.708 79.5769 177.155 79.2506C178.794 78.0677 180.287 76.6686 181.602 75.0795C181.953 74.6524 182.554 74.5256 183.06 74.7546L187.99 76.9828C188.617 77.2663 189.352 76.9894 189.635 76.3622L193.085 68.7231C193.368 68.0959 193.091 67.3609 192.464 67.0773L187.534 64.8491C187.028 64.6201 186.726 64.0863 186.814 63.5392C187.142 61.4987 187.201 59.4568 187.009 57.445C186.954 56.8935 187.292 56.3775 187.808 56.1819L192.868 54.2685C193.511 54.0252 193.835 53.3101 193.592 52.6671L190.628 44.8262C190.385 44.1832 189.67 43.8596 189.027 44.1029L183.962 46.0125C183.447 46.2081 182.854 46.0409 182.528 45.594C181.345 43.9547 179.946 42.4619 178.357 41.1467C177.93 40.7951 177.803 40.1946 178.032 39.6886L180.26 34.7588C180.544 34.1316 180.267 33.3966 179.639 33.1131ZM175.887 65.8487C172.027 73.8081 162.031 76.4172 154.776 71.3567C149.065 67.3774 147.059 59.6837 150.095 53.421C153.955 45.4617 163.951 42.8526 171.206 47.9131C176.917 51.8923 178.923 59.5861 175.887 65.8487Z" fill="#8BBFEF" fill-opacity="0.2"/>
<path d="M189.642 76.8581C189.208 77.3427 188.492 77.5126 187.869 77.2329L182.939 75.0047C182.55 74.8264 182.082 74.9255 181.823 75.2496C180.512 76.8426 178.996 78.2675 177.321 79.4727C176.98 79.7158 176.85 80.1714 177.003 80.5708L178.916 85.6315C179.059 86.015 179.05 86.4315 178.879 86.8038C178.707 87.1761 178.405 87.4618 178.022 87.6052L170.181 90.5687C169.797 90.7121 169.381 90.7024 169.009 90.5312C168.636 90.3601 168.35 90.0578 168.207 89.6742L166.294 84.6135C166.141 84.2141 165.744 83.9587 165.33 83.9978C163.274 84.1965 161.199 84.1313 159.167 83.8027C158.755 83.7357 158.344 83.9622 158.169 84.355L155.941 89.2849C155.592 90.0543 154.681 90.398 153.916 90.0527L146.277 86.6036C145.508 86.2545 145.168 85.3476 145.509 84.5786L147.738 79.6488C147.916 79.2598 147.813 78.7966 147.493 78.5328C145.9 77.2219 144.479 75.7018 143.27 74.0314C143.023 73.6943 142.575 73.564 142.172 73.7126L137.111 75.626C136.727 75.7694 136.311 75.7597 135.939 75.5886C135.566 75.4174 135.28 75.1151 135.137 74.7316L132.174 66.8908C132.03 66.5072 132.04 66.0908 132.211 65.7185C132.382 65.3462 132.685 65.0604 133.068 64.917L138.129 63.0036C138.528 62.8511 138.784 62.4538 138.744 62.0401C138.546 59.9838 138.611 57.9089 138.94 55.8766C139.007 55.4652 138.78 55.0536 138.387 54.8795L133.457 52.6513C133.085 52.4801 132.799 52.1778 132.656 51.7943C132.513 51.4107 132.522 50.9943 132.693 50.622L136.143 42.9829C136.488 42.2177 137.394 41.8702 138.168 42.215L143.097 44.4432C143.486 44.6216 143.945 44.5148 144.213 44.1983C145.528 42.6011 147.04 41.1805 148.715 39.9753C149.052 39.7284 149.182 39.2809 149.034 38.8772L147.124 33.8122C146.828 33.0212 147.224 32.139 148.018 31.8384L155.859 28.875C156.65 28.5787 157.532 28.9746 157.833 29.7695L159.746 34.8302C159.899 35.2296 160.296 35.485 160.71 35.4459C162.766 35.2471 164.841 35.3124 166.878 35.6448C167.289 35.7118 167.701 35.4853 167.875 35.0925L170.103 30.1627C170.274 29.7904 170.576 29.5046 170.96 29.3612C171.344 29.2178 171.756 29.2318 172.132 29.3987L179.771 32.8478C180.541 33.1969 180.884 34.0995 180.539 34.8728L178.311 39.8026C178.137 40.1954 178.236 40.6548 178.556 40.9185C180.149 42.2294 181.57 43.7496 182.779 45.42C183.026 45.7571 183.473 45.8874 183.877 45.7388L188.942 43.8292C189.733 43.5329 190.615 43.9288 190.916 44.7236L193.879 52.5645C194.023 52.948 194.013 53.3644 193.842 53.7367C193.671 54.109 193.368 54.3948 192.985 54.5382L187.924 56.4516C187.52 56.6002 187.269 57.0014 187.308 57.4151C187.507 59.4714 187.442 61.5463 187.109 63.5829C187.042 63.9943 187.269 64.4059 187.666 64.5839L192.596 66.8121C193.365 67.1612 193.705 68.0681 193.364 68.8371L189.915 76.4762C189.845 76.6227 189.762 76.7496 189.659 76.8653L189.642 76.8581ZM181.417 74.8397C181.851 74.3551 182.565 74.2058 183.175 74.4821L188.105 76.7103C188.586 76.9244 189.153 76.7138 189.367 76.2331L192.816 68.594C193.03 68.1133 192.82 67.5459 192.339 67.3318L187.409 65.1036C186.782 64.8201 186.419 64.155 186.525 63.4846C186.844 61.4977 186.908 59.4677 186.716 57.4641C186.65 56.7868 187.059 56.1486 187.702 55.9052L192.763 53.9918C192.999 53.9013 193.189 53.7237 193.294 53.4937C193.4 53.2636 193.41 53.0021 193.315 52.7627L190.352 44.9218C190.166 44.4305 189.614 44.1836 189.118 44.3658L184.053 46.2755C183.41 46.5188 182.681 46.3061 182.284 45.7571C181.101 44.126 179.715 42.6447 178.156 41.3646C177.635 40.9366 177.464 40.1957 177.752 39.5642L179.98 34.6344C180.194 34.1538 179.983 33.5864 179.503 33.3722L171.863 29.9231C171.633 29.8175 171.372 29.8074 171.132 29.9022C170.897 29.9926 170.707 30.1702 170.601 30.4003L168.373 35.3301C168.093 35.953 167.424 36.3201 166.754 36.2143C164.763 35.8916 162.737 35.8318 160.734 36.0236C160.056 36.0894 159.418 35.6801 159.175 35.037L157.261 29.9762C157.075 29.485 156.523 29.2381 156.028 29.4203L148.187 32.3837C147.696 32.5697 147.441 33.122 147.631 33.6171L149.544 38.6779C149.788 39.3209 149.575 40.0502 149.026 40.4474C147.395 41.6299 145.914 43.0161 144.634 44.5748C144.201 45.0919 143.465 45.267 142.833 44.9797L137.903 42.7515C137.423 42.5373 136.855 42.748 136.641 43.2286L133.192 50.8677C133.087 51.0978 133.076 51.3593 133.171 51.5987C133.262 51.8343 133.439 52.0244 133.669 52.1299L138.599 54.3581C139.226 54.6417 139.589 55.3067 139.483 55.9771C139.164 57.964 139.101 59.994 139.293 61.9977C139.358 62.675 138.953 63.317 138.306 63.5565L133.245 65.47C133.01 65.5604 132.82 65.738 132.714 65.9681C132.608 66.1981 132.598 66.4596 132.693 66.6991L135.657 74.5399C135.747 74.7755 135.925 74.9655 136.159 75.0749C136.389 75.1805 136.651 75.1906 136.89 75.0959L141.951 73.1824C142.594 72.9391 143.323 73.1518 143.72 73.7008C144.903 75.3319 146.289 76.8132 147.848 78.0933C148.369 78.5213 148.536 79.2664 148.253 79.8936L146.024 84.8235C145.81 85.3041 146.021 85.8715 146.501 86.0856L154.141 89.5348C154.621 89.7489 155.189 89.5383 155.403 89.0576L157.631 84.1278C157.915 83.5006 158.58 83.1378 159.25 83.2436C161.237 83.5624 163.263 83.6304 165.271 83.4343C165.948 83.3685 166.586 83.7778 166.829 84.4209L168.743 89.4817C168.833 89.7172 169.011 89.9073 169.245 90.0167C169.475 90.1223 169.737 90.1323 169.976 90.0376L177.817 87.0742C178.057 86.9876 178.243 86.8061 178.348 86.5761C178.454 86.346 178.464 86.0845 178.369 85.8451L176.456 80.7843C176.212 80.1413 176.425 79.4119 176.974 79.0148C178.605 77.8323 180.086 76.446 181.367 74.8874C181.382 74.8702 181.394 74.8574 181.409 74.8402L181.417 74.8397ZM173.863 69.3799C171.965 71.4985 169.477 73.0339 166.675 73.763C162.531 74.8432 158.137 74.0533 154.605 71.5933C148.792 67.5381 146.74 59.6716 149.831 53.2958C151.706 49.4251 155.162 46.5847 159.298 45.505C163.442 44.4248 167.836 45.2146 171.368 47.6747C177.181 51.7299 179.233 59.5964 176.142 65.9722C175.534 67.2207 174.765 68.3639 173.859 69.376L173.863 69.3799ZM152.548 50.2799C151.68 51.2492 150.937 52.3461 150.354 53.5483C147.385 59.6769 149.354 67.2299 154.942 71.1222C158.33 73.4841 162.555 74.2465 166.539 73.2078C170.514 72.1696 173.83 69.4429 175.635 65.7269C178.605 59.5983 176.636 52.0453 171.048 48.153C167.66 45.7911 163.435 45.0287 159.451 46.0674C156.758 46.7701 154.369 48.2471 152.548 50.2799Z" fill="#202838"/>
<path d="M142.726 38.0863C142.7 38.1163 142.673 38.1463 142.637 38.1687L140.1 40.2246C139.94 40.3517 139.739 40.4117 139.53 40.3946C139.325 40.3733 139.14 40.2693 139.009 40.1134L137.68 38.4741C137.623 38.4079 137.532 38.3803 137.456 38.413C136.704 38.7439 135.913 38.979 135.105 39.1131C135.024 39.1257 134.959 39.1986 134.952 39.2847L134.733 41.3843C134.711 41.5894 134.612 41.7783 134.452 41.9054C134.291 42.0325 134.091 42.0924 133.882 42.0754L130.63 41.7365C130.425 41.7151 130.24 41.6111 130.109 41.4552C129.982 41.2951 129.922 41.0945 129.939 40.8856L130.158 38.786C130.165 38.6999 130.116 38.617 130.037 38.5847C129.274 38.2882 128.551 37.8958 127.881 37.4189C127.813 37.3737 127.719 37.3748 127.649 37.4276L126.009 38.7573C125.849 38.8844 125.649 38.9443 125.444 38.923C125.239 38.9017 125.054 38.7977 124.923 38.6418L122.867 36.1046C122.74 35.9444 122.68 35.7439 122.701 35.5388C122.722 35.3338 122.826 35.1486 122.982 35.0177L124.622 33.688C124.688 33.6314 124.715 33.5402 124.683 33.4645C124.348 32.7164 124.113 31.9261 123.987 31.1175C123.974 31.0367 123.901 30.9714 123.815 30.9639L121.716 30.745C121.293 30.699 120.983 30.3205 121.029 29.898L121.368 26.646C121.414 26.2235 121.792 25.9132 122.215 25.9593L124.314 26.1781C124.4 26.1856 124.483 26.1362 124.512 26.0612C124.808 25.2988 125.196 24.572 125.678 23.9054C125.723 23.8377 125.722 23.744 125.669 23.6735L124.339 22.0341C124.212 21.874 124.152 21.6734 124.173 21.4684C124.195 21.2633 124.295 21.0825 124.455 20.9473L126.992 18.8913C127.324 18.6244 127.812 18.675 128.079 19.0069L129.408 20.6462C129.465 20.7124 129.556 20.74 129.632 20.7073C130.38 20.3726 131.17 20.1375 131.979 20.0114C132.06 19.9988 132.125 19.9259 132.133 19.8399L132.351 17.7402C132.373 17.5352 132.472 17.3462 132.633 17.2192C132.793 17.0921 132.997 17.0278 133.198 17.0535L136.45 17.3924C136.655 17.4137 136.836 17.5139 136.972 17.6736C137.099 17.8338 137.159 18.0343 137.137 18.2394L136.918 20.339C136.911 20.4251 136.96 20.508 137.035 20.5365C137.798 20.8329 138.521 21.2254 139.191 21.7022C139.259 21.7474 139.353 21.7464 139.423 21.6936L141.062 20.3638C141.394 20.0969 141.882 20.1475 142.149 20.4794L144.205 23.0166C144.332 23.1767 144.392 23.3773 144.371 23.5823C144.349 23.7874 144.254 23.9721 144.09 24.1034L142.45 25.4331C142.388 25.4855 142.356 25.581 142.389 25.6567C142.724 26.4048 142.959 27.1951 143.089 28.0075C143.102 28.0883 143.175 28.1536 143.261 28.1611L145.361 28.38C145.783 28.426 146.093 28.8045 146.047 29.227L145.712 32.4747C145.666 32.8972 145.288 33.2075 144.865 33.1614L142.766 32.9426C142.68 32.9351 142.597 32.9845 142.568 33.0595C142.272 33.8219 141.884 34.5487 141.402 35.2153C141.357 35.283 141.358 35.3767 141.411 35.4472L142.741 37.0866C142.868 37.2467 142.928 37.4473 142.906 37.6524C142.891 37.8163 142.826 37.9667 142.718 38.0868L142.726 38.0863ZM134.578 38.7956C134.693 38.6669 134.848 38.5809 135.021 38.551C135.781 38.4276 136.523 38.2033 137.232 37.8952C137.542 37.7558 137.918 37.8452 138.137 38.1186L139.467 39.758C139.502 39.7968 139.544 39.8271 139.597 39.8283C139.646 39.8337 139.699 39.8186 139.742 39.7877L142.279 37.7317C142.318 37.697 142.348 37.6545 142.349 37.6015C142.355 37.5522 142.339 37.5001 142.309 37.4569L140.979 35.8176C140.756 35.5485 140.747 35.1617 140.948 34.8856C141.399 34.2614 141.769 33.5805 142.043 32.86C142.168 32.5392 142.492 32.342 142.84 32.3758L144.94 32.5946C145.047 32.6051 145.144 32.5304 145.159 32.4195L145.494 29.1718C145.504 29.0652 145.43 28.9674 145.319 28.9531L143.219 28.7343C142.874 28.6961 142.595 28.4383 142.536 28.0991C142.412 27.3393 142.192 26.5931 141.88 25.8885C141.744 25.5739 141.838 25.2018 142.103 24.9833L143.743 23.6536C143.786 23.6227 143.812 23.5764 143.813 23.5233C143.819 23.4741 143.803 23.4219 143.772 23.3788L141.717 20.8416C141.647 20.7557 141.524 20.7462 141.442 20.8119L139.802 22.1416C139.529 22.3605 139.146 22.3734 138.87 22.1725C138.246 21.7216 137.565 21.3513 136.845 21.077C136.524 20.952 136.327 20.6285 136.361 20.28L136.579 18.1804C136.585 18.1311 136.57 18.079 136.539 18.0358C136.504 17.997 136.462 17.9667 136.409 17.9655L133.157 17.6266C133.107 17.6212 133.055 17.6363 133.012 17.6672C132.977 17.6976 132.943 17.7444 132.942 17.7974L132.723 19.8971C132.685 20.2417 132.427 20.5209 132.088 20.5803C131.328 20.7037 130.582 20.9242 129.877 21.2361C129.567 21.3755 129.191 21.2861 128.972 21.0127L127.642 19.3734C127.572 19.2875 127.449 19.278 127.367 19.3437L124.83 21.3996C124.748 21.4653 124.735 21.5924 124.801 21.6744L126.13 23.3138C126.349 23.5871 126.362 23.9697 126.161 24.2458C125.71 24.87 125.34 25.5509 125.066 26.2713C124.941 26.5922 124.617 26.7894 124.269 26.7555L122.169 26.5367C122.062 26.5263 121.965 26.601 121.95 26.7118L121.611 29.9638C121.601 30.0704 121.676 30.1682 121.787 30.1825L123.886 30.4014C124.231 30.4395 124.51 30.6973 124.566 31.0408C124.689 31.8006 124.913 32.5426 125.225 33.2471C125.361 33.5617 125.271 33.9377 125.002 34.1523L123.362 35.482C123.32 35.5211 123.293 35.5592 123.292 35.6123C123.287 35.6615 123.302 35.7137 123.333 35.7568L125.389 38.294C125.423 38.3329 125.466 38.3632 125.519 38.3643C125.568 38.3698 125.62 38.3547 125.664 38.3238L127.303 36.994C127.576 36.7751 127.959 36.7622 128.235 36.9632C128.859 37.414 129.54 37.7843 130.26 38.0586C130.581 38.1837 130.778 38.5072 130.745 38.8556L130.526 40.9553C130.52 41.0045 130.535 41.0567 130.566 41.0998C130.601 41.1387 130.644 41.169 130.697 41.1701L133.949 41.509C133.998 41.5145 134.05 41.4994 134.093 41.4685C134.132 41.4418 134.162 41.3913 134.163 41.3382L134.382 39.2385C134.402 39.0703 134.467 38.9199 134.574 38.7998L134.578 38.7956ZM137.917 33.454C137.683 33.7156 137.423 33.9542 137.137 34.1778C135.768 35.2317 134.016 35.6257 132.333 35.2698C130.65 34.9139 129.213 33.835 128.391 32.3186C127.034 29.8123 127.715 26.619 129.972 24.8842C131.341 23.8303 133.093 23.4363 134.776 23.7922C136.459 24.1481 137.897 25.227 138.718 26.7434C139.907 28.9287 139.534 31.6484 137.917 33.454ZM136.79 33.7199C138.824 32.1564 139.441 29.2765 138.216 27.0198C137.472 25.65 136.178 24.6773 134.66 24.3531C133.142 24.0289 131.564 24.393 130.323 25.3379C128.289 26.9013 127.673 29.7812 128.898 32.0379C129.642 33.4078 130.935 34.3804 132.453 34.7046C133.971 35.0288 135.55 34.6647 136.79 33.7199Z" fill="#2AAFEB"/>
<path d="M158.417 66.129L158.377 66.1394C158.149 66.2213 157.877 66.171 157.693 66.0058C157.521 65.8521 157.438 65.608 157.493 65.3481L158.62 60.9233C158.65 60.8034 158.702 60.7108 158.775 60.6294C159.028 60.3463 159.465 60.3427 159.739 60.5886C159.906 60.7384 159.997 60.974 159.941 61.2257L159.124 64.451L162.259 63.3326C162.49 63.2383 162.75 63.2934 162.935 63.4585C163.209 63.7044 163.245 64.1305 162.999 64.405C162.926 64.4865 162.836 64.5526 162.728 64.5871L158.421 66.1329L158.417 66.129Z" fill="#202838"/>
<path d="M164.887 64.3275C164.827 64.2738 164.774 64.2033 164.729 64.1323L159.99 56.0304C159.801 55.7065 159.857 55.3079 160.095 55.042C160.429 54.6689 160.97 54.7125 161.334 55.039C161.403 55.1005 161.46 55.1748 161.505 55.2458L166.175 63.2862C166.357 63.6188 166.309 64.0088 166.071 64.2747C166.017 64.3347 165.963 64.3866 165.883 64.4317C165.555 64.6088 165.153 64.5657 164.887 64.3275Z" fill="#202838"/>
<path d="M164.17 56.4964C163.926 56.5791 163.682 56.5151 163.515 56.3653C163.24 56.1194 163.192 55.6899 163.449 55.4025C163.522 55.321 163.609 55.2592 163.725 55.2161L167.999 53.611C168.251 53.5278 168.512 53.5909 168.683 53.7446C168.855 53.8982 168.943 54.1625 168.883 54.4023L168.873 54.4477L167.816 58.889C167.794 59.0003 167.738 59.0971 167.665 59.1786C167.416 59.4574 166.988 59.4605 166.717 59.2185C166.533 59.0534 166.446 58.7972 166.518 58.5608L167.282 55.3262L164.17 56.4882L164.17 56.4964Z" fill="#202838"/>
<path d="M147.548 71.442C147.548 71.442 147.521 71.472 147.506 71.4811C147.376 71.5738 147.199 71.5468 147.103 71.4217C142.772 65.548 142.013 57.5491 145.17 51.0474C145.987 49.3593 147.027 47.8097 148.252 46.4335C148.359 46.3134 148.538 46.3036 148.658 46.4111C148.778 46.5187 148.788 46.6976 148.681 46.8176C147.486 48.1514 146.481 49.6624 145.686 51.3004C142.625 57.6174 143.362 65.381 147.569 71.0821C147.653 71.1957 147.641 71.3472 147.553 71.4459L147.548 71.442Z" fill="white"/>
<path d="M177.722 72.8328C175.152 75.702 171.78 77.7834 167.982 78.7794C162.371 80.246 156.408 79.1715 151.629 75.8341C151.501 75.7433 151.467 75.5657 151.558 75.4303C151.644 75.2991 151.826 75.2687 151.961 75.3591C156.604 78.598 162.39 79.6374 167.837 78.2165C173.284 76.7956 177.828 73.0594 180.296 67.9655C184.364 59.5747 181.667 49.228 174.018 43.8997C167.815 39.5724 159.619 39.2731 153.14 43.132C153.006 43.2128 152.829 43.1695 152.743 43.0315C152.663 42.8973 152.706 42.7196 152.844 42.6346C159.52 38.6588 167.957 38.9653 174.346 43.4209C182.224 48.916 185.004 59.5681 180.815 68.2142C179.995 69.9066 178.947 71.4566 177.721 72.8247L177.722 72.8328Z" fill="white"/>
<path d="M175.214 70.5857C173.082 72.9659 170.286 74.6977 167.135 75.5153C162.476 76.7298 157.53 75.8398 153.566 73.0774C147.028 68.5198 144.723 59.6764 148.202 52.5045C150.315 48.1519 154.192 44.9621 158.851 43.7476C163.51 42.5331 168.456 43.423 172.416 46.1898C178.954 50.7474 181.259 59.5908 177.784 66.7583C177.103 68.1658 176.236 69.453 175.218 70.5895L175.214 70.5857ZM151.09 48.9696C150.099 50.0761 149.254 51.3294 148.592 52.6992C145.208 59.6782 147.451 68.2885 153.816 72.7293C157.678 75.4239 162.492 76.2885 167.031 75.1051C171.561 73.9222 175.341 70.8152 177.399 66.5757C180.783 59.5966 178.539 50.9863 172.175 46.5456C168.312 43.8509 163.498 42.9863 158.964 44.1654C155.897 44.9662 153.168 46.6494 151.093 48.9653L151.09 48.9696Z" fill="white"/>
<g clip-path="url(#clip0_337_13703)">
<path d="M87.1363 171.103L93.6816 147.047H61.6238L55.1465 171.114C55.2882 171.109 55.4298 171.103 55.5715 171.103H87.1363Z" fill="white"/>
<path d="M55.1803 171.398C55.0953 171.398 54.999 171.358 54.9423 171.29C54.8856 171.222 54.8516 171.126 54.8743 171.041L61.3516 146.973C61.3856 146.849 61.4989 146.764 61.6236 146.764H93.6814C93.7721 146.764 93.8514 146.803 93.9081 146.877C93.9591 146.945 93.9818 147.036 93.9534 147.121L87.4081 171.177C87.3741 171.301 87.2608 171.386 87.1361 171.386H55.5713C55.4466 171.386 55.322 171.386 55.1916 171.398H55.1803ZM61.8446 147.325L55.5203 170.814H86.9208L93.3131 147.325H61.8446Z" fill="#202838"/>
<path d="M107.712 172.849C107.604 172.787 107.491 172.724 107.378 172.662C105.604 171.687 103.416 171.104 101.042 171.104H55.5706C55.4289 171.104 55.2872 171.109 55.1456 171.115C51.9381 171.245 49.1103 172.849 47.9599 175.229L46.1465 179.003H111.69C111.69 176.515 110.137 174.294 107.712 172.849Z" fill="#202838"/>
<path d="M152.889 150.163H10.2736C7.57613 150.163 5.38867 147.873 5.38867 145.051V52.5433C5.38867 49.7211 7.57613 47.4316 10.2736 47.4316H152.895C155.592 47.4316 157.78 49.7211 157.78 52.5433V145.051C157.78 147.873 155.592 150.163 152.895 150.163H152.889Z" fill="white"/>
<path d="M152.889 150.446H10.2738C7.42328 150.446 5.10548 148.026 5.10548 145.051V52.5434C5.09981 49.5682 7.42328 47.1484 10.2738 47.1484H152.895C155.745 47.1484 158.063 49.5682 158.063 52.5434V145.051C158.063 148.026 155.745 150.446 152.895 150.446H152.889ZM10.2738 47.7151C7.73496 47.7151 5.67218 49.8799 5.67218 52.5434V145.051C5.67218 147.715 7.73496 149.88 10.2738 149.88H152.895C155.434 149.88 157.496 147.715 157.496 145.051V52.5434C157.496 49.8799 155.434 47.7151 152.895 47.7151H10.2738Z" fill="#202838"/>
<path d="M5.38916 145.051V52.5435C5.38916 49.744 7.53694 47.4772 10.2004 47.4375H5.16814C2.47066 47.4375 0.283203 49.727 0.283203 52.5605V145.25C0.283203 148.077 2.47066 150.373 5.16814 150.373H147.789C148.265 150.373 148.719 150.299 149.155 150.169H10.2741C7.57661 150.169 5.38916 147.879 5.38916 145.057V145.051Z" fill="#202838"/>
<path d="M147.789 150.65H5.16829C2.3178 150.65 0 148.225 0 145.244V52.5604C0 49.5796 2.3178 47.1484 5.16829 47.1484H10.2006V47.7151C7.7071 47.7548 5.67265 49.9196 5.67265 52.5377V145.046C5.67265 147.709 7.73543 149.874 10.2742 149.874H151.053L149.234 150.429C148.758 150.577 148.271 150.65 147.789 150.65ZM5.16829 47.7208C2.62948 47.7208 0.566699 49.8913 0.566699 52.5604V145.25C0.566699 147.919 2.62948 150.089 5.16829 150.089H8.41547C6.47736 149.307 5.10595 147.346 5.10595 145.057V52.5434C5.10595 50.4466 6.27902 48.6049 7.97912 47.7208H5.17396H5.16829Z" fill="#202838"/>
<path d="M14.6895 75.4037V54.6002C14.6895 53.7219 15.4035 53.0078 16.2819 53.0078H147.745C148.623 53.0078 149.337 53.7219 149.337 54.6002V132.13H14.6895V111.57" fill="#CACAE5"/>
<path d="M149.343 132.414H14.6896C14.5309 132.414 14.4062 132.289 14.4062 132.13V111.571C14.4062 111.412 14.5309 111.287 14.6896 111.287C14.8483 111.287 14.9729 111.412 14.9729 111.571V131.847H149.054V54.6004C149.054 53.8807 148.464 53.2913 147.745 53.2913H16.282C15.5623 53.2913 14.9729 53.8807 14.9729 54.6004V75.3982C14.9729 75.5569 14.8483 75.6816 14.6896 75.6816C14.5309 75.6816 14.4062 75.5569 14.4062 75.3982V54.6004C14.4062 53.5633 15.2506 52.7246 16.282 52.7246H147.745C148.782 52.7246 149.621 53.569 149.621 54.6004V132.13C149.621 132.289 149.496 132.414 149.337 132.414H149.343Z" fill="#202838"/>
<path d="M14.6896 100.708C14.5309 100.708 14.4062 100.583 14.4062 100.424V84.9591C14.4062 84.8005 14.5309 84.6758 14.6896 84.6758C14.8483 84.6758 14.9729 84.8005 14.9729 84.9591V100.424C14.9729 100.583 14.8483 100.708 14.6896 100.708Z" fill="#202838"/>
<path d="M152.368 149.648H10.8746C8.19975 149.648 6.0293 147.523 6.0293 144.904V132.137H157.213V144.904C157.213 147.528 155.043 149.648 152.368 149.648Z" fill="#202838"/>
<path d="M152.368 149.931H10.8747C8.04689 149.931 5.74609 147.676 5.74609 144.899V132.131C5.74609 131.972 5.87077 131.848 6.02944 131.848H157.213C157.372 131.848 157.497 131.972 157.497 132.131V144.899C157.497 147.67 155.196 149.931 152.368 149.931ZM6.31279 132.414V144.899C6.31279 147.358 8.35857 149.364 10.8747 149.364H152.362C154.879 149.364 156.924 147.364 156.924 144.899V132.414H6.31279Z" fill="white"/>
<path d="M85.3444 141.289C85.3444 143.567 83.497 145.421 81.2132 145.421C78.9294 145.421 77.082 143.573 77.082 141.289C77.082 139.006 78.9294 137.158 81.2132 137.158C83.497 137.158 85.3444 139.006 85.3444 141.289Z" fill="white"/>
<path d="M81.2192 145.704C78.7881 145.704 76.8047 143.726 76.8047 141.29C76.8047 138.853 78.7825 136.875 81.2192 136.875C83.656 136.875 85.6338 138.853 85.6338 141.29C85.6338 143.726 83.656 145.704 81.2192 145.704ZM81.2192 137.447C79.0998 137.447 77.3714 139.17 77.3714 141.295C77.3714 143.42 79.0941 145.143 81.2192 145.143C83.3443 145.143 85.0671 143.42 85.0671 141.295C85.0671 139.17 83.3443 137.447 81.2192 137.447Z" fill="#202838"/>
<path d="M83.649 141.288C83.649 142.631 82.5609 143.725 81.2122 143.725C79.8634 143.725 78.7754 142.637 78.7754 141.288C78.7754 139.94 79.8634 138.852 81.2122 138.852C82.5609 138.852 83.649 139.94 83.649 141.288Z" fill="#CACAE5"/>
<path d="M81.2182 144.009C79.7221 144.009 78.498 142.79 78.498 141.288C78.498 139.787 79.7164 138.568 81.2182 138.568C82.7199 138.568 83.9383 139.787 83.9383 141.288C83.9383 142.79 82.7199 144.009 81.2182 144.009ZM81.2182 139.135C80.0338 139.135 79.0647 140.098 79.0647 141.288C79.0647 142.479 80.0281 143.442 81.2182 143.442C82.4082 143.442 83.3716 142.479 83.3716 141.288C83.3716 140.098 82.4082 139.135 81.2182 139.135Z" fill="#202838"/>
<path d="M81.2194 51.1264C80.6924 51.1264 80.2617 50.6957 80.2617 50.1686C80.2617 49.6416 80.6924 49.2109 81.2194 49.2109C81.7465 49.2109 82.1771 49.6416 82.1771 50.1686C82.1771 50.6957 81.7465 51.1264 81.2194 51.1264Z" fill="#CACAE5"/>
<path d="M81.2196 51.4098C80.5339 51.4098 79.9785 50.8545 79.9785 50.1688C79.9785 49.4831 80.5339 48.9277 81.2196 48.9277C81.9053 48.9277 82.4606 49.4831 82.4606 50.1688C82.4606 50.8545 81.9053 51.4098 81.2196 51.4098ZM81.2196 49.4944C80.8456 49.4944 80.5452 49.7948 80.5452 50.1688C80.5452 50.5428 80.8456 50.8432 81.2196 50.8432C81.5936 50.8432 81.8939 50.5428 81.8939 50.1688C81.8939 49.7948 81.5936 49.4944 81.2196 49.4944Z" fill="#202838"/>
<path d="M33.508 86.9601C33.3493 86.9601 33.2246 86.8355 33.2246 86.6768V79.9728C33.2246 79.8141 33.3493 79.6895 33.508 79.6895C33.6666 79.6895 33.7913 79.8141 33.7913 79.9728V86.6768C33.7913 86.8355 33.6666 86.9601 33.508 86.9601Z" fill="#7FD6C3"/>
<path d="M57.3654 111.707C57.2067 111.707 57.082 111.582 57.082 111.423V102.945C57.082 102.787 57.2067 102.662 57.3654 102.662C57.5241 102.662 57.6487 102.787 57.6487 102.945V111.423C57.6487 111.582 57.5241 111.707 57.3654 111.707Z" fill="#7FD6C3"/>
<path d="M80.1427 86.9601C79.984 86.9601 79.8594 86.8355 79.8594 86.6768V79.9728C79.8594 79.8141 79.984 79.6895 80.1427 79.6895C80.3014 79.6895 80.4261 79.8141 80.4261 79.9728V86.6768C80.4261 86.8355 80.3014 86.9601 80.1427 86.9601Z" fill="#7FD6C3"/>
<path d="M57.0724 86.9601C56.9137 86.9601 56.7891 86.8355 56.7891 86.6768V79.9728C56.7891 79.8141 56.9137 79.6895 57.0724 79.6895C57.2311 79.6895 57.3558 79.8141 57.3558 79.9728V86.6768C57.3558 86.8355 57.2311 86.9601 57.0724 86.9601Z" fill="#8BBFEF" fill-opacity="0.2"/>
<path d="M80.0802 111.871C79.9215 111.871 79.7969 111.747 79.7969 111.588V102.844C79.7969 102.685 79.9215 102.561 80.0802 102.561C80.2389 102.561 80.3636 102.685 80.3636 102.844V111.588C80.3636 111.747 80.2389 111.871 80.0802 111.871Z" fill="#8BBFEF" fill-opacity="0.2"/>
<path d="M47.4092 118.117H40.7052C40.5465 118.117 40.4219 117.993 40.4219 117.834C40.4219 117.675 40.5465 117.551 40.7052 117.551H47.4092C47.5679 117.551 47.6925 117.675 47.6925 117.834C47.6925 117.993 47.5679 118.117 47.4092 118.117Z" fill="#8BBFEF" fill-opacity="0.2"/>
<path d="M88.4546 63.8438H26.3507C26.0189 63.8438 25.75 64.1127 25.75 64.4444V79.2805C25.75 79.6122 26.0189 79.8812 26.3507 79.8812H88.4546C88.7863 79.8812 89.0553 79.6122 89.0553 79.2805V64.4444C89.0553 64.1127 88.7863 63.8438 88.4546 63.8438Z" fill="#8BBFEF" fill-opacity="0.2"/>
<path d="M88.4604 80.1646H26.3508C25.8635 80.1646 25.4668 79.768 25.4668 79.2806V64.4446C25.4668 63.9572 25.8635 63.5605 26.3508 63.5605H88.4547C88.9421 63.5605 89.3388 63.9572 89.3388 64.4446V79.2806C89.3388 79.768 88.9421 80.1646 88.4547 80.1646H88.4604ZM26.3508 64.1272C26.1752 64.1272 26.0335 64.2689 26.0335 64.4446V79.2806C26.0335 79.4563 26.1752 79.598 26.3508 79.598H88.4547C88.6304 79.598 88.7721 79.4563 88.7721 79.2806V64.4446C88.7721 64.2689 88.6304 64.1272 88.4547 64.1272H26.3508Z" fill="#202838"/>
<path d="M41.0459 86.7891H26.4933C26.1615 86.7891 25.8926 87.058 25.8926 87.3898V101.942C25.8926 102.274 26.1615 102.543 26.4933 102.543H41.0459C41.3777 102.543 41.6466 102.274 41.6466 101.942V87.3898C41.6466 87.058 41.3777 86.7891 41.0459 86.7891Z" fill="white"/>
<path d="M41.0461 102.832H26.4934C26.0061 102.832 25.6094 102.436 25.6094 101.948V87.3958C25.6094 86.9084 26.0061 86.5117 26.4934 86.5117H41.0461C41.5334 86.5117 41.9301 86.9084 41.9301 87.3958V101.948C41.9301 102.436 41.5334 102.832 41.0461 102.832ZM26.4934 87.0727C26.3177 87.0727 26.1761 87.2144 26.1761 87.3901V101.943C26.1761 102.118 26.3177 102.26 26.4934 102.26H41.0461C41.2218 102.26 41.3634 102.118 41.3634 101.943V87.3901C41.3634 87.2144 41.2218 87.0727 41.0461 87.0727H26.4934Z" fill="#202838"/>
<path d="M64.6827 86.7891H50.13C49.7982 86.7891 49.5293 87.058 49.5293 87.3898V101.942C49.5293 102.274 49.7982 102.543 50.13 102.543H64.6827C65.0144 102.543 65.2834 102.274 65.2834 101.942V87.3898C65.2834 87.058 65.0144 86.7891 64.6827 86.7891Z" fill="#7FD6C3"/>
<path d="M64.6828 102.832H50.1301C49.6428 102.832 49.2461 102.436 49.2461 101.948V87.3958C49.2461 86.9084 49.6428 86.5117 50.1301 86.5117H64.6828C65.1702 86.5117 65.5668 86.9084 65.5668 87.3958V101.948C65.5668 102.436 65.1702 102.832 64.6828 102.832ZM50.1301 87.0727C49.9545 87.0727 49.8128 87.2144 49.8128 87.3901V101.943C49.8128 102.118 49.9545 102.26 50.1301 102.26H64.6828C64.8585 102.26 65.0002 102.118 65.0002 101.943V87.3901C65.0002 87.2144 64.8585 87.0727 64.6828 87.0727H50.1301Z" fill="#202838"/>
<path d="M87.8252 86.7891H73.2726C72.9408 86.7891 72.6719 87.058 72.6719 87.3898V101.942C72.6719 102.274 72.9408 102.543 73.2726 102.543H87.8252C88.157 102.543 88.4259 102.274 88.4259 101.942V87.3898C88.4259 87.058 88.157 86.7891 87.8252 86.7891Z" fill="white"/>
<path d="M87.8254 102.832H73.2727C72.7854 102.832 72.3887 102.436 72.3887 101.948V87.3958C72.3887 86.9084 72.7854 86.5117 73.2727 86.5117H87.8254C88.3127 86.5117 88.7094 86.9084 88.7094 87.3958V101.948C88.7094 102.436 88.3127 102.832 87.8254 102.832ZM73.2727 87.0727C73.097 87.0727 72.9554 87.2144 72.9554 87.3901V101.943C72.9554 102.118 73.097 102.26 73.2727 102.26H87.8254C88.0011 102.26 88.1427 102.118 88.1427 101.943V87.3901C88.1427 87.2144 88.0011 87.0727 87.8254 87.0727H73.2727Z" fill="#202838"/>
<path d="M82.0286 111.832H53.6033C50.2638 111.832 47.5566 114.539 47.5566 117.879V117.884C47.5566 121.224 50.2638 123.931 53.6033 123.931H82.0286C85.368 123.931 88.0752 121.224 88.0752 117.884V117.879C88.0752 114.539 85.368 111.832 82.0286 111.832Z" fill="white"/>
<path d="M82.023 124.215H53.6034C50.1126 124.215 47.2734 121.375 47.2734 117.885C47.2734 114.394 50.1126 111.555 53.6034 111.555H82.023C85.5139 111.555 88.353 114.394 88.353 117.885C88.353 121.375 85.5139 124.215 82.023 124.215ZM53.6091 112.116C50.4299 112.116 47.8458 114.7 47.8458 117.879C47.8458 121.058 50.4299 123.642 53.6091 123.642H82.0287C85.2079 123.642 87.792 121.058 87.792 117.879C87.792 114.7 85.2079 112.116 82.0287 112.116H53.6091Z" fill="#202838"/>
<path d="M115.242 99.4944H102.129C101.97 99.4944 101.846 99.3698 101.846 99.2111C101.846 99.0524 101.97 98.9277 102.129 98.9277H115.242C115.401 98.9277 115.526 99.0524 115.526 99.2111C115.526 99.3698 115.401 99.4944 115.242 99.4944Z" fill="white"/>
<path d="M136.567 99.4944H120.643C120.484 99.4944 120.359 99.3698 120.359 99.2111C120.359 99.0524 120.484 98.9277 120.643 98.9277H136.567C136.725 98.9277 136.85 99.0524 136.85 99.2111C136.85 99.3698 136.725 99.4944 136.567 99.4944Z" fill="white"/>
<path d="M126.06 120.576H102.129C101.97 120.576 101.846 120.452 101.846 120.293C101.846 120.134 101.97 120.01 102.129 120.01H126.06C126.219 120.01 126.344 120.134 126.344 120.293C126.344 120.452 126.219 120.576 126.06 120.576Z" fill="white"/>
<path d="M139.791 106.799H102.129C101.97 106.799 101.846 106.674 101.846 106.516C101.846 106.357 101.97 106.232 102.129 106.232H139.791C139.95 106.232 140.075 106.357 140.075 106.516C140.075 106.674 139.95 106.799 139.791 106.799Z" fill="white"/>
<path d="M114.064 113.741H102.129C101.97 113.741 101.846 113.616 101.846 113.457C101.846 113.299 101.97 113.174 102.129 113.174H114.064C114.222 113.174 114.347 113.299 114.347 113.457C114.347 113.616 114.222 113.741 114.064 113.741Z" fill="white"/>
<path d="M139.463 113.741H117.736C117.578 113.741 117.453 113.616 117.453 113.457C117.453 113.299 117.578 113.174 117.736 113.174H139.463C139.622 113.174 139.747 113.299 139.747 113.457C139.747 113.616 139.622 113.741 139.463 113.741Z" fill="white"/>
<path d="M141.334 68.2461H101.586V64.3529C101.586 63.8656 101.977 63.4745 102.465 63.4745L140.201 63.4745C140.83 63.4745 141.334 63.9846 141.334 64.6079V68.2461Z" fill="#7FD6C3"/>
<path d="M106.811 66.8174C106.25 66.8174 105.797 66.3584 105.797 65.7974C105.797 65.2364 106.25 64.7773 106.811 64.7773C107.372 64.7773 107.826 65.2364 107.826 65.7974C107.826 66.3584 107.372 66.8174 106.811 66.8174ZM106.811 65.3497C106.562 65.3497 106.364 65.5537 106.364 65.8031C106.364 66.0524 106.568 66.2564 106.811 66.2564C107.055 66.2564 107.259 66.0524 107.259 65.8031C107.259 65.5537 107.055 65.3497 106.811 65.3497Z" fill="white"/>
<path d="M109.673 66.8174C109.112 66.8174 108.658 66.3584 108.658 65.7974C108.658 65.2364 109.112 64.7773 109.673 64.7773C110.234 64.7773 110.687 65.2364 110.687 65.7974C110.687 66.3584 110.234 66.8174 109.673 66.8174ZM109.673 65.3497C109.423 65.3497 109.225 65.5537 109.225 65.8031C109.225 66.0524 109.429 66.2564 109.673 66.2564C109.916 66.2564 110.12 66.0524 110.12 65.8031C110.12 65.5537 109.916 65.3497 109.673 65.3497Z" fill="white"/>
<path d="M103.966 66.8174C103.405 66.8174 102.951 66.3584 102.951 65.7974C102.951 65.2364 103.405 64.7773 103.966 64.7773C104.527 64.7773 104.98 65.2364 104.98 65.7974C104.98 66.3584 104.527 66.8174 103.966 66.8174ZM103.966 65.3497C103.716 65.3497 103.518 65.5537 103.518 65.8031C103.518 66.0524 103.722 66.2564 103.966 66.2564C104.209 66.2564 104.413 66.0524 104.413 65.8031C104.413 65.5537 104.209 65.3497 103.966 65.3497Z" fill="white"/>
<path d="M101.699 91.5996H141.192C141.264 91.5996 141.322 91.5413 141.322 91.4693V68.3709C141.322 68.2989 141.264 68.2405 141.192 68.2405H101.699C101.627 68.2405 101.569 68.2989 101.569 68.3709V91.4693C101.569 91.5413 101.627 91.5996 101.699 91.5996Z" fill="white"/>
<path d="M136.141 74.1917H118.274C118.115 74.1917 117.99 74.067 117.99 73.9083C117.99 73.7497 118.115 73.625 118.274 73.625H136.141C136.3 73.625 136.425 73.7497 136.425 73.9083C136.425 74.067 136.3 74.1917 136.141 74.1917Z" fill="#7FD6C3"/>
<path d="M124.547 76.9007H118.268C118.109 76.9007 117.984 76.776 117.984 76.6173C117.984 76.4587 118.109 76.334 118.268 76.334H124.547C124.705 76.334 124.83 76.4587 124.83 76.6173C124.83 76.776 124.705 76.9007 124.547 76.9007Z" fill="#8BBFEF" fill-opacity="0.2"/>
<path d="M134.753 76.9007H127.131C126.972 76.9007 126.848 76.776 126.848 76.6173C126.848 76.4587 126.972 76.334 127.131 76.334H134.753C134.912 76.334 135.036 76.4587 135.036 76.6173C135.036 76.776 134.912 76.9007 134.753 76.9007Z" fill="#7FD6C3"/>
<path d="M129.726 85.1292H118.274C118.115 85.1292 117.99 85.0045 117.99 84.8458C117.99 84.6872 118.115 84.5625 118.274 84.5625H129.726C129.885 84.5625 130.01 84.6872 130.01 84.8458C130.01 85.0045 129.885 85.1292 129.726 85.1292Z" fill="#8BBFEF" fill-opacity="0.2"/>
<path d="M136.3 79.7503H118.274C118.115 79.7503 117.99 79.6256 117.99 79.4669C117.99 79.3083 118.115 79.1836 118.274 79.1836H136.3C136.459 79.1836 136.583 79.3083 136.583 79.4669C136.583 79.6256 136.459 79.7503 136.3 79.7503Z" fill="#8BBFEF" fill-opacity="0.2"/>
<path d="M123.986 82.4593H118.274C118.115 82.4593 117.99 82.3346 117.99 82.1759C117.99 82.0173 118.115 81.8926 118.274 81.8926H123.986C124.145 81.8926 124.269 82.0173 124.269 82.1759C124.269 82.3346 124.145 82.4593 123.986 82.4593Z" fill="#7FD6C3"/>
<path d="M136.141 82.4593H125.742C125.584 82.4593 125.459 82.3346 125.459 82.1759C125.459 82.0173 125.584 81.8926 125.742 81.8926H136.141C136.3 81.8926 136.424 82.0173 136.424 82.1759C136.424 82.3346 136.3 82.4593 136.141 82.4593Z" fill="#8BBFEF" fill-opacity="0.2"/>
<path d="M106.016 78.9735C106.016 76.7634 107.614 74.9329 109.716 74.5589L109.541 73.5332C106.537 74.0432 104.514 76.8937 105.024 79.8972L106.084 79.7158C106.044 79.4721 106.016 79.2285 106.016 78.9735Z" fill="#8BBFEF" fill-opacity="0.2"/>
<path d="M110.503 83.4626C108.276 83.4626 106.44 81.8419 106.083 79.7168L105.023 79.8981C105.533 82.9016 108.384 84.9247 111.387 84.4147L111.217 83.4003C110.985 83.44 110.747 83.4626 110.509 83.4626H110.503Z" fill="#CACAE5"/>
<path d="M115.905 78.0503C115.395 75.0468 112.544 73.0237 109.541 73.5338L109.717 74.5595C109.972 74.5141 110.232 74.4858 110.504 74.4858C112.981 74.4858 114.993 76.4919 114.993 78.974C114.993 81.2124 113.355 83.0599 111.218 83.3999L111.388 84.4143C113.644 84.0346 115.344 82.3345 115.837 80.2434C115.922 79.8921 115.967 79.535 115.979 79.1667C115.99 78.7983 115.967 78.4243 115.905 78.0503Z" fill="#7FD6C3"/>
</g>
<defs>
<clipPath id="clip0_337_13703">
<rect width="158.064" height="131.854" fill="white" transform="translate(0 47.1484)"/>
</clipPath>
</defs>
</svg>
