<svg width="25" height="25" viewBox="0 0 25 25" fill="none" xmlns="http://www.w3.org/2000/svg">
<path d="M7.8125 5.72949C7.8125 4.48629 8.30636 3.29401 9.18544 2.41493C10.0645 1.53585 11.2568 1.04199 12.5 1.04199C13.7432 1.04199 14.9355 1.53585 15.8146 2.41493C16.6936 3.29401 17.1875 4.48629 17.1875 5.72949V7.29199H21.875V23.9587H3.125V7.29199H7.8125V5.72949ZM7.8125 9.37533H5.20833V21.8753H19.7917V9.37533H17.1875V12.5003H15.1042V9.37533H9.89583V12.5003H7.8125V9.37533ZM15.1042 7.29199V5.72949C15.1042 5.03882 14.8298 4.37644 14.3414 3.88807C13.853 3.39969 13.1907 3.12533 12.5 3.12533C11.8093 3.12533 11.147 3.39969 10.6586 3.88807C10.1702 4.37644 9.89583 5.03882 9.89583 5.72949V7.29199H15.1042Z" fill="#0076E2"/>
</svg>
