<svg width="25" height="25" viewBox="0 0 25 25" fill="none" xmlns="http://www.w3.org/2000/svg">
<path d="M12.5 0.84082L24.8281 8.85436L22.9167 10.0971V16.6669H20.8333V11.4512L19.7917 12.1283V18.2294C19.7917 19.7606 18.7354 20.9533 17.4448 21.7075C16.1271 22.4752 14.3771 22.9158 12.5 22.9158C10.6229 22.9158 8.87187 22.4752 7.55521 21.7075C6.26354 20.9533 5.20833 19.7596 5.20833 18.2283V12.1283L0.171875 8.85436L12.5 0.84082ZM7.29167 13.4825V18.2294C7.29167 18.7117 7.63542 19.3408 8.60521 19.9064C9.55104 20.4585 10.925 20.8335 12.5 20.8335C14.075 20.8335 15.449 20.4585 16.3948 19.9064C17.3656 19.3408 17.7073 18.7117 17.7073 18.2294V13.4825L12.499 16.8679L7.29167 13.4825ZM21.0052 8.85436L12.5 3.32624L3.99479 8.85436L12.5 14.3825L21.0052 8.85436Z" fill="#0076E2"/>
</svg>
