<svg width="151" height="150" viewBox="0 0 151 150" fill="none" xmlns="http://www.w3.org/2000/svg">
<g clip-path="url(#clip0_543_31983)">
<path d="M87.8037 1.03027C89.2403 -0.759971 91.8578 -0.964745 93.666 0.34082L93.8389 0.47168L93.8477 0.478516L93.8555 0.486328C95.3197 1.76758 95.6732 3.76569 95.1328 5.38672L95.1309 5.39258L94.6582 5.22852L95.1299 5.39258L76.1191 59.8682L126.19 60.0283H126.189C128.568 60.0286 130.569 62.0313 130.569 64.4092L130.565 64.584C130.523 65.4594 130.164 66.3023 129.661 66.9727L129.657 66.9785C115.422 85.42 100.378 103.537 85.3408 121.646L85.3398 121.646C77.9025 130.539 70.4669 139.428 62.709 148.964L62.71 148.965C61.228 150.817 58.483 150.978 56.6709 149.528L56.6621 149.521L56.6543 149.514C55.19 148.232 54.8366 146.234 55.377 144.613L55.3789 144.607L74.3896 90.1309L24.3193 89.9717V89.9707C21.9418 89.9701 20.1017 88.1306 20.1016 85.7529C20.1016 84.6644 20.4663 83.7521 21.0098 83.0273L21.0156 83.0195L21.0225 83.0117L65.6504 28.1963C72.9279 19.1399 80.3668 10.0839 87.8037 1.03027ZM72.4092 33.8398L72.4072 33.8418C65.7783 41.9258 59.1897 50.0099 52.6006 58.0947C46.2323 65.9086 39.8624 73.7225 33.457 81.5371L80.2686 81.6953H80.2676C80.7382 81.6953 81.2993 81.6915 81.8691 81.8789H81.8701C84.2671 82.6167 85.3484 85.1872 84.6221 87.3662L84.6201 87.373L71.6348 124.515C72.5201 123.452 73.4131 122.389 74.3057 121.327C75.8016 119.548 77.2954 117.773 78.748 115.997L78.752 115.992L83.7764 109.989C95.2584 96.243 106.587 82.4684 117.563 68.4619L70.4023 68.3047V68.3037C69.9319 68.3037 69.3712 68.3075 68.8018 68.1201V68.1211C66.4045 67.3835 65.3225 64.8129 66.0488 62.6338L66.0518 62.626L79.0049 25.7217L72.4092 33.8398Z" fill="#0076E2" stroke="#0076E2"/>
<path d="M103.382 14.8271C104.553 12.9364 107.181 12.2977 109.126 13.3584L110.158 13.9326C120.761 19.9483 129.355 28.6708 135.35 38.7666L135.922 39.749C141.75 49.9447 144.956 61.6336 144.798 73.6318C144.796 89.9158 139.095 105.059 129.488 116.947L129.489 116.948C119.878 129.002 106.358 137.634 90.5635 141.217L90.5625 141.216C88.251 141.748 86.1191 140.375 85.4941 138.149L85.4385 137.931C84.8878 135.544 86.3693 133.347 88.7236 132.804L88.7295 132.803L90.0312 132.503C103.42 129.271 114.809 121.732 122.887 111.635L123.659 110.649C131.533 100.386 136.198 87.6136 136.198 73.7871C136.198 62.7175 133.31 52.1339 127.86 42.9971C122.408 33.856 114.549 26.1577 104.927 20.8652V20.8643C102.894 19.7539 102.179 17.0206 103.273 15.0137L103.382 14.8271ZM59.7842 6.68164C62.0041 6.13397 64.359 7.60703 64.9062 9.95801L64.9521 10.167C65.3684 12.3297 63.909 14.566 61.623 15.0938V15.0928C47.8297 18.3006 36.1243 25.9992 27.9473 36.4209L27.9443 36.4238C19.6053 46.8477 14.795 59.8357 14.7949 73.9482C14.7949 85.0133 17.8419 95.758 23.293 104.897L23.8262 105.766C29.4008 114.681 37.0711 122.064 46.5459 127.19C48.677 128.264 49.4099 130.709 48.4717 132.825L48.375 133.029C47.2704 135.238 44.6951 135.952 42.5303 134.87L42.5234 134.867L42.5176 134.863C31.629 129.024 22.881 120.587 16.5713 110.442L15.9688 109.456C9.61581 98.8678 6.19531 86.6508 6.19531 73.9482C6.1954 57.8245 11.7332 42.8398 21.1797 30.9502L22.0762 29.8447C31.4529 18.5166 44.3198 10.1523 59.7842 6.68066V6.68164Z" fill="white" stroke="white"/>
</g>
<defs>
<clipPath id="clip0_543_31983">
<rect width="150" height="150" fill="white" transform="translate(0.5)"/>
</clipPath>
</defs>
</svg>
