<svg width="151" height="150" viewBox="0 0 151 150" fill="none" xmlns="http://www.w3.org/2000/svg">
<g clip-path="url(#clip0_543_32011)">
<path d="M52.2174 102.845C49.3586 93.8425 47.9353 84.4456 48 74.9999H23.0001C22.9723 87.6649 27.5483 99.9083 35.876 109.45C40.9766 106.487 46.4732 104.265 52.2003 102.85L52.2174 102.845ZM52.2174 47.1561H52.2003C46.4732 45.7417 40.9766 43.5192 35.876 40.5555C27.5491 50.0957 22.9732 62.3369 23.0001 74.9999H48C47.9355 65.5548 49.3587 56.1584 52.2174 47.1561ZM98.7822 102.845H98.8003C104.527 104.26 110.024 106.482 115.125 109.445C123.451 99.9048 128.027 87.6633 127.999 75.0003H103C103.065 84.446 101.642 93.8431 98.7822 102.846V102.845ZM98.8006 47.1511H98.7818C101.642 56.1548 103.066 65.5533 103 75.0003H127.999C128.028 62.3357 123.452 50.0922 115.125 40.5508C110.024 43.5139 104.527 45.7364 98.8006 47.1511Z" fill="#0076E2"/>
<path d="M75.5 75.0001H103C103.065 65.5549 101.642 56.1584 98.7823 47.1562C91.1721 49.0801 83.3495 50.0357 75.5 50.0003V75.0001ZM75.5 50.0003C67.6504 50.0357 59.8278 49.0801 52.2176 47.1562C49.3589 56.1586 47.9356 65.555 48.0001 75.0001H75.5V50.0003ZM75.5 100C83.3496 99.9645 91.1723 100.921 98.7823 102.846C101.642 93.843 103.066 84.4459 103 75.0001H75.5V100Z" fill="#0076E2"/>
<path d="M48.0009 74.9997C47.9363 84.4454 49.3595 93.8423 52.2184 102.845C59.8285 100.92 67.6511 99.9644 75.5008 99.9996V74.9997H48.0009ZM98.7831 47.1558H98.8013C104.528 45.7411 110.025 43.5186 115.126 40.5552C110.203 34.879 104.116 30.3287 97.2792 27.2133C90.4419 24.0979 83.0143 22.4904 75.5008 22.5C85.3238 22.5 93.921 32.3634 98.7831 47.1558ZM52.2184 47.1558C57.0821 32.3634 65.679 22.5 75.5008 22.5C67.9878 22.4898 60.5606 24.0965 53.7235 27.2111C46.8865 30.3257 40.7999 34.8752 35.877 40.5506C40.9776 43.514 46.4742 45.7363 52.2012 47.1505L52.2184 47.1558Z" fill="#0076E2"/>
<path d="M98.7831 47.1558C93.921 32.3634 85.3238 22.5 75.5008 22.5V49.9998C83.3503 50.0352 91.1729 49.0796 98.7831 47.1558ZM52.2184 47.1558C59.8286 49.0796 67.6512 50.0352 75.5008 49.9998V22.5C65.679 22.5 57.0818 32.3634 52.2184 47.1558ZM98.7831 102.845C93.921 117.638 85.3238 127.499 75.5008 127.499C83.0139 127.51 90.4413 125.904 97.2785 122.789C104.116 119.675 110.203 115.126 115.126 109.45C110.025 106.487 104.528 104.265 98.8013 102.85L98.7831 102.845ZM52.2184 102.845H52.2012C46.4742 104.259 40.9776 106.482 35.877 109.445C40.7992 115.122 46.8857 119.672 53.7228 122.787C60.5599 125.903 67.9874 127.51 75.5008 127.5C65.679 127.5 57.0818 117.638 52.2184 102.845V102.845Z" fill="#0076E2"/>
<path d="M98.7815 102.847C91.1715 100.922 83.3488 99.9654 75.4992 100.001V127.501C85.3222 127.501 93.9193 117.639 98.7815 102.847ZM52.2168 102.847C57.0802 117.639 65.6773 127.501 75.4992 127.501V100.001C67.6495 99.9658 59.8269 100.922 52.2168 102.847Z" fill="#0076E2"/>
<path d="M75.4991 20.0003C70.571 20.0003 65.6651 20.6606 60.9117 21.9659C59.6326 22.3184 58.3704 22.7334 57.1204 23.1753C49.1297 25.9981 41.9008 30.6324 35.9999 36.7152C35.3109 37.4252 34.644 38.1564 34.0003 38.9077C18.0785 57.2085 16.0266 83.778 28.9478 104.306C41.8702 124.835 66.7138 134.473 90.0999 128.033C91.379 127.68 92.6424 127.265 93.8924 126.822C101.878 123.999 109.102 119.366 114.999 113.286C115.689 112.576 116.356 111.844 116.999 111.092C131.141 94.8314 134.483 71.8091 125.549 52.1989C116.614 32.5865 97.0502 20.0019 75.4991 20.0003ZM114.477 106.25C110.507 104.128 106.324 102.429 101.999 101.18C104.151 93.466 105.305 85.5077 105.432 77.5H125.387C124.873 87.9939 121.054 98.0568 114.477 106.25ZM110.919 110.281C109.809 111.393 108.669 112.461 107.462 113.458C106.26 114.458 105.005 115.388 103.712 116.268C103.602 116.34 103.499 116.418 103.392 116.493C102.161 117.318 100.892 118.081 99.5967 118.793C99.4199 118.89 99.2467 118.99 99.0696 119.085C97.7989 119.761 96.5001 120.382 95.1768 120.948C94.9618 121.037 94.7496 121.13 94.5346 121.218C93.262 121.745 91.9663 122.215 90.6515 122.625C95.0109 117.776 98.3422 112.093 100.444 105.92C104.123 106.968 107.695 108.362 111.112 110.083C111.054 110.15 110.985 110.216 110.919 110.283V110.281ZM55.8092 120.948C54.4883 120.382 53.1917 119.761 51.9227 119.088C51.7445 118.992 51.5674 118.89 51.3905 118.792C50.0977 118.08 48.8267 117.32 47.5999 116.495L47.2718 116.265C45.9924 115.388 44.7424 114.46 43.5424 113.463C42.3424 112.463 41.1952 111.397 40.088 110.285L39.8827 110.087C43.2996 108.367 46.8709 106.973 50.5492 105.922C52.6515 112.096 55.9826 117.779 60.3417 122.63C59.0292 122.215 57.7341 121.746 56.4598 121.225L55.8092 120.948ZM36.5221 43.7499C40.4923 45.8727 44.6747 47.5723 49.0002 48.8208C46.8484 56.5345 45.6948 64.4924 45.5677 72.4997H25.6128C26.1269 62.0058 29.9453 51.9431 36.5221 43.7499ZM40.0793 39.7205C41.1902 38.6083 42.3302 37.5402 43.5377 36.543C44.7399 35.543 45.9949 34.613 47.2877 33.7327C47.3974 33.6609 47.5002 33.5827 47.6074 33.5084C48.838 32.683 50.1074 31.9202 51.4027 31.2084C51.5795 31.1109 51.7517 31.0106 51.9298 30.9156C53.2006 30.2399 54.4993 29.6184 55.8226 29.0528C56.0376 28.9637 56.2498 28.8709 56.4648 28.7831C57.7367 28.2581 59.0342 27.7831 60.3479 27.3756C55.9887 32.2255 52.6572 37.9081 50.5542 44.0808C46.8757 43.032 43.3043 41.6384 39.8877 39.9183C39.9452 39.8511 40.0146 39.7852 40.0793 39.718V39.7205ZM95.189 29.0549C96.5103 29.6207 97.8073 30.2414 99.0767 30.9156C99.2549 31.0106 99.4321 31.1134 99.6089 31.2109C100.902 31.9224 102.172 32.683 103.4 33.5084L103.726 33.7377C105.007 34.6155 106.257 35.543 107.457 36.5405C108.657 37.5402 109.804 38.6061 110.911 39.718L111.117 39.9158C107.699 41.6359 104.128 43.0304 100.449 44.0808C98.3483 37.9066 95.0169 32.2228 90.6565 27.3731C91.9695 27.7881 93.265 28.2568 94.5396 28.7781L95.189 29.0549ZM72.9991 47.4261C67.1332 47.298 61.2937 46.6006 55.5626 45.3436C59.6876 34.389 65.952 26.739 72.9991 25.2631V47.4261ZM53.9648 50.1054C60.2154 51.5169 66.5925 52.2943 72.9991 52.4261V72.5003H50.5649C50.7273 64.9199 51.8701 57.3924 53.9648 50.1054ZM72.9991 77.5V97.5755C66.5929 97.7073 60.216 98.4848 53.9648 99.8948C51.8701 92.6078 50.7273 85.0803 50.5649 77.5H72.9991ZM72.9991 102.575V124.751C65.9523 123.275 59.6873 115.625 55.5626 104.67C61.2933 103.409 67.1328 102.708 72.9991 102.575ZM77.9991 102.575C83.8656 102.704 89.7052 103.4 95.4364 104.658C91.3121 115.613 85.0475 123.263 77.9991 124.751V102.575ZM97.0346 99.8948C90.7834 98.4846 84.406 97.7075 77.9991 97.5755V77.5H100.434C100.272 85.0803 99.1292 92.6078 97.0346 99.8948ZM77.9991 72.5V52.4257C84.4061 52.2941 90.7836 51.5166 97.0346 50.1051C99.1292 57.3922 100.272 64.9196 100.434 72.5H77.9991ZM77.9991 47.4258V25.2628C85.0475 26.7387 91.3121 34.3887 95.4364 45.3433C89.7051 46.6003 83.8652 47.2977 77.9991 47.4258ZM45.5677 77.5C45.6947 85.5076 46.8483 93.466 49.0002 101.18C44.6749 102.429 40.4926 104.128 36.5221 106.25C29.9443 98.0571 26.1258 87.994 25.6128 77.5H45.5677ZM105.432 72.5C105.305 64.4927 104.151 56.5348 101.999 48.8211C106.325 47.5726 110.507 45.873 114.477 43.7502C121.054 51.9434 124.872 62.0062 125.387 72.5H105.432Z" fill="white"/>
<path d="M134.371 28.5245C134.167 28.2669 133.915 28.0519 133.628 27.8918C133.341 27.7317 133.026 27.6296 132.7 27.5914C132.374 27.5532 132.043 27.5796 131.727 27.6691C131.411 27.7586 131.116 27.9095 130.859 28.1131C130.601 28.3167 130.386 28.569 130.226 28.8557C130.066 29.1424 129.964 29.4578 129.926 29.7839C129.887 30.11 129.914 30.4404 130.003 30.7564C130.093 31.0723 130.244 31.3675 130.447 31.6251C140.249 43.9517 145.558 59.2503 145.5 74.9989C145.501 101.81 130.188 126.267 106.069 137.975C81.9491 149.683 53.2602 146.585 32.196 129.999H40.5003C41.8821 129.999 43.0003 128.88 43.0003 127.499C43.0003 126.118 41.8821 124.999 40.5003 124.999H25.471C25.2546 125.014 25.0411 125.058 24.8363 125.129C24.7274 125.145 24.6208 125.168 24.5166 125.199C24.4529 125.225 24.4054 125.282 24.3457 125.311C24.113 125.426 23.8996 125.576 23.7132 125.757L23.6913 125.771C23.6341 125.851 23.5823 125.935 23.5363 126.021C23.3942 126.188 23.2763 126.375 23.186 126.574C23.1285 126.756 23.0908 126.944 23.0735 127.134C23.0401 127.253 23.0157 127.375 23.0004 127.499V142.498C23.0004 143.88 24.1198 144.998 25.5004 144.998C26.8822 144.998 28.0004 143.88 28.0004 142.498V133.016C50.4208 151.385 81.4191 155.188 107.614 142.782C133.809 130.376 150.507 103.983 150.5 74.9989C150.563 58.1243 144.874 41.7319 134.371 28.5245ZM5.50049 74.9989C5.50049 48.1887 20.8129 23.732 44.9328 12.0243C69.0523 0.315592 97.7412 3.4137 118.805 19.9992H110.5C109.837 19.9992 109.201 20.2626 108.732 20.7314C108.263 21.2003 108 21.8362 108 22.4992C108 23.1622 108.263 23.7981 108.732 24.267C109.201 24.7358 109.837 24.9992 110.5 24.9992H125.525C125.782 24.9895 126.034 24.9367 126.275 24.8479C126.345 24.8359 126.415 24.8208 126.483 24.8026C126.564 24.753 126.644 24.6996 126.72 24.6426C126.928 24.5367 127.119 24.4021 127.288 24.2426L127.31 24.2276C127.368 24.1474 127.421 24.0641 127.468 23.9776C127.752 23.6753 127.916 23.2792 127.928 22.8642C127.961 22.7444 127.985 22.6227 128 22.4992V7.4993C128 6.83626 127.736 6.20038 127.268 5.73154C126.799 5.2627 126.163 4.99931 125.5 4.99931C124.837 4.99931 124.201 5.2627 123.732 5.73154C123.263 6.20038 123 6.83626 123 7.4993V16.983C100.581 -1.38721 69.582 -5.19 43.3871 7.21742C17.1923 19.6233 0.493338 46.0159 0.500525 74.9989C0.436826 91.9391 6.17101 108.391 16.7504 121.622C17.0227 121.968 17.3815 122.236 17.7905 122.399C18.1995 122.562 18.6442 122.614 19.0798 122.55C19.5154 122.486 19.9263 122.308 20.2711 122.034C20.6159 121.76 20.8824 121.4 21.0435 120.991C21.2042 120.581 21.254 120.136 21.1877 119.701C21.1215 119.265 20.9417 118.855 20.6663 118.512C10.7921 106.164 5.44034 90.8091 5.50049 74.9989Z" fill="white"/>
</g>
<defs>
<clipPath id="clip0_543_32011">
<rect width="150" height="150" fill="white" transform="translate(0.5)"/>
</clipPath>
</defs>
</svg>
