<svg width="25" height="25" viewBox="0 0 25 25" fill="none" xmlns="http://www.w3.org/2000/svg">
<path d="M19.1408 9.24544C19.1408 9.45264 19.0585 9.65136 18.912 9.79787C18.7655 9.94438 18.5667 10.0267 18.3595 10.0267H12.8908C12.6836 10.0267 12.4849 9.94438 12.3384 9.79787C12.1918 9.65136 12.1095 9.45264 12.1095 9.24544C12.1095 9.03824 12.1918 8.83953 12.3384 8.69302C12.4849 8.5465 12.6836 8.46419 12.8908 8.46419H18.3595C18.5667 8.46419 18.7655 8.5465 18.912 8.69302C19.0585 8.83953 19.1408 9.03824 19.1408 9.24544ZM9.21371 7.13086L7.42204 8.92148L7.19287 8.69336C7.04372 8.56501 6.85163 8.49767 6.65499 8.50479C6.45834 8.51192 6.27163 8.59299 6.13216 8.7318C5.99269 8.87061 5.91074 9.05694 5.90268 9.25355C5.89463 9.45016 5.96106 9.64256 6.0887 9.79232L6.86995 10.5736C7.01644 10.7199 7.21501 10.802 7.42204 10.802C7.62907 10.802 7.82764 10.7199 7.97412 10.5736L10.3127 8.23503C10.4507 8.08693 10.5258 7.89105 10.5222 7.68865C10.5187 7.48625 10.4367 7.29314 10.2935 7.15C10.1504 7.00687 9.95727 6.92487 9.75488 6.9213C9.55248 6.91773 9.3566 6.99286 9.2085 7.13086H9.21371ZM18.3595 15.7559H12.8908C12.6836 15.7559 12.4849 15.8382 12.3384 15.9847C12.1918 16.1312 12.1095 16.3299 12.1095 16.5371C12.1095 16.7443 12.1918 16.943 12.3384 17.0895C12.4849 17.2361 12.6836 17.3184 12.8908 17.3184H18.3595C18.5667 17.3184 18.7655 17.2361 18.912 17.0895C19.0585 16.943 19.1408 16.7443 19.1408 16.5371C19.1408 16.3299 19.0585 16.1312 18.912 15.9847C18.7655 15.8382 18.5667 15.7559 18.3595 15.7559ZM9.21371 14.4225L7.42204 16.2132L7.19287 15.985C7.12135 15.9083 7.0351 15.8467 6.93927 15.804C6.84343 15.7613 6.73998 15.7383 6.63508 15.7365C6.53018 15.7346 6.42599 15.7539 6.32871 15.7932C6.23143 15.8325 6.14306 15.891 6.06887 15.9652C5.99469 16.0394 5.9362 16.1278 5.89691 16.225C5.85762 16.3223 5.83832 16.4265 5.84017 16.5314C5.84202 16.6363 5.86498 16.7398 5.90768 16.8356C5.95038 16.9314 6.01195 17.0177 6.0887 17.0892L6.86995 17.8704C7.01644 18.0167 7.21501 18.0989 7.42204 18.0989C7.62907 18.0989 7.82764 18.0167 7.97412 17.8704L10.3179 15.5267C10.4559 15.3786 10.531 15.1827 10.5274 14.9803C10.5239 14.7779 10.4419 14.5848 10.2987 14.4417C10.1556 14.2985 9.96248 14.2165 9.76008 14.213C9.55768 14.2094 9.3618 14.2845 9.21371 14.4225ZM23.6981 9.37565V15.6257C23.6981 21.284 21.2835 23.6986 15.6252 23.6986H9.37516C3.71683 23.6986 1.30225 21.284 1.30225 15.6257V9.37565C1.30225 3.71732 3.71683 1.30273 9.37516 1.30273H15.6252C21.2835 1.30273 23.6981 3.71732 23.6981 9.37565ZM22.1356 9.37565C22.1356 4.5694 20.4314 2.86523 15.6252 2.86523H9.37516C4.56891 2.86523 2.86475 4.5694 2.86475 9.37565V15.6257C2.86475 20.4319 4.56891 22.1361 9.37516 22.1361H15.6252C20.4314 22.1361 22.1356 20.4319 22.1356 15.6257V9.37565Z" fill="#202838"/>
</svg>
