<svg width="25" height="25" viewBox="0 0 25 25" fill="none" xmlns="http://www.w3.org/2000/svg">
<path d="M22.9866 7.49935C22.5905 6.20591 21.8832 5.02937 20.9267 4.07284C19.9702 3.11631 18.7936 2.409 17.5002 2.01289C15.5356 1.43685 14.1939 1.49206 13.2741 2.18373C12.8222 2.62077 12.4761 3.15535 12.2623 3.74661C12.0486 4.33786 11.9728 4.97016 12.0408 5.59519V8.58998C12.0408 11.49 13.3543 12.965 15.947 12.965H19.4043C20.0293 13.0318 20.6612 12.955 21.2519 12.7403C21.8426 12.5257 22.3764 12.1789 22.8127 11.7264C23.5054 10.8046 23.5606 9.46289 22.9866 7.49935ZM21.5627 10.7889C21.2502 11.1983 20.5491 11.3983 19.4002 11.3983H15.945C14.4981 11.3983 13.6012 10.9285 13.6012 8.58581V5.59519C13.6012 4.44935 13.8002 3.74102 14.2095 3.43373C14.5014 3.24728 14.8452 3.15896 15.1908 3.18164C15.8255 3.20621 16.4539 3.31731 17.0585 3.51185C18.0993 3.83806 19.0457 4.41125 19.817 5.18252C20.5883 5.95378 21.1615 6.90021 21.4877 7.94102C21.8991 9.35039 21.9252 10.3119 21.5627 10.7889Z" fill="#0076E2"/>
<path d="M21.9188 15.1485C21.4552 17.474 20.1981 19.5662 18.3624 21.0672C16.5267 22.5683 14.2265 23.385 11.8553 23.3776C11.2922 23.3784 10.7299 23.3334 10.174 23.2433C7.81198 22.8499 5.66216 21.642 4.0976 19.8293C2.53303 18.0165 1.65245 15.7132 1.60865 13.319C1.56485 10.9248 2.36059 8.59083 3.8578 6.72203C5.355 4.85323 7.4592 3.56755 9.80529 3.08805C10.0083 3.04661 10.2195 3.08753 10.3924 3.20181C10.5653 3.31609 10.6857 3.49437 10.7272 3.69743C10.7686 3.90048 10.7277 4.11168 10.6134 4.28457C10.4991 4.45745 10.3208 4.57786 10.1178 4.6193C8.57967 4.9355 7.156 5.66263 5.99815 6.72338C4.8403 7.78413 3.99157 9.13883 3.54219 10.6434C3.09282 12.1481 3.05961 13.7463 3.44609 15.2683C3.83257 16.7903 4.6243 18.1791 5.73708 19.287C6.84987 20.3949 8.24211 21.1806 9.76576 21.5604C11.2894 21.9402 12.8875 21.9 14.3902 21.4441C15.8928 20.9881 17.2438 20.1335 18.2994 18.971C19.3551 17.8085 20.076 16.3817 20.3855 14.8422C20.4261 14.639 20.5458 14.4603 20.7182 14.3453C20.8906 14.2304 21.1016 14.1886 21.3048 14.2292C21.508 14.2698 21.6867 14.3895 21.8017 14.5619C21.9166 14.7343 21.9594 14.9453 21.9188 15.1485Z" fill="#202838"/>
</svg>
