<svg width="25" height="25" viewBox="0 0 25 25" fill="none" xmlns="http://www.w3.org/2000/svg">
<path d="M7.29183 10.4027C7.49903 10.4027 7.69774 10.485 7.84426 10.6316C7.99077 10.7781 8.07308 10.9768 8.07308 11.184V14.5257C8.07308 14.7329 7.99077 14.9316 7.84426 15.0781C7.69774 15.2246 7.49903 15.3069 7.29183 15.3069C7.08463 15.3069 6.88592 15.2246 6.7394 15.0781C6.59289 14.9316 6.51058 14.7329 6.51058 14.5257V11.184C6.51058 10.9768 6.59289 10.7781 6.7394 10.6316C6.88592 10.485 7.08463 10.4027 7.29183 10.4027ZM11.7189 9.37565V16.334C11.7189 16.5412 11.8012 16.7399 11.9477 16.8864C12.0942 17.0329 12.293 17.1152 12.5002 17.1152C12.7074 17.1152 12.9061 17.0329 13.0526 16.8864C13.1991 16.7399 13.2814 16.5412 13.2814 16.334V9.37565C13.2814 9.16845 13.1991 8.96974 13.0526 8.82323C12.9061 8.67671 12.7074 8.5944 12.5002 8.5944C12.293 8.5944 12.0942 8.67671 11.9477 8.82323C11.8012 8.96974 11.7189 9.16845 11.7189 9.37565ZM17.7085 10.4027C17.5013 10.4027 17.3026 10.485 17.1561 10.6316C17.0096 10.7781 16.9272 10.9768 16.9272 11.184V14.5257C16.9272 14.7329 17.0096 14.9316 17.1561 15.0781C17.3026 15.2246 17.5013 15.3069 17.7085 15.3069C17.9157 15.3069 18.1144 15.2246 18.2609 15.0781C18.4074 14.9316 18.4897 14.7329 18.4897 14.5257V11.184C18.4897 10.9768 18.4074 10.7781 18.2609 10.6316C18.1144 10.485 17.9157 10.4027 17.7085 10.4027ZM15.6252 1.30273H9.37516C3.71579 1.30273 1.30225 3.71732 1.30225 9.37565V15.6257C1.30225 21.284 3.71579 23.6986 9.37516 23.6986H13.5418C13.749 23.6986 13.9477 23.6163 14.0943 23.4697C14.2408 23.3232 14.3231 23.1245 14.3231 22.9173C14.3231 22.7101 14.2408 22.5114 14.0943 22.3649C13.9477 22.2184 13.749 22.1361 13.5418 22.1361H9.37516C4.56891 22.1361 2.86475 20.4319 2.86475 15.6257V9.37565C2.86475 4.5694 4.56891 2.86523 9.37516 2.86523H15.6252C20.4314 2.86523 22.1356 4.5694 22.1356 9.37565V13.5423C22.1356 13.7495 22.2179 13.9482 22.3644 14.0947C22.5109 14.2413 22.7096 14.3236 22.9168 14.3236C23.124 14.3236 23.3227 14.2413 23.4693 14.0947C23.6158 13.9482 23.6981 13.7495 23.6981 13.5423V9.37565C23.6981 3.71732 21.2845 1.30273 15.6252 1.30273Z" fill="#202838"/>
<path d="M22.469 18.2164L18.9055 22.383C18.8356 22.465 18.7496 22.5316 18.6528 22.5788C18.556 22.6259 18.4505 22.6526 18.343 22.657H18.3117C18.1056 22.6568 17.9079 22.5752 17.7617 22.4299L16.1169 20.7976C15.9739 20.6509 15.8942 20.4539 15.895 20.2489C15.8959 20.044 15.9772 19.8476 16.1215 19.7021C16.2658 19.5566 16.4615 19.4736 16.6664 19.471C16.8713 19.4684 17.069 19.5464 17.2169 19.6882L18.2648 20.7299L21.2857 17.2028C21.4221 17.0519 21.612 16.9601 21.815 16.9469C22.018 16.9338 22.2182 17.0004 22.3729 17.1326C22.5275 17.2647 22.6246 17.452 22.6433 17.6546C22.662 17.8572 22.601 18.0591 22.4732 18.2174L22.469 18.2164Z" fill="#0076E2"/>
</svg>
