<svg width="25" height="25" viewBox="0 0 25 25" fill="none" xmlns="http://www.w3.org/2000/svg">
<path d="M8.3335 16.4069C8.5407 16.4069 8.73941 16.4892 8.88592 16.6357C9.03244 16.7822 9.11475 16.981 9.11475 17.1882C9.11475 17.3954 9.03244 17.5941 8.88592 17.7406C8.73941 17.8871 8.5407 17.9694 8.3335 17.9694H6.25016C6.04296 17.9694 5.84425 17.8871 5.69774 17.7406C5.55122 17.5941 5.46891 17.3954 5.46891 17.1882C5.46891 16.981 5.55122 16.7822 5.69774 16.6357C5.84425 16.4892 6.04296 16.4069 6.25016 16.4069H8.3335ZM15.1043 16.4069H10.9377C10.7305 16.4069 10.5317 16.4892 10.3852 16.6357C10.2387 16.7822 10.1564 16.981 10.1564 17.1882C10.1564 17.3954 10.2387 17.5941 10.3852 17.7406C10.5317 17.8871 10.7305 17.9694 10.9377 17.9694H15.1043C15.3115 17.9694 15.5102 17.8871 15.6568 17.7406C15.8033 17.5941 15.8856 17.3954 15.8856 17.1882C15.8856 16.981 15.8033 16.7822 15.6568 16.6357C15.5102 16.4892 15.3115 16.4069 15.1043 16.4069ZM22.9168 13.8319C22.7096 13.8319 22.5109 13.9142 22.3644 14.0607C22.2179 14.2072 22.1356 14.406 22.1356 14.6132V16.7788C22.1356 20.0079 21.5595 20.5736 18.2877 20.5736H6.71266C3.43766 20.5736 2.86475 20.0007 2.86475 16.7788V9.63607H15.1043C15.3115 9.63607 15.5102 9.55376 15.6568 9.40725C15.8033 9.26073 15.8856 9.06202 15.8856 8.85482C15.8856 8.64762 15.8033 8.4489 15.6568 8.30239C15.5102 8.15588 15.3115 8.07357 15.1043 8.07357H2.86683C2.88558 4.98294 3.49183 4.42773 6.71266 4.42773H15.1043C15.3115 4.42773 15.5102 4.34542 15.6568 4.19891C15.8033 4.0524 15.8856 3.85368 15.8856 3.64648C15.8856 3.43928 15.8033 3.24057 15.6568 3.09406C15.5102 2.94754 15.3115 2.86523 15.1043 2.86523H6.71266C2.56683 2.86523 1.30225 4.11523 1.30225 8.22253V16.7788C1.30225 20.884 2.56683 22.1361 6.71266 22.1361H18.2877C22.4335 22.1361 23.6981 20.8861 23.6981 16.7788V14.6132C23.6981 14.406 23.6158 14.2072 23.4693 14.0607C23.3227 13.9142 23.124 13.8319 22.9168 13.8319Z" fill="#202838"/>
<path d="M23.469 4.21637L19.9055 8.38304C19.8356 8.465 19.7496 8.53164 19.6528 8.57879C19.556 8.62593 19.4505 8.65256 19.343 8.657H19.3117C19.1056 8.65682 18.9079 8.5752 18.7617 8.42991L17.1169 6.79762C16.9739 6.65091 16.8942 6.45385 16.895 6.24894C16.8959 6.04402 16.9772 5.84764 17.1215 5.70213C17.2658 5.55661 17.4615 5.47361 17.6664 5.47102C17.8713 5.46842 18.069 5.54644 18.2169 5.68825L19.2648 6.72991L22.2857 3.20283C22.4221 3.05186 22.612 2.96006 22.815 2.94694C23.018 2.93382 23.2182 3.00042 23.3729 3.13259C23.5275 3.26475 23.6246 3.45204 23.6433 3.65463C23.662 3.85722 23.601 4.05913 23.4732 4.21741L23.469 4.21637Z" fill="#0076E2"/>
</svg>
