<svg width="25" height="25" viewBox="0 0 25 25" fill="none" xmlns="http://www.w3.org/2000/svg">
<path d="M23.6981 13.543C23.6981 13.7502 23.6158 13.9489 23.4693 14.0954C23.3227 14.2419 23.124 14.3242 22.9168 14.3242H2.0835C1.8763 14.3242 1.67758 14.2419 1.53107 14.0954C1.38456 13.9489 1.30225 13.7502 1.30225 13.543C1.30225 13.3358 1.38456 13.1371 1.53107 12.9905C1.67758 12.844 1.8763 12.7617 2.0835 12.7617H22.9168C23.124 12.7617 23.3227 12.844 23.4693 12.9905C23.6158 13.1371 23.6981 13.3358 23.6981 13.543Z" fill="#0076E2"/>
<path d="M18.2877 1.30273H6.71266C2.56683 1.30273 1.30225 2.56732 1.30225 6.71315V13.3111C1.30225 17.4569 2.56683 18.7215 6.71266 18.7215H11.7189V22.1361H7.81266C7.60546 22.1361 7.40675 22.2184 7.26024 22.3649C7.11372 22.5114 7.03141 22.7101 7.03141 22.9173C7.03141 23.1245 7.11372 23.3232 7.26024 23.4697C7.40675 23.6163 7.60546 23.6986 7.81266 23.6986H17.1877C17.3949 23.6986 17.5936 23.6163 17.7401 23.4697C17.8866 23.3232 17.9689 23.1245 17.9689 22.9173C17.9689 22.7101 17.8866 22.5114 17.7401 22.3649C17.5936 22.2184 17.3949 22.1361 17.1877 22.1361H13.2814V18.7215H18.2877C22.4335 18.7215 23.6981 17.4569 23.6981 13.3111V6.71315C23.6981 2.56732 22.4335 1.30273 18.2877 1.30273ZM22.1356 13.3111C22.1356 16.584 21.5595 17.159 18.2877 17.159H6.71266C3.44079 17.159 2.86475 16.584 2.86475 13.3111V6.71315C2.86475 3.43815 3.43766 2.86523 6.71266 2.86523H18.2877C21.5595 2.86523 22.1356 3.44023 22.1356 6.71315V13.3111Z" fill="#202838"/>
</svg>
