<svg width="25" height="25" viewBox="0 0 25 25" fill="none" xmlns="http://www.w3.org/2000/svg">
<path d="M15.6252 1.30273H9.37516C3.71683 1.30273 1.30225 3.71732 1.30225 9.37565V15.6257C1.30225 21.284 3.71683 23.6986 9.37516 23.6986H15.6252C21.2835 23.6986 23.6981 21.284 23.6981 15.6257V9.37565C23.6981 3.71732 21.2835 1.30273 15.6252 1.30273ZM9.37516 2.86523H15.6252C20.4314 2.86523 22.1356 4.5694 22.1356 9.37565V12.7611H18.996C18.4637 12.7598 17.9417 12.9074 17.4889 13.1872C17.0361 13.467 16.6705 13.8678 16.4335 14.3444L15.5022 16.2079C15.3951 16.425 15.2291 16.6076 15.0232 16.7348C14.8173 16.8621 14.5797 16.9289 14.3377 16.9277H10.6627C10.4185 16.9396 10.1765 16.8772 9.9686 16.7487C9.76068 16.6202 9.59662 16.4316 9.49808 16.2079L8.56683 14.3465C8.32976 13.8702 7.96431 13.4697 7.5117 13.1901C7.0591 12.9105 6.53737 12.763 6.00537 12.7642H2.86475V9.37565C2.86475 4.5694 4.56891 2.86523 9.37516 2.86523ZM15.6252 22.1361H9.37516C4.56891 22.1361 2.86475 20.4319 2.86475 15.6257V14.3246H6.00433C6.24639 14.3234 6.48392 14.3903 6.68983 14.5175C6.89574 14.6448 7.06174 14.8274 7.16891 15.0444L8.10016 16.9048C8.32696 17.3894 8.6902 17.7973 9.14535 18.0785C9.60051 18.3598 10.1278 18.5021 10.6627 18.4882H14.3377C14.8699 18.4894 15.392 18.3418 15.8448 18.0621C16.2976 17.7823 16.6632 17.3814 16.9002 16.9048L17.8314 15.0413C17.9386 14.8242 18.1046 14.6417 18.3105 14.5144C18.5164 14.3871 18.7539 14.3203 18.996 14.3215H22.1356V15.6257C22.1356 20.4319 20.4314 22.1361 15.6252 22.1361Z" fill="#202838"/>
<path d="M14.2345 8.07422H10.7658C10.5586 8.07422 10.3599 7.99191 10.2134 7.8454C10.0668 7.69888 9.98454 7.50017 9.98454 7.29297C9.98454 7.08577 10.0668 6.88705 10.2134 6.74054C10.3599 6.59403 10.5586 6.51172 10.7658 6.51172H14.2345C14.4417 6.51172 14.6405 6.59403 14.787 6.74054C14.9335 6.88705 15.0158 7.08577 15.0158 7.29297C15.0158 7.50017 14.9335 7.69888 14.787 7.8454C14.6405 7.99191 14.4417 8.07422 14.2345 8.07422ZM15.8856 10.418C15.8856 10.2108 15.8033 10.0121 15.6568 9.86554C15.5102 9.71903 15.3115 9.63672 15.1043 9.63672H9.896C9.6888 9.63672 9.49008 9.71903 9.34357 9.86554C9.19706 10.0121 9.11475 10.2108 9.11475 10.418C9.11475 10.6252 9.19706 10.8239 9.34357 10.9704C9.49008 11.1169 9.6888 11.1992 9.896 11.1992H15.1043C15.3115 11.1992 15.5102 11.1169 15.6568 10.9704C15.8033 10.8239 15.8856 10.6252 15.8856 10.418Z" fill="#0076E2"/>
</svg>
