<svg width="32" height="32" viewBox="0 0 32 32" fill="none" xmlns="http://www.w3.org/2000/svg">
<g clip-path="url(#clip0_972_33438)">
<path d="M16 32C24.8366 32 32 24.8366 32 16C32 7.16344 24.8366 0 16 0C7.16344 0 0 7.16344 0 16C0 24.8366 7.16344 32 16 32Z" fill="#F96600"/>
<path d="M15.0163 20.0876C13.4654 19.9258 12.0672 19.5421 10.8709 18.6076C10.7218 18.4912 10.5691 18.3785 10.4327 18.244C9.90905 17.7403 9.85633 17.164 10.2709 16.5712C10.6254 16.0621 11.22 15.9258 11.84 16.2185C11.959 16.2788 12.0733 16.3481 12.1818 16.4258C13.2904 17.1793 14.5973 17.5879 15.9377 17.6002C17.2781 17.6125 18.5922 17.2279 19.7145 16.4949C19.9291 16.3212 20.1764 16.1926 20.4418 16.1167C20.6886 16.0437 20.9528 16.0559 21.1919 16.1512C21.4309 16.2465 21.631 16.4194 21.76 16.6421C22.0872 17.1767 22.0836 17.6967 21.68 18.1112C21.0613 18.7369 20.3136 19.2203 19.4891 19.5276C18.6863 19.816 17.8508 20.0035 17.0018 20.0858C17.1291 20.2258 17.1836 20.293 17.2709 20.373C18.4218 21.5312 19.5781 22.684 20.7254 23.844C20.9082 24.0101 21.0322 24.2311 21.0787 24.4737C21.1253 24.7162 21.0919 24.9674 20.9836 25.1894C20.8733 25.4328 20.6938 25.6382 20.4674 25.7802C20.2411 25.9221 19.978 25.9943 19.7109 25.9876C19.3984 25.9568 19.1093 25.8087 18.9018 25.573C18.0327 24.6985 17.1472 23.8403 16.2963 22.9494C16.0491 22.6912 15.9327 22.7403 15.7109 22.964C14.8363 23.873 13.9472 24.7512 13.0545 25.6312C12.8888 25.8149 12.6667 25.9384 12.4231 25.9822C12.1796 26.0259 11.9284 25.9875 11.7091 25.873C11.4714 25.7621 11.2708 25.5848 11.1315 25.3626C10.9922 25.1403 10.92 24.8826 10.9236 24.6203C10.95 24.2962 11.1013 23.9951 11.3454 23.7803C12.4872 22.6421 13.6254 21.5033 14.76 20.364C14.8363 20.2858 14.9091 20.204 15.0163 20.0876Z" fill="white"/>
<path d="M15.96 16.1236C14.9574 16.1177 13.9791 15.8142 13.1492 15.2516C12.3192 14.689 11.6751 13.8925 11.2985 12.9633C10.9218 12.0341 10.8296 11.0139 11.0336 10.0322C11.2375 9.05051 11.7284 8.1515 12.444 7.44919C13.1596 6.74687 14.0677 6.27291 15.053 6.0874C16.0384 5.90188 17.0566 6.01319 17.9786 6.40719C18.9006 6.80119 19.6848 7.46013 20.2318 8.30045C20.7788 9.14078 21.0639 10.1246 21.051 11.1272C21.0327 12.463 20.4875 13.7376 19.5341 14.6734C18.5806 15.6092 17.296 16.1304 15.96 16.1236ZM18.4746 11.0563C18.4731 10.5662 18.3263 10.0876 18.0527 9.68098C17.7791 9.27439 17.3909 8.95814 16.9375 8.77226C16.484 8.58638 15.9856 8.53923 15.5053 8.63679C15.025 8.73435 14.5845 8.97222 14.2395 9.32028C13.8945 9.66835 13.6605 10.111 13.5672 10.5921C13.4739 11.0732 13.5254 11.5712 13.7153 12.023C13.9051 12.4748 14.2248 12.8601 14.6338 13.1302C15.0428 13.4002 15.5227 13.5428 16.0128 13.5399C16.3377 13.5392 16.6593 13.4743 16.9591 13.349C17.2589 13.2236 17.5309 13.0403 17.7597 12.8096C17.9884 12.5788 18.1693 12.3051 18.292 12.0042C18.4147 11.7034 18.4767 11.3812 18.4746 11.0563Z" fill="white"/>
</g>
<defs>
<clipPath id="clip0_972_33438">
<rect width="32" height="32" fill="white"/>
</clipPath>
</defs>
</svg>
