<svg width="32" height="32" viewBox="0 0 32 32" fill="none" xmlns="http://www.w3.org/2000/svg">
<g clip-path="url(#clip0_972_33418)">
<path d="M16 32C24.8366 32 32 24.8366 32 16C32 7.16344 24.8366 0 16 0C7.16344 0 0 7.16344 0 16C0 24.8366 7.16344 32 16 32Z" fill="#6F3FAA"/>
<path d="M25.2419 10.8094V10.7858C25.0273 9.9167 24.4673 9.01852 23.7328 8.26215C22.8746 7.37488 21.7818 6.67852 20.7382 6.45306H20.7164C17.6041 5.85679 14.4069 5.85679 11.2946 6.45306H11.2728C9.33458 6.87306 7.23094 8.89852 6.76185 10.7858V10.8094C6.1855 13.4259 6.1855 16.1365 6.76185 18.7531V18.7749C7.0964 20.1203 8.26003 21.5349 9.60185 22.3894C10.0401 22.675 10.5171 22.896 11.0182 23.0458V25.1512C11.0189 25.3195 11.0697 25.4837 11.1641 25.623C11.2585 25.7623 11.3922 25.8703 11.5483 25.9333C11.7043 25.9963 11.8755 26.0114 12.0402 25.9767C12.2048 25.9421 12.3554 25.8591 12.4728 25.7385L14.6073 23.5203C15.0691 23.5458 15.5346 23.5603 15.9964 23.5603C17.5773 23.56 19.1546 23.4102 20.7073 23.1131H20.7291C22.6619 22.6912 24.7673 20.6658 25.2328 18.7785V18.7567C25.8126 16.1397 25.8157 13.4278 25.2419 10.8094ZM23.5528 18.364C23.24 19.5949 21.6437 21.1276 20.3728 21.4094C18.722 21.7256 17.042 21.8628 15.3618 21.8185C15.3455 21.8175 15.3291 21.8203 15.314 21.8266C15.2989 21.8329 15.2854 21.8426 15.2746 21.8549L13.7164 23.4549L12.0582 25.1549C12.0317 25.1829 11.9974 25.2023 11.9597 25.2106C11.922 25.2189 11.8827 25.2157 11.8468 25.2014C11.811 25.1871 11.7802 25.1624 11.7586 25.1304C11.737 25.0985 11.7254 25.0607 11.7255 25.0222V21.5312C11.7255 21.5032 11.7157 21.476 11.6978 21.4544C11.6799 21.4328 11.6549 21.4182 11.6273 21.4131C11.3623 21.35 11.1067 21.2522 10.8673 21.1222C9.7873 20.5458 8.69821 19.364 8.4473 18.364C7.92759 15.9989 7.92759 13.5491 8.4473 11.184C8.75821 9.95852 10.3637 8.42943 11.6255 8.14579C14.515 7.59291 17.4832 7.59291 20.3728 8.14579C21.0728 8.30215 21.8728 8.83488 22.4982 9.48943C23.0128 10.0222 23.4073 10.6367 23.5528 11.1894C24.0717 13.5528 24.0717 16.0006 23.5528 18.364Z" fill="white"/>
<path d="M20.4183 18.5456C20.1821 19.0847 19.776 19.5317 19.2619 19.8184C19.1007 19.887 18.9333 19.94 18.7619 19.9765C18.5674 19.9184 18.3819 19.8784 18.2165 19.8075C16.8382 19.271 15.5552 18.5166 14.4165 17.5729C14.0784 17.2843 13.7606 16.9726 13.4656 16.6402C12.7373 15.8015 12.1257 14.8682 11.6474 13.8656C11.4147 13.3911 11.2183 12.9002 11.0183 12.4111C10.8365 11.9656 11.1056 11.502 11.3819 11.1693C11.6524 10.8607 11.9852 10.6128 12.3583 10.442C12.4896 10.376 12.6398 10.3581 12.783 10.3913C12.9261 10.4245 13.0531 10.5068 13.1419 10.6238C13.6063 11.1458 14.0158 11.7143 14.3637 12.3202C14.4733 12.4964 14.5108 12.708 14.4685 12.9111C14.4262 13.1143 14.3073 13.2933 14.1365 13.4111C14.0456 13.4747 13.9547 13.5475 13.8765 13.6184C13.7994 13.6754 13.7329 13.7456 13.6801 13.8256C13.6345 13.9005 13.6069 13.985 13.5993 14.0723C13.5917 14.1597 13.6044 14.2476 13.6365 14.3293C13.9874 15.2947 14.5201 16.1002 15.3165 16.6656C15.5861 16.856 15.8764 17.0152 16.1819 17.1402C16.3815 17.2487 16.6057 17.3038 16.8328 17.3002C17.2292 17.2529 17.3601 16.8147 17.6365 16.5893C17.7633 16.4854 17.9203 16.4252 18.0841 16.4177C18.2479 16.4102 18.4097 16.4557 18.5456 16.5475C18.8401 16.7293 19.1237 16.9347 19.4074 17.1347C19.688 17.3261 19.9581 17.5325 20.2165 17.7529C20.3373 17.8407 20.4237 17.968 20.4606 18.1128C20.4974 18.2576 20.4825 18.4107 20.4183 18.5456ZM16.5219 9.83291H16.2892C16.3637 9.82927 16.4419 9.83291 16.5219 9.83291Z" fill="white"/>
<path d="M20.5455 15.282C20.3636 15.282 20.2746 15.1275 20.2618 14.9584C20.2382 14.6256 20.22 14.2911 20.1746 13.9602C20.0962 13.4018 19.9017 12.8661 19.6036 12.3875C19.2975 11.8888 18.8901 11.4599 18.4078 11.1285C17.9255 10.7972 17.379 10.5707 16.8036 10.4638C16.5418 10.4166 16.2746 10.4056 16.0109 10.3784C15.8436 10.3602 15.6236 10.3493 15.5873 10.142C15.5818 10.1018 15.5851 10.0608 15.5967 10.0219C15.6084 9.98298 15.6282 9.947 15.6549 9.91636C15.6816 9.88573 15.7145 9.86114 15.7514 9.84424C15.7884 9.82734 15.8285 9.81852 15.8691 9.81837C15.9127 9.81575 15.9564 9.81575 16 9.81837C16.7947 9.8251 17.5756 10.0277 18.2733 10.4083C18.971 10.7889 19.5641 11.3356 20 12.0002C20.3441 12.5359 20.5778 13.1348 20.6873 13.762C20.7564 14.1547 20.7818 14.5584 20.8127 14.9584C20.8189 14.9976 20.8167 15.0376 20.8063 15.0759C20.7958 15.1142 20.7774 15.1499 20.7521 15.1805C20.7268 15.2111 20.6953 15.2359 20.6597 15.2534C20.6241 15.271 20.5851 15.2807 20.5455 15.282Z" fill="white"/>
<path d="M19.5618 14.4335C19.5608 14.4875 19.5535 14.5412 19.54 14.5935C19.5241 14.6461 19.4924 14.6925 19.4492 14.7264C19.406 14.7603 19.3534 14.7801 19.2986 14.7831C19.2438 14.7861 19.1894 14.7721 19.1428 14.7431C19.0961 14.714 19.0596 14.6713 19.0381 14.6208C19.0181 14.5474 19.0089 14.4714 19.0109 14.3954C19.0152 13.9887 18.9347 13.5856 18.7745 13.2117C18.7381 13.1317 18.6981 13.0499 18.6527 12.9717C18.3924 12.5231 18.0061 12.1609 17.5418 11.9299C17.2616 11.7976 16.9641 11.7058 16.6581 11.6572C16.5236 11.6354 16.389 11.6226 16.2545 11.6044C16.2195 11.6027 16.1852 11.5938 16.1538 11.5782C16.1223 11.5627 16.0944 11.5409 16.0717 11.5141C16.0491 11.4874 16.0321 11.4562 16.022 11.4227C16.0118 11.3891 16.0087 11.3538 16.0127 11.319C16.0127 11.2834 16.0203 11.2481 16.0348 11.2156C16.0494 11.1831 16.0707 11.1541 16.0974 11.1304C16.124 11.1067 16.1553 11.0889 16.1893 11.0781C16.2232 11.0674 16.2591 11.064 16.2945 11.0681C16.8283 11.0889 17.3513 11.2254 17.8272 11.4681C18.4083 11.7605 18.8823 12.2288 19.1818 12.8063C19.3505 13.1434 19.4635 13.5057 19.5163 13.879C19.5261 13.9277 19.5334 13.9768 19.5381 14.0263C19.5472 14.1354 19.5509 14.2445 19.56 14.379C19.56 14.3917 19.5618 14.4081 19.5618 14.4335Z" fill="white"/>
<path d="M18.3165 14.182C18.3062 14.2281 18.2823 14.2701 18.248 14.3025C18.2136 14.3349 18.1704 14.3563 18.1238 14.3639H18.0838C18.0242 14.3677 17.965 14.3521 17.9151 14.3193C17.8652 14.2864 17.8274 14.2383 17.8074 14.182C17.7961 14.1522 17.7888 14.1211 17.7856 14.0893C17.7762 13.967 17.758 13.8454 17.731 13.7257C17.6771 13.4832 17.5393 13.2674 17.3419 13.1166C17.2465 13.0482 17.1401 12.9966 17.0274 12.9639C16.8838 12.922 16.7328 12.933 16.591 12.8984C16.5209 12.886 16.4586 12.8463 16.4177 12.788C16.3768 12.7297 16.3607 12.6576 16.3728 12.5875C16.3864 12.5203 16.4239 12.4604 16.4785 12.4189C16.533 12.3774 16.6008 12.3572 16.6692 12.362C17.5019 12.422 18.1238 12.822 18.2838 13.7148C18.3001 13.7977 18.3117 13.8814 18.3183 13.9657C18.3285 14.0375 18.3279 14.1104 18.3165 14.182Z" fill="white"/>
</g>
<defs>
<clipPath id="clip0_972_33418">
<rect width="32" height="32" fill="white"/>
</clipPath>
</defs>
</svg>
