<svg width="32" height="32" viewBox="0 0 32 32" fill="none" xmlns="http://www.w3.org/2000/svg">
<g clip-path="url(#clip0_972_33411)">
<path d="M16 32C24.8366 32 32 24.8366 32 16C32 7.16344 24.8366 0 16 0C7.16344 0 0 7.16344 0 16C0 24.8366 7.16344 32 16 32Z" fill="#29A71A"/>
<path d="M23.0546 8.94585C21.39 7.26457 19.1793 6.2335 16.8214 6.03861C14.4634 5.84373 12.1135 6.49786 10.1954 7.88301C8.27727 9.26817 6.91728 11.2932 6.36071 13.5927C5.80415 15.8923 6.08766 18.3151 7.16009 20.424L6.10736 25.5349C6.09644 25.5858 6.09613 25.6384 6.10645 25.6894C6.11678 25.7404 6.13751 25.7887 6.16736 25.8313C6.21109 25.896 6.27351 25.9458 6.34628 25.974C6.41905 26.0023 6.49872 26.0077 6.57463 25.9895L11.5837 24.8022C13.6867 25.8475 16.0924 26.1128 18.3727 25.5508C20.6529 24.9889 22.6599 23.6362 24.0364 21.7334C25.4129 19.8306 26.0697 17.5012 25.8899 15.1596C25.7102 12.8181 24.7055 10.6162 23.0546 8.94585ZM21.4928 21.4113C20.341 22.5598 18.8579 23.318 17.2524 23.579C15.6469 23.8399 14 23.5905 12.5437 22.8658L11.8455 22.5204L8.77463 23.2477L8.78373 23.2095L9.42009 20.1186L9.07827 19.444C8.3342 17.9827 8.07172 16.3234 8.32843 14.7037C8.58514 13.0841 9.34787 11.5873 10.5074 10.4277C11.9643 8.9712 13.94 8.153 16.0001 8.153C18.0602 8.153 20.0359 8.9712 21.4928 10.4277C21.5051 10.442 21.5185 10.4554 21.5328 10.4677C22.9717 11.9279 23.7749 13.8977 23.7674 15.9477C23.7599 17.9977 22.9423 19.9616 21.4928 21.4113Z" fill="white"/>
<path d="M21.22 19.1443C20.8437 19.737 20.2491 20.4624 19.5019 20.6424C18.1928 20.9588 16.1837 20.6533 13.6837 18.3224L13.6528 18.2952C11.4546 16.257 10.8837 14.5606 11.0219 13.2152C11.0982 12.4515 11.7346 11.7606 12.271 11.3097C12.3557 11.2373 12.4563 11.1858 12.5646 11.1592C12.6729 11.1327 12.7858 11.1318 12.8945 11.1567C13.0032 11.1817 13.1045 11.2316 13.1904 11.3027C13.2763 11.3738 13.3443 11.464 13.3891 11.5661L14.1982 13.3843C14.2508 13.5021 14.2703 13.6321 14.2546 13.7603C14.2389 13.8884 14.1886 14.0098 14.1091 14.1115L13.7 14.6424C13.6123 14.7521 13.5593 14.8854 13.548 15.0254C13.5366 15.1654 13.5674 15.3056 13.6364 15.4279C13.8655 15.8297 14.4146 16.4206 15.0237 16.9679C15.7073 17.5861 16.4655 18.1515 16.9455 18.3443C17.0739 18.3967 17.2151 18.4095 17.3509 18.381C17.4867 18.3525 17.6108 18.284 17.7073 18.1843L18.1819 17.7061C18.2734 17.6158 18.3873 17.5514 18.5119 17.5194C18.6364 17.4875 18.7672 17.4892 18.891 17.5243L20.8128 18.0697C20.9188 18.1022 21.016 18.1586 21.0969 18.2344C21.1778 18.3102 21.2402 18.4036 21.2795 18.5072C21.3188 18.6109 21.3339 18.7222 21.3236 18.8326C21.3133 18.9431 21.2779 19.0496 21.22 19.1443Z" fill="white"/>
</g>
<defs>
<clipPath id="clip0_972_33411">
<rect width="32" height="32" fill="white"/>
</clipPath>
</defs>
</svg>
