<svg width="32" height="32" viewBox="0 0 32 32" fill="none" xmlns="http://www.w3.org/2000/svg">
<g clip-path="url(#clip0_972_33428)">
<path d="M16 32C24.8366 32 32 24.8366 32 16C32 7.16344 24.8366 0 16 0C7.16344 0 0 7.16344 0 16C0 24.8366 7.16344 32 16 32Z" fill="#4169E1"/>
<path d="M25.2218 22.2622C24.7563 22.3276 22.48 22.2622 22.3618 22.2622C21.7734 22.2697 21.2057 22.045 20.7818 21.6367C20.3018 21.1749 19.8727 20.6658 19.4036 20.1822C19.2649 20.0354 19.1147 19.8998 18.9545 19.7767C18.58 19.4876 18.2091 19.5531 18.0327 19.9949C17.8947 20.4723 17.7986 20.9608 17.7454 21.4549C17.7145 21.9022 17.4309 22.1822 16.9291 22.2131C16.6182 22.2294 16.3073 22.2349 16 22.2276C14.8802 22.2205 13.778 21.9482 12.7836 21.4331C11.7078 20.8335 10.7705 20.0138 10.0327 19.0276C8.81998 17.4785 7.85089 15.7767 6.98544 14.0222C6.93998 13.9349 6.05271 12.0476 6.03089 11.9585C5.95089 11.6604 6.03089 11.3749 6.27635 11.2767C6.43271 11.2167 9.35635 11.2767 9.40544 11.2767C9.62279 11.2748 9.8351 11.3422 10.0116 11.469C10.1881 11.5959 10.3197 11.7756 10.3873 11.9822C10.9277 13.366 11.6677 14.6634 12.5836 15.8331C12.7118 15.9895 12.8618 16.1267 13.0291 16.2404C13.2673 16.4022 13.4927 16.3458 13.5909 16.0713C13.7072 15.6903 13.7756 15.2964 13.7945 14.8985C13.8109 14.1094 13.7945 13.5894 13.7509 12.8022C13.7218 12.2967 13.5436 11.8531 12.7982 11.7113C12.5691 11.6713 12.5491 11.4822 12.6963 11.2931C13.0036 10.9004 13.4236 10.8385 13.8945 10.8149C14.5963 10.7749 15.2982 10.8022 16 10.8149H16.1527C16.4582 10.8139 16.7629 10.845 17.0618 10.9076C17.2385 10.9434 17.3989 11.0352 17.5192 11.1696C17.6394 11.3039 17.7131 11.4735 17.7291 11.6531C17.7652 11.8522 17.7804 12.0545 17.7745 12.2567C17.7563 13.1185 17.7145 13.9785 17.7054 14.8404C17.6971 15.1816 17.7283 15.5226 17.7982 15.8567C17.8982 16.3149 18.2127 16.4294 18.5254 16.0985C18.9304 15.6708 19.3018 15.2125 19.6363 14.7276C20.2279 13.8441 20.716 12.8954 21.0909 11.9004C21.2945 11.3894 21.4545 11.2767 22 11.2767H25.1018C25.2862 11.2734 25.4701 11.2979 25.6473 11.3494C25.71 11.3659 25.7686 11.3952 25.8195 11.4354C25.8703 11.4755 25.9124 11.5258 25.9429 11.583C25.9735 11.6401 25.9919 11.703 25.997 11.7676C26.0021 11.8323 25.9939 11.8973 25.9727 11.9585C25.82 12.6385 25.4527 13.2185 25.0636 13.7767C24.4327 14.6713 23.7673 15.5422 23.1218 16.4222C23.0402 16.5389 22.9655 16.6603 22.8982 16.7858C22.6545 17.224 22.6727 17.4694 23.0254 17.8349C23.5891 18.4131 24.1909 18.9567 24.7345 19.5531C25.1338 19.9865 25.494 20.4544 25.8109 20.9513C26.2091 21.5676 25.9636 22.1567 25.2218 22.2622Z" fill="white"/>
</g>
<defs>
<clipPath id="clip0_972_33428">
<rect width="32" height="32" fill="white"/>
</clipPath>
</defs>
</svg>
