<svg width="30" height="30" viewBox="0 0 30 30" fill="none" xmlns="http://www.w3.org/2000/svg">
<g clip-path="url(#clip0_4027_6937)">
<path d="M15 30C23.2843 30 30 23.2843 30 15C30 6.71573 23.2843 0 15 0C6.71573 0 0 6.71573 0 15C0 23.2843 6.71573 30 15 30Z" fill="#202838"/>
<path d="M23.1716 7.75562L22.8614 7.86812L6.02387 13.9346C5.90455 13.9715 5.80084 14.0469 5.72901 14.1491C5.65717 14.2513 5.62127 14.3744 5.62692 14.4992C5.63257 14.6239 5.67947 14.7433 5.76025 14.8385C5.84103 14.9338 5.95113 14.9996 6.0733 15.0255L10.4318 16.2187L11.2449 18.6051L12.058 20.9914C12.1047 21.1084 12.1792 21.2122 12.2752 21.2938C12.3711 21.3755 12.4855 21.4325 12.6085 21.4598C12.7314 21.4872 12.8592 21.4842 12.9807 21.4509C13.1022 21.4177 13.2138 21.3554 13.3057 21.2693L15.5574 19.142L19.979 22.1403C20.5193 22.5085 21.2898 22.2357 21.4278 21.6289L24.3563 8.68971C24.4994 8.0488 23.8244 7.5221 23.1716 7.75562ZM21.0222 10.6278L13.4148 16.846L13.0568 17.1391C12.9782 17.2015 12.9268 17.2919 12.9136 17.3914L12.8335 18.0528L12.6136 19.9107C12.6154 19.9333 12.6082 19.9557 12.5935 19.973C12.5788 19.9903 12.5578 20.001 12.5352 20.0028C12.5126 20.0046 12.4902 19.9973 12.473 19.9826C12.4557 19.9679 12.445 19.947 12.4432 19.9244L11.8244 18.0681L11.1852 16.1676C11.1582 16.0821 11.1618 15.9899 11.1954 15.9069C11.229 15.8238 11.2905 15.7551 11.3693 15.7124L19.2852 11.1749L20.775 10.3227C20.9915 10.1965 21.2131 10.471 21.0222 10.6278Z" fill="white"/>
</g>
<defs>
<clipPath id="clip0_4027_6937">
<rect width="30" height="30" fill="white"/>
</clipPath>
</defs>
</svg>
