<svg width="24" height="24" viewBox="0 0 24 24" fill="none" xmlns="http://www.w3.org/2000/svg">
<g clip-path="url(#clip0_33_1775)">
<path d="M12 24C18.6274 24 24 18.6274 24 12C24 5.37258 18.6274 0 12 0C5.37258 0 0 5.37258 0 12C0 18.6274 5.37258 24 12 24Z" fill="#1C8ADB"/>
<path d="M18.5372 6.20455L18.289 6.29455L4.819 11.1477C4.72354 11.1772 4.64058 11.2376 4.58311 11.3193C4.52564 11.4011 4.49692 11.4996 4.50144 11.5994C4.50596 11.6992 4.54348 11.7947 4.6081 11.8709C4.67273 11.9471 4.76081 11.9997 4.85854 12.0205L8.34536 12.975L8.99581 14.8841L9.64627 16.7932C9.68363 16.8868 9.74328 16.9698 9.82003 17.0351C9.89677 17.1004 9.9883 17.146 10.0867 17.1679C10.185 17.1898 10.2872 17.1874 10.3845 17.1608C10.4817 17.1342 10.5709 17.0843 10.6445 17.0155L12.4458 15.3136L15.9831 17.7123C16.4154 18.0068 17.0317 17.7886 17.1422 17.3032L19.4849 6.95182C19.5995 6.43909 19.0595 6.01773 18.5372 6.20455ZM16.8176 8.50227L10.7317 13.4768L10.4454 13.7114C10.3825 13.7612 10.3414 13.8336 10.3308 13.9132L10.2667 14.4423L10.0908 15.9286C10.0923 15.9467 10.0865 15.9646 10.0747 15.9784C10.0629 15.9923 10.0462 16.0008 10.0281 16.0023C10.01 16.0037 9.99209 15.9979 9.97828 15.9862C9.96447 15.9744 9.9559 15.9576 9.95445 15.9395L9.45945 14.4545L8.94809 12.9341C8.92646 12.8657 8.92933 12.792 8.95621 12.7255C8.98309 12.6591 9.0323 12.6041 9.09536 12.57L15.4281 8.94L16.6199 8.25818C16.7931 8.15727 16.9704 8.37682 16.8176 8.50227Z" fill="white"/>
</g>
<defs>
<clipPath id="clip0_33_1775">
<rect width="24" height="24" fill="white"/>
</clipPath>
</defs>
</svg>
