<svg width="26" height="26" viewBox="0 0 26 26" fill="none" xmlns="http://www.w3.org/2000/svg">
<path d="M15.9584 1.63477H9.70842C4.05008 1.63477 1.6355 4.04935 1.6355 9.70768V15.9577C1.6355 21.616 4.05008 24.0306 9.70842 24.0306H15.9584C21.6167 24.0306 24.0313 21.616 24.0313 15.9577V9.70768C24.0313 4.04935 21.6167 1.63477 15.9584 1.63477ZM9.70842 3.19727H15.9584C20.7647 3.19727 22.4688 4.90143 22.4688 9.70768V13.0931H19.3293C18.797 13.0918 18.2749 13.2394 17.8221 13.5192C17.3693 13.799 17.0037 14.1998 16.7667 14.6764L15.8355 16.54C15.7283 16.757 15.5623 16.9396 15.3564 17.0669C15.1505 17.1941 14.913 17.261 14.6709 17.2598H10.9959C10.7518 17.2717 10.5098 17.2092 10.3018 17.0807C10.0939 16.9522 9.92987 16.7637 9.83133 16.54L8.90008 14.6785C8.66302 14.2023 8.29756 13.8017 7.84496 13.5222C7.39235 13.2426 6.87062 13.095 6.33862 13.0962H3.198V9.70768C3.198 4.90143 4.90217 3.19727 9.70842 3.19727ZM15.9584 22.4681H9.70842C4.90217 22.4681 3.198 20.7639 3.198 15.9577V14.6566H6.33758C6.57964 14.6554 6.81717 14.7223 7.02308 14.8496C7.22899 14.9768 7.395 15.1594 7.50217 15.3764L8.43342 17.2369C8.66022 17.7214 9.02345 18.1293 9.4786 18.4106C9.93376 18.6918 10.4611 18.8342 10.9959 18.8202H14.6709C15.2032 18.8215 15.7252 18.6739 16.178 18.3941C16.6309 18.1143 16.9964 17.7135 17.2334 17.2369L18.1647 15.3733C18.2718 15.1563 18.4378 14.9737 18.6437 14.8464C18.8497 14.7192 19.0872 14.6523 19.3293 14.6535H22.4688V15.9577C22.4688 20.7639 20.7647 22.4681 15.9584 22.4681Z" fill="white"/>
<path d="M14.5678 8.40625H11.099C10.8918 8.40625 10.6931 8.32394 10.5466 8.17743C10.4001 8.03091 10.3178 7.8322 10.3178 7.625C10.3178 7.4178 10.4001 7.21909 10.5466 7.07257C10.6931 6.92606 10.8918 6.84375 11.099 6.84375H14.5678C14.775 6.84375 14.9737 6.92606 15.1202 7.07257C15.2667 7.21909 15.349 7.4178 15.349 7.625C15.349 7.8322 15.2667 8.03091 15.1202 8.17743C14.9737 8.32394 14.775 8.40625 14.5678 8.40625ZM16.2188 10.75C16.2188 10.5428 16.1365 10.3441 15.99 10.1976C15.8435 10.0511 15.6448 9.96875 15.4376 9.96875H10.2292C10.022 9.96875 9.82333 10.0511 9.67682 10.1976C9.53031 10.3441 9.448 10.5428 9.448 10.75C9.448 10.9572 9.53031 11.1559 9.67682 11.3024C9.82333 11.4489 10.022 11.5312 10.2292 11.5312H15.4376C15.6448 11.5312 15.8435 11.4489 15.99 11.3024C16.1365 11.1559 16.2188 10.9572 16.2188 10.75Z" fill="white"/>
</svg>
