<svg width="25" height="25" viewBox="0 0 25 25" fill="none" xmlns="http://www.w3.org/2000/svg">
<path d="M4.775 9.87786C4.99397 10.1642 5.1292 10.5057 5.16562 10.8643V14.5883C5.1634 14.9758 5.26613 15.3566 5.46292 15.6904C5.65971 16.0242 5.94321 16.2985 6.28333 16.4841C6.61851 16.6717 6.99612 16.7703 7.38021 16.7706C7.79231 16.7706 8.19629 16.6559 8.54687 16.4393L9.51041 15.8143C9.81362 15.6069 10.0633 15.3304 10.239 15.0078C10.4146 14.6851 10.5112 14.3253 10.5208 13.9581V10.9372C10.5312 10.5506 10.6875 10.1821 10.9583 9.90599L14.0146 7.20391C14.5741 6.61586 14.9045 5.84684 14.9458 5.0362V3.48828C14.9458 2.90812 14.7154 2.35172 14.3051 1.94149C13.8949 1.53125 13.3385 1.30078 12.7583 1.30078H3.4875C3.19468 1.30206 2.90506 1.36184 2.63567 1.47661C2.36627 1.59138 2.12252 1.75882 1.91874 1.96911C1.71496 2.17939 1.55525 2.42827 1.449 2.70114C1.34274 2.97401 1.29208 3.26536 1.3 3.55807V5.17266C1.34185 5.90074 1.64215 6.58999 2.14687 7.11641L4.775 9.87786ZM2.86458 3.55911C2.85792 3.472 2.869 3.38445 2.89716 3.30174C2.92531 3.21904 2.96995 3.14291 3.02838 3.07796C3.08681 3.01301 3.15781 2.96058 3.23708 2.92386C3.31635 2.88714 3.40225 2.86689 3.48958 2.86432H12.7604C12.9262 2.86432 13.0851 2.93017 13.2024 3.04738C13.3196 3.16459 13.3854 3.32356 13.3854 3.48932V5.03411C13.3479 5.41405 13.1952 5.77347 12.9479 6.06432L9.94271 8.71953C9.63621 9.00263 9.39079 9.34538 9.22152 9.72674C9.05225 10.1081 8.96268 10.52 8.95833 10.9372V13.9581C8.93735 14.1652 8.83962 14.3569 8.68437 14.4956L7.71354 15.1206C7.61195 15.1795 7.4966 15.2105 7.37916 15.2105C7.26173 15.2105 7.14638 15.1795 7.04479 15.1206C6.94774 15.0699 6.86661 14.9933 6.81036 14.8994C6.7541 14.8054 6.72492 14.6978 6.72604 14.5883V10.8643C6.68513 10.1296 6.4144 9.42637 5.95208 8.85391L3.26875 6.02682C3.05204 5.78906 2.9113 5.49199 2.86458 5.1737V3.55911ZM23.6979 9.37474V15.6247C23.6979 21.2831 21.2844 23.6977 15.625 23.6977H9.375C3.71562 23.6977 1.30208 21.2831 1.30208 15.6247V12.4997C1.30208 12.2925 1.38439 12.0938 1.5309 11.9473C1.67742 11.8008 1.87613 11.7185 2.08333 11.7185C2.29053 11.7185 2.48924 11.8008 2.63576 11.9473C2.78227 12.0938 2.86458 12.2925 2.86458 12.4997V15.6247C2.86458 20.431 4.56875 22.1352 9.375 22.1352H15.625C20.4312 22.1352 22.1354 20.431 22.1354 15.6247V9.37474C22.1354 6.35391 21.426 4.59974 19.8354 3.69661C19.1051 3.38072 18.3297 3.18142 17.5375 3.10599C17.4361 3.08998 17.3389 3.05417 17.2514 3.00059C17.1639 2.94702 17.0878 2.87673 17.0274 2.79373C16.967 2.71074 16.9236 2.61667 16.8996 2.5169C16.8756 2.41713 16.8715 2.3136 16.8875 2.21224C16.9035 2.11088 16.9393 2.01366 16.9929 1.92613C17.0465 1.83861 17.1168 1.7625 17.1998 1.70214C17.2827 1.64178 17.3768 1.59836 17.4766 1.57436C17.5764 1.55035 17.6799 1.54623 17.7812 1.56224C18.7584 1.66747 19.7122 1.92914 20.6062 2.33724C22.7156 3.53516 23.6979 5.77057 23.6979 9.37474ZM19.5312 13.5414C19.5312 13.7486 19.4489 13.9473 19.3024 14.0938C19.1559 14.2403 18.9572 14.3227 18.75 14.3227H13.5417C13.3345 14.3227 13.1357 14.2403 12.9892 14.0938C12.8427 13.9473 12.7604 13.7486 12.7604 13.5414C12.7604 13.3342 12.8427 13.1355 12.9892 12.989C13.1357 12.8425 13.3345 12.7602 13.5417 12.7602H18.75C18.9572 12.7602 19.1559 12.8425 19.3024 12.989C19.4489 13.1355 19.5312 13.3342 19.5312 13.5414ZM19.5312 17.7081C19.5312 17.9153 19.4489 18.114 19.3024 18.2605C19.1559 18.407 18.9572 18.4893 18.75 18.4893H11.4583C11.2511 18.4893 11.0524 18.407 10.9059 18.2605C10.7594 18.114 10.6771 17.9153 10.6771 17.7081C10.6771 17.5009 10.7594 17.3022 10.9059 17.1556C11.0524 17.0091 11.2511 16.9268 11.4583 16.9268H18.75C18.9572 16.9268 19.1559 17.0091 19.3024 17.1556C19.4489 17.3022 19.5312 17.5009 19.5312 17.7081Z" fill="white"/>
</svg>
