<svg width="26" height="26" viewBox="0 0 26 26" fill="none" xmlns="http://www.w3.org/2000/svg">
<path d="M18.5626 2.41583H8.14589C7.34717 2.36935 6.54766 2.49244 5.79991 2.777C5.05216 3.06157 4.37311 3.50116 3.80737 4.06689C3.24164 4.63263 2.80204 5.31169 2.51748 6.05943C2.23292 6.80718 2.10983 7.60669 2.1563 8.40541V14.6554C2.15292 15.161 2.20532 15.6655 2.31255 16.1596C2.34339 16.2969 2.41073 16.4233 2.50747 16.5255C2.60421 16.6277 2.72675 16.7018 2.86215 16.7401C2.99755 16.7784 3.14078 16.7795 3.27672 16.7431C3.41265 16.7067 3.53624 16.6343 3.63443 16.5335C3.94934 16.2081 4.32672 15.9495 4.74395 15.7734C5.16118 15.5973 5.60967 15.5072 6.06255 15.5085C6.95881 15.5132 7.81705 15.8712 8.4509 16.5049C9.08475 17.1385 9.44304 17.9967 9.44797 18.8929C9.44634 19.1522 9.41133 19.4102 9.3438 19.6606C9.3128 19.7764 9.30885 19.8978 9.33227 20.0153C9.35569 20.1329 9.40585 20.2435 9.47886 20.3386C9.55187 20.4336 9.64579 20.5106 9.75332 20.5636C9.86086 20.6165 9.97914 20.644 10.099 20.6439H12.0698L16.5094 23.6054C16.7827 23.7875 17.1004 23.892 17.4284 23.9075C17.7565 23.9231 18.0826 23.8493 18.3719 23.6939C18.6644 23.5384 18.9089 23.306 19.0792 23.0219C19.2495 22.7378 19.3392 22.4127 19.3386 22.0814V20.6054C20.6712 20.4947 21.9236 19.9231 22.8803 18.9887C23.4334 18.4144 23.8659 17.735 24.1522 16.9908C24.4385 16.2465 24.5727 15.4524 24.5469 14.6554V8.40541C24.5933 7.60716 24.4704 6.80812 24.1861 6.06075C23.9019 5.31338 23.4627 4.63459 22.8976 4.06894C22.3324 3.50329 21.654 3.06358 20.9069 2.77867C20.1598 2.49377 19.3608 2.37011 18.5626 2.41583ZM22.9896 14.6554C23.0139 15.2471 22.9194 15.8376 22.7119 16.3921C22.5044 16.9467 22.188 17.4542 21.7813 17.8846C21.3517 18.2888 20.8457 18.603 20.2929 18.8089C19.7402 19.0148 19.1519 19.1082 18.5626 19.0835C18.3554 19.0835 18.1566 19.1658 18.0101 19.3124C17.8636 19.4589 17.7813 19.6576 17.7813 19.8648V22.0835C17.7818 22.1319 17.7688 22.1794 17.7438 22.2208C17.7187 22.2622 17.6827 22.2959 17.6396 22.3179C17.6001 22.3411 17.5547 22.3524 17.5089 22.3505C17.4632 22.3487 17.4189 22.3338 17.3813 22.3075L12.7459 19.2148C12.6176 19.1292 12.4668 19.0835 12.3126 19.0835H11.0063V18.895C11.005 18.0395 10.7823 17.1989 10.3598 16.455C9.93726 15.7111 9.32933 15.0892 8.59517 14.65C7.86102 14.2108 7.02565 13.9691 6.17038 13.9485C5.31511 13.9279 4.46908 14.1291 3.71464 14.5325V8.40541C3.67318 7.813 3.75941 7.21861 3.9675 6.66241C4.17559 6.1062 4.50068 5.60117 4.92079 5.18145C5.34091 4.76173 5.84625 4.43711 6.40265 4.22955C6.95904 4.02198 7.55352 3.93631 8.14589 3.97833H18.5626C19.1546 3.93694 19.7486 4.02307 20.3045 4.23092C20.8604 4.43876 21.3652 4.76347 21.7848 5.18312C22.2045 5.60277 22.5292 6.10759 22.737 6.66348C22.9449 7.21936 23.031 7.81338 22.9896 8.40541V14.6554ZM17.7813 11.6023C17.7813 11.8095 17.699 12.0082 17.5525 12.1547C17.406 12.3012 17.2073 12.3835 17.0001 12.3835H9.70839C9.50119 12.3835 9.30247 12.3012 9.15596 12.1547C9.00945 12.0082 8.92714 11.8095 8.92714 11.6023C8.92714 11.3951 9.00945 11.1964 9.15596 11.0499C9.30247 10.9033 9.50119 10.821 9.70839 10.821H17.0001C17.2071 10.821 17.4056 10.9032 17.5521 11.0495C17.6986 11.1958 17.781 11.3942 17.7813 11.6012V11.6023Z" fill="white"/>
<path d="M6.06259 23.8423C5.20958 23.8417 4.37127 23.6201 3.62937 23.1991C2.88746 22.7781 2.26728 22.1721 1.82926 21.4402C1.35937 20.674 1.11195 19.7921 1.11467 18.8933C1.11137 18.1509 1.27696 17.4174 1.59891 16.7485C1.92086 16.0795 2.39074 15.4925 2.97301 15.0319C3.7003 14.4489 4.57756 14.0833 5.50363 13.9774C6.4297 13.8714 7.36686 14.0294 8.20704 14.433C9.04722 14.8367 9.7562 15.4696 10.2522 16.2587C10.7482 17.0479 11.0111 17.9612 11.0105 18.8933C11.0123 19.7957 10.7631 20.6807 10.2907 21.4496C10.0309 21.8925 9.69689 22.2875 9.30322 22.6173C8.41097 23.4112 7.25688 23.8474 6.06259 23.8423ZM6.06259 15.5089C5.16532 15.5103 4.30519 15.8673 3.67063 16.5017C3.03607 17.136 2.67883 17.996 2.67717 18.8933C2.6757 19.5063 2.84486 20.1075 3.16571 20.6298C3.46518 21.1314 3.88934 21.5469 4.39697 21.8361C4.90459 22.1252 5.4784 22.2781 6.06259 22.2798C6.88006 22.2836 7.66989 21.9841 8.27926 21.4391C8.54542 21.2145 8.77216 20.9469 8.95009 20.6475C9.27588 20.1204 9.4483 19.5129 9.44801 18.8933C9.44663 17.996 9.08948 17.1358 8.45486 16.5014C7.82024 15.8669 6.95994 15.51 6.06259 15.5089ZM5.99488 20.4954L8.21676 18.4423C8.35685 18.299 8.43654 18.1074 8.43934 17.907C8.44214 17.7066 8.36785 17.5128 8.23181 17.3657C8.09578 17.2186 7.90841 17.1293 7.70844 17.1164C7.50846 17.1035 7.31119 17.168 7.15738 17.2964L5.48551 18.8381L4.99071 18.3423C4.91815 18.2697 4.83199 18.2121 4.73718 18.1729C4.64236 18.1336 4.54074 18.1134 4.43811 18.1134C4.33548 18.1134 4.23386 18.1336 4.13904 18.1729C4.04423 18.2121 3.95808 18.2697 3.88551 18.3423C3.81294 18.4148 3.75537 18.501 3.7161 18.5958C3.67682 18.6906 3.65661 18.7922 3.65661 18.8949C3.65661 18.9975 3.67682 19.0991 3.7161 19.1939C3.75537 19.2888 3.81294 19.3749 3.88551 19.4475L4.91259 20.4735C5.05525 20.6162 5.24759 20.6982 5.44933 20.7023C5.65108 20.7064 5.84657 20.6322 5.99488 20.4954Z" fill="white"/>
</svg>
