<svg width="26" height="26" viewBox="0 0 26 26" fill="none" xmlns="http://www.w3.org/2000/svg">
<path d="M4.88025 9.49101L11.0261 12.2243C11.5283 12.4325 12.068 12.535 12.6115 12.5254C13.1554 12.5351 13.6954 12.4326 14.198 12.2243L20.35 9.49101C21.9063 8.7983 22.1386 7.85246 22.1386 7.34934C22.1386 6.84621 21.9115 5.89517 20.3553 5.20663L14.2032 2.4733C13.1841 2.0714 12.0504 2.0714 11.0313 2.4733L4.88546 5.20663C3.32296 5.89517 3.09067 6.84621 3.09067 7.35351C3.09067 7.8608 3.32296 8.7983 4.88025 9.49101ZM5.51462 6.6358L11.6605 3.90142C12.2756 3.68027 12.9485 3.68027 13.5636 3.90142L19.7146 6.6358C20.3469 6.91601 20.5761 7.21601 20.5761 7.34934C20.5761 7.48267 20.3469 7.78163 19.7146 8.06288L13.5636 10.7962C12.9485 11.0174 12.2756 11.0174 11.6605 10.7962L5.51462 8.06288C4.88233 7.78163 4.65317 7.48267 4.65317 7.34934C4.65317 7.21601 4.88233 6.91601 5.51462 6.6358ZM2.67712 11.6077C2.67712 11.4005 2.75943 11.2018 2.90595 11.0552C3.05246 10.9087 3.25117 10.8264 3.45837 10.8264C3.66557 10.8264 3.86429 10.9087 4.0108 11.0552C4.15731 11.2018 4.23962 11.4005 4.23962 11.6077C4.2642 11.9245 4.36761 12.2302 4.54044 12.4969C4.71327 12.7636 4.95004 12.9829 5.22921 13.1348L12.3011 16.2775C12.4677 16.3516 12.6479 16.3898 12.8303 16.3898C13.0126 16.3898 13.1928 16.3516 13.3594 16.2775L20.4375 13.1348C20.7173 12.9833 20.9547 12.7642 21.1281 12.4974C21.3015 12.2307 21.4054 11.9248 21.4303 11.6077C21.4303 11.4005 21.5126 11.2018 21.6591 11.0552C21.8056 10.9087 22.0043 10.8264 22.2115 10.8264C22.4187 10.8264 22.6174 10.9087 22.7639 11.0552C22.9104 11.2018 22.9928 11.4005 22.9928 11.6077C22.9658 12.227 22.7735 12.8277 22.4356 13.3474C22.0978 13.8671 21.6269 14.2869 21.0719 14.5629L14 17.7066C13.6334 17.8682 13.2372 17.9516 12.8365 17.9516C12.4359 17.9516 12.0396 17.8682 11.673 17.7066L4.59796 14.5629C4.04295 14.2869 3.57204 13.8671 3.23423 13.3474C2.89642 12.8277 2.70404 12.227 2.67712 11.6077ZM22.9896 16.816C22.9889 17.4414 22.8071 18.0533 22.4663 18.5777C22.1254 19.1021 21.6401 19.5166 21.0688 19.7712L13.9969 22.915C13.6303 23.0765 13.234 23.16 12.8334 23.16C12.4327 23.16 12.0365 23.0765 11.6698 22.915L4.59796 19.7712C4.02669 19.5166 3.54133 19.1021 3.20048 18.5777C2.85963 18.0533 2.67786 17.4414 2.67712 16.816C2.67712 16.6088 2.75943 16.4101 2.90595 16.2636C3.05246 16.1171 3.25117 16.0348 3.45837 16.0348C3.66557 16.0348 3.86429 16.1171 4.0108 16.2636C4.15731 16.4101 4.23962 16.6088 4.23962 16.816C4.24013 17.1388 4.33376 17.4546 4.5093 17.7254C4.68483 17.9963 4.9348 18.2108 5.22921 18.3431L12.3011 21.4858C12.4677 21.5599 12.6479 21.5982 12.8303 21.5982C13.0126 21.5982 13.1928 21.5599 13.3594 21.4858L20.4375 18.3431C20.7325 18.2112 20.9832 17.997 21.1593 17.7261C21.3354 17.4551 21.4295 17.1391 21.4303 16.816C21.4303 16.6088 21.5126 16.4101 21.6591 16.2636C21.8056 16.1171 22.0043 16.0348 22.2115 16.0348C22.4187 16.0348 22.6174 16.1171 22.7639 16.2636C22.9104 16.4101 22.9928 16.6088 22.9928 16.816H22.9896Z" fill="white"/>
</svg>
