<svg width="25" height="25" viewBox="0 0 25 25" fill="none" xmlns="http://www.w3.org/2000/svg">
<path d="M19.1406 9.24544C19.1406 9.45264 19.0583 9.65136 18.9118 9.79787C18.7653 9.94438 18.5666 10.0267 18.3594 10.0267H12.8906C12.6834 10.0267 12.4847 9.94438 12.3382 9.79787C12.1917 9.65136 12.1094 9.45264 12.1094 9.24544C12.1094 9.03824 12.1917 8.83953 12.3382 8.69302C12.4847 8.5465 12.6834 8.46419 12.8906 8.46419H18.3594C18.5666 8.46419 18.7653 8.5465 18.9118 8.69302C19.0583 8.83953 19.1406 9.03824 19.1406 9.24544ZM9.21352 7.13086L7.42185 8.92148L7.19269 8.69336C7.04354 8.56501 6.85145 8.49767 6.6548 8.50479C6.45816 8.51192 6.27145 8.59299 6.13198 8.7318C5.99251 8.87061 5.91056 9.05694 5.9025 9.25355C5.89445 9.45016 5.96088 9.64256 6.08852 9.79232L6.86977 10.5736C7.01626 10.7199 7.21482 10.802 7.42185 10.802C7.62889 10.802 7.82745 10.7199 7.97394 10.5736L10.3125 8.23503C10.4505 8.08693 10.5256 7.89105 10.522 7.68865C10.5185 7.48625 10.4365 7.29314 10.2933 7.15C10.1502 7.00687 9.95709 6.92487 9.75469 6.9213C9.55229 6.91773 9.35641 6.99286 9.20831 7.13086H9.21352ZM18.3594 15.7559H12.8906C12.6834 15.7559 12.4847 15.8382 12.3382 15.9847C12.1917 16.1312 12.1094 16.3299 12.1094 16.5371C12.1094 16.7443 12.1917 16.943 12.3382 17.0895C12.4847 17.2361 12.6834 17.3184 12.8906 17.3184H18.3594C18.5666 17.3184 18.7653 17.2361 18.9118 17.0895C19.0583 16.943 19.1406 16.7443 19.1406 16.5371C19.1406 16.3299 19.0583 16.1312 18.9118 15.9847C18.7653 15.8382 18.5666 15.7559 18.3594 15.7559ZM9.21352 14.4225L7.42185 16.2132L7.19269 15.985C7.12117 15.9083 7.03491 15.8467 6.93908 15.804C6.84325 15.7613 6.7398 15.7383 6.6349 15.7365C6.53 15.7346 6.4258 15.7539 6.32852 15.7932C6.23124 15.8325 6.14288 15.891 6.06869 15.9652C5.9945 16.0394 5.93602 16.1278 5.89673 16.225C5.85743 16.3223 5.83814 16.4265 5.83999 16.5314C5.84184 16.6363 5.8648 16.7398 5.9075 16.8356C5.9502 16.9314 6.01176 17.0177 6.08852 17.0892L6.86977 17.8704C7.01626 18.0167 7.21482 18.0989 7.42185 18.0989C7.62889 18.0989 7.82745 18.0167 7.97394 17.8704L10.3177 15.5267C10.4557 15.3786 10.5308 15.1827 10.5272 14.9803C10.5237 14.7779 10.4417 14.5848 10.2985 14.4417C10.1554 14.2985 9.9623 14.2165 9.7599 14.213C9.5575 14.2094 9.36162 14.2845 9.21352 14.4225ZM23.6979 9.37565V15.6257C23.6979 21.284 21.2833 23.6986 15.625 23.6986H9.37498C3.71665 23.6986 1.30206 21.284 1.30206 15.6257V9.37565C1.30206 3.71732 3.71665 1.30273 9.37498 1.30273H15.625C21.2833 1.30273 23.6979 3.71732 23.6979 9.37565ZM22.1354 9.37565C22.1354 4.5694 20.4312 2.86523 15.625 2.86523H9.37498C4.56873 2.86523 2.86456 4.5694 2.86456 9.37565V15.6257C2.86456 20.4319 4.56873 22.1361 9.37498 22.1361H15.625C20.4312 22.1361 22.1354 20.4319 22.1354 15.6257V9.37565Z" fill="white"/>
</svg>
