<svg width="25" height="25" viewBox="0 0 25 25" fill="none" xmlns="http://www.w3.org/2000/svg">
<path d="M23.6979 8.57943V11.7044C23.6979 11.9116 23.6156 12.1103 23.4691 12.2569C23.3226 12.4034 23.1238 12.4857 22.9166 12.4857C22.7094 12.4857 22.5107 12.4034 22.3642 12.2569C22.2177 12.1103 22.1354 11.9116 22.1354 11.7044V8.57943C22.1354 5.6013 20.6875 4.15234 17.7083 4.15234H7.29165C4.31248 4.15234 2.86456 5.6013 2.86456 8.57943V15.8711C2.86456 18.8503 4.31248 20.2982 7.29165 20.2982H12.5C12.7072 20.2982 12.9059 20.3805 13.0524 20.527C13.1989 20.6735 13.2812 20.8722 13.2812 21.0794C13.2812 21.2866 13.1989 21.4853 13.0524 21.6319C12.9059 21.7784 12.7072 21.8607 12.5 21.8607H7.29165C3.4854 21.8607 1.30206 19.6732 1.30206 15.8711V8.57943C1.30206 4.77318 3.48956 2.58984 7.29165 2.58984H17.7083C21.5146 2.58984 23.6979 4.77318 23.6979 8.57943ZM17.2198 8.48984L13.9646 11.094C13.5391 11.4034 13.0266 11.57 12.5005 11.57C11.9744 11.57 11.4619 11.4034 11.0364 11.094L7.78019 8.48984C7.61758 8.36849 7.41419 8.31505 7.21293 8.34082C7.01167 8.36659 6.8283 8.46955 6.70152 8.62796C6.57474 8.78637 6.51446 8.98784 6.53341 9.18986C6.55237 9.39187 6.64907 9.57861 6.80311 9.71068L10.0604 12.3148C10.7627 12.8467 11.6195 13.1346 12.5005 13.1346C13.3815 13.1346 14.2383 12.8467 14.9406 12.3148L18.1969 9.71068C18.3509 9.57861 18.4476 9.39187 18.4665 9.18986C18.4855 8.98784 18.4252 8.78637 18.2984 8.62796C18.1717 8.46955 17.9883 8.36659 17.787 8.34082C17.5858 8.31505 17.3824 8.36849 17.2198 8.48984Z" fill="white"/>
<path d="M23.1221 16.982L18.6429 21.4612C18.5704 21.5338 18.4842 21.5913 18.3894 21.6306C18.2946 21.6699 18.193 21.6902 18.0903 21.6902C17.9877 21.6902 17.8861 21.6699 17.7912 21.6306C17.6964 21.5913 17.6103 21.5338 17.5377 21.4612L15.8638 19.7757C15.7891 19.7037 15.7296 19.6175 15.6886 19.5222C15.6476 19.4269 15.626 19.3244 15.625 19.2207C15.6241 19.117 15.6438 19.0141 15.683 18.918C15.7223 18.822 15.7802 18.7348 15.8536 18.6614C15.9269 18.588 16.0141 18.5299 16.1101 18.4906C16.2061 18.4513 16.3089 18.4315 16.4127 18.4323C16.5164 18.4332 16.6189 18.4547 16.7143 18.4956C16.8096 18.5365 16.8958 18.5959 16.9679 18.6705L18.094 19.7966L22.0179 15.8737C22.0895 15.7969 22.1757 15.7353 22.2715 15.6926C22.3674 15.6499 22.4708 15.627 22.5757 15.6251C22.6806 15.6233 22.7848 15.6426 22.8821 15.6819C22.9794 15.7212 23.0677 15.7796 23.1419 15.8538C23.2161 15.928 23.2746 16.0164 23.3139 16.1137C23.3532 16.2109 23.3725 16.3151 23.3706 16.42C23.3688 16.5249 23.3458 16.6284 23.3031 16.7242C23.2604 16.82 23.1989 16.9063 23.1221 16.9778V16.982Z" fill="white"/>
</svg>
