<svg width="25" height="25" viewBox="0 0 25 25" fill="none" xmlns="http://www.w3.org/2000/svg">
<path d="M15.625 1.30273H9.37498C3.7156 1.30273 1.30206 3.71732 1.30206 9.37565V15.6257C1.30206 21.284 3.7156 23.6986 9.37498 23.6986H15.625C21.2844 23.6986 23.6979 21.284 23.6979 15.6257V9.37565C23.6979 3.71732 21.2844 1.30273 15.625 1.30273ZM22.1354 15.6257C22.1354 20.4319 20.4312 22.1361 15.625 22.1361H9.37498C4.56873 22.1361 2.86456 20.4319 2.86456 15.6257V9.37565C2.86456 4.5694 4.56873 2.86523 9.37498 2.86523H15.625C20.4312 2.86523 22.1354 4.5694 22.1354 9.37565V15.6257Z" fill="white"/>
<path d="M7.8125 9.375C7.8125 9.1678 7.89481 8.96909 8.04132 8.82257C8.18784 8.67606 8.38655 8.59375 8.59375 8.59375H16.4062C16.6135 8.59375 16.8122 8.67606 16.9587 8.82257C17.1052 8.96909 17.1875 9.1678 17.1875 9.375C17.1875 9.5822 17.1052 9.78091 16.9587 9.92743C16.8122 10.0739 16.6135 10.1562 16.4062 10.1562H8.59375C8.38655 10.1562 8.18784 10.0739 8.04132 9.92743C7.89481 9.78091 7.8125 9.5822 7.8125 9.375ZM16.4062 14.8438H8.59375C8.38655 14.8438 8.18784 14.9261 8.04132 15.0726C7.89481 15.2191 7.8125 15.4178 7.8125 15.625C7.8125 15.8322 7.89481 16.0309 8.04132 16.1774C8.18784 16.3239 8.38655 16.4062 8.59375 16.4062H16.4062C16.6135 16.4062 16.8122 16.3239 16.9587 16.1774C17.1052 16.0309 17.1875 15.8322 17.1875 15.625C17.1875 15.4178 17.1052 15.2191 16.9587 15.0726C16.8122 14.9261 16.6135 14.8438 16.4062 14.8438Z" fill="white"/>
</svg>
