<svg width="232" height="38" viewBox="0 0 232 38" fill="none" xmlns="http://www.w3.org/2000/svg">
<path d="M65.7595 18.2891L63.6762 17.716C60.9719 16.9857 59.8687 16.054 59.8687 14.4932C59.8687 12.4725 61.6621 11.0832 64.2417 11.0832C66.8354 11.0832 68.5596 12.4437 68.7808 14.6646H71.2639C71.1533 11.198 68.284 8.7627 64.325 8.7627C60.1858 8.7627 57.2886 11.1692 57.2886 14.6075C57.2886 17.4151 58.9164 19.0912 62.5861 20.0654L65.1389 20.7532C67.8149 21.47 68.9878 22.5437 68.9878 24.2917C68.9878 26.3259 67.0288 27.8013 64.3387 27.8013C61.496 27.8013 59.4547 26.3259 59.2204 24.0903H56.7231C56.9574 27.7436 59.8823 30.1218 64.1039 30.1218C68.6844 30.1218 71.5538 27.7583 71.5538 23.976C71.5538 21.0112 69.8845 19.3633 65.7595 18.2891Z" fill="white"/>
<path d="M83.483 26.0108H83.3729L76.5027 8.7627H73.6191V29.435H75.9366V13.5049H76.0331L82.3792 29.2913H84.4767L90.8228 13.5049H90.9192V29.435H93.2368V8.7627H90.3538L83.483 26.0108Z" fill="white"/>
<path d="M105.59 18.2895L103.507 17.7165C100.802 16.9862 99.6993 16.0545 99.6993 14.4937C99.6993 12.473 101.493 11.0837 104.072 11.0837C106.666 11.0837 108.39 12.4442 108.611 14.6651H111.094C110.984 11.1985 108.114 8.76318 104.155 8.76318C100.016 8.76318 97.1186 11.1697 97.1186 14.608C97.1186 17.4155 98.747 19.0917 102.417 20.0658L104.969 20.7537C107.645 21.4705 108.818 22.5442 108.818 24.2922C108.818 26.3264 106.859 27.8018 104.169 27.8018C101.327 27.8018 99.2852 26.3264 99.051 24.0908H96.5537C96.788 27.7441 99.7124 30.1223 103.934 30.1223C108.515 30.1223 111.384 27.7588 111.384 23.9765C111.384 21.0117 109.715 19.3638 105.59 18.2895Z" fill="white"/>
<path d="M119.478 12.331H125.3V29.436H129.466V12.331H135.302V8.76367H119.478V12.331Z" fill="white"/>
<path d="M145.408 18.7341H141.753V12.1443H145.368C147.437 12.1443 148.734 13.4335 148.734 15.4389C148.734 17.4873 147.506 18.7341 145.408 18.7341ZM153.01 15.3529C153.01 11.2703 150.389 8.76367 145.809 8.76367H137.586V29.4354H141.753V21.8715H145.161L148.871 29.4354H153.59L149.396 21.226C151.685 20.296 153.01 18.0032 153.01 15.3529Z" fill="white"/>
<path d="M161.167 21.1837L163.72 12.7174H163.816L166.368 21.1837H161.167ZM161.388 8.76318L154.477 29.4355H158.753L160.27 24.4212H167.265L168.783 29.4355H173.211L166.285 8.76318H161.388Z" fill="white"/>
<path d="M176.208 29.435H180.375V21.2974H188.474V17.8738H180.375V12.3299H189.246V8.76318H176.208V29.435Z" fill="white"/>
<path d="M190.689 29.4354H194.856V21.2979H202.955V17.8743H194.856V12.3304H203.727V8.76367H190.689V29.4354Z" fill="white"/>
<path d="M210.542 8.7627H206.376V29.4344H210.542V8.7627Z" fill="white"/>
<path d="M227.741 22.616C227.299 25.0655 225.521 26.5697 223.051 26.5697C219.864 26.5697 217.863 23.8475 217.863 19.4356C217.863 15.0809 219.891 12.3446 223.036 12.3446C225.465 12.3446 227.341 14.0061 227.727 16.5421H231.783C231.466 11.9147 227.824 8.76318 223.036 8.76318C217.27 8.76318 213.614 12.7887 213.614 19.4498C213.614 26.1256 217.243 30.1511 223.036 30.1511C227.92 30.1511 231.328 27.2287 231.797 22.616H227.741Z" fill="white"/>
<path d="M31.5449 18.9947H41.4392H43.5502C43.5502 19.4755 43.4249 19.9564 43.1733 20.3818L33.1694 37.2973C32.9112 37.7334 32.453 37.9999 31.96 37.9999H20.652C19.606 37.9999 18.9653 36.8091 19.5123 35.8836L29.3837 19.1932C29.4197 19.1321 29.436 19.0637 29.436 18.9947L29.4366 18.9885L31.5449 18.9947Z" fill="#4382C3"/>
<path d="M31.5449 19.0053H41.4392H43.5502C43.5502 18.5245 43.4249 18.0436 43.1733 17.6182L33.1694 0.702715C32.9112 0.266562 32.453 0.000118256 31.96 0.000118256H20.652C19.606 0.000118256 18.9653 1.19091 19.5123 2.1164L29.3837 18.8068C29.4197 18.8679 29.436 18.9363 29.436 19.0053L29.4366 19.0115L31.5449 19.0053Z" fill="#43A9DF"/>
<path d="M12.2324 18.9947H22.1267H24.2377C24.2377 19.4755 24.1124 19.9564 23.8608 20.3818L13.8569 37.2973C13.5987 37.7334 13.1405 37.9999 12.6475 37.9999H1.33945C0.29347 37.9999 -0.347193 36.8091 0.199768 35.8836L10.0712 19.1932C10.1072 19.1321 10.1235 19.0637 10.1235 18.9947L10.1241 18.9885L12.2324 18.9947Z" fill="#4382C3"/>
<path d="M12.2324 19.0053H22.1267H24.2377C24.2377 18.5245 24.1124 18.0436 23.8608 17.6182L13.8569 0.702715C13.5987 0.266562 13.1405 0.000118256 12.6475 0.000118256H1.33945C0.29347 0.000118256 -0.347193 1.19091 0.199768 2.1164L10.0712 18.8068C10.1072 18.8679 10.1235 18.9363 10.1235 19.0053L10.1241 19.0115L12.2324 19.0053Z" fill="#43A9DF"/>
</svg>
