<svg width="231" height="30" viewBox="0 0 231 30" fill="none" xmlns="http://www.w3.org/2000/svg">
<g clip-path="url(#clip0_160_7882)">
<path d="M150.511 11.4045H147.719C147.62 10.8526 147.399 10.3296 147.073 9.87305C146.781 9.52129 146.409 9.24352 145.99 9.06233C145.57 8.88114 145.113 8.80165 144.656 8.83032C143.96 8.80229 143.273 8.99813 142.697 9.3891C142.12 9.78007 141.684 10.3456 141.452 11.0027C141.186 11.6612 141.027 12.3578 140.98 13.0664C140.98 13.3271 140.942 13.6095 140.942 13.8701C140.942 16.1113 141.557 17.612 142.788 18.3723C143.323 18.6894 143.937 18.8511 144.559 18.8394C146.009 18.8394 146.981 18.2528 147.464 17.0743C147.6 16.7262 147.686 16.3605 147.719 15.9882H150.587C150.581 16.8545 150.359 17.7057 149.941 18.4644C149.522 19.2231 148.921 19.8653 148.192 20.3329C147.074 21.0278 145.777 21.3791 144.461 21.343C142.209 21.343 140.5 20.5048 139.334 18.8285C138.384 17.3501 137.912 15.6152 137.982 13.8593C137.982 11.1402 138.768 9.11092 140.339 7.77131C141.518 6.79586 143.013 6.28584 144.542 6.33757C146.649 6.33757 148.279 7.0309 149.43 8.41758C149.484 8.48275 149.533 8.54249 149.571 8.5968C150.147 9.42337 150.473 10.3979 150.511 11.4045Z" fill="#202838"/>
<path d="M158.445 6.33796C159.354 6.30195 160.26 6.46013 161.103 6.80195C161.946 7.14376 162.706 7.66136 163.333 8.32023C164.652 9.79299 165.368 11.7089 165.337 13.6859V13.9412C165.36 15.5991 164.873 17.2241 163.941 18.5954C163.346 19.3809 162.59 20.0306 161.724 20.5013C160.858 20.972 159.902 21.253 158.919 21.3254C157.937 21.3978 156.95 21.2601 156.024 20.9215C155.099 20.5828 154.256 20.0509 153.552 19.3611C152.34 18.0268 151.638 16.3073 151.57 14.506C151.57 14.2887 151.57 14.0661 151.57 13.8434C151.512 11.9579 152.124 10.1129 153.297 8.63521L153.574 8.32023C154.195 7.65893 154.952 7.13952 155.793 6.79743C156.634 6.45533 157.538 6.29862 158.445 6.33796ZM158.445 8.85245C157.792 8.82877 157.145 8.98936 156.578 9.31587C156.011 9.64238 155.548 10.1216 155.241 10.6989L154.888 11.443C154.617 12.2138 154.485 13.0265 154.497 13.8434C154.497 15.7297 155.04 17.1236 156.126 18.0252C156.786 18.5633 157.616 18.8484 158.467 18.8289C159.109 18.8474 159.744 18.6884 160.302 18.3693C160.859 18.0502 161.318 17.5835 161.628 17.0205C162.175 16.0807 162.448 15.0064 162.415 13.9194C162.415 11.9046 161.845 10.4545 160.704 9.57475C160.061 9.0881 159.273 8.83351 158.467 8.85245H158.445Z" fill="#202838"/>
<path d="M175.297 20.8924L169.54 10.992V20.8924H166.597V6.57129H169.622L175.297 16.2925V6.57129H178.24V20.8924H175.297Z" fill="#202838"/>
<path d="M189.401 20.8924L183.644 10.992V20.8924H180.695V6.57129H183.72L189.401 16.2925V6.57129H192.344V20.8924H189.401Z" fill="#202838"/>
<path d="M197.569 14.723V18.4648H205.33V20.9196H194.626V6.57129H204.972V9.02603H197.569V12.2845H204.423V14.7393L197.569 14.723Z" fill="#202838"/>
<path d="M218.782 11.4048H215.974C215.875 10.8519 215.652 10.3284 215.322 9.87333C215.027 9.52218 214.652 9.24642 214.229 9.06887C213.806 8.89132 213.347 8.8171 212.889 8.85233C212.194 8.82548 211.508 9.02187 210.933 9.41276C210.357 9.80365 209.922 10.3685 209.691 11.0247C209.425 11.6832 209.265 12.3798 209.218 13.0884C209.192 13.3555 209.179 13.6238 209.18 13.8922C209.18 16.1333 209.796 17.634 211.027 18.3943C211.56 18.7112 212.171 18.8729 212.792 18.8614C214.247 18.8614 215.214 18.2748 215.703 17.0963C215.836 16.7474 215.922 16.3821 215.958 16.0102H218.863C218.855 16.8766 218.631 17.7274 218.212 18.4858C217.793 19.2442 217.192 19.8865 216.463 20.3549C215.349 21.0371 214.059 21.3787 212.754 21.3378C210.502 21.3378 208.793 20.4997 207.627 18.8234C206.675 17.3455 206.201 15.6106 206.269 13.8541C206.269 11.1351 207.055 9.10577 208.626 7.76616C209.806 6.7925 211.301 6.28271 212.83 6.33242C214.94 6.33242 216.57 7.02576 217.717 8.41243L217.859 8.59165C218.429 9.42156 218.75 10.398 218.782 11.4048Z" fill="#202838"/>
<path d="M226.733 9.02603V20.8924H223.789V9.02603H219.444V6.57129H230.92V9.02603H226.733Z" fill="#202838"/>
<path d="M76.6677 10.7638H74.9461C74.9866 10.1173 74.7875 9.47853 74.3867 8.96959C73.986 8.46064 73.4118 8.11722 72.7738 8.00496C72.3094 7.89558 71.8334 7.8427 71.3563 7.84746C69.9877 7.84746 69.0355 8.25478 68.4997 9.0694L68.2607 9.54188C68.1806 9.77798 68.1403 10.0257 68.1413 10.275C68.142 10.6233 68.2454 10.9637 68.4386 11.2535C68.6318 11.5433 68.9062 11.7697 69.2274 11.9043C69.6439 12.1089 70.0808 12.2691 70.5308 12.3822L74.1369 13.3435C75.7119 13.7779 76.684 14.636 77.0533 15.9068C77.148 16.2481 77.1955 16.6008 77.1945 16.955C77.2046 18.0419 76.7872 19.0893 76.0323 19.8713C75.8943 20.0108 75.7493 20.1431 75.5978 20.2678C74.642 20.9919 73.2951 21.354 71.5573 21.354C69.3379 21.354 67.7285 20.6697 66.7292 19.3011C66.1359 18.4252 65.839 17.3821 65.882 16.325H67.6145L67.6742 17.0745C67.7679 17.6148 68.0063 18.1196 68.3639 18.5353C69.0373 19.3391 70.1398 19.7356 71.6767 19.7356C72.5973 19.798 73.5157 19.5863 74.3161 19.1273C74.5991 18.9323 74.8357 18.6775 75.0093 18.381C75.1829 18.0844 75.2893 17.7533 75.3208 17.4112C75.3289 17.319 75.3289 17.2263 75.3208 17.1342C75.3208 16.1349 74.5967 15.4108 73.1485 14.9619L72.676 14.8261L69.108 13.8811C67.2289 13.3923 66.2893 12.279 66.2893 10.5303C66.2484 9.80405 66.4203 9.08163 66.784 8.45167C67.1477 7.82172 67.6873 7.31162 68.3368 6.98396C69.2845 6.50993 70.3351 6.27854 71.3943 6.31054C73.7079 6.31054 75.2774 7.03465 76.1029 8.48287C76.4905 9.1795 76.6854 9.96683 76.6677 10.7638Z" fill="#202838"/>
<path d="M87.2903 20.9144H85.3569L81.2783 8.87421V20.9144H79.5459V6.5498H82.0875L86.3453 19.0407L90.5216 6.5498H93.0633V20.9144H91.3308V8.87421L87.2903 20.9144Z" fill="#202838"/>
<path d="M103.827 16.6023H98.2984L96.7832 20.9144H94.8281L99.9277 6.5498H102.296L107.341 20.9144H105.304L103.827 16.6023ZM103.317 15.0654L101.106 8.54836L98.7438 15.0654H103.317Z" fill="#202838"/>
<path d="M127.201 8.14634V20.9143H125.371V8.14634H120.641V6.51709H131.915V8.14634H127.201Z" fill="#202838"/>
<path d="M120.158 20.9468L116.731 14.4841C117.457 14.1796 118.07 13.657 118.487 12.9887C118.903 12.3203 119.102 11.5392 119.055 10.7531C119.07 10.1053 118.955 9.461 118.718 8.85778C118.099 7.30999 116.763 6.51709 114.618 6.51709H108.677V20.9143H110.512V14.8209H115.025L117.969 20.9468H120.158ZM110.512 13.2025V8.14634H114.314C114.505 8.14689 114.695 8.16141 114.884 8.18979L115.558 8.34728C116.044 8.5 116.464 8.8142 116.747 9.23787C117.03 9.66155 117.161 10.1693 117.116 10.6771C117.126 11.0492 117.057 11.4191 116.915 11.7633C116.524 12.7336 115.657 13.2206 114.314 13.2242L110.512 13.2025Z" fill="#202838"/>
<path d="M2.53633 26.3992H16.0591C16.8846 26.3992 16.7434 26.0517 16.2981 25.476C16.0588 25.1467 15.8985 24.7667 15.8298 24.3655C15.761 23.9643 15.7856 23.5526 15.9016 23.1624L18.617 12.0509C18.6572 11.886 18.6595 11.7141 18.6238 11.5482C18.5881 11.3822 18.5152 11.2265 18.4107 11.0927C18.3062 10.9589 18.1727 10.8506 18.0204 10.7757C17.868 10.7009 17.7006 10.6616 17.5309 10.6606H4.04611C3.79625 10.6626 3.55411 10.7474 3.35757 10.9017C3.16104 11.056 3.0212 11.2711 2.95994 11.5133L0.0978892 23.1624C-0.342008 24.9492 0.74959 26.3992 2.53633 26.3992Z" fill="#43AAE0"/>
<path d="M51.2401 0H28.6152C27.6839 0.0468879 26.7913 0.38742 26.0655 0.972784C25.3396 1.55815 24.8178 2.35829 24.5746 3.25851L19.6434 23.1626C19.1981 24.9493 20.2897 26.4211 22.0819 26.4211H39.3248C39.5913 26.4243 39.853 26.4928 40.0868 26.6206C40.3207 26.7484 40.5196 26.9317 40.6662 27.1543C41.2208 28.024 41.9858 28.7398 42.8905 29.2353C43.7952 29.7309 44.8103 29.9901 45.8418 29.9892C45.0121 29.1313 44.4466 28.053 44.2126 26.8827C44.1583 26.6166 44.3592 26.3885 44.6905 26.3885C45.6215 26.3408 46.5137 26 47.2394 25.4147C47.965 24.8295 48.4871 24.0298 48.731 23.13L53.6785 3.25851C54.1238 1.45004 53.0322 0 51.2401 0Z" fill="#4483C4"/>
<path d="M36.6582 15.1088C37.711 15.1088 38.5644 14.2554 38.5644 13.2026C38.5644 12.1498 37.711 11.2964 36.6582 11.2964C35.6054 11.2964 34.752 12.1498 34.752 13.2026C34.752 14.2554 35.6054 15.1088 36.6582 15.1088Z" fill="white"/>
<path d="M30.6572 15.1088C31.71 15.1088 32.5634 14.2554 32.5634 13.2026C32.5634 12.1498 31.71 11.2964 30.6572 11.2964C29.6044 11.2964 28.751 12.1498 28.751 13.2026C28.751 14.2554 29.6044 15.1088 30.6572 15.1088Z" fill="white"/>
<path d="M42.665 15.1088C43.7178 15.1088 44.5712 14.2554 44.5712 13.2026C44.5712 12.1498 43.7178 11.2964 42.665 11.2964C41.6122 11.2964 40.7588 12.1498 40.7588 13.2026C40.7588 14.2554 41.6122 15.1088 42.665 15.1088Z" fill="white"/>
</g>
<defs>
<clipPath id="clip0_160_7882">
<rect width="230.919" height="30" fill="white"/>
</clipPath>
</defs>
</svg>
