<svg width="214" height="30" viewBox="0 0 214 30" fill="none" xmlns="http://www.w3.org/2000/svg">
<path d="M122.582 21.7842V7.47266H128.18C130.106 7.47266 131.513 7.91708 132.402 8.80593C132.508 8.91175 132.603 9.01756 132.698 9.11809C133.862 10.5043 134.444 12.3402 134.444 14.6152C134.444 16.8902 133.862 18.7526 132.698 20.1123C131.836 21.1599 130.481 21.7154 128.635 21.7789H122.587L122.582 21.7842ZM125.524 19.3293H128.174C130.386 19.3293 131.492 17.7632 131.492 14.6364C131.492 11.5095 130.386 9.92229 128.174 9.92229H125.524V19.3293Z" fill="#202838"/>
<path d="M138.877 15.6205V19.3293H146.633V21.7842H135.936V7.47266H146.284V9.92758H138.883V13.1655H145.734V15.6205H138.883H138.877Z" fill="#202838"/>
<path d="M151.126 7.47266V19.3293H157.977V21.7842H148.179V7.47266H151.126Z" fill="#202838"/>
<path d="M162.004 7.47266V21.7842H159.057V7.47266H162.004Z" fill="#202838"/>
<path d="M170.998 21.7842H168.506L163.676 7.47266H166.639L169.818 18.25L172.94 7.47266H175.903L170.993 21.7842H170.998Z" fill="#202838"/>
<path d="M180.325 15.6205V19.3293H188.082V21.7842H177.384V7.47266H187.733V9.92758H180.331V13.1655H187.182V15.6205H180.331H180.325Z" fill="#202838"/>
<path d="M209.346 16.4828V21.7842H206.399V16.4828L201.647 7.47266H204.928L207.854 13.7951L210.584 7.47266H213.88L209.346 16.4828Z" fill="#202838"/>
<path d="M193.14 21.8107H190.146V7.50977H196.055C199.346 7.50977 201.23 9.24514 201.23 12.0704C201.23 13.9063 200.277 15.4883 198.632 16.1337L201.642 21.816H198.251L195.584 16.5834H193.135V21.816L193.14 21.8107ZM193.14 14.4089H195.764C197.272 14.4089 198.156 13.5465 198.156 12.1286C198.156 10.7107 197.225 9.84829 195.738 9.84829H193.14V14.4089Z" fill="#202838"/>
<path d="M64.0302 11.506H62.3758C62.3656 10.1147 61.6725 9.23944 60.3115 8.87517C59.9119 8.77398 59.4616 8.72339 58.9607 8.72339C57.6604 8.72339 56.7498 9.11296 56.2388 9.88704L56.0111 10.3373C55.9352 10.5498 55.8998 10.7825 55.8998 11.0305C55.8998 11.7337 56.2388 12.2599 56.9117 12.609C57.2253 12.7709 57.6351 12.9227 58.1512 13.0593L61.5865 13.9801C63.0891 14.3949 64.015 15.2044 64.3641 16.4187C64.4501 16.7324 64.4956 17.0612 64.4956 17.4154C64.4956 18.4677 64.1314 19.3885 63.4079 20.1778C63.2713 20.3144 63.1347 20.4409 62.993 20.5522C62.0773 21.2554 60.7972 21.6045 59.1428 21.6045C57.028 21.6045 55.495 20.9519 54.5439 19.6516C54.0177 18.9382 53.7496 17.9921 53.7344 16.8184H55.3888L55.4444 17.5317C55.5304 18.0427 55.7531 18.5082 56.1022 18.9231C56.7396 19.687 57.792 20.0665 59.2541 20.0665C60.3672 20.0665 61.2071 19.8742 61.7686 19.4847C62.3201 19.0951 62.6389 18.5537 62.7249 17.8505C62.735 17.7645 62.7451 17.6734 62.7451 17.5874C62.7451 16.6362 62.057 15.9431 60.6809 15.5029L60.2306 15.3714L56.8307 14.4708C55.0397 14.0104 54.1442 12.9429 54.1442 11.2784C54.1442 9.72514 54.7968 8.60196 56.0971 7.89871C56.8965 7.47372 57.8679 7.26123 59.0062 7.26123C61.2071 7.26123 62.7046 7.95436 63.4939 9.34569C63.843 9.95787 64.0201 10.6763 64.0201 11.506H64.0302Z" fill="#202838"/>
<path d="M74.1492 21.1743H72.3076L68.422 9.70477V21.1743H66.7676V7.48877H69.191L73.2486 19.4086L77.2303 7.48877H79.6538V21.1743H77.9994V9.70477L74.1492 21.1743Z" fill="#202838"/>
<path d="M89.899 17.0611H84.6221L83.1751 21.1743H81.3184L86.2006 7.48877H88.4521L93.2585 21.1743H91.3055L89.899 17.0611ZM89.4133 15.5989L87.3086 9.36579L85.0572 15.5989H89.4133Z" fill="#202838"/>
<path d="M112.165 9.02682V21.1743H110.419V9.02682H105.911V7.48877H116.652V9.02682H112.165Z" fill="#202838"/>
<path d="M105.457 21.1994L102.193 15.0421C102.563 14.8802 102.912 14.6677 103.226 14.3844C104.015 13.671 104.409 12.7047 104.409 11.4905C104.409 10.8024 104.303 10.2003 104.091 9.68426C103.504 8.20693 102.198 7.46826 100.18 7.46826H94.5234V21.1741H96.2689V15.3659H100.569L103.372 21.1994H105.462H105.457ZM96.2689 13.8228V9.01137H99.9167C100.104 9.01137 100.286 9.02149 100.463 9.04678L101.101 9.19856C102.092 9.54766 102.588 10.2863 102.588 11.4146C102.588 11.789 102.527 12.1279 102.401 12.4315C102.026 13.3574 101.197 13.8228 99.9218 13.8228H96.274H96.2689Z" fill="#202838"/>
<path d="M42.1733 4.85223L15.9799 0.0249121C14.8013 -0.191096 13.8856 1.03921 14.435 2.10517L18.0273 9.10665C18.079 9.20996 18.1306 9.30857 18.1729 9.41188C18.3513 9.81103 18.774 10.0458 19.206 9.97538L37.4681 7.11562L19.3281 12.8351C18.9853 12.9431 18.7364 13.239 18.666 13.5912C18.5861 13.995 18.4734 14.3989 18.3232 14.7886L15.2615 22.6682C14.7449 23.9924 16.257 25.1852 17.4263 24.3775L42.6335 7.00292C43.5069 6.40185 43.2158 5.04945 42.1733 4.85693V4.85223Z" fill="#4182C4"/>
<path d="M10.4764 3.78604L2.40893 3.12863C1.60595 3.06289 1.04245 3.90344 1.41342 4.6219L4.86485 11.3463C5.51758 12.6142 5.5974 14.0981 5.09026 15.4317L0.070409 28.6129C-0.272387 29.5098 0.704346 30.341 1.53551 29.8573L9.44329 25.2366C10.3308 24.7154 11.0164 23.9077 11.3827 22.945L14.6604 14.3564C15.238 12.8396 15.144 11.1491 14.4021 9.70279L11.8335 4.69704C11.5705 4.18049 11.054 3.8377 10.4764 3.79074V3.78604Z" fill="#3FAAE0"/>
</svg>
