<svg width="102" height="30" viewBox="0 0 102 30" fill="none" xmlns="http://www.w3.org/2000/svg">
<path fill-rule="evenodd" clip-rule="evenodd" d="M95.0357 14.4845H92.4458V10.072H95.0357C96.2827 10.072 97.146 11.0312 97.146 12.2782C97.146 13.5253 96.1868 14.4845 95.0357 14.4845ZM95.0357 6.42693H92.4458H89.1844C88.8007 6.42693 88.6088 6.61878 88.6088 7.00247V23.0217C88.6088 23.4053 88.8007 23.5972 89.1844 23.5972H91.8702C92.2539 23.5972 92.4458 23.4053 92.4458 23.0217V18.2255H95.0357C98.393 18.2255 101.079 15.6356 101.079 12.3742C101.079 9.11278 98.393 6.42693 95.0357 6.42693ZM77.9613 19.8562H74.5081V10.2639H77.9613C80.6472 10.2639 82.5657 12.0864 82.5657 15.06C82.5657 17.9377 80.6472 19.8562 77.9613 19.8562ZM77.9613 6.42693H74.5081H71.2467C70.863 6.42693 70.6712 6.61878 70.6712 7.00247V23.0217C70.6712 23.4053 70.863 23.5972 71.2467 23.5972H71.8223H77.9613C82.6616 23.5972 86.3067 19.8562 86.3067 15.06C86.3067 10.1679 82.7575 6.42693 77.9613 6.42693ZM67.3139 22.8298L62.7095 14.7723L67.0261 7.19432C67.3139 6.7147 67.122 6.42693 66.6424 6.42693H63.4769C63.1892 6.42693 62.9014 6.52285 62.7095 6.81062L60.4074 10.8394L58.1052 6.81062C57.9134 6.52285 57.7215 6.42693 57.3378 6.42693H54.1724C53.6928 6.42693 53.5009 6.7147 53.7887 7.19432L58.1052 14.7723L53.6928 22.8298C53.405 23.3094 53.5968 23.5972 54.0765 23.5972H57.2419C57.5297 23.5972 57.8175 23.5013 58.0093 23.2135L60.5033 18.801L62.9973 23.2135C63.1892 23.5013 63.381 23.5972 63.7647 23.5972H66.9302C67.3139 23.5972 67.5057 23.3094 67.3139 22.8298ZM44.58 23.885C48.5129 23.885 51.8702 21.391 52.8294 17.8418C52.9254 17.4581 52.7335 17.1703 52.2539 17.1703H49.3762C48.9925 17.1703 48.8007 17.3622 48.7047 17.65C48.0333 19.1847 46.4985 20.144 44.58 20.144C41.5105 20.144 39.592 18.1296 39.592 15.06C39.592 11.9905 41.5105 9.97609 44.58 9.97609C46.4026 9.97609 48.0333 10.8394 48.7047 12.3742C48.8966 12.6619 49.0884 12.8538 49.3762 12.8538H52.2539C52.6376 12.8538 52.9254 12.566 52.8294 12.1823C51.8702 8.63316 48.5129 6.13916 44.58 6.13916C39.4002 6.13916 35.6592 9.97609 35.6592 15.06C35.6592 20.048 39.4002 23.885 44.58 23.885Z" fill="#202838"/>
<path fill-rule="evenodd" clip-rule="evenodd" d="M18.777 0H15.036C11.199 0 7.36211 1.43885 4.38849 4.41247C-1.46283 10.2638 -1.46283 19.7602 4.38849 25.6115C10.2398 31.4628 19.7362 31.4628 25.6835 25.6115C28.6571 22.6379 30.0959 18.801 30.0959 14.964V11.223H29.6163C26.1631 11.223 23.1894 13.5252 22.3261 16.8825C22.0384 18.1295 21.3669 19.2806 20.4077 20.3357C17.4341 23.3094 12.7338 23.3094 9.76019 20.3357C6.78657 17.3621 6.78657 12.6619 9.76019 9.68825C10.7194 8.72902 11.9664 8.05755 13.2134 7.76978C16.5707 6.90648 18.8729 3.93285 18.8729 0.479616V0H18.777Z" fill="#385EF7"/>
<path d="M26.2591 7.48202C28.3694 7.48202 30.0001 5.7554 30.0001 3.74101C30.0001 1.6307 28.2735 0 26.2591 0C24.1488 0 22.5181 1.72662 22.5181 3.74101C22.5181 5.85132 24.2447 7.48202 26.2591 7.48202Z" fill="#202838"/>
<path d="M15.0359 18.8009C17.102 18.8009 18.7769 17.126 18.7769 15.0599C18.7769 12.9938 17.102 11.3188 15.0359 11.3188C12.9698 11.3188 11.2949 12.9938 11.2949 15.0599C11.2949 17.126 12.9698 18.8009 15.0359 18.8009Z" fill="#202838"/>
<path fill-rule="evenodd" clip-rule="evenodd" d="M20.5996 11.2227C21.6548 11.2227 22.5181 10.3594 22.5181 9.30421C22.5181 8.24905 21.6548 7.38574 20.5996 7.38574C19.5445 7.38574 18.6812 8.24905 18.6812 9.30421C18.7771 10.4553 19.6404 11.2227 20.5996 11.2227Z" fill="#385EF7"/>
</svg>
