<svg width="48" height="48" viewBox="0 0 48 48" fill="none" xmlns="http://www.w3.org/2000/svg">
<path fill-rule="evenodd" clip-rule="evenodd" d="M24.0399 1C27.0656 0.999986 30.0616 1.59592 32.857 2.75378C35.6523 3.91164 38.1922 5.60875 40.3317 7.74821C42.4712 9.88766 44.1683 12.4276 45.3262 15.2229C46.4841 18.0183 47.08 21.0143 47.08 24.0399C47.08 36.7646 36.7646 47.08 24.0399 47.08C11.3154 47.08 1 36.7646 1 24.0399C1 11.3154 11.3154 1 24.0399 1ZM26.344 26.344H21.736C16.032 26.344 11.1349 29.7986 9.02277 34.73C12.3647 39.4162 17.8455 42.472 24.0399 42.472C30.2344 42.472 35.7152 39.4162 39.0572 34.7297C36.9451 29.7986 32.048 26.344 26.344 26.344ZM24.0399 7.91199C20.2226 7.91199 17.128 11.0066 17.128 14.824C17.128 18.6414 20.2226 21.736 24.0399 21.736C27.8573 21.736 30.9519 18.6414 30.9519 14.824C30.9519 11.0066 27.8574 7.91199 24.0399 7.91199Z" fill="#0076E2"/>
</svg>
