<svg width="25" height="25" viewBox="0 0 25 25" fill="none" xmlns="http://www.w3.org/2000/svg">
<path d="M8.29672 6.45911C8.10312 6.43077 7.90565 6.46974 7.73734 6.56953H7.72276C7.33213 6.7987 6.98005 7.08724 6.68005 7.42682C6.43005 7.71536 6.29463 8.00703 6.25922 8.28828C6.23838 8.45495 6.25297 8.6237 6.30193 8.78307L6.32068 8.79349C6.60193 9.61953 6.96859 10.4143 7.41651 11.1622C7.99432 12.2126 8.70503 13.1841 9.53109 14.0529L9.55609 14.0883L9.59568 14.1174L9.61963 14.1456L9.6488 14.1706C10.5207 14.999 11.4945 15.7131 12.5467 16.2956C13.7498 16.9508 14.4801 17.2602 14.9186 17.3893V17.3956C15.0467 17.4352 15.1634 17.4529 15.2811 17.4529C15.6548 17.4261 16.0085 17.2741 16.2853 17.0216C16.6238 16.7216 16.9103 16.3685 17.1332 15.9758V15.9685C17.3426 15.5727 17.2717 15.1997 16.9696 14.9466C16.3634 14.4158 15.7072 13.9449 15.0103 13.5404C14.5436 13.2872 14.0696 13.4404 13.878 13.6966L13.4686 14.2133C13.2582 14.4695 12.8769 14.4341 12.8769 14.4341L12.8665 14.4404C10.0217 13.7143 9.26234 10.8341 9.26234 10.8341C9.26234 10.8341 9.22693 10.4424 9.49047 10.2424L10.003 9.82995C10.2488 9.62995 10.4196 9.15703 10.1561 8.69036C9.75253 7.99393 9.28264 7.33811 8.75297 6.73203C8.63711 6.58972 8.47485 6.49273 8.29463 6.45807M13.104 5.20703C12.9659 5.20703 12.8334 5.2619 12.7357 5.35958C12.638 5.45726 12.5832 5.58973 12.5832 5.72786C12.5832 5.866 12.638 5.99847 12.7357 6.09615C12.8334 6.19382 12.9659 6.2487 13.104 6.2487C14.4207 6.2487 15.5144 6.67891 16.3801 7.50391C16.8248 7.95495 17.1717 8.48932 17.3988 9.07474C17.6269 9.6612 17.7311 10.2872 17.704 10.9143C17.6982 11.0525 17.7475 11.1872 17.8411 11.289C17.9347 11.3908 18.0648 11.4512 18.203 11.457C18.3411 11.4628 18.4759 11.4135 18.5777 11.32C18.6794 11.2264 18.7399 11.0962 18.7457 10.9581C18.7768 10.1868 18.6488 9.41735 18.3696 8.69766C18.0892 7.97431 17.6622 7.31678 17.1155 6.76641L17.1051 6.75599C16.0311 5.72995 14.6728 5.20703 13.104 5.20703Z" fill="#0076E2"/>
<path d="M13.0677 6.91901C12.9296 6.91901 12.7971 6.97388 12.6994 7.07156C12.6017 7.16923 12.5469 7.30171 12.5469 7.43984C12.5469 7.57798 12.6017 7.71045 12.6994 7.80813C12.7971 7.9058 12.9296 7.96068 13.0677 7.96068H13.0854C14.0354 8.02839 14.7271 8.34505 15.2115 8.86484C15.7083 9.40026 15.9656 10.0659 15.9458 10.8888C15.9427 11.0269 15.9945 11.1607 16.0899 11.2606C16.1853 11.3605 16.3166 11.4184 16.4547 11.4216C16.5928 11.4248 16.7266 11.373 16.8265 11.2775C16.9264 11.1821 16.9843 11.0509 16.9875 10.9128C17.0125 9.83255 16.6646 8.90026 15.975 8.15651V8.15443C15.2698 7.39818 14.3021 6.99818 13.1375 6.92005L13.1198 6.91797L13.0677 6.91901Z" fill="#0076E2"/>
<path d="M13.0481 8.66608C12.9784 8.65993 12.9081 8.66789 12.8416 8.68948C12.775 8.71107 12.7135 8.74585 12.6607 8.79174C12.6078 8.83764 12.5648 8.8937 12.5341 8.9566C12.5035 9.01949 12.4858 9.08792 12.4822 9.15779C12.4785 9.22767 12.489 9.29757 12.513 9.36331C12.5369 9.42905 12.5739 9.48928 12.6217 9.54042C12.6694 9.59155 12.727 9.63254 12.791 9.66093C12.8549 9.68932 12.9239 9.70454 12.9939 9.70566C13.4293 9.72858 13.7074 9.85983 13.8824 10.0359C14.0585 10.213 14.1897 10.4973 14.2137 10.9421C14.215 11.012 14.2303 11.0809 14.2588 11.1448C14.2873 11.2086 14.3284 11.266 14.3796 11.3137C14.4307 11.3613 14.491 11.3981 14.5567 11.422C14.6224 11.4459 14.6922 11.4562 14.762 11.4525C14.8319 11.4488 14.9002 11.4311 14.963 11.4004C15.0258 11.3697 15.0818 11.3267 15.1277 11.2739C15.1735 11.2212 15.2082 11.1597 15.2298 11.0932C15.2514 11.0267 15.2594 10.9566 15.2533 10.8869C15.2199 10.2619 15.0241 9.70983 14.6231 9.30358C14.2199 8.89733 13.671 8.69941 13.0481 8.66608Z" fill="#0076E2"/>
<path fill-rule="evenodd" clip-rule="evenodd" d="M7.36133 2.48148C10.676 1.74055 14.1133 1.74055 17.428 2.48148L17.7811 2.55961C18.7498 2.77677 19.6395 3.25797 20.3514 3.94986C21.0633 4.64175 21.5697 5.51729 21.8145 6.4794C22.6566 9.79481 22.6566 13.2682 21.8145 16.5836C21.5697 17.5457 21.0633 18.4212 20.3514 19.1131C19.6395 19.805 18.7498 20.2862 17.7811 20.5034L17.427 20.5815C15.3508 21.0451 13.2207 21.22 11.0968 21.1013L8.33321 23.5742C8.22902 23.6675 8.10171 23.7311 7.96455 23.7584C7.82739 23.7857 7.68543 23.7756 7.55347 23.7293C7.42151 23.6831 7.30439 23.6022 7.21434 23.4952C7.1243 23.3882 7.06462 23.259 7.04154 23.1211L6.58425 20.3898C5.7076 20.1165 4.91558 19.6232 4.28373 18.9569C3.65188 18.2906 3.20127 17.4735 2.97488 16.5836C2.13272 13.2682 2.13272 9.79481 2.97488 6.4794C3.21961 5.51729 3.72601 4.64175 4.43794 3.94986C5.14987 3.25797 6.0395 2.77677 7.00821 2.55961L7.36133 2.48148ZM17.0874 4.00544C13.997 3.31461 10.7923 3.31461 7.70196 4.00544L7.34779 4.08461C6.66129 4.23896 6.0309 4.58029 5.52642 5.07081C5.02193 5.56132 4.66303 6.18188 4.48946 6.86377C3.71133 9.92693 3.71133 13.136 4.48946 16.1992C4.66312 16.8812 5.02217 17.5019 5.52685 17.9924C6.03153 18.4829 6.66214 18.8242 7.34883 18.9784L7.44258 18.9992C7.59424 19.0331 7.73234 19.1115 7.83922 19.2243C7.9461 19.3371 8.01691 19.4793 8.04258 19.6325L8.34883 21.4638L10.2988 19.719C10.3767 19.6491 10.4678 19.5956 10.5668 19.5616C10.6657 19.5276 10.7705 19.5138 10.8749 19.5211C12.9572 19.6681 15.0499 19.5119 17.0874 19.0575L17.4405 18.9784C18.1272 18.8242 18.7578 18.4829 19.2625 17.9924C19.7672 17.5019 20.1262 16.8812 20.2999 16.1992C21.077 13.1367 21.077 9.92731 20.2999 6.86377C20.1262 6.18175 19.7672 5.5611 19.2625 5.07057C18.7578 4.58005 18.1272 4.23879 17.4405 4.08461L17.0874 4.00544Z" fill="#202838"/>
</svg>
