<svg width="24" height="24" viewBox="0 0 24 24" fill="none" xmlns="http://www.w3.org/2000/svg">
<g clip-path="url(#clip0_33_1788)">
<path d="M12 24C18.6274 24 24 18.6274 24 12C24 5.37258 18.6274 0 12 0C5.37258 0 0 5.37258 0 12C0 18.6274 5.37258 24 12 24Z" fill="#6F3FAA"/>
<path d="M18.9313 8.10682V8.0891C18.7704 7.43728 18.3504 6.76364 17.7994 6.19637C17.1558 5.53092 16.3363 5.00864 15.5535 4.83955H15.5372C13.2029 4.39235 10.805 4.39235 8.47081 4.83955H8.45445C7.00081 5.15455 5.42308 6.67364 5.07127 8.0891V8.10682C4.63901 10.0692 4.63901 12.1022 5.07127 14.0646V14.0809C5.32217 15.09 6.1949 16.1509 7.20127 16.7918C7.52992 17.006 7.88768 17.1718 8.26354 17.2841V18.8632C8.26407 18.9894 8.30216 19.1126 8.37296 19.217C8.44376 19.3215 8.54406 19.4025 8.66108 19.4498C8.7781 19.497 8.90654 19.5083 9.03002 19.4823C9.15351 19.4563 9.26645 19.3941 9.35445 19.3036L10.9554 17.64C11.3017 17.6591 11.6508 17.67 11.9972 17.67C13.1828 17.6697 14.3658 17.5574 15.5304 17.3346H15.5467C16.9963 17.0182 18.5754 15.4991 18.9244 14.0836V14.0673C19.3594 12.1045 19.3617 10.0706 18.9313 8.10682ZM17.6644 13.7727C17.4299 14.6959 16.2326 15.8455 15.2794 16.0568C14.0414 16.294 12.7814 16.3968 11.5213 16.3636C11.509 16.3629 11.4967 16.365 11.4854 16.3697C11.474 16.3744 11.4639 16.3817 11.4558 16.3909L10.2872 17.5909L9.04354 18.8659C9.02364 18.8869 8.9979 18.9015 8.96963 18.9077C8.94136 18.914 8.91187 18.9116 8.88498 18.9008C8.85809 18.8901 8.83505 18.8716 8.81883 18.8476C8.8026 18.8236 8.79395 18.7953 8.79399 18.7664V16.1482C8.79402 16.1271 8.78667 16.1067 8.77322 16.0905C8.75977 16.0743 8.74106 16.0634 8.72036 16.0596C8.52157 16.0123 8.32991 15.9389 8.15036 15.8414C7.34036 15.4091 6.52354 14.5227 6.33536 13.7727C5.94557 11.9989 5.94557 10.1616 6.33536 8.38773C6.56854 7.46864 7.77263 6.32182 8.71899 6.1091C10.8862 5.69444 13.1123 5.69444 15.2794 6.1091C15.8044 6.22637 16.4044 6.62592 16.8735 7.11682C17.2594 7.51637 17.5554 7.97728 17.6644 8.39182C18.0536 10.1644 18.0536 12.0002 17.6644 13.7727Z" fill="white"/>
<path d="M15.3135 13.909C15.1363 14.3133 14.8317 14.6485 14.4462 14.8635C14.3253 14.915 14.1997 14.9548 14.0712 14.9822C13.9253 14.9385 13.7862 14.9085 13.6621 14.8553C12.6284 14.453 11.6662 13.8872 10.8121 13.1794C10.5585 12.963 10.3202 12.7292 10.0989 12.4799C9.5527 11.8509 9.09401 11.1509 8.73529 10.399C8.56074 10.0431 8.41347 9.67489 8.26347 9.30807C8.12711 8.97398 8.32893 8.62625 8.5362 8.37671C8.73909 8.14528 8.98864 7.95939 9.26847 7.83125C9.36694 7.78176 9.47963 7.76831 9.58698 7.79322C9.69433 7.81812 9.78958 7.87983 9.8562 7.96762C10.2045 8.35914 10.5116 8.78548 10.7726 9.23989C10.8547 9.37204 10.8829 9.53076 10.8511 9.68311C10.8194 9.83545 10.7302 9.96973 10.6021 10.0581C10.5339 10.1058 10.4657 10.1603 10.4071 10.2135C10.3493 10.2563 10.2994 10.3089 10.2598 10.369C10.2256 10.4252 10.2049 10.4885 10.1992 10.554C10.1936 10.6195 10.2031 10.6855 10.2271 10.7467C10.4903 11.4708 10.8898 12.0749 11.4871 12.499C11.6893 12.6418 11.9071 12.7612 12.1362 12.8549C12.2859 12.9363 12.454 12.9776 12.6244 12.9749C12.9217 12.9394 13.0198 12.6108 13.2271 12.4417C13.3222 12.3638 13.44 12.3187 13.5628 12.313C13.6857 12.3074 13.807 12.3415 13.9089 12.4103C14.1298 12.5467 14.3426 12.7008 14.5553 12.8508C14.7657 12.9943 14.9683 13.1491 15.1621 13.3144C15.2528 13.3803 15.3175 13.4758 15.3452 13.5844C15.3728 13.693 15.3616 13.8078 15.3135 13.909ZM12.3912 7.37443H12.2167C12.2726 7.37171 12.3312 7.37443 12.3912 7.37443Z" fill="white"/>
<path d="M15.409 11.4613C15.2727 11.4613 15.2059 11.3454 15.1963 11.2185C15.1786 10.969 15.1649 10.7181 15.1309 10.4699C15.0721 10.0511 14.9262 9.64931 14.7027 9.29035C14.4731 8.91633 14.1675 8.59466 13.8058 8.34614C13.444 8.09762 13.0342 7.92779 12.6027 7.84763C12.4063 7.81217 12.2059 7.80399 12.0081 7.78353C11.8827 7.7699 11.7177 7.76172 11.6904 7.60626C11.6863 7.57607 11.6887 7.54536 11.6975 7.51617C11.7062 7.48699 11.7211 7.46001 11.7411 7.43703C11.7611 7.41405 11.7858 7.39561 11.8135 7.38294C11.8412 7.37026 11.8713 7.36365 11.9018 7.36353C11.9345 7.36157 11.9672 7.36157 11.9999 7.36353C12.596 7.36858 13.1816 7.52055 13.7049 7.80598C14.2282 8.09141 14.673 8.50149 14.9999 8.9999C15.258 9.40165 15.4333 9.85089 15.5154 10.3213C15.5672 10.6158 15.5863 10.9185 15.6095 11.2185C15.6141 11.2479 15.6125 11.278 15.6047 11.3067C15.5968 11.3354 15.583 11.3621 15.564 11.3851C15.545 11.4081 15.5214 11.4267 15.4947 11.4398C15.468 11.453 15.4388 11.4603 15.409 11.4613Z" fill="white"/>
<path d="M14.6711 10.8247C14.6704 10.8652 14.6649 10.9054 14.6548 10.9447C14.6429 10.9841 14.6191 11.0189 14.5867 11.0443C14.5543 11.0698 14.5149 11.0846 14.4738 11.0869C14.4326 11.0891 14.3918 11.0786 14.3569 11.0568C14.3219 11.035 14.2945 11.003 14.2784 10.9651C14.2634 10.9101 14.2565 10.8531 14.258 10.796C14.2612 10.491 14.2008 10.1887 14.0807 9.9083C14.0534 9.8483 14.0234 9.78694 13.9893 9.7283C13.7941 9.39186 13.5044 9.12016 13.1561 8.94694C12.946 8.84773 12.7229 8.77886 12.4934 8.74239C12.3925 8.72603 12.2916 8.71649 12.1907 8.70285C12.1644 8.70153 12.1387 8.69484 12.1151 8.68318C12.0916 8.67153 12.0706 8.65517 12.0536 8.6351C12.0366 8.61503 12.0239 8.59169 12.0163 8.56652C12.0087 8.54135 12.0063 8.51488 12.0093 8.48876C12.0093 8.46203 12.015 8.43562 12.026 8.41124C12.0369 8.38686 12.0529 8.36507 12.0728 8.34729C12.0928 8.32952 12.1163 8.31618 12.1418 8.30812C12.1672 8.30007 12.1941 8.2975 12.2207 8.30058C12.6211 8.3162 13.0133 8.41856 13.3702 8.60058C13.806 8.81988 14.1616 9.1711 14.3861 9.60421C14.5127 9.85709 14.5974 10.1288 14.6371 10.4088C14.6444 10.4453 14.6499 10.4821 14.6534 10.5192C14.6602 10.601 14.663 10.6828 14.6698 10.7838C14.6698 10.7933 14.6711 10.8056 14.6711 10.8247Z" fill="white"/>
<path d="M13.7371 10.6363C13.7293 10.6709 13.7115 10.7023 13.6857 10.7266C13.6599 10.7509 13.6275 10.767 13.5925 10.7727H13.5625C13.5178 10.7755 13.4734 10.7638 13.436 10.7392C13.3986 10.7146 13.3703 10.6785 13.3552 10.6363C13.3468 10.6139 13.3413 10.5905 13.3389 10.5667C13.3318 10.475 13.3182 10.3838 13.298 10.294C13.2575 10.1121 13.1542 9.95034 13.0061 9.8372C12.9346 9.78593 12.8548 9.7472 12.7702 9.72265C12.6625 9.69129 12.5493 9.69947 12.443 9.67356C12.3904 9.66425 12.3437 9.63448 12.313 9.59077C12.2823 9.54707 12.2702 9.49299 12.2793 9.44038C12.2895 9.38999 12.3176 9.34502 12.3586 9.3139C12.3995 9.28277 12.4503 9.26762 12.5016 9.27129C13.1261 9.31629 13.5925 9.61629 13.7125 10.2858C13.7248 10.348 13.7334 10.4108 13.7384 10.474C13.7461 10.5279 13.7456 10.5826 13.7371 10.6363Z" fill="white"/>
</g>
<defs>
<clipPath id="clip0_33_1788">
<rect width="24" height="24" fill="white"/>
</clipPath>
</defs>
</svg>
