<svg width="24" height="24" viewBox="0 0 24 24" fill="none" xmlns="http://www.w3.org/2000/svg">
<g clip-path="url(#clip0_33_1770)">
<path d="M12 24C18.6274 24 24 18.6274 24 12C24 5.37258 18.6274 0 12 0C5.37258 0 0 5.37258 0 12C0 18.6274 5.37258 24 12 24Z" fill="#4169E1"/>
<path d="M18.9164 16.6964C18.5673 16.7455 16.86 16.6964 16.7714 16.6964C16.33 16.702 15.9042 16.5335 15.5864 16.2273C15.2264 15.8809 14.9045 15.4991 14.5527 15.1364C14.4487 15.0263 14.336 14.9246 14.2159 14.8323C13.935 14.6155 13.6568 14.6646 13.5245 14.9959C13.421 15.354 13.3489 15.7204 13.3091 16.0909C13.2859 16.4264 13.0732 16.6364 12.6968 16.6596C12.4636 16.6718 12.2304 16.6759 12 16.6705C11.1601 16.6651 10.3335 16.4609 9.58771 16.0746C8.78086 15.6249 8.07785 15.0101 7.52453 14.2705C6.61499 13.1087 5.88817 11.8323 5.23908 10.5164C5.20499 10.4509 4.53953 9.03548 4.52317 8.96866C4.46317 8.74502 4.52317 8.53093 4.70726 8.4573C4.82453 8.4123 7.01726 8.4573 7.05408 8.4573C7.21709 8.45588 7.37632 8.5064 7.50871 8.60152C7.6411 8.69664 7.73978 8.83144 7.79044 8.98639C8.19579 10.0243 8.75075 10.9973 9.43771 11.8746C9.53386 11.9919 9.64637 12.0947 9.77181 12.18C9.95044 12.3014 10.1195 12.2591 10.1932 12.0532C10.2804 11.7675 10.3317 11.472 10.3459 11.1737C10.3582 10.5818 10.3459 10.1918 10.3132 9.60139C10.2914 9.2223 10.1577 8.88957 9.59862 8.78321C9.42681 8.75321 9.41181 8.61139 9.52226 8.46957C9.75272 8.17502 10.0677 8.12866 10.4209 8.11093C10.9473 8.08093 11.4736 8.10139 12 8.11093H12.1145C12.3436 8.11019 12.5721 8.1335 12.7964 8.18048C12.9289 8.20728 13.0492 8.27619 13.1394 8.37694C13.2296 8.47769 13.2848 8.60489 13.2968 8.73957C13.3239 8.88888 13.3353 9.04061 13.3309 9.1923C13.3173 9.83866 13.2859 10.4837 13.2791 11.13C13.2729 11.3859 13.2962 11.6417 13.3486 11.8923C13.4236 12.2359 13.6595 12.3218 13.8941 12.0737C14.1978 11.7529 14.4764 11.4091 14.7273 11.0455C15.171 10.3828 15.537 9.67131 15.8182 8.92502C15.9709 8.54184 16.0909 8.4573 16.5 8.4573H18.8264C18.9647 8.45483 19.1026 8.47322 19.2354 8.51184C19.2825 8.5242 19.3264 8.54613 19.3646 8.57627C19.4027 8.60641 19.4343 8.6441 19.4572 8.68698C19.4801 8.72987 19.4939 8.77702 19.4978 8.82549C19.5016 8.87396 19.4954 8.9227 19.4795 8.96866C19.365 9.47866 19.0895 9.91366 18.7977 10.3323C18.3245 11.0032 17.8254 11.6564 17.3414 12.3164C17.2801 12.4039 17.2241 12.495 17.1736 12.5891C16.9909 12.9178 17.0045 13.1018 17.2691 13.3759C17.6918 13.8096 18.1432 14.2173 18.5509 14.6646C18.8504 14.9896 19.1205 15.3406 19.3582 15.7132C19.6568 16.1755 19.4727 16.6173 18.9164 16.6964Z" fill="white"/>
</g>
<defs>
<clipPath id="clip0_33_1770">
<rect width="24" height="24" fill="white"/>
</clipPath>
</defs>
</svg>
