<svg width="1006" height="573" viewBox="0 0 1006 573" fill="none" xmlns="http://www.w3.org/2000/svg">
<path d="M1 572C24.1944 472.301 101.864 389.295 201.839 394.134C226.402 395.323 243.843 412.739 251.082 437.492C254.79 450.168 259.944 476.377 244.121 483.067C226.202 490.643 229.164 456.742 230.844 448.02C236.123 420.599 255.861 392.418 271.45 370.862C292.982 341.086 323.588 314.983 351.76 293.011C372.275 277.01 394.042 264.823 418.405 256.717C456.923 243.902 505.486 231.784 544.22 250.622C551.838 254.327 559.733 262.057 564.201 269.738C565.996 272.825 566.633 279.032 568.97 273.34C582.798 239.658 594.113 209.479 622.081 185.792C655.87 157.175 703.335 130.83 745.317 120.547C779.332 112.215 817.358 114.421 848.702 131.768C859.312 137.64 869.628 145.289 877.061 155.455C881.489 161.511 888.572 178.617 874.225 178.035C839.813 176.639 884.418 103.331 891.757 93.5347C924.183 50.2493 959.979 25.1896 1005 1" stroke="#E1E0E5" stroke-linecap="round" stroke-dasharray="17 17"/>
</svg>
