<svg width="41" height="40" viewBox="0 0 41 40" fill="none" xmlns="http://www.w3.org/2000/svg">
<path fill-rule="evenodd" clip-rule="evenodd" d="M20.8832 25.0117C26.2633 25.0117 30.6248 20.6502 30.6248 15.2701C30.6248 9.88987 26.2633 5.52838 20.8832 5.52838C15.503 5.52838 11.1415 9.88987 11.1415 15.2701C11.1415 20.6502 15.503 25.0117 20.8832 25.0117ZM26.501 11.6864C26.6249 11.5395 26.6064 11.3201 26.4596 11.1961L25.3963 10.2982C25.2495 10.1742 25.03 10.1927 24.906 10.3395L19.1984 17.0985L16.6078 14.878C16.4619 14.7529 16.2423 14.7698 16.1172 14.9157L15.2116 15.9723C15.0865 16.1182 15.1034 16.3378 15.2493 16.4629L19.4366 20.052L26.501 11.6864Z" fill="white"/>
<path fill-rule="evenodd" clip-rule="evenodd" d="M32.0673 25.337C32.7088 25.0987 33.1559 24.5027 33.198 23.812L33.3094 21.9846V21.9839C33.3372 21.5294 33.5423 21.1039 33.8804 20.7989L35.2397 19.5724L35.2404 19.5717C35.7841 19.0805 35.9618 18.3012 35.6847 17.6228L34.9921 15.9281C34.8198 15.5063 34.8198 15.0338 34.9921 14.612L35.6847 12.9173C35.9273 12.3234 35.8213 11.6522 35.4264 11.1646C35.37 11.095 35.3077 11.0291 35.2397 10.9677L33.8804 9.74122C33.5633 9.4551 33.3631 9.06301 33.3166 8.64043C33.3135 8.61228 33.3111 8.58395 33.3094 8.55554L33.198 6.72812C33.1589 6.0878 32.7723 5.52902 32.2049 5.26107C32.1239 5.22281 32.0391 5.19044 31.9512 5.16466L30.1943 4.64946C29.8118 4.53725 29.4812 4.29767 29.2556 3.97307C29.2234 3.9267 29.1932 3.87862 29.1655 3.82889L28.2722 2.23081C27.9368 1.63083 27.2825 1.28835 26.606 1.3462C26.5609 1.35006 26.5157 1.35567 26.4706 1.36314L24.6641 1.6612C24.2708 1.7261 23.8689 1.65373 23.5248 1.45917C23.4756 1.43139 23.4277 1.40111 23.3811 1.36837L21.8829 0.316081C21.358 -0.0526891 20.6801 -0.0987694 20.1168 0.177797C20.0364 0.217295 19.9582 0.263418 19.8832 0.316081L18.3851 1.36837C18.0355 1.61389 17.6088 1.72159 17.1865 1.67301C17.1583 1.66978 17.1301 1.66583 17.102 1.6612L15.2956 1.36314C14.6626 1.25871 14.0318 1.51132 13.6443 2.00487C13.589 2.07537 13.5387 2.1508 13.4939 2.23081L12.6007 3.82889C12.3923 4.20178 12.0545 4.48399 11.6529 4.62346C11.6262 4.63276 11.5991 4.64143 11.5718 4.64946L9.81497 5.16466C9.15549 5.35812 8.67591 5.91979 8.5818 6.59222C8.57551 6.63707 8.57101 6.68238 8.56821 6.72812L8.45677 8.55554C8.43256 8.95344 8.27253 9.32913 8.00632 9.62129C7.96827 9.66303 7.92809 9.70308 7.88579 9.74122L6.52649 10.9677C5.98219 11.4588 5.80424 12.2386 6.08157 12.9173L6.77409 14.612L6.77435 14.6127C6.92495 14.9816 6.94372 15.3892 6.83066 15.7678C6.81452 15.8219 6.79567 15.8754 6.77409 15.9281L6.08157 17.6228C5.80424 18.3015 5.98219 19.0813 6.52649 19.5724L7.88579 20.7989C8.20288 21.085 8.403 21.4771 8.44955 21.8997C8.45269 21.9279 8.45507 21.9562 8.45677 21.9846L8.56821 23.812L8.56829 23.813C8.6077 24.4529 8.99427 25.0113 9.56125 25.279C9.60601 25.3002 9.65197 25.3195 9.69894 25.3369C9.73699 25.351 9.77564 25.3639 9.81497 25.3754L11.5718 25.8906C11.5991 25.8987 11.6262 25.9073 11.6529 25.9166C11.9474 26.0189 12.2077 26.198 12.4076 26.4332C12.4253 26.4541 12.4428 26.4755 12.4595 26.4971C12.5116 26.5646 12.5586 26.636 12.6007 26.7112L13.4939 28.3093C13.8517 28.9493 14.5722 29.2963 15.2956 29.177L17.102 28.8789L17.1034 28.8787C17.5525 28.805 18.0126 28.9102 18.3851 29.1717L19.8832 30.224L19.8841 30.2247C20.4839 30.6455 21.2832 30.6452 21.8829 30.224L23.3811 29.1717C23.754 28.9099 24.2146 28.8047 24.6641 28.8789L26.4706 29.177C27.1939 29.2963 27.9145 28.9493 28.2722 28.3093L29.1655 26.7112C29.2076 26.6359 29.2548 26.5645 29.307 26.497C29.53 26.2081 29.84 25.9946 30.1943 25.8906L31.9512 25.3754C31.9907 25.3638 32.0292 25.3511 32.0673 25.337ZM20.8832 27.0992C27.4162 27.0992 32.7123 21.8031 32.7123 15.27C32.7123 8.73693 27.4162 3.44083 20.8832 3.44083C14.3501 3.44083 9.05398 8.73693 9.05398 15.27C9.05398 21.8031 14.3501 27.0992 20.8832 27.0992Z" fill="white"/>
<path d="M23.0375 31.9636C23.0526 31.9533 23.0677 31.9428 23.0828 31.9323L24.4646 30.9617L26.1307 31.2366C27.7222 31.4992 29.3074 30.7357 30.0944 29.3278L30.9183 27.8538L32.5386 27.3786C32.7397 27.3196 32.9332 27.2451 33.1178 27.1565L37.2186 34.2593C37.3709 34.5231 37.1347 34.8414 36.8381 34.772L30.5074 33.2928C30.3288 33.251 30.1485 33.3551 30.0953 33.5307L28.2112 39.7528C28.1228 40.0443 27.7291 40.0898 27.5768 39.826L23.0375 31.9636Z" fill="white"/>
<path d="M18.7286 31.9636C18.7135 31.9533 18.6984 31.9428 18.6834 31.9323L17.3015 30.9617L15.6354 31.2366C14.044 31.4992 12.4587 30.7357 11.6718 29.3278L10.8479 27.8538L9.22752 27.3786C9.02646 27.3196 8.83305 27.2451 8.64839 27.1565L4.54763 34.2593C4.39533 34.5231 4.63146 34.8414 4.92808 34.772L11.2587 33.2928C11.4373 33.251 11.6177 33.3551 11.6708 33.5307L13.5551 39.7528C13.6433 40.0443 14.037 40.0898 14.1893 39.826L18.7286 31.9636Z" fill="white"/>
</svg>
