<svg width="41" height="40" viewBox="0 0 41 40" fill="none" xmlns="http://www.w3.org/2000/svg">
<path d="M39.6849 18.7751L30.5049 3.82508C30.2649 3.44008 29.8449 3.20508 29.3949 3.20508H19.0149C18.0549 3.20508 17.4649 4.25508 17.9699 5.07508L27.0299 19.8301C27.0599 19.8801 27.0799 19.9401 27.0799 20.0001H40.0349C40.0299 19.5751 39.9149 19.1501 39.6849 18.7751Z" fill="white"/>
<path d="M30.5048 36.18L39.6848 21.23C39.9148 20.85 40.0298 20.425 40.0298 20H27.0798C27.0798 20.065 27.0648 20.125 27.0298 20.18L17.9698 34.93C17.4698 35.75 18.0548 36.8 19.0148 36.8H29.3948C29.8448 36.8 30.2648 36.565 30.5048 36.18Z" fill="white"/>
<path d="M21.8998 18.7751L12.7198 3.82508C12.4798 3.44008 12.0598 3.20508 11.6098 3.20508H1.22977C0.269772 3.20508 -0.320228 4.25508 0.184772 5.07508L9.24477 19.8301C9.27477 19.8801 9.29477 19.9401 9.29477 20.0001H22.2498C22.2448 19.5751 22.1298 19.1501 21.8998 18.7751Z" fill="white"/>
<path d="M12.7196 36.18L21.8996 21.23C22.1296 20.85 22.2446 20.425 22.2446 20H9.28961C9.28961 20.065 9.27461 20.125 9.23961 20.18L0.184612 34.93C-0.315388 35.75 0.269612 36.8 1.22961 36.8H11.6096C12.0596 36.8 12.4796 36.565 12.7196 36.18Z" fill="white"/>
</svg>
