<svg width="40" height="40" viewBox="0 0 40 40" fill="none" xmlns="http://www.w3.org/2000/svg">
<path d="M13.8787 13.2761C12.0325 13.2761 10.6052 14.5419 10.9323 15.9725C11.2725 17.4593 13.1486 17.7236 15.214 18.0147C16.9268 18.256 18.7698 18.5158 19.9748 19.5063V15.9677H17.8429C17.2087 13.649 15.5417 13.2761 13.8787 13.2761Z" fill="white"/>
<path fill-rule="evenodd" clip-rule="evenodd" d="M0 9.99988C0 4.47682 4.47742 0 9.9998 0H40V30.0004C40 35.5231 35.5226 40 30 40H9.9998C4.47742 40 0 35.5231 0 30.0004V9.99988ZM28.2502 14.9929H33.0525L27.6029 20.9659L33.0513 29.9787H28.7373L24.9932 23.8251L23.6817 25.2597V29.9787H19.9748V28.3276C18.6188 29.529 16.7269 30.2056 14.6501 30.2056C11.9427 30.2056 9.86864 29.4208 8.48579 27.8722C7.22285 26.4589 6.91282 24.8119 6.85475 23.786H10.8296C10.8296 23.786 10.9543 26.5179 14.6501 26.5179C16.0692 26.5179 18.2311 26.0463 18.286 24.1284C18.3386 22.2803 16.3551 21.9039 14.2817 21.6342C11.6555 21.2928 8.08057 20.6775 7.22157 16.8248C6.88997 15.3366 7.36912 13.51 8.44233 12.1718C9.30642 11.0939 10.939 9.80873 13.8105 9.80873C16.2935 9.80873 18.2355 10.5322 19.5835 11.9592C19.7263 12.1106 19.8538 12.2658 19.9748 12.4219V9.99972H23.6817V19.9965L28.2502 14.9929Z" fill="white"/>
</svg>
