<svg width="40" height="40" viewBox="0 0 40 40" fill="none" xmlns="http://www.w3.org/2000/svg">
<path d="M19.1673 3.33594C16.7362 3.33594 14.4046 4.30171 12.6855 6.02079C10.9664 7.73988 10.0007 10.0715 10.0007 12.5026C10.0007 14.9338 10.9664 17.2653 12.6855 18.9844C14.4046 20.7035 16.7362 21.6693 19.1673 21.6693C21.5985 21.6693 23.93 20.7035 25.6491 18.9844C27.3682 17.2653 28.334 14.9338 28.334 12.5026C28.334 10.0715 27.3682 7.73988 25.6491 6.02079C23.93 4.30171 21.5985 3.33594 19.1673 3.33594ZM32.5007 21.2526V23.5459C33.6923 23.8526 34.754 24.4793 35.5907 25.3326L37.5773 24.1843L39.244 27.0709L37.259 28.2176C37.5835 29.3855 37.5835 30.6197 37.259 31.7876L39.244 32.9343L37.5773 35.8209L35.5907 34.6726C34.7422 35.5379 33.6739 36.1556 32.5007 36.4593V38.7526H29.1673V36.4593C27.9941 36.1556 26.9258 35.5379 26.0773 34.6726L24.089 35.8209L22.4223 32.9343L24.409 31.7876C24.0844 30.6197 24.0844 29.3855 24.409 28.2176L22.4223 27.0709L24.089 24.1843L26.0773 25.3309C26.926 24.4662 27.9943 23.8491 29.1673 23.5459V21.2526H32.5007ZM27.9157 28.3909C27.6427 28.8843 27.4993 29.4388 27.499 30.0026C27.499 30.5859 27.6507 31.1359 27.9157 31.6143L27.9757 31.7193C28.2718 32.2129 28.6907 32.6214 29.1916 32.905C29.6925 33.1886 30.2584 33.3377 30.834 33.3377C31.4096 33.3377 31.9754 33.1886 32.4763 32.905C32.9772 32.6214 33.3962 32.2129 33.6923 31.7193L33.7523 31.6143C34.0173 31.1359 34.1673 30.5876 34.1673 30.0026C34.1673 29.4193 34.0173 28.8693 33.7523 28.3909L33.6907 28.2859C33.3944 27.7927 32.9755 27.3846 32.4748 27.1012C31.9741 26.8179 31.4085 26.6689 30.8332 26.6689C30.2578 26.6689 29.6922 26.8179 29.1915 27.1012C28.6908 27.3846 28.2719 27.7927 27.9757 28.2859L27.9157 28.3909ZM21.7707 23.3359C20.3466 25.2666 19.5801 27.6035 19.584 30.0026C19.5801 32.4017 20.3466 34.7386 21.7707 36.6693H3.33398V33.3359C3.33398 30.6838 4.38755 28.1402 6.26292 26.2649C8.13828 24.3895 10.6818 23.3359 13.334 23.3359H21.7707Z" fill="white"/>
</svg>
