<svg width="40" height="40" viewBox="0 0 40 40" fill="none" xmlns="http://www.w3.org/2000/svg">
<path d="M34.9985 9.52344V23.3368C34.9963 24.8832 34.381 26.3656 33.2875 27.4591C32.194 28.5526 30.7116 29.1679 29.1652 29.1701H15.851L13.1602 31.6701H23.9668L29.431 36.7451C29.5498 36.8556 29.6984 36.929 29.8584 36.9563C30.0183 36.9836 30.1828 36.9636 30.3316 36.8987C30.4803 36.8339 30.6069 36.727 30.6958 36.5912C30.7847 36.4554 30.8319 36.2966 30.8318 36.1343V31.6701H33.3318C34.4365 31.6688 35.4955 31.2294 36.2766 30.4483C37.0578 29.6671 37.4972 28.6081 37.4985 27.5034V13.3368C37.4974 12.527 37.2604 11.735 36.8164 11.0578C36.3724 10.3805 35.7407 9.84736 34.9985 9.52344Z" fill="white"/>
<path d="M29.166 5H5.83268C4.72802 5.00132 3.66898 5.44073 2.88787 6.22185C2.10675 7.00296 1.66734 8.062 1.66602 9.16667V23.3333C1.66734 24.438 2.10675 25.497 2.88787 26.2782C3.66898 27.0593 4.72802 27.4987 5.83268 27.5H8.33268V31.9642C8.33257 32.1265 8.37984 32.2853 8.46871 32.4211C8.55758 32.5569 8.68416 32.6638 8.83293 32.7286C8.9817 32.7935 9.14617 32.8135 9.30615 32.7862C9.46614 32.7589 9.61467 32.6855 9.73352 32.575L15.1977 27.5H29.166C30.2707 27.4987 31.3297 27.0593 32.1108 26.2782C32.8919 25.497 33.3314 24.438 33.3327 23.3333V9.16667C33.3314 8.062 32.8919 7.00296 32.1108 6.22185C31.3297 5.44073 30.2707 5.00132 29.166 5ZM9.99935 18.3333C9.58731 18.3333 9.18451 18.2111 8.84191 17.9822C8.49931 17.7533 8.23228 17.4279 8.0746 17.0473C7.91692 16.6666 7.87566 16.2477 7.95605 15.8436C8.03643 15.4394 8.23485 15.0682 8.52621 14.7769C8.81757 14.4855 9.18878 14.2871 9.59291 14.2067C9.99704 14.1263 10.4159 14.1676 10.7966 14.3253C11.1773 14.4829 11.5027 14.75 11.7316 15.0926C11.9605 15.4352 12.0827 15.838 12.0827 16.25C12.0827 16.8025 11.8632 17.3324 11.4725 17.7231C11.0818 18.1138 10.5519 18.3333 9.99935 18.3333ZM17.4993 18.3333C17.0873 18.3333 16.6845 18.2111 16.3419 17.9822C15.9993 17.7533 15.7323 17.4279 15.5746 17.0473C15.4169 16.6666 15.3757 16.2477 15.456 15.8436C15.5364 15.4394 15.7349 15.0682 16.0262 14.7769C16.3176 14.4855 16.6888 14.2871 17.0929 14.2067C17.497 14.1263 17.9159 14.1676 18.2966 14.3253C18.6773 14.4829 19.0027 14.75 19.2316 15.0926C19.4605 15.4352 19.5827 15.838 19.5827 16.25C19.5827 16.8025 19.3632 17.3324 18.9725 17.7231C18.5818 18.1138 18.0519 18.3333 17.4993 18.3333ZM24.9993 18.3333C24.5873 18.3333 24.1845 18.2111 23.8419 17.9822C23.4993 17.7533 23.2323 17.4279 23.0746 17.0473C22.9169 16.6666 22.8757 16.2477 22.956 15.8436C23.0364 15.4394 23.2349 15.0682 23.5262 14.7769C23.8176 14.4855 24.1888 14.2871 24.5929 14.2067C24.997 14.1263 25.4159 14.1676 25.7966 14.3253C26.1773 14.4829 26.5027 14.75 26.7316 15.0926C26.9605 15.4352 27.0827 15.838 27.0827 16.25C27.0827 16.8025 26.8632 17.3324 26.4725 17.7231C26.0818 18.1138 25.5519 18.3333 24.9993 18.3333Z" fill="white"/>
</svg>
