<svg width="42" height="40" viewBox="0 0 42 40" fill="none" xmlns="http://www.w3.org/2000/svg">
<g clip-path="url(#clip0_674_147073)">
<path d="M41.2954 21.1336C41.797 22.5441 41.3564 24.1294 40.1925 25.0776L40.0605 25.1839V40.0001H34.6756L34.6778 24.5635H34.6635V13.8565C34.6635 12.6203 33.6574 11.613 32.4227 11.613C31.9657 11.613 31.5413 11.7521 31.1855 11.988C31.5767 11.1532 32.2837 10.4785 33.2002 10.153L33.5609 10.0233C34.006 9.86224 34.4788 9.79239 34.9514 9.81786C35.4075 9.84362 35.8542 9.95825 36.2664 10.1553C37.1218 10.5611 37.7696 11.2732 38.0879 12.1649L41.2954 21.1336Z" fill="white"/>
<path d="M33.9567 13.8564V27.4339H30.8927V25.5139C31.958 24.5727 32.4741 23.169 32.2975 21.7892C32.2606 21.4841 32.1894 21.1842 32.0852 20.8952L30.888 17.5456V13.8564C30.888 13.3277 31.1568 12.8586 31.5643 12.5824C31.818 12.4118 32.1167 12.3206 32.4223 12.3204C33.2685 12.3204 33.9567 13.0092 33.9567 13.8564ZM33.6242 6.81257C33.6242 8.71158 32.0831 10.2541 30.1859 10.2541C28.2888 10.2541 26.7451 8.71158 26.7451 6.81257C26.7451 4.91357 28.2889 3.36865 30.1859 3.36865C32.083 3.36865 33.6242 4.91357 33.6242 6.81257Z" fill="white"/>
<path d="M31.5984 21.8716C31.7492 23.0699 31.2802 24.2918 30.3185 25.0773L30.1867 25.1837V39.9999H24.8016L24.8044 24.5633H24.7901V13.8563C24.7901 12.6201 23.7838 11.6128 22.5492 11.6128C22.1086 11.6125 21.6779 11.743 21.3115 11.9878C21.7029 11.1529 22.4096 10.4782 23.3265 10.1528L23.6848 10.023C24.1307 9.86197 24.6044 9.79212 25.0778 9.81763C25.5338 9.84342 25.9804 9.95805 26.3926 10.1551C27.2481 10.5608 27.896 11.273 28.2144 12.1647L31.4218 21.1334C31.5055 21.3728 31.5647 21.6202 31.5984 21.8716Z" fill="white"/>
<path d="M24.0828 13.8564V27.434H21.0145V13.8564C21.0145 13.0092 21.7024 12.3204 22.5487 12.3204C23.3942 12.3204 24.0828 13.0092 24.0828 13.8564ZM20.312 3.3687C22.2067 3.3687 23.75 4.91361 23.75 6.81262C23.75 8.71163 22.2068 10.2541 20.312 10.2541C18.415 10.2541 16.8713 8.71163 16.8713 6.81262C16.8713 4.91361 18.415 3.3687 20.312 3.3687ZM17.027 13.9506V23.2659C17.027 25.4833 15.8108 27.5003 13.8927 28.5522V15.9509H13.1857V39.9575H9.11581V25.0894H8.40875V39.9575H4.339V15.9509H3.63216V28.5522C1.71365 27.5004 0.5 25.4833 0.5 23.2659V13.9506C0.5 10.7024 3.07804 8.0487 6.29493 7.92832L8.76228 10.6315L11.232 7.92832C14.4463 8.0487 17.027 10.7024 17.027 13.9507V13.9506ZM12.3845 3.62576C12.3845 5.45626 11.022 6.97067 9.2594 7.21363H8.26471C6.50234 6.97056 5.14026 5.45626 5.14026 3.62576C5.14026 1.62752 6.7663 0 8.76228 0C10.7609 0 12.3845 1.62752 12.3845 3.62576Z" fill="white"/>
<path d="M10.2777 7.92139L8.76254 9.58228L7.24707 7.92139H8.21568C8.39723 7.94518 8.57856 7.95916 8.76254 7.95916C8.94893 7.95916 9.13004 7.94518 9.30928 7.92139H10.2777Z" fill="white"/>
</g>
<defs>
<clipPath id="clip0_674_147073">
<rect width="41" height="40" fill="white" transform="translate(0.5)"/>
</clipPath>
</defs>
</svg>
