<svg width="42" height="42" viewBox="0 0 42 42" fill="none" xmlns="http://www.w3.org/2000/svg">
<g clip-path="url(#clip0_674_147081)">
<path d="M41.7538 37.52L23.8517 1.68C22.7328 -0.56 19.6559 -0.56 18.537 1.68L0.355163 37.52C-0.763718 39.48 0.914604 42 3.15237 42H38.9566C41.1943 42 42.5929 39.48 41.7538 37.52ZM21.0545 36.4C18.8167 36.4 16.8587 34.44 16.8587 32.2C16.8587 29.96 18.537 28 21.0545 28C23.5719 28 25.2503 29.96 25.2503 32.2C25.2503 34.72 23.2922 36.4 21.0545 36.4ZM23.8517 25.2H18.2573L16.8587 15.4C16.8587 14.56 17.4181 14 18.2573 14H23.8517C24.6908 14 25.2503 14.56 25.2503 15.4L23.8517 25.2Z" fill="white"/>
</g>
<defs>
<clipPath id="clip0_674_147081">
<rect width="42" height="42" fill="white"/>
</clipPath>
</defs>
</svg>
