<svg width="40" height="40" viewBox="0 0 40 40" fill="none" xmlns="http://www.w3.org/2000/svg">
<path fill-rule="evenodd" clip-rule="evenodd" d="M20.0008 35C22.7106 35.0002 25.3699 34.2664 27.696 32.8765C30.0222 31.4866 31.9284 29.4924 33.2121 27.106C34.4958 24.7196 35.1091 22.03 34.9868 19.323C34.8645 16.6159 34.0112 13.9926 32.5175 11.7317L20.5925 24.9817C20.0355 25.6007 19.2669 25.9888 18.4381 26.0696C17.6093 26.1504 16.7803 25.9181 16.1142 25.4183L10.6675 21.3333C10.3139 21.0681 10.0801 20.6733 10.0176 20.2357C9.95506 19.7981 10.0689 19.3536 10.3342 19C10.5994 18.6464 10.9942 18.4126 11.4318 18.3501C11.8694 18.2876 12.3139 18.4014 12.6675 18.6667L18.1142 22.7517L30.3575 9.15C28.5838 7.45685 26.4221 6.22433 24.0617 5.56037C21.7012 4.89641 19.214 4.82124 16.8177 5.34145C14.4215 5.86167 12.1893 6.9614 10.3166 8.54435C8.44394 10.1273 6.98789 12.1452 6.07595 14.4214C5.16401 16.6976 4.82399 19.1626 5.08566 21.6007C5.34732 24.0388 6.2027 26.3755 7.57689 28.4063C8.95108 30.4371 10.8022 32.1001 12.9681 33.2496C15.134 34.3991 17.5488 35.0001 20.0008 35Z" fill="white"/>
</svg>
