<svg width="40" height="40" viewBox="0 0 40 40" fill="none" xmlns="http://www.w3.org/2000/svg">
<g clip-path="url(#clip0_363_46487)">
<path d="M27.1146 12.8946L28.9828 14.7157L28.5412 17.2871C28.5042 17.5026 28.5282 17.7242 28.6105 17.9268C28.6929 18.1293 28.8303 18.3048 29.0071 18.4334C29.184 18.562 29.3933 18.6385 29.6114 18.6543C29.8295 18.6701 30.0477 18.6246 30.2413 18.5229L32.5518 17.3088L34.8623 18.5229C34.8771 18.5306 35.4887 18.8753 36.0964 18.4334C36.2733 18.3048 36.4107 18.1293 36.493 17.9268C36.5754 17.7242 36.5994 17.5026 36.5624 17.2871L36.1207 14.7157L37.9889 12.8946C38.6824 12.2271 38.2924 11.028 37.3394 10.8957L34.7553 10.5206L33.6031 8.18134C33.183 7.31438 31.9206 7.31478 31.5006 8.18126L30.3485 10.5206L27.7643 10.8957C26.8109 11.0281 26.4214 12.2274 27.1146 12.8946ZM15.7717 8.78642L15.1733 12.266C15.1362 12.4816 15.1602 12.7032 15.2426 12.9058C15.3249 13.1084 15.4623 13.2839 15.6392 13.4125C16.246 13.8538 16.856 13.511 16.8735 13.502L19.9997 11.8588L23.126 13.502C23.3196 13.6038 23.5378 13.6494 23.7559 13.6336C23.9741 13.6178 24.1835 13.5413 24.3604 13.4127C24.5374 13.284 24.6747 13.1085 24.7571 12.9058C24.8394 12.7032 24.8633 12.4815 24.8262 12.2659L24.2277 8.78642L26.7551 6.32149C26.9116 6.16884 27.0223 5.97545 27.0746 5.76318C27.127 5.55091 27.1189 5.32823 27.0513 5.12031C26.9837 4.91239 26.8593 4.72752 26.6922 4.58661C26.525 4.44569 26.3218 4.35435 26.1054 4.3229L22.611 3.81524L21.0509 0.649775C20.6306 -0.216709 19.3686 -0.216475 18.9485 0.649775L17.3885 3.81532L13.8942 4.3229C13.6778 4.35428 13.4745 4.44559 13.3073 4.58649C13.1401 4.72739 13.0156 4.91227 12.948 5.12022C12.8804 5.32816 12.8723 5.55087 12.9247 5.76317C12.9771 5.97546 13.0878 6.16886 13.2444 6.32149L15.7717 8.78642ZM3.87869 14.7157L3.43705 17.2871C3.40004 17.5026 3.42407 17.7242 3.50641 17.9268C3.58875 18.1293 3.72612 18.3048 3.90299 18.4334C4.07986 18.562 4.28918 18.6385 4.50728 18.6543C4.72538 18.6701 4.94355 18.6246 5.13713 18.5229L7.44768 17.3088L9.75815 18.5229C9.77291 18.5306 10.3846 18.8753 10.9923 18.4334C11.1692 18.3048 11.3065 18.1293 11.3889 17.9268C11.4712 17.7242 11.4952 17.5026 11.4582 17.2871L11.0166 14.7157L12.8848 12.8946C13.5783 12.2271 13.1882 11.028 12.2353 10.8957L9.65111 10.5206L8.499 8.18134C8.07885 7.31438 6.8165 7.31478 6.3965 8.18126L5.24416 10.5206L2.66002 10.8957C1.70666 11.0281 1.31721 12.2274 2.01049 12.8946L3.87869 14.7157ZM11.7992 25.686C11.7992 23.2866 9.84705 21.3345 7.4476 21.3345C1.67463 21.5735 1.67627 29.7995 7.4476 30.0376C9.84713 30.0376 11.7992 28.0855 11.7992 25.686ZM36.9034 25.686C36.9034 23.2866 34.9513 21.3345 32.5518 21.3345C26.7788 21.5735 26.7805 29.7995 32.5518 30.0376C34.9513 30.0376 36.9034 28.0855 36.9034 25.686ZM24.3513 25.686C24.3513 23.2866 22.3992 21.3345 19.9997 21.3345C14.2267 21.5735 14.2284 29.7995 19.9997 30.0376C22.3992 30.0376 24.3513 28.0855 24.3513 25.686Z" fill="white"/>
<path d="M12.1156 31.6883C7.34304 27.7784 -0.0290544 31.2646 8.61269e-05 37.4874V38.8259C8.61269e-05 39.4731 0.524773 39.9978 1.17196 39.9978H10.41C10.2765 39.6215 10.2083 39.2252 10.2084 38.8259V37.4874C10.2084 35.3186 10.9176 33.3127 12.1156 31.6883ZM32.5521 30.0395C30.7864 30.0395 29.1624 30.6576 27.8845 31.6883C29.0825 33.3127 29.7917 35.3187 29.7917 37.4874V38.8259C29.7917 39.2368 29.7202 39.631 29.5901 39.9978H38.8281C39.4753 39.9978 40 39.4731 40 38.8259V37.4874C40 33.3806 36.6589 30.0395 32.5521 30.0395ZM20 30.0395C15.8933 30.0395 12.5522 33.3807 12.5522 37.4874V38.8259C12.5522 39.4731 13.0769 39.9978 13.724 39.9978H26.2761C26.9233 39.9978 27.448 39.4731 27.448 38.8259V37.4874C27.4479 33.3806 24.1068 30.0395 20 30.0395Z" fill="white"/>
</g>
<defs>
<clipPath id="clip0_363_46487">
<rect width="40" height="40" fill="white"/>
</clipPath>
</defs>
</svg>
