<svg width="40" height="40" viewBox="0 0 40 40" fill="none" xmlns="http://www.w3.org/2000/svg">
<path d="M19.9993 28.3307C20.8834 28.3307 21.7312 27.9795 22.3564 27.3544C22.9815 26.7293 23.3327 25.8815 23.3327 24.9974C23.3327 24.1133 22.9815 23.2655 22.3564 22.6404C21.7312 22.0153 20.8834 21.6641 19.9993 21.6641C19.1153 21.6641 18.2674 22.0153 17.6423 22.6404C17.0172 23.2655 16.666 24.1133 16.666 24.9974C16.666 25.8815 17.0172 26.7293 17.6423 27.3544C18.2674 27.9795 19.1153 28.3307 19.9993 28.3307ZM29.9993 13.3307C30.8834 13.3307 31.7312 13.6819 32.3564 14.307C32.9815 14.9322 33.3327 15.78 33.3327 16.6641V33.3307C33.3327 34.2148 32.9815 35.0626 32.3564 35.6878C31.7312 36.3129 30.8834 36.6641 29.9993 36.6641H9.99935C9.11529 36.6641 8.26745 36.3129 7.64233 35.6878C7.0172 35.0626 6.66602 34.2148 6.66602 33.3307V16.6641C6.66602 15.78 7.0172 14.9322 7.64233 14.307C8.26745 13.6819 9.11529 13.3307 9.99935 13.3307H11.666V9.9974C11.666 7.78726 12.544 5.66764 14.1068 4.10484C15.6696 2.54204 17.7892 1.66406 19.9993 1.66406C21.0937 1.66406 22.1773 1.87961 23.1884 2.2984C24.1994 2.71719 25.1181 3.33102 25.8919 4.10484C26.6657 4.87866 27.2796 5.79732 27.6983 6.80837C28.1171 7.81941 28.3327 8.90305 28.3327 9.9974V13.3307H29.9993ZM19.9993 4.9974C18.6733 4.9974 17.4015 5.52418 16.4638 6.46186C15.5261 7.39954 14.9993 8.67131 14.9993 9.9974V13.3307H24.9993V9.9974C24.9993 8.67131 24.4726 7.39954 23.5349 6.46186C22.5972 5.52418 21.3254 4.9974 19.9993 4.9974Z" fill="white"/>
</svg>
