<svg width="40" height="40" viewBox="0 0 40 40" fill="none" xmlns="http://www.w3.org/2000/svg">
<path d="M25.625 26.875C25.625 25.7932 25.625 22.5001 28.75 22.5001H35V18.7501C35 17.0269 33.5981 15.6251 31.875 15.6251H5C3.27688 15.6251 1.875 17.0269 1.875 18.7501V35C1.875 36.7232 3.27688 38.125 5 38.125H31.875C33.5981 38.125 35 36.7232 35 35V31.25H28.75C25.625 31.25 25.625 27.9569 25.625 26.875ZM26.875 14.3751V10.5863C26.875 9.94068 26.5381 9.35505 25.9737 9.02005C25.6895 8.84972 25.3655 8.75696 25.0342 8.75103C24.7029 8.74511 24.3758 8.82624 24.0856 8.9863L13.2788 14.3751H26.875Z" fill="white"/>
<path d="M30.625 28.125C31.3154 28.125 31.875 27.5654 31.875 26.875C31.875 26.1846 31.3154 25.625 30.625 25.625C29.9346 25.625 29.375 26.1846 29.375 26.875C29.375 27.5654 29.9346 28.125 30.625 28.125Z" fill="white"/>
<path d="M21.2502 9.00376V6.34314C21.2573 5.96517 21.154 5.59334 20.9529 5.2732C20.7519 4.95305 20.4619 4.69847 20.1184 4.54064C19.4546 4.23939 18.7271 4.35064 18.1721 4.83751L7.28711 14.375H10.4784L21.2502 9.00376ZM36.2502 23.75H28.7502C27.6246 23.75 26.8752 24.2819 26.8752 26.875C26.8752 29.4681 27.6246 30 28.7502 30H36.2502C37.284 30 38.1252 29.1588 38.1252 28.125V25.625C38.1252 24.5913 37.284 23.75 36.2502 23.75ZM30.6252 29.375C29.2465 29.375 28.1252 28.2538 28.1252 26.875C28.1252 25.4963 29.2465 24.375 30.6252 24.375C32.004 24.375 33.1252 25.4963 33.1252 26.875C33.1252 28.2538 32.004 29.375 30.6252 29.375ZM38.6121 5.49876L35.7371 1.63126C35.6504 1.51445 35.5376 1.41956 35.4077 1.35419C35.2777 1.28883 35.1343 1.25482 34.9888 1.25488C34.8434 1.25494 34.7 1.28908 34.5701 1.35454C34.4402 1.42001 34.3274 1.515 34.2409 1.63189L31.3834 5.48001C31.3201 5.543 31.2769 5.62337 31.2594 5.71092C31.2419 5.79846 31.2507 5.88925 31.2849 5.97174C31.319 6.05424 31.3769 6.12473 31.4512 6.17428C31.5255 6.22382 31.6128 6.25018 31.7021 6.25001H33.1134C33.2998 7.16382 33.1981 8.11297 32.8223 8.96654C32.4465 9.82012 31.8151 10.5361 31.0152 11.0156L30.6252 11.25L33.1252 13.125L33.2352 13.0519C34.355 12.3053 35.2731 11.2939 35.908 10.1073C36.543 8.92076 36.8752 7.59579 36.8752 6.25001H38.3009C38.3879 6.25006 38.473 6.22428 38.5454 6.17594C38.6178 6.12759 38.6743 6.05886 38.7076 5.97843C38.7409 5.898 38.7496 5.80949 38.7326 5.7241C38.7156 5.63872 38.6737 5.5603 38.6121 5.49876Z" fill="white"/>
</svg>
