<svg width="40" height="40" viewBox="0 0 40 40" fill="none" xmlns="http://www.w3.org/2000/svg">
<g clip-path="url(#clip0_674_147069)">
<path d="M29.375 18.8281H30.4814C30.2557 16.7968 29.4512 14.9381 28.2366 13.4206L27.4577 14.1994C27 14.6571 26.2581 14.6571 25.8004 14.1994C25.3428 13.7418 25.3428 12.9998 25.8004 12.5421L26.5793 11.7633C25.0618 10.5487 23.2031 9.7441 21.1718 9.51855V10.625C21.1718 11.2721 20.6471 11.7968 20 11.7968C19.3528 11.7968 18.8281 11.2721 18.8281 10.625V9.51855C16.7968 9.74418 14.9381 10.5487 13.4206 11.7633L14.1995 12.5421C14.6571 12.9998 14.6571 13.7418 14.1995 14.1994C13.7418 14.6571 12.9999 14.6571 12.5422 14.1994L11.7633 13.4206C10.5487 14.9381 9.7441 16.7968 9.51855 18.8281H10.625C11.2721 18.8281 11.7968 19.3528 11.7968 20C11.7968 20.6471 11.2721 21.1718 10.625 21.1718H9.51855C9.74418 23.2031 10.5487 25.0618 11.7633 26.5793L12.5422 25.8005C12.9998 25.3429 13.7418 25.3429 14.1995 25.8005C14.6571 26.2582 14.6571 27.0001 14.1995 27.4578L13.4206 28.2366C14.9381 29.4512 16.7968 30.2558 18.8281 30.4814V29.375C18.8281 28.7278 19.3528 28.2031 20 28.2031C20.6471 28.2031 21.1718 28.7278 21.1718 29.375V30.4814C23.2031 30.2557 25.0618 29.4512 26.5793 28.2366L25.8004 27.4578C25.3428 27.0001 25.3428 26.2582 25.8004 25.8005C26.2581 25.3429 27 25.3429 27.4577 25.8005L28.2366 26.5793C29.4512 25.0618 30.2558 23.2031 30.4814 21.1718H29.375C28.7278 21.1718 28.2031 20.6471 28.2031 20C28.2031 19.3528 28.7278 18.8281 29.375 18.8281ZM23.9062 21.1718H20C19.3528 21.1718 18.8281 20.6471 18.8281 20V16.0937C18.8281 15.4465 19.3528 14.9218 20 14.9218C20.6471 14.9218 21.1718 15.4465 21.1718 16.0937V18.8281H23.9062C24.5534 18.8281 25.0781 19.3528 25.0781 20C25.0781 20.6471 24.5534 21.1718 23.9062 21.1718Z" fill="white"/>
<path d="M39.2535 15.783L36.7827 14.8203C36.4612 13.7738 36.0423 12.7597 35.5313 11.7915L36.5961 9.36742C36.691 9.15134 36.7185 8.91164 36.6749 8.6797C36.6313 8.44776 36.5187 8.23438 36.3518 8.0675L31.9323 3.64805C31.7655 3.48117 31.5521 3.36856 31.3201 3.32497C31.0882 3.28138 30.8485 3.30884 30.6324 3.40375L28.2084 4.46852C27.2401 3.95758 26.2261 3.53864 25.1795 3.21719L24.217 0.746484C24.1313 0.52657 23.9812 0.337648 23.7864 0.204453C23.5915 0.0712584 23.361 -2.56321e-06 23.125 0L16.875 0C16.639 -2.56321e-06 16.4085 0.0712584 16.2136 0.204453C16.0188 0.337648 15.8687 0.52657 15.783 0.746484L14.8203 3.21734C13.7738 3.53879 12.7597 3.95774 11.7915 4.46867L9.36742 3.40391C9.15134 3.309 8.91164 3.28154 8.6797 3.32513C8.44776 3.36872 8.23438 3.48132 8.0675 3.6482L3.64812 8.06766C3.48124 8.23454 3.36864 8.44791 3.32505 8.67986C3.28146 8.9118 3.30892 9.1515 3.40383 9.36758L4.46859 11.7916C3.95766 12.7599 3.53872 13.7739 3.21727 14.8205L0.746484 15.783C0.52657 15.8687 0.337648 16.0188 0.204453 16.2136C0.0712584 16.4085 -2.56321e-06 16.639 0 16.875L0 23.125C-2.56321e-06 23.361 0.0712584 23.5915 0.204453 23.7864C0.337648 23.9812 0.52657 24.1313 0.746484 24.217L3.21734 25.1797C3.53879 26.2262 3.95774 27.2403 4.46867 28.2085L3.40391 30.6325C3.309 30.8486 3.28154 31.0883 3.32513 31.3202C3.36872 31.5522 3.48132 31.7655 3.6482 31.9324L8.06758 36.3518C8.23446 36.5187 8.44783 36.6313 8.67978 36.6749C8.91172 36.7185 9.15142 36.691 9.3675 36.5961L11.7916 35.5313C12.7598 36.0423 13.7739 36.4612 14.8204 36.7827L15.7831 39.2535C15.8688 39.4734 16.0189 39.6623 16.2137 39.7955C16.4085 39.9287 16.639 40 16.875 40H23.125C23.361 40 23.5915 39.9287 23.7864 39.7955C23.9812 39.6623 24.1313 39.4734 24.217 39.2535L25.1797 36.7827C26.2262 36.4612 27.2403 36.0423 28.2085 35.5313L30.6326 36.5961C30.8487 36.691 31.0884 36.7185 31.3203 36.6749C31.5522 36.6313 31.7656 36.5187 31.9325 36.3518L36.352 31.9324C36.5188 31.7655 36.6314 31.5522 36.675 31.3202C36.7186 31.0883 36.6912 30.8486 36.5963 30.6325L35.5315 28.2084C36.0424 27.2402 36.4614 26.2261 36.7828 25.1796L39.2537 24.2169C39.4735 24.1312 39.6624 23.9811 39.7956 23.7863C39.9288 23.5915 40 23.361 40 23.125V16.875C40 16.639 39.9287 16.4085 39.7955 16.2136C39.6623 16.0188 39.4734 15.8687 39.2535 15.783ZM20 32.8906C12.8921 32.8906 7.10938 27.1079 7.10938 20C7.10938 12.8921 12.8921 7.10938 20 7.10938C27.1079 7.10938 32.8906 12.8921 32.8906 20C32.8906 27.1079 27.1079 32.8906 20 32.8906Z" fill="white"/>
</g>
<defs>
<clipPath id="clip0_674_147069">
<rect width="40" height="40" fill="white"/>
</clipPath>
</defs>
</svg>
